<?xml version="1.0" encoding="utf-8" standalone="no"?>
<!DOCTYPE svg PUBLIC "-//W3C//DTD SVG 1.1//EN"
  "http://www.w3.org/Graphics/SVG/1.1/DTD/svg11.dtd">
<svg xmlns:xlink="http://www.w3.org/1999/xlink" width="980.122805pt" height="260.76075pt" viewBox="0 0 980.122805 260.76075" xmlns="http://www.w3.org/2000/svg" version="1.1">
 <metadata>
  <rdf:RDF xmlns:dc="http://purl.org/dc/elements/1.1/" xmlns:cc="http://creativecommons.org/ns#" xmlns:rdf="http://www.w3.org/1999/02/22-rdf-syntax-ns#">
   <cc:Work>
    <dc:type rdf:resource="http://purl.org/dc/dcmitype/StillImage"/>
    <dc:date>2026-03-31T22:20:53.297249</dc:date>
    <dc:format>image/svg+xml</dc:format>
    <dc:creator>
     <cc:Agent>
      <dc:title>Matplotlib v3.10.8, https://matplotlib.org/</dc:title>
     </cc:Agent>
    </dc:creator>
   </cc:Work>
  </rdf:RDF>
 </metadata>
 <defs>
  <style type="text/css">*{stroke-linejoin: round; stroke-linecap: butt}</style>
 </defs>
 <g id="figure_1">
  <g id="patch_1">
   <path d="M 0 260.76075 
L 980.122805 260.76075 
L 980.122805 0 
L 0 0 
z
" style="fill: #ffffff"/>
  </g>
  <g id="axes_1">
   <g id="patch_2">
    <path d="M 76.208 229.165 
L 964.903447 229.165 
L 964.903447 27.177 
L 76.208 27.177 
z
" style="fill: #ffffff"/>
   </g>
   <g id="matplotlib.axis_1">
    <g id="xtick_1">
     <g id="line2d_1">
      <path d="M 76.208 229.165 
L 76.208 27.177 
" clip-path="url(#p3c735003d1)" style="fill: none; stroke: #cccccc; stroke-width: 0.8; stroke-linecap: round"/>
     </g>
     <g id="text_1">
      <!-- 2010 -->
      <g style="fill: #262626" transform="translate(56.6335 250.06275) scale(0.176 -0.176)">
       <defs>
        <path id="ArialMT-32" d="M 3222 541 
L 3222 0 
L 194 0 
Q 188 203 259 391 
Q 375 700 629 1000 
Q 884 1300 1366 1694 
Q 2113 2306 2375 2664 
Q 2638 3022 2638 3341 
Q 2638 3675 2398 3904 
Q 2159 4134 1775 4134 
Q 1369 4134 1125 3890 
Q 881 3647 878 3216 
L 300 3275 
Q 359 3922 746 4261 
Q 1134 4600 1788 4600 
Q 2447 4600 2831 4234 
Q 3216 3869 3216 3328 
Q 3216 3053 3103 2787 
Q 2991 2522 2730 2228 
Q 2469 1934 1863 1422 
Q 1356 997 1212 845 
Q 1069 694 975 541 
L 3222 541 
z
" transform="scale(0.015625)"/>
        <path id="ArialMT-30" d="M 266 2259 
Q 266 3072 433 3567 
Q 600 4063 929 4331 
Q 1259 4600 1759 4600 
Q 2128 4600 2406 4451 
Q 2684 4303 2865 4023 
Q 3047 3744 3150 3342 
Q 3253 2941 3253 2259 
Q 3253 1453 3087 958 
Q 2922 463 2592 192 
Q 2263 -78 1759 -78 
Q 1097 -78 719 397 
Q 266 969 266 2259 
z
M 844 2259 
Q 844 1131 1108 757 
Q 1372 384 1759 384 
Q 2147 384 2411 759 
Q 2675 1134 2675 2259 
Q 2675 3391 2411 3762 
Q 2147 4134 1753 4134 
Q 1366 4134 1134 3806 
Q 844 3388 844 2259 
z
" transform="scale(0.015625)"/>
        <path id="ArialMT-31" d="M 2384 0 
L 1822 0 
L 1822 3584 
Q 1619 3391 1289 3197 
Q 959 3003 697 2906 
L 697 3450 
Q 1169 3672 1522 3987 
Q 1875 4303 2022 4600 
L 2384 4600 
L 2384 0 
z
" transform="scale(0.015625)"/>
       </defs>
       <use xlink:href="#ArialMT-32"/>
       <use xlink:href="#ArialMT-30" transform="translate(55.615234 0)"/>
       <use xlink:href="#ArialMT-31" transform="translate(111.230469 0)"/>
       <use xlink:href="#ArialMT-30" transform="translate(166.845703 0)"/>
      </g>
     </g>
    </g>
    <g id="xtick_2">
     <g id="line2d_2">
      <path d="M 186.50708 229.165 
L 186.50708 27.177 
" clip-path="url(#p3c735003d1)" style="fill: none; stroke: #cccccc; stroke-width: 0.8; stroke-linecap: round"/>
     </g>
     <g id="text_2">
      <!-- 2012 -->
      <g style="fill: #262626" transform="translate(166.93258 250.06275) scale(0.176 -0.176)">
       <use xlink:href="#ArialMT-32"/>
       <use xlink:href="#ArialMT-30" transform="translate(55.615234 0)"/>
       <use xlink:href="#ArialMT-31" transform="translate(111.230469 0)"/>
       <use xlink:href="#ArialMT-32" transform="translate(166.845703 0)"/>
      </g>
     </g>
    </g>
    <g id="xtick_3">
     <g id="line2d_3">
      <path d="M 295.755693 229.165 
L 295.755693 27.177 
" clip-path="url(#p3c735003d1)" style="fill: none; stroke: #cccccc; stroke-width: 0.8; stroke-linecap: round"/>
     </g>
     <g id="text_3">
      <!-- 2014 -->
      <g style="fill: #262626" transform="translate(276.181193 250.06275) scale(0.176 -0.176)">
       <defs>
        <path id="ArialMT-34" d="M 2069 0 
L 2069 1097 
L 81 1097 
L 81 1613 
L 2172 4581 
L 2631 4581 
L 2631 1613 
L 3250 1613 
L 3250 1097 
L 2631 1097 
L 2631 0 
L 2069 0 
z
M 2069 1613 
L 2069 3678 
L 634 1613 
L 2069 1613 
z
" transform="scale(0.015625)"/>
       </defs>
       <use xlink:href="#ArialMT-32"/>
       <use xlink:href="#ArialMT-30" transform="translate(55.615234 0)"/>
       <use xlink:href="#ArialMT-31" transform="translate(111.230469 0)"/>
       <use xlink:href="#ArialMT-34" transform="translate(166.845703 0)"/>
      </g>
     </g>
    </g>
    <g id="xtick_4">
     <g id="line2d_4">
      <path d="M 405.004306 229.165 
L 405.004306 27.177 
" clip-path="url(#p3c735003d1)" style="fill: none; stroke: #cccccc; stroke-width: 0.8; stroke-linecap: round"/>
     </g>
     <g id="text_4">
      <!-- 2016 -->
      <g style="fill: #262626" transform="translate(385.429806 250.06275) scale(0.176 -0.176)">
       <defs>
        <path id="ArialMT-36" d="M 3184 3459 
L 2625 3416 
Q 2550 3747 2413 3897 
Q 2184 4138 1850 4138 
Q 1581 4138 1378 3988 
Q 1113 3794 959 3422 
Q 806 3050 800 2363 
Q 1003 2672 1297 2822 
Q 1591 2972 1913 2972 
Q 2475 2972 2870 2558 
Q 3266 2144 3266 1488 
Q 3266 1056 3080 686 
Q 2894 316 2569 119 
Q 2244 -78 1831 -78 
Q 1128 -78 684 439 
Q 241 956 241 2144 
Q 241 3472 731 4075 
Q 1159 4600 1884 4600 
Q 2425 4600 2770 4297 
Q 3116 3994 3184 3459 
z
M 888 1484 
Q 888 1194 1011 928 
Q 1134 663 1356 523 
Q 1578 384 1822 384 
Q 2178 384 2434 671 
Q 2691 959 2691 1453 
Q 2691 1928 2437 2201 
Q 2184 2475 1800 2475 
Q 1419 2475 1153 2201 
Q 888 1928 888 1484 
z
" transform="scale(0.015625)"/>
       </defs>
       <use xlink:href="#ArialMT-32"/>
       <use xlink:href="#ArialMT-30" transform="translate(55.615234 0)"/>
       <use xlink:href="#ArialMT-31" transform="translate(111.230469 0)"/>
       <use xlink:href="#ArialMT-36" transform="translate(166.845703 0)"/>
      </g>
     </g>
    </g>
    <g id="xtick_5">
     <g id="line2d_5">
      <path d="M 515.303386 229.165 
L 515.303386 27.177 
" clip-path="url(#p3c735003d1)" style="fill: none; stroke: #cccccc; stroke-width: 0.8; stroke-linecap: round"/>
     </g>
     <g id="text_5">
      <!-- 2018 -->
      <g style="fill: #262626" transform="translate(495.728886 250.06275) scale(0.176 -0.176)">
       <defs>
        <path id="ArialMT-38" d="M 1131 2484 
Q 781 2613 612 2850 
Q 444 3088 444 3419 
Q 444 3919 803 4259 
Q 1163 4600 1759 4600 
Q 2359 4600 2725 4251 
Q 3091 3903 3091 3403 
Q 3091 3084 2923 2848 
Q 2756 2613 2416 2484 
Q 2838 2347 3058 2040 
Q 3278 1734 3278 1309 
Q 3278 722 2862 322 
Q 2447 -78 1769 -78 
Q 1091 -78 675 323 
Q 259 725 259 1325 
Q 259 1772 486 2073 
Q 713 2375 1131 2484 
z
M 1019 3438 
Q 1019 3113 1228 2906 
Q 1438 2700 1772 2700 
Q 2097 2700 2305 2904 
Q 2513 3109 2513 3406 
Q 2513 3716 2298 3927 
Q 2084 4138 1766 4138 
Q 1444 4138 1231 3931 
Q 1019 3725 1019 3438 
z
M 838 1322 
Q 838 1081 952 856 
Q 1066 631 1291 507 
Q 1516 384 1775 384 
Q 2178 384 2440 643 
Q 2703 903 2703 1303 
Q 2703 1709 2433 1975 
Q 2163 2241 1756 2241 
Q 1359 2241 1098 1978 
Q 838 1716 838 1322 
z
" transform="scale(0.015625)"/>
       </defs>
       <use xlink:href="#ArialMT-32"/>
       <use xlink:href="#ArialMT-30" transform="translate(55.615234 0)"/>
       <use xlink:href="#ArialMT-31" transform="translate(111.230469 0)"/>
       <use xlink:href="#ArialMT-38" transform="translate(166.845703 0)"/>
      </g>
     </g>
    </g>
    <g id="xtick_6">
     <g id="line2d_6">
      <path d="M 624.551999 229.165 
L 624.551999 27.177 
" clip-path="url(#p3c735003d1)" style="fill: none; stroke: #cccccc; stroke-width: 0.8; stroke-linecap: round"/>
     </g>
     <g id="text_6">
      <!-- 2020 -->
      <g style="fill: #262626" transform="translate(604.977499 250.06275) scale(0.176 -0.176)">
       <use xlink:href="#ArialMT-32"/>
       <use xlink:href="#ArialMT-30" transform="translate(55.615234 0)"/>
       <use xlink:href="#ArialMT-32" transform="translate(111.230469 0)"/>
       <use xlink:href="#ArialMT-30" transform="translate(166.845703 0)"/>
      </g>
     </g>
    </g>
    <g id="xtick_7">
     <g id="line2d_7">
      <path d="M 734.851079 229.165 
L 734.851079 27.177 
" clip-path="url(#p3c735003d1)" style="fill: none; stroke: #cccccc; stroke-width: 0.8; stroke-linecap: round"/>
     </g>
     <g id="text_7">
      <!-- 2022 -->
      <g style="fill: #262626" transform="translate(715.276579 250.06275) scale(0.176 -0.176)">
       <use xlink:href="#ArialMT-32"/>
       <use xlink:href="#ArialMT-30" transform="translate(55.615234 0)"/>
       <use xlink:href="#ArialMT-32" transform="translate(111.230469 0)"/>
       <use xlink:href="#ArialMT-32" transform="translate(166.845703 0)"/>
      </g>
     </g>
    </g>
    <g id="xtick_8">
     <g id="line2d_8">
      <path d="M 844.099692 229.165 
L 844.099692 27.177 
" clip-path="url(#p3c735003d1)" style="fill: none; stroke: #cccccc; stroke-width: 0.8; stroke-linecap: round"/>
     </g>
     <g id="text_8">
      <!-- 2024 -->
      <g style="fill: #262626" transform="translate(824.525192 250.06275) scale(0.176 -0.176)">
       <use xlink:href="#ArialMT-32"/>
       <use xlink:href="#ArialMT-30" transform="translate(55.615234 0)"/>
       <use xlink:href="#ArialMT-32" transform="translate(111.230469 0)"/>
       <use xlink:href="#ArialMT-34" transform="translate(166.845703 0)"/>
      </g>
     </g>
    </g>
    <g id="xtick_9">
     <g id="line2d_9">
      <path d="M 953.348305 229.165 
L 953.348305 27.177 
" clip-path="url(#p3c735003d1)" style="fill: none; stroke: #cccccc; stroke-width: 0.8; stroke-linecap: round"/>
     </g>
     <g id="text_9">
      <!-- 2026 -->
      <g style="fill: #262626" transform="translate(933.773805 250.06275) scale(0.176 -0.176)">
       <use xlink:href="#ArialMT-32"/>
       <use xlink:href="#ArialMT-30" transform="translate(55.615234 0)"/>
       <use xlink:href="#ArialMT-32" transform="translate(111.230469 0)"/>
       <use xlink:href="#ArialMT-36" transform="translate(166.845703 0)"/>
      </g>
     </g>
    </g>
    <g id="xtick_10">
     <g id="line2d_10">
      <path d="M 964.903447 229.165 
L 964.903447 27.177 
" clip-path="url(#p3c735003d1)" style="fill: none; stroke: #cccccc; stroke-width: 0.8; stroke-linecap: round"/>
     </g>
    </g>
    <g id="xtick_11"/>
    <g id="xtick_12"/>
    <g id="xtick_13"/>
    <g id="xtick_14"/>
    <g id="xtick_15"/>
    <g id="xtick_16"/>
    <g id="xtick_17"/>
    <g id="xtick_18"/>
   </g>
   <g id="matplotlib.axis_2">
    <g id="ytick_1">
     <g id="line2d_11">
      <path d="M 76.208 209.956399 
L 964.903447 209.956399 
" clip-path="url(#p3c735003d1)" style="fill: none; stroke: #cccccc; stroke-width: 0.8; stroke-linecap: round"/>
     </g>
     <g id="text_10">
      <!-- 1000 -->
      <g style="fill: #262626" transform="translate(28.759 216.255274) scale(0.176 -0.176)">
       <use xlink:href="#ArialMT-31"/>
       <use xlink:href="#ArialMT-30" transform="translate(55.615234 0)"/>
       <use xlink:href="#ArialMT-30" transform="translate(111.230469 0)"/>
       <use xlink:href="#ArialMT-30" transform="translate(166.845703 0)"/>
      </g>
     </g>
    </g>
    <g id="ytick_2">
     <g id="line2d_12">
      <path d="M 76.208 152.982941 
L 964.903447 152.982941 
" clip-path="url(#p3c735003d1)" style="fill: none; stroke: #cccccc; stroke-width: 0.8; stroke-linecap: round"/>
     </g>
     <g id="text_11">
      <!-- 2000 -->
      <g style="fill: #262626" transform="translate(28.759 159.281816) scale(0.176 -0.176)">
       <use xlink:href="#ArialMT-32"/>
       <use xlink:href="#ArialMT-30" transform="translate(55.615234 0)"/>
       <use xlink:href="#ArialMT-30" transform="translate(111.230469 0)"/>
       <use xlink:href="#ArialMT-30" transform="translate(166.845703 0)"/>
      </g>
     </g>
    </g>
    <g id="ytick_3">
     <g id="line2d_13">
      <path d="M 76.208 96.009483 
L 964.903447 96.009483 
" clip-path="url(#p3c735003d1)" style="fill: none; stroke: #cccccc; stroke-width: 0.8; stroke-linecap: round"/>
     </g>
     <g id="text_12">
      <!-- 3000 -->
      <g style="fill: #262626" transform="translate(28.759 102.308358) scale(0.176 -0.176)">
       <defs>
        <path id="ArialMT-33" d="M 269 1209 
L 831 1284 
Q 928 806 1161 595 
Q 1394 384 1728 384 
Q 2125 384 2398 659 
Q 2672 934 2672 1341 
Q 2672 1728 2419 1979 
Q 2166 2231 1775 2231 
Q 1616 2231 1378 2169 
L 1441 2663 
Q 1497 2656 1531 2656 
Q 1891 2656 2178 2843 
Q 2466 3031 2466 3422 
Q 2466 3731 2256 3934 
Q 2047 4138 1716 4138 
Q 1388 4138 1169 3931 
Q 950 3725 888 3313 
L 325 3413 
Q 428 3978 793 4289 
Q 1159 4600 1703 4600 
Q 2078 4600 2393 4439 
Q 2709 4278 2876 4000 
Q 3044 3722 3044 3409 
Q 3044 3113 2884 2869 
Q 2725 2625 2413 2481 
Q 2819 2388 3044 2092 
Q 3269 1797 3269 1353 
Q 3269 753 2831 336 
Q 2394 -81 1725 -81 
Q 1122 -81 723 278 
Q 325 638 269 1209 
z
" transform="scale(0.015625)"/>
       </defs>
       <use xlink:href="#ArialMT-33"/>
       <use xlink:href="#ArialMT-30" transform="translate(55.615234 0)"/>
       <use xlink:href="#ArialMT-30" transform="translate(111.230469 0)"/>
       <use xlink:href="#ArialMT-30" transform="translate(166.845703 0)"/>
      </g>
     </g>
    </g>
    <g id="ytick_4">
     <g id="line2d_14">
      <path d="M 76.208 39.036025 
L 964.903447 39.036025 
" clip-path="url(#p3c735003d1)" style="fill: none; stroke: #cccccc; stroke-width: 0.8; stroke-linecap: round"/>
     </g>
     <g id="text_13">
      <!-- 4000 -->
      <g style="fill: #262626" transform="translate(28.759 45.3349) scale(0.176 -0.176)">
       <use xlink:href="#ArialMT-34"/>
       <use xlink:href="#ArialMT-30" transform="translate(55.615234 0)"/>
       <use xlink:href="#ArialMT-30" transform="translate(111.230469 0)"/>
       <use xlink:href="#ArialMT-30" transform="translate(166.845703 0)"/>
      </g>
     </g>
    </g>
    <g id="text_14">
     <!-- Bcf -->
     <g style="fill: #262626" transform="translate(20.943 142.0415) rotate(-90) scale(0.192 -0.192)">
      <defs>
       <path id="ArialMT-42" d="M 469 0 
L 469 4581 
L 2188 4581 
Q 2713 4581 3030 4442 
Q 3347 4303 3526 4014 
Q 3706 3725 3706 3409 
Q 3706 3116 3547 2856 
Q 3388 2597 3066 2438 
Q 3481 2316 3704 2022 
Q 3928 1728 3928 1328 
Q 3928 1006 3792 729 
Q 3656 453 3456 303 
Q 3256 153 2954 76 
Q 2653 0 2216 0 
L 469 0 
z
M 1075 2656 
L 2066 2656 
Q 2469 2656 2644 2709 
Q 2875 2778 2992 2937 
Q 3109 3097 3109 3338 
Q 3109 3566 3000 3739 
Q 2891 3913 2687 3977 
Q 2484 4041 1991 4041 
L 1075 4041 
L 1075 2656 
z
M 1075 541 
L 2216 541 
Q 2509 541 2628 563 
Q 2838 600 2978 687 
Q 3119 775 3209 942 
Q 3300 1109 3300 1328 
Q 3300 1584 3169 1773 
Q 3038 1963 2805 2039 
Q 2572 2116 2134 2116 
L 1075 2116 
L 1075 541 
z
" transform="scale(0.015625)"/>
       <path id="ArialMT-63" d="M 2588 1216 
L 3141 1144 
Q 3050 572 2676 248 
Q 2303 -75 1759 -75 
Q 1078 -75 664 370 
Q 250 816 250 1647 
Q 250 2184 428 2587 
Q 606 2991 970 3192 
Q 1334 3394 1763 3394 
Q 2303 3394 2647 3120 
Q 2991 2847 3088 2344 
L 2541 2259 
Q 2463 2594 2264 2762 
Q 2066 2931 1784 2931 
Q 1359 2931 1093 2626 
Q 828 2322 828 1663 
Q 828 994 1084 691 
Q 1341 388 1753 388 
Q 2084 388 2306 591 
Q 2528 794 2588 1216 
z
" transform="scale(0.015625)"/>
       <path id="ArialMT-66" d="M 556 0 
L 556 2881 
L 59 2881 
L 59 3319 
L 556 3319 
L 556 3672 
Q 556 4006 616 4169 
Q 697 4388 901 4523 
Q 1106 4659 1475 4659 
Q 1713 4659 2000 4603 
L 1916 4113 
Q 1741 4144 1584 4144 
Q 1328 4144 1222 4034 
Q 1116 3925 1116 3625 
L 1116 3319 
L 1763 3319 
L 1763 2881 
L 1116 2881 
L 1116 0 
L 556 0 
z
" transform="scale(0.015625)"/>
      </defs>
      <use xlink:href="#ArialMT-42"/>
      <use xlink:href="#ArialMT-63" transform="translate(66.699219 0)"/>
      <use xlink:href="#ArialMT-66" transform="translate(116.699219 0)"/>
     </g>
    </g>
   </g>
   <g id="line2d_15">
    <path d="M 76.208 89.343588 
L 78.308935 118.400052 
L 79.359402 123.299769 
L 80.40987 129.851717 
L 82.510805 151.501631 
L 83.561272 161.358039 
L 85.662207 174.234041 
L 86.712674 174.974696 
L 88.813609 173.607333 
L 89.864077 171.784182 
L 90.914544 166.998412 
L 91.965011 162.782376 
L 94.065946 153.324782 
L 95.116414 147.798356 
L 96.166881 143.58232 
L 97.217349 137.714054 
L 98.267816 132.643416 
L 99.318283 127.003044 
L 101.419218 117.37453 
L 102.469686 114.013096 
L 104.570621 105.068263 
L 105.621088 102.105643 
L 107.722023 99.029076 
L 108.77249 96.921058 
L 109.822958 95.268828 
L 110.873425 92.932916 
L 111.923893 90.02727 
L 112.97436 86.722809 
L 114.024828 80.79757 
L 116.125762 72.365498 
L 118.226697 62.395143 
L 119.277165 57.096611 
L 121.3781 49.234274 
L 122.428567 48.151778 
L 124.529502 48.83546 
L 125.579969 50.14585 
L 126.630437 55.159514 
L 127.680904 64.503161 
L 128.731372 74.986277 
L 131.882774 98.288421 
L 132.933241 112.189945 
L 135.034176 132.757363 
L 136.084644 144.778763 
L 137.135111 158.110552 
L 140.286513 171.670235 
L 141.336981 174.860749 
L 142.387448 175.145616 
L 143.437916 174.518908 
L 144.488383 177.02574 
L 145.53885 175.430483 
L 146.589318 172.695757 
L 147.639785 170.92958 
L 149.74072 162.839349 
L 150.791188 157.597791 
L 151.841655 151.672551 
L 153.94259 142.271931 
L 154.993057 138.340762 
L 156.043525 132.814337 
L 157.093992 128.370407 
L 159.194927 118.172158 
L 160.245394 114.753751 
L 162.346329 109.740086 
L 163.396797 108.372723 
L 164.447264 105.524051 
L 165.497732 101.364988 
L 166.548199 98.288421 
L 167.598667 94.585147 
L 169.699601 84.557818 
L 170.750069 78.290738 
L 171.800536 72.764312 
L 173.901471 60.458045 
L 174.951939 55.159514 
L 176.002406 50.829531 
L 177.052873 48.721513 
L 178.103341 47.923885 
L 179.153808 47.411124 
L 180.204276 47.582044 
L 181.254743 48.721513 
L 183.355678 60.230152 
L 185.456613 69.174984 
L 187.557548 79.48718 
L 188.608015 90.426084 
L 189.658483 97.946581 
L 190.70895 102.39051 
L 191.759417 109.626139 
L 192.809885 119.083733 
L 194.91082 128.313434 
L 195.961287 131.959735 
L 197.011755 131.333027 
L 198.062222 128.541327 
L 199.112689 126.091469 
L 200.163157 125.749628 
L 201.213624 124.325292 
L 202.264092 121.875433 
L 204.365027 118.457025 
L 205.415494 114.981645 
L 207.516429 106.549573 
L 211.718299 92.420155 
L 212.768766 90.19819 
L 213.819233 88.318066 
L 216.970636 83.646243 
L 219.071571 81.139411 
L 220.122038 78.461658 
L 221.172506 74.70141 
L 223.27344 71.56787 
L 224.323908 67.750648 
L 226.424843 58.748842 
L 227.47531 54.646753 
L 228.525778 51.79808 
L 230.626712 44.334557 
L 231.67718 43.138114 
L 232.727647 44.163636 
L 233.778115 46.271654 
L 234.828582 46.100734 
L 235.87905 50.202823 
L 236.929517 50.088876 
L 237.979984 54.7607 
L 239.030452 58.805815 
L 240.080919 66.554205 
L 241.131387 78.00587 
L 242.181854 86.494916 
L 243.232322 96.237377 
L 244.282789 107.290228 
L 245.333256 114.013096 
L 246.383724 123.014902 
L 247.434191 130.193558 
L 248.484659 139.936019 
L 250.585594 156.515295 
L 251.636061 160.04765 
L 253.736996 170.815633 
L 254.787463 171.556288 
L 256.888398 168.137881 
L 257.938866 165.744995 
L 262.140735 144.89271 
L 263.191203 138.62563 
L 266.342605 122.616088 
L 267.393072 118.457025 
L 268.44354 113.842175 
L 269.494007 110.537715 
L 270.544475 108.201803 
L 271.594942 104.840369 
L 272.64541 99.427891 
L 273.695877 95.610669 
L 274.746344 92.420155 
L 275.796812 88.54596 
L 278.948214 78.974419 
L 279.998682 74.074702 
L 281.049149 68.263409 
L 282.099617 63.135798 
L 284.200551 53.792151 
L 286.301486 49.519141 
L 287.351954 48.493619 
L 288.402421 51.057425 
L 289.452889 51.855053 
L 290.503356 61.084753 
L 291.553823 65.64263 
L 292.604291 81.880066 
L 293.654758 91.964368 
L 294.705226 97.43382 
L 295.755693 106.435626 
L 296.806161 122.843982 
L 297.856628 128.826195 
L 302.058498 184.660183 
L 303.108965 190.129635 
L 304.159433 198.789601 
L 305.2099 209.842452 
L 306.260367 212.634151 
L 307.310835 215.938612 
L 308.361302 219.983727 
L 309.41177 219.812807 
L 310.462237 218.502417 
L 311.512705 215.710718 
L 313.613639 206.822859 
L 316.765042 188.306485 
L 318.865977 175.37351 
L 320.966911 162.725402 
L 325.168781 140.505754 
L 327.269716 130.877239 
L 328.320183 126.376336 
L 329.370651 121.362672 
L 331.471586 112.588759 
L 334.622988 96.693165 
L 336.723923 84.329924 
L 340.925793 63.477639 
L 341.97626 61.1987 
L 343.026728 62.167249 
L 344.077195 71.396949 
L 345.127662 72.650365 
L 346.17813 75.556012 
L 347.228597 79.14534 
L 348.279065 81.994012 
L 349.329532 83.475322 
L 350.38 90.938845 
L 352.480934 116.690848 
L 353.531402 122.046353 
L 354.581869 128.598301 
L 355.632337 137.714054 
L 356.682804 143.981135 
L 359.834206 180.842962 
L 360.884674 183.29282 
L 361.935141 182.666112 
L 362.985609 183.691635 
L 364.036076 182.837033 
L 365.086544 179.247705 
L 367.187478 169.44827 
L 368.237946 165.232234 
L 369.288413 158.851207 
L 370.338881 153.609649 
L 371.389348 147.228622 
L 372.439816 139.708125 
L 373.490283 133.384071 
L 374.54075 128.313434 
L 376.641685 119.995309 
L 377.692153 115.038618 
L 378.74262 109.455219 
L 379.793088 106.093785 
L 380.843555 103.302086 
L 381.894022 101.137094 
L 382.94449 97.43382 
L 383.994957 94.4712 
L 385.045425 90.653978 
L 386.095892 85.184526 
L 388.196827 76.866401 
L 390.297762 65.414736 
L 392.398697 54.361885 
L 393.449164 49.690062 
L 395.550099 42.967194 
L 396.600567 39.890627 
L 397.651034 39.036025 
L 398.701501 38.523264 
L 399.751969 41.542857 
L 400.802436 45.87284 
L 402.903371 49.633088 
L 403.953839 52.937549 
L 405.004306 59.37555 
L 407.105241 79.088366 
L 408.155708 91.109766 
L 409.206176 99.769731 
L 410.256643 103.757873 
L 411.307111 113.044547 
L 412.357578 119.710442 
L 413.408045 122.445167 
L 414.458513 125.692655 
L 415.50898 125.749628 
L 416.559448 124.895026 
L 417.609915 126.319363 
L 418.660383 125.635681 
L 419.71085 125.806602 
L 420.761317 125.407787 
L 422.862252 117.37453 
L 423.91272 114.184016 
L 429.165057 93.673571 
L 430.215524 90.141217 
L 432.316459 85.811234 
L 433.366927 82.164933 
L 434.417394 80.227835 
L 435.467861 79.259286 
L 436.518329 79.601127 
L 437.568796 77.948897 
L 438.619264 76.695481 
L 439.669731 76.068773 
L 440.720199 73.163126 
L 441.770666 71.112082 
L 442.821133 67.579728 
L 444.922068 61.825408 
L 448.073471 48.379672 
L 449.123938 44.22061 
L 451.224873 38.067476 
L 452.27534 36.358273 
L 453.325808 36.47222 
L 454.376275 39.320893 
L 455.426743 41.713778 
L 456.47721 50.088876 
L 457.527678 61.996329 
L 458.578145 75.499038 
L 459.628612 78.290738 
L 460.67908 86.89373 
L 461.729547 100.73828 
L 462.780015 107.518122 
L 463.830482 112.474812 
L 464.88095 121.134778 
L 465.931417 127.629752 
L 466.981884 132.70039 
L 468.032352 132.301576 
L 469.082819 136.175771 
L 470.133287 139.195364 
L 471.183754 147.741383 
L 472.234222 150.191241 
L 473.284689 150.077295 
L 474.335156 149.50756 
L 475.385624 146.430993 
L 477.486559 138.397736 
L 478.537026 135.83393 
L 480.637961 127.686726 
L 481.688428 123.071876 
L 482.738896 117.032689 
L 483.789363 112.588759 
L 484.839831 109.113378 
L 485.890298 106.492599 
L 487.991233 99.655784 
L 489.0417 98.117501 
L 491.142635 96.066457 
L 492.193103 94.357253 
L 493.24357 91.33766 
L 494.294038 88.887801 
L 495.344505 87.178597 
L 496.394972 83.475322 
L 498.495907 72.764312 
L 499.546375 69.459852 
L 500.596842 67.066966 
L 501.64731 62.110276 
L 502.697777 59.261603 
L 504.798712 51.855053 
L 505.849179 51.000451 
L 506.899647 52.025974 
L 507.950114 54.646753 
L 509.000582 56.526877 
L 510.051049 56.41293 
L 511.101517 60.344098 
L 512.151984 70.713268 
L 513.202451 77.094295 
L 514.252919 88.830827 
L 515.303386 109.284299 
L 516.353854 119.710442 
L 517.404321 136.118797 
L 518.454789 141.75917 
L 519.505256 148.539011 
L 520.555723 159.591862 
L 521.606191 166.656571 
L 522.656658 171.1005 
L 523.707126 174.347988 
L 525.808061 184.546237 
L 526.858528 188.135564 
L 527.908995 189.787795 
L 528.959463 190.87029 
L 530.00993 192.921335 
L 531.060398 193.946857 
L 532.110865 190.414503 
L 533.161333 185.343865 
L 534.2118 179.304678 
L 537.363202 163.409084 
L 539.464137 152.527153 
L 540.514605 148.766905 
L 541.565072 144.322975 
L 542.615539 141.417329 
L 543.666007 138.853523 
L 544.716474 137.48616 
L 545.766942 135.606036 
L 546.817409 132.87131 
L 547.867877 130.991186 
L 548.918344 128.199487 
L 552.069746 116.747822 
L 553.120214 111.848104 
L 554.170681 109.227325 
L 556.271616 98.516315 
L 557.322083 93.901465 
L 558.372551 90.597005 
L 559.423018 87.862279 
L 560.473486 84.159004 
L 561.523953 81.937039 
L 562.574421 89.571482 
L 564.675356 96.522244 
L 565.725823 100.9092 
L 566.77629 108.942458 
L 567.826758 111.677184 
L 568.877225 112.816653 
L 569.927693 118.001238 
L 570.97816 122.616088 
L 573.079095 141.75917 
L 574.129562 155.261879 
L 575.18003 159.705809 
L 577.280965 179.247705 
L 578.331432 187.73675 
L 579.3819 199.131442 
L 580.432367 201.809194 
L 581.482834 203.860239 
L 583.583769 201.125513 
L 585.684704 190.642396 
L 586.735172 183.634661 
L 587.785639 178.791917 
L 590.937041 160.560411 
L 591.987509 153.780569 
L 593.037976 147.969277 
L 594.088444 141.417329 
L 596.189378 130.763292 
L 597.239846 126.148442 
L 598.290313 122.616088 
L 599.340781 120.565043 
L 600.391248 116.861769 
L 604.593118 104.156688 
L 607.74452 90.141217 
L 612.996857 61.483568 
L 614.047325 56.41293 
L 615.097792 54.475832 
L 616.14826 54.304912 
L 617.198727 59.660417 
L 618.249195 61.255674 
L 619.299662 62.338169 
L 620.350129 66.497232 
L 621.400597 72.593392 
L 622.451064 81.766119 
L 623.501532 85.070579 
L 624.551999 87.577411 
L 625.602467 93.787518 
L 626.652934 99.029076 
L 627.703401 110.480741 
L 628.753869 118.286105 
L 629.804336 124.838053 
L 631.905271 141.588249 
L 632.955739 147.798356 
L 634.006206 150.533082 
L 635.056673 151.045843 
L 636.107141 152.698074 
L 637.157608 153.780569 
L 638.208076 151.615578 
L 639.258543 147.456515 
L 640.309011 145.006657 
L 641.359478 141.018515 
L 643.460413 128.940142 
L 644.51088 124.325292 
L 646.611815 112.303892 
L 648.71275 102.162617 
L 649.763217 95.325802 
L 650.813685 91.622527 
L 651.864152 88.432013 
L 652.91462 85.868208 
L 653.965087 83.76019 
L 655.015555 82.27888 
L 656.066022 80.398756 
L 657.116489 77.094295 
L 659.217424 72.080631 
L 660.267892 70.08656 
L 661.318359 66.098418 
L 662.368827 61.02778 
L 663.419294 57.267532 
L 665.520229 48.66454 
L 667.621164 43.252061 
L 668.671631 41.599831 
L 669.722099 43.650875 
L 670.772566 43.195088 
L 671.823033 41.42891 
L 672.873501 42.454433 
L 673.923968 42.511406 
L 674.974436 47.695991 
L 676.024903 54.646753 
L 677.075371 63.306718 
L 678.125838 69.801692 
L 680.226773 84.842685 
L 681.27724 95.496722 
L 682.327708 102.789325 
L 683.378175 113.728228 
L 684.428643 123.47069 
L 685.47911 136.973399 
L 686.529578 156.230428 
L 687.580045 161.813827 
L 688.630512 164.776447 
L 689.68098 165.403155 
L 690.731447 167.226305 
L 691.781915 166.428677 
L 692.832382 165.289208 
L 693.88285 161.813827 
L 694.933317 159.648835 
L 695.983784 158.794234 
L 697.034252 155.375826 
L 699.135187 147.285595 
L 700.185654 140.733647 
L 702.286589 129.56685 
L 703.337056 128.655274 
L 704.387524 125.521734 
L 705.437991 121.191751 
L 706.488459 120.280176 
L 708.589394 114.354936 
L 709.639861 112.303892 
L 710.690328 111.563237 
L 712.791263 106.150759 
L 713.841731 104.498528 
L 714.892198 103.359059 
L 715.942666 100.396439 
L 719.094068 86.323995 
L 720.144535 79.601127 
L 721.195003 74.986277 
L 723.295938 64.788028 
L 724.346405 61.1987 
L 725.396872 60.799886 
L 726.44734 59.318576 
L 727.497807 60.515019 
L 729.598742 67.237887 
L 730.64921 72.251551 
L 731.699677 75.385091 
L 732.750145 83.133482 
L 733.800612 84.899659 
L 734.851079 95.097908 
L 736.952014 119.311627 
L 738.002482 134.580514 
L 739.052949 147.228622 
L 740.103417 158.053579 
L 743.254819 180.387174 
L 744.305286 184.888077 
L 745.355754 187.793724 
L 746.406221 186.312414 
L 747.456689 188.192538 
L 748.507156 187.337936 
L 749.557623 184.318343 
L 750.608091 182.039404 
L 752.709026 173.322465 
L 759.01183 143.354427 
L 760.062298 138.682603 
L 762.163233 131.959735 
L 763.2137 130.136584 
L 764.264167 129.281982 
L 766.365102 124.439239 
L 767.41557 123.413716 
L 770.566972 113.443361 
L 771.617439 109.056405 
L 773.718374 97.319873 
L 775.819309 82.848614 
L 776.869777 76.52456 
L 777.920244 73.561941 
L 778.970711 67.465781 
L 780.021179 62.964878 
L 781.071646 59.318576 
L 783.172581 68.491303 
L 784.223049 69.687746 
L 785.273516 72.536418 
L 786.323984 77.493109 
L 788.424918 102.21959 
L 789.475386 101.592882 
L 791.576321 111.164423 
L 792.626788 119.767415 
L 793.677256 132.130655 
L 794.727723 137.828001 
L 795.77819 141.873117 
L 797.879125 151.273737 
L 798.929593 154.578198 
L 799.98006 158.680287 
L 801.030528 161.358039 
L 802.080995 162.668429 
L 803.131462 161.244092 
L 805.232397 152.47018 
L 806.282865 149.393613 
L 807.333332 144.949683 
L 810.484734 127.572779 
L 811.535202 121.647539 
L 812.585669 116.861769 
L 813.636137 111.44929 
L 815.737072 102.789325 
L 816.787539 99.997625 
L 817.838006 97.661713 
L 819.938941 95.95251 
L 820.989409 94.300279 
L 822.039876 92.306208 
L 823.090344 91.280686 
L 825.191278 87.577411 
L 826.241746 84.329924 
L 827.292213 80.683623 
L 829.393148 70.656294 
L 830.443616 65.870524 
L 831.494083 60.344098 
L 833.595018 51.627159 
L 834.645485 51.969 
L 835.695953 48.550593 
L 836.74642 48.949407 
L 837.796888 48.379672 
L 838.847355 55.045567 
L 839.897822 58.179107 
L 841.998757 68.092489 
L 843.049225 68.890117 
L 845.15016 85.640314 
L 846.200627 104.213661 
L 847.251095 115.437432 
L 848.301562 119.710442 
L 850.402497 126.205416 
L 851.452964 131.674868 
L 852.503432 133.953806 
L 853.553899 134.466567 
L 854.604367 134.067753 
L 856.705301 138.226815 
L 857.755769 136.859452 
L 858.806236 134.010779 
L 859.856704 128.769221 
L 860.907171 125.407787 
L 861.957639 120.565043 
L 863.008106 116.519928 
L 865.109041 107.176281 
L 866.159508 101.706829 
L 868.260443 93.445677 
L 869.310911 90.19819 
L 870.361378 88.37504 
L 871.411845 84.671765 
L 872.462313 84.10203 
L 873.51278 82.848614 
L 874.563248 81.823092 
L 875.613715 80.626649 
L 876.664183 80.96849 
L 878.765117 76.980348 
L 879.815585 76.239693 
L 880.866052 73.960755 
L 881.91652 70.656294 
L 882.966987 67.921568 
L 884.017455 64.788028 
L 886.118389 55.786222 
L 888.219324 46.784416 
L 889.269792 42.967194 
L 890.320259 40.631282 
L 892.421194 40.916149 
L 893.471661 42.625353 
L 894.522129 53.45031 
L 895.572596 60.571992 
L 896.623064 65.870524 
L 897.673531 72.479445 
L 898.723999 74.758383 
L 899.774466 89.457535 
L 900.824934 102.162617 
L 901.875401 120.451096 
L 902.925868 130.364478 
L 903.976336 136.061824 
L 905.026803 147.228622 
L 906.077271 162.098694 
L 907.127738 166.656571 
L 908.178206 170.188925 
L 909.228673 169.676164 
L 910.27914 167.568146 
L 911.329608 165.915916 
L 912.380075 162.668429 
L 913.430543 161.756853 
L 914.48101 156.743189 
L 917.632412 138.454709 
L 918.68288 131.617894 
L 919.733347 125.863575 
L 921.834282 112.702706 
L 923.935217 101.820776 
L 926.036152 95.667642 
L 927.086619 93.046863 
L 928.137087 91.736474 
L 929.187554 89.001748 
L 930.238022 88.602934 
L 931.288489 85.41242 
L 932.338956 84.671765 
L 933.389424 83.646243 
L 934.439891 80.512703 
L 935.490359 76.467587 
L 936.540826 71.339976 
L 937.591294 67.066966 
L 938.641761 64.047373 
L 942.843631 45.758893 
L 943.894098 43.878769 
L 944.944566 41.314964 
L 945.995033 42.112592 
L 948.095968 43.422981 
L 950.196903 63.021851 
L 951.24737 72.479445 
L 952.297838 74.644436 
L 953.348305 81.424278 
L 954.398772 85.469393 
L 955.44924 92.306208 
L 956.499707 106.093785 
L 957.550175 126.60423 
L 958.600642 140.790621 
L 959.65111 148.994799 
L 960.701577 151.957419 
L 961.752045 159.477915 
L 962.802512 161.642906 
L 963.852979 159.648835 
L 964.903447 162.725402 
L 964.903447 162.725402 
" clip-path="url(#p3c735003d1)" style="fill: none; stroke: #2ca02c; stroke-opacity: 0.5; stroke-linecap: round"/>
   </g>
   <g id="line2d_16">
    <path d="M 231.67718 229.165 
L 231.67718 27.177 
" clip-path="url(#p3c735003d1)" style="fill: none; stroke: #ff0000; stroke-opacity: 0.4; stroke-width: 0.8; stroke-linecap: round"/>
   </g>
   <g id="line2d_17">
    <path d="M 301.00803 229.165 
L 301.00803 27.177 
" clip-path="url(#p3c735003d1)" style="fill: none; stroke: #ff0000; stroke-opacity: 0.4; stroke-width: 0.8; stroke-linecap: round"/>
   </g>
   <g id="line2d_18">
    <path d="M 615.097792 229.165 
L 615.097792 27.177 
" clip-path="url(#p3c735003d1)" style="fill: none; stroke: #ff0000; stroke-opacity: 0.4; stroke-width: 0.8; stroke-linecap: round"/>
   </g>
   <g id="line2d_19">
    <path d="M 670.772566 229.165 
L 670.772566 27.177 
" clip-path="url(#p3c735003d1)" style="fill: none; stroke: #ff0000; stroke-opacity: 0.4; stroke-width: 0.8; stroke-linecap: round"/>
   </g>
   <g id="line2d_20">
    <path d="M 686.529578 229.165 
L 686.529578 27.177 
" clip-path="url(#p3c735003d1)" style="fill: none; stroke: #ff0000; stroke-opacity: 0.4; stroke-width: 0.8; stroke-linecap: round"/>
   </g>
   <g id="line2d_21">
    <path d="M 780.021179 229.165 
L 780.021179 27.177 
" clip-path="url(#p3c735003d1)" style="fill: none; stroke: #ff0000; stroke-opacity: 0.4; stroke-width: 0.8; stroke-linecap: round"/>
   </g>
   <g id="line2d_22">
    <path d="M 954.398772 229.165 
L 954.398772 27.177 
" clip-path="url(#p3c735003d1)" style="fill: none; stroke: #ff0000; stroke-opacity: 0.4; stroke-width: 0.8; stroke-linecap: round"/>
   </g>
   <g id="line2d_23">
    <path d="M 962.802512 229.165 
L 962.802512 27.177 
" clip-path="url(#p3c735003d1)" style="fill: none; stroke: #ff0000; stroke-opacity: 0.4; stroke-width: 0.8; stroke-linecap: round"/>
   </g>
   <g id="patch_3">
    <path d="M 76.208 229.165 
L 76.208 27.177 
" style="fill: none; stroke: #cccccc; stroke-linejoin: miter; stroke-linecap: square"/>
   </g>
   <g id="patch_4">
    <path d="M 964.903447 229.165 
L 964.903447 27.177 
" style="fill: none; stroke: #cccccc; stroke-linejoin: miter; stroke-linecap: square"/>
   </g>
   <g id="patch_5">
    <path d="M 76.208 229.165 
L 964.903447 229.165 
" style="fill: none; stroke: #cccccc; stroke-linejoin: miter; stroke-linecap: square"/>
   </g>
   <g id="patch_6">
    <path d="M 76.208 27.177 
L 964.903447 27.177 
" style="fill: none; stroke: #cccccc; stroke-linejoin: miter; stroke-linecap: square"/>
   </g>
   <g id="text_15">
    <!-- Record high (3,929 Bcf) -->
    <g style="fill: #ff0000; opacity: 0.7" transform="translate(229.99343 132.369352) rotate(-90) scale(0.08 -0.08)">
     <defs>
      <path id="ArialMT-52" d="M 503 0 
L 503 4581 
L 2534 4581 
Q 3147 4581 3465 4457 
Q 3784 4334 3975 4021 
Q 4166 3709 4166 3331 
Q 4166 2844 3850 2509 
Q 3534 2175 2875 2084 
Q 3116 1969 3241 1856 
Q 3506 1613 3744 1247 
L 4541 0 
L 3778 0 
L 3172 953 
Q 2906 1366 2734 1584 
Q 2563 1803 2427 1890 
Q 2291 1978 2150 2013 
Q 2047 2034 1813 2034 
L 1109 2034 
L 1109 0 
L 503 0 
z
M 1109 2559 
L 2413 2559 
Q 2828 2559 3062 2645 
Q 3297 2731 3419 2920 
Q 3541 3109 3541 3331 
Q 3541 3656 3305 3865 
Q 3069 4075 2559 4075 
L 1109 4075 
L 1109 2559 
z
" transform="scale(0.015625)"/>
      <path id="ArialMT-65" d="M 2694 1069 
L 3275 997 
Q 3138 488 2766 206 
Q 2394 -75 1816 -75 
Q 1088 -75 661 373 
Q 234 822 234 1631 
Q 234 2469 665 2931 
Q 1097 3394 1784 3394 
Q 2450 3394 2872 2941 
Q 3294 2488 3294 1666 
Q 3294 1616 3291 1516 
L 816 1516 
Q 847 969 1125 678 
Q 1403 388 1819 388 
Q 2128 388 2347 550 
Q 2566 713 2694 1069 
z
M 847 1978 
L 2700 1978 
Q 2663 2397 2488 2606 
Q 2219 2931 1791 2931 
Q 1403 2931 1139 2672 
Q 875 2413 847 1978 
z
" transform="scale(0.015625)"/>
      <path id="ArialMT-6f" d="M 213 1659 
Q 213 2581 725 3025 
Q 1153 3394 1769 3394 
Q 2453 3394 2887 2945 
Q 3322 2497 3322 1706 
Q 3322 1066 3130 698 
Q 2938 331 2570 128 
Q 2203 -75 1769 -75 
Q 1072 -75 642 372 
Q 213 819 213 1659 
z
M 791 1659 
Q 791 1022 1069 705 
Q 1347 388 1769 388 
Q 2188 388 2466 706 
Q 2744 1025 2744 1678 
Q 2744 2294 2464 2611 
Q 2184 2928 1769 2928 
Q 1347 2928 1069 2612 
Q 791 2297 791 1659 
z
" transform="scale(0.015625)"/>
      <path id="ArialMT-72" d="M 416 0 
L 416 3319 
L 922 3319 
L 922 2816 
Q 1116 3169 1280 3281 
Q 1444 3394 1641 3394 
Q 1925 3394 2219 3213 
L 2025 2691 
Q 1819 2813 1613 2813 
Q 1428 2813 1281 2702 
Q 1134 2591 1072 2394 
Q 978 2094 978 1738 
L 978 0 
L 416 0 
z
" transform="scale(0.015625)"/>
      <path id="ArialMT-64" d="M 2575 0 
L 2575 419 
Q 2259 -75 1647 -75 
Q 1250 -75 917 144 
Q 584 363 401 755 
Q 219 1147 219 1656 
Q 219 2153 384 2558 
Q 550 2963 881 3178 
Q 1213 3394 1622 3394 
Q 1922 3394 2156 3267 
Q 2391 3141 2538 2938 
L 2538 4581 
L 3097 4581 
L 3097 0 
L 2575 0 
z
M 797 1656 
Q 797 1019 1065 703 
Q 1334 388 1700 388 
Q 2069 388 2326 689 
Q 2584 991 2584 1609 
Q 2584 2291 2321 2609 
Q 2059 2928 1675 2928 
Q 1300 2928 1048 2622 
Q 797 2316 797 1656 
z
" transform="scale(0.015625)"/>
      <path id="ArialMT-20" transform="scale(0.015625)"/>
      <path id="ArialMT-68" d="M 422 0 
L 422 4581 
L 984 4581 
L 984 2938 
Q 1378 3394 1978 3394 
Q 2347 3394 2619 3248 
Q 2891 3103 3008 2847 
Q 3125 2591 3125 2103 
L 3125 0 
L 2563 0 
L 2563 2103 
Q 2563 2525 2380 2717 
Q 2197 2909 1863 2909 
Q 1613 2909 1392 2779 
Q 1172 2650 1078 2428 
Q 984 2206 984 1816 
L 984 0 
L 422 0 
z
" transform="scale(0.015625)"/>
      <path id="ArialMT-69" d="M 425 3934 
L 425 4581 
L 988 4581 
L 988 3934 
L 425 3934 
z
M 425 0 
L 425 3319 
L 988 3319 
L 988 0 
L 425 0 
z
" transform="scale(0.015625)"/>
      <path id="ArialMT-67" d="M 319 -275 
L 866 -356 
Q 900 -609 1056 -725 
Q 1266 -881 1628 -881 
Q 2019 -881 2231 -725 
Q 2444 -569 2519 -288 
Q 2563 -116 2559 434 
Q 2191 0 1641 0 
Q 956 0 581 494 
Q 206 988 206 1678 
Q 206 2153 378 2554 
Q 550 2956 876 3175 
Q 1203 3394 1644 3394 
Q 2231 3394 2613 2919 
L 2613 3319 
L 3131 3319 
L 3131 450 
Q 3131 -325 2973 -648 
Q 2816 -972 2473 -1159 
Q 2131 -1347 1631 -1347 
Q 1038 -1347 672 -1080 
Q 306 -813 319 -275 
z
M 784 1719 
Q 784 1066 1043 766 
Q 1303 466 1694 466 
Q 2081 466 2343 764 
Q 2606 1063 2606 1700 
Q 2606 2309 2336 2618 
Q 2066 2928 1684 2928 
Q 1309 2928 1046 2623 
Q 784 2319 784 1719 
z
" transform="scale(0.015625)"/>
      <path id="ArialMT-28" d="M 1497 -1347 
Q 1031 -759 709 28 
Q 388 816 388 1659 
Q 388 2403 628 3084 
Q 909 3875 1497 4659 
L 1900 4659 
Q 1522 4009 1400 3731 
Q 1209 3300 1100 2831 
Q 966 2247 966 1656 
Q 966 153 1900 -1347 
L 1497 -1347 
z
" transform="scale(0.015625)"/>
      <path id="ArialMT-2c" d="M 569 0 
L 569 641 
L 1209 641 
L 1209 0 
Q 1209 -353 1084 -570 
Q 959 -788 688 -906 
L 531 -666 
Q 709 -588 793 -436 
Q 878 -284 888 0 
L 569 0 
z
" transform="scale(0.015625)"/>
      <path id="ArialMT-39" d="M 350 1059 
L 891 1109 
Q 959 728 1153 556 
Q 1347 384 1650 384 
Q 1909 384 2104 503 
Q 2300 622 2425 820 
Q 2550 1019 2634 1356 
Q 2719 1694 2719 2044 
Q 2719 2081 2716 2156 
Q 2547 1888 2255 1720 
Q 1963 1553 1622 1553 
Q 1053 1553 659 1965 
Q 266 2378 266 3053 
Q 266 3750 677 4175 
Q 1088 4600 1706 4600 
Q 2153 4600 2523 4359 
Q 2894 4119 3086 3673 
Q 3278 3228 3278 2384 
Q 3278 1506 3087 986 
Q 2897 466 2520 194 
Q 2144 -78 1638 -78 
Q 1100 -78 759 220 
Q 419 519 350 1059 
z
M 2653 3081 
Q 2653 3566 2395 3850 
Q 2138 4134 1775 4134 
Q 1400 4134 1122 3828 
Q 844 3522 844 3034 
Q 844 2597 1108 2323 
Q 1372 2050 1759 2050 
Q 2150 2050 2401 2323 
Q 2653 2597 2653 3081 
z
" transform="scale(0.015625)"/>
      <path id="ArialMT-29" d="M 791 -1347 
L 388 -1347 
Q 1322 153 1322 1656 
Q 1322 2244 1188 2822 
Q 1081 3291 891 3722 
Q 769 4003 388 4659 
L 791 4659 
Q 1378 3875 1659 3084 
Q 1900 2403 1900 1659 
Q 1900 816 1576 28 
Q 1253 -759 791 -1347 
z
" transform="scale(0.015625)"/>
     </defs>
     <use xlink:href="#ArialMT-52"/>
     <use xlink:href="#ArialMT-65" transform="translate(72.216797 0)"/>
     <use xlink:href="#ArialMT-63" transform="translate(127.832031 0)"/>
     <use xlink:href="#ArialMT-6f" transform="translate(177.832031 0)"/>
     <use xlink:href="#ArialMT-72" transform="translate(233.447266 0)"/>
     <use xlink:href="#ArialMT-64" transform="translate(266.748047 0)"/>
     <use xlink:href="#ArialMT-20" transform="translate(322.363281 0)"/>
     <use xlink:href="#ArialMT-68" transform="translate(350.146484 0)"/>
     <use xlink:href="#ArialMT-69" transform="translate(405.761719 0)"/>
     <use xlink:href="#ArialMT-67" transform="translate(427.978516 0)"/>
     <use xlink:href="#ArialMT-68" transform="translate(483.59375 0)"/>
     <use xlink:href="#ArialMT-20" transform="translate(539.208984 0)"/>
     <use xlink:href="#ArialMT-28" transform="translate(566.992188 0)"/>
     <use xlink:href="#ArialMT-33" transform="translate(600.292969 0)"/>
     <use xlink:href="#ArialMT-2c" transform="translate(655.908203 0)"/>
     <use xlink:href="#ArialMT-39" transform="translate(683.691406 0)"/>
     <use xlink:href="#ArialMT-32" transform="translate(739.306641 0)"/>
     <use xlink:href="#ArialMT-39" transform="translate(794.921875 0)"/>
     <use xlink:href="#ArialMT-20" transform="translate(850.537109 0)"/>
     <use xlink:href="#ArialMT-42" transform="translate(878.320312 0)"/>
     <use xlink:href="#ArialMT-63" transform="translate(945.019531 0)"/>
     <use xlink:href="#ArialMT-66" transform="translate(995.019531 0)"/>
     <use xlink:href="#ArialMT-29" transform="translate(1022.802734 0)"/>
    </g>
   </g>
   <g id="text_16">
    <!-- Polar vortex draw -->
    <g style="fill: #ff0000; opacity: 0.7" transform="translate(299.41803 110.129352) rotate(-90) scale(0.08 -0.08)">
     <defs>
      <path id="ArialMT-50" d="M 494 0 
L 494 4581 
L 2222 4581 
Q 2678 4581 2919 4538 
Q 3256 4481 3484 4323 
Q 3713 4166 3852 3881 
Q 3991 3597 3991 3256 
Q 3991 2672 3619 2267 
Q 3247 1863 2275 1863 
L 1100 1863 
L 1100 0 
L 494 0 
z
M 1100 2403 
L 2284 2403 
Q 2872 2403 3119 2622 
Q 3366 2841 3366 3238 
Q 3366 3525 3220 3729 
Q 3075 3934 2838 4000 
Q 2684 4041 2272 4041 
L 1100 4041 
L 1100 2403 
z
" transform="scale(0.015625)"/>
      <path id="ArialMT-6c" d="M 409 0 
L 409 4581 
L 972 4581 
L 972 0 
L 409 0 
z
" transform="scale(0.015625)"/>
      <path id="ArialMT-61" d="M 2588 409 
Q 2275 144 1986 34 
Q 1697 -75 1366 -75 
Q 819 -75 525 192 
Q 231 459 231 875 
Q 231 1119 342 1320 
Q 453 1522 633 1644 
Q 813 1766 1038 1828 
Q 1203 1872 1538 1913 
Q 2219 1994 2541 2106 
Q 2544 2222 2544 2253 
Q 2544 2597 2384 2738 
Q 2169 2928 1744 2928 
Q 1347 2928 1158 2789 
Q 969 2650 878 2297 
L 328 2372 
Q 403 2725 575 2942 
Q 747 3159 1072 3276 
Q 1397 3394 1825 3394 
Q 2250 3394 2515 3294 
Q 2781 3194 2906 3042 
Q 3031 2891 3081 2659 
Q 3109 2516 3109 2141 
L 3109 1391 
Q 3109 606 3145 398 
Q 3181 191 3288 0 
L 2700 0 
Q 2613 175 2588 409 
z
M 2541 1666 
Q 2234 1541 1622 1453 
Q 1275 1403 1131 1340 
Q 988 1278 909 1158 
Q 831 1038 831 891 
Q 831 666 1001 516 
Q 1172 366 1500 366 
Q 1825 366 2078 508 
Q 2331 650 2450 897 
Q 2541 1088 2541 1459 
L 2541 1666 
z
" transform="scale(0.015625)"/>
      <path id="ArialMT-76" d="M 1344 0 
L 81 3319 
L 675 3319 
L 1388 1331 
Q 1503 1009 1600 663 
Q 1675 925 1809 1294 
L 2547 3319 
L 3125 3319 
L 1869 0 
L 1344 0 
z
" transform="scale(0.015625)"/>
      <path id="ArialMT-74" d="M 1650 503 
L 1731 6 
Q 1494 -44 1306 -44 
Q 1000 -44 831 53 
Q 663 150 594 308 
Q 525 466 525 972 
L 525 2881 
L 113 2881 
L 113 3319 
L 525 3319 
L 525 4141 
L 1084 4478 
L 1084 3319 
L 1650 3319 
L 1650 2881 
L 1084 2881 
L 1084 941 
Q 1084 700 1114 631 
Q 1144 563 1211 522 
Q 1278 481 1403 481 
Q 1497 481 1650 503 
z
" transform="scale(0.015625)"/>
      <path id="ArialMT-78" d="M 47 0 
L 1259 1725 
L 138 3319 
L 841 3319 
L 1350 2541 
Q 1494 2319 1581 2169 
Q 1719 2375 1834 2534 
L 2394 3319 
L 3066 3319 
L 1919 1756 
L 3153 0 
L 2463 0 
L 1781 1031 
L 1600 1309 
L 728 0 
L 47 0 
z
" transform="scale(0.015625)"/>
      <path id="ArialMT-77" d="M 1034 0 
L 19 3319 
L 600 3319 
L 1128 1403 
L 1325 691 
Q 1338 744 1497 1375 
L 2025 3319 
L 2603 3319 
L 3100 1394 
L 3266 759 
L 3456 1400 
L 4025 3319 
L 4572 3319 
L 3534 0 
L 2950 0 
L 2422 1988 
L 2294 2553 
L 1622 0 
L 1034 0 
z
" transform="scale(0.015625)"/>
     </defs>
     <use xlink:href="#ArialMT-50"/>
     <use xlink:href="#ArialMT-6f" transform="translate(66.699219 0)"/>
     <use xlink:href="#ArialMT-6c" transform="translate(122.314453 0)"/>
     <use xlink:href="#ArialMT-61" transform="translate(144.53125 0)"/>
     <use xlink:href="#ArialMT-72" transform="translate(200.146484 0)"/>
     <use xlink:href="#ArialMT-20" transform="translate(233.447266 0)"/>
     <use xlink:href="#ArialMT-76" transform="translate(261.230469 0)"/>
     <use xlink:href="#ArialMT-6f" transform="translate(311.230469 0)"/>
     <use xlink:href="#ArialMT-72" transform="translate(366.845703 0)"/>
     <use xlink:href="#ArialMT-74" transform="translate(400.146484 0)"/>
     <use xlink:href="#ArialMT-65" transform="translate(427.929688 0)"/>
     <use xlink:href="#ArialMT-78" transform="translate(483.544922 0)"/>
     <use xlink:href="#ArialMT-20" transform="translate(533.544922 0)"/>
     <use xlink:href="#ArialMT-64" transform="translate(561.328125 0)"/>
     <use xlink:href="#ArialMT-72" transform="translate(616.943359 0)"/>
     <use xlink:href="#ArialMT-61" transform="translate(650.244141 0)"/>
     <use xlink:href="#ArialMT-77" transform="translate(705.859375 0)"/>
    </g>
   </g>
   <g id="text_17">
    <!-- Record low entry (&lt;3,200) -->
    <g style="fill: #ff0000; opacity: 0.7" transform="translate(613.414042 140.146852) rotate(-90) scale(0.08 -0.08)">
     <defs>
      <path id="ArialMT-6e" d="M 422 0 
L 422 3319 
L 928 3319 
L 928 2847 
Q 1294 3394 1984 3394 
Q 2284 3394 2536 3286 
Q 2788 3178 2913 3003 
Q 3038 2828 3088 2588 
Q 3119 2431 3119 2041 
L 3119 0 
L 2556 0 
L 2556 2019 
Q 2556 2363 2490 2533 
Q 2425 2703 2258 2804 
Q 2091 2906 1866 2906 
Q 1506 2906 1245 2678 
Q 984 2450 984 1813 
L 984 0 
L 422 0 
z
" transform="scale(0.015625)"/>
      <path id="ArialMT-79" d="M 397 -1278 
L 334 -750 
Q 519 -800 656 -800 
Q 844 -800 956 -737 
Q 1069 -675 1141 -563 
Q 1194 -478 1313 -144 
Q 1328 -97 1363 -6 
L 103 3319 
L 709 3319 
L 1400 1397 
Q 1534 1031 1641 628 
Q 1738 1016 1872 1384 
L 2581 3319 
L 3144 3319 
L 1881 -56 
Q 1678 -603 1566 -809 
Q 1416 -1088 1222 -1217 
Q 1028 -1347 759 -1347 
Q 597 -1347 397 -1278 
z
" transform="scale(0.015625)"/>
      <path id="ArialMT-3c" d="M 350 2003 
L 350 2528 
L 3384 3809 
L 3384 3250 
L 978 2263 
L 3384 1266 
L 3384 706 
L 350 2003 
z
" transform="scale(0.015625)"/>
     </defs>
     <use xlink:href="#ArialMT-52"/>
     <use xlink:href="#ArialMT-65" transform="translate(72.216797 0)"/>
     <use xlink:href="#ArialMT-63" transform="translate(127.832031 0)"/>
     <use xlink:href="#ArialMT-6f" transform="translate(177.832031 0)"/>
     <use xlink:href="#ArialMT-72" transform="translate(233.447266 0)"/>
     <use xlink:href="#ArialMT-64" transform="translate(266.748047 0)"/>
     <use xlink:href="#ArialMT-20" transform="translate(322.363281 0)"/>
     <use xlink:href="#ArialMT-6c" transform="translate(350.146484 0)"/>
     <use xlink:href="#ArialMT-6f" transform="translate(372.363281 0)"/>
     <use xlink:href="#ArialMT-77" transform="translate(427.978516 0)"/>
     <use xlink:href="#ArialMT-20" transform="translate(500.195312 0)"/>
     <use xlink:href="#ArialMT-65" transform="translate(527.978516 0)"/>
     <use xlink:href="#ArialMT-6e" transform="translate(583.59375 0)"/>
     <use xlink:href="#ArialMT-74" transform="translate(639.208984 0)"/>
     <use xlink:href="#ArialMT-72" transform="translate(666.992188 0)"/>
     <use xlink:href="#ArialMT-79" transform="translate(700.292969 0)"/>
     <use xlink:href="#ArialMT-20" transform="translate(750.292969 0)"/>
     <use xlink:href="#ArialMT-28" transform="translate(778.076172 0)"/>
     <use xlink:href="#ArialMT-3c" transform="translate(811.376953 0)"/>
     <use xlink:href="#ArialMT-33" transform="translate(869.775391 0)"/>
     <use xlink:href="#ArialMT-2c" transform="translate(925.390625 0)"/>
     <use xlink:href="#ArialMT-32" transform="translate(953.173828 0)"/>
     <use xlink:href="#ArialMT-30" transform="translate(1008.789062 0)"/>
     <use xlink:href="#ArialMT-30" transform="translate(1064.404297 0)"/>
     <use xlink:href="#ArialMT-29" transform="translate(1120.019531 0)"/>
    </g>
   </g>
   <g id="text_18">
    <!-- COVID demand crash -->
    <g style="fill: #ff0000; opacity: 0.7" transform="translate(669.182566 126.136852) rotate(-90) scale(0.08 -0.08)">
     <defs>
      <path id="ArialMT-43" d="M 3763 1606 
L 4369 1453 
Q 4178 706 3683 314 
Q 3188 -78 2472 -78 
Q 1731 -78 1267 223 
Q 803 525 561 1097 
Q 319 1669 319 2325 
Q 319 3041 592 3573 
Q 866 4106 1370 4382 
Q 1875 4659 2481 4659 
Q 3169 4659 3637 4309 
Q 4106 3959 4291 3325 
L 3694 3184 
Q 3534 3684 3231 3912 
Q 2928 4141 2469 4141 
Q 1941 4141 1586 3887 
Q 1231 3634 1087 3207 
Q 944 2781 944 2328 
Q 944 1744 1114 1308 
Q 1284 872 1643 656 
Q 2003 441 2422 441 
Q 2931 441 3284 734 
Q 3638 1028 3763 1606 
z
" transform="scale(0.015625)"/>
      <path id="ArialMT-4f" d="M 309 2231 
Q 309 3372 921 4017 
Q 1534 4663 2503 4663 
Q 3138 4663 3647 4359 
Q 4156 4056 4423 3514 
Q 4691 2972 4691 2284 
Q 4691 1588 4409 1038 
Q 4128 488 3612 205 
Q 3097 -78 2500 -78 
Q 1853 -78 1343 234 
Q 834 547 571 1087 
Q 309 1628 309 2231 
z
M 934 2222 
Q 934 1394 1379 917 
Q 1825 441 2497 441 
Q 3181 441 3623 922 
Q 4066 1403 4066 2288 
Q 4066 2847 3877 3264 
Q 3688 3681 3323 3911 
Q 2959 4141 2506 4141 
Q 1863 4141 1398 3698 
Q 934 3256 934 2222 
z
" transform="scale(0.015625)"/>
      <path id="ArialMT-56" d="M 1803 0 
L 28 4581 
L 684 4581 
L 1875 1253 
Q 2019 853 2116 503 
Q 2222 878 2363 1253 
L 3600 4581 
L 4219 4581 
L 2425 0 
L 1803 0 
z
" transform="scale(0.015625)"/>
      <path id="ArialMT-49" d="M 597 0 
L 597 4581 
L 1203 4581 
L 1203 0 
L 597 0 
z
" transform="scale(0.015625)"/>
      <path id="ArialMT-44" d="M 494 0 
L 494 4581 
L 2072 4581 
Q 2606 4581 2888 4516 
Q 3281 4425 3559 4188 
Q 3922 3881 4101 3404 
Q 4281 2928 4281 2316 
Q 4281 1794 4159 1391 
Q 4038 988 3847 723 
Q 3656 459 3429 307 
Q 3203 156 2883 78 
Q 2563 0 2147 0 
L 494 0 
z
M 1100 541 
L 2078 541 
Q 2531 541 2789 625 
Q 3047 709 3200 863 
Q 3416 1078 3536 1442 
Q 3656 1806 3656 2325 
Q 3656 3044 3420 3430 
Q 3184 3816 2847 3947 
Q 2603 4041 2063 4041 
L 1100 4041 
L 1100 541 
z
" transform="scale(0.015625)"/>
      <path id="ArialMT-6d" d="M 422 0 
L 422 3319 
L 925 3319 
L 925 2853 
Q 1081 3097 1340 3245 
Q 1600 3394 1931 3394 
Q 2300 3394 2536 3241 
Q 2772 3088 2869 2813 
Q 3263 3394 3894 3394 
Q 4388 3394 4653 3120 
Q 4919 2847 4919 2278 
L 4919 0 
L 4359 0 
L 4359 2091 
Q 4359 2428 4304 2576 
Q 4250 2725 4106 2815 
Q 3963 2906 3769 2906 
Q 3419 2906 3187 2673 
Q 2956 2441 2956 1928 
L 2956 0 
L 2394 0 
L 2394 2156 
Q 2394 2531 2256 2718 
Q 2119 2906 1806 2906 
Q 1569 2906 1367 2781 
Q 1166 2656 1075 2415 
Q 984 2175 984 1722 
L 984 0 
L 422 0 
z
" transform="scale(0.015625)"/>
      <path id="ArialMT-73" d="M 197 991 
L 753 1078 
Q 800 744 1014 566 
Q 1228 388 1613 388 
Q 2000 388 2187 545 
Q 2375 703 2375 916 
Q 2375 1106 2209 1216 
Q 2094 1291 1634 1406 
Q 1016 1563 777 1677 
Q 538 1791 414 1992 
Q 291 2194 291 2438 
Q 291 2659 392 2848 
Q 494 3038 669 3163 
Q 800 3259 1026 3326 
Q 1253 3394 1513 3394 
Q 1903 3394 2198 3281 
Q 2494 3169 2634 2976 
Q 2775 2784 2828 2463 
L 2278 2388 
Q 2241 2644 2061 2787 
Q 1881 2931 1553 2931 
Q 1166 2931 1000 2803 
Q 834 2675 834 2503 
Q 834 2394 903 2306 
Q 972 2216 1119 2156 
Q 1203 2125 1616 2013 
Q 2213 1853 2448 1751 
Q 2684 1650 2818 1456 
Q 2953 1263 2953 975 
Q 2953 694 2789 445 
Q 2625 197 2315 61 
Q 2006 -75 1616 -75 
Q 969 -75 630 194 
Q 291 463 197 991 
z
" transform="scale(0.015625)"/>
     </defs>
     <use xlink:href="#ArialMT-43"/>
     <use xlink:href="#ArialMT-4f" transform="translate(72.216797 0)"/>
     <use xlink:href="#ArialMT-56" transform="translate(150 0)"/>
     <use xlink:href="#ArialMT-49" transform="translate(216.699219 0)"/>
     <use xlink:href="#ArialMT-44" transform="translate(244.482422 0)"/>
     <use xlink:href="#ArialMT-20" transform="translate(316.699219 0)"/>
     <use xlink:href="#ArialMT-64" transform="translate(344.482422 0)"/>
     <use xlink:href="#ArialMT-65" transform="translate(400.097656 0)"/>
     <use xlink:href="#ArialMT-6d" transform="translate(455.712891 0)"/>
     <use xlink:href="#ArialMT-61" transform="translate(539.013672 0)"/>
     <use xlink:href="#ArialMT-6e" transform="translate(594.628906 0)"/>
     <use xlink:href="#ArialMT-64" transform="translate(650.244141 0)"/>
     <use xlink:href="#ArialMT-20" transform="translate(705.859375 0)"/>
     <use xlink:href="#ArialMT-63" transform="translate(733.642578 0)"/>
     <use xlink:href="#ArialMT-72" transform="translate(783.642578 0)"/>
     <use xlink:href="#ArialMT-61" transform="translate(816.943359 0)"/>
     <use xlink:href="#ArialMT-73" transform="translate(872.558594 0)"/>
     <use xlink:href="#ArialMT-68" transform="translate(922.558594 0)"/>
    </g>
   </g>
   <g id="text_19">
    <!-- Winter Storm Uri -->
    <g style="fill: #ff0000; opacity: 0.7" transform="translate(684.939578 106.998102) rotate(-90) scale(0.08 -0.08)">
     <defs>
      <path id="ArialMT-57" d="M 1294 0 
L 78 4581 
L 700 4581 
L 1397 1578 
Q 1509 1106 1591 641 
Q 1766 1375 1797 1488 
L 2669 4581 
L 3400 4581 
L 4056 2263 
Q 4303 1400 4413 641 
Q 4500 1075 4641 1638 
L 5359 4581 
L 5969 4581 
L 4713 0 
L 4128 0 
L 3163 3491 
Q 3041 3928 3019 4028 
Q 2947 3713 2884 3491 
L 1913 0 
L 1294 0 
z
" transform="scale(0.015625)"/>
      <path id="ArialMT-53" d="M 288 1472 
L 859 1522 
Q 900 1178 1048 958 
Q 1197 738 1509 602 
Q 1822 466 2213 466 
Q 2559 466 2825 569 
Q 3091 672 3220 851 
Q 3350 1031 3350 1244 
Q 3350 1459 3225 1620 
Q 3100 1781 2813 1891 
Q 2628 1963 1997 2114 
Q 1366 2266 1113 2400 
Q 784 2572 623 2826 
Q 463 3081 463 3397 
Q 463 3744 659 4045 
Q 856 4347 1234 4503 
Q 1613 4659 2075 4659 
Q 2584 4659 2973 4495 
Q 3363 4331 3572 4012 
Q 3781 3694 3797 3291 
L 3216 3247 
Q 3169 3681 2898 3903 
Q 2628 4125 2100 4125 
Q 1550 4125 1298 3923 
Q 1047 3722 1047 3438 
Q 1047 3191 1225 3031 
Q 1400 2872 2139 2705 
Q 2878 2538 3153 2413 
Q 3553 2228 3743 1945 
Q 3934 1663 3934 1294 
Q 3934 928 3725 604 
Q 3516 281 3123 101 
Q 2731 -78 2241 -78 
Q 1619 -78 1198 103 
Q 778 284 539 648 
Q 300 1013 288 1472 
z
" transform="scale(0.015625)"/>
      <path id="ArialMT-55" d="M 3500 4581 
L 4106 4581 
L 4106 1934 
Q 4106 1244 3950 837 
Q 3794 431 3386 176 
Q 2978 -78 2316 -78 
Q 1672 -78 1262 144 
Q 853 366 678 786 
Q 503 1206 503 1934 
L 503 4581 
L 1109 4581 
L 1109 1938 
Q 1109 1341 1220 1058 
Q 1331 775 1601 622 
Q 1872 469 2263 469 
Q 2931 469 3215 772 
Q 3500 1075 3500 1938 
L 3500 4581 
z
" transform="scale(0.015625)"/>
     </defs>
     <use xlink:href="#ArialMT-57"/>
     <use xlink:href="#ArialMT-69" transform="translate(94.384766 0)"/>
     <use xlink:href="#ArialMT-6e" transform="translate(116.601562 0)"/>
     <use xlink:href="#ArialMT-74" transform="translate(172.216797 0)"/>
     <use xlink:href="#ArialMT-65" transform="translate(200 0)"/>
     <use xlink:href="#ArialMT-72" transform="translate(255.615234 0)"/>
     <use xlink:href="#ArialMT-20" transform="translate(288.916016 0)"/>
     <use xlink:href="#ArialMT-53" transform="translate(316.699219 0)"/>
     <use xlink:href="#ArialMT-74" transform="translate(383.398438 0)"/>
     <use xlink:href="#ArialMT-6f" transform="translate(411.181641 0)"/>
     <use xlink:href="#ArialMT-72" transform="translate(466.796875 0)"/>
     <use xlink:href="#ArialMT-6d" transform="translate(500.097656 0)"/>
     <use xlink:href="#ArialMT-20" transform="translate(583.398438 0)"/>
     <use xlink:href="#ArialMT-55" transform="translate(611.181641 0)"/>
     <use xlink:href="#ArialMT-72" transform="translate(683.398438 0)"/>
     <use xlink:href="#ArialMT-69" transform="translate(716.699219 0)"/>
    </g>
   </g>
   <g id="text_20">
    <!-- Ukraine/LNG tight -->
    <g style="fill: #ff0000; opacity: 0.7" transform="translate(778.337429 111.465602) rotate(-90) scale(0.08 -0.08)">
     <defs>
      <path id="ArialMT-6b" d="M 425 0 
L 425 4581 
L 988 4581 
L 988 1969 
L 2319 3319 
L 3047 3319 
L 1778 2088 
L 3175 0 
L 2481 0 
L 1384 1697 
L 988 1316 
L 988 0 
L 425 0 
z
" transform="scale(0.015625)"/>
      <path id="ArialMT-2f" d="M 0 -78 
L 1328 4659 
L 1778 4659 
L 453 -78 
L 0 -78 
z
" transform="scale(0.015625)"/>
      <path id="ArialMT-4c" d="M 469 0 
L 469 4581 
L 1075 4581 
L 1075 541 
L 3331 541 
L 3331 0 
L 469 0 
z
" transform="scale(0.015625)"/>
      <path id="ArialMT-4e" d="M 488 0 
L 488 4581 
L 1109 4581 
L 3516 984 
L 3516 4581 
L 4097 4581 
L 4097 0 
L 3475 0 
L 1069 3600 
L 1069 0 
L 488 0 
z
" transform="scale(0.015625)"/>
      <path id="ArialMT-47" d="M 2638 1797 
L 2638 2334 
L 4578 2338 
L 4578 638 
Q 4131 281 3656 101 
Q 3181 -78 2681 -78 
Q 2006 -78 1454 211 
Q 903 500 622 1047 
Q 341 1594 341 2269 
Q 341 2938 620 3517 
Q 900 4097 1425 4378 
Q 1950 4659 2634 4659 
Q 3131 4659 3532 4498 
Q 3934 4338 4162 4050 
Q 4391 3763 4509 3300 
L 3963 3150 
Q 3859 3500 3706 3700 
Q 3553 3900 3268 4020 
Q 2984 4141 2638 4141 
Q 2222 4141 1919 4014 
Q 1616 3888 1430 3681 
Q 1244 3475 1141 3228 
Q 966 2803 966 2306 
Q 966 1694 1177 1281 
Q 1388 869 1791 669 
Q 2194 469 2647 469 
Q 3041 469 3416 620 
Q 3791 772 3984 944 
L 3984 1797 
L 2638 1797 
z
" transform="scale(0.015625)"/>
     </defs>
     <use xlink:href="#ArialMT-55"/>
     <use xlink:href="#ArialMT-6b" transform="translate(72.216797 0)"/>
     <use xlink:href="#ArialMT-72" transform="translate(122.216797 0)"/>
     <use xlink:href="#ArialMT-61" transform="translate(155.517578 0)"/>
     <use xlink:href="#ArialMT-69" transform="translate(211.132812 0)"/>
     <use xlink:href="#ArialMT-6e" transform="translate(233.349609 0)"/>
     <use xlink:href="#ArialMT-65" transform="translate(288.964844 0)"/>
     <use xlink:href="#ArialMT-2f" transform="translate(344.580078 0)"/>
     <use xlink:href="#ArialMT-4c" transform="translate(372.363281 0)"/>
     <use xlink:href="#ArialMT-4e" transform="translate(427.978516 0)"/>
     <use xlink:href="#ArialMT-47" transform="translate(500.195312 0)"/>
     <use xlink:href="#ArialMT-20" transform="translate(577.978516 0)"/>
     <use xlink:href="#ArialMT-74" transform="translate(605.761719 0)"/>
     <use xlink:href="#ArialMT-69" transform="translate(633.544922 0)"/>
     <use xlink:href="#ArialMT-67" transform="translate(655.761719 0)"/>
     <use xlink:href="#ArialMT-68" transform="translate(711.376953 0)"/>
     <use xlink:href="#ArialMT-74" transform="translate(766.992188 0)"/>
    </g>
   </g>
   <g id="text_21">
    <!-- US invade Venezuela -->
    <g style="fill: #ff0000; opacity: 0.7" transform="translate(952.808772 124.384352) rotate(-90) scale(0.08 -0.08)">
     <defs>
      <path id="ArialMT-7a" d="M 125 0 
L 125 456 
L 2238 2881 
Q 1878 2863 1603 2863 
L 250 2863 
L 250 3319 
L 2963 3319 
L 2963 2947 
L 1166 841 
L 819 456 
Q 1197 484 1528 484 
L 3063 484 
L 3063 0 
L 125 0 
z
" transform="scale(0.015625)"/>
      <path id="ArialMT-75" d="M 2597 0 
L 2597 488 
Q 2209 -75 1544 -75 
Q 1250 -75 995 37 
Q 741 150 617 320 
Q 494 491 444 738 
Q 409 903 409 1263 
L 409 3319 
L 972 3319 
L 972 1478 
Q 972 1038 1006 884 
Q 1059 663 1231 536 
Q 1403 409 1656 409 
Q 1909 409 2131 539 
Q 2353 669 2445 892 
Q 2538 1116 2538 1541 
L 2538 3319 
L 3100 3319 
L 3100 0 
L 2597 0 
z
" transform="scale(0.015625)"/>
     </defs>
     <use xlink:href="#ArialMT-55"/>
     <use xlink:href="#ArialMT-53" transform="translate(72.216797 0)"/>
     <use xlink:href="#ArialMT-20" transform="translate(138.916016 0)"/>
     <use xlink:href="#ArialMT-69" transform="translate(166.699219 0)"/>
     <use xlink:href="#ArialMT-6e" transform="translate(188.916016 0)"/>
     <use xlink:href="#ArialMT-76" transform="translate(244.53125 0)"/>
     <use xlink:href="#ArialMT-61" transform="translate(294.53125 0)"/>
     <use xlink:href="#ArialMT-64" transform="translate(350.146484 0)"/>
     <use xlink:href="#ArialMT-65" transform="translate(405.761719 0)"/>
     <use xlink:href="#ArialMT-20" transform="translate(461.376953 0)"/>
     <use xlink:href="#ArialMT-56" transform="translate(489.160156 0)"/>
     <use xlink:href="#ArialMT-65" transform="translate(550.359375 0)"/>
     <use xlink:href="#ArialMT-6e" transform="translate(605.974609 0)"/>
     <use xlink:href="#ArialMT-65" transform="translate(661.589844 0)"/>
     <use xlink:href="#ArialMT-7a" transform="translate(717.205078 0)"/>
     <use xlink:href="#ArialMT-75" transform="translate(767.205078 0)"/>
     <use xlink:href="#ArialMT-65" transform="translate(822.820312 0)"/>
     <use xlink:href="#ArialMT-6c" transform="translate(878.435547 0)"/>
     <use xlink:href="#ArialMT-61" transform="translate(900.652344 0)"/>
    </g>
   </g>
   <g id="text_22">
    <!-- US invade Iran -->
    <g style="fill: #ff0000; opacity: 0.7" transform="translate(961.212512 100.801852) rotate(-90) scale(0.08 -0.08)">
     <use xlink:href="#ArialMT-55"/>
     <use xlink:href="#ArialMT-53" transform="translate(72.216797 0)"/>
     <use xlink:href="#ArialMT-20" transform="translate(138.916016 0)"/>
     <use xlink:href="#ArialMT-69" transform="translate(166.699219 0)"/>
     <use xlink:href="#ArialMT-6e" transform="translate(188.916016 0)"/>
     <use xlink:href="#ArialMT-76" transform="translate(244.53125 0)"/>
     <use xlink:href="#ArialMT-61" transform="translate(294.53125 0)"/>
     <use xlink:href="#ArialMT-64" transform="translate(350.146484 0)"/>
     <use xlink:href="#ArialMT-65" transform="translate(405.761719 0)"/>
     <use xlink:href="#ArialMT-20" transform="translate(461.376953 0)"/>
     <use xlink:href="#ArialMT-49" transform="translate(489.160156 0)"/>
     <use xlink:href="#ArialMT-72" transform="translate(516.943359 0)"/>
     <use xlink:href="#ArialMT-61" transform="translate(550.244141 0)"/>
     <use xlink:href="#ArialMT-6e" transform="translate(605.859375 0)"/>
    </g>
   </g>
   <g id="text_23">
    <!-- EIA Weekly Natural Gas Storage — Full History -->
    <g style="fill: #262626" transform="translate(318.529723 21.177) scale(0.192 -0.192)">
     <defs>
      <path id="ArialMT-45" d="M 506 0 
L 506 4581 
L 3819 4581 
L 3819 4041 
L 1113 4041 
L 1113 2638 
L 3647 2638 
L 3647 2100 
L 1113 2100 
L 1113 541 
L 3925 541 
L 3925 0 
L 506 0 
z
" transform="scale(0.015625)"/>
      <path id="ArialMT-41" d="M -9 0 
L 1750 4581 
L 2403 4581 
L 4278 0 
L 3588 0 
L 3053 1388 
L 1138 1388 
L 634 0 
L -9 0 
z
M 1313 1881 
L 2866 1881 
L 2388 3150 
Q 2169 3728 2063 4100 
Q 1975 3659 1816 3225 
L 1313 1881 
z
" transform="scale(0.015625)"/>
      <path id="ArialMT-2014" d="M 0 1431 
L 0 1884 
L 6400 1884 
L 6400 1431 
L 0 1431 
z
" transform="scale(0.015625)"/>
      <path id="ArialMT-46" d="M 525 0 
L 525 4581 
L 3616 4581 
L 3616 4041 
L 1131 4041 
L 1131 2622 
L 3281 2622 
L 3281 2081 
L 1131 2081 
L 1131 0 
L 525 0 
z
" transform="scale(0.015625)"/>
      <path id="ArialMT-48" d="M 513 0 
L 513 4581 
L 1119 4581 
L 1119 2700 
L 3500 2700 
L 3500 4581 
L 4106 4581 
L 4106 0 
L 3500 0 
L 3500 2159 
L 1119 2159 
L 1119 0 
L 513 0 
z
" transform="scale(0.015625)"/>
     </defs>
     <use xlink:href="#ArialMT-45"/>
     <use xlink:href="#ArialMT-49" transform="translate(66.699219 0)"/>
     <use xlink:href="#ArialMT-41" transform="translate(94.482422 0)"/>
     <use xlink:href="#ArialMT-20" transform="translate(155.681641 0)"/>
     <use xlink:href="#ArialMT-57" transform="translate(183.464844 0)"/>
     <use xlink:href="#ArialMT-65" transform="translate(276.099609 0)"/>
     <use xlink:href="#ArialMT-65" transform="translate(331.714844 0)"/>
     <use xlink:href="#ArialMT-6b" transform="translate(387.330078 0)"/>
     <use xlink:href="#ArialMT-6c" transform="translate(437.330078 0)"/>
     <use xlink:href="#ArialMT-79" transform="translate(459.546875 0)"/>
     <use xlink:href="#ArialMT-20" transform="translate(509.546875 0)"/>
     <use xlink:href="#ArialMT-4e" transform="translate(537.330078 0)"/>
     <use xlink:href="#ArialMT-61" transform="translate(609.546875 0)"/>
     <use xlink:href="#ArialMT-74" transform="translate(665.162109 0)"/>
     <use xlink:href="#ArialMT-75" transform="translate(692.945312 0)"/>
     <use xlink:href="#ArialMT-72" transform="translate(748.560547 0)"/>
     <use xlink:href="#ArialMT-61" transform="translate(781.861328 0)"/>
     <use xlink:href="#ArialMT-6c" transform="translate(837.476562 0)"/>
     <use xlink:href="#ArialMT-20" transform="translate(859.693359 0)"/>
     <use xlink:href="#ArialMT-47" transform="translate(887.476562 0)"/>
     <use xlink:href="#ArialMT-61" transform="translate(965.259766 0)"/>
     <use xlink:href="#ArialMT-73" transform="translate(1020.875 0)"/>
     <use xlink:href="#ArialMT-20" transform="translate(1070.875 0)"/>
     <use xlink:href="#ArialMT-53" transform="translate(1098.658203 0)"/>
     <use xlink:href="#ArialMT-74" transform="translate(1165.357422 0)"/>
     <use xlink:href="#ArialMT-6f" transform="translate(1193.140625 0)"/>
     <use xlink:href="#ArialMT-72" transform="translate(1248.755859 0)"/>
     <use xlink:href="#ArialMT-61" transform="translate(1282.056641 0)"/>
     <use xlink:href="#ArialMT-67" transform="translate(1337.671875 0)"/>
     <use xlink:href="#ArialMT-65" transform="translate(1393.287109 0)"/>
     <use xlink:href="#ArialMT-20" transform="translate(1448.902344 0)"/>
     <use xlink:href="#ArialMT-2014" transform="translate(1476.685547 0)"/>
     <use xlink:href="#ArialMT-20" transform="translate(1576.685547 0)"/>
     <use xlink:href="#ArialMT-46" transform="translate(1604.46875 0)"/>
     <use xlink:href="#ArialMT-75" transform="translate(1665.552734 0)"/>
     <use xlink:href="#ArialMT-6c" transform="translate(1721.167969 0)"/>
     <use xlink:href="#ArialMT-6c" transform="translate(1743.384766 0)"/>
     <use xlink:href="#ArialMT-20" transform="translate(1765.601562 0)"/>
     <use xlink:href="#ArialMT-48" transform="translate(1793.384766 0)"/>
     <use xlink:href="#ArialMT-69" transform="translate(1865.601562 0)"/>
     <use xlink:href="#ArialMT-73" transform="translate(1887.818359 0)"/>
     <use xlink:href="#ArialMT-74" transform="translate(1937.818359 0)"/>
     <use xlink:href="#ArialMT-6f" transform="translate(1965.601562 0)"/>
     <use xlink:href="#ArialMT-72" transform="translate(2021.216797 0)"/>
     <use xlink:href="#ArialMT-79" transform="translate(2054.517578 0)"/>
    </g>
   </g>
   <g id="legend_1">
    <g id="patch_7">
     <path d="M 88.528 66.5735 
L 307.86525 66.5735 
Q 311.38525 66.5735 311.38525 63.0535 
L 311.38525 39.497 
Q 311.38525 35.977 307.86525 35.977 
L 88.528 35.977 
Q 85.008 35.977 85.008 39.497 
L 85.008 63.0535 
Q 85.008 66.5735 88.528 66.5735 
z
" style="fill: #ffffff; opacity: 0.8; stroke: #cccccc; stroke-width: 0.8; stroke-linejoin: miter"/>
    </g>
    <g id="line2d_24">
     <path d="M 92.048 49.66925 
L 109.648 49.66925 
L 127.248 49.66925 
" style="fill: none; stroke: #2ca02c; stroke-opacity: 0.5; stroke-linecap: round"/>
    </g>
    <g id="text_24">
     <!-- Weekly storage (Bcf) -->
     <g style="fill: #262626" transform="translate(141.328 55.82925) scale(0.176 -0.176)">
      <use xlink:href="#ArialMT-57"/>
      <use xlink:href="#ArialMT-65" transform="translate(92.634766 0)"/>
      <use xlink:href="#ArialMT-65" transform="translate(148.25 0)"/>
      <use xlink:href="#ArialMT-6b" transform="translate(203.865234 0)"/>
      <use xlink:href="#ArialMT-6c" transform="translate(253.865234 0)"/>
      <use xlink:href="#ArialMT-79" transform="translate(276.082031 0)"/>
      <use xlink:href="#ArialMT-20" transform="translate(326.082031 0)"/>
      <use xlink:href="#ArialMT-73" transform="translate(353.865234 0)"/>
      <use xlink:href="#ArialMT-74" transform="translate(403.865234 0)"/>
      <use xlink:href="#ArialMT-6f" transform="translate(431.648438 0)"/>
      <use xlink:href="#ArialMT-72" transform="translate(487.263672 0)"/>
      <use xlink:href="#ArialMT-61" transform="translate(520.564453 0)"/>
      <use xlink:href="#ArialMT-67" transform="translate(576.179688 0)"/>
      <use xlink:href="#ArialMT-65" transform="translate(631.794922 0)"/>
      <use xlink:href="#ArialMT-20" transform="translate(687.410156 0)"/>
      <use xlink:href="#ArialMT-28" transform="translate(715.193359 0)"/>
      <use xlink:href="#ArialMT-42" transform="translate(748.494141 0)"/>
      <use xlink:href="#ArialMT-63" transform="translate(815.193359 0)"/>
      <use xlink:href="#ArialMT-66" transform="translate(865.193359 0)"/>
      <use xlink:href="#ArialMT-29" transform="translate(892.976562 0)"/>
     </g>
    </g>
   </g>
  </g>
 </g>
 <defs>
  <clipPath id="p3c735003d1">
   <rect x="76.208" y="27.177" width="888.695447" height="201.988"/>
  </clipPath>
 </defs>
</svg>
