<?xml version="1.0" encoding="utf-8" standalone="no"?>
<!DOCTYPE svg PUBLIC "-//W3C//DTD SVG 1.1//EN"
  "http://www.w3.org/Graphics/SVG/1.1/DTD/svg11.dtd">
<svg xmlns:xlink="http://www.w3.org/1999/xlink" width="981.476pt" height="260.76075pt" viewBox="0 0 981.476 260.76075" xmlns="http://www.w3.org/2000/svg" version="1.1">
 <metadata>
  <rdf:RDF xmlns:dc="http://purl.org/dc/elements/1.1/" xmlns:cc="http://creativecommons.org/ns#" xmlns:rdf="http://www.w3.org/1999/02/22-rdf-syntax-ns#">
   <cc:Work>
    <dc:type rdf:resource="http://purl.org/dc/dcmitype/StillImage"/>
    <dc:date>2026-04-01T06:03:05.053474</dc:date>
    <dc:format>image/svg+xml</dc:format>
    <dc:creator>
     <cc:Agent>
      <dc:title>Matplotlib v3.10.8, https://matplotlib.org/</dc:title>
     </cc:Agent>
    </dc:creator>
   </cc:Work>
  </rdf:RDF>
 </metadata>
 <defs>
  <style type="text/css">*{stroke-linejoin: round; stroke-linecap: butt}</style>
 </defs>
 <g id="figure_1">
  <g id="patch_1">
   <path d="M 0 260.76075 
L 981.476 260.76075 
L 981.476 0 
L 0 0 
z
" style="fill: #ffffff"/>
  </g>
  <g id="axes_1">
   <g id="patch_2">
    <path d="M 76.208 229.165 
L 974.276 229.165 
L 974.276 27.177 
L 76.208 27.177 
z
" style="fill: #ffffff"/>
   </g>
   <g id="matplotlib.axis_1">
    <g id="xtick_1">
     <g id="line2d_1">
      <path d="M 76.208 229.165 
L 76.208 27.177 
" clip-path="url(#p897e5a8866)" style="fill: none; stroke: #cccccc; stroke-width: 0.8; stroke-linecap: round"/>
     </g>
     <g id="text_1">
      <!-- 2020 -->
      <g style="fill: #262626" transform="translate(56.6335 250.06275) scale(0.176 -0.176)">
       <defs>
        <path id="ArialMT-32" d="M 3222 541 
L 3222 0 
L 194 0 
Q 188 203 259 391 
Q 375 700 629 1000 
Q 884 1300 1366 1694 
Q 2113 2306 2375 2664 
Q 2638 3022 2638 3341 
Q 2638 3675 2398 3904 
Q 2159 4134 1775 4134 
Q 1369 4134 1125 3890 
Q 881 3647 878 3216 
L 300 3275 
Q 359 3922 746 4261 
Q 1134 4600 1788 4600 
Q 2447 4600 2831 4234 
Q 3216 3869 3216 3328 
Q 3216 3053 3103 2787 
Q 2991 2522 2730 2228 
Q 2469 1934 1863 1422 
Q 1356 997 1212 845 
Q 1069 694 975 541 
L 3222 541 
z
" transform="scale(0.015625)"/>
        <path id="ArialMT-30" d="M 266 2259 
Q 266 3072 433 3567 
Q 600 4063 929 4331 
Q 1259 4600 1759 4600 
Q 2128 4600 2406 4451 
Q 2684 4303 2865 4023 
Q 3047 3744 3150 3342 
Q 3253 2941 3253 2259 
Q 3253 1453 3087 958 
Q 2922 463 2592 192 
Q 2263 -78 1759 -78 
Q 1097 -78 719 397 
Q 266 969 266 2259 
z
M 844 2259 
Q 844 1131 1108 757 
Q 1372 384 1759 384 
Q 2147 384 2411 759 
Q 2675 1134 2675 2259 
Q 2675 3391 2411 3762 
Q 2147 4134 1753 4134 
Q 1366 4134 1134 3806 
Q 844 3388 844 2259 
z
" transform="scale(0.015625)"/>
       </defs>
       <use xlink:href="#ArialMT-32"/>
       <use xlink:href="#ArialMT-30" transform="translate(55.615234 0)"/>
       <use xlink:href="#ArialMT-32" transform="translate(111.230469 0)"/>
       <use xlink:href="#ArialMT-30" transform="translate(166.845703 0)"/>
      </g>
     </g>
    </g>
    <g id="xtick_2">
     <g id="line2d_2">
      <path d="M 220.34237 229.165 
L 220.34237 27.177 
" clip-path="url(#p897e5a8866)" style="fill: none; stroke: #cccccc; stroke-width: 0.8; stroke-linecap: round"/>
     </g>
     <g id="text_2">
      <!-- 2021 -->
      <g style="fill: #262626" transform="translate(200.76787 250.06275) scale(0.176 -0.176)">
       <defs>
        <path id="ArialMT-31" d="M 2384 0 
L 1822 0 
L 1822 3584 
Q 1619 3391 1289 3197 
Q 959 3003 697 2906 
L 697 3450 
Q 1169 3672 1522 3987 
Q 1875 4303 2022 4600 
L 2384 4600 
L 2384 0 
z
" transform="scale(0.015625)"/>
       </defs>
       <use xlink:href="#ArialMT-32"/>
       <use xlink:href="#ArialMT-30" transform="translate(55.615234 0)"/>
       <use xlink:href="#ArialMT-32" transform="translate(111.230469 0)"/>
       <use xlink:href="#ArialMT-31" transform="translate(166.845703 0)"/>
      </g>
     </g>
    </g>
    <g id="xtick_3">
     <g id="line2d_3">
      <path d="M 367.248556 229.165 
L 367.248556 27.177 
" clip-path="url(#p897e5a8866)" style="fill: none; stroke: #cccccc; stroke-width: 0.8; stroke-linecap: round"/>
     </g>
     <g id="text_3">
      <!-- 2022 -->
      <g style="fill: #262626" transform="translate(347.674056 250.06275) scale(0.176 -0.176)">
       <use xlink:href="#ArialMT-32"/>
       <use xlink:href="#ArialMT-30" transform="translate(55.615234 0)"/>
       <use xlink:href="#ArialMT-32" transform="translate(111.230469 0)"/>
       <use xlink:href="#ArialMT-32" transform="translate(166.845703 0)"/>
      </g>
     </g>
    </g>
    <g id="xtick_4">
     <g id="line2d_4">
      <path d="M 511.382926 229.165 
L 511.382926 27.177 
" clip-path="url(#p897e5a8866)" style="fill: none; stroke: #cccccc; stroke-width: 0.8; stroke-linecap: round"/>
     </g>
     <g id="text_4">
      <!-- 2023 -->
      <g style="fill: #262626" transform="translate(491.808426 250.06275) scale(0.176 -0.176)">
       <defs>
        <path id="ArialMT-33" d="M 269 1209 
L 831 1284 
Q 928 806 1161 595 
Q 1394 384 1728 384 
Q 2125 384 2398 659 
Q 2672 934 2672 1341 
Q 2672 1728 2419 1979 
Q 2166 2231 1775 2231 
Q 1616 2231 1378 2169 
L 1441 2663 
Q 1497 2656 1531 2656 
Q 1891 2656 2178 2843 
Q 2466 3031 2466 3422 
Q 2466 3731 2256 3934 
Q 2047 4138 1716 4138 
Q 1388 4138 1169 3931 
Q 950 3725 888 3313 
L 325 3413 
Q 428 3978 793 4289 
Q 1159 4600 1703 4600 
Q 2078 4600 2393 4439 
Q 2709 4278 2876 4000 
Q 3044 3722 3044 3409 
Q 3044 3113 2884 2869 
Q 2725 2625 2413 2481 
Q 2819 2388 3044 2092 
Q 3269 1797 3269 1353 
Q 3269 753 2831 336 
Q 2394 -81 1725 -81 
Q 1122 -81 723 278 
Q 325 638 269 1209 
z
" transform="scale(0.015625)"/>
       </defs>
       <use xlink:href="#ArialMT-32"/>
       <use xlink:href="#ArialMT-30" transform="translate(55.615234 0)"/>
       <use xlink:href="#ArialMT-32" transform="translate(111.230469 0)"/>
       <use xlink:href="#ArialMT-33" transform="translate(166.845703 0)"/>
      </g>
     </g>
    </g>
    <g id="xtick_5">
     <g id="line2d_5">
      <path d="M 655.517296 229.165 
L 655.517296 27.177 
" clip-path="url(#p897e5a8866)" style="fill: none; stroke: #cccccc; stroke-width: 0.8; stroke-linecap: round"/>
     </g>
     <g id="text_5">
      <!-- 2024 -->
      <g style="fill: #262626" transform="translate(635.942796 250.06275) scale(0.176 -0.176)">
       <defs>
        <path id="ArialMT-34" d="M 2069 0 
L 2069 1097 
L 81 1097 
L 81 1613 
L 2172 4581 
L 2631 4581 
L 2631 1613 
L 3250 1613 
L 3250 1097 
L 2631 1097 
L 2631 0 
L 2069 0 
z
M 2069 1613 
L 2069 3678 
L 634 1613 
L 2069 1613 
z
" transform="scale(0.015625)"/>
       </defs>
       <use xlink:href="#ArialMT-32"/>
       <use xlink:href="#ArialMT-30" transform="translate(55.615234 0)"/>
       <use xlink:href="#ArialMT-32" transform="translate(111.230469 0)"/>
       <use xlink:href="#ArialMT-34" transform="translate(166.845703 0)"/>
      </g>
     </g>
    </g>
    <g id="xtick_6">
     <g id="line2d_6">
      <path d="M 799.651667 229.165 
L 799.651667 27.177 
" clip-path="url(#p897e5a8866)" style="fill: none; stroke: #cccccc; stroke-width: 0.8; stroke-linecap: round"/>
     </g>
     <g id="text_6">
      <!-- 2025 -->
      <g style="fill: #262626" transform="translate(780.077167 250.06275) scale(0.176 -0.176)">
       <defs>
        <path id="ArialMT-35" d="M 266 1200 
L 856 1250 
Q 922 819 1161 601 
Q 1400 384 1738 384 
Q 2144 384 2425 690 
Q 2706 997 2706 1503 
Q 2706 1984 2436 2262 
Q 2166 2541 1728 2541 
Q 1456 2541 1237 2417 
Q 1019 2294 894 2097 
L 366 2166 
L 809 4519 
L 3088 4519 
L 3088 3981 
L 1259 3981 
L 1013 2750 
Q 1425 3038 1878 3038 
Q 2478 3038 2890 2622 
Q 3303 2206 3303 1553 
Q 3303 931 2941 478 
Q 2500 -78 1738 -78 
Q 1113 -78 717 272 
Q 322 622 266 1200 
z
" transform="scale(0.015625)"/>
       </defs>
       <use xlink:href="#ArialMT-32"/>
       <use xlink:href="#ArialMT-30" transform="translate(55.615234 0)"/>
       <use xlink:href="#ArialMT-32" transform="translate(111.230469 0)"/>
       <use xlink:href="#ArialMT-35" transform="translate(166.845703 0)"/>
      </g>
     </g>
    </g>
    <g id="xtick_7">
     <g id="line2d_7">
      <path d="M 943.786037 229.165 
L 943.786037 27.177 
" clip-path="url(#p897e5a8866)" style="fill: none; stroke: #cccccc; stroke-width: 0.8; stroke-linecap: round"/>
     </g>
     <g id="text_7">
      <!-- 2026 -->
      <g style="fill: #262626" transform="translate(924.211537 250.06275) scale(0.176 -0.176)">
       <defs>
        <path id="ArialMT-36" d="M 3184 3459 
L 2625 3416 
Q 2550 3747 2413 3897 
Q 2184 4138 1850 4138 
Q 1581 4138 1378 3988 
Q 1113 3794 959 3422 
Q 806 3050 800 2363 
Q 1003 2672 1297 2822 
Q 1591 2972 1913 2972 
Q 2475 2972 2870 2558 
Q 3266 2144 3266 1488 
Q 3266 1056 3080 686 
Q 2894 316 2569 119 
Q 2244 -78 1831 -78 
Q 1128 -78 684 439 
Q 241 956 241 2144 
Q 241 3472 731 4075 
Q 1159 4600 1884 4600 
Q 2425 4600 2770 4297 
Q 3116 3994 3184 3459 
z
M 888 1484 
Q 888 1194 1011 928 
Q 1134 663 1356 523 
Q 1578 384 1822 384 
Q 2178 384 2434 671 
Q 2691 959 2691 1453 
Q 2691 1928 2437 2201 
Q 2184 2475 1800 2475 
Q 1419 2475 1153 2201 
Q 888 1928 888 1484 
z
" transform="scale(0.015625)"/>
       </defs>
       <use xlink:href="#ArialMT-32"/>
       <use xlink:href="#ArialMT-30" transform="translate(55.615234 0)"/>
       <use xlink:href="#ArialMT-32" transform="translate(111.230469 0)"/>
       <use xlink:href="#ArialMT-36" transform="translate(166.845703 0)"/>
      </g>
     </g>
    </g>
    <g id="xtick_8">
     <g id="line2d_8">
      <path d="M 974.276 229.165 
L 974.276 27.177 
" clip-path="url(#p897e5a8866)" style="fill: none; stroke: #cccccc; stroke-width: 0.8; stroke-linecap: round"/>
     </g>
    </g>
    <g id="xtick_9"/>
    <g id="xtick_10"/>
    <g id="xtick_11"/>
    <g id="xtick_12"/>
    <g id="xtick_13"/>
    <g id="xtick_14"/>
    <g id="xtick_15"/>
    <g id="xtick_16"/>
    <g id="xtick_17"/>
    <g id="xtick_18"/>
    <g id="xtick_19"/>
    <g id="xtick_20"/>
    <g id="xtick_21"/>
    <g id="xtick_22"/>
    <g id="xtick_23"/>
    <g id="xtick_24"/>
    <g id="xtick_25"/>
    <g id="xtick_26"/>
   </g>
   <g id="matplotlib.axis_2">
    <g id="ytick_1">
     <g id="line2d_9">
      <path d="M 76.208 176.16885 
L 974.276 176.16885 
" clip-path="url(#p897e5a8866)" style="fill: none; stroke: #cccccc; stroke-width: 0.8; stroke-linecap: round"/>
     </g>
     <g id="text_8">
      <!-- 2000 -->
      <g style="fill: #262626" transform="translate(28.759 182.467725) scale(0.176 -0.176)">
       <use xlink:href="#ArialMT-32"/>
       <use xlink:href="#ArialMT-30" transform="translate(55.615234 0)"/>
       <use xlink:href="#ArialMT-30" transform="translate(111.230469 0)"/>
       <use xlink:href="#ArialMT-30" transform="translate(166.845703 0)"/>
      </g>
     </g>
    </g>
    <g id="ytick_2">
     <g id="line2d_10">
      <path d="M 76.208 105.270992 
L 974.276 105.270992 
" clip-path="url(#p897e5a8866)" style="fill: none; stroke: #cccccc; stroke-width: 0.8; stroke-linecap: round"/>
     </g>
     <g id="text_9">
      <!-- 3000 -->
      <g style="fill: #262626" transform="translate(28.759 111.569867) scale(0.176 -0.176)">
       <use xlink:href="#ArialMT-33"/>
       <use xlink:href="#ArialMT-30" transform="translate(55.615234 0)"/>
       <use xlink:href="#ArialMT-30" transform="translate(111.230469 0)"/>
       <use xlink:href="#ArialMT-30" transform="translate(166.845703 0)"/>
      </g>
     </g>
    </g>
    <g id="ytick_3">
     <g id="line2d_11">
      <path d="M 76.208 34.373133 
L 974.276 34.373133 
" clip-path="url(#p897e5a8866)" style="fill: none; stroke: #cccccc; stroke-width: 0.8; stroke-linecap: round"/>
     </g>
     <g id="text_10">
      <!-- 4000 -->
      <g style="fill: #262626" transform="translate(28.759 40.672008) scale(0.176 -0.176)">
       <use xlink:href="#ArialMT-34"/>
       <use xlink:href="#ArialMT-30" transform="translate(55.615234 0)"/>
       <use xlink:href="#ArialMT-30" transform="translate(111.230469 0)"/>
       <use xlink:href="#ArialMT-30" transform="translate(166.845703 0)"/>
      </g>
     </g>
    </g>
    <g id="text_11">
     <!-- Bcf -->
     <g style="fill: #262626" transform="translate(20.943 142.0415) rotate(-90) scale(0.192 -0.192)">
      <defs>
       <path id="ArialMT-42" d="M 469 0 
L 469 4581 
L 2188 4581 
Q 2713 4581 3030 4442 
Q 3347 4303 3526 4014 
Q 3706 3725 3706 3409 
Q 3706 3116 3547 2856 
Q 3388 2597 3066 2438 
Q 3481 2316 3704 2022 
Q 3928 1728 3928 1328 
Q 3928 1006 3792 729 
Q 3656 453 3456 303 
Q 3256 153 2954 76 
Q 2653 0 2216 0 
L 469 0 
z
M 1075 2656 
L 2066 2656 
Q 2469 2656 2644 2709 
Q 2875 2778 2992 2937 
Q 3109 3097 3109 3338 
Q 3109 3566 3000 3739 
Q 2891 3913 2687 3977 
Q 2484 4041 1991 4041 
L 1075 4041 
L 1075 2656 
z
M 1075 541 
L 2216 541 
Q 2509 541 2628 563 
Q 2838 600 2978 687 
Q 3119 775 3209 942 
Q 3300 1109 3300 1328 
Q 3300 1584 3169 1773 
Q 3038 1963 2805 2039 
Q 2572 2116 2134 2116 
L 1075 2116 
L 1075 541 
z
" transform="scale(0.015625)"/>
       <path id="ArialMT-63" d="M 2588 1216 
L 3141 1144 
Q 3050 572 2676 248 
Q 2303 -75 1759 -75 
Q 1078 -75 664 370 
Q 250 816 250 1647 
Q 250 2184 428 2587 
Q 606 2991 970 3192 
Q 1334 3394 1763 3394 
Q 2303 3394 2647 3120 
Q 2991 2847 3088 2344 
L 2541 2259 
Q 2463 2594 2264 2762 
Q 2066 2931 1784 2931 
Q 1359 2931 1093 2626 
Q 828 2322 828 1663 
Q 828 994 1084 691 
Q 1341 388 1753 388 
Q 2084 388 2306 591 
Q 2528 794 2588 1216 
z
" transform="scale(0.015625)"/>
       <path id="ArialMT-66" d="M 556 0 
L 556 2881 
L 59 2881 
L 59 3319 
L 556 3319 
L 556 3672 
Q 556 4006 616 4169 
Q 697 4388 901 4523 
Q 1106 4659 1475 4659 
Q 1713 4659 2000 4603 
L 1916 4113 
Q 1741 4144 1584 4144 
Q 1328 4144 1222 4034 
Q 1116 3925 1116 3625 
L 1116 3319 
L 1763 3319 
L 1763 2881 
L 1116 2881 
L 1116 0 
L 556 0 
z
" transform="scale(0.015625)"/>
      </defs>
      <use xlink:href="#ArialMT-42"/>
      <use xlink:href="#ArialMT-63" transform="translate(66.699219 0)"/>
      <use xlink:href="#ArialMT-66" transform="translate(116.699219 0)"/>
     </g>
    </g>
   </g>
   <g id="line2d_12">
    <path d="M 76.208 94.778108 
L 78.979815 102.505975 
L 81.75163 109.028578 
L 84.523444 123.279048 
L 87.295259 132.992054 
L 90.067074 141.145308 
L 92.838889 151.850885 
L 95.610704 161.989279 
L 98.382519 169.717145 
L 101.154333 173.120243 
L 103.926148 173.758323 
L 106.697963 175.814361 
L 109.469778 177.16142 
L 112.241593 174.467302 
L 115.013407 169.291758 
L 117.785222 166.24315 
L 120.557037 161.2803 
L 123.328852 153.552433 
L 126.100667 146.249954 
L 128.872481 140.507227 
L 131.644296 132.779361 
L 134.416111 125.547779 
L 137.187926 118.954278 
L 139.959741 112.92796 
L 142.731556 104.420217 
L 145.50337 99.811856 
L 148.275185 95.841576 
L 151.047 92.651173 
L 153.818815 90.027952 
L 156.59063 88.184608 
L 159.362444 85.844978 
L 162.134259 81.732902 
L 167.677889 75.493891 
L 170.449704 73.012466 
L 173.221519 68.049616 
L 175.993333 61.739706 
L 178.765148 57.060448 
L 184.308778 46.354871 
L 187.080593 43.093569 
L 189.852407 39.619574 
L 192.624222 37.563536 
L 195.396037 40.115859 
L 198.167852 39.548676 
L 200.939667 37.350843 
L 203.711481 38.627004 
L 206.483296 38.697902 
L 209.255111 45.149607 
L 212.026926 53.799146 
L 214.798741 64.575621 
L 217.570556 72.657976 
L 223.114185 91.375011 
L 225.886 104.632911 
L 228.657815 113.707837 
L 231.42963 127.320226 
L 234.201444 139.44376 
L 236.973259 156.246552 
L 239.745074 180.210028 
L 242.516889 187.158019 
L 245.288704 190.844707 
L 248.060519 191.624584 
L 250.832333 193.893315 
L 253.604148 192.900745 
L 256.375963 191.482788 
L 259.147778 187.158019 
L 261.919593 184.4639 
L 264.691407 183.400432 
L 267.463222 179.146561 
L 273.006852 169.079065 
L 275.778667 160.925811 
L 281.322296 147.02983 
L 284.094111 145.895465 
L 286.865926 141.996082 
L 289.637741 136.607845 
L 292.409556 135.473479 
L 295.18137 131.574097 
L 297.953185 128.100102 
L 300.725 125.547779 
L 303.496815 124.626107 
L 306.26863 121.152112 
L 309.040444 117.89081 
L 311.812259 115.834773 
L 314.584074 114.416815 
L 317.355889 110.730127 
L 320.127704 104.845604 
L 322.899519 99.457367 
L 325.671333 93.218356 
L 328.443148 84.852408 
L 331.214963 79.109682 
L 333.986778 72.587079 
L 336.758593 66.418965 
L 339.530407 61.9524 
L 342.302222 61.456115 
L 345.074037 59.61277 
L 347.845852 61.101625 
L 353.389481 69.467573 
L 356.161296 75.706584 
L 358.933111 79.605967 
L 361.704926 89.248075 
L 364.476741 91.445909 
L 367.248556 104.136626 
L 370.02037 118.741585 
L 372.792185 134.268216 
L 375.564 153.268842 
L 378.335815 169.008167 
L 381.10763 182.47876 
L 383.879444 191.624584 
L 386.651259 201.479386 
L 389.423074 210.270721 
L 392.194889 215.871651 
L 394.966704 219.487442 
L 397.738519 217.644098 
L 400.510333 219.983727 
L 403.282148 218.920259 
L 406.053963 215.162673 
L 408.825778 212.326759 
L 414.369407 201.479386 
L 419.913037 189.001363 
L 422.684852 183.187739 
L 425.456667 175.956157 
L 428.228481 169.433554 
L 431.000296 164.187112 
L 433.772111 158.373488 
L 439.315741 150.007541 
L 442.087556 147.738809 
L 444.85937 146.675341 
L 447.631185 143.768529 
L 450.403 140.649023 
L 453.174815 139.372862 
L 458.718444 130.794221 
L 461.490259 126.965736 
L 464.262074 121.506601 
L 469.805704 106.901642 
L 475.349333 88.893586 
L 478.121148 81.023924 
L 480.892963 77.337235 
L 483.664778 69.751164 
L 486.436593 64.150233 
L 489.208407 59.61277 
L 494.752037 71.027326 
L 497.523852 72.516181 
L 500.295667 76.061074 
L 503.067481 82.229187 
L 508.611111 112.998858 
L 511.382926 112.218982 
L 514.154741 118.032606 
L 516.926556 124.129822 
L 519.69837 134.835399 
L 522.470185 150.220234 
L 525.242 157.31002 
L 528.013815 162.343768 
L 533.557444 174.041915 
L 536.329259 178.153991 
L 539.101074 183.258636 
L 541.872889 186.590836 
L 544.644704 188.221486 
L 547.416519 186.44904 
L 550.188333 181.131701 
L 552.960148 175.53077 
L 555.731963 171.702285 
L 558.503778 166.172252 
L 564.047407 152.34717 
L 566.819222 144.548405 
L 569.591037 137.175028 
L 572.362852 131.219608 
L 575.134667 124.484311 
L 580.678296 113.707837 
L 583.450111 110.233842 
L 586.221926 107.327029 
L 588.993741 106.192664 
L 591.765556 105.200094 
L 594.53737 103.144056 
L 597.309185 100.662631 
L 600.081 99.386469 
L 605.62463 94.778108 
L 608.396444 90.736931 
L 611.168259 86.199468 
L 613.940074 79.81866 
L 619.483704 67.766024 
L 622.255519 60.888932 
L 625.027333 55.64249 
L 627.799148 50.041559 
L 630.570963 50.466947 
L 633.342778 46.213075 
L 636.114593 46.70936 
L 638.886407 46.000382 
L 641.658222 54.295431 
L 644.430037 58.194813 
L 649.973667 70.531041 
L 652.745481 71.523611 
L 655.517296 81.449311 
L 658.289111 92.367581 
L 661.060926 115.480283 
L 663.832741 129.447161 
L 666.604556 134.764501 
L 669.37637 138.592985 
L 672.148185 142.846857 
L 674.92 149.653051 
L 677.691815 152.488966 
L 680.46363 153.127046 
L 683.235444 152.630761 
L 688.779074 157.806305 
L 691.550889 156.104756 
L 694.322704 152.559863 
L 697.094519 146.03726 
L 699.866333 141.854287 
L 702.638148 135.827969 
L 705.409963 130.794221 
L 708.181778 125.19329 
L 710.953593 119.166972 
L 713.725407 112.360777 
L 719.269037 102.080588 
L 722.040852 98.03941 
L 724.812667 95.770678 
L 727.584481 91.162318 
L 730.356296 90.453339 
L 733.128111 88.893586 
L 735.899926 87.617425 
L 738.671741 86.12857 
L 741.443556 86.553957 
L 746.987185 81.591107 
L 749.759 80.669435 
L 752.530815 77.83352 
L 755.30263 73.721444 
L 758.074444 70.318347 
L 760.846259 66.418965 
L 763.618074 60.60534 
L 769.161704 49.616172 
L 771.933519 44.015241 
L 774.705333 39.265085 
L 777.477148 36.358273 
L 783.020778 36.712762 
L 785.792593 38.839698 
L 788.564407 52.310291 
L 791.336222 61.172523 
L 794.108037 67.766024 
L 796.879852 75.990176 
L 799.651667 78.82609 
L 802.423481 97.117738 
L 805.195296 112.92796 
L 807.967111 135.686173 
L 810.738926 148.0224 
L 813.510741 155.112186 
L 816.282556 169.008167 
L 819.05437 187.512508 
L 821.826185 193.184337 
L 824.598 197.580004 
L 827.369815 196.941923 
L 830.14163 194.318702 
L 832.913444 192.262664 
L 835.685259 188.221486 
L 838.457074 187.087121 
L 841.228889 180.848109 
L 849.544333 158.089896 
L 852.316148 149.582153 
L 855.087963 142.42147 
L 857.859778 133.771931 
L 860.631593 126.044064 
L 866.175222 112.502573 
L 871.718852 104.845604 
L 874.490667 101.584303 
L 877.262481 99.953652 
L 880.034296 96.550555 
L 882.806111 96.05427 
L 885.577926 92.08399 
L 888.349741 91.162318 
L 891.121556 89.886156 
L 893.89337 85.986774 
L 896.665185 80.953026 
L 899.437 74.572219 
L 902.208815 69.254879 
L 904.98063 65.497293 
L 910.524259 54.153635 
L 913.296074 47.985522 
L 916.067889 42.73908 
L 918.839704 40.399451 
L 921.611519 37.209047 
L 924.383333 38.201617 
L 929.926963 39.832268 
L 932.698778 52.381189 
L 938.242407 75.990176 
L 941.014222 78.684294 
L 943.786037 87.12114 
L 946.557852 92.154888 
L 949.329667 100.662631 
L 952.101481 117.819913 
L 954.873296 143.343142 
L 957.645111 160.996709 
L 960.416926 171.206 
L 963.188741 174.892689 
L 965.960556 184.251206 
L 968.73237 186.945325 
L 971.504185 184.4639 
L 974.276 188.292384 
L 974.276 188.292384 
" clip-path="url(#p897e5a8866)" style="fill: none; stroke: #2ca02c; stroke-opacity: 0.5; stroke-width: 1.2; stroke-linecap: round"/>
   </g>
   <g id="line2d_13">
    <path d="M 198.167852 229.165 
L 198.167852 27.177 
" clip-path="url(#p897e5a8866)" style="fill: none; stroke: #ff0000; stroke-opacity: 0.4; stroke-width: 0.8; stroke-linecap: round"/>
   </g>
   <g id="line2d_14">
    <path d="M 239.745074 229.165 
L 239.745074 27.177 
" clip-path="url(#p897e5a8866)" style="fill: none; stroke: #ff0000; stroke-opacity: 0.4; stroke-width: 0.8; stroke-linecap: round"/>
   </g>
   <g id="line2d_15">
    <path d="M 425.456667 229.165 
L 425.456667 27.177 
" clip-path="url(#p897e5a8866)" style="fill: none; stroke: #ff0000; stroke-opacity: 0.4; stroke-width: 0.8; stroke-linecap: round"/>
   </g>
   <g id="line2d_16">
    <path d="M 486.436593 229.165 
L 486.436593 27.177 
" clip-path="url(#p897e5a8866)" style="fill: none; stroke: #ff0000; stroke-opacity: 0.4; stroke-width: 0.8; stroke-linecap: round"/>
   </g>
   <g id="line2d_17">
    <path d="M 946.557852 229.165 
L 946.557852 27.177 
" clip-path="url(#p897e5a8866)" style="fill: none; stroke: #ff0000; stroke-opacity: 0.4; stroke-width: 0.8; stroke-linecap: round"/>
   </g>
   <g id="line2d_18">
    <path d="M 968.73237 229.165 
L 968.73237 27.177 
" clip-path="url(#p897e5a8866)" style="fill: none; stroke: #ff0000; stroke-opacity: 0.4; stroke-width: 0.8; stroke-linecap: round"/>
   </g>
   <g id="patch_3">
    <path d="M 76.208 229.165 
L 76.208 27.177 
" style="fill: none; stroke: #cccccc; stroke-linejoin: miter; stroke-linecap: square"/>
   </g>
   <g id="patch_4">
    <path d="M 974.276 229.165 
L 974.276 27.177 
" style="fill: none; stroke: #cccccc; stroke-linejoin: miter; stroke-linecap: square"/>
   </g>
   <g id="patch_5">
    <path d="M 76.208 229.165 
L 974.276 229.165 
" style="fill: none; stroke: #cccccc; stroke-linejoin: miter; stroke-linecap: square"/>
   </g>
   <g id="patch_6">
    <path d="M 76.208 27.177 
L 974.276 27.177 
" style="fill: none; stroke: #cccccc; stroke-linejoin: miter; stroke-linecap: square"/>
   </g>
   <g id="text_12">
    <!-- COVID demand crash -->
    <g style="fill: #ff0000; opacity: 0.7" transform="translate(196.379102 138.469838) rotate(-90) scale(0.09 -0.09)">
     <defs>
      <path id="ArialMT-43" d="M 3763 1606 
L 4369 1453 
Q 4178 706 3683 314 
Q 3188 -78 2472 -78 
Q 1731 -78 1267 223 
Q 803 525 561 1097 
Q 319 1669 319 2325 
Q 319 3041 592 3573 
Q 866 4106 1370 4382 
Q 1875 4659 2481 4659 
Q 3169 4659 3637 4309 
Q 4106 3959 4291 3325 
L 3694 3184 
Q 3534 3684 3231 3912 
Q 2928 4141 2469 4141 
Q 1941 4141 1586 3887 
Q 1231 3634 1087 3207 
Q 944 2781 944 2328 
Q 944 1744 1114 1308 
Q 1284 872 1643 656 
Q 2003 441 2422 441 
Q 2931 441 3284 734 
Q 3638 1028 3763 1606 
z
" transform="scale(0.015625)"/>
      <path id="ArialMT-4f" d="M 309 2231 
Q 309 3372 921 4017 
Q 1534 4663 2503 4663 
Q 3138 4663 3647 4359 
Q 4156 4056 4423 3514 
Q 4691 2972 4691 2284 
Q 4691 1588 4409 1038 
Q 4128 488 3612 205 
Q 3097 -78 2500 -78 
Q 1853 -78 1343 234 
Q 834 547 571 1087 
Q 309 1628 309 2231 
z
M 934 2222 
Q 934 1394 1379 917 
Q 1825 441 2497 441 
Q 3181 441 3623 922 
Q 4066 1403 4066 2288 
Q 4066 2847 3877 3264 
Q 3688 3681 3323 3911 
Q 2959 4141 2506 4141 
Q 1863 4141 1398 3698 
Q 934 3256 934 2222 
z
" transform="scale(0.015625)"/>
      <path id="ArialMT-56" d="M 1803 0 
L 28 4581 
L 684 4581 
L 1875 1253 
Q 2019 853 2116 503 
Q 2222 878 2363 1253 
L 3600 4581 
L 4219 4581 
L 2425 0 
L 1803 0 
z
" transform="scale(0.015625)"/>
      <path id="ArialMT-49" d="M 597 0 
L 597 4581 
L 1203 4581 
L 1203 0 
L 597 0 
z
" transform="scale(0.015625)"/>
      <path id="ArialMT-44" d="M 494 0 
L 494 4581 
L 2072 4581 
Q 2606 4581 2888 4516 
Q 3281 4425 3559 4188 
Q 3922 3881 4101 3404 
Q 4281 2928 4281 2316 
Q 4281 1794 4159 1391 
Q 4038 988 3847 723 
Q 3656 459 3429 307 
Q 3203 156 2883 78 
Q 2563 0 2147 0 
L 494 0 
z
M 1100 541 
L 2078 541 
Q 2531 541 2789 625 
Q 3047 709 3200 863 
Q 3416 1078 3536 1442 
Q 3656 1806 3656 2325 
Q 3656 3044 3420 3430 
Q 3184 3816 2847 3947 
Q 2603 4041 2063 4041 
L 1100 4041 
L 1100 541 
z
" transform="scale(0.015625)"/>
      <path id="ArialMT-20" transform="scale(0.015625)"/>
      <path id="ArialMT-64" d="M 2575 0 
L 2575 419 
Q 2259 -75 1647 -75 
Q 1250 -75 917 144 
Q 584 363 401 755 
Q 219 1147 219 1656 
Q 219 2153 384 2558 
Q 550 2963 881 3178 
Q 1213 3394 1622 3394 
Q 1922 3394 2156 3267 
Q 2391 3141 2538 2938 
L 2538 4581 
L 3097 4581 
L 3097 0 
L 2575 0 
z
M 797 1656 
Q 797 1019 1065 703 
Q 1334 388 1700 388 
Q 2069 388 2326 689 
Q 2584 991 2584 1609 
Q 2584 2291 2321 2609 
Q 2059 2928 1675 2928 
Q 1300 2928 1048 2622 
Q 797 2316 797 1656 
z
" transform="scale(0.015625)"/>
      <path id="ArialMT-65" d="M 2694 1069 
L 3275 997 
Q 3138 488 2766 206 
Q 2394 -75 1816 -75 
Q 1088 -75 661 373 
Q 234 822 234 1631 
Q 234 2469 665 2931 
Q 1097 3394 1784 3394 
Q 2450 3394 2872 2941 
Q 3294 2488 3294 1666 
Q 3294 1616 3291 1516 
L 816 1516 
Q 847 969 1125 678 
Q 1403 388 1819 388 
Q 2128 388 2347 550 
Q 2566 713 2694 1069 
z
M 847 1978 
L 2700 1978 
Q 2663 2397 2488 2606 
Q 2219 2931 1791 2931 
Q 1403 2931 1139 2672 
Q 875 2413 847 1978 
z
" transform="scale(0.015625)"/>
      <path id="ArialMT-6d" d="M 422 0 
L 422 3319 
L 925 3319 
L 925 2853 
Q 1081 3097 1340 3245 
Q 1600 3394 1931 3394 
Q 2300 3394 2536 3241 
Q 2772 3088 2869 2813 
Q 3263 3394 3894 3394 
Q 4388 3394 4653 3120 
Q 4919 2847 4919 2278 
L 4919 0 
L 4359 0 
L 4359 2091 
Q 4359 2428 4304 2576 
Q 4250 2725 4106 2815 
Q 3963 2906 3769 2906 
Q 3419 2906 3187 2673 
Q 2956 2441 2956 1928 
L 2956 0 
L 2394 0 
L 2394 2156 
Q 2394 2531 2256 2718 
Q 2119 2906 1806 2906 
Q 1569 2906 1367 2781 
Q 1166 2656 1075 2415 
Q 984 2175 984 1722 
L 984 0 
L 422 0 
z
" transform="scale(0.015625)"/>
      <path id="ArialMT-61" d="M 2588 409 
Q 2275 144 1986 34 
Q 1697 -75 1366 -75 
Q 819 -75 525 192 
Q 231 459 231 875 
Q 231 1119 342 1320 
Q 453 1522 633 1644 
Q 813 1766 1038 1828 
Q 1203 1872 1538 1913 
Q 2219 1994 2541 2106 
Q 2544 2222 2544 2253 
Q 2544 2597 2384 2738 
Q 2169 2928 1744 2928 
Q 1347 2928 1158 2789 
Q 969 2650 878 2297 
L 328 2372 
Q 403 2725 575 2942 
Q 747 3159 1072 3276 
Q 1397 3394 1825 3394 
Q 2250 3394 2515 3294 
Q 2781 3194 2906 3042 
Q 3031 2891 3081 2659 
Q 3109 2516 3109 2141 
L 3109 1391 
Q 3109 606 3145 398 
Q 3181 191 3288 0 
L 2700 0 
Q 2613 175 2588 409 
z
M 2541 1666 
Q 2234 1541 1622 1453 
Q 1275 1403 1131 1340 
Q 988 1278 909 1158 
Q 831 1038 831 891 
Q 831 666 1001 516 
Q 1172 366 1500 366 
Q 1825 366 2078 508 
Q 2331 650 2450 897 
Q 2541 1088 2541 1459 
L 2541 1666 
z
" transform="scale(0.015625)"/>
      <path id="ArialMT-6e" d="M 422 0 
L 422 3319 
L 928 3319 
L 928 2847 
Q 1294 3394 1984 3394 
Q 2284 3394 2536 3286 
Q 2788 3178 2913 3003 
Q 3038 2828 3088 2588 
Q 3119 2431 3119 2041 
L 3119 0 
L 2556 0 
L 2556 2019 
Q 2556 2363 2490 2533 
Q 2425 2703 2258 2804 
Q 2091 2906 1866 2906 
Q 1506 2906 1245 2678 
Q 984 2450 984 1813 
L 984 0 
L 422 0 
z
" transform="scale(0.015625)"/>
      <path id="ArialMT-72" d="M 416 0 
L 416 3319 
L 922 3319 
L 922 2816 
Q 1116 3169 1280 3281 
Q 1444 3394 1641 3394 
Q 1925 3394 2219 3213 
L 2025 2691 
Q 1819 2813 1613 2813 
Q 1428 2813 1281 2702 
Q 1134 2591 1072 2394 
Q 978 2094 978 1738 
L 978 0 
L 416 0 
z
" transform="scale(0.015625)"/>
      <path id="ArialMT-73" d="M 197 991 
L 753 1078 
Q 800 744 1014 566 
Q 1228 388 1613 388 
Q 2000 388 2187 545 
Q 2375 703 2375 916 
Q 2375 1106 2209 1216 
Q 2094 1291 1634 1406 
Q 1016 1563 777 1677 
Q 538 1791 414 1992 
Q 291 2194 291 2438 
Q 291 2659 392 2848 
Q 494 3038 669 3163 
Q 800 3259 1026 3326 
Q 1253 3394 1513 3394 
Q 1903 3394 2198 3281 
Q 2494 3169 2634 2976 
Q 2775 2784 2828 2463 
L 2278 2388 
Q 2241 2644 2061 2787 
Q 1881 2931 1553 2931 
Q 1166 2931 1000 2803 
Q 834 2675 834 2503 
Q 834 2394 903 2306 
Q 972 2216 1119 2156 
Q 1203 2125 1616 2013 
Q 2213 1853 2448 1751 
Q 2684 1650 2818 1456 
Q 2953 1263 2953 975 
Q 2953 694 2789 445 
Q 2625 197 2315 61 
Q 2006 -75 1616 -75 
Q 969 -75 630 194 
Q 291 463 197 991 
z
" transform="scale(0.015625)"/>
      <path id="ArialMT-68" d="M 422 0 
L 422 4581 
L 984 4581 
L 984 2938 
Q 1378 3394 1978 3394 
Q 2347 3394 2619 3248 
Q 2891 3103 3008 2847 
Q 3125 2591 3125 2103 
L 3125 0 
L 2563 0 
L 2563 2103 
Q 2563 2525 2380 2717 
Q 2197 2909 1863 2909 
Q 1613 2909 1392 2779 
Q 1172 2650 1078 2428 
Q 984 2206 984 1816 
L 984 0 
L 422 0 
z
" transform="scale(0.015625)"/>
     </defs>
     <use xlink:href="#ArialMT-43"/>
     <use xlink:href="#ArialMT-4f" transform="translate(72.216797 0)"/>
     <use xlink:href="#ArialMT-56" transform="translate(150 0)"/>
     <use xlink:href="#ArialMT-49" transform="translate(216.699219 0)"/>
     <use xlink:href="#ArialMT-44" transform="translate(244.482422 0)"/>
     <use xlink:href="#ArialMT-20" transform="translate(316.699219 0)"/>
     <use xlink:href="#ArialMT-64" transform="translate(344.482422 0)"/>
     <use xlink:href="#ArialMT-65" transform="translate(400.097656 0)"/>
     <use xlink:href="#ArialMT-6d" transform="translate(455.712891 0)"/>
     <use xlink:href="#ArialMT-61" transform="translate(539.013672 0)"/>
     <use xlink:href="#ArialMT-6e" transform="translate(594.628906 0)"/>
     <use xlink:href="#ArialMT-64" transform="translate(650.244141 0)"/>
     <use xlink:href="#ArialMT-20" transform="translate(705.859375 0)"/>
     <use xlink:href="#ArialMT-63" transform="translate(733.642578 0)"/>
     <use xlink:href="#ArialMT-72" transform="translate(783.642578 0)"/>
     <use xlink:href="#ArialMT-61" transform="translate(816.943359 0)"/>
     <use xlink:href="#ArialMT-73" transform="translate(872.558594 0)"/>
     <use xlink:href="#ArialMT-68" transform="translate(922.558594 0)"/>
    </g>
   </g>
   <g id="text_13">
    <!-- Uri -->
    <g style="fill: #ff0000; opacity: 0.7" transform="translate(237.956324 61.934681) rotate(-90) scale(0.09 -0.09)">
     <defs>
      <path id="ArialMT-55" d="M 3500 4581 
L 4106 4581 
L 4106 1934 
Q 4106 1244 3950 837 
Q 3794 431 3386 176 
Q 2978 -78 2316 -78 
Q 1672 -78 1262 144 
Q 853 366 678 786 
Q 503 1206 503 1934 
L 503 4581 
L 1109 4581 
L 1109 1938 
Q 1109 1341 1220 1058 
Q 1331 775 1601 622 
Q 1872 469 2263 469 
Q 2931 469 3215 772 
Q 3500 1075 3500 1938 
L 3500 4581 
z
" transform="scale(0.015625)"/>
      <path id="ArialMT-69" d="M 425 3934 
L 425 4581 
L 988 4581 
L 988 3934 
L 425 3934 
z
M 425 0 
L 425 3319 
L 988 3319 
L 988 0 
L 425 0 
z
" transform="scale(0.015625)"/>
     </defs>
     <use xlink:href="#ArialMT-55"/>
     <use xlink:href="#ArialMT-72" transform="translate(72.216797 0)"/>
     <use xlink:href="#ArialMT-69" transform="translate(105.517578 0)"/>
    </g>
   </g>
   <g id="text_14">
    <!-- Freeport LNG outage -->
    <g style="fill: #ff0000; opacity: 0.7" transform="translate(423.562448 135.478744) rotate(-90) scale(0.09 -0.09)">
     <defs>
      <path id="ArialMT-46" d="M 525 0 
L 525 4581 
L 3616 4581 
L 3616 4041 
L 1131 4041 
L 1131 2622 
L 3281 2622 
L 3281 2081 
L 1131 2081 
L 1131 0 
L 525 0 
z
" transform="scale(0.015625)"/>
      <path id="ArialMT-70" d="M 422 -1272 
L 422 3319 
L 934 3319 
L 934 2888 
Q 1116 3141 1344 3267 
Q 1572 3394 1897 3394 
Q 2322 3394 2647 3175 
Q 2972 2956 3137 2557 
Q 3303 2159 3303 1684 
Q 3303 1175 3120 767 
Q 2938 359 2589 142 
Q 2241 -75 1856 -75 
Q 1575 -75 1351 44 
Q 1128 163 984 344 
L 984 -1272 
L 422 -1272 
z
M 931 1641 
Q 931 1000 1190 694 
Q 1450 388 1819 388 
Q 2194 388 2461 705 
Q 2728 1022 2728 1688 
Q 2728 2322 2467 2637 
Q 2206 2953 1844 2953 
Q 1484 2953 1207 2617 
Q 931 2281 931 1641 
z
" transform="scale(0.015625)"/>
      <path id="ArialMT-6f" d="M 213 1659 
Q 213 2581 725 3025 
Q 1153 3394 1769 3394 
Q 2453 3394 2887 2945 
Q 3322 2497 3322 1706 
Q 3322 1066 3130 698 
Q 2938 331 2570 128 
Q 2203 -75 1769 -75 
Q 1072 -75 642 372 
Q 213 819 213 1659 
z
M 791 1659 
Q 791 1022 1069 705 
Q 1347 388 1769 388 
Q 2188 388 2466 706 
Q 2744 1025 2744 1678 
Q 2744 2294 2464 2611 
Q 2184 2928 1769 2928 
Q 1347 2928 1069 2612 
Q 791 2297 791 1659 
z
" transform="scale(0.015625)"/>
      <path id="ArialMT-74" d="M 1650 503 
L 1731 6 
Q 1494 -44 1306 -44 
Q 1000 -44 831 53 
Q 663 150 594 308 
Q 525 466 525 972 
L 525 2881 
L 113 2881 
L 113 3319 
L 525 3319 
L 525 4141 
L 1084 4478 
L 1084 3319 
L 1650 3319 
L 1650 2881 
L 1084 2881 
L 1084 941 
Q 1084 700 1114 631 
Q 1144 563 1211 522 
Q 1278 481 1403 481 
Q 1497 481 1650 503 
z
" transform="scale(0.015625)"/>
      <path id="ArialMT-4c" d="M 469 0 
L 469 4581 
L 1075 4581 
L 1075 541 
L 3331 541 
L 3331 0 
L 469 0 
z
" transform="scale(0.015625)"/>
      <path id="ArialMT-4e" d="M 488 0 
L 488 4581 
L 1109 4581 
L 3516 984 
L 3516 4581 
L 4097 4581 
L 4097 0 
L 3475 0 
L 1069 3600 
L 1069 0 
L 488 0 
z
" transform="scale(0.015625)"/>
      <path id="ArialMT-47" d="M 2638 1797 
L 2638 2334 
L 4578 2338 
L 4578 638 
Q 4131 281 3656 101 
Q 3181 -78 2681 -78 
Q 2006 -78 1454 211 
Q 903 500 622 1047 
Q 341 1594 341 2269 
Q 341 2938 620 3517 
Q 900 4097 1425 4378 
Q 1950 4659 2634 4659 
Q 3131 4659 3532 4498 
Q 3934 4338 4162 4050 
Q 4391 3763 4509 3300 
L 3963 3150 
Q 3859 3500 3706 3700 
Q 3553 3900 3268 4020 
Q 2984 4141 2638 4141 
Q 2222 4141 1919 4014 
Q 1616 3888 1430 3681 
Q 1244 3475 1141 3228 
Q 966 2803 966 2306 
Q 966 1694 1177 1281 
Q 1388 869 1791 669 
Q 2194 469 2647 469 
Q 3041 469 3416 620 
Q 3791 772 3984 944 
L 3984 1797 
L 2638 1797 
z
" transform="scale(0.015625)"/>
      <path id="ArialMT-75" d="M 2597 0 
L 2597 488 
Q 2209 -75 1544 -75 
Q 1250 -75 995 37 
Q 741 150 617 320 
Q 494 491 444 738 
Q 409 903 409 1263 
L 409 3319 
L 972 3319 
L 972 1478 
Q 972 1038 1006 884 
Q 1059 663 1231 536 
Q 1403 409 1656 409 
Q 1909 409 2131 539 
Q 2353 669 2445 892 
Q 2538 1116 2538 1541 
L 2538 3319 
L 3100 3319 
L 3100 0 
L 2597 0 
z
" transform="scale(0.015625)"/>
      <path id="ArialMT-67" d="M 319 -275 
L 866 -356 
Q 900 -609 1056 -725 
Q 1266 -881 1628 -881 
Q 2019 -881 2231 -725 
Q 2444 -569 2519 -288 
Q 2563 -116 2559 434 
Q 2191 0 1641 0 
Q 956 0 581 494 
Q 206 988 206 1678 
Q 206 2153 378 2554 
Q 550 2956 876 3175 
Q 1203 3394 1644 3394 
Q 2231 3394 2613 2919 
L 2613 3319 
L 3131 3319 
L 3131 450 
Q 3131 -325 2973 -648 
Q 2816 -972 2473 -1159 
Q 2131 -1347 1631 -1347 
Q 1038 -1347 672 -1080 
Q 306 -813 319 -275 
z
M 784 1719 
Q 784 1066 1043 766 
Q 1303 466 1694 466 
Q 2081 466 2343 764 
Q 2606 1063 2606 1700 
Q 2606 2309 2336 2618 
Q 2066 2928 1684 2928 
Q 1309 2928 1046 2623 
Q 784 2319 784 1719 
z
" transform="scale(0.015625)"/>
     </defs>
     <use xlink:href="#ArialMT-46"/>
     <use xlink:href="#ArialMT-72" transform="translate(61.083984 0)"/>
     <use xlink:href="#ArialMT-65" transform="translate(94.384766 0)"/>
     <use xlink:href="#ArialMT-65" transform="translate(150 0)"/>
     <use xlink:href="#ArialMT-70" transform="translate(205.615234 0)"/>
     <use xlink:href="#ArialMT-6f" transform="translate(261.230469 0)"/>
     <use xlink:href="#ArialMT-72" transform="translate(316.845703 0)"/>
     <use xlink:href="#ArialMT-74" transform="translate(350.146484 0)"/>
     <use xlink:href="#ArialMT-20" transform="translate(377.929688 0)"/>
     <use xlink:href="#ArialMT-4c" transform="translate(405.712891 0)"/>
     <use xlink:href="#ArialMT-4e" transform="translate(461.328125 0)"/>
     <use xlink:href="#ArialMT-47" transform="translate(533.544922 0)"/>
     <use xlink:href="#ArialMT-20" transform="translate(611.328125 0)"/>
     <use xlink:href="#ArialMT-6f" transform="translate(639.111328 0)"/>
     <use xlink:href="#ArialMT-75" transform="translate(694.726562 0)"/>
     <use xlink:href="#ArialMT-74" transform="translate(750.341797 0)"/>
     <use xlink:href="#ArialMT-61" transform="translate(778.125 0)"/>
     <use xlink:href="#ArialMT-67" transform="translate(833.740234 0)"/>
     <use xlink:href="#ArialMT-65" transform="translate(889.355469 0)"/>
    </g>
   </g>
   <g id="text_15">
    <!-- Ukraine tight -->
    <g style="fill: #ff0000; opacity: 0.7" transform="translate(484.542374 100.959525) rotate(-90) scale(0.09 -0.09)">
     <defs>
      <path id="ArialMT-6b" d="M 425 0 
L 425 4581 
L 988 4581 
L 988 1969 
L 2319 3319 
L 3047 3319 
L 1778 2088 
L 3175 0 
L 2481 0 
L 1384 1697 
L 988 1316 
L 988 0 
L 425 0 
z
" transform="scale(0.015625)"/>
     </defs>
     <use xlink:href="#ArialMT-55"/>
     <use xlink:href="#ArialMT-6b" transform="translate(72.216797 0)"/>
     <use xlink:href="#ArialMT-72" transform="translate(122.216797 0)"/>
     <use xlink:href="#ArialMT-61" transform="translate(155.517578 0)"/>
     <use xlink:href="#ArialMT-69" transform="translate(211.132812 0)"/>
     <use xlink:href="#ArialMT-6e" transform="translate(233.349609 0)"/>
     <use xlink:href="#ArialMT-65" transform="translate(288.964844 0)"/>
     <use xlink:href="#ArialMT-20" transform="translate(344.580078 0)"/>
     <use xlink:href="#ArialMT-74" transform="translate(372.363281 0)"/>
     <use xlink:href="#ArialMT-69" transform="translate(400.146484 0)"/>
     <use xlink:href="#ArialMT-67" transform="translate(422.363281 0)"/>
     <use xlink:href="#ArialMT-68" transform="translate(477.978516 0)"/>
     <use xlink:href="#ArialMT-74" transform="translate(533.59375 0)"/>
    </g>
   </g>
   <g id="text_16">
    <!-- US invade Venezuela -->
    <g style="fill: #ff0000; opacity: 0.7" transform="translate(944.769102 136.498275) rotate(-90) scale(0.09 -0.09)">
     <defs>
      <path id="ArialMT-53" d="M 288 1472 
L 859 1522 
Q 900 1178 1048 958 
Q 1197 738 1509 602 
Q 1822 466 2213 466 
Q 2559 466 2825 569 
Q 3091 672 3220 851 
Q 3350 1031 3350 1244 
Q 3350 1459 3225 1620 
Q 3100 1781 2813 1891 
Q 2628 1963 1997 2114 
Q 1366 2266 1113 2400 
Q 784 2572 623 2826 
Q 463 3081 463 3397 
Q 463 3744 659 4045 
Q 856 4347 1234 4503 
Q 1613 4659 2075 4659 
Q 2584 4659 2973 4495 
Q 3363 4331 3572 4012 
Q 3781 3694 3797 3291 
L 3216 3247 
Q 3169 3681 2898 3903 
Q 2628 4125 2100 4125 
Q 1550 4125 1298 3923 
Q 1047 3722 1047 3438 
Q 1047 3191 1225 3031 
Q 1400 2872 2139 2705 
Q 2878 2538 3153 2413 
Q 3553 2228 3743 1945 
Q 3934 1663 3934 1294 
Q 3934 928 3725 604 
Q 3516 281 3123 101 
Q 2731 -78 2241 -78 
Q 1619 -78 1198 103 
Q 778 284 539 648 
Q 300 1013 288 1472 
z
" transform="scale(0.015625)"/>
      <path id="ArialMT-76" d="M 1344 0 
L 81 3319 
L 675 3319 
L 1388 1331 
Q 1503 1009 1600 663 
Q 1675 925 1809 1294 
L 2547 3319 
L 3125 3319 
L 1869 0 
L 1344 0 
z
" transform="scale(0.015625)"/>
      <path id="ArialMT-7a" d="M 125 0 
L 125 456 
L 2238 2881 
Q 1878 2863 1603 2863 
L 250 2863 
L 250 3319 
L 2963 3319 
L 2963 2947 
L 1166 841 
L 819 456 
Q 1197 484 1528 484 
L 3063 484 
L 3063 0 
L 125 0 
z
" transform="scale(0.015625)"/>
      <path id="ArialMT-6c" d="M 409 0 
L 409 4581 
L 972 4581 
L 972 0 
L 409 0 
z
" transform="scale(0.015625)"/>
     </defs>
     <use xlink:href="#ArialMT-55"/>
     <use xlink:href="#ArialMT-53" transform="translate(72.216797 0)"/>
     <use xlink:href="#ArialMT-20" transform="translate(138.916016 0)"/>
     <use xlink:href="#ArialMT-69" transform="translate(166.699219 0)"/>
     <use xlink:href="#ArialMT-6e" transform="translate(188.916016 0)"/>
     <use xlink:href="#ArialMT-76" transform="translate(244.53125 0)"/>
     <use xlink:href="#ArialMT-61" transform="translate(294.53125 0)"/>
     <use xlink:href="#ArialMT-64" transform="translate(350.146484 0)"/>
     <use xlink:href="#ArialMT-65" transform="translate(405.761719 0)"/>
     <use xlink:href="#ArialMT-20" transform="translate(461.376953 0)"/>
     <use xlink:href="#ArialMT-56" transform="translate(489.160156 0)"/>
     <use xlink:href="#ArialMT-65" transform="translate(550.359375 0)"/>
     <use xlink:href="#ArialMT-6e" transform="translate(605.974609 0)"/>
     <use xlink:href="#ArialMT-65" transform="translate(661.589844 0)"/>
     <use xlink:href="#ArialMT-7a" transform="translate(717.205078 0)"/>
     <use xlink:href="#ArialMT-75" transform="translate(767.205078 0)"/>
     <use xlink:href="#ArialMT-65" transform="translate(822.820312 0)"/>
     <use xlink:href="#ArialMT-6c" transform="translate(878.435547 0)"/>
     <use xlink:href="#ArialMT-61" transform="translate(900.652344 0)"/>
    </g>
   </g>
   <g id="text_17">
    <!-- US invade Iran -->
    <g style="fill: #ff0000; opacity: 0.7" transform="translate(966.94362 109.967963) rotate(-90) scale(0.09 -0.09)">
     <use xlink:href="#ArialMT-55"/>
     <use xlink:href="#ArialMT-53" transform="translate(72.216797 0)"/>
     <use xlink:href="#ArialMT-20" transform="translate(138.916016 0)"/>
     <use xlink:href="#ArialMT-69" transform="translate(166.699219 0)"/>
     <use xlink:href="#ArialMT-6e" transform="translate(188.916016 0)"/>
     <use xlink:href="#ArialMT-76" transform="translate(244.53125 0)"/>
     <use xlink:href="#ArialMT-61" transform="translate(294.53125 0)"/>
     <use xlink:href="#ArialMT-64" transform="translate(350.146484 0)"/>
     <use xlink:href="#ArialMT-65" transform="translate(405.761719 0)"/>
     <use xlink:href="#ArialMT-20" transform="translate(461.376953 0)"/>
     <use xlink:href="#ArialMT-49" transform="translate(489.160156 0)"/>
     <use xlink:href="#ArialMT-72" transform="translate(516.943359 0)"/>
     <use xlink:href="#ArialMT-61" transform="translate(550.244141 0)"/>
     <use xlink:href="#ArialMT-6e" transform="translate(605.859375 0)"/>
    </g>
   </g>
   <g id="text_18">
    <!-- EIA Storage — 2020 to Present -->
    <g style="fill: #262626" transform="translate(391.298 21.177) scale(0.192 -0.192)">
     <defs>
      <path id="ArialMT-45" d="M 506 0 
L 506 4581 
L 3819 4581 
L 3819 4041 
L 1113 4041 
L 1113 2638 
L 3647 2638 
L 3647 2100 
L 1113 2100 
L 1113 541 
L 3925 541 
L 3925 0 
L 506 0 
z
" transform="scale(0.015625)"/>
      <path id="ArialMT-41" d="M -9 0 
L 1750 4581 
L 2403 4581 
L 4278 0 
L 3588 0 
L 3053 1388 
L 1138 1388 
L 634 0 
L -9 0 
z
M 1313 1881 
L 2866 1881 
L 2388 3150 
Q 2169 3728 2063 4100 
Q 1975 3659 1816 3225 
L 1313 1881 
z
" transform="scale(0.015625)"/>
      <path id="ArialMT-2014" d="M 0 1431 
L 0 1884 
L 6400 1884 
L 6400 1431 
L 0 1431 
z
" transform="scale(0.015625)"/>
      <path id="ArialMT-50" d="M 494 0 
L 494 4581 
L 2222 4581 
Q 2678 4581 2919 4538 
Q 3256 4481 3484 4323 
Q 3713 4166 3852 3881 
Q 3991 3597 3991 3256 
Q 3991 2672 3619 2267 
Q 3247 1863 2275 1863 
L 1100 1863 
L 1100 0 
L 494 0 
z
M 1100 2403 
L 2284 2403 
Q 2872 2403 3119 2622 
Q 3366 2841 3366 3238 
Q 3366 3525 3220 3729 
Q 3075 3934 2838 4000 
Q 2684 4041 2272 4041 
L 1100 4041 
L 1100 2403 
z
" transform="scale(0.015625)"/>
     </defs>
     <use xlink:href="#ArialMT-45"/>
     <use xlink:href="#ArialMT-49" transform="translate(66.699219 0)"/>
     <use xlink:href="#ArialMT-41" transform="translate(94.482422 0)"/>
     <use xlink:href="#ArialMT-20" transform="translate(155.681641 0)"/>
     <use xlink:href="#ArialMT-53" transform="translate(183.464844 0)"/>
     <use xlink:href="#ArialMT-74" transform="translate(250.164062 0)"/>
     <use xlink:href="#ArialMT-6f" transform="translate(277.947266 0)"/>
     <use xlink:href="#ArialMT-72" transform="translate(333.5625 0)"/>
     <use xlink:href="#ArialMT-61" transform="translate(366.863281 0)"/>
     <use xlink:href="#ArialMT-67" transform="translate(422.478516 0)"/>
     <use xlink:href="#ArialMT-65" transform="translate(478.09375 0)"/>
     <use xlink:href="#ArialMT-20" transform="translate(533.708984 0)"/>
     <use xlink:href="#ArialMT-2014" transform="translate(561.492188 0)"/>
     <use xlink:href="#ArialMT-20" transform="translate(661.492188 0)"/>
     <use xlink:href="#ArialMT-32" transform="translate(689.275391 0)"/>
     <use xlink:href="#ArialMT-30" transform="translate(744.890625 0)"/>
     <use xlink:href="#ArialMT-32" transform="translate(800.505859 0)"/>
     <use xlink:href="#ArialMT-30" transform="translate(856.121094 0)"/>
     <use xlink:href="#ArialMT-20" transform="translate(911.736328 0)"/>
     <use xlink:href="#ArialMT-74" transform="translate(939.519531 0)"/>
     <use xlink:href="#ArialMT-6f" transform="translate(967.302734 0)"/>
     <use xlink:href="#ArialMT-20" transform="translate(1022.917969 0)"/>
     <use xlink:href="#ArialMT-50" transform="translate(1050.701172 0)"/>
     <use xlink:href="#ArialMT-72" transform="translate(1117.400391 0)"/>
     <use xlink:href="#ArialMT-65" transform="translate(1150.701172 0)"/>
     <use xlink:href="#ArialMT-73" transform="translate(1206.316406 0)"/>
     <use xlink:href="#ArialMT-65" transform="translate(1256.316406 0)"/>
     <use xlink:href="#ArialMT-6e" transform="translate(1311.931641 0)"/>
     <use xlink:href="#ArialMT-74" transform="translate(1367.546875 0)"/>
    </g>
   </g>
   <g id="legend_1">
    <g id="patch_7">
     <path d="M 88.528 66.5735 
L 307.86525 66.5735 
Q 311.38525 66.5735 311.38525 63.0535 
L 311.38525 39.497 
Q 311.38525 35.977 307.86525 35.977 
L 88.528 35.977 
Q 85.008 35.977 85.008 39.497 
L 85.008 63.0535 
Q 85.008 66.5735 88.528 66.5735 
z
" style="fill: #ffffff; opacity: 0.8; stroke: #cccccc; stroke-width: 0.8; stroke-linejoin: miter"/>
    </g>
    <g id="line2d_19">
     <path d="M 92.048 49.66925 
L 109.648 49.66925 
L 127.248 49.66925 
" style="fill: none; stroke: #2ca02c; stroke-opacity: 0.5; stroke-width: 1.2; stroke-linecap: round"/>
    </g>
    <g id="text_19">
     <!-- Weekly storage (Bcf) -->
     <g style="fill: #262626" transform="translate(141.328 55.82925) scale(0.176 -0.176)">
      <defs>
       <path id="ArialMT-57" d="M 1294 0 
L 78 4581 
L 700 4581 
L 1397 1578 
Q 1509 1106 1591 641 
Q 1766 1375 1797 1488 
L 2669 4581 
L 3400 4581 
L 4056 2263 
Q 4303 1400 4413 641 
Q 4500 1075 4641 1638 
L 5359 4581 
L 5969 4581 
L 4713 0 
L 4128 0 
L 3163 3491 
Q 3041 3928 3019 4028 
Q 2947 3713 2884 3491 
L 1913 0 
L 1294 0 
z
" transform="scale(0.015625)"/>
       <path id="ArialMT-79" d="M 397 -1278 
L 334 -750 
Q 519 -800 656 -800 
Q 844 -800 956 -737 
Q 1069 -675 1141 -563 
Q 1194 -478 1313 -144 
Q 1328 -97 1363 -6 
L 103 3319 
L 709 3319 
L 1400 1397 
Q 1534 1031 1641 628 
Q 1738 1016 1872 1384 
L 2581 3319 
L 3144 3319 
L 1881 -56 
Q 1678 -603 1566 -809 
Q 1416 -1088 1222 -1217 
Q 1028 -1347 759 -1347 
Q 597 -1347 397 -1278 
z
" transform="scale(0.015625)"/>
       <path id="ArialMT-28" d="M 1497 -1347 
Q 1031 -759 709 28 
Q 388 816 388 1659 
Q 388 2403 628 3084 
Q 909 3875 1497 4659 
L 1900 4659 
Q 1522 4009 1400 3731 
Q 1209 3300 1100 2831 
Q 966 2247 966 1656 
Q 966 153 1900 -1347 
L 1497 -1347 
z
" transform="scale(0.015625)"/>
       <path id="ArialMT-29" d="M 791 -1347 
L 388 -1347 
Q 1322 153 1322 1656 
Q 1322 2244 1188 2822 
Q 1081 3291 891 3722 
Q 769 4003 388 4659 
L 791 4659 
Q 1378 3875 1659 3084 
Q 1900 2403 1900 1659 
Q 1900 816 1576 28 
Q 1253 -759 791 -1347 
z
" transform="scale(0.015625)"/>
      </defs>
      <use xlink:href="#ArialMT-57"/>
      <use xlink:href="#ArialMT-65" transform="translate(92.634766 0)"/>
      <use xlink:href="#ArialMT-65" transform="translate(148.25 0)"/>
      <use xlink:href="#ArialMT-6b" transform="translate(203.865234 0)"/>
      <use xlink:href="#ArialMT-6c" transform="translate(253.865234 0)"/>
      <use xlink:href="#ArialMT-79" transform="translate(276.082031 0)"/>
      <use xlink:href="#ArialMT-20" transform="translate(326.082031 0)"/>
      <use xlink:href="#ArialMT-73" transform="translate(353.865234 0)"/>
      <use xlink:href="#ArialMT-74" transform="translate(403.865234 0)"/>
      <use xlink:href="#ArialMT-6f" transform="translate(431.648438 0)"/>
      <use xlink:href="#ArialMT-72" transform="translate(487.263672 0)"/>
      <use xlink:href="#ArialMT-61" transform="translate(520.564453 0)"/>
      <use xlink:href="#ArialMT-67" transform="translate(576.179688 0)"/>
      <use xlink:href="#ArialMT-65" transform="translate(631.794922 0)"/>
      <use xlink:href="#ArialMT-20" transform="translate(687.410156 0)"/>
      <use xlink:href="#ArialMT-28" transform="translate(715.193359 0)"/>
      <use xlink:href="#ArialMT-42" transform="translate(748.494141 0)"/>
      <use xlink:href="#ArialMT-63" transform="translate(815.193359 0)"/>
      <use xlink:href="#ArialMT-66" transform="translate(865.193359 0)"/>
      <use xlink:href="#ArialMT-29" transform="translate(892.976562 0)"/>
     </g>
    </g>
   </g>
  </g>
 </g>
 <defs>
  <clipPath id="p897e5a8866">
   <rect x="76.208" y="27.177" width="898.068" height="201.988"/>
  </clipPath>
 </defs>
</svg>
