<?xml version="1.0" encoding="utf-8" standalone="no"?>
<!DOCTYPE svg PUBLIC "-//W3C//DTD SVG 1.1//EN"
  "http://www.w3.org/Graphics/SVG/1.1/DTD/svg11.dtd">
<svg xmlns:xlink="http://www.w3.org/1999/xlink" width="967.5495pt" height="260.76075pt" viewBox="0 0 967.5495 260.76075" xmlns="http://www.w3.org/2000/svg" version="1.1">
 <metadata>
  <rdf:RDF xmlns:dc="http://purl.org/dc/elements/1.1/" xmlns:cc="http://creativecommons.org/ns#" xmlns:rdf="http://www.w3.org/1999/02/22-rdf-syntax-ns#">
   <cc:Work>
    <dc:type rdf:resource="http://purl.org/dc/dcmitype/StillImage"/>
    <dc:date>2026-04-01T06:53:14.670949</dc:date>
    <dc:format>image/svg+xml</dc:format>
    <dc:creator>
     <cc:Agent>
      <dc:title>Matplotlib v3.10.8, https://matplotlib.org/</dc:title>
     </cc:Agent>
    </dc:creator>
   </cc:Work>
  </rdf:RDF>
 </metadata>
 <defs>
  <style type="text/css">*{stroke-linejoin: round; stroke-linecap: butt}</style>
 </defs>
 <g id="figure_1">
  <g id="patch_1">
   <path d="M 0 260.76075 
L 967.5495 260.76075 
L 967.5495 0 
L 0 0 
z
" style="fill: #ffffff"/>
  </g>
  <g id="axes_1">
   <g id="patch_2">
    <path d="M 58.1245 229.165 
L 890.8825 229.165 
L 890.8825 27.177 
L 58.1245 27.177 
z
" style="fill: #ffffff"/>
   </g>
   <g id="matplotlib.axis_1">
    <g id="xtick_1">
     <g id="line2d_1">
      <path d="M 95.977136 229.165 
L 95.977136 27.177 
" clip-path="url(#p625ee9136d)" style="fill: none; stroke: #cccccc; stroke-width: 0.8; stroke-linecap: round"/>
     </g>
     <g id="text_1">
      <!-- 2010 -->
      <g style="fill: #262626" transform="translate(76.402636 250.06275) scale(0.176 -0.176)">
       <defs>
        <path id="ArialMT-32" d="M 3222 541 
L 3222 0 
L 194 0 
Q 188 203 259 391 
Q 375 700 629 1000 
Q 884 1300 1366 1694 
Q 2113 2306 2375 2664 
Q 2638 3022 2638 3341 
Q 2638 3675 2398 3904 
Q 2159 4134 1775 4134 
Q 1369 4134 1125 3890 
Q 881 3647 878 3216 
L 300 3275 
Q 359 3922 746 4261 
Q 1134 4600 1788 4600 
Q 2447 4600 2831 4234 
Q 3216 3869 3216 3328 
Q 3216 3053 3103 2787 
Q 2991 2522 2730 2228 
Q 2469 1934 1863 1422 
Q 1356 997 1212 845 
Q 1069 694 975 541 
L 3222 541 
z
" transform="scale(0.015625)"/>
        <path id="ArialMT-30" d="M 266 2259 
Q 266 3072 433 3567 
Q 600 4063 929 4331 
Q 1259 4600 1759 4600 
Q 2128 4600 2406 4451 
Q 2684 4303 2865 4023 
Q 3047 3744 3150 3342 
Q 3253 2941 3253 2259 
Q 3253 1453 3087 958 
Q 2922 463 2592 192 
Q 2263 -78 1759 -78 
Q 1097 -78 719 397 
Q 266 969 266 2259 
z
M 844 2259 
Q 844 1131 1108 757 
Q 1372 384 1759 384 
Q 2147 384 2411 759 
Q 2675 1134 2675 2259 
Q 2675 3391 2411 3762 
Q 2147 4134 1753 4134 
Q 1366 4134 1134 3806 
Q 844 3388 844 2259 
z
" transform="scale(0.015625)"/>
        <path id="ArialMT-31" d="M 2384 0 
L 1822 0 
L 1822 3584 
Q 1619 3391 1289 3197 
Q 959 3003 697 2906 
L 697 3450 
Q 1169 3672 1522 3987 
Q 1875 4303 2022 4600 
L 2384 4600 
L 2384 0 
z
" transform="scale(0.015625)"/>
       </defs>
       <use xlink:href="#ArialMT-32"/>
       <use xlink:href="#ArialMT-30" transform="translate(55.615234 0)"/>
       <use xlink:href="#ArialMT-31" transform="translate(111.230469 0)"/>
       <use xlink:href="#ArialMT-30" transform="translate(166.845703 0)"/>
      </g>
     </g>
    </g>
    <g id="xtick_2">
     <g id="line2d_2">
      <path d="M 189.298395 229.165 
L 189.298395 27.177 
" clip-path="url(#p625ee9136d)" style="fill: none; stroke: #cccccc; stroke-width: 0.8; stroke-linecap: round"/>
     </g>
     <g id="text_2">
      <!-- 2012 -->
      <g style="fill: #262626" transform="translate(169.723895 250.06275) scale(0.176 -0.176)">
       <use xlink:href="#ArialMT-32"/>
       <use xlink:href="#ArialMT-30" transform="translate(55.615234 0)"/>
       <use xlink:href="#ArialMT-31" transform="translate(111.230469 0)"/>
       <use xlink:href="#ArialMT-32" transform="translate(166.845703 0)"/>
      </g>
     </g>
    </g>
    <g id="xtick_3">
     <g id="line2d_3">
      <path d="M 282.74749 229.165 
L 282.74749 27.177 
" clip-path="url(#p625ee9136d)" style="fill: none; stroke: #cccccc; stroke-width: 0.8; stroke-linecap: round"/>
     </g>
     <g id="text_3">
      <!-- 2014 -->
      <g style="fill: #262626" transform="translate(263.17299 250.06275) scale(0.176 -0.176)">
       <defs>
        <path id="ArialMT-34" d="M 2069 0 
L 2069 1097 
L 81 1097 
L 81 1613 
L 2172 4581 
L 2631 4581 
L 2631 1613 
L 3250 1613 
L 3250 1097 
L 2631 1097 
L 2631 0 
L 2069 0 
z
M 2069 1613 
L 2069 3678 
L 634 1613 
L 2069 1613 
z
" transform="scale(0.015625)"/>
       </defs>
       <use xlink:href="#ArialMT-32"/>
       <use xlink:href="#ArialMT-30" transform="translate(55.615234 0)"/>
       <use xlink:href="#ArialMT-31" transform="translate(111.230469 0)"/>
       <use xlink:href="#ArialMT-34" transform="translate(166.845703 0)"/>
      </g>
     </g>
    </g>
    <g id="xtick_4">
     <g id="line2d_4">
      <path d="M 376.068748 229.165 
L 376.068748 27.177 
" clip-path="url(#p625ee9136d)" style="fill: none; stroke: #cccccc; stroke-width: 0.8; stroke-linecap: round"/>
     </g>
     <g id="text_4">
      <!-- 2016 -->
      <g style="fill: #262626" transform="translate(356.494248 250.06275) scale(0.176 -0.176)">
       <defs>
        <path id="ArialMT-36" d="M 3184 3459 
L 2625 3416 
Q 2550 3747 2413 3897 
Q 2184 4138 1850 4138 
Q 1581 4138 1378 3988 
Q 1113 3794 959 3422 
Q 806 3050 800 2363 
Q 1003 2672 1297 2822 
Q 1591 2972 1913 2972 
Q 2475 2972 2870 2558 
Q 3266 2144 3266 1488 
Q 3266 1056 3080 686 
Q 2894 316 2569 119 
Q 2244 -78 1831 -78 
Q 1128 -78 684 439 
Q 241 956 241 2144 
Q 241 3472 731 4075 
Q 1159 4600 1884 4600 
Q 2425 4600 2770 4297 
Q 3116 3994 3184 3459 
z
M 888 1484 
Q 888 1194 1011 928 
Q 1134 663 1356 523 
Q 1578 384 1822 384 
Q 2178 384 2434 671 
Q 2691 959 2691 1453 
Q 2691 1928 2437 2201 
Q 2184 2475 1800 2475 
Q 1419 2475 1153 2201 
Q 888 1928 888 1484 
z
" transform="scale(0.015625)"/>
       </defs>
       <use xlink:href="#ArialMT-32"/>
       <use xlink:href="#ArialMT-30" transform="translate(55.615234 0)"/>
       <use xlink:href="#ArialMT-31" transform="translate(111.230469 0)"/>
       <use xlink:href="#ArialMT-36" transform="translate(166.845703 0)"/>
      </g>
     </g>
    </g>
    <g id="xtick_5">
     <g id="line2d_5">
      <path d="M 469.517844 229.165 
L 469.517844 27.177 
" clip-path="url(#p625ee9136d)" style="fill: none; stroke: #cccccc; stroke-width: 0.8; stroke-linecap: round"/>
     </g>
     <g id="text_5">
      <!-- 2018 -->
      <g style="fill: #262626" transform="translate(449.943344 250.06275) scale(0.176 -0.176)">
       <defs>
        <path id="ArialMT-38" d="M 1131 2484 
Q 781 2613 612 2850 
Q 444 3088 444 3419 
Q 444 3919 803 4259 
Q 1163 4600 1759 4600 
Q 2359 4600 2725 4251 
Q 3091 3903 3091 3403 
Q 3091 3084 2923 2848 
Q 2756 2613 2416 2484 
Q 2838 2347 3058 2040 
Q 3278 1734 3278 1309 
Q 3278 722 2862 322 
Q 2447 -78 1769 -78 
Q 1091 -78 675 323 
Q 259 725 259 1325 
Q 259 1772 486 2073 
Q 713 2375 1131 2484 
z
M 1019 3438 
Q 1019 3113 1228 2906 
Q 1438 2700 1772 2700 
Q 2097 2700 2305 2904 
Q 2513 3109 2513 3406 
Q 2513 3716 2298 3927 
Q 2084 4138 1766 4138 
Q 1444 4138 1231 3931 
Q 1019 3725 1019 3438 
z
M 838 1322 
Q 838 1081 952 856 
Q 1066 631 1291 507 
Q 1516 384 1775 384 
Q 2178 384 2440 643 
Q 2703 903 2703 1303 
Q 2703 1709 2433 1975 
Q 2163 2241 1756 2241 
Q 1359 2241 1098 1978 
Q 838 1716 838 1322 
z
" transform="scale(0.015625)"/>
       </defs>
       <use xlink:href="#ArialMT-32"/>
       <use xlink:href="#ArialMT-30" transform="translate(55.615234 0)"/>
       <use xlink:href="#ArialMT-31" transform="translate(111.230469 0)"/>
       <use xlink:href="#ArialMT-38" transform="translate(166.845703 0)"/>
      </g>
     </g>
    </g>
    <g id="xtick_6">
     <g id="line2d_6">
      <path d="M 562.839102 229.165 
L 562.839102 27.177 
" clip-path="url(#p625ee9136d)" style="fill: none; stroke: #cccccc; stroke-width: 0.8; stroke-linecap: round"/>
     </g>
     <g id="text_6">
      <!-- 2020 -->
      <g style="fill: #262626" transform="translate(543.264602 250.06275) scale(0.176 -0.176)">
       <use xlink:href="#ArialMT-32"/>
       <use xlink:href="#ArialMT-30" transform="translate(55.615234 0)"/>
       <use xlink:href="#ArialMT-32" transform="translate(111.230469 0)"/>
       <use xlink:href="#ArialMT-30" transform="translate(166.845703 0)"/>
      </g>
     </g>
    </g>
    <g id="xtick_7">
     <g id="line2d_7">
      <path d="M 656.288197 229.165 
L 656.288197 27.177 
" clip-path="url(#p625ee9136d)" style="fill: none; stroke: #cccccc; stroke-width: 0.8; stroke-linecap: round"/>
     </g>
     <g id="text_7">
      <!-- 2022 -->
      <g style="fill: #262626" transform="translate(636.713697 250.06275) scale(0.176 -0.176)">
       <use xlink:href="#ArialMT-32"/>
       <use xlink:href="#ArialMT-30" transform="translate(55.615234 0)"/>
       <use xlink:href="#ArialMT-32" transform="translate(111.230469 0)"/>
       <use xlink:href="#ArialMT-32" transform="translate(166.845703 0)"/>
      </g>
     </g>
    </g>
    <g id="xtick_8">
     <g id="line2d_8">
      <path d="M 749.609456 229.165 
L 749.609456 27.177 
" clip-path="url(#p625ee9136d)" style="fill: none; stroke: #cccccc; stroke-width: 0.8; stroke-linecap: round"/>
     </g>
     <g id="text_8">
      <!-- 2024 -->
      <g style="fill: #262626" transform="translate(730.034956 250.06275) scale(0.176 -0.176)">
       <use xlink:href="#ArialMT-32"/>
       <use xlink:href="#ArialMT-30" transform="translate(55.615234 0)"/>
       <use xlink:href="#ArialMT-32" transform="translate(111.230469 0)"/>
       <use xlink:href="#ArialMT-34" transform="translate(166.845703 0)"/>
      </g>
     </g>
    </g>
    <g id="xtick_9">
     <g id="line2d_9">
      <path d="M 843.058551 229.165 
L 843.058551 27.177 
" clip-path="url(#p625ee9136d)" style="fill: none; stroke: #cccccc; stroke-width: 0.8; stroke-linecap: round"/>
     </g>
     <g id="text_9">
      <!-- 2026 -->
      <g style="fill: #262626" transform="translate(823.484051 250.06275) scale(0.176 -0.176)">
       <use xlink:href="#ArialMT-32"/>
       <use xlink:href="#ArialMT-30" transform="translate(55.615234 0)"/>
       <use xlink:href="#ArialMT-32" transform="translate(111.230469 0)"/>
       <use xlink:href="#ArialMT-36" transform="translate(166.845703 0)"/>
      </g>
     </g>
    </g>
   </g>
   <g id="matplotlib.axis_2">
    <g id="ytick_1">
     <g id="line2d_10">
      <path d="M 58.1245 166.647303 
L 890.8825 166.647303 
" clip-path="url(#p625ee9136d)" style="fill: none; stroke: #cccccc; stroke-width: 0.8; stroke-linecap: round"/>
     </g>
     <g id="line2d_11">
      <defs>
       <path id="m5e4f6325a5" d="M 0 0 
L -4.8 0 
" style="stroke: #262626"/>
      </defs>
      <g>
       <use xlink:href="#m5e4f6325a5" x="58.1245" y="166.647303" style="fill: #262626; stroke: #262626"/>
      </g>
     </g>
     <g id="text_10">
      <!-- 5 -->
      <g style="fill: #262626" transform="translate(40.03725 172.946178) scale(0.176 -0.176)">
       <defs>
        <path id="ArialMT-35" d="M 266 1200 
L 856 1250 
Q 922 819 1161 601 
Q 1400 384 1738 384 
Q 2144 384 2425 690 
Q 2706 997 2706 1503 
Q 2706 1984 2436 2262 
Q 2166 2541 1728 2541 
Q 1456 2541 1237 2417 
Q 1019 2294 894 2097 
L 366 2166 
L 809 4519 
L 3088 4519 
L 3088 3981 
L 1259 3981 
L 1013 2750 
Q 1425 3038 1878 3038 
Q 2478 3038 2890 2622 
Q 3303 2206 3303 1553 
Q 3303 931 2941 478 
Q 2500 -78 1738 -78 
Q 1113 -78 717 272 
Q 322 622 266 1200 
z
" transform="scale(0.015625)"/>
       </defs>
       <use xlink:href="#ArialMT-35"/>
      </g>
     </g>
    </g>
    <g id="ytick_2">
     <g id="line2d_12">
      <path d="M 58.1245 92.568937 
L 890.8825 92.568937 
" clip-path="url(#p625ee9136d)" style="fill: none; stroke: #cccccc; stroke-width: 0.8; stroke-linecap: round"/>
     </g>
     <g id="line2d_13">
      <g>
       <use xlink:href="#m5e4f6325a5" x="58.1245" y="92.568937" style="fill: #262626; stroke: #262626"/>
      </g>
     </g>
     <g id="text_11">
      <!-- 10 -->
      <g style="fill: #262626" transform="translate(30.25 98.867812) scale(0.176 -0.176)">
       <use xlink:href="#ArialMT-31"/>
       <use xlink:href="#ArialMT-30" transform="translate(55.615234 0)"/>
      </g>
     </g>
    </g>
    <g id="text_12">
     <!-- Henry Hub ($/MMBtu) -->
     <g style="fill: #1f77b4" transform="translate(22.209 221.522) rotate(-90) scale(0.192 -0.192)">
      <defs>
       <path id="ArialMT-48" d="M 513 0 
L 513 4581 
L 1119 4581 
L 1119 2700 
L 3500 2700 
L 3500 4581 
L 4106 4581 
L 4106 0 
L 3500 0 
L 3500 2159 
L 1119 2159 
L 1119 0 
L 513 0 
z
" transform="scale(0.015625)"/>
       <path id="ArialMT-65" d="M 2694 1069 
L 3275 997 
Q 3138 488 2766 206 
Q 2394 -75 1816 -75 
Q 1088 -75 661 373 
Q 234 822 234 1631 
Q 234 2469 665 2931 
Q 1097 3394 1784 3394 
Q 2450 3394 2872 2941 
Q 3294 2488 3294 1666 
Q 3294 1616 3291 1516 
L 816 1516 
Q 847 969 1125 678 
Q 1403 388 1819 388 
Q 2128 388 2347 550 
Q 2566 713 2694 1069 
z
M 847 1978 
L 2700 1978 
Q 2663 2397 2488 2606 
Q 2219 2931 1791 2931 
Q 1403 2931 1139 2672 
Q 875 2413 847 1978 
z
" transform="scale(0.015625)"/>
       <path id="ArialMT-6e" d="M 422 0 
L 422 3319 
L 928 3319 
L 928 2847 
Q 1294 3394 1984 3394 
Q 2284 3394 2536 3286 
Q 2788 3178 2913 3003 
Q 3038 2828 3088 2588 
Q 3119 2431 3119 2041 
L 3119 0 
L 2556 0 
L 2556 2019 
Q 2556 2363 2490 2533 
Q 2425 2703 2258 2804 
Q 2091 2906 1866 2906 
Q 1506 2906 1245 2678 
Q 984 2450 984 1813 
L 984 0 
L 422 0 
z
" transform="scale(0.015625)"/>
       <path id="ArialMT-72" d="M 416 0 
L 416 3319 
L 922 3319 
L 922 2816 
Q 1116 3169 1280 3281 
Q 1444 3394 1641 3394 
Q 1925 3394 2219 3213 
L 2025 2691 
Q 1819 2813 1613 2813 
Q 1428 2813 1281 2702 
Q 1134 2591 1072 2394 
Q 978 2094 978 1738 
L 978 0 
L 416 0 
z
" transform="scale(0.015625)"/>
       <path id="ArialMT-79" d="M 397 -1278 
L 334 -750 
Q 519 -800 656 -800 
Q 844 -800 956 -737 
Q 1069 -675 1141 -563 
Q 1194 -478 1313 -144 
Q 1328 -97 1363 -6 
L 103 3319 
L 709 3319 
L 1400 1397 
Q 1534 1031 1641 628 
Q 1738 1016 1872 1384 
L 2581 3319 
L 3144 3319 
L 1881 -56 
Q 1678 -603 1566 -809 
Q 1416 -1088 1222 -1217 
Q 1028 -1347 759 -1347 
Q 597 -1347 397 -1278 
z
" transform="scale(0.015625)"/>
       <path id="ArialMT-20" transform="scale(0.015625)"/>
       <path id="ArialMT-75" d="M 2597 0 
L 2597 488 
Q 2209 -75 1544 -75 
Q 1250 -75 995 37 
Q 741 150 617 320 
Q 494 491 444 738 
Q 409 903 409 1263 
L 409 3319 
L 972 3319 
L 972 1478 
Q 972 1038 1006 884 
Q 1059 663 1231 536 
Q 1403 409 1656 409 
Q 1909 409 2131 539 
Q 2353 669 2445 892 
Q 2538 1116 2538 1541 
L 2538 3319 
L 3100 3319 
L 3100 0 
L 2597 0 
z
" transform="scale(0.015625)"/>
       <path id="ArialMT-62" d="M 941 0 
L 419 0 
L 419 4581 
L 981 4581 
L 981 2947 
Q 1338 3394 1891 3394 
Q 2197 3394 2470 3270 
Q 2744 3147 2920 2923 
Q 3097 2700 3197 2384 
Q 3297 2069 3297 1709 
Q 3297 856 2875 390 
Q 2453 -75 1863 -75 
Q 1275 -75 941 416 
L 941 0 
z
M 934 1684 
Q 934 1088 1097 822 
Q 1363 388 1816 388 
Q 2184 388 2453 708 
Q 2722 1028 2722 1663 
Q 2722 2313 2464 2622 
Q 2206 2931 1841 2931 
Q 1472 2931 1203 2611 
Q 934 2291 934 1684 
z
" transform="scale(0.015625)"/>
       <path id="ArialMT-28" d="M 1497 -1347 
Q 1031 -759 709 28 
Q 388 816 388 1659 
Q 388 2403 628 3084 
Q 909 3875 1497 4659 
L 1900 4659 
Q 1522 4009 1400 3731 
Q 1209 3300 1100 2831 
Q 966 2247 966 1656 
Q 966 153 1900 -1347 
L 1497 -1347 
z
" transform="scale(0.015625)"/>
       <path id="ArialMT-24" d="M 1594 -659 
L 1594 -97 
Q 1172 -44 908 92 
Q 644 228 451 531 
Q 259 834 228 1272 
L 794 1378 
Q 859 925 1025 713 
Q 1263 413 1594 378 
L 1594 2169 
Q 1247 2234 884 2438 
Q 616 2588 470 2853 
Q 325 3119 325 3456 
Q 325 4056 750 4428 
Q 1034 4678 1594 4734 
L 1594 5003 
L 1925 5003 
L 1925 4734 
Q 2416 4688 2703 4447 
Q 3072 4141 3147 3606 
L 2566 3519 
Q 2516 3850 2358 4026 
Q 2200 4203 1925 4259 
L 1925 2638 
Q 2350 2531 2488 2472 
Q 2750 2356 2915 2190 
Q 3081 2025 3170 1797 
Q 3259 1569 3259 1303 
Q 3259 719 2887 328 
Q 2516 -63 1925 -91 
L 1925 -659 
L 1594 -659 
z
M 1594 4266 
Q 1266 4216 1077 4003 
Q 888 3791 888 3500 
Q 888 3213 1048 3019 
Q 1209 2825 1594 2709 
L 1594 4266 
z
M 1925 378 
Q 2253 419 2467 662 
Q 2681 906 2681 1266 
Q 2681 1572 2529 1758 
Q 2378 1944 1925 2091 
L 1925 378 
z
" transform="scale(0.015625)"/>
       <path id="ArialMT-2f" d="M 0 -78 
L 1328 4659 
L 1778 4659 
L 453 -78 
L 0 -78 
z
" transform="scale(0.015625)"/>
       <path id="ArialMT-4d" d="M 475 0 
L 475 4581 
L 1388 4581 
L 2472 1338 
Q 2622 884 2691 659 
Q 2769 909 2934 1394 
L 4031 4581 
L 4847 4581 
L 4847 0 
L 4263 0 
L 4263 3834 
L 2931 0 
L 2384 0 
L 1059 3900 
L 1059 0 
L 475 0 
z
" transform="scale(0.015625)"/>
       <path id="ArialMT-42" d="M 469 0 
L 469 4581 
L 2188 4581 
Q 2713 4581 3030 4442 
Q 3347 4303 3526 4014 
Q 3706 3725 3706 3409 
Q 3706 3116 3547 2856 
Q 3388 2597 3066 2438 
Q 3481 2316 3704 2022 
Q 3928 1728 3928 1328 
Q 3928 1006 3792 729 
Q 3656 453 3456 303 
Q 3256 153 2954 76 
Q 2653 0 2216 0 
L 469 0 
z
M 1075 2656 
L 2066 2656 
Q 2469 2656 2644 2709 
Q 2875 2778 2992 2937 
Q 3109 3097 3109 3338 
Q 3109 3566 3000 3739 
Q 2891 3913 2687 3977 
Q 2484 4041 1991 4041 
L 1075 4041 
L 1075 2656 
z
M 1075 541 
L 2216 541 
Q 2509 541 2628 563 
Q 2838 600 2978 687 
Q 3119 775 3209 942 
Q 3300 1109 3300 1328 
Q 3300 1584 3169 1773 
Q 3038 1963 2805 2039 
Q 2572 2116 2134 2116 
L 1075 2116 
L 1075 541 
z
" transform="scale(0.015625)"/>
       <path id="ArialMT-74" d="M 1650 503 
L 1731 6 
Q 1494 -44 1306 -44 
Q 1000 -44 831 53 
Q 663 150 594 308 
Q 525 466 525 972 
L 525 2881 
L 113 2881 
L 113 3319 
L 525 3319 
L 525 4141 
L 1084 4478 
L 1084 3319 
L 1650 3319 
L 1650 2881 
L 1084 2881 
L 1084 941 
Q 1084 700 1114 631 
Q 1144 563 1211 522 
Q 1278 481 1403 481 
Q 1497 481 1650 503 
z
" transform="scale(0.015625)"/>
       <path id="ArialMT-29" d="M 791 -1347 
L 388 -1347 
Q 1322 153 1322 1656 
Q 1322 2244 1188 2822 
Q 1081 3291 891 3722 
Q 769 4003 388 4659 
L 791 4659 
Q 1378 3875 1659 3084 
Q 1900 2403 1900 1659 
Q 1900 816 1576 28 
Q 1253 -759 791 -1347 
z
" transform="scale(0.015625)"/>
      </defs>
      <use xlink:href="#ArialMT-48"/>
      <use xlink:href="#ArialMT-65" transform="translate(72.216797 0)"/>
      <use xlink:href="#ArialMT-6e" transform="translate(127.832031 0)"/>
      <use xlink:href="#ArialMT-72" transform="translate(183.447266 0)"/>
      <use xlink:href="#ArialMT-79" transform="translate(216.748047 0)"/>
      <use xlink:href="#ArialMT-20" transform="translate(266.748047 0)"/>
      <use xlink:href="#ArialMT-48" transform="translate(294.53125 0)"/>
      <use xlink:href="#ArialMT-75" transform="translate(366.748047 0)"/>
      <use xlink:href="#ArialMT-62" transform="translate(422.363281 0)"/>
      <use xlink:href="#ArialMT-20" transform="translate(477.978516 0)"/>
      <use xlink:href="#ArialMT-28" transform="translate(505.761719 0)"/>
      <use xlink:href="#ArialMT-24" transform="translate(539.0625 0)"/>
      <use xlink:href="#ArialMT-2f" transform="translate(594.677734 0)"/>
      <use xlink:href="#ArialMT-4d" transform="translate(622.460938 0)"/>
      <use xlink:href="#ArialMT-4d" transform="translate(705.761719 0)"/>
      <use xlink:href="#ArialMT-42" transform="translate(789.0625 0)"/>
      <use xlink:href="#ArialMT-74" transform="translate(855.761719 0)"/>
      <use xlink:href="#ArialMT-75" transform="translate(883.544922 0)"/>
      <use xlink:href="#ArialMT-29" transform="translate(939.160156 0)"/>
     </g>
    </g>
   </g>
   <g id="line2d_14">
    <path d="M 95.977136 153.609511 
L 96.871998 143.47559 
L 97.766859 156.631908 
L 98.661721 158.350526 
L 99.556582 159.624674 
L 100.451443 159.654306 
L 101.346305 158.469052 
L 102.241166 160.646956 
L 103.136027 168.602972 
L 104.030889 170.469747 
L 104.92575 174.825555 
L 106.715473 181.31482 
L 107.610334 184.166837 
L 108.505196 181.492608 
L 109.400057 180.603668 
L 110.294918 181.670396 
L 111.18978 179.151732 
L 112.084641 182.351917 
L 112.979503 178.67763 
L 113.874364 177.670164 
L 114.769225 178.855418 
L 116.558948 170.588273 
L 117.453809 165.195368 
L 118.348671 167.714032 
L 119.243532 171.62537 
L 120.138394 171.906868 
L 121.033255 174.410716 
L 121.928116 171.951315 
L 122.822978 170.410485 
L 123.717839 169.610438 
L 124.612701 175.240394 
L 125.507562 177.077537 
L 126.402423 182.114866 
L 127.297285 185.078001 
L 128.192146 184.389072 
L 129.087007 181.255557 
L 129.981869 181.374083 
L 130.87673 184.633531 
L 131.771592 188.544869 
L 132.666453 188.989339 
L 133.561314 190.856114 
L 134.456176 191.685791 
L 135.351037 190.441275 
L 136.245898 185.966941 
L 137.14076 185.403946 
L 138.035621 182.981583 
L 138.930483 178.499842 
L 139.825344 174.618136 
L 140.720205 177.610902 
L 141.615067 180.129566 
L 142.509928 179.151732 
L 143.404789 173.818089 
L 144.299651 174.588504 
L 145.194512 172.981004 
L 146.089374 174.766292 
L 146.984235 173.877352 
L 147.879096 178.944312 
L 148.773958 183.003807 
L 149.668819 183.833484 
L 151.458542 184.366849 
L 152.353403 183.240858 
L 153.248265 179.625833 
L 154.143126 176.988643 
L 155.037987 179.181363 
L 155.932849 179.685096 
L 156.82771 177.462745 
L 158.617433 173.995877 
L 159.512294 178.825787 
L 160.407156 179.210994 
L 161.302017 176.336754 
L 162.196878 171.79575 
L 163.09174 169.225231 
L 164.881463 176.633067 
L 165.776324 176.721961 
L 166.671185 177.092353 
L 167.566047 175.329288 
L 168.460908 172.929149 
L 171.145492 180.336986 
L 172.040354 181.374083 
L 173.830076 181.31482 
L 174.724938 182.055604 
L 175.619799 182.144498 
L 176.514661 184.84095 
L 177.409522 184.277955 
L 178.304383 188.426343 
L 179.199245 189.22639 
L 180.094106 187.122564 
L 180.988967 187.092933 
L 181.883829 189.256021 
L 182.77869 190.085699 
L 183.673552 194.73782 
L 184.568413 197.463904 
L 185.463274 190.796851 
L 186.358136 190.441275 
L 187.252997 195.123028 
L 188.147858 195.715654 
L 189.04272 195.648984 
L 190.832443 199.123259 
L 191.727304 205.205093 
L 192.622165 202.590127 
L 193.517027 204.456902 
L 194.411888 203.53833 
L 195.30675 203.449436 
L 196.201611 201.797488 
L 198.886195 209.523862 
L 199.781056 208.723816 
L 201.570779 211.612872 
L 202.465641 212.190683 
L 203.360502 213.138886 
L 204.255363 211.094323 
L 205.150225 207.27188 
L 206.045086 206.17552 
L 206.939947 203.834643 
L 207.834809 202.293813 
L 208.72967 205.649563 
L 209.624532 206.145888 
L 210.519393 207.50893 
L 211.414254 203.330911 
L 212.309116 199.775149 
L 213.203977 198.686197 
L 214.098838 198.975103 
L 214.9937 197.434273 
L 215.888561 194.411875 
L 216.783423 194.471138 
L 217.678284 197.493535 
L 218.573145 199.656624 
L 219.468007 199.330679 
L 220.362868 200.45667 
L 221.25773 199.01955 
L 222.152591 198.086162 
L 223.047452 199.864043 
L 223.942314 197.256484 
L 224.837175 193.019202 
L 225.732036 192.485838 
L 226.626898 191.626529 
L 227.521759 190.263487 
L 228.416621 189.700491 
L 229.311482 190.352381 
L 230.206343 188.218924 
L 231.101205 187.278129 
L 231.996066 186.500306 
L 232.890927 190.233855 
L 233.785789 191.863579 
L 234.68065 191.804317 
L 235.575512 191.241321 
L 236.470373 192.130262 
L 237.365234 193.582198 
L 238.260096 189.759754 
L 239.154957 188.352265 
L 240.049819 192.426575 
L 240.94468 191.330215 
L 241.839541 192.485838 
L 242.734403 192.093222 
L 243.629264 189.196758 
L 244.524125 187.863348 
L 245.418987 185.315052 
L 246.313848 181.670396 
L 247.20871 180.796271 
L 248.103571 181.581502 
L 249.893294 177.699796 
L 251.683016 178.055372 
L 252.577878 183.122332 
L 253.472739 182.263023 
L 254.367601 179.418414 
L 255.262462 179.685096 
L 257.052185 184.870582 
L 257.947046 183.359383 
L 258.841907 185.611365 
L 259.736769 188.278186 
L 260.63163 186.559568 
L 261.526492 185.996573 
L 262.421353 186.322518 
L 263.316214 189.581966 
L 264.211076 191.567266 
L 265.105937 191.152427 
L 266.000799 188.959707 
L 266.89566 188.159661 
L 267.790521 186.75958 
L 268.685383 187.270721 
L 269.580244 185.789153 
L 270.475105 188.070767 
L 271.369967 187.92261 
L 272.264828 185.848416 
L 273.15969 184.544637 
L 274.054551 185.996573 
L 274.949412 188.13003 
L 275.844274 189.344915 
L 276.739135 187.152195 
L 277.633996 186.115098 
L 278.528858 183.463093 
L 279.423719 182.351917 
L 280.318581 176.840487 
L 281.213442 177.729427 
L 282.108303 174.870002 
L 283.003165 176.166374 
L 283.898026 176.899749 
L 284.792887 175.714496 
L 285.687749 165.387971 
L 286.58261 162.350758 
L 287.477472 146.616513 
L 288.372333 143.712641 
L 289.267194 151.83163 
L 290.162056 165.136105 
L 291.056917 148.275869 
L 291.951779 172.95878 
L 292.84664 175.121869 
L 293.741501 174.70703 
L 294.636363 174.766292 
L 295.531224 172.099471 
L 296.426085 171.79575 
L 297.320947 169.699332 
L 298.215808 170.173434 
L 299.11067 170.469747 
L 300.005531 174.647767 
L 300.900392 173.729195 
L 301.795254 173.758827 
L 302.690115 172.425416 
L 303.584976 172.395785 
L 304.479838 171.773526 
L 305.374699 173.847721 
L 306.269561 175.388551 
L 307.164422 178.67763 
L 308.059283 179.862884 
L 308.954145 183.833484 
L 309.849006 184.544637 
L 310.743868 182.677862 
L 311.638729 182.974175 
L 312.53359 183.655696 
L 313.428452 181.31482 
L 314.323313 182.500074 
L 315.218174 182.85565 
L 316.113036 182.292654 
L 317.007897 183.240858 
L 317.902759 181.137032 
L 318.79762 183.30012 
L 319.692481 184.070535 
L 320.587343 187.004039 
L 321.482204 186.5892 
L 322.377065 183.95201 
L 323.271927 179.062838 
L 324.166788 176.336754 
L 325.06165 179.129508 
L 325.956511 185.166895 
L 326.851372 186.529937 
L 327.746234 186.085467 
L 328.641095 197.130551 
L 329.535956 194.945239 
L 330.430818 195.804548 
L 331.325679 195.093396 
L 332.220541 197.056473 
L 333.115402 197.671323 
L 334.010263 200.427039 
L 334.905125 199.952937 
L 335.799986 197.723178 
L 336.694848 194.352613 
L 337.589709 195.62676 
L 338.48457 199.80478 
L 339.379432 199.182522 
L 340.274293 199.419573 
L 341.169154 201.686371 
L 342.064016 201.167822 
L 342.958877 202.027131 
L 343.853739 202.293813 
L 344.7486 202.679021 
L 345.643461 199.952937 
L 347.433184 196.337913 
L 348.328045 199.241785 
L 349.222907 201.434504 
L 351.01263 197.760217 
L 351.907491 199.182522 
L 352.802352 199.449204 
L 353.697214 200.041831 
L 354.592075 197.849111 
L 356.381798 198.204688 
L 357.276659 199.36031 
L 358.171521 198.115794 
L 359.066382 200.0122 
L 359.961243 200.812246 
L 360.856105 200.90114 
L 361.750966 200.634458 
L 362.645828 200.693721 
L 363.540689 202.027131 
L 365.330412 205.52363 
L 366.225273 204.042063 
L 367.120134 205.434736 
L 368.014996 209.346074 
L 368.909857 210.768378 
L 369.804719 209.523862 
L 370.69958 209.760913 
L 371.594441 208.901604 
L 372.489303 209.168286 
L 373.384164 211.657319 
L 374.279025 215.272343 
L 375.173887 215.894601 
L 376.068748 207.123723 
L 376.96361 205.434736 
L 377.858471 206.323677 
L 378.753332 208.071926 
L 379.648194 207.805244 
L 380.543055 209.434968 
L 381.437917 208.753447 
L 382.332778 212.042526 
L 383.227639 213.701882 
L 384.122501 217.4058 
L 385.017362 216.339072 
L 385.912223 214.235246 
L 386.807085 214.264877 
L 387.701946 213.22778 
L 388.596808 211.746213 
L 389.491669 212.516628 
L 390.38653 212.516628 
L 391.281392 212.309209 
L 393.071114 211.094323 
L 393.965976 212.78331 
L 394.860837 213.524094 
L 395.755699 208.871972 
L 397.545421 202.412339 
L 398.440283 199.982568 
L 399.335144 197.908374 
L 400.230005 198.91584 
L 402.019728 199.301047 
L 402.91459 198.530632 
L 403.809451 197.997268 
L 404.704312 199.656624 
L 405.599174 200.189988 
L 406.494035 198.886209 
L 407.388897 197.16759 
L 408.283758 198.234319 
L 409.178619 195.982337 
L 410.073481 194.648926 
L 411.863203 197.582429 
L 412.758065 193.730354 
L 413.652926 194.263718 
L 414.547788 200.427039 
L 415.442649 203.627224 
L 416.33751 207.864507 
L 417.232372 204.545796 
L 418.127233 199.775149 
L 419.916956 186.14473 
L 420.811817 187.774454 
L 421.706679 188.752288 
L 422.60154 186.14473 
L 424.391263 192.30805 
L 425.286124 191.922842 
L 426.180985 192.337681 
L 427.075847 194.411875 
L 427.970708 195.62676 
L 428.86557 198.175056 
L 429.760431 201.938237 
L 430.655292 203.360542 
L 432.445015 196.960171 
L 434.234738 195.893443 
L 435.129599 193.700723 
L 436.024461 195.597129 
L 436.919322 194.797083 
L 437.814183 194.974871 
L 438.709045 194.263718 
L 439.603906 194.530401 
L 440.498768 193.19699 
L 441.393629 193.671092 
L 442.28849 195.83418 
L 443.183352 196.545332 
L 444.078213 195.863811 
L 444.973074 197.878743 
L 445.867936 196.130493 
L 446.762797 197.049065 
L 447.657659 196.841646 
L 448.55252 194.974871 
L 449.447381 196.841646 
L 450.342243 199.271416 
L 451.237104 198.441738 
L 452.131966 197.078696 
L 453.026827 196.752752 
L 453.921688 197.315747 
L 454.81655 197.641692 
L 455.711411 196.841646 
L 456.606272 194.915608 
L 458.395995 198.649158 
L 459.290857 197.493535 
L 460.185718 198.678789 
L 461.080579 197.552798 
L 461.975441 199.56773 
L 462.870302 194.530401 
L 463.765163 194.856345 
L 464.660025 195.567498 
L 466.449748 198.589895 
L 468.23947 200.871509 
L 469.134332 195.908258 
L 470.029193 156.128175 
L 470.924054 192.722888 
L 471.818916 179.611018 
L 472.713777 189.937542 
L 473.608639 191.804317 
L 474.5035 200.0122 
L 475.398361 203.123491 
L 476.293223 201.871567 
L 477.188084 201.641924 
L 478.082946 200.101094 
L 478.977807 200.575195 
L 479.872668 201.404873 
L 480.76753 201.167822 
L 481.662391 199.449204 
L 482.557252 199.597361 
L 483.452114 198.797314 
L 484.346975 199.212153 
L 485.241837 199.923306 
L 486.136698 199.864043 
L 487.031559 199.182522 
L 487.926421 198.70842 
L 489.716143 197.463904 
L 490.611005 196.367544 
L 492.400728 196.574964 
L 493.295589 197.686139 
L 494.19045 197.938005 
L 495.085312 199.508467 
L 496.875034 199.241785 
L 497.769896 196.960171 
L 498.664757 196.308281 
L 499.559619 196.071231 
L 500.45448 196.693489 
L 501.349341 197.130551 
L 502.244203 197.256484 
L 503.139064 195.83418 
L 504.033926 195.330447 
L 504.928787 192.811782 
L 505.823648 191.893211 
L 506.71851 192.396944 
L 507.613371 191.567266 
L 508.508232 192.130262 
L 509.403094 187.744822 
L 510.297955 178.055372 
L 511.192817 171.585861 
L 512.087678 175.032975 
L 512.982539 174.232928 
L 513.877401 175.833021 
L 514.772262 185.49284 
L 515.667123 192.475961 
L 516.561985 197.414518 
L 517.456846 197.908374 
L 518.351708 188.900445 
L 521.036292 202.293813 
L 522.826015 200.538156 
L 523.720876 197.612061 
L 524.615737 192.10063 
L 525.510599 197.878743 
L 526.40546 198.382476 
L 527.300321 200.515933 
L 528.195183 200.693721 
L 529.090044 200.367776 
L 529.984906 201.834528 
L 530.879767 202.827178 
L 531.774628 202.264182 
L 532.66949 202.264182 
L 533.564351 201.227085 
L 535.354074 201.390057 
L 536.248935 204.486533 
L 537.143797 204.990266 
L 538.038658 205.227317 
L 538.933519 206.056994 
L 539.828381 206.55085 
L 540.723242 204.071694 
L 541.618103 204.63469 
L 542.512965 206.679253 
L 543.407826 207.50893 
L 544.302688 209.405337 
L 545.197549 207.953401 
L 546.09241 207.094092 
L 546.987272 206.945935 
L 548.776995 201.671555 
L 549.671856 201.730818 
L 550.566717 203.330911 
L 551.461579 206.205151 
L 552.35644 207.242248 
L 553.251301 207.449668 
L 554.146163 207.331142 
L 555.041024 201.967869 
L 555.935886 199.034365 
L 557.725608 202.560496 
L 558.62047 203.908722 
L 559.515331 205.553262 
L 560.410192 207.568193 
L 561.305054 207.005197 
L 562.199915 210.649853 
L 563.989638 209.731281 
L 564.884499 210.14612 
L 565.779361 212.094381 
L 566.674222 211.775844 
L 567.569083 212.664785 
L 568.463945 212.605522 
L 569.358806 211.131362 
L 570.253668 212.872204 
L 571.148529 214.027827 
L 572.04339 212.961098 
L 572.938252 214.205615 
L 573.833113 215.064924 
L 574.727975 216.724279 
L 575.622836 214.538967 
L 576.517697 215.242712 
L 577.412559 213.257412 
L 578.30742 215.450131 
L 579.202281 213.494462 
L 580.097143 216.635385 
L 580.992004 214.353771 
L 581.886866 214.576007 
L 582.781727 215.568657 
L 583.676588 215.479763 
L 584.57145 218.146584 
L 585.466311 217.494694 
L 587.256034 214.294509 
L 588.150895 214.561191 
L 589.045757 215.301975 
L 589.940618 213.790776 
L 590.835479 209.138654 
L 591.730341 208.60529 
L 592.625202 205.345842 
L 593.520064 203.360542 
L 594.414925 208.753447 
L 595.309786 208.797894 
L 597.099509 215.86497 
L 597.99437 216.30944 
L 599.784093 208.546028 
L 600.678955 200.071462 
L 601.573816 194.974871 
L 602.468677 199.538098 
L 603.363539 199.982568 
L 604.2584 205.316211 
L 605.153261 205.316211 
L 606.048123 200.812246 
L 606.942984 204.605058 
L 607.837846 200.782615 
L 608.732707 200.427039 
L 609.627568 205.390289 
L 610.52243 200.101094 
L 611.417291 198.945471 
L 612.312152 203.09386 
L 613.207014 200.515933 
L 614.101875 194.471138 
L 614.996737 172.188365 
L 615.891598 60.344848 
L 616.786459 198.412107 
L 617.681321 199.419573 
L 619.471044 203.212385 
L 620.365905 203.064228 
L 621.260766 203.056821 
L 622.155628 204.42727 
L 623.050489 202.293813 
L 623.94535 199.864043 
L 624.840212 198.086162 
L 625.735073 197.019434 
L 627.524796 197.671323 
L 628.419657 198.293582 
L 629.314519 195.797141 
L 630.20938 194.560032 
L 631.104241 192.159893 
L 631.999103 192.070999 
L 632.893964 185.640997 
L 633.788826 186.611423 
L 634.683687 185.433577 
L 635.578548 182.529705 
L 636.47341 180.544405 
L 637.368271 179.210994 
L 638.263132 180.040672 
L 639.157994 183.003807 
L 640.052855 180.485142 
L 641.842578 168.61038 
L 642.737439 160.424721 
L 643.632301 166.143571 
L 644.527162 156.602277 
L 645.422024 153.787299 
L 646.316885 158.587577 
L 647.211746 167.44735 
L 648.106608 156.602277 
L 649.001469 159.595043 
L 649.89633 166.79546 
L 650.791192 167.980714 
L 651.686053 168.079485 
L 653.475776 186.292886 
L 654.370637 184.633531 
L 655.265499 183.759406 
L 656.16036 187.952242 
L 657.055221 184.366849 
L 657.950083 175.270025 
L 658.844944 174.05514 
L 659.739806 172.603204 
L 660.634667 155.12071 
L 661.529528 178.67763 
L 662.42439 175.744127 
L 663.319251 172.277259 
L 664.214113 173.047674 
L 665.108974 171.003111 
L 666.003835 171.388319 
L 666.898697 164.484215 
L 667.793558 160.572877 
L 668.688419 150.676008 
L 669.583281 142.349599 
L 670.478142 135.504758 
L 671.373004 139.890198 
L 672.267865 121.578025 
L 673.162726 129.993328 
L 674.057588 119.118624 
L 674.952449 110.46627 
L 675.84731 114.162781 
L 676.742172 108.184657 
L 677.637033 123.237381 
L 678.531895 145.534969 
L 679.426756 146.705407 
L 680.321617 153.313198 
L 681.216479 140.542087 
L 683.006201 111.207054 
L 683.901063 120.066827 
L 684.795924 119.977933 
L 685.690786 104.51037 
L 686.585647 99.028571 
L 687.480508 104.925209 
L 688.37537 117.681503 
L 689.270231 115.977701 
L 690.165093 126.73388 
L 691.059954 142.527387 
L 691.954815 151.713105 
L 692.849677 147.572124 
L 693.744538 159.476518 
L 694.639399 164.928685 
L 695.534261 173.106937 
L 696.429122 176.484911 
L 697.323984 150.883427 
L 698.218845 145.757204 
L 699.113706 151.001953 
L 700.008568 172.603204 
L 700.903429 140.275405 
L 701.79829 146.675776 
L 702.693152 180.574036 
L 703.588013 186.648462 
L 704.482875 189.522703 
L 705.377736 193.722946 
L 706.272597 195.034133 
L 707.167459 201.641924 
L 708.06232 206.086626 
L 708.957181 205.019897 
L 709.852043 208.427502 
L 710.746904 202.293813 
L 711.641766 204.042063 
L 712.536627 204.071694 
L 713.431488 210.175752 
L 714.32635 210.946167 
L 715.221211 208.98309 
L 716.116073 209.70165 
L 717.010934 208.042295 
L 717.905795 208.042295 
L 718.800657 210.560959 
L 719.695518 209.583125 
L 720.590379 206.797778 
L 721.485241 208.486765 
L 722.380102 212.13142 
L 724.169825 210.323908 
L 725.064686 206.982974 
L 725.959548 202.530864 
L 726.854409 203.242016 
L 728.644132 203.064228 
L 729.538993 202.382707 
L 730.433855 203.775381 
L 731.328716 199.893674 
L 732.223577 202.382707 
L 733.118439 203.212385 
L 734.0133 202.679021 
L 734.908162 203.427212 
L 735.803023 200.634458 
L 736.697884 201.878975 
L 737.592746 201.256716 
L 738.487607 197.612061 
L 739.382468 193.315515 
L 740.27733 198.412107 
L 741.172191 197.849111 
L 742.067053 193.84888 
L 742.961914 204.249482 
L 743.856775 200.101094 
L 744.751637 201.612292 
L 745.646498 200.427039 
L 746.541359 201.849343 
L 747.436221 205.405105 
L 748.331082 203.597593 
L 749.225944 202.723468 
L 750.120805 201.056705 
L 751.015666 164.958317 
L 751.910528 197.426865 
L 752.805389 205.553262 
L 753.70025 208.071926 
L 754.595112 212.161052 
L 755.489973 217.139118 
L 756.384835 217.687298 
L 757.279696 217.257643 
L 758.174557 217.731745 
L 759.069419 219.983727 
L 759.96428 217.85027 
L 760.859142 218.835513 
L 761.754003 215.509394 
L 762.648864 215.716813 
L 763.543726 219.065156 
L 764.438587 217.939164 
L 765.333448 216.457597 
L 766.22831 211.064692 
L 767.123171 207.745981 
L 768.018033 203.953169 
L 768.912894 210.575775 
L 769.807755 204.693952 
L 770.702617 200.278882 
L 771.597478 204.575427 
L 772.492339 203.360542 
L 773.387201 209.946109 
L 774.282062 207.182986 
L 775.176924 210.857273 
L 776.071785 210.205383 
L 776.966646 212.605522 
L 777.861508 212.842573 
L 778.756369 209.197917 
L 780.546092 211.953632 
L 781.440953 210.760971 
L 782.335815 209.109023 
L 783.230676 207.212617 
L 784.125537 202.797546 
L 785.020399 201.227085 
L 787.704983 212.901835 
L 788.599844 213.701882 
L 789.494706 218.591054 
L 790.389567 214.205615 
L 791.284428 205.908838 
L 792.17929 193.500711 
L 793.074151 197.700955 
L 793.969013 195.923074 
L 794.863874 196.337913 
L 795.758735 197.352786 
L 797.548458 182.440811 
L 798.443319 159.7432 
L 799.338181 181.240742 
L 800.233042 191.715423 
L 801.127904 192.130262 
L 802.022765 181.077769 
L 802.917626 153.313198 
L 803.812488 183.063069 
L 804.707349 177.403482 
L 805.602211 179.210994 
L 806.497072 179.418414 
L 807.391933 182.677862 
L 808.286795 180.396248 
L 810.076517 192.463614 
L 810.971379 196.337913 
L 811.86624 195.004502 
L 812.761102 193.404409 
L 813.655963 193.374778 
L 814.550824 195.567498 
L 815.445686 195.83418 
L 816.340547 198.70842 
L 817.235408 198.649158 
L 819.025131 191.774685 
L 819.919993 193.53775 
L 820.814854 193.759986 
L 821.709715 190.470906 
L 822.604577 193.404409 
L 823.499438 195.774917 
L 824.394299 196.367544 
L 825.289161 197.197222 
L 826.184022 198.441738 
L 827.078884 198.530632 
L 827.973745 196.797199 
L 828.868606 196.93054 
L 829.763468 195.537866 
L 830.658329 197.700955 
L 831.553191 193.908142 
L 832.448052 192.900677 
L 833.342913 199.271416 
L 834.237775 192.515469 
L 835.132636 189.967173 
L 836.027497 188.278186 
L 836.922359 187.055893 
L 837.81722 183.092701 
L 838.712082 177.215817 
L 839.606943 167.091774 
L 840.501804 172.603204 
L 841.396666 185.640997 
L 842.291527 189.562211 
L 843.186388 177.759058 
L 844.08125 197.582429 
L 844.976111 196.249019 
L 845.870973 62.567199 
L 846.765834 36.358273 
L 847.660695 166.528778 
L 848.555557 192.278418 
L 849.450418 194.982279 
L 850.345279 196.071231 
L 851.240141 196.397175 
L 852.135002 193.463672 
L 853.029864 194.678557 
L 853.029864 194.678557 
" clip-path="url(#p625ee9136d)" style="fill: none; stroke: #1f77b4; stroke-width: 1.2; stroke-linecap: round"/>
   </g>
   <g id="patch_3">
    <path d="M 58.1245 229.165 
L 58.1245 27.177 
" style="fill: none; stroke: #cccccc; stroke-linejoin: miter; stroke-linecap: square"/>
   </g>
   <g id="patch_4">
    <path d="M 890.8825 229.165 
L 890.8825 27.177 
" style="fill: none; stroke: #cccccc; stroke-linejoin: miter; stroke-linecap: square"/>
   </g>
   <g id="patch_5">
    <path d="M 58.1245 229.165 
L 890.8825 229.165 
" style="fill: none; stroke: #cccccc; stroke-linejoin: miter; stroke-linecap: square"/>
   </g>
   <g id="patch_6">
    <path d="M 58.1245 27.177 
L 890.8825 27.177 
" style="fill: none; stroke: #cccccc; stroke-linejoin: miter; stroke-linecap: square"/>
   </g>
   <g id="text_13">
    <!-- Henry Hub Price vs EIA Storage — Weekly -->
    <g style="fill: #262626" transform="translate(291.676 21.177) scale(0.192 -0.192)">
     <defs>
      <path id="ArialMT-50" d="M 494 0 
L 494 4581 
L 2222 4581 
Q 2678 4581 2919 4538 
Q 3256 4481 3484 4323 
Q 3713 4166 3852 3881 
Q 3991 3597 3991 3256 
Q 3991 2672 3619 2267 
Q 3247 1863 2275 1863 
L 1100 1863 
L 1100 0 
L 494 0 
z
M 1100 2403 
L 2284 2403 
Q 2872 2403 3119 2622 
Q 3366 2841 3366 3238 
Q 3366 3525 3220 3729 
Q 3075 3934 2838 4000 
Q 2684 4041 2272 4041 
L 1100 4041 
L 1100 2403 
z
" transform="scale(0.015625)"/>
      <path id="ArialMT-69" d="M 425 3934 
L 425 4581 
L 988 4581 
L 988 3934 
L 425 3934 
z
M 425 0 
L 425 3319 
L 988 3319 
L 988 0 
L 425 0 
z
" transform="scale(0.015625)"/>
      <path id="ArialMT-63" d="M 2588 1216 
L 3141 1144 
Q 3050 572 2676 248 
Q 2303 -75 1759 -75 
Q 1078 -75 664 370 
Q 250 816 250 1647 
Q 250 2184 428 2587 
Q 606 2991 970 3192 
Q 1334 3394 1763 3394 
Q 2303 3394 2647 3120 
Q 2991 2847 3088 2344 
L 2541 2259 
Q 2463 2594 2264 2762 
Q 2066 2931 1784 2931 
Q 1359 2931 1093 2626 
Q 828 2322 828 1663 
Q 828 994 1084 691 
Q 1341 388 1753 388 
Q 2084 388 2306 591 
Q 2528 794 2588 1216 
z
" transform="scale(0.015625)"/>
      <path id="ArialMT-76" d="M 1344 0 
L 81 3319 
L 675 3319 
L 1388 1331 
Q 1503 1009 1600 663 
Q 1675 925 1809 1294 
L 2547 3319 
L 3125 3319 
L 1869 0 
L 1344 0 
z
" transform="scale(0.015625)"/>
      <path id="ArialMT-73" d="M 197 991 
L 753 1078 
Q 800 744 1014 566 
Q 1228 388 1613 388 
Q 2000 388 2187 545 
Q 2375 703 2375 916 
Q 2375 1106 2209 1216 
Q 2094 1291 1634 1406 
Q 1016 1563 777 1677 
Q 538 1791 414 1992 
Q 291 2194 291 2438 
Q 291 2659 392 2848 
Q 494 3038 669 3163 
Q 800 3259 1026 3326 
Q 1253 3394 1513 3394 
Q 1903 3394 2198 3281 
Q 2494 3169 2634 2976 
Q 2775 2784 2828 2463 
L 2278 2388 
Q 2241 2644 2061 2787 
Q 1881 2931 1553 2931 
Q 1166 2931 1000 2803 
Q 834 2675 834 2503 
Q 834 2394 903 2306 
Q 972 2216 1119 2156 
Q 1203 2125 1616 2013 
Q 2213 1853 2448 1751 
Q 2684 1650 2818 1456 
Q 2953 1263 2953 975 
Q 2953 694 2789 445 
Q 2625 197 2315 61 
Q 2006 -75 1616 -75 
Q 969 -75 630 194 
Q 291 463 197 991 
z
" transform="scale(0.015625)"/>
      <path id="ArialMT-45" d="M 506 0 
L 506 4581 
L 3819 4581 
L 3819 4041 
L 1113 4041 
L 1113 2638 
L 3647 2638 
L 3647 2100 
L 1113 2100 
L 1113 541 
L 3925 541 
L 3925 0 
L 506 0 
z
" transform="scale(0.015625)"/>
      <path id="ArialMT-49" d="M 597 0 
L 597 4581 
L 1203 4581 
L 1203 0 
L 597 0 
z
" transform="scale(0.015625)"/>
      <path id="ArialMT-41" d="M -9 0 
L 1750 4581 
L 2403 4581 
L 4278 0 
L 3588 0 
L 3053 1388 
L 1138 1388 
L 634 0 
L -9 0 
z
M 1313 1881 
L 2866 1881 
L 2388 3150 
Q 2169 3728 2063 4100 
Q 1975 3659 1816 3225 
L 1313 1881 
z
" transform="scale(0.015625)"/>
      <path id="ArialMT-53" d="M 288 1472 
L 859 1522 
Q 900 1178 1048 958 
Q 1197 738 1509 602 
Q 1822 466 2213 466 
Q 2559 466 2825 569 
Q 3091 672 3220 851 
Q 3350 1031 3350 1244 
Q 3350 1459 3225 1620 
Q 3100 1781 2813 1891 
Q 2628 1963 1997 2114 
Q 1366 2266 1113 2400 
Q 784 2572 623 2826 
Q 463 3081 463 3397 
Q 463 3744 659 4045 
Q 856 4347 1234 4503 
Q 1613 4659 2075 4659 
Q 2584 4659 2973 4495 
Q 3363 4331 3572 4012 
Q 3781 3694 3797 3291 
L 3216 3247 
Q 3169 3681 2898 3903 
Q 2628 4125 2100 4125 
Q 1550 4125 1298 3923 
Q 1047 3722 1047 3438 
Q 1047 3191 1225 3031 
Q 1400 2872 2139 2705 
Q 2878 2538 3153 2413 
Q 3553 2228 3743 1945 
Q 3934 1663 3934 1294 
Q 3934 928 3725 604 
Q 3516 281 3123 101 
Q 2731 -78 2241 -78 
Q 1619 -78 1198 103 
Q 778 284 539 648 
Q 300 1013 288 1472 
z
" transform="scale(0.015625)"/>
      <path id="ArialMT-6f" d="M 213 1659 
Q 213 2581 725 3025 
Q 1153 3394 1769 3394 
Q 2453 3394 2887 2945 
Q 3322 2497 3322 1706 
Q 3322 1066 3130 698 
Q 2938 331 2570 128 
Q 2203 -75 1769 -75 
Q 1072 -75 642 372 
Q 213 819 213 1659 
z
M 791 1659 
Q 791 1022 1069 705 
Q 1347 388 1769 388 
Q 2188 388 2466 706 
Q 2744 1025 2744 1678 
Q 2744 2294 2464 2611 
Q 2184 2928 1769 2928 
Q 1347 2928 1069 2612 
Q 791 2297 791 1659 
z
" transform="scale(0.015625)"/>
      <path id="ArialMT-61" d="M 2588 409 
Q 2275 144 1986 34 
Q 1697 -75 1366 -75 
Q 819 -75 525 192 
Q 231 459 231 875 
Q 231 1119 342 1320 
Q 453 1522 633 1644 
Q 813 1766 1038 1828 
Q 1203 1872 1538 1913 
Q 2219 1994 2541 2106 
Q 2544 2222 2544 2253 
Q 2544 2597 2384 2738 
Q 2169 2928 1744 2928 
Q 1347 2928 1158 2789 
Q 969 2650 878 2297 
L 328 2372 
Q 403 2725 575 2942 
Q 747 3159 1072 3276 
Q 1397 3394 1825 3394 
Q 2250 3394 2515 3294 
Q 2781 3194 2906 3042 
Q 3031 2891 3081 2659 
Q 3109 2516 3109 2141 
L 3109 1391 
Q 3109 606 3145 398 
Q 3181 191 3288 0 
L 2700 0 
Q 2613 175 2588 409 
z
M 2541 1666 
Q 2234 1541 1622 1453 
Q 1275 1403 1131 1340 
Q 988 1278 909 1158 
Q 831 1038 831 891 
Q 831 666 1001 516 
Q 1172 366 1500 366 
Q 1825 366 2078 508 
Q 2331 650 2450 897 
Q 2541 1088 2541 1459 
L 2541 1666 
z
" transform="scale(0.015625)"/>
      <path id="ArialMT-67" d="M 319 -275 
L 866 -356 
Q 900 -609 1056 -725 
Q 1266 -881 1628 -881 
Q 2019 -881 2231 -725 
Q 2444 -569 2519 -288 
Q 2563 -116 2559 434 
Q 2191 0 1641 0 
Q 956 0 581 494 
Q 206 988 206 1678 
Q 206 2153 378 2554 
Q 550 2956 876 3175 
Q 1203 3394 1644 3394 
Q 2231 3394 2613 2919 
L 2613 3319 
L 3131 3319 
L 3131 450 
Q 3131 -325 2973 -648 
Q 2816 -972 2473 -1159 
Q 2131 -1347 1631 -1347 
Q 1038 -1347 672 -1080 
Q 306 -813 319 -275 
z
M 784 1719 
Q 784 1066 1043 766 
Q 1303 466 1694 466 
Q 2081 466 2343 764 
Q 2606 1063 2606 1700 
Q 2606 2309 2336 2618 
Q 2066 2928 1684 2928 
Q 1309 2928 1046 2623 
Q 784 2319 784 1719 
z
" transform="scale(0.015625)"/>
      <path id="ArialMT-2014" d="M 0 1431 
L 0 1884 
L 6400 1884 
L 6400 1431 
L 0 1431 
z
" transform="scale(0.015625)"/>
      <path id="ArialMT-57" d="M 1294 0 
L 78 4581 
L 700 4581 
L 1397 1578 
Q 1509 1106 1591 641 
Q 1766 1375 1797 1488 
L 2669 4581 
L 3400 4581 
L 4056 2263 
Q 4303 1400 4413 641 
Q 4500 1075 4641 1638 
L 5359 4581 
L 5969 4581 
L 4713 0 
L 4128 0 
L 3163 3491 
Q 3041 3928 3019 4028 
Q 2947 3713 2884 3491 
L 1913 0 
L 1294 0 
z
" transform="scale(0.015625)"/>
      <path id="ArialMT-6b" d="M 425 0 
L 425 4581 
L 988 4581 
L 988 1969 
L 2319 3319 
L 3047 3319 
L 1778 2088 
L 3175 0 
L 2481 0 
L 1384 1697 
L 988 1316 
L 988 0 
L 425 0 
z
" transform="scale(0.015625)"/>
      <path id="ArialMT-6c" d="M 409 0 
L 409 4581 
L 972 4581 
L 972 0 
L 409 0 
z
" transform="scale(0.015625)"/>
     </defs>
     <use xlink:href="#ArialMT-48"/>
     <use xlink:href="#ArialMT-65" transform="translate(72.216797 0)"/>
     <use xlink:href="#ArialMT-6e" transform="translate(127.832031 0)"/>
     <use xlink:href="#ArialMT-72" transform="translate(183.447266 0)"/>
     <use xlink:href="#ArialMT-79" transform="translate(216.748047 0)"/>
     <use xlink:href="#ArialMT-20" transform="translate(266.748047 0)"/>
     <use xlink:href="#ArialMT-48" transform="translate(294.53125 0)"/>
     <use xlink:href="#ArialMT-75" transform="translate(366.748047 0)"/>
     <use xlink:href="#ArialMT-62" transform="translate(422.363281 0)"/>
     <use xlink:href="#ArialMT-20" transform="translate(477.978516 0)"/>
     <use xlink:href="#ArialMT-50" transform="translate(505.761719 0)"/>
     <use xlink:href="#ArialMT-72" transform="translate(572.460938 0)"/>
     <use xlink:href="#ArialMT-69" transform="translate(605.761719 0)"/>
     <use xlink:href="#ArialMT-63" transform="translate(627.978516 0)"/>
     <use xlink:href="#ArialMT-65" transform="translate(677.978516 0)"/>
     <use xlink:href="#ArialMT-20" transform="translate(733.59375 0)"/>
     <use xlink:href="#ArialMT-76" transform="translate(761.376953 0)"/>
     <use xlink:href="#ArialMT-73" transform="translate(811.376953 0)"/>
     <use xlink:href="#ArialMT-20" transform="translate(861.376953 0)"/>
     <use xlink:href="#ArialMT-45" transform="translate(889.160156 0)"/>
     <use xlink:href="#ArialMT-49" transform="translate(955.859375 0)"/>
     <use xlink:href="#ArialMT-41" transform="translate(983.642578 0)"/>
     <use xlink:href="#ArialMT-20" transform="translate(1044.841797 0)"/>
     <use xlink:href="#ArialMT-53" transform="translate(1072.625 0)"/>
     <use xlink:href="#ArialMT-74" transform="translate(1139.324219 0)"/>
     <use xlink:href="#ArialMT-6f" transform="translate(1167.107422 0)"/>
     <use xlink:href="#ArialMT-72" transform="translate(1222.722656 0)"/>
     <use xlink:href="#ArialMT-61" transform="translate(1256.023438 0)"/>
     <use xlink:href="#ArialMT-67" transform="translate(1311.638672 0)"/>
     <use xlink:href="#ArialMT-65" transform="translate(1367.253906 0)"/>
     <use xlink:href="#ArialMT-20" transform="translate(1422.869141 0)"/>
     <use xlink:href="#ArialMT-2014" transform="translate(1450.652344 0)"/>
     <use xlink:href="#ArialMT-20" transform="translate(1550.652344 0)"/>
     <use xlink:href="#ArialMT-57" transform="translate(1578.435547 0)"/>
     <use xlink:href="#ArialMT-65" transform="translate(1671.070312 0)"/>
     <use xlink:href="#ArialMT-65" transform="translate(1726.685547 0)"/>
     <use xlink:href="#ArialMT-6b" transform="translate(1782.300781 0)"/>
     <use xlink:href="#ArialMT-6c" transform="translate(1832.300781 0)"/>
     <use xlink:href="#ArialMT-79" transform="translate(1854.517578 0)"/>
    </g>
   </g>
   <g id="legend_1">
    <g id="patch_7">
     <path d="M 70.4445 92.836 
L 297.908 92.836 
Q 301.428 92.836 301.428 89.316 
L 301.428 39.497 
Q 301.428 35.977 297.908 35.977 
L 70.4445 35.977 
Q 66.9245 35.977 66.9245 39.497 
L 66.9245 89.316 
Q 66.9245 92.836 70.4445 92.836 
z
" style="fill: #ffffff; opacity: 0.8; stroke: #cccccc; stroke-width: 0.8; stroke-linejoin: miter"/>
    </g>
    <g id="line2d_15">
     <path d="M 73.9645 50.61525 
L 91.5645 50.61525 
L 109.1645 50.61525 
" style="fill: none; stroke: #1f77b4; stroke-width: 1.2; stroke-linecap: round"/>
    </g>
    <g id="text_14">
     <!-- Henry Hub ($/MMBtu) -->
     <g style="fill: #262626" transform="translate(123.2445 56.77525) scale(0.176 -0.176)">
      <use xlink:href="#ArialMT-48"/>
      <use xlink:href="#ArialMT-65" transform="translate(72.216797 0)"/>
      <use xlink:href="#ArialMT-6e" transform="translate(127.832031 0)"/>
      <use xlink:href="#ArialMT-72" transform="translate(183.447266 0)"/>
      <use xlink:href="#ArialMT-79" transform="translate(216.748047 0)"/>
      <use xlink:href="#ArialMT-20" transform="translate(266.748047 0)"/>
      <use xlink:href="#ArialMT-48" transform="translate(294.53125 0)"/>
      <use xlink:href="#ArialMT-75" transform="translate(366.748047 0)"/>
      <use xlink:href="#ArialMT-62" transform="translate(422.363281 0)"/>
      <use xlink:href="#ArialMT-20" transform="translate(477.978516 0)"/>
      <use xlink:href="#ArialMT-28" transform="translate(505.761719 0)"/>
      <use xlink:href="#ArialMT-24" transform="translate(539.0625 0)"/>
      <use xlink:href="#ArialMT-2f" transform="translate(594.677734 0)"/>
      <use xlink:href="#ArialMT-4d" transform="translate(622.460938 0)"/>
      <use xlink:href="#ArialMT-4d" transform="translate(705.761719 0)"/>
      <use xlink:href="#ArialMT-42" transform="translate(789.0625 0)"/>
      <use xlink:href="#ArialMT-74" transform="translate(855.761719 0)"/>
      <use xlink:href="#ArialMT-75" transform="translate(883.544922 0)"/>
      <use xlink:href="#ArialMT-29" transform="translate(939.160156 0)"/>
     </g>
    </g>
    <g id="line2d_16">
     <path d="M 73.9645 75.93175 
L 91.5645 75.93175 
L 109.1645 75.93175 
" style="fill: none; stroke: #2ca02c; stroke-opacity: 0.6; stroke-linecap: round"/>
    </g>
    <g id="text_15">
     <!-- Storage (Bcf) -->
     <g style="fill: #262626" transform="translate(123.2445 82.09175) scale(0.176 -0.176)">
      <defs>
       <path id="ArialMT-66" d="M 556 0 
L 556 2881 
L 59 2881 
L 59 3319 
L 556 3319 
L 556 3672 
Q 556 4006 616 4169 
Q 697 4388 901 4523 
Q 1106 4659 1475 4659 
Q 1713 4659 2000 4603 
L 1916 4113 
Q 1741 4144 1584 4144 
Q 1328 4144 1222 4034 
Q 1116 3925 1116 3625 
L 1116 3319 
L 1763 3319 
L 1763 2881 
L 1116 2881 
L 1116 0 
L 556 0 
z
" transform="scale(0.015625)"/>
      </defs>
      <use xlink:href="#ArialMT-53"/>
      <use xlink:href="#ArialMT-74" transform="translate(66.699219 0)"/>
      <use xlink:href="#ArialMT-6f" transform="translate(94.482422 0)"/>
      <use xlink:href="#ArialMT-72" transform="translate(150.097656 0)"/>
      <use xlink:href="#ArialMT-61" transform="translate(183.398438 0)"/>
      <use xlink:href="#ArialMT-67" transform="translate(239.013672 0)"/>
      <use xlink:href="#ArialMT-65" transform="translate(294.628906 0)"/>
      <use xlink:href="#ArialMT-20" transform="translate(350.244141 0)"/>
      <use xlink:href="#ArialMT-28" transform="translate(378.027344 0)"/>
      <use xlink:href="#ArialMT-42" transform="translate(411.328125 0)"/>
      <use xlink:href="#ArialMT-63" transform="translate(478.027344 0)"/>
      <use xlink:href="#ArialMT-66" transform="translate(528.027344 0)"/>
      <use xlink:href="#ArialMT-29" transform="translate(555.810547 0)"/>
     </g>
    </g>
   </g>
  </g>
  <g id="axes_2">
   <g id="matplotlib.axis_3">
    <g id="ytick_3">
     <g id="line2d_17">
      <path d="M 58.1245 209.956399 
L 890.8825 209.956399 
" clip-path="url(#p625ee9136d)" style="fill: none; stroke: #cccccc; stroke-width: 0.8; stroke-linecap: round"/>
     </g>
     <g id="line2d_18">
      <defs>
       <path id="m2f2c485489" d="M 0 0 
L 4.8 0 
" style="stroke: #262626"/>
      </defs>
      <g>
       <use xlink:href="#m2f2c485489" x="890.8825" y="209.956399" style="fill: #262626; stroke: #262626"/>
      </g>
     </g>
     <g id="text_16">
      <!-- 1000 -->
      <g style="fill: #262626" transform="translate(899.1825 216.255274) scale(0.176 -0.176)">
       <use xlink:href="#ArialMT-31"/>
       <use xlink:href="#ArialMT-30" transform="translate(55.615234 0)"/>
       <use xlink:href="#ArialMT-30" transform="translate(111.230469 0)"/>
       <use xlink:href="#ArialMT-30" transform="translate(166.845703 0)"/>
      </g>
     </g>
    </g>
    <g id="ytick_4">
     <g id="line2d_19">
      <path d="M 58.1245 152.982941 
L 890.8825 152.982941 
" clip-path="url(#p625ee9136d)" style="fill: none; stroke: #cccccc; stroke-width: 0.8; stroke-linecap: round"/>
     </g>
     <g id="line2d_20">
      <g>
       <use xlink:href="#m2f2c485489" x="890.8825" y="152.982941" style="fill: #262626; stroke: #262626"/>
      </g>
     </g>
     <g id="text_17">
      <!-- 2000 -->
      <g style="fill: #262626" transform="translate(899.1825 159.281816) scale(0.176 -0.176)">
       <use xlink:href="#ArialMT-32"/>
       <use xlink:href="#ArialMT-30" transform="translate(55.615234 0)"/>
       <use xlink:href="#ArialMT-30" transform="translate(111.230469 0)"/>
       <use xlink:href="#ArialMT-30" transform="translate(166.845703 0)"/>
      </g>
     </g>
    </g>
    <g id="ytick_5">
     <g id="line2d_21">
      <path d="M 58.1245 96.009483 
L 890.8825 96.009483 
" clip-path="url(#p625ee9136d)" style="fill: none; stroke: #cccccc; stroke-width: 0.8; stroke-linecap: round"/>
     </g>
     <g id="line2d_22">
      <g>
       <use xlink:href="#m2f2c485489" x="890.8825" y="96.009483" style="fill: #262626; stroke: #262626"/>
      </g>
     </g>
     <g id="text_18">
      <!-- 3000 -->
      <g style="fill: #262626" transform="translate(899.1825 102.308358) scale(0.176 -0.176)">
       <defs>
        <path id="ArialMT-33" d="M 269 1209 
L 831 1284 
Q 928 806 1161 595 
Q 1394 384 1728 384 
Q 2125 384 2398 659 
Q 2672 934 2672 1341 
Q 2672 1728 2419 1979 
Q 2166 2231 1775 2231 
Q 1616 2231 1378 2169 
L 1441 2663 
Q 1497 2656 1531 2656 
Q 1891 2656 2178 2843 
Q 2466 3031 2466 3422 
Q 2466 3731 2256 3934 
Q 2047 4138 1716 4138 
Q 1388 4138 1169 3931 
Q 950 3725 888 3313 
L 325 3413 
Q 428 3978 793 4289 
Q 1159 4600 1703 4600 
Q 2078 4600 2393 4439 
Q 2709 4278 2876 4000 
Q 3044 3722 3044 3409 
Q 3044 3113 2884 2869 
Q 2725 2625 2413 2481 
Q 2819 2388 3044 2092 
Q 3269 1797 3269 1353 
Q 3269 753 2831 336 
Q 2394 -81 1725 -81 
Q 1122 -81 723 278 
Q 325 638 269 1209 
z
" transform="scale(0.015625)"/>
       </defs>
       <use xlink:href="#ArialMT-33"/>
       <use xlink:href="#ArialMT-30" transform="translate(55.615234 0)"/>
       <use xlink:href="#ArialMT-30" transform="translate(111.230469 0)"/>
       <use xlink:href="#ArialMT-30" transform="translate(166.845703 0)"/>
      </g>
     </g>
    </g>
    <g id="ytick_6">
     <g id="line2d_23">
      <path d="M 58.1245 39.036025 
L 890.8825 39.036025 
" clip-path="url(#p625ee9136d)" style="fill: none; stroke: #cccccc; stroke-width: 0.8; stroke-linecap: round"/>
     </g>
     <g id="line2d_24">
      <g>
       <use xlink:href="#m2f2c485489" x="890.8825" y="39.036025" style="fill: #262626; stroke: #262626"/>
      </g>
     </g>
     <g id="text_19">
      <!-- 4000 -->
      <g style="fill: #262626" transform="translate(899.1825 45.3349) scale(0.176 -0.176)">
       <use xlink:href="#ArialMT-34"/>
       <use xlink:href="#ArialMT-30" transform="translate(55.615234 0)"/>
       <use xlink:href="#ArialMT-30" transform="translate(111.230469 0)"/>
       <use xlink:href="#ArialMT-30" transform="translate(166.845703 0)"/>
      </g>
     </g>
    </g>
    <g id="text_20">
     <!-- Storage (Bcf) -->
     <g style="fill: #2ca02c" transform="translate(956.3085 184.7225) rotate(-90) scale(0.192 -0.192)">
      <use xlink:href="#ArialMT-53"/>
      <use xlink:href="#ArialMT-74" transform="translate(66.699219 0)"/>
      <use xlink:href="#ArialMT-6f" transform="translate(94.482422 0)"/>
      <use xlink:href="#ArialMT-72" transform="translate(150.097656 0)"/>
      <use xlink:href="#ArialMT-61" transform="translate(183.398438 0)"/>
      <use xlink:href="#ArialMT-67" transform="translate(239.013672 0)"/>
      <use xlink:href="#ArialMT-65" transform="translate(294.628906 0)"/>
      <use xlink:href="#ArialMT-20" transform="translate(350.244141 0)"/>
      <use xlink:href="#ArialMT-28" transform="translate(378.027344 0)"/>
      <use xlink:href="#ArialMT-42" transform="translate(411.328125 0)"/>
      <use xlink:href="#ArialMT-63" transform="translate(478.027344 0)"/>
      <use xlink:href="#ArialMT-66" transform="translate(528.027344 0)"/>
      <use xlink:href="#ArialMT-29" transform="translate(555.810547 0)"/>
     </g>
    </g>
   </g>
   <g id="line2d_25">
    <path d="M 95.977136 89.343588 
L 97.766859 118.400052 
L 98.661721 123.299769 
L 99.556582 129.851717 
L 102.241166 161.358039 
L 104.030889 174.234041 
L 104.92575 174.974696 
L 106.715473 173.607333 
L 107.610334 171.784182 
L 110.294918 157.996605 
L 111.18978 153.324782 
L 112.084641 147.798356 
L 112.979503 143.58232 
L 113.874364 137.714054 
L 117.453809 117.37453 
L 118.348671 114.013096 
L 120.138394 105.068263 
L 121.033255 102.105643 
L 122.822978 99.029076 
L 123.717839 96.921058 
L 124.612701 95.268828 
L 125.507562 92.932916 
L 126.402423 90.02727 
L 127.297285 86.722809 
L 128.192146 80.79757 
L 129.981869 72.365498 
L 131.771592 62.395143 
L 132.666453 57.096611 
L 134.456176 49.234274 
L 135.351037 48.151778 
L 137.14076 48.83546 
L 138.035621 50.14585 
L 138.930483 55.159514 
L 141.615067 82.791641 
L 143.404789 98.288421 
L 144.299651 112.189945 
L 146.089374 132.757363 
L 147.879096 158.110552 
L 150.563681 171.670235 
L 151.458542 174.860749 
L 152.353403 175.145616 
L 153.248265 174.518908 
L 154.143126 177.02574 
L 155.037987 175.430483 
L 155.932849 172.695757 
L 156.82771 170.92958 
L 158.617433 162.839349 
L 159.512294 157.597791 
L 160.407156 151.672551 
L 162.196878 142.271931 
L 163.09174 138.340762 
L 163.986601 132.814337 
L 164.881463 128.370407 
L 166.671185 118.172158 
L 167.566047 114.753751 
L 169.35577 109.740086 
L 170.250631 108.372723 
L 171.145492 105.524051 
L 172.040354 101.364988 
L 172.935215 98.288421 
L 173.830076 94.585147 
L 175.619799 84.557818 
L 178.304383 66.326312 
L 180.094106 55.159514 
L 180.988967 50.829531 
L 181.883829 48.721513 
L 182.77869 47.923885 
L 183.673552 47.411124 
L 184.568413 47.582044 
L 185.463274 48.721513 
L 187.252997 60.230152 
L 189.04272 69.174984 
L 190.832443 79.48718 
L 191.727304 90.426084 
L 192.622165 97.946581 
L 193.517027 102.39051 
L 194.411888 109.626139 
L 195.30675 119.083733 
L 197.096472 128.313434 
L 197.991334 131.959735 
L 198.886195 131.333027 
L 200.675918 126.091469 
L 201.570779 125.749628 
L 202.465641 124.325292 
L 203.360502 121.875433 
L 205.150225 118.457025 
L 206.045086 114.981645 
L 207.834809 106.549573 
L 211.414254 92.420155 
L 212.309116 90.19819 
L 213.203977 88.318066 
L 215.888561 83.646243 
L 217.678284 81.139411 
L 218.573145 78.461658 
L 219.468007 74.70141 
L 221.25773 71.56787 
L 222.152591 67.750648 
L 224.837175 54.646753 
L 225.732036 51.79808 
L 227.521759 44.334557 
L 228.416621 43.138114 
L 229.311482 44.163636 
L 230.206343 46.271654 
L 231.101205 46.100734 
L 231.996066 50.202823 
L 232.890927 50.088876 
L 233.785789 54.7607 
L 234.68065 58.805815 
L 235.575512 66.554205 
L 236.470373 78.00587 
L 237.365234 86.494916 
L 238.260096 96.237377 
L 239.154957 107.290228 
L 240.049819 114.013096 
L 240.94468 123.014902 
L 241.839541 130.193558 
L 242.734403 139.936019 
L 244.524125 156.515295 
L 245.418987 160.04765 
L 247.20871 170.815633 
L 248.103571 171.556288 
L 249.893294 168.137881 
L 250.788155 165.744995 
L 254.367601 144.89271 
L 255.262462 138.62563 
L 257.947046 122.616088 
L 260.63163 110.537715 
L 261.526492 108.201803 
L 262.421353 104.840369 
L 263.316214 99.427891 
L 264.211076 95.610669 
L 265.105937 92.420155 
L 266.000799 88.54596 
L 268.685383 78.974419 
L 269.580244 74.074702 
L 271.369967 63.135798 
L 273.15969 53.792151 
L 274.949412 49.519141 
L 275.844274 48.493619 
L 276.739135 51.057425 
L 277.633996 51.855053 
L 278.528858 61.084753 
L 279.423719 65.64263 
L 280.318581 81.880066 
L 281.213442 91.964368 
L 282.108303 97.43382 
L 283.003165 106.435626 
L 283.898026 122.843982 
L 284.792887 128.826195 
L 288.372333 184.660183 
L 289.267194 190.129635 
L 290.162056 198.789601 
L 291.056917 209.842452 
L 291.951779 212.634151 
L 292.84664 215.938612 
L 293.741501 219.983727 
L 294.636363 219.812807 
L 295.531224 218.502417 
L 296.426085 215.710718 
L 298.215808 206.822859 
L 300.900392 188.306485 
L 302.690115 175.37351 
L 304.479838 162.725402 
L 308.059283 140.505754 
L 309.849006 130.877239 
L 313.428452 112.588759 
L 316.113036 96.693165 
L 317.902759 84.329924 
L 321.482204 63.477639 
L 322.377065 61.1987 
L 323.271927 62.167249 
L 324.166788 71.396949 
L 325.06165 72.650365 
L 325.956511 75.556012 
L 326.851372 79.14534 
L 327.746234 81.994012 
L 328.641095 83.475322 
L 329.535956 90.938845 
L 331.325679 116.690848 
L 332.220541 122.046353 
L 333.115402 128.598301 
L 334.010263 137.714054 
L 334.905125 143.981135 
L 337.589709 180.842962 
L 338.48457 183.29282 
L 339.379432 182.666112 
L 340.274293 183.691635 
L 341.169154 182.837033 
L 342.064016 179.247705 
L 343.853739 169.44827 
L 344.7486 165.232234 
L 345.643461 158.851207 
L 346.538323 153.609649 
L 347.433184 147.228622 
L 348.328045 139.708125 
L 349.222907 133.384071 
L 350.117768 128.313434 
L 351.907491 119.995309 
L 352.802352 115.038618 
L 353.697214 109.455219 
L 354.592075 106.093785 
L 355.486936 103.302086 
L 356.381798 101.137094 
L 357.276659 97.43382 
L 358.171521 94.4712 
L 359.066382 90.653978 
L 359.961243 85.184526 
L 361.750966 76.866401 
L 363.540689 65.414736 
L 365.330412 54.361885 
L 366.225273 49.690062 
L 368.014996 42.967194 
L 368.909857 39.890627 
L 369.804719 39.036025 
L 370.69958 38.523264 
L 371.594441 41.542857 
L 372.489303 45.87284 
L 374.279025 49.633088 
L 375.173887 52.937549 
L 376.068748 59.37555 
L 377.858471 79.088366 
L 378.753332 91.109766 
L 379.648194 99.769731 
L 380.543055 103.757873 
L 381.437917 113.044547 
L 382.332778 119.710442 
L 383.227639 122.445167 
L 384.122501 125.692655 
L 385.017362 125.749628 
L 385.912223 124.895026 
L 386.807085 126.319363 
L 387.701946 125.635681 
L 388.596808 125.806602 
L 389.491669 125.407787 
L 391.281392 117.37453 
L 392.176253 114.184016 
L 396.65056 93.673571 
L 397.545421 90.141217 
L 399.335144 85.811234 
L 400.230005 82.164933 
L 401.124867 80.227835 
L 402.019728 79.259286 
L 402.91459 79.601127 
L 403.809451 77.948897 
L 404.704312 76.695481 
L 405.599174 76.068773 
L 406.494035 73.163126 
L 407.388897 71.112082 
L 408.283758 67.579728 
L 410.073481 61.825408 
L 412.758065 48.379672 
L 413.652926 44.22061 
L 415.442649 38.067476 
L 416.33751 36.358273 
L 417.232372 36.47222 
L 418.127233 39.320893 
L 419.022094 41.713778 
L 419.916956 50.088876 
L 420.811817 61.996329 
L 421.706679 75.499038 
L 422.60154 78.290738 
L 423.496401 86.89373 
L 424.391263 100.73828 
L 425.286124 107.518122 
L 426.180985 112.474812 
L 427.075847 121.134778 
L 427.970708 127.629752 
L 428.86557 132.70039 
L 429.760431 132.301576 
L 430.655292 136.175771 
L 431.550154 139.195364 
L 432.445015 147.741383 
L 433.339877 150.191241 
L 434.234738 150.077295 
L 435.129599 149.50756 
L 436.024461 146.430993 
L 437.814183 138.397736 
L 438.709045 135.83393 
L 440.498768 127.686726 
L 441.393629 123.071876 
L 442.28849 117.032689 
L 443.183352 112.588759 
L 444.078213 109.113378 
L 444.973074 106.492599 
L 446.762797 99.655784 
L 447.657659 98.117501 
L 449.447381 96.066457 
L 450.342243 94.357253 
L 451.237104 91.33766 
L 452.131966 88.887801 
L 453.026827 87.178597 
L 453.921688 83.475322 
L 455.711411 72.764312 
L 456.606272 69.459852 
L 457.501134 67.066966 
L 458.395995 62.110276 
L 459.290857 59.261603 
L 461.080579 51.855053 
L 461.975441 51.000451 
L 462.870302 52.025974 
L 463.765163 54.646753 
L 464.660025 56.526877 
L 465.554886 56.41293 
L 466.449748 60.344098 
L 467.344609 70.713268 
L 468.23947 77.094295 
L 469.134332 88.830827 
L 470.029193 109.284299 
L 470.924054 119.710442 
L 471.818916 136.118797 
L 472.713777 141.75917 
L 473.608639 148.539011 
L 474.5035 159.591862 
L 475.398361 166.656571 
L 476.293223 171.1005 
L 477.188084 174.347988 
L 478.977807 184.546237 
L 479.872668 188.135564 
L 480.76753 189.787795 
L 481.662391 190.87029 
L 482.557252 192.921335 
L 483.452114 193.946857 
L 484.346975 190.414503 
L 485.241837 185.343865 
L 486.136698 179.304678 
L 489.716143 157.939632 
L 490.611005 152.527153 
L 491.505866 148.766905 
L 492.400728 144.322975 
L 494.19045 138.853523 
L 495.085312 137.48616 
L 495.980173 135.606036 
L 496.875034 132.87131 
L 497.769896 130.991186 
L 498.664757 128.199487 
L 501.349341 116.747822 
L 502.244203 111.848104 
L 503.139064 109.227325 
L 504.928787 98.516315 
L 505.823648 93.901465 
L 506.71851 90.597005 
L 507.613371 87.862279 
L 508.508232 84.159004 
L 509.403094 81.937039 
L 510.297955 89.571482 
L 512.087678 96.522244 
L 512.982539 100.9092 
L 513.877401 108.942458 
L 514.772262 111.677184 
L 515.667123 112.816653 
L 517.456846 122.616088 
L 519.246569 141.75917 
L 520.14143 155.261879 
L 521.036292 159.705809 
L 522.826015 179.247705 
L 523.720876 187.73675 
L 524.615737 199.131442 
L 525.510599 201.809194 
L 526.40546 203.860239 
L 528.195183 201.125513 
L 529.984906 190.642396 
L 530.879767 183.634661 
L 531.774628 178.791917 
L 534.459212 160.560411 
L 535.354074 153.780569 
L 536.248935 147.969277 
L 537.143797 141.417329 
L 538.933519 130.763292 
L 539.828381 126.148442 
L 540.723242 122.616088 
L 541.618103 120.565043 
L 542.512965 116.861769 
L 546.09241 104.156688 
L 548.776995 90.141217 
L 553.251301 61.483568 
L 554.146163 56.41293 
L 555.041024 54.475832 
L 555.935886 54.304912 
L 556.830747 59.660417 
L 557.725608 61.255674 
L 558.62047 62.338169 
L 559.515331 66.497232 
L 560.410192 72.593392 
L 561.305054 81.766119 
L 562.199915 85.070579 
L 563.094777 87.577411 
L 563.989638 93.787518 
L 564.884499 99.029076 
L 565.779361 110.480741 
L 566.674222 118.286105 
L 567.569083 124.838053 
L 569.358806 141.588249 
L 570.253668 147.798356 
L 571.148529 150.533082 
L 572.04339 151.045843 
L 572.938252 152.698074 
L 573.833113 153.780569 
L 574.727975 151.615578 
L 575.622836 147.456515 
L 576.517697 145.006657 
L 577.412559 141.018515 
L 579.202281 128.940142 
L 580.097143 124.325292 
L 581.886866 112.303892 
L 583.676588 102.162617 
L 584.57145 95.325802 
L 585.466311 91.622527 
L 586.361172 88.432013 
L 587.256034 85.868208 
L 588.150895 83.76019 
L 589.045757 82.27888 
L 589.940618 80.398756 
L 590.835479 77.094295 
L 592.625202 72.080631 
L 593.520064 70.08656 
L 594.414925 66.098418 
L 595.309786 61.02778 
L 596.204648 57.267532 
L 597.99437 48.66454 
L 599.784093 43.252061 
L 600.678955 41.599831 
L 601.573816 43.650875 
L 602.468677 43.195088 
L 603.363539 41.42891 
L 604.2584 42.454433 
L 605.153261 42.511406 
L 606.048123 47.695991 
L 606.942984 54.646753 
L 607.837846 63.306718 
L 608.732707 69.801692 
L 610.52243 84.842685 
L 611.417291 95.496722 
L 612.312152 102.789325 
L 614.101875 123.47069 
L 614.996737 136.973399 
L 615.891598 156.230428 
L 616.786459 161.813827 
L 617.681321 164.776447 
L 618.576182 165.403155 
L 619.471044 167.226305 
L 620.365905 166.428677 
L 621.260766 165.289208 
L 622.155628 161.813827 
L 623.050489 159.648835 
L 623.94535 158.794234 
L 624.840212 155.375826 
L 626.629935 147.285595 
L 627.524796 140.733647 
L 629.314519 129.56685 
L 630.20938 128.655274 
L 631.104241 125.521734 
L 631.999103 121.191751 
L 632.893964 120.280176 
L 634.683687 114.354936 
L 635.578548 112.303892 
L 636.47341 111.563237 
L 638.263132 106.150759 
L 639.157994 104.498528 
L 640.052855 103.359059 
L 640.947717 100.396439 
L 643.632301 86.323995 
L 644.527162 79.601127 
L 645.422024 74.986277 
L 647.211746 64.788028 
L 648.106608 61.1987 
L 649.001469 60.799886 
L 649.89633 59.318576 
L 650.791192 60.515019 
L 652.580915 67.237887 
L 653.475776 72.251551 
L 654.370637 75.385091 
L 655.265499 83.133482 
L 656.16036 84.899659 
L 657.055221 95.097908 
L 658.844944 119.311627 
L 659.739806 134.580514 
L 660.634667 147.228622 
L 661.529528 158.053579 
L 664.214113 180.387174 
L 665.108974 184.888077 
L 666.003835 187.793724 
L 666.898697 186.312414 
L 667.793558 188.192538 
L 668.688419 187.337936 
L 669.583281 184.318343 
L 670.478142 182.039404 
L 672.267865 173.322465 
L 677.637033 143.354427 
L 678.531895 138.682603 
L 680.321617 131.959735 
L 681.216479 130.136584 
L 682.11134 129.281982 
L 683.901063 124.439239 
L 684.795924 123.413716 
L 687.480508 113.443361 
L 688.37537 109.056405 
L 690.165093 97.319873 
L 691.954815 82.848614 
L 692.849677 76.52456 
L 693.744538 73.561941 
L 694.639399 67.465781 
L 695.534261 62.964878 
L 696.429122 59.318576 
L 698.218845 68.491303 
L 699.113706 69.687746 
L 700.008568 72.536418 
L 700.903429 77.493109 
L 702.693152 102.21959 
L 703.588013 101.592882 
L 705.377736 111.164423 
L 706.272597 119.767415 
L 707.167459 132.130655 
L 708.06232 137.828001 
L 708.957181 141.873117 
L 710.746904 151.273737 
L 711.641766 154.578198 
L 712.536627 158.680287 
L 713.431488 161.358039 
L 714.32635 162.668429 
L 715.221211 161.244092 
L 717.010934 152.47018 
L 717.905795 149.393613 
L 718.800657 144.949683 
L 721.485241 127.572779 
L 722.380102 121.647539 
L 723.274964 116.861769 
L 724.169825 111.44929 
L 725.959548 102.789325 
L 726.854409 99.997625 
L 727.74927 97.661713 
L 729.538993 95.95251 
L 730.433855 94.300279 
L 731.328716 92.306208 
L 732.223577 91.280686 
L 734.0133 87.577411 
L 735.803023 80.683623 
L 739.382468 60.344098 
L 741.172191 51.627159 
L 742.067053 51.969 
L 742.961914 48.550593 
L 743.856775 48.949407 
L 744.751637 48.379672 
L 745.646498 55.045567 
L 746.541359 58.179107 
L 748.331082 68.092489 
L 749.225944 68.890117 
L 751.015666 85.640314 
L 751.910528 104.213661 
L 752.805389 115.437432 
L 753.70025 119.710442 
L 755.489973 126.205416 
L 756.384835 131.674868 
L 757.279696 133.953806 
L 758.174557 134.466567 
L 759.069419 134.067753 
L 760.859142 138.226815 
L 761.754003 136.859452 
L 762.648864 134.010779 
L 763.543726 128.769221 
L 764.438587 125.407787 
L 765.333448 120.565043 
L 767.123171 112.019025 
L 768.018033 107.176281 
L 768.912894 101.706829 
L 770.702617 93.445677 
L 771.597478 90.19819 
L 772.492339 88.37504 
L 773.387201 84.671765 
L 774.282062 84.10203 
L 775.176924 82.848614 
L 776.071785 81.823092 
L 776.966646 80.626649 
L 777.861508 80.96849 
L 779.65123 76.980348 
L 780.546092 76.239693 
L 781.440953 73.960755 
L 782.335815 70.656294 
L 783.230676 67.921568 
L 784.125537 64.788028 
L 786.810122 51.285319 
L 787.704983 46.784416 
L 788.599844 42.967194 
L 789.494706 40.631282 
L 791.284428 40.916149 
L 792.17929 42.625353 
L 793.074151 53.45031 
L 793.969013 60.571992 
L 794.863874 65.870524 
L 795.758735 72.479445 
L 796.653597 74.758383 
L 797.548458 89.457535 
L 798.443319 102.162617 
L 799.338181 120.451096 
L 800.233042 130.364478 
L 801.127904 136.061824 
L 802.022765 147.228622 
L 802.917626 162.098694 
L 803.812488 166.656571 
L 804.707349 170.188925 
L 805.602211 169.676164 
L 806.497072 167.568146 
L 807.391933 165.915916 
L 808.286795 162.668429 
L 809.181656 161.756853 
L 810.076517 156.743189 
L 814.550824 125.863575 
L 816.340547 112.702706 
L 818.13027 101.820776 
L 819.919993 95.667642 
L 820.814854 93.046863 
L 821.709715 91.736474 
L 822.604577 89.001748 
L 823.499438 88.602934 
L 824.394299 85.41242 
L 825.289161 84.671765 
L 826.184022 83.646243 
L 827.078884 80.512703 
L 827.973745 76.467587 
L 828.868606 71.339976 
L 829.763468 67.066966 
L 830.658329 64.047373 
L 834.237775 45.758893 
L 835.132636 43.878769 
L 836.027497 41.314964 
L 836.922359 42.112592 
L 838.712082 43.422981 
L 841.396666 72.479445 
L 842.291527 74.644436 
L 843.186388 81.424278 
L 844.08125 85.469393 
L 844.976111 92.306208 
L 845.870973 106.093785 
L 846.765834 126.60423 
L 847.660695 140.790621 
L 848.555557 148.994799 
L 849.450418 151.957419 
L 850.345279 159.477915 
L 851.240141 161.642906 
L 852.135002 159.648835 
L 853.029864 162.725402 
L 853.029864 162.725402 
" clip-path="url(#p625ee9136d)" style="fill: none; stroke: #2ca02c; stroke-opacity: 0.6; stroke-linecap: round"/>
   </g>
   <g id="patch_8">
    <path d="M 58.1245 229.165 
L 58.1245 27.177 
" style="fill: none; stroke: #cccccc; stroke-linejoin: miter; stroke-linecap: square"/>
   </g>
   <g id="patch_9">
    <path d="M 890.8825 229.165 
L 890.8825 27.177 
" style="fill: none; stroke: #cccccc; stroke-linejoin: miter; stroke-linecap: square"/>
   </g>
   <g id="patch_10">
    <path d="M 58.1245 229.165 
L 890.8825 229.165 
" style="fill: none; stroke: #cccccc; stroke-linejoin: miter; stroke-linecap: square"/>
   </g>
   <g id="patch_11">
    <path d="M 58.1245 27.177 
L 890.8825 27.177 
" style="fill: none; stroke: #cccccc; stroke-linejoin: miter; stroke-linecap: square"/>
   </g>
  </g>
 </g>
 <defs>
  <clipPath id="p625ee9136d">
   <rect x="58.1245" y="27.177" width="832.758" height="201.988"/>
  </clipPath>
 </defs>
</svg>
