<?xml version="1.0" encoding="utf-8" standalone="no"?>
<!DOCTYPE svg PUBLIC "-//W3C//DTD SVG 1.1//EN"
  "http://www.w3.org/Graphics/SVG/1.1/DTD/svg11.dtd">
<svg xmlns:xlink="http://www.w3.org/1999/xlink" width="979.892305pt" height="260.76075pt" viewBox="0 0 979.892305 260.76075" xmlns="http://www.w3.org/2000/svg" version="1.1">
 <metadata>
  <rdf:RDF xmlns:dc="http://purl.org/dc/elements/1.1/" xmlns:cc="http://creativecommons.org/ns#" xmlns:rdf="http://www.w3.org/1999/02/22-rdf-syntax-ns#">
   <cc:Work>
    <dc:type rdf:resource="http://purl.org/dc/dcmitype/StillImage"/>
    <dc:date>2026-04-01T06:53:39.138209</dc:date>
    <dc:format>image/svg+xml</dc:format>
    <dc:creator>
     <cc:Agent>
      <dc:title>Matplotlib v3.10.8, https://matplotlib.org/</dc:title>
     </cc:Agent>
    </dc:creator>
   </cc:Work>
  </rdf:RDF>
 </metadata>
 <defs>
  <style type="text/css">*{stroke-linejoin: round; stroke-linecap: butt}</style>
 </defs>
 <g id="figure_1">
  <g id="patch_1">
   <path d="M 0 260.76075 
L 979.892305 260.76075 
L 979.892305 0 
L 0 0 
z
" style="fill: #ffffff"/>
  </g>
  <g id="axes_1">
   <g id="patch_2">
    <path d="M 71.8025 229.165 
L 964.727947 229.165 
L 964.727947 27.177 
L 71.8025 27.177 
z
" style="fill: #ffffff"/>
   </g>
   <g id="matplotlib.axis_1">
    <g id="xtick_1">
     <g id="line2d_1">
      <path d="M 71.8025 229.165 
L 71.8025 27.177 
" clip-path="url(#p371fcfb4de)" style="fill: none; stroke: #cccccc; stroke-width: 0.8; stroke-linecap: round"/>
     </g>
     <g id="text_1">
      <!-- 2010 -->
      <g style="fill: #262626" transform="translate(52.228 250.06275) scale(0.176 -0.176)">
       <defs>
        <path id="ArialMT-32" d="M 3222 541 
L 3222 0 
L 194 0 
Q 188 203 259 391 
Q 375 700 629 1000 
Q 884 1300 1366 1694 
Q 2113 2306 2375 2664 
Q 2638 3022 2638 3341 
Q 2638 3675 2398 3904 
Q 2159 4134 1775 4134 
Q 1369 4134 1125 3890 
Q 881 3647 878 3216 
L 300 3275 
Q 359 3922 746 4261 
Q 1134 4600 1788 4600 
Q 2447 4600 2831 4234 
Q 3216 3869 3216 3328 
Q 3216 3053 3103 2787 
Q 2991 2522 2730 2228 
Q 2469 1934 1863 1422 
Q 1356 997 1212 845 
Q 1069 694 975 541 
L 3222 541 
z
" transform="scale(0.015625)"/>
        <path id="ArialMT-30" d="M 266 2259 
Q 266 3072 433 3567 
Q 600 4063 929 4331 
Q 1259 4600 1759 4600 
Q 2128 4600 2406 4451 
Q 2684 4303 2865 4023 
Q 3047 3744 3150 3342 
Q 3253 2941 3253 2259 
Q 3253 1453 3087 958 
Q 2922 463 2592 192 
Q 2263 -78 1759 -78 
Q 1097 -78 719 397 
Q 266 969 266 2259 
z
M 844 2259 
Q 844 1131 1108 757 
Q 1372 384 1759 384 
Q 2147 384 2411 759 
Q 2675 1134 2675 2259 
Q 2675 3391 2411 3762 
Q 2147 4134 1753 4134 
Q 1366 4134 1134 3806 
Q 844 3388 844 2259 
z
" transform="scale(0.015625)"/>
        <path id="ArialMT-31" d="M 2384 0 
L 1822 0 
L 1822 3584 
Q 1619 3391 1289 3197 
Q 959 3003 697 2906 
L 697 3450 
Q 1169 3672 1522 3987 
Q 1875 4303 2022 4600 
L 2384 4600 
L 2384 0 
z
" transform="scale(0.015625)"/>
       </defs>
       <use xlink:href="#ArialMT-32"/>
       <use xlink:href="#ArialMT-30" transform="translate(55.615234 0)"/>
       <use xlink:href="#ArialMT-31" transform="translate(111.230469 0)"/>
       <use xlink:href="#ArialMT-30" transform="translate(166.845703 0)"/>
      </g>
     </g>
    </g>
    <g id="xtick_2">
     <g id="line2d_2">
      <path d="M 182.62658 229.165 
L 182.62658 27.177 
" clip-path="url(#p371fcfb4de)" style="fill: none; stroke: #cccccc; stroke-width: 0.8; stroke-linecap: round"/>
     </g>
     <g id="text_2">
      <!-- 2012 -->
      <g style="fill: #262626" transform="translate(163.05208 250.06275) scale(0.176 -0.176)">
       <use xlink:href="#ArialMT-32"/>
       <use xlink:href="#ArialMT-30" transform="translate(55.615234 0)"/>
       <use xlink:href="#ArialMT-31" transform="translate(111.230469 0)"/>
       <use xlink:href="#ArialMT-32" transform="translate(166.845703 0)"/>
      </g>
     </g>
    </g>
    <g id="xtick_3">
     <g id="line2d_3">
      <path d="M 292.395193 229.165 
L 292.395193 27.177 
" clip-path="url(#p371fcfb4de)" style="fill: none; stroke: #cccccc; stroke-width: 0.8; stroke-linecap: round"/>
     </g>
     <g id="text_3">
      <!-- 2014 -->
      <g style="fill: #262626" transform="translate(272.820693 250.06275) scale(0.176 -0.176)">
       <defs>
        <path id="ArialMT-34" d="M 2069 0 
L 2069 1097 
L 81 1097 
L 81 1613 
L 2172 4581 
L 2631 4581 
L 2631 1613 
L 3250 1613 
L 3250 1097 
L 2631 1097 
L 2631 0 
L 2069 0 
z
M 2069 1613 
L 2069 3678 
L 634 1613 
L 2069 1613 
z
" transform="scale(0.015625)"/>
       </defs>
       <use xlink:href="#ArialMT-32"/>
       <use xlink:href="#ArialMT-30" transform="translate(55.615234 0)"/>
       <use xlink:href="#ArialMT-31" transform="translate(111.230469 0)"/>
       <use xlink:href="#ArialMT-34" transform="translate(166.845703 0)"/>
      </g>
     </g>
    </g>
    <g id="xtick_4">
     <g id="line2d_4">
      <path d="M 402.163806 229.165 
L 402.163806 27.177 
" clip-path="url(#p371fcfb4de)" style="fill: none; stroke: #cccccc; stroke-width: 0.8; stroke-linecap: round"/>
     </g>
     <g id="text_4">
      <!-- 2016 -->
      <g style="fill: #262626" transform="translate(382.589306 250.06275) scale(0.176 -0.176)">
       <defs>
        <path id="ArialMT-36" d="M 3184 3459 
L 2625 3416 
Q 2550 3747 2413 3897 
Q 2184 4138 1850 4138 
Q 1581 4138 1378 3988 
Q 1113 3794 959 3422 
Q 806 3050 800 2363 
Q 1003 2672 1297 2822 
Q 1591 2972 1913 2972 
Q 2475 2972 2870 2558 
Q 3266 2144 3266 1488 
Q 3266 1056 3080 686 
Q 2894 316 2569 119 
Q 2244 -78 1831 -78 
Q 1128 -78 684 439 
Q 241 956 241 2144 
Q 241 3472 731 4075 
Q 1159 4600 1884 4600 
Q 2425 4600 2770 4297 
Q 3116 3994 3184 3459 
z
M 888 1484 
Q 888 1194 1011 928 
Q 1134 663 1356 523 
Q 1578 384 1822 384 
Q 2178 384 2434 671 
Q 2691 959 2691 1453 
Q 2691 1928 2437 2201 
Q 2184 2475 1800 2475 
Q 1419 2475 1153 2201 
Q 888 1928 888 1484 
z
" transform="scale(0.015625)"/>
       </defs>
       <use xlink:href="#ArialMT-32"/>
       <use xlink:href="#ArialMT-30" transform="translate(55.615234 0)"/>
       <use xlink:href="#ArialMT-31" transform="translate(111.230469 0)"/>
       <use xlink:href="#ArialMT-36" transform="translate(166.845703 0)"/>
      </g>
     </g>
    </g>
    <g id="xtick_5">
     <g id="line2d_5">
      <path d="M 512.987886 229.165 
L 512.987886 27.177 
" clip-path="url(#p371fcfb4de)" style="fill: none; stroke: #cccccc; stroke-width: 0.8; stroke-linecap: round"/>
     </g>
     <g id="text_5">
      <!-- 2018 -->
      <g style="fill: #262626" transform="translate(493.413386 250.06275) scale(0.176 -0.176)">
       <defs>
        <path id="ArialMT-38" d="M 1131 2484 
Q 781 2613 612 2850 
Q 444 3088 444 3419 
Q 444 3919 803 4259 
Q 1163 4600 1759 4600 
Q 2359 4600 2725 4251 
Q 3091 3903 3091 3403 
Q 3091 3084 2923 2848 
Q 2756 2613 2416 2484 
Q 2838 2347 3058 2040 
Q 3278 1734 3278 1309 
Q 3278 722 2862 322 
Q 2447 -78 1769 -78 
Q 1091 -78 675 323 
Q 259 725 259 1325 
Q 259 1772 486 2073 
Q 713 2375 1131 2484 
z
M 1019 3438 
Q 1019 3113 1228 2906 
Q 1438 2700 1772 2700 
Q 2097 2700 2305 2904 
Q 2513 3109 2513 3406 
Q 2513 3716 2298 3927 
Q 2084 4138 1766 4138 
Q 1444 4138 1231 3931 
Q 1019 3725 1019 3438 
z
M 838 1322 
Q 838 1081 952 856 
Q 1066 631 1291 507 
Q 1516 384 1775 384 
Q 2178 384 2440 643 
Q 2703 903 2703 1303 
Q 2703 1709 2433 1975 
Q 2163 2241 1756 2241 
Q 1359 2241 1098 1978 
Q 838 1716 838 1322 
z
" transform="scale(0.015625)"/>
       </defs>
       <use xlink:href="#ArialMT-32"/>
       <use xlink:href="#ArialMT-30" transform="translate(55.615234 0)"/>
       <use xlink:href="#ArialMT-31" transform="translate(111.230469 0)"/>
       <use xlink:href="#ArialMT-38" transform="translate(166.845703 0)"/>
      </g>
     </g>
    </g>
    <g id="xtick_6">
     <g id="line2d_6">
      <path d="M 622.756499 229.165 
L 622.756499 27.177 
" clip-path="url(#p371fcfb4de)" style="fill: none; stroke: #cccccc; stroke-width: 0.8; stroke-linecap: round"/>
     </g>
     <g id="text_6">
      <!-- 2020 -->
      <g style="fill: #262626" transform="translate(603.181999 250.06275) scale(0.176 -0.176)">
       <use xlink:href="#ArialMT-32"/>
       <use xlink:href="#ArialMT-30" transform="translate(55.615234 0)"/>
       <use xlink:href="#ArialMT-32" transform="translate(111.230469 0)"/>
       <use xlink:href="#ArialMT-30" transform="translate(166.845703 0)"/>
      </g>
     </g>
    </g>
    <g id="xtick_7">
     <g id="line2d_7">
      <path d="M 733.580579 229.165 
L 733.580579 27.177 
" clip-path="url(#p371fcfb4de)" style="fill: none; stroke: #cccccc; stroke-width: 0.8; stroke-linecap: round"/>
     </g>
     <g id="text_7">
      <!-- 2022 -->
      <g style="fill: #262626" transform="translate(714.006079 250.06275) scale(0.176 -0.176)">
       <use xlink:href="#ArialMT-32"/>
       <use xlink:href="#ArialMT-30" transform="translate(55.615234 0)"/>
       <use xlink:href="#ArialMT-32" transform="translate(111.230469 0)"/>
       <use xlink:href="#ArialMT-32" transform="translate(166.845703 0)"/>
      </g>
     </g>
    </g>
    <g id="xtick_8">
     <g id="line2d_8">
      <path d="M 843.349192 229.165 
L 843.349192 27.177 
" clip-path="url(#p371fcfb4de)" style="fill: none; stroke: #cccccc; stroke-width: 0.8; stroke-linecap: round"/>
     </g>
     <g id="text_8">
      <!-- 2024 -->
      <g style="fill: #262626" transform="translate(823.774692 250.06275) scale(0.176 -0.176)">
       <use xlink:href="#ArialMT-32"/>
       <use xlink:href="#ArialMT-30" transform="translate(55.615234 0)"/>
       <use xlink:href="#ArialMT-32" transform="translate(111.230469 0)"/>
       <use xlink:href="#ArialMT-34" transform="translate(166.845703 0)"/>
      </g>
     </g>
    </g>
    <g id="xtick_9">
     <g id="line2d_9">
      <path d="M 953.117805 229.165 
L 953.117805 27.177 
" clip-path="url(#p371fcfb4de)" style="fill: none; stroke: #cccccc; stroke-width: 0.8; stroke-linecap: round"/>
     </g>
     <g id="text_9">
      <!-- 2026 -->
      <g style="fill: #262626" transform="translate(933.543305 250.06275) scale(0.176 -0.176)">
       <use xlink:href="#ArialMT-32"/>
       <use xlink:href="#ArialMT-30" transform="translate(55.615234 0)"/>
       <use xlink:href="#ArialMT-32" transform="translate(111.230469 0)"/>
       <use xlink:href="#ArialMT-36" transform="translate(166.845703 0)"/>
      </g>
     </g>
    </g>
    <g id="xtick_10">
     <g id="line2d_10">
      <path d="M 964.727947 229.165 
L 964.727947 27.177 
" clip-path="url(#p371fcfb4de)" style="fill: none; stroke: #cccccc; stroke-width: 0.8; stroke-linecap: round"/>
     </g>
    </g>
    <g id="xtick_11"/>
    <g id="xtick_12"/>
    <g id="xtick_13"/>
    <g id="xtick_14"/>
    <g id="xtick_15"/>
    <g id="xtick_16"/>
    <g id="xtick_17"/>
    <g id="xtick_18"/>
   </g>
   <g id="matplotlib.axis_2">
    <g id="ytick_1">
     <g id="line2d_11">
      <path d="M 71.8025 222.792818 
L 964.727947 222.792818 
" clip-path="url(#p371fcfb4de)" style="fill: none; stroke: #cccccc; stroke-width: 0.8; stroke-linecap: round"/>
     </g>
     <g id="text_10">
      <!-- −1.0 -->
      <g style="fill: #262626" transform="translate(28.759 229.091693) scale(0.176 -0.176)">
       <defs>
        <path id="ArialMT-2212" d="M 3381 1997 
L 356 1997 
L 356 2522 
L 3381 2522 
L 3381 1997 
z
" transform="scale(0.015625)"/>
        <path id="ArialMT-2e" d="M 581 0 
L 581 641 
L 1222 641 
L 1222 0 
L 581 0 
z
" transform="scale(0.015625)"/>
       </defs>
       <use xlink:href="#ArialMT-2212"/>
       <use xlink:href="#ArialMT-31" transform="translate(58.398438 0)"/>
       <use xlink:href="#ArialMT-2e" transform="translate(114.013672 0)"/>
       <use xlink:href="#ArialMT-30" transform="translate(141.796875 0)"/>
      </g>
     </g>
    </g>
    <g id="ytick_2">
     <g id="line2d_12">
      <path d="M 71.8025 174.112107 
L 964.727947 174.112107 
" clip-path="url(#p371fcfb4de)" style="fill: none; stroke: #cccccc; stroke-width: 0.8; stroke-linecap: round"/>
     </g>
     <g id="text_11">
      <!-- −0.5 -->
      <g style="fill: #262626" transform="translate(28.759 180.410982) scale(0.176 -0.176)">
       <defs>
        <path id="ArialMT-35" d="M 266 1200 
L 856 1250 
Q 922 819 1161 601 
Q 1400 384 1738 384 
Q 2144 384 2425 690 
Q 2706 997 2706 1503 
Q 2706 1984 2436 2262 
Q 2166 2541 1728 2541 
Q 1456 2541 1237 2417 
Q 1019 2294 894 2097 
L 366 2166 
L 809 4519 
L 3088 4519 
L 3088 3981 
L 1259 3981 
L 1013 2750 
Q 1425 3038 1878 3038 
Q 2478 3038 2890 2622 
Q 3303 2206 3303 1553 
Q 3303 931 2941 478 
Q 2500 -78 1738 -78 
Q 1113 -78 717 272 
Q 322 622 266 1200 
z
" transform="scale(0.015625)"/>
       </defs>
       <use xlink:href="#ArialMT-2212"/>
       <use xlink:href="#ArialMT-30" transform="translate(58.398438 0)"/>
       <use xlink:href="#ArialMT-2e" transform="translate(114.013672 0)"/>
       <use xlink:href="#ArialMT-35" transform="translate(141.796875 0)"/>
      </g>
     </g>
    </g>
    <g id="ytick_3">
     <g id="line2d_13">
      <path d="M 71.8025 125.431395 
L 964.727947 125.431395 
" clip-path="url(#p371fcfb4de)" style="fill: none; stroke: #cccccc; stroke-width: 0.8; stroke-linecap: round"/>
     </g>
     <g id="text_12">
      <!-- 0.0 -->
      <g style="fill: #262626" transform="translate(39.0385 131.73027) scale(0.176 -0.176)">
       <use xlink:href="#ArialMT-30"/>
       <use xlink:href="#ArialMT-2e" transform="translate(55.615234 0)"/>
       <use xlink:href="#ArialMT-30" transform="translate(83.398438 0)"/>
      </g>
     </g>
    </g>
    <g id="ytick_4">
     <g id="line2d_14">
      <path d="M 71.8025 76.750684 
L 964.727947 76.750684 
" clip-path="url(#p371fcfb4de)" style="fill: none; stroke: #cccccc; stroke-width: 0.8; stroke-linecap: round"/>
     </g>
     <g id="text_13">
      <!-- 0.5 -->
      <g style="fill: #262626" transform="translate(39.0385 83.049559) scale(0.176 -0.176)">
       <use xlink:href="#ArialMT-30"/>
       <use xlink:href="#ArialMT-2e" transform="translate(55.615234 0)"/>
       <use xlink:href="#ArialMT-35" transform="translate(83.398438 0)"/>
      </g>
     </g>
    </g>
    <g id="ytick_5">
     <g id="line2d_15">
      <path d="M 71.8025 28.069973 
L 964.727947 28.069973 
" clip-path="url(#p371fcfb4de)" style="fill: none; stroke: #cccccc; stroke-width: 0.8; stroke-linecap: round"/>
     </g>
     <g id="text_14">
      <!-- 1.0 -->
      <g style="fill: #262626" transform="translate(39.0385 34.368848) scale(0.176 -0.176)">
       <use xlink:href="#ArialMT-31"/>
       <use xlink:href="#ArialMT-2e" transform="translate(55.615234 0)"/>
       <use xlink:href="#ArialMT-30" transform="translate(83.398438 0)"/>
      </g>
     </g>
    </g>
    <g id="text_15">
     <!-- Pearson r -->
     <g style="fill: #262626" transform="translate(20.943 169.7885) rotate(-90) scale(0.192 -0.192)">
      <defs>
       <path id="ArialMT-50" d="M 494 0 
L 494 4581 
L 2222 4581 
Q 2678 4581 2919 4538 
Q 3256 4481 3484 4323 
Q 3713 4166 3852 3881 
Q 3991 3597 3991 3256 
Q 3991 2672 3619 2267 
Q 3247 1863 2275 1863 
L 1100 1863 
L 1100 0 
L 494 0 
z
M 1100 2403 
L 2284 2403 
Q 2872 2403 3119 2622 
Q 3366 2841 3366 3238 
Q 3366 3525 3220 3729 
Q 3075 3934 2838 4000 
Q 2684 4041 2272 4041 
L 1100 4041 
L 1100 2403 
z
" transform="scale(0.015625)"/>
       <path id="ArialMT-65" d="M 2694 1069 
L 3275 997 
Q 3138 488 2766 206 
Q 2394 -75 1816 -75 
Q 1088 -75 661 373 
Q 234 822 234 1631 
Q 234 2469 665 2931 
Q 1097 3394 1784 3394 
Q 2450 3394 2872 2941 
Q 3294 2488 3294 1666 
Q 3294 1616 3291 1516 
L 816 1516 
Q 847 969 1125 678 
Q 1403 388 1819 388 
Q 2128 388 2347 550 
Q 2566 713 2694 1069 
z
M 847 1978 
L 2700 1978 
Q 2663 2397 2488 2606 
Q 2219 2931 1791 2931 
Q 1403 2931 1139 2672 
Q 875 2413 847 1978 
z
" transform="scale(0.015625)"/>
       <path id="ArialMT-61" d="M 2588 409 
Q 2275 144 1986 34 
Q 1697 -75 1366 -75 
Q 819 -75 525 192 
Q 231 459 231 875 
Q 231 1119 342 1320 
Q 453 1522 633 1644 
Q 813 1766 1038 1828 
Q 1203 1872 1538 1913 
Q 2219 1994 2541 2106 
Q 2544 2222 2544 2253 
Q 2544 2597 2384 2738 
Q 2169 2928 1744 2928 
Q 1347 2928 1158 2789 
Q 969 2650 878 2297 
L 328 2372 
Q 403 2725 575 2942 
Q 747 3159 1072 3276 
Q 1397 3394 1825 3394 
Q 2250 3394 2515 3294 
Q 2781 3194 2906 3042 
Q 3031 2891 3081 2659 
Q 3109 2516 3109 2141 
L 3109 1391 
Q 3109 606 3145 398 
Q 3181 191 3288 0 
L 2700 0 
Q 2613 175 2588 409 
z
M 2541 1666 
Q 2234 1541 1622 1453 
Q 1275 1403 1131 1340 
Q 988 1278 909 1158 
Q 831 1038 831 891 
Q 831 666 1001 516 
Q 1172 366 1500 366 
Q 1825 366 2078 508 
Q 2331 650 2450 897 
Q 2541 1088 2541 1459 
L 2541 1666 
z
" transform="scale(0.015625)"/>
       <path id="ArialMT-72" d="M 416 0 
L 416 3319 
L 922 3319 
L 922 2816 
Q 1116 3169 1280 3281 
Q 1444 3394 1641 3394 
Q 1925 3394 2219 3213 
L 2025 2691 
Q 1819 2813 1613 2813 
Q 1428 2813 1281 2702 
Q 1134 2591 1072 2394 
Q 978 2094 978 1738 
L 978 0 
L 416 0 
z
" transform="scale(0.015625)"/>
       <path id="ArialMT-73" d="M 197 991 
L 753 1078 
Q 800 744 1014 566 
Q 1228 388 1613 388 
Q 2000 388 2187 545 
Q 2375 703 2375 916 
Q 2375 1106 2209 1216 
Q 2094 1291 1634 1406 
Q 1016 1563 777 1677 
Q 538 1791 414 1992 
Q 291 2194 291 2438 
Q 291 2659 392 2848 
Q 494 3038 669 3163 
Q 800 3259 1026 3326 
Q 1253 3394 1513 3394 
Q 1903 3394 2198 3281 
Q 2494 3169 2634 2976 
Q 2775 2784 2828 2463 
L 2278 2388 
Q 2241 2644 2061 2787 
Q 1881 2931 1553 2931 
Q 1166 2931 1000 2803 
Q 834 2675 834 2503 
Q 834 2394 903 2306 
Q 972 2216 1119 2156 
Q 1203 2125 1616 2013 
Q 2213 1853 2448 1751 
Q 2684 1650 2818 1456 
Q 2953 1263 2953 975 
Q 2953 694 2789 445 
Q 2625 197 2315 61 
Q 2006 -75 1616 -75 
Q 969 -75 630 194 
Q 291 463 197 991 
z
" transform="scale(0.015625)"/>
       <path id="ArialMT-6f" d="M 213 1659 
Q 213 2581 725 3025 
Q 1153 3394 1769 3394 
Q 2453 3394 2887 2945 
Q 3322 2497 3322 1706 
Q 3322 1066 3130 698 
Q 2938 331 2570 128 
Q 2203 -75 1769 -75 
Q 1072 -75 642 372 
Q 213 819 213 1659 
z
M 791 1659 
Q 791 1022 1069 705 
Q 1347 388 1769 388 
Q 2188 388 2466 706 
Q 2744 1025 2744 1678 
Q 2744 2294 2464 2611 
Q 2184 2928 1769 2928 
Q 1347 2928 1069 2612 
Q 791 2297 791 1659 
z
" transform="scale(0.015625)"/>
       <path id="ArialMT-6e" d="M 422 0 
L 422 3319 
L 928 3319 
L 928 2847 
Q 1294 3394 1984 3394 
Q 2284 3394 2536 3286 
Q 2788 3178 2913 3003 
Q 3038 2828 3088 2588 
Q 3119 2431 3119 2041 
L 3119 0 
L 2556 0 
L 2556 2019 
Q 2556 2363 2490 2533 
Q 2425 2703 2258 2804 
Q 2091 2906 1866 2906 
Q 1506 2906 1245 2678 
Q 984 2450 984 1813 
L 984 0 
L 422 0 
z
" transform="scale(0.015625)"/>
       <path id="ArialMT-20" transform="scale(0.015625)"/>
      </defs>
      <use xlink:href="#ArialMT-50"/>
      <use xlink:href="#ArialMT-65" transform="translate(66.699219 0)"/>
      <use xlink:href="#ArialMT-61" transform="translate(122.314453 0)"/>
      <use xlink:href="#ArialMT-72" transform="translate(177.929688 0)"/>
      <use xlink:href="#ArialMT-73" transform="translate(211.230469 0)"/>
      <use xlink:href="#ArialMT-6f" transform="translate(261.230469 0)"/>
      <use xlink:href="#ArialMT-6e" transform="translate(316.845703 0)"/>
      <use xlink:href="#ArialMT-20" transform="translate(372.460938 0)"/>
      <use xlink:href="#ArialMT-72" transform="translate(400.244141 0)"/>
     </g>
    </g>
   </g>
   <g id="line2d_16">
    <path d="M 125.631339 159.804675 
L 126.686806 163.798364 
L 127.742274 169.297925 
L 128.797741 170.717705 
L 129.853209 171.756806 
L 130.908676 172.210328 
L 131.964144 171.998685 
L 133.019611 169.555323 
L 135.130546 158.218848 
L 136.186013 152.089061 
L 137.241481 147.327487 
L 138.296948 144.700162 
L 139.352416 145.51756 
L 140.407883 148.986891 
L 141.46335 149.873254 
L 142.518818 150.050874 
L 143.574285 151.531653 
L 144.629753 152.664435 
L 145.68522 155.162266 
L 146.740688 154.955741 
L 147.796155 154.495653 
L 148.851622 154.960615 
L 149.90709 155.684433 
L 150.962557 156.587305 
L 152.018025 158.170598 
L 153.073492 159.45832 
L 154.12896 160.342261 
L 155.184427 161.432156 
L 156.239894 162.018761 
L 157.295362 162.889084 
L 158.350829 164.671631 
L 159.406297 167.403368 
L 160.461764 168.503003 
L 161.517232 169.298741 
L 162.572699 169.150021 
L 164.683634 168.159219 
L 165.739101 168.348521 
L 166.794569 169.095752 
L 169.960971 168.549214 
L 171.016439 167.538346 
L 172.071906 166.20758 
L 173.127373 165.846918 
L 174.182841 167.24607 
L 175.238308 169.731294 
L 176.293776 173.283929 
L 177.349243 177.617564 
L 178.404711 182.927971 
L 179.460178 186.041024 
L 180.515645 187.690269 
L 181.571113 189.058862 
L 182.62658 190.883041 
L 183.682048 191.256283 
L 185.792983 187.147782 
L 187.903917 181.395275 
L 188.959385 178.811421 
L 190.014852 176.718525 
L 191.07032 173.864154 
L 192.125787 170.207692 
L 194.236722 161.399392 
L 196.347657 151.16944 
L 197.403124 146.331775 
L 199.514059 135.15136 
L 200.569527 129.216382 
L 203.735929 116.053341 
L 204.791396 110.168563 
L 205.846864 103.451947 
L 206.902331 98.059326 
L 211.124201 80.491688 
L 213.235136 69.205519 
L 214.290603 64.205652 
L 215.346071 59.920164 
L 218.512473 49.344058 
L 220.623408 42.981451 
L 221.678875 41.713186 
L 222.734343 40.006579 
L 223.78981 39.303148 
L 224.845278 38.978243 
L 226.956212 38.057345 
L 229.067147 37.823525 
L 230.122615 37.460629 
L 231.178082 36.437003 
L 232.23355 36.70925 
L 235.399952 36.358273 
L 236.455419 36.503652 
L 238.566354 37.553077 
L 239.621822 39.652267 
L 240.677289 43.858378 
L 241.732756 46.805549 
L 243.843691 55.580826 
L 244.899159 60.795349 
L 245.954626 69.056493 
L 247.010094 79.306883 
L 248.065561 91.238552 
L 250.176496 117.805931 
L 253.342898 151.675776 
L 254.398366 161.035987 
L 255.453833 168.064627 
L 256.5093 172.906792 
L 257.564768 176.625909 
L 259.675703 182.950951 
L 261.786638 189.410362 
L 262.842105 191.312068 
L 263.897572 192.222591 
L 266.008507 193.369609 
L 267.063975 193.593635 
L 269.17491 193.303302 
L 270.230377 193.432374 
L 271.285844 193.933477 
L 272.341312 194.171183 
L 273.396779 194.639923 
L 274.452247 194.486296 
L 275.507714 194.084311 
L 276.563182 193.41861 
L 277.618649 192.58978 
L 278.674117 191.320203 
L 279.729584 188.924006 
L 280.785051 185.565854 
L 281.840519 183.492503 
L 282.895986 182.802581 
L 286.062389 181.39027 
L 287.117856 179.967929 
L 288.173323 176.181708 
L 289.228791 169.609757 
L 291.339726 160.223924 
L 292.395193 157.4873 
L 293.450661 156.786548 
L 294.506128 157.057491 
L 295.561595 158.430313 
L 297.67253 166.972089 
L 299.783465 179.717328 
L 300.838933 183.865536 
L 301.8944 189.804402 
L 302.949867 190.806093 
L 305.060802 190.354306 
L 306.11627 190.361393 
L 307.171737 190.717256 
L 308.227205 190.902155 
L 310.338139 192.070529 
L 311.393607 193.051807 
L 313.504542 193.288977 
L 314.560009 193.371479 
L 317.726411 194.289633 
L 319.837346 194.621154 
L 321.948281 194.286239 
L 324.059216 193.394277 
L 326.170151 192.820205 
L 332.502956 190.198488 
L 333.558423 189.40121 
L 334.61389 189.031853 
L 335.669358 188.971294 
L 336.724825 189.023541 
L 337.780293 188.715494 
L 338.83576 187.799307 
L 339.891228 186.24003 
L 340.946695 184.363644 
L 342.002162 183.589573 
L 343.05763 183.990437 
L 344.113097 185.382287 
L 345.168565 186.367818 
L 346.224032 187.8324 
L 347.2795 188.726692 
L 348.334967 188.785782 
L 350.445902 188.096694 
L 351.501369 187.184901 
L 352.556837 186.685115 
L 353.612304 185.47146 
L 354.667772 182.248811 
L 355.723239 177.975717 
L 361.000576 145.055672 
L 363.111511 129.815483 
L 366.277913 105.465966 
L 372.610718 69.857759 
L 373.666185 64.801716 
L 374.721653 60.659304 
L 376.832588 56.420187 
L 377.888055 55.950657 
L 378.943522 55.896981 
L 381.054457 56.065065 
L 382.109925 57.140367 
L 383.165392 58.394703 
L 384.22086 60.313588 
L 385.276327 62.558092 
L 386.331795 65.274268 
L 387.387262 69.266481 
L 388.442729 74.621182 
L 391.609132 95.514245 
L 392.664599 105.339043 
L 394.775534 128.451515 
L 396.886469 154.868931 
L 400.052871 186.506408 
L 401.108339 188.604252 
L 402.163806 191.456509 
L 403.219273 192.93757 
L 404.274741 194.02097 
L 405.330208 193.973145 
L 406.385676 193.423087 
L 407.441143 192.206844 
L 408.496611 190.728657 
L 409.552078 187.024631 
L 410.607545 181.495508 
L 411.663013 173.437752 
L 412.71848 167.999823 
L 414.829415 158.529689 
L 419.051285 145.51914 
L 420.106752 142.761723 
L 421.16222 138.625781 
L 422.217687 133.63022 
L 423.273155 127.46401 
L 424.328622 123.011897 
L 425.384089 120.246906 
L 426.439557 116.927597 
L 427.495024 112.923219 
L 428.550492 109.74611 
L 429.605959 107.057338 
L 430.661427 104.709251 
L 432.772361 99.022655 
L 433.827829 96.625047 
L 434.883296 94.863644 
L 435.938764 92.838428 
L 436.994231 91.584448 
L 438.049699 90.758892 
L 442.271568 88.289574 
L 443.327036 87.116949 
L 444.382503 85.397171 
L 445.437971 83.250775 
L 446.493438 80.416985 
L 448.604373 74.192306 
L 449.65984 73.601003 
L 450.715308 71.357609 
L 451.770775 68.082539 
L 453.88171 59.876774 
L 454.937178 55.136684 
L 455.992645 51.369429 
L 457.048112 52.49105 
L 458.10358 54.147038 
L 459.159047 56.42616 
L 460.214515 59.600195 
L 464.436384 74.226088 
L 466.547319 79.311771 
L 467.602787 83.202973 
L 470.769189 99.977179 
L 471.824656 106.297417 
L 473.935591 116.487682 
L 476.046526 125.0733 
L 479.212928 135.854203 
L 480.268396 137.467131 
L 481.323863 138.040881 
L 482.379331 138.145237 
L 483.434798 137.722683 
L 484.490266 137.595896 
L 486.6012 136.751527 
L 488.712135 135.837202 
L 489.767603 135.450085 
L 490.82307 134.804168 
L 491.878538 133.977802 
L 492.934005 133.292644 
L 493.989472 133.152811 
L 495.04494 132.745823 
L 499.26681 133.873849 
L 500.322277 136.130397 
L 501.377745 138.89266 
L 502.433212 136.777064 
L 503.488679 133.236339 
L 504.544147 121.793255 
L 505.599614 111.798278 
L 506.655082 107.087029 
L 507.710549 110.338629 
L 508.766017 120.055931 
L 509.821484 128.062486 
L 511.932419 140.581305 
L 512.987886 136.243826 
L 514.043354 136.796868 
L 515.098821 140.966297 
L 516.154289 142.399297 
L 517.209756 143.41578 
L 518.265223 140.752341 
L 519.320691 136.865395 
L 520.376158 134.607132 
L 522.487093 131.359595 
L 523.542561 128.719931 
L 525.653495 122.562785 
L 526.708963 120.113571 
L 527.76443 118.259039 
L 531.9863 112.448949 
L 533.041767 111.443427 
L 534.097235 110.818552 
L 535.152702 110.581965 
L 536.20817 110.513995 
L 537.263637 110.69219 
L 540.430039 110.642165 
L 541.485507 110.504413 
L 542.540974 110.511297 
L 543.596442 110.319952 
L 544.651909 109.763714 
L 545.707377 109.401476 
L 548.873779 108.965814 
L 549.929246 108.596574 
L 550.984714 108.434435 
L 552.040181 108.753958 
L 553.095649 108.276304 
L 555.206583 104.790346 
L 557.317518 99.963224 
L 558.372986 96.326058 
L 559.428453 94.101324 
L 561.539388 86.914121 
L 563.650323 77.397601 
L 565.761258 68.004961 
L 566.816725 66.312851 
L 567.872193 62.048796 
L 568.92766 62.714198 
L 569.983128 60.678618 
L 571.038595 60.355999 
L 572.094062 59.867915 
L 574.204997 59.855091 
L 575.260465 59.953447 
L 576.315932 60.863185 
L 577.3714 64.286213 
L 579.482334 66.359604 
L 580.537802 66.562608 
L 582.648737 66.124533 
L 584.759672 64.766296 
L 586.870606 64.280008 
L 588.981541 64.115617 
L 590.037009 64.181164 
L 591.092476 64.687517 
L 592.147944 65.523714 
L 593.203411 66.689589 
L 594.258878 68.283939 
L 595.314346 70.201915 
L 597.425281 73.162937 
L 598.480748 75.36455 
L 599.536216 77.864802 
L 600.591683 81.058997 
L 603.758085 89.307466 
L 604.813553 91.379849 
L 605.86902 92.843343 
L 606.924488 94.658797 
L 607.979955 97.223577 
L 609.035422 101.309656 
L 612.201825 115.805335 
L 614.31276 121.12126 
L 615.368227 125.626106 
L 617.479162 138.848832 
L 618.534629 147.691585 
L 619.590097 158.926185 
L 620.645564 166.888374 
L 621.701032 171.649308 
L 622.756499 173.688652 
L 623.811967 175.031129 
L 624.867434 180.128427 
L 625.922901 180.689204 
L 626.978369 178.683008 
L 628.033836 176.111366 
L 630.144771 169.39869 
L 631.200239 163.308744 
L 632.255706 153.025556 
L 633.311173 144.707253 
L 635.422108 126.295509 
L 637.533043 108.017506 
L 638.588511 100.294739 
L 640.699445 87.335204 
L 642.81038 74.087694 
L 644.921315 61.356492 
L 645.976783 58.964213 
L 647.03225 57.579952 
L 648.087717 58.640608 
L 649.143185 60.109015 
L 650.198652 61.204201 
L 651.25412 60.562545 
L 652.309587 60.378526 
L 653.365055 61.560939 
L 654.420522 62.40063 
L 655.475989 62.238976 
L 656.531457 61.795268 
L 658.642392 59.774068 
L 659.697859 59.265782 
L 660.753327 58.280467 
L 661.808794 59.269715 
L 662.864261 63.860258 
L 663.919729 69.40483 
L 664.975196 72.037687 
L 666.030664 72.421833 
L 667.086131 70.364592 
L 669.197066 68.696938 
L 670.252533 67.410342 
L 672.363468 66.731042 
L 673.418936 65.712287 
L 674.474403 65.062636 
L 675.529871 64.722028 
L 676.585338 64.784807 
L 677.640806 64.66636 
L 678.696273 65.849363 
L 679.75174 68.145536 
L 680.807208 69.602818 
L 681.862675 72.681142 
L 682.918143 79.626971 
L 683.97361 100.004494 
L 685.029078 137.296774 
L 687.140012 141.016406 
L 691.361882 146.655805 
L 692.41735 147.606532 
L 697.694687 153.780976 
L 698.750154 154.566149 
L 701.916556 156.221545 
L 702.972024 156.612005 
L 705.082959 157.009793 
L 706.138426 157.029261 
L 707.193894 156.904505 
L 709.304828 156.292282 
L 710.360296 155.85462 
L 712.471231 154.780287 
L 713.526698 154.258929 
L 714.582166 153.02151 
L 715.637633 151.16301 
L 716.6931 148.165734 
L 717.748568 144.660252 
L 720.91497 129.165334 
L 721.970438 125.569501 
L 724.081372 116.765072 
L 725.13684 112.531101 
L 727.247775 102.260065 
L 728.303242 98.665774 
L 729.35871 95.594519 
L 731.469645 91.193222 
L 732.525112 89.17561 
L 733.580579 87.714436 
L 734.636047 86.632598 
L 735.691514 85.850587 
L 736.746982 86.17578 
L 737.802449 89.141751 
L 738.857917 89.217873 
L 739.913384 54.170834 
L 742.024319 64.320318 
L 744.135254 76.815754 
L 745.190721 84.806361 
L 746.246189 93.822958 
L 749.412591 128.810258 
L 751.523526 146.081158 
L 752.578993 152.293156 
L 753.634461 157.354313 
L 754.689928 161.02685 
L 755.745395 163.323837 
L 756.800863 164.690988 
L 757.85633 165.862708 
L 758.911798 166.77743 
L 759.967265 167.309368 
L 761.022733 167.666712 
L 762.0782 167.714273 
L 763.133667 167.072069 
L 764.189135 165.451132 
L 766.30007 162.885644 
L 767.355537 160.369814 
L 768.411005 157.357258 
L 769.466472 154.704249 
L 771.577407 150.418115 
L 772.632874 148.217298 
L 773.688342 147.322217 
L 774.743809 147.189279 
L 776.854744 145.398985 
L 777.910211 146.192012 
L 778.965679 147.533789 
L 780.021146 148.522243 
L 781.076614 146.717897 
L 783.187549 141.978961 
L 784.243016 140.837607 
L 785.298484 137.001231 
L 786.353951 134.21838 
L 787.409418 132.590759 
L 788.464886 132.211444 
L 789.520353 132.698955 
L 791.631288 134.33412 
L 792.686756 133.788943 
L 793.742223 134.105327 
L 794.79769 134.222104 
L 795.853158 133.821333 
L 796.908625 133.619041 
L 797.964093 132.990112 
L 799.01956 132.118131 
L 800.075028 129.841693 
L 801.130495 127.0358 
L 802.185962 123.447261 
L 805.352365 111.072995 
L 806.407832 105.840173 
L 807.4633 101.842001 
L 810.629702 88.865702 
L 811.685169 85.082251 
L 812.740637 82.922674 
L 813.796104 82.512453 
L 814.851572 82.30929 
L 815.907039 82.635562 
L 816.962506 82.481475 
L 818.017974 81.434192 
L 819.073441 79.391844 
L 820.128909 78.005101 
L 821.184376 76.258366 
L 822.239844 73.397553 
L 824.350778 66.14952 
L 825.406246 63.849674 
L 826.461713 61.176731 
L 827.517181 60.090611 
L 828.572648 61.143818 
L 830.683583 64.686846 
L 831.73905 67.744845 
L 832.794518 71.163675 
L 833.849985 73.605742 
L 835.96092 82.178737 
L 837.016388 85.934256 
L 839.127322 91.779188 
L 840.18279 91.626378 
L 841.238257 79.968575 
L 842.293725 74.07111 
L 843.349192 68.982368 
L 844.40466 80.252948 
L 845.460127 79.236667 
L 846.515595 77.400479 
L 847.571062 76.438039 
L 848.626529 76.209242 
L 849.681997 75.60483 
L 850.737464 75.253354 
L 851.792932 72.598935 
L 852.848399 70.2516 
L 853.903867 67.559575 
L 856.014801 65.509513 
L 857.070269 63.88987 
L 858.125736 62.596494 
L 860.236671 59.305483 
L 863.403073 57.287459 
L 864.458541 57.309788 
L 867.624943 58.239983 
L 868.680411 58.236991 
L 869.735878 57.922499 
L 870.791345 58.325959 
L 871.846813 58.435713 
L 873.957748 59.530357 
L 875.013215 60.545569 
L 876.068683 61.31408 
L 877.12415 61.733325 
L 878.179617 62.479128 
L 880.290552 64.420201 
L 881.34602 65.246026 
L 882.401487 65.899491 
L 883.456955 66.035319 
L 884.512422 66.292411 
L 885.567889 67.732332 
L 886.623357 70.142216 
L 887.678824 74.45229 
L 890.845227 90.518831 
L 891.900694 91.728611 
L 892.956161 89.719312 
L 894.011629 88.879524 
L 895.067096 87.628611 
L 896.122564 86.958765 
L 897.178031 86.801334 
L 898.233499 86.833439 
L 899.288966 81.956217 
L 900.344434 93.948316 
L 901.399901 99.863092 
L 902.455368 103.960175 
L 903.510836 108.859065 
L 904.566303 118.665443 
L 905.621771 137.046762 
L 909.84364 167.983097 
L 910.899108 174.025368 
L 911.954575 179.240339 
L 913.010043 183.265477 
L 914.06551 186.633635 
L 916.176445 191.299799 
L 917.231912 192.688593 
L 918.28738 193.527628 
L 919.342847 193.75416 
L 920.398315 194.417036 
L 923.564717 194.348862 
L 924.620184 194.193848 
L 925.675652 194.157423 
L 928.842054 193.587867 
L 932.008456 193.721267 
L 935.174859 193.573451 
L 936.230326 193.205522 
L 937.285794 192.552844 
L 938.341261 192.155897 
L 939.396728 191.262804 
L 940.452196 189.737671 
L 941.507663 188.840135 
L 942.563131 186.290016 
L 943.618598 182.778569 
L 944.674066 178.316986 
L 945.729533 173.367197 
L 947.840468 162.231738 
L 948.895935 153.652313 
L 949.951403 148.876537 
L 951.00687 147.385728 
L 952.062338 146.505592 
L 953.117805 145.193606 
L 954.173272 146.09812 
L 955.22874 148.132346 
L 956.284207 137.149944 
L 957.339675 139.951312 
L 958.395142 141.449403 
L 959.45061 140.572119 
L 960.506077 136.867341 
L 961.561545 135.646655 
L 962.617012 133.70021 
L 964.727947 130.662541 
L 964.727947 130.662541 
" clip-path="url(#p371fcfb4de)" style="fill: none; stroke: #2ca02c; stroke-width: 1.2; stroke-linecap: round"/>
   </g>
   <g id="line2d_17">
    <path d="M 125.631339 191.54857 
L 126.686806 187.230266 
L 127.742274 183.606509 
L 128.797741 178.029535 
L 129.853209 174.209486 
L 130.908676 171.241334 
L 131.964144 167.909078 
L 133.019611 159.732604 
L 134.075078 149.326806 
L 136.186013 134.052 
L 137.241481 129.873485 
L 138.296948 127.997712 
L 139.352416 128.407808 
L 140.407883 129.79525 
L 141.46335 129.673939 
L 142.518818 129.308351 
L 143.574285 129.364622 
L 144.629753 130.420282 
L 145.68522 131.089541 
L 146.740688 131.117045 
L 147.796155 131.372859 
L 148.851622 132.115447 
L 149.90709 135.523583 
L 150.962557 141.330198 
L 152.018025 148.383833 
L 153.073492 153.480618 
L 154.12896 157.413247 
L 155.184427 161.805347 
L 156.239894 165.224677 
L 157.295362 170.051 
L 158.350829 176.147632 
L 159.406297 183.625289 
L 160.461764 186.902479 
L 161.517232 189.266722 
L 162.572699 189.34994 
L 163.628167 188.503938 
L 164.683634 187.952576 
L 165.739101 189.133088 
L 166.794569 190.710515 
L 167.850036 190.659155 
L 168.905504 189.791155 
L 169.960971 189.100059 
L 171.016439 187.675429 
L 172.071906 186.003961 
L 173.127373 185.543338 
L 174.182841 186.636526 
L 175.238308 189.342702 
L 177.349243 198.253298 
L 178.404711 201.795406 
L 179.460178 204.180185 
L 180.515645 206.048685 
L 181.571113 207.498246 
L 182.62658 209.26519 
L 183.682048 210.270117 
L 184.737515 211.868011 
L 185.792983 212.827601 
L 186.84845 213.574717 
L 187.903917 214.748538 
L 188.959385 216.094341 
L 191.07032 217.706299 
L 192.125787 218.5813 
L 193.181255 219.166649 
L 196.347657 219.454587 
L 198.458592 219.80631 
L 200.569527 219.952784 
L 202.680461 219.913364 
L 203.735929 219.791858 
L 206.902331 219.859903 
L 211.124201 219.487681 
L 212.179668 219.766258 
L 213.235136 219.736734 
L 218.512473 218.448149 
L 220.623408 217.729763 
L 221.678875 217.136756 
L 228.01168 215.289117 
L 229.067147 215.197065 
L 230.122615 215.739582 
L 231.178082 216.602763 
L 232.23355 216.478993 
L 233.289017 216.201423 
L 234.344484 216.25139 
L 235.399952 215.936429 
L 236.455419 215.895558 
L 238.566354 216.12962 
L 239.621822 216.800391 
L 242.788224 216.366138 
L 243.843691 216.163789 
L 244.899159 216.347398 
L 249.121028 216.37893 
L 250.176496 216.711269 
L 254.398366 216.306692 
L 255.453833 216.402872 
L 256.5093 215.773502 
L 257.564768 215.518662 
L 258.620235 215.794319 
L 259.675703 215.67115 
L 260.73117 215.274714 
L 261.786638 214.719294 
L 262.842105 214.329181 
L 263.897572 213.631555 
L 264.95304 212.421641 
L 266.008507 211.714447 
L 267.063975 211.185099 
L 268.119442 211.051543 
L 269.17491 210.593288 
L 270.230377 209.631269 
L 272.341312 208.146907 
L 273.396779 207.828289 
L 275.507714 207.915649 
L 276.563182 208.73269 
L 277.618649 208.991362 
L 278.674117 208.674279 
L 279.729584 208.542909 
L 280.785051 208.142216 
L 281.840519 207.977409 
L 282.895986 207.646685 
L 283.951454 207.196199 
L 285.006921 207.021109 
L 286.062389 207.146338 
L 287.117856 207.490021 
L 288.173323 207.458151 
L 290.284258 208.709736 
L 291.339726 209.627858 
L 292.395193 210.089476 
L 293.450661 209.853499 
L 296.617063 212.296325 
L 297.67253 211.383466 
L 298.727998 213.413917 
L 299.783465 214.978239 
L 300.838933 214.275916 
L 301.8944 215.748894 
L 305.060802 203.38873 
L 306.11627 200.224854 
L 307.171737 198.58299 
L 308.227205 197.48613 
L 311.393607 196.653244 
L 312.449074 195.534441 
L 313.504542 194.937846 
L 314.560009 194.477616 
L 318.781879 193.417666 
L 319.837346 192.737265 
L 321.948281 190.823967 
L 323.003749 189.50051 
L 326.170151 184.886716 
L 328.281086 182.257487 
L 331.447488 179.205636 
L 333.558423 176.481536 
L 334.61389 175.569943 
L 336.724825 174.478914 
L 337.780293 173.553135 
L 338.83576 171.995266 
L 340.946695 167.85461 
L 342.002162 166.841262 
L 343.05763 167.134413 
L 344.113097 169.142497 
L 345.168565 170.887787 
L 346.224032 175.234178 
L 347.2795 178.706247 
L 348.334967 181.233991 
L 349.390434 183.47021 
L 351.501369 190.701313 
L 353.612304 203.529436 
L 354.667772 208.129044 
L 355.723239 208.878536 
L 356.778706 213.13096 
L 357.834174 211.360939 
L 359.945109 209.193035 
L 364.166978 203.375093 
L 365.222446 201.592119 
L 366.277913 200.13143 
L 367.333381 199.463902 
L 369.444316 197.53749 
L 370.499783 196.00941 
L 371.55525 194.165219 
L 373.666185 189.127023 
L 374.721653 186.740511 
L 375.77712 185.429982 
L 376.832588 183.820429 
L 378.943522 183.334206 
L 379.99899 182.3391 
L 381.054457 180.849786 
L 382.109925 179.885313 
L 384.22086 176.92381 
L 385.276327 175.352341 
L 386.331795 173.524768 
L 387.387262 172.368638 
L 388.442729 171.450114 
L 389.498197 171.294896 
L 390.553664 170.773481 
L 391.609132 171.0902 
L 392.664599 173.088124 
L 393.720067 175.725795 
L 394.775534 179.328356 
L 395.831001 179.728678 
L 396.886469 180.621596 
L 397.941936 182.14347 
L 398.997404 186.795689 
L 400.052871 195.517316 
L 401.108339 199.625728 
L 402.163806 201.378513 
L 403.219273 201.264402 
L 404.274741 201.360941 
L 407.441143 204.338936 
L 408.496611 205.09508 
L 410.607545 207.491463 
L 411.663013 208.180467 
L 412.71848 209.652805 
L 414.829415 210.798274 
L 415.884883 211.634932 
L 416.94035 211.8663 
L 420.106752 214.009282 
L 421.16222 213.948701 
L 422.217687 213.505806 
L 423.273155 213.192358 
L 424.328622 213.13157 
L 425.384089 212.778375 
L 426.439557 211.205692 
L 427.495024 208.036512 
L 428.550492 204.103101 
L 429.605959 199.391656 
L 433.827829 183.989628 
L 435.938764 177.594261 
L 436.994231 175.562489 
L 439.105166 172.219598 
L 440.160633 170.860306 
L 441.216101 169.999036 
L 442.271568 170.408235 
L 443.327036 171.916054 
L 445.437971 176.545199 
L 446.493438 179.653864 
L 448.604373 187.488933 
L 449.65984 188.471353 
L 450.715308 190.272924 
L 451.770775 192.814105 
L 454.937178 201.169832 
L 457.048112 206.63069 
L 458.10358 207.778257 
L 459.159047 208.2584 
L 460.214515 209.506004 
L 461.269982 210.468352 
L 464.436384 211.515301 
L 465.491852 211.665722 
L 466.547319 212.040487 
L 467.602787 211.611383 
L 469.713722 210.263695 
L 471.824656 208.264943 
L 472.880124 207.152785 
L 473.935591 205.563323 
L 476.046526 201.716134 
L 477.101994 199.563108 
L 478.157461 196.82386 
L 481.323863 187.12486 
L 482.379331 185.316877 
L 483.434798 183.925165 
L 484.490266 184.46805 
L 485.545733 183.997748 
L 486.6012 183.171005 
L 487.656668 182.723438 
L 488.712135 181.360241 
L 490.82307 175.624445 
L 491.878538 173.416347 
L 492.934005 171.525496 
L 493.989472 170.227846 
L 495.04494 168.684452 
L 496.100407 168.511966 
L 497.155875 169.067799 
L 498.211342 167.913624 
L 499.26681 165.452632 
L 500.322277 164.048734 
L 501.377745 161.654803 
L 502.433212 159.734009 
L 503.488679 155.560336 
L 504.544147 155.463932 
L 506.655082 151.376455 
L 507.710549 150.938584 
L 508.766017 152.625293 
L 509.821484 148.450325 
L 510.876951 139.205857 
L 511.932419 135.029955 
L 512.987886 168.518145 
L 514.043354 166.892488 
L 515.098821 175.185822 
L 516.154289 175.932254 
L 517.209756 175.870008 
L 518.265223 170.495027 
L 519.320691 163.772417 
L 521.431626 152.12386 
L 522.487093 148.245818 
L 523.542561 145.066994 
L 524.598028 141.511301 
L 525.653495 138.57284 
L 526.708963 137.349996 
L 527.76443 135.16607 
L 530.930833 130.878011 
L 531.9863 129.72169 
L 533.041767 129.589824 
L 534.097235 129.661006 
L 536.20817 129.076601 
L 537.263637 129.560665 
L 538.319105 129.222771 
L 539.374572 129.508211 
L 541.485507 128.577825 
L 542.540974 128.310627 
L 543.596442 127.444068 
L 544.651909 125.780756 
L 545.707377 125.11591 
L 546.762844 125.188548 
L 547.818311 125.440171 
L 548.873779 125.255053 
L 549.929246 124.757809 
L 550.984714 124.62157 
L 552.040181 125.950737 
L 553.095649 126.314538 
L 554.151116 126.222173 
L 555.206583 126.891777 
L 556.262051 126.739047 
L 557.317518 127.392721 
L 558.372986 126.366646 
L 559.428453 128.924441 
L 560.483921 135.110661 
L 561.539388 142.170644 
L 562.594856 147.308635 
L 563.650323 151.147978 
L 564.70579 154.095275 
L 565.761258 153.811646 
L 566.816725 155.176954 
L 567.872193 177.906252 
L 568.92766 180.163387 
L 571.038595 183.015713 
L 572.094062 186.435134 
L 573.14953 186.986443 
L 574.204997 186.552426 
L 575.260465 186.368718 
L 576.315932 186.630012 
L 577.3714 187.8695 
L 578.426867 186.391932 
L 579.482334 183.451128 
L 580.537802 180.939359 
L 581.593269 178.881393 
L 582.648737 178.164325 
L 583.704204 178.941277 
L 585.815139 182.393148 
L 586.870606 183.781094 
L 588.981541 185.92412 
L 590.037009 186.949137 
L 592.147944 189.887125 
L 595.314346 193.994872 
L 596.369813 194.621903 
L 597.425281 195.808154 
L 600.591683 200.463371 
L 601.64715 201.392138 
L 602.702618 201.907029 
L 603.758085 202.232743 
L 604.813553 201.926348 
L 606.924488 199.922015 
L 607.979955 199.253536 
L 610.09089 199.2071 
L 611.146357 199.252137 
L 612.201825 199.094068 
L 613.257292 197.595624 
L 615.368227 193.352787 
L 616.423695 191.618281 
L 617.479162 189.132267 
L 618.534629 187.465489 
L 619.590097 186.079432 
L 620.645564 184.505587 
L 621.701032 184.163671 
L 622.756499 185.539112 
L 623.811967 187.351747 
L 624.867434 193.391711 
L 625.922901 197.786245 
L 626.978369 199.400201 
L 628.033836 201.228423 
L 629.089304 202.59075 
L 631.200239 203.785584 
L 632.255706 204.521726 
L 634.366641 204.18101 
L 636.477576 204.840718 
L 637.533043 205.04698 
L 639.643978 206.02947 
L 640.699445 206.525269 
L 642.81038 206.64045 
L 644.921315 206.156801 
L 647.03225 207.550114 
L 649.143185 209.506047 
L 650.198652 210.473015 
L 651.25412 210.304939 
L 652.309587 210.294588 
L 654.420522 211.658002 
L 655.475989 211.521839 
L 656.531457 210.469084 
L 657.586924 207.147433 
L 658.642392 202.766754 
L 659.697859 200.825749 
L 660.753327 198.058373 
L 661.808794 196.407524 
L 662.864261 195.331001 
L 663.919729 194.863489 
L 664.975196 194.562821 
L 666.030664 193.77097 
L 667.086131 190.047848 
L 668.141599 184.757814 
L 669.197066 181.196555 
L 670.252533 176.116144 
L 673.418936 165.434412 
L 674.474403 164.925325 
L 675.529871 165.572915 
L 676.585338 173.834727 
L 677.640806 176.373368 
L 678.696273 180.956579 
L 679.75174 184.546515 
L 681.862675 189.686337 
L 683.97361 194.699892 
L 685.029078 193.518778 
L 686.084545 189.109944 
L 687.140012 186.552448 
L 689.250947 183.399855 
L 690.306415 182.354149 
L 692.41735 180.990872 
L 697.694687 178.466652 
L 700.861089 176.845943 
L 701.916556 176.149794 
L 704.027491 174.407692 
L 706.138426 173.888181 
L 707.193894 173.607281 
L 708.249361 173.454214 
L 709.304828 173.533515 
L 712.471231 175.345759 
L 713.526698 176.335084 
L 714.582166 177.154908 
L 716.6931 179.353832 
L 717.748568 179.326178 
L 718.804035 179.140421 
L 720.91497 179.693079 
L 721.970438 180.339871 
L 723.025905 181.312258 
L 724.081372 182.016156 
L 725.13684 182.463924 
L 726.192307 182.296768 
L 728.303242 182.437506 
L 729.35871 181.277786 
L 731.469645 181.397999 
L 732.525112 181.345529 
L 733.580579 180.704288 
L 734.636047 180.238452 
L 735.691514 179.418323 
L 736.746982 178.205111 
L 737.802449 179.981532 
L 738.857917 179.103426 
L 739.913384 196.800807 
L 740.968851 197.154079 
L 742.024319 196.124027 
L 744.135254 193.402062 
L 745.190721 193.173293 
L 746.246189 192.830148 
L 748.357123 192.471157 
L 750.468058 193.170625 
L 751.523526 192.812936 
L 752.578993 192.975276 
L 754.689928 192.427129 
L 755.745395 192.588967 
L 756.800863 192.521272 
L 757.85633 192.972072 
L 758.911798 192.275415 
L 759.967265 191.897956 
L 761.022733 190.88779 
L 762.0782 190.834165 
L 763.133667 191.636429 
L 764.189135 192.606982 
L 766.30007 193.938161 
L 767.355537 194.368759 
L 768.411005 194.606137 
L 771.577407 195.731727 
L 772.632874 195.680717 
L 773.688342 196.291586 
L 774.743809 197.088508 
L 775.799277 197.496062 
L 776.854744 197.504694 
L 777.910211 198.745189 
L 778.965679 199.65992 
L 780.021146 200.215742 
L 782.132081 199.127127 
L 783.187549 198.188345 
L 784.243016 197.802352 
L 785.298484 193.5946 
L 786.353951 191.577298 
L 787.409418 185.924803 
L 788.464886 185.253297 
L 790.575821 188.967917 
L 791.631288 191.272513 
L 792.686756 194.244725 
L 793.742223 198.381862 
L 795.853158 203.894458 
L 799.01956 210.486754 
L 800.075028 211.953077 
L 801.130495 213.204987 
L 802.185962 213.972197 
L 803.24143 214.421515 
L 807.4633 215.346006 
L 809.574234 215.587103 
L 810.629702 215.73748 
L 811.685169 216.025595 
L 812.740637 216.009383 
L 814.851572 216.128767 
L 815.907039 216.469771 
L 816.962506 216.506598 
L 819.073441 216.062145 
L 820.128909 215.776233 
L 822.239844 215.020863 
L 823.295311 214.898756 
L 824.350778 214.56014 
L 825.406246 213.773164 
L 826.461713 213.170435 
L 828.572648 211.379722 
L 832.794518 207.930416 
L 834.905453 206.856946 
L 835.96092 205.676979 
L 837.016388 203.44856 
L 838.071855 200.896696 
L 839.127322 198.921638 
L 841.238257 206.692478 
L 842.293725 198.804001 
L 843.349192 188.027354 
L 844.40466 136.606208 
L 845.460127 132.550852 
L 846.515595 129.452592 
L 847.571062 130.132479 
L 848.626529 136.953604 
L 849.681997 147.276455 
L 850.737464 155.447226 
L 851.792932 162.258685 
L 853.903867 173.60047 
L 856.014801 181.708592 
L 857.070269 183.795435 
L 858.125736 185.63432 
L 859.181204 187.95562 
L 861.292139 191.396453 
L 862.347606 191.466254 
L 863.403073 190.502323 
L 864.458541 188.719372 
L 865.514008 189.448387 
L 866.569476 188.76061 
L 867.624943 186.883319 
L 868.680411 186.19806 
L 869.735878 185.265789 
L 870.791345 185.440486 
L 871.846813 185.334246 
L 872.90228 185.504585 
L 875.013215 185.693447 
L 876.068683 185.160693 
L 878.179617 184.891771 
L 879.235085 184.365101 
L 880.290552 183.975966 
L 881.34602 183.103414 
L 882.401487 182.567335 
L 883.456955 182.439008 
L 884.512422 181.753059 
L 886.623357 177.629045 
L 887.678824 174.38238 
L 888.734292 169.95974 
L 890.845227 164.182316 
L 891.900694 163.185521 
L 892.956161 161.777943 
L 894.011629 162.140229 
L 895.067096 163.715371 
L 896.122564 164.507502 
L 897.178031 165.502511 
L 898.233499 164.748673 
L 899.288966 171.524853 
L 900.344434 169.041549 
L 901.399901 174.268699 
L 902.455368 177.045259 
L 903.510836 179.044998 
L 904.566303 181.991907 
L 905.621771 187.552533 
L 907.732706 190.56798 
L 908.788173 191.24077 
L 909.84364 191.608756 
L 911.954575 191.208656 
L 913.010043 190.894524 
L 914.06551 189.70983 
L 916.176445 186.991204 
L 917.231912 186.432901 
L 918.28738 186.377209 
L 919.342847 187.220303 
L 920.398315 186.584718 
L 921.453782 187.387317 
L 922.50925 189.471097 
L 923.564717 189.905712 
L 924.620184 190.006246 
L 925.675652 188.940944 
L 926.731119 188.170588 
L 929.897522 182.50431 
L 930.952989 180.692408 
L 934.119391 176.966774 
L 935.174859 176.411502 
L 936.230326 176.216076 
L 937.285794 176.518713 
L 939.396728 177.520072 
L 940.452196 178.698003 
L 941.507663 180.271229 
L 942.563131 182.64462 
L 943.618598 184.350917 
L 944.674066 186.765733 
L 945.729533 187.471319 
L 946.785 185.41743 
L 947.840468 181.354642 
L 948.895935 178.154674 
L 949.951403 177.69206 
L 951.00687 177.593998 
L 952.062338 177.671779 
L 953.117805 177.293699 
L 954.173272 179.298055 
L 955.22874 185.309349 
L 956.284207 139.464888 
L 957.339675 143.421324 
L 958.395142 145.335499 
L 959.45061 144.050124 
L 960.506077 138.821031 
L 961.561545 138.10644 
L 962.617012 136.594547 
L 963.672479 135.960678 
L 964.727947 134.873452 
L 964.727947 134.873452 
" clip-path="url(#p371fcfb4de)" style="fill: none; stroke: #ff7f0e; stroke-width: 1.2; stroke-linecap: round"/>
   </g>
   <g id="line2d_18">
    <path d="M 71.8025 125.431395 
L 964.727947 125.431395 
" clip-path="url(#p371fcfb4de)" style="fill: none; stroke-dasharray: 2.96,1.28; stroke-dashoffset: 0; stroke: #000000; stroke-width: 0.8"/>
   </g>
   <g id="patch_3">
    <path d="M 71.8025 229.165 
L 71.8025 27.177 
" style="fill: none; stroke: #cccccc; stroke-linejoin: miter; stroke-linecap: square"/>
   </g>
   <g id="patch_4">
    <path d="M 964.727947 229.165 
L 964.727947 27.177 
" style="fill: none; stroke: #cccccc; stroke-linejoin: miter; stroke-linecap: square"/>
   </g>
   <g id="patch_5">
    <path d="M 71.8025 229.165 
L 964.727947 229.165 
" style="fill: none; stroke: #cccccc; stroke-linejoin: miter; stroke-linecap: square"/>
   </g>
   <g id="patch_6">
    <path d="M 71.8025 27.177 
L 964.727947 27.177 
" style="fill: none; stroke: #cccccc; stroke-linejoin: miter; stroke-linecap: square"/>
   </g>
   <g id="text_16">
    <!-- 52-Week Rolling Correlation: Price vs Storage -->
    <g style="fill: #262626" transform="translate(322.627723 21.177) scale(0.192 -0.192)">
     <defs>
      <path id="ArialMT-2d" d="M 203 1375 
L 203 1941 
L 1931 1941 
L 1931 1375 
L 203 1375 
z
" transform="scale(0.015625)"/>
      <path id="ArialMT-57" d="M 1294 0 
L 78 4581 
L 700 4581 
L 1397 1578 
Q 1509 1106 1591 641 
Q 1766 1375 1797 1488 
L 2669 4581 
L 3400 4581 
L 4056 2263 
Q 4303 1400 4413 641 
Q 4500 1075 4641 1638 
L 5359 4581 
L 5969 4581 
L 4713 0 
L 4128 0 
L 3163 3491 
Q 3041 3928 3019 4028 
Q 2947 3713 2884 3491 
L 1913 0 
L 1294 0 
z
" transform="scale(0.015625)"/>
      <path id="ArialMT-6b" d="M 425 0 
L 425 4581 
L 988 4581 
L 988 1969 
L 2319 3319 
L 3047 3319 
L 1778 2088 
L 3175 0 
L 2481 0 
L 1384 1697 
L 988 1316 
L 988 0 
L 425 0 
z
" transform="scale(0.015625)"/>
      <path id="ArialMT-52" d="M 503 0 
L 503 4581 
L 2534 4581 
Q 3147 4581 3465 4457 
Q 3784 4334 3975 4021 
Q 4166 3709 4166 3331 
Q 4166 2844 3850 2509 
Q 3534 2175 2875 2084 
Q 3116 1969 3241 1856 
Q 3506 1613 3744 1247 
L 4541 0 
L 3778 0 
L 3172 953 
Q 2906 1366 2734 1584 
Q 2563 1803 2427 1890 
Q 2291 1978 2150 2013 
Q 2047 2034 1813 2034 
L 1109 2034 
L 1109 0 
L 503 0 
z
M 1109 2559 
L 2413 2559 
Q 2828 2559 3062 2645 
Q 3297 2731 3419 2920 
Q 3541 3109 3541 3331 
Q 3541 3656 3305 3865 
Q 3069 4075 2559 4075 
L 1109 4075 
L 1109 2559 
z
" transform="scale(0.015625)"/>
      <path id="ArialMT-6c" d="M 409 0 
L 409 4581 
L 972 4581 
L 972 0 
L 409 0 
z
" transform="scale(0.015625)"/>
      <path id="ArialMT-69" d="M 425 3934 
L 425 4581 
L 988 4581 
L 988 3934 
L 425 3934 
z
M 425 0 
L 425 3319 
L 988 3319 
L 988 0 
L 425 0 
z
" transform="scale(0.015625)"/>
      <path id="ArialMT-67" d="M 319 -275 
L 866 -356 
Q 900 -609 1056 -725 
Q 1266 -881 1628 -881 
Q 2019 -881 2231 -725 
Q 2444 -569 2519 -288 
Q 2563 -116 2559 434 
Q 2191 0 1641 0 
Q 956 0 581 494 
Q 206 988 206 1678 
Q 206 2153 378 2554 
Q 550 2956 876 3175 
Q 1203 3394 1644 3394 
Q 2231 3394 2613 2919 
L 2613 3319 
L 3131 3319 
L 3131 450 
Q 3131 -325 2973 -648 
Q 2816 -972 2473 -1159 
Q 2131 -1347 1631 -1347 
Q 1038 -1347 672 -1080 
Q 306 -813 319 -275 
z
M 784 1719 
Q 784 1066 1043 766 
Q 1303 466 1694 466 
Q 2081 466 2343 764 
Q 2606 1063 2606 1700 
Q 2606 2309 2336 2618 
Q 2066 2928 1684 2928 
Q 1309 2928 1046 2623 
Q 784 2319 784 1719 
z
" transform="scale(0.015625)"/>
      <path id="ArialMT-43" d="M 3763 1606 
L 4369 1453 
Q 4178 706 3683 314 
Q 3188 -78 2472 -78 
Q 1731 -78 1267 223 
Q 803 525 561 1097 
Q 319 1669 319 2325 
Q 319 3041 592 3573 
Q 866 4106 1370 4382 
Q 1875 4659 2481 4659 
Q 3169 4659 3637 4309 
Q 4106 3959 4291 3325 
L 3694 3184 
Q 3534 3684 3231 3912 
Q 2928 4141 2469 4141 
Q 1941 4141 1586 3887 
Q 1231 3634 1087 3207 
Q 944 2781 944 2328 
Q 944 1744 1114 1308 
Q 1284 872 1643 656 
Q 2003 441 2422 441 
Q 2931 441 3284 734 
Q 3638 1028 3763 1606 
z
" transform="scale(0.015625)"/>
      <path id="ArialMT-74" d="M 1650 503 
L 1731 6 
Q 1494 -44 1306 -44 
Q 1000 -44 831 53 
Q 663 150 594 308 
Q 525 466 525 972 
L 525 2881 
L 113 2881 
L 113 3319 
L 525 3319 
L 525 4141 
L 1084 4478 
L 1084 3319 
L 1650 3319 
L 1650 2881 
L 1084 2881 
L 1084 941 
Q 1084 700 1114 631 
Q 1144 563 1211 522 
Q 1278 481 1403 481 
Q 1497 481 1650 503 
z
" transform="scale(0.015625)"/>
      <path id="ArialMT-3a" d="M 578 2678 
L 578 3319 
L 1219 3319 
L 1219 2678 
L 578 2678 
z
M 578 0 
L 578 641 
L 1219 641 
L 1219 0 
L 578 0 
z
" transform="scale(0.015625)"/>
      <path id="ArialMT-63" d="M 2588 1216 
L 3141 1144 
Q 3050 572 2676 248 
Q 2303 -75 1759 -75 
Q 1078 -75 664 370 
Q 250 816 250 1647 
Q 250 2184 428 2587 
Q 606 2991 970 3192 
Q 1334 3394 1763 3394 
Q 2303 3394 2647 3120 
Q 2991 2847 3088 2344 
L 2541 2259 
Q 2463 2594 2264 2762 
Q 2066 2931 1784 2931 
Q 1359 2931 1093 2626 
Q 828 2322 828 1663 
Q 828 994 1084 691 
Q 1341 388 1753 388 
Q 2084 388 2306 591 
Q 2528 794 2588 1216 
z
" transform="scale(0.015625)"/>
      <path id="ArialMT-76" d="M 1344 0 
L 81 3319 
L 675 3319 
L 1388 1331 
Q 1503 1009 1600 663 
Q 1675 925 1809 1294 
L 2547 3319 
L 3125 3319 
L 1869 0 
L 1344 0 
z
" transform="scale(0.015625)"/>
      <path id="ArialMT-53" d="M 288 1472 
L 859 1522 
Q 900 1178 1048 958 
Q 1197 738 1509 602 
Q 1822 466 2213 466 
Q 2559 466 2825 569 
Q 3091 672 3220 851 
Q 3350 1031 3350 1244 
Q 3350 1459 3225 1620 
Q 3100 1781 2813 1891 
Q 2628 1963 1997 2114 
Q 1366 2266 1113 2400 
Q 784 2572 623 2826 
Q 463 3081 463 3397 
Q 463 3744 659 4045 
Q 856 4347 1234 4503 
Q 1613 4659 2075 4659 
Q 2584 4659 2973 4495 
Q 3363 4331 3572 4012 
Q 3781 3694 3797 3291 
L 3216 3247 
Q 3169 3681 2898 3903 
Q 2628 4125 2100 4125 
Q 1550 4125 1298 3923 
Q 1047 3722 1047 3438 
Q 1047 3191 1225 3031 
Q 1400 2872 2139 2705 
Q 2878 2538 3153 2413 
Q 3553 2228 3743 1945 
Q 3934 1663 3934 1294 
Q 3934 928 3725 604 
Q 3516 281 3123 101 
Q 2731 -78 2241 -78 
Q 1619 -78 1198 103 
Q 778 284 539 648 
Q 300 1013 288 1472 
z
" transform="scale(0.015625)"/>
     </defs>
     <use xlink:href="#ArialMT-35"/>
     <use xlink:href="#ArialMT-32" transform="translate(55.615234 0)"/>
     <use xlink:href="#ArialMT-2d" transform="translate(111.230469 0)"/>
     <use xlink:href="#ArialMT-57" transform="translate(144.53125 0)"/>
     <use xlink:href="#ArialMT-65" transform="translate(237.166016 0)"/>
     <use xlink:href="#ArialMT-65" transform="translate(292.78125 0)"/>
     <use xlink:href="#ArialMT-6b" transform="translate(348.396484 0)"/>
     <use xlink:href="#ArialMT-20" transform="translate(398.396484 0)"/>
     <use xlink:href="#ArialMT-52" transform="translate(426.179688 0)"/>
     <use xlink:href="#ArialMT-6f" transform="translate(498.396484 0)"/>
     <use xlink:href="#ArialMT-6c" transform="translate(554.011719 0)"/>
     <use xlink:href="#ArialMT-6c" transform="translate(576.228516 0)"/>
     <use xlink:href="#ArialMT-69" transform="translate(598.445312 0)"/>
     <use xlink:href="#ArialMT-6e" transform="translate(620.662109 0)"/>
     <use xlink:href="#ArialMT-67" transform="translate(676.277344 0)"/>
     <use xlink:href="#ArialMT-20" transform="translate(731.892578 0)"/>
     <use xlink:href="#ArialMT-43" transform="translate(759.675781 0)"/>
     <use xlink:href="#ArialMT-6f" transform="translate(831.892578 0)"/>
     <use xlink:href="#ArialMT-72" transform="translate(887.507812 0)"/>
     <use xlink:href="#ArialMT-72" transform="translate(920.808594 0)"/>
     <use xlink:href="#ArialMT-65" transform="translate(954.109375 0)"/>
     <use xlink:href="#ArialMT-6c" transform="translate(1009.724609 0)"/>
     <use xlink:href="#ArialMT-61" transform="translate(1031.941406 0)"/>
     <use xlink:href="#ArialMT-74" transform="translate(1087.556641 0)"/>
     <use xlink:href="#ArialMT-69" transform="translate(1115.339844 0)"/>
     <use xlink:href="#ArialMT-6f" transform="translate(1137.556641 0)"/>
     <use xlink:href="#ArialMT-6e" transform="translate(1193.171875 0)"/>
     <use xlink:href="#ArialMT-3a" transform="translate(1248.787109 0)"/>
     <use xlink:href="#ArialMT-20" transform="translate(1276.570312 0)"/>
     <use xlink:href="#ArialMT-50" transform="translate(1304.353516 0)"/>
     <use xlink:href="#ArialMT-72" transform="translate(1371.052734 0)"/>
     <use xlink:href="#ArialMT-69" transform="translate(1404.353516 0)"/>
     <use xlink:href="#ArialMT-63" transform="translate(1426.570312 0)"/>
     <use xlink:href="#ArialMT-65" transform="translate(1476.570312 0)"/>
     <use xlink:href="#ArialMT-20" transform="translate(1532.185547 0)"/>
     <use xlink:href="#ArialMT-76" transform="translate(1559.96875 0)"/>
     <use xlink:href="#ArialMT-73" transform="translate(1609.96875 0)"/>
     <use xlink:href="#ArialMT-20" transform="translate(1659.96875 0)"/>
     <use xlink:href="#ArialMT-53" transform="translate(1687.751953 0)"/>
     <use xlink:href="#ArialMT-74" transform="translate(1754.451172 0)"/>
     <use xlink:href="#ArialMT-6f" transform="translate(1782.234375 0)"/>
     <use xlink:href="#ArialMT-72" transform="translate(1837.849609 0)"/>
     <use xlink:href="#ArialMT-61" transform="translate(1871.150391 0)"/>
     <use xlink:href="#ArialMT-67" transform="translate(1926.765625 0)"/>
     <use xlink:href="#ArialMT-65" transform="translate(1982.380859 0)"/>
    </g>
   </g>
   <g id="legend_1">
    <g id="patch_7">
     <path d="M 84.1225 220.365 
L 361.47925 220.365 
Q 364.99925 220.365 364.99925 216.845 
L 364.99925 168.401 
Q 364.99925 164.881 361.47925 164.881 
L 84.1225 164.881 
Q 80.6025 164.881 80.6025 168.401 
L 80.6025 216.845 
Q 80.6025 220.365 84.1225 220.365 
z
" style="fill: #ffffff; opacity: 0.8; stroke: #cccccc; stroke-width: 0.8; stroke-linejoin: miter"/>
    </g>
    <g id="line2d_19">
     <path d="M 87.6425 178.35875 
L 105.2425 178.35875 
L 122.8425 178.35875 
" style="fill: none; stroke: #2ca02c; stroke-width: 1.2; stroke-linecap: round"/>
    </g>
    <g id="text_17">
     <!-- Rolling corr: price vs level -->
     <g style="fill: #262626" transform="translate(136.9225 184.51875) scale(0.176 -0.176)">
      <defs>
       <path id="ArialMT-70" d="M 422 -1272 
L 422 3319 
L 934 3319 
L 934 2888 
Q 1116 3141 1344 3267 
Q 1572 3394 1897 3394 
Q 2322 3394 2647 3175 
Q 2972 2956 3137 2557 
Q 3303 2159 3303 1684 
Q 3303 1175 3120 767 
Q 2938 359 2589 142 
Q 2241 -75 1856 -75 
Q 1575 -75 1351 44 
Q 1128 163 984 344 
L 984 -1272 
L 422 -1272 
z
M 931 1641 
Q 931 1000 1190 694 
Q 1450 388 1819 388 
Q 2194 388 2461 705 
Q 2728 1022 2728 1688 
Q 2728 2322 2467 2637 
Q 2206 2953 1844 2953 
Q 1484 2953 1207 2617 
Q 931 2281 931 1641 
z
" transform="scale(0.015625)"/>
      </defs>
      <use xlink:href="#ArialMT-52"/>
      <use xlink:href="#ArialMT-6f" transform="translate(72.216797 0)"/>
      <use xlink:href="#ArialMT-6c" transform="translate(127.832031 0)"/>
      <use xlink:href="#ArialMT-6c" transform="translate(150.048828 0)"/>
      <use xlink:href="#ArialMT-69" transform="translate(172.265625 0)"/>
      <use xlink:href="#ArialMT-6e" transform="translate(194.482422 0)"/>
      <use xlink:href="#ArialMT-67" transform="translate(250.097656 0)"/>
      <use xlink:href="#ArialMT-20" transform="translate(305.712891 0)"/>
      <use xlink:href="#ArialMT-63" transform="translate(333.496094 0)"/>
      <use xlink:href="#ArialMT-6f" transform="translate(383.496094 0)"/>
      <use xlink:href="#ArialMT-72" transform="translate(439.111328 0)"/>
      <use xlink:href="#ArialMT-72" transform="translate(472.412109 0)"/>
      <use xlink:href="#ArialMT-3a" transform="translate(505.712891 0)"/>
      <use xlink:href="#ArialMT-20" transform="translate(533.496094 0)"/>
      <use xlink:href="#ArialMT-70" transform="translate(561.279297 0)"/>
      <use xlink:href="#ArialMT-72" transform="translate(616.894531 0)"/>
      <use xlink:href="#ArialMT-69" transform="translate(650.195312 0)"/>
      <use xlink:href="#ArialMT-63" transform="translate(672.412109 0)"/>
      <use xlink:href="#ArialMT-65" transform="translate(722.412109 0)"/>
      <use xlink:href="#ArialMT-20" transform="translate(778.027344 0)"/>
      <use xlink:href="#ArialMT-76" transform="translate(805.810547 0)"/>
      <use xlink:href="#ArialMT-73" transform="translate(855.810547 0)"/>
      <use xlink:href="#ArialMT-20" transform="translate(905.810547 0)"/>
      <use xlink:href="#ArialMT-6c" transform="translate(933.59375 0)"/>
      <use xlink:href="#ArialMT-65" transform="translate(955.810547 0)"/>
      <use xlink:href="#ArialMT-76" transform="translate(1011.425781 0)"/>
      <use xlink:href="#ArialMT-65" transform="translate(1061.425781 0)"/>
      <use xlink:href="#ArialMT-6c" transform="translate(1117.041016 0)"/>
     </g>
    </g>
    <g id="line2d_20">
     <path d="M 87.6425 203.46075 
L 105.2425 203.46075 
L 122.8425 203.46075 
" style="fill: none; stroke: #ff7f0e; stroke-width: 1.2; stroke-linecap: round"/>
    </g>
    <g id="text_18">
     <!-- Rolling corr: price vs surplus -->
     <g style="fill: #262626" transform="translate(136.9225 209.62075) scale(0.176 -0.176)">
      <defs>
       <path id="ArialMT-75" d="M 2597 0 
L 2597 488 
Q 2209 -75 1544 -75 
Q 1250 -75 995 37 
Q 741 150 617 320 
Q 494 491 444 738 
Q 409 903 409 1263 
L 409 3319 
L 972 3319 
L 972 1478 
Q 972 1038 1006 884 
Q 1059 663 1231 536 
Q 1403 409 1656 409 
Q 1909 409 2131 539 
Q 2353 669 2445 892 
Q 2538 1116 2538 1541 
L 2538 3319 
L 3100 3319 
L 3100 0 
L 2597 0 
z
" transform="scale(0.015625)"/>
      </defs>
      <use xlink:href="#ArialMT-52"/>
      <use xlink:href="#ArialMT-6f" transform="translate(72.216797 0)"/>
      <use xlink:href="#ArialMT-6c" transform="translate(127.832031 0)"/>
      <use xlink:href="#ArialMT-6c" transform="translate(150.048828 0)"/>
      <use xlink:href="#ArialMT-69" transform="translate(172.265625 0)"/>
      <use xlink:href="#ArialMT-6e" transform="translate(194.482422 0)"/>
      <use xlink:href="#ArialMT-67" transform="translate(250.097656 0)"/>
      <use xlink:href="#ArialMT-20" transform="translate(305.712891 0)"/>
      <use xlink:href="#ArialMT-63" transform="translate(333.496094 0)"/>
      <use xlink:href="#ArialMT-6f" transform="translate(383.496094 0)"/>
      <use xlink:href="#ArialMT-72" transform="translate(439.111328 0)"/>
      <use xlink:href="#ArialMT-72" transform="translate(472.412109 0)"/>
      <use xlink:href="#ArialMT-3a" transform="translate(505.712891 0)"/>
      <use xlink:href="#ArialMT-20" transform="translate(533.496094 0)"/>
      <use xlink:href="#ArialMT-70" transform="translate(561.279297 0)"/>
      <use xlink:href="#ArialMT-72" transform="translate(616.894531 0)"/>
      <use xlink:href="#ArialMT-69" transform="translate(650.195312 0)"/>
      <use xlink:href="#ArialMT-63" transform="translate(672.412109 0)"/>
      <use xlink:href="#ArialMT-65" transform="translate(722.412109 0)"/>
      <use xlink:href="#ArialMT-20" transform="translate(778.027344 0)"/>
      <use xlink:href="#ArialMT-76" transform="translate(805.810547 0)"/>
      <use xlink:href="#ArialMT-73" transform="translate(855.810547 0)"/>
      <use xlink:href="#ArialMT-20" transform="translate(905.810547 0)"/>
      <use xlink:href="#ArialMT-73" transform="translate(933.59375 0)"/>
      <use xlink:href="#ArialMT-75" transform="translate(983.59375 0)"/>
      <use xlink:href="#ArialMT-72" transform="translate(1039.208984 0)"/>
      <use xlink:href="#ArialMT-70" transform="translate(1072.509766 0)"/>
      <use xlink:href="#ArialMT-6c" transform="translate(1128.125 0)"/>
      <use xlink:href="#ArialMT-75" transform="translate(1150.341797 0)"/>
      <use xlink:href="#ArialMT-73" transform="translate(1205.957031 0)"/>
     </g>
    </g>
   </g>
  </g>
 </g>
 <defs>
  <clipPath id="p371fcfb4de">
   <rect x="71.8025" y="27.177" width="892.925447" height="201.988"/>
  </clipPath>
 </defs>
</svg>
