<?xml version="1.0" encoding="utf-8" standalone="no"?>
<!DOCTYPE svg PUBLIC "-//W3C//DTD SVG 1.1//EN"
  "http://www.w3.org/Graphics/SVG/1.1/DTD/svg11.dtd">
<svg xmlns:xlink="http://www.w3.org/1999/xlink" width="837.2105pt" height="261.49875pt" viewBox="0 0 837.2105 261.49875" xmlns="http://www.w3.org/2000/svg" version="1.1">
 <metadata>
  <rdf:RDF xmlns:dc="http://purl.org/dc/elements/1.1/" xmlns:cc="http://creativecommons.org/ns#" xmlns:rdf="http://www.w3.org/1999/02/22-rdf-syntax-ns#">
   <cc:Work>
    <dc:type rdf:resource="http://purl.org/dc/dcmitype/StillImage"/>
    <dc:date>2026-04-01T06:53:50.922511</dc:date>
    <dc:format>image/svg+xml</dc:format>
    <dc:creator>
     <cc:Agent>
      <dc:title>Matplotlib v3.10.8, https://matplotlib.org/</dc:title>
     </cc:Agent>
    </dc:creator>
   </cc:Work>
  </rdf:RDF>
 </metadata>
 <defs>
  <style type="text/css">*{stroke-linejoin: round; stroke-linecap: butt}</style>
 </defs>
 <g id="figure_1">
  <g id="patch_1">
   <path d="M 0 261.49875 
L 837.2105 261.49875 
L 837.2105 0 
L 0 0 
z
" style="fill: #ffffff"/>
  </g>
  <g id="axes_1">
   <g id="patch_2">
    <path d="M 71.8025 207.885 
L 830.0105 207.885 
L 830.0105 27.177 
L 71.8025 27.177 
z
" style="fill: #ffffff"/>
   </g>
   <g id="matplotlib.axis_1">
    <g id="xtick_1">
     <g id="line2d_1">
      <path d="M 172.971016 207.885 
L 172.971016 27.177 
" clip-path="url(#p5edf38bee8)" style="fill: none; stroke: #cccccc; stroke-width: 0.8; stroke-linecap: round"/>
     </g>
     <g id="text_1">
      <!-- −10 -->
      <g style="fill: #262626" transform="translate(158.044016 228.78275) scale(0.176 -0.176)">
       <defs>
        <path id="ArialMT-2212" d="M 3381 1997 
L 356 1997 
L 356 2522 
L 3381 2522 
L 3381 1997 
z
" transform="scale(0.015625)"/>
        <path id="ArialMT-31" d="M 2384 0 
L 1822 0 
L 1822 3584 
Q 1619 3391 1289 3197 
Q 959 3003 697 2906 
L 697 3450 
Q 1169 3672 1522 3987 
Q 1875 4303 2022 4600 
L 2384 4600 
L 2384 0 
z
" transform="scale(0.015625)"/>
        <path id="ArialMT-30" d="M 266 2259 
Q 266 3072 433 3567 
Q 600 4063 929 4331 
Q 1259 4600 1759 4600 
Q 2128 4600 2406 4451 
Q 2684 4303 2865 4023 
Q 3047 3744 3150 3342 
Q 3253 2941 3253 2259 
Q 3253 1453 3087 958 
Q 2922 463 2592 192 
Q 2263 -78 1759 -78 
Q 1097 -78 719 397 
Q 266 969 266 2259 
z
M 844 2259 
Q 844 1131 1108 757 
Q 1372 384 1759 384 
Q 2147 384 2411 759 
Q 2675 1134 2675 2259 
Q 2675 3391 2411 3762 
Q 2147 4134 1753 4134 
Q 1366 4134 1134 3806 
Q 844 3388 844 2259 
z
" transform="scale(0.015625)"/>
       </defs>
       <use xlink:href="#ArialMT-2212"/>
       <use xlink:href="#ArialMT-31" transform="translate(58.398438 0)"/>
       <use xlink:href="#ArialMT-30" transform="translate(114.013672 0)"/>
      </g>
     </g>
    </g>
    <g id="xtick_2">
     <g id="line2d_2">
      <path d="M 311.938758 207.885 
L 311.938758 27.177 
" clip-path="url(#p5edf38bee8)" style="fill: none; stroke: #cccccc; stroke-width: 0.8; stroke-linecap: round"/>
     </g>
     <g id="text_2">
      <!-- −5 -->
      <g style="fill: #262626" transform="translate(301.905383 228.78275) scale(0.176 -0.176)">
       <defs>
        <path id="ArialMT-35" d="M 266 1200 
L 856 1250 
Q 922 819 1161 601 
Q 1400 384 1738 384 
Q 2144 384 2425 690 
Q 2706 997 2706 1503 
Q 2706 1984 2436 2262 
Q 2166 2541 1728 2541 
Q 1456 2541 1237 2417 
Q 1019 2294 894 2097 
L 366 2166 
L 809 4519 
L 3088 4519 
L 3088 3981 
L 1259 3981 
L 1013 2750 
Q 1425 3038 1878 3038 
Q 2478 3038 2890 2622 
Q 3303 2206 3303 1553 
Q 3303 931 2941 478 
Q 2500 -78 1738 -78 
Q 1113 -78 717 272 
Q 322 622 266 1200 
z
" transform="scale(0.015625)"/>
       </defs>
       <use xlink:href="#ArialMT-2212"/>
       <use xlink:href="#ArialMT-35" transform="translate(58.398438 0)"/>
      </g>
     </g>
    </g>
    <g id="xtick_3">
     <g id="line2d_3">
      <path d="M 450.9065 207.885 
L 450.9065 27.177 
" clip-path="url(#p5edf38bee8)" style="fill: none; stroke: #cccccc; stroke-width: 0.8; stroke-linecap: round"/>
     </g>
     <g id="text_3">
      <!-- 0 -->
      <g style="fill: #262626" transform="translate(446.012875 228.78275) scale(0.176 -0.176)">
       <use xlink:href="#ArialMT-30"/>
      </g>
     </g>
    </g>
    <g id="xtick_4">
     <g id="line2d_4">
      <path d="M 589.874242 207.885 
L 589.874242 27.177 
" clip-path="url(#p5edf38bee8)" style="fill: none; stroke: #cccccc; stroke-width: 0.8; stroke-linecap: round"/>
     </g>
     <g id="text_4">
      <!-- 5 -->
      <g style="fill: #262626" transform="translate(584.980617 228.78275) scale(0.176 -0.176)">
       <use xlink:href="#ArialMT-35"/>
      </g>
     </g>
    </g>
    <g id="xtick_5">
     <g id="line2d_5">
      <path d="M 728.841984 207.885 
L 728.841984 27.177 
" clip-path="url(#p5edf38bee8)" style="fill: none; stroke: #cccccc; stroke-width: 0.8; stroke-linecap: round"/>
     </g>
     <g id="text_5">
      <!-- 10 -->
      <g style="fill: #262626" transform="translate(719.054734 228.78275) scale(0.176 -0.176)">
       <use xlink:href="#ArialMT-31"/>
       <use xlink:href="#ArialMT-30" transform="translate(55.615234 0)"/>
      </g>
     </g>
    </g>
    <g id="text_6">
     <!-- Lag (weeks) — negative = storage leads price -->
     <g style="fill: #262626" transform="translate(255.347 250.25775) scale(0.192 -0.192)">
      <defs>
       <path id="ArialMT-4c" d="M 469 0 
L 469 4581 
L 1075 4581 
L 1075 541 
L 3331 541 
L 3331 0 
L 469 0 
z
" transform="scale(0.015625)"/>
       <path id="ArialMT-61" d="M 2588 409 
Q 2275 144 1986 34 
Q 1697 -75 1366 -75 
Q 819 -75 525 192 
Q 231 459 231 875 
Q 231 1119 342 1320 
Q 453 1522 633 1644 
Q 813 1766 1038 1828 
Q 1203 1872 1538 1913 
Q 2219 1994 2541 2106 
Q 2544 2222 2544 2253 
Q 2544 2597 2384 2738 
Q 2169 2928 1744 2928 
Q 1347 2928 1158 2789 
Q 969 2650 878 2297 
L 328 2372 
Q 403 2725 575 2942 
Q 747 3159 1072 3276 
Q 1397 3394 1825 3394 
Q 2250 3394 2515 3294 
Q 2781 3194 2906 3042 
Q 3031 2891 3081 2659 
Q 3109 2516 3109 2141 
L 3109 1391 
Q 3109 606 3145 398 
Q 3181 191 3288 0 
L 2700 0 
Q 2613 175 2588 409 
z
M 2541 1666 
Q 2234 1541 1622 1453 
Q 1275 1403 1131 1340 
Q 988 1278 909 1158 
Q 831 1038 831 891 
Q 831 666 1001 516 
Q 1172 366 1500 366 
Q 1825 366 2078 508 
Q 2331 650 2450 897 
Q 2541 1088 2541 1459 
L 2541 1666 
z
" transform="scale(0.015625)"/>
       <path id="ArialMT-67" d="M 319 -275 
L 866 -356 
Q 900 -609 1056 -725 
Q 1266 -881 1628 -881 
Q 2019 -881 2231 -725 
Q 2444 -569 2519 -288 
Q 2563 -116 2559 434 
Q 2191 0 1641 0 
Q 956 0 581 494 
Q 206 988 206 1678 
Q 206 2153 378 2554 
Q 550 2956 876 3175 
Q 1203 3394 1644 3394 
Q 2231 3394 2613 2919 
L 2613 3319 
L 3131 3319 
L 3131 450 
Q 3131 -325 2973 -648 
Q 2816 -972 2473 -1159 
Q 2131 -1347 1631 -1347 
Q 1038 -1347 672 -1080 
Q 306 -813 319 -275 
z
M 784 1719 
Q 784 1066 1043 766 
Q 1303 466 1694 466 
Q 2081 466 2343 764 
Q 2606 1063 2606 1700 
Q 2606 2309 2336 2618 
Q 2066 2928 1684 2928 
Q 1309 2928 1046 2623 
Q 784 2319 784 1719 
z
" transform="scale(0.015625)"/>
       <path id="ArialMT-20" transform="scale(0.015625)"/>
       <path id="ArialMT-28" d="M 1497 -1347 
Q 1031 -759 709 28 
Q 388 816 388 1659 
Q 388 2403 628 3084 
Q 909 3875 1497 4659 
L 1900 4659 
Q 1522 4009 1400 3731 
Q 1209 3300 1100 2831 
Q 966 2247 966 1656 
Q 966 153 1900 -1347 
L 1497 -1347 
z
" transform="scale(0.015625)"/>
       <path id="ArialMT-77" d="M 1034 0 
L 19 3319 
L 600 3319 
L 1128 1403 
L 1325 691 
Q 1338 744 1497 1375 
L 2025 3319 
L 2603 3319 
L 3100 1394 
L 3266 759 
L 3456 1400 
L 4025 3319 
L 4572 3319 
L 3534 0 
L 2950 0 
L 2422 1988 
L 2294 2553 
L 1622 0 
L 1034 0 
z
" transform="scale(0.015625)"/>
       <path id="ArialMT-65" d="M 2694 1069 
L 3275 997 
Q 3138 488 2766 206 
Q 2394 -75 1816 -75 
Q 1088 -75 661 373 
Q 234 822 234 1631 
Q 234 2469 665 2931 
Q 1097 3394 1784 3394 
Q 2450 3394 2872 2941 
Q 3294 2488 3294 1666 
Q 3294 1616 3291 1516 
L 816 1516 
Q 847 969 1125 678 
Q 1403 388 1819 388 
Q 2128 388 2347 550 
Q 2566 713 2694 1069 
z
M 847 1978 
L 2700 1978 
Q 2663 2397 2488 2606 
Q 2219 2931 1791 2931 
Q 1403 2931 1139 2672 
Q 875 2413 847 1978 
z
" transform="scale(0.015625)"/>
       <path id="ArialMT-6b" d="M 425 0 
L 425 4581 
L 988 4581 
L 988 1969 
L 2319 3319 
L 3047 3319 
L 1778 2088 
L 3175 0 
L 2481 0 
L 1384 1697 
L 988 1316 
L 988 0 
L 425 0 
z
" transform="scale(0.015625)"/>
       <path id="ArialMT-73" d="M 197 991 
L 753 1078 
Q 800 744 1014 566 
Q 1228 388 1613 388 
Q 2000 388 2187 545 
Q 2375 703 2375 916 
Q 2375 1106 2209 1216 
Q 2094 1291 1634 1406 
Q 1016 1563 777 1677 
Q 538 1791 414 1992 
Q 291 2194 291 2438 
Q 291 2659 392 2848 
Q 494 3038 669 3163 
Q 800 3259 1026 3326 
Q 1253 3394 1513 3394 
Q 1903 3394 2198 3281 
Q 2494 3169 2634 2976 
Q 2775 2784 2828 2463 
L 2278 2388 
Q 2241 2644 2061 2787 
Q 1881 2931 1553 2931 
Q 1166 2931 1000 2803 
Q 834 2675 834 2503 
Q 834 2394 903 2306 
Q 972 2216 1119 2156 
Q 1203 2125 1616 2013 
Q 2213 1853 2448 1751 
Q 2684 1650 2818 1456 
Q 2953 1263 2953 975 
Q 2953 694 2789 445 
Q 2625 197 2315 61 
Q 2006 -75 1616 -75 
Q 969 -75 630 194 
Q 291 463 197 991 
z
" transform="scale(0.015625)"/>
       <path id="ArialMT-29" d="M 791 -1347 
L 388 -1347 
Q 1322 153 1322 1656 
Q 1322 2244 1188 2822 
Q 1081 3291 891 3722 
Q 769 4003 388 4659 
L 791 4659 
Q 1378 3875 1659 3084 
Q 1900 2403 1900 1659 
Q 1900 816 1576 28 
Q 1253 -759 791 -1347 
z
" transform="scale(0.015625)"/>
       <path id="ArialMT-2014" d="M 0 1431 
L 0 1884 
L 6400 1884 
L 6400 1431 
L 0 1431 
z
" transform="scale(0.015625)"/>
       <path id="ArialMT-6e" d="M 422 0 
L 422 3319 
L 928 3319 
L 928 2847 
Q 1294 3394 1984 3394 
Q 2284 3394 2536 3286 
Q 2788 3178 2913 3003 
Q 3038 2828 3088 2588 
Q 3119 2431 3119 2041 
L 3119 0 
L 2556 0 
L 2556 2019 
Q 2556 2363 2490 2533 
Q 2425 2703 2258 2804 
Q 2091 2906 1866 2906 
Q 1506 2906 1245 2678 
Q 984 2450 984 1813 
L 984 0 
L 422 0 
z
" transform="scale(0.015625)"/>
       <path id="ArialMT-74" d="M 1650 503 
L 1731 6 
Q 1494 -44 1306 -44 
Q 1000 -44 831 53 
Q 663 150 594 308 
Q 525 466 525 972 
L 525 2881 
L 113 2881 
L 113 3319 
L 525 3319 
L 525 4141 
L 1084 4478 
L 1084 3319 
L 1650 3319 
L 1650 2881 
L 1084 2881 
L 1084 941 
Q 1084 700 1114 631 
Q 1144 563 1211 522 
Q 1278 481 1403 481 
Q 1497 481 1650 503 
z
" transform="scale(0.015625)"/>
       <path id="ArialMT-69" d="M 425 3934 
L 425 4581 
L 988 4581 
L 988 3934 
L 425 3934 
z
M 425 0 
L 425 3319 
L 988 3319 
L 988 0 
L 425 0 
z
" transform="scale(0.015625)"/>
       <path id="ArialMT-76" d="M 1344 0 
L 81 3319 
L 675 3319 
L 1388 1331 
Q 1503 1009 1600 663 
Q 1675 925 1809 1294 
L 2547 3319 
L 3125 3319 
L 1869 0 
L 1344 0 
z
" transform="scale(0.015625)"/>
       <path id="ArialMT-3d" d="M 3381 2694 
L 356 2694 
L 356 3219 
L 3381 3219 
L 3381 2694 
z
M 3381 1303 
L 356 1303 
L 356 1828 
L 3381 1828 
L 3381 1303 
z
" transform="scale(0.015625)"/>
       <path id="ArialMT-6f" d="M 213 1659 
Q 213 2581 725 3025 
Q 1153 3394 1769 3394 
Q 2453 3394 2887 2945 
Q 3322 2497 3322 1706 
Q 3322 1066 3130 698 
Q 2938 331 2570 128 
Q 2203 -75 1769 -75 
Q 1072 -75 642 372 
Q 213 819 213 1659 
z
M 791 1659 
Q 791 1022 1069 705 
Q 1347 388 1769 388 
Q 2188 388 2466 706 
Q 2744 1025 2744 1678 
Q 2744 2294 2464 2611 
Q 2184 2928 1769 2928 
Q 1347 2928 1069 2612 
Q 791 2297 791 1659 
z
" transform="scale(0.015625)"/>
       <path id="ArialMT-72" d="M 416 0 
L 416 3319 
L 922 3319 
L 922 2816 
Q 1116 3169 1280 3281 
Q 1444 3394 1641 3394 
Q 1925 3394 2219 3213 
L 2025 2691 
Q 1819 2813 1613 2813 
Q 1428 2813 1281 2702 
Q 1134 2591 1072 2394 
Q 978 2094 978 1738 
L 978 0 
L 416 0 
z
" transform="scale(0.015625)"/>
       <path id="ArialMT-6c" d="M 409 0 
L 409 4581 
L 972 4581 
L 972 0 
L 409 0 
z
" transform="scale(0.015625)"/>
       <path id="ArialMT-64" d="M 2575 0 
L 2575 419 
Q 2259 -75 1647 -75 
Q 1250 -75 917 144 
Q 584 363 401 755 
Q 219 1147 219 1656 
Q 219 2153 384 2558 
Q 550 2963 881 3178 
Q 1213 3394 1622 3394 
Q 1922 3394 2156 3267 
Q 2391 3141 2538 2938 
L 2538 4581 
L 3097 4581 
L 3097 0 
L 2575 0 
z
M 797 1656 
Q 797 1019 1065 703 
Q 1334 388 1700 388 
Q 2069 388 2326 689 
Q 2584 991 2584 1609 
Q 2584 2291 2321 2609 
Q 2059 2928 1675 2928 
Q 1300 2928 1048 2622 
Q 797 2316 797 1656 
z
" transform="scale(0.015625)"/>
       <path id="ArialMT-70" d="M 422 -1272 
L 422 3319 
L 934 3319 
L 934 2888 
Q 1116 3141 1344 3267 
Q 1572 3394 1897 3394 
Q 2322 3394 2647 3175 
Q 2972 2956 3137 2557 
Q 3303 2159 3303 1684 
Q 3303 1175 3120 767 
Q 2938 359 2589 142 
Q 2241 -75 1856 -75 
Q 1575 -75 1351 44 
Q 1128 163 984 344 
L 984 -1272 
L 422 -1272 
z
M 931 1641 
Q 931 1000 1190 694 
Q 1450 388 1819 388 
Q 2194 388 2461 705 
Q 2728 1022 2728 1688 
Q 2728 2322 2467 2637 
Q 2206 2953 1844 2953 
Q 1484 2953 1207 2617 
Q 931 2281 931 1641 
z
" transform="scale(0.015625)"/>
       <path id="ArialMT-63" d="M 2588 1216 
L 3141 1144 
Q 3050 572 2676 248 
Q 2303 -75 1759 -75 
Q 1078 -75 664 370 
Q 250 816 250 1647 
Q 250 2184 428 2587 
Q 606 2991 970 3192 
Q 1334 3394 1763 3394 
Q 2303 3394 2647 3120 
Q 2991 2847 3088 2344 
L 2541 2259 
Q 2463 2594 2264 2762 
Q 2066 2931 1784 2931 
Q 1359 2931 1093 2626 
Q 828 2322 828 1663 
Q 828 994 1084 691 
Q 1341 388 1753 388 
Q 2084 388 2306 591 
Q 2528 794 2588 1216 
z
" transform="scale(0.015625)"/>
      </defs>
      <use xlink:href="#ArialMT-4c"/>
      <use xlink:href="#ArialMT-61" transform="translate(55.615234 0)"/>
      <use xlink:href="#ArialMT-67" transform="translate(111.230469 0)"/>
      <use xlink:href="#ArialMT-20" transform="translate(166.845703 0)"/>
      <use xlink:href="#ArialMT-28" transform="translate(194.628906 0)"/>
      <use xlink:href="#ArialMT-77" transform="translate(227.929688 0)"/>
      <use xlink:href="#ArialMT-65" transform="translate(300.146484 0)"/>
      <use xlink:href="#ArialMT-65" transform="translate(355.761719 0)"/>
      <use xlink:href="#ArialMT-6b" transform="translate(411.376953 0)"/>
      <use xlink:href="#ArialMT-73" transform="translate(461.376953 0)"/>
      <use xlink:href="#ArialMT-29" transform="translate(511.376953 0)"/>
      <use xlink:href="#ArialMT-20" transform="translate(544.677734 0)"/>
      <use xlink:href="#ArialMT-2014" transform="translate(572.460938 0)"/>
      <use xlink:href="#ArialMT-20" transform="translate(672.460938 0)"/>
      <use xlink:href="#ArialMT-6e" transform="translate(700.244141 0)"/>
      <use xlink:href="#ArialMT-65" transform="translate(755.859375 0)"/>
      <use xlink:href="#ArialMT-67" transform="translate(811.474609 0)"/>
      <use xlink:href="#ArialMT-61" transform="translate(867.089844 0)"/>
      <use xlink:href="#ArialMT-74" transform="translate(922.705078 0)"/>
      <use xlink:href="#ArialMT-69" transform="translate(950.488281 0)"/>
      <use xlink:href="#ArialMT-76" transform="translate(972.705078 0)"/>
      <use xlink:href="#ArialMT-65" transform="translate(1022.705078 0)"/>
      <use xlink:href="#ArialMT-20" transform="translate(1078.320312 0)"/>
      <use xlink:href="#ArialMT-3d" transform="translate(1106.103516 0)"/>
      <use xlink:href="#ArialMT-20" transform="translate(1164.501953 0)"/>
      <use xlink:href="#ArialMT-73" transform="translate(1192.285156 0)"/>
      <use xlink:href="#ArialMT-74" transform="translate(1242.285156 0)"/>
      <use xlink:href="#ArialMT-6f" transform="translate(1270.068359 0)"/>
      <use xlink:href="#ArialMT-72" transform="translate(1325.683594 0)"/>
      <use xlink:href="#ArialMT-61" transform="translate(1358.984375 0)"/>
      <use xlink:href="#ArialMT-67" transform="translate(1414.599609 0)"/>
      <use xlink:href="#ArialMT-65" transform="translate(1470.214844 0)"/>
      <use xlink:href="#ArialMT-20" transform="translate(1525.830078 0)"/>
      <use xlink:href="#ArialMT-6c" transform="translate(1553.613281 0)"/>
      <use xlink:href="#ArialMT-65" transform="translate(1575.830078 0)"/>
      <use xlink:href="#ArialMT-61" transform="translate(1631.445312 0)"/>
      <use xlink:href="#ArialMT-64" transform="translate(1687.060547 0)"/>
      <use xlink:href="#ArialMT-73" transform="translate(1742.675781 0)"/>
      <use xlink:href="#ArialMT-20" transform="translate(1792.675781 0)"/>
      <use xlink:href="#ArialMT-70" transform="translate(1820.458984 0)"/>
      <use xlink:href="#ArialMT-72" transform="translate(1876.074219 0)"/>
      <use xlink:href="#ArialMT-69" transform="translate(1909.375 0)"/>
      <use xlink:href="#ArialMT-63" transform="translate(1931.591797 0)"/>
      <use xlink:href="#ArialMT-65" transform="translate(1981.591797 0)"/>
     </g>
    </g>
   </g>
   <g id="matplotlib.axis_2">
    <g id="ytick_1">
     <g id="line2d_6">
      <path d="M 71.8025 163.462426 
L 830.0105 163.462426 
" clip-path="url(#p5edf38bee8)" style="fill: none; stroke: #cccccc; stroke-width: 0.8; stroke-linecap: round"/>
     </g>
     <g id="text_7">
      <!-- −0.4 -->
      <g style="fill: #262626" transform="translate(28.759 169.761301) scale(0.176 -0.176)">
       <defs>
        <path id="ArialMT-2e" d="M 581 0 
L 581 641 
L 1222 641 
L 1222 0 
L 581 0 
z
" transform="scale(0.015625)"/>
        <path id="ArialMT-34" d="M 2069 0 
L 2069 1097 
L 81 1097 
L 81 1613 
L 2172 4581 
L 2631 4581 
L 2631 1613 
L 3250 1613 
L 3250 1097 
L 2631 1097 
L 2631 0 
L 2069 0 
z
M 2069 1613 
L 2069 3678 
L 634 1613 
L 2069 1613 
z
" transform="scale(0.015625)"/>
       </defs>
       <use xlink:href="#ArialMT-2212"/>
       <use xlink:href="#ArialMT-30" transform="translate(58.398438 0)"/>
       <use xlink:href="#ArialMT-2e" transform="translate(114.013672 0)"/>
       <use xlink:href="#ArialMT-34" transform="translate(141.796875 0)"/>
      </g>
     </g>
    </g>
    <g id="ytick_2">
     <g id="line2d_7">
      <path d="M 71.8025 95.319713 
L 830.0105 95.319713 
" clip-path="url(#p5edf38bee8)" style="fill: none; stroke: #cccccc; stroke-width: 0.8; stroke-linecap: round"/>
     </g>
     <g id="text_8">
      <!-- −0.2 -->
      <g style="fill: #262626" transform="translate(28.759 101.618588) scale(0.176 -0.176)">
       <defs>
        <path id="ArialMT-32" d="M 3222 541 
L 3222 0 
L 194 0 
Q 188 203 259 391 
Q 375 700 629 1000 
Q 884 1300 1366 1694 
Q 2113 2306 2375 2664 
Q 2638 3022 2638 3341 
Q 2638 3675 2398 3904 
Q 2159 4134 1775 4134 
Q 1369 4134 1125 3890 
Q 881 3647 878 3216 
L 300 3275 
Q 359 3922 746 4261 
Q 1134 4600 1788 4600 
Q 2447 4600 2831 4234 
Q 3216 3869 3216 3328 
Q 3216 3053 3103 2787 
Q 2991 2522 2730 2228 
Q 2469 1934 1863 1422 
Q 1356 997 1212 845 
Q 1069 694 975 541 
L 3222 541 
z
" transform="scale(0.015625)"/>
       </defs>
       <use xlink:href="#ArialMT-2212"/>
       <use xlink:href="#ArialMT-30" transform="translate(58.398438 0)"/>
       <use xlink:href="#ArialMT-2e" transform="translate(114.013672 0)"/>
       <use xlink:href="#ArialMT-32" transform="translate(141.796875 0)"/>
      </g>
     </g>
    </g>
    <g id="ytick_3">
     <g id="line2d_8">
      <path d="M 71.8025 27.177 
L 830.0105 27.177 
" clip-path="url(#p5edf38bee8)" style="fill: none; stroke: #cccccc; stroke-width: 0.8; stroke-linecap: round"/>
     </g>
     <g id="text_9">
      <!-- 0.0 -->
      <g style="fill: #262626" transform="translate(39.0385 33.475875) scale(0.176 -0.176)">
       <use xlink:href="#ArialMT-30"/>
       <use xlink:href="#ArialMT-2e" transform="translate(55.615234 0)"/>
       <use xlink:href="#ArialMT-30" transform="translate(83.398438 0)"/>
      </g>
     </g>
    </g>
    <g id="text_10">
     <!-- Pearson r -->
     <g style="fill: #262626" transform="translate(20.943 159.1485) rotate(-90) scale(0.192 -0.192)">
      <defs>
       <path id="ArialMT-50" d="M 494 0 
L 494 4581 
L 2222 4581 
Q 2678 4581 2919 4538 
Q 3256 4481 3484 4323 
Q 3713 4166 3852 3881 
Q 3991 3597 3991 3256 
Q 3991 2672 3619 2267 
Q 3247 1863 2275 1863 
L 1100 1863 
L 1100 0 
L 494 0 
z
M 1100 2403 
L 2284 2403 
Q 2872 2403 3119 2622 
Q 3366 2841 3366 3238 
Q 3366 3525 3220 3729 
Q 3075 3934 2838 4000 
Q 2684 4041 2272 4041 
L 1100 4041 
L 1100 2403 
z
" transform="scale(0.015625)"/>
      </defs>
      <use xlink:href="#ArialMT-50"/>
      <use xlink:href="#ArialMT-65" transform="translate(66.699219 0)"/>
      <use xlink:href="#ArialMT-61" transform="translate(122.314453 0)"/>
      <use xlink:href="#ArialMT-72" transform="translate(177.929688 0)"/>
      <use xlink:href="#ArialMT-73" transform="translate(211.230469 0)"/>
      <use xlink:href="#ArialMT-6f" transform="translate(261.230469 0)"/>
      <use xlink:href="#ArialMT-6e" transform="translate(316.845703 0)"/>
      <use xlink:href="#ArialMT-20" transform="translate(372.460938 0)"/>
      <use xlink:href="#ArialMT-72" transform="translate(400.244141 0)"/>
     </g>
    </g>
   </g>
   <g id="patch_3">
    <path d="M 106.2665 27.177 
L 128.501339 27.177 
L 128.501339 179.012692 
L 106.2665 179.012692 
z
" clip-path="url(#p5edf38bee8)" style="fill: #ff7f0e; opacity: 0.8; stroke: #ffffff; stroke-width: 0.8; stroke-linejoin: miter"/>
   </g>
   <g id="patch_4">
    <path d="M 134.060048 27.177 
L 156.294887 27.177 
L 156.294887 181.663317 
L 134.060048 181.663317 
z
" clip-path="url(#p5edf38bee8)" style="fill: #ff7f0e; opacity: 0.8; stroke: #ffffff; stroke-width: 0.8; stroke-linejoin: miter"/>
   </g>
   <g id="patch_5">
    <path d="M 161.853597 27.177 
L 184.088435 27.177 
L 184.088435 184.671844 
L 161.853597 184.671844 
z
" clip-path="url(#p5edf38bee8)" style="fill: #ff7f0e; opacity: 0.8; stroke: #ffffff; stroke-width: 0.8; stroke-linejoin: miter"/>
   </g>
   <g id="patch_6">
    <path d="M 189.647145 27.177 
L 211.881984 27.177 
L 211.881984 187.803689 
L 189.647145 187.803689 
z
" clip-path="url(#p5edf38bee8)" style="fill: #ff7f0e; opacity: 0.8; stroke: #ffffff; stroke-width: 0.8; stroke-linejoin: miter"/>
   </g>
   <g id="patch_7">
    <path d="M 217.440694 27.177 
L 239.675532 27.177 
L 239.675532 185.928316 
L 217.440694 185.928316 
z
" clip-path="url(#p5edf38bee8)" style="fill: #ff7f0e; opacity: 0.8; stroke: #ffffff; stroke-width: 0.8; stroke-linejoin: miter"/>
   </g>
   <g id="patch_8">
    <path d="M 245.234242 27.177 
L 267.469081 27.177 
L 267.469081 182.574742 
L 245.234242 182.574742 
z
" clip-path="url(#p5edf38bee8)" style="fill: #ff7f0e; opacity: 0.8; stroke: #ffffff; stroke-width: 0.8; stroke-linejoin: miter"/>
   </g>
   <g id="patch_9">
    <path d="M 273.02779 27.177 
L 295.262629 27.177 
L 295.262629 185.831645 
L 273.02779 185.831645 
z
" clip-path="url(#p5edf38bee8)" style="fill: #ff7f0e; opacity: 0.8; stroke: #ffffff; stroke-width: 0.8; stroke-linejoin: miter"/>
   </g>
   <g id="patch_10">
    <path d="M 300.821339 27.177 
L 323.056177 27.177 
L 323.056177 189.610052 
L 300.821339 189.610052 
z
" clip-path="url(#p5edf38bee8)" style="fill: #ff7f0e; opacity: 0.8; stroke: #ffffff; stroke-width: 0.8; stroke-linejoin: miter"/>
   </g>
   <g id="patch_11">
    <path d="M 328.614887 27.177 
L 350.849726 27.177 
L 350.849726 192.456584 
L 328.614887 192.456584 
z
" clip-path="url(#p5edf38bee8)" style="fill: #ff7f0e; opacity: 0.8; stroke: #ffffff; stroke-width: 0.8; stroke-linejoin: miter"/>
   </g>
   <g id="patch_12">
    <path d="M 356.408435 27.177 
L 378.643274 27.177 
L 378.643274 195.292753 
L 356.408435 195.292753 
z
" clip-path="url(#p5edf38bee8)" style="fill: #ff7f0e; opacity: 0.8; stroke: #ffffff; stroke-width: 0.8; stroke-linejoin: miter"/>
   </g>
   <g id="patch_13">
    <path d="M 384.201984 27.177 
L 406.436823 27.177 
L 406.436823 199.249774 
L 384.201984 199.249774 
z
" clip-path="url(#p5edf38bee8)" style="fill: #ff7f0e; opacity: 0.8; stroke: #ffffff; stroke-width: 0.8; stroke-linejoin: miter"/>
   </g>
   <g id="patch_14">
    <path d="M 411.995532 27.177 
L 434.230371 27.177 
L 434.230371 199.279857 
L 411.995532 199.279857 
z
" clip-path="url(#p5edf38bee8)" style="fill: #ff7f0e; opacity: 0.8; stroke: #ffffff; stroke-width: 0.8; stroke-linejoin: miter"/>
   </g>
   <g id="patch_15">
    <path d="M 439.789081 27.177 
L 462.023919 27.177 
L 462.023919 193.906749 
L 439.789081 193.906749 
z
" clip-path="url(#p5edf38bee8)" style="fill: #ff7f0e; opacity: 0.8; stroke: #ffffff; stroke-width: 0.8; stroke-linejoin: miter"/>
   </g>
   <g id="patch_16">
    <path d="M 467.582629 27.177 
L 489.817468 27.177 
L 489.817468 184.953512 
L 467.582629 184.953512 
z
" clip-path="url(#p5edf38bee8)" style="fill: #ff7f0e; opacity: 0.8; stroke: #ffffff; stroke-width: 0.8; stroke-linejoin: miter"/>
   </g>
   <g id="patch_17">
    <path d="M 495.376177 27.177 
L 517.611016 27.177 
L 517.611016 179.653407 
L 495.376177 179.653407 
z
" clip-path="url(#p5edf38bee8)" style="fill: #ff7f0e; opacity: 0.8; stroke: #ffffff; stroke-width: 0.8; stroke-linejoin: miter"/>
   </g>
   <g id="patch_18">
    <path d="M 523.169726 27.177 
L 545.404565 27.177 
L 545.404565 177.396611 
L 523.169726 177.396611 
z
" clip-path="url(#p5edf38bee8)" style="fill: #ff7f0e; opacity: 0.8; stroke: #ffffff; stroke-width: 0.8; stroke-linejoin: miter"/>
   </g>
   <g id="patch_19">
    <path d="M 550.963274 27.177 
L 573.198113 27.177 
L 573.198113 175.022189 
L 550.963274 175.022189 
z
" clip-path="url(#p5edf38bee8)" style="fill: #ff7f0e; opacity: 0.8; stroke: #ffffff; stroke-width: 0.8; stroke-linejoin: miter"/>
   </g>
   <g id="patch_20">
    <path d="M 578.756823 27.177 
L 600.991661 27.177 
L 600.991661 172.207434 
L 578.756823 172.207434 
z
" clip-path="url(#p5edf38bee8)" style="fill: #ff7f0e; opacity: 0.8; stroke: #ffffff; stroke-width: 0.8; stroke-linejoin: miter"/>
   </g>
   <g id="patch_21">
    <path d="M 606.550371 27.177 
L 628.78521 27.177 
L 628.78521 168.520581 
L 606.550371 168.520581 
z
" clip-path="url(#p5edf38bee8)" style="fill: #ff7f0e; opacity: 0.8; stroke: #ffffff; stroke-width: 0.8; stroke-linejoin: miter"/>
   </g>
   <g id="patch_22">
    <path d="M 634.343919 27.177 
L 656.578758 27.177 
L 656.578758 164.34299 
L 634.343919 164.34299 
z
" clip-path="url(#p5edf38bee8)" style="fill: #ff7f0e; opacity: 0.8; stroke: #ffffff; stroke-width: 0.8; stroke-linejoin: miter"/>
   </g>
   <g id="patch_23">
    <path d="M 662.137468 27.177 
L 684.372306 27.177 
L 684.372306 157.764421 
L 662.137468 157.764421 
z
" clip-path="url(#p5edf38bee8)" style="fill: #ff7f0e; opacity: 0.8; stroke: #ffffff; stroke-width: 0.8; stroke-linejoin: miter"/>
   </g>
   <g id="patch_24">
    <path d="M 689.931016 27.177 
L 712.165855 27.177 
L 712.165855 152.58239 
L 689.931016 152.58239 
z
" clip-path="url(#p5edf38bee8)" style="fill: #ff7f0e; opacity: 0.8; stroke: #ffffff; stroke-width: 0.8; stroke-linejoin: miter"/>
   </g>
   <g id="patch_25">
    <path d="M 717.724565 27.177 
L 739.959403 27.177 
L 739.959403 148.463826 
L 717.724565 148.463826 
z
" clip-path="url(#p5edf38bee8)" style="fill: #ff7f0e; opacity: 0.8; stroke: #ffffff; stroke-width: 0.8; stroke-linejoin: miter"/>
   </g>
   <g id="patch_26">
    <path d="M 745.518113 27.177 
L 767.752952 27.177 
L 767.752952 144.114796 
L 745.518113 144.114796 
z
" clip-path="url(#p5edf38bee8)" style="fill: #ff7f0e; opacity: 0.8; stroke: #ffffff; stroke-width: 0.8; stroke-linejoin: miter"/>
   </g>
   <g id="patch_27">
    <path d="M 773.311661 27.177 
L 795.5465 27.177 
L 795.5465 139.67273 
L 773.311661 139.67273 
z
" clip-path="url(#p5edf38bee8)" style="fill: #ff7f0e; opacity: 0.8; stroke: #ffffff; stroke-width: 0.8; stroke-linejoin: miter"/>
   </g>
   <g id="line2d_9">
    <path d="M 71.8025 27.177 
L 830.0105 27.177 
" clip-path="url(#p5edf38bee8)" style="fill: none; stroke-dasharray: 2.96,1.28; stroke-dashoffset: 0; stroke: #000000; stroke-width: 0.8"/>
   </g>
   <g id="line2d_10">
    <path d="M 450.9065 207.885 
L 450.9065 27.177 
" clip-path="url(#p5edf38bee8)" style="fill: none; stroke-dasharray: 0.8,1.32; stroke-dashoffset: 0; stroke: #000000; stroke-width: 0.8"/>
   </g>
   <g id="patch_28">
    <path d="M 71.8025 207.885 
L 71.8025 27.177 
" style="fill: none; stroke: #cccccc; stroke-linejoin: miter; stroke-linecap: square"/>
   </g>
   <g id="patch_29">
    <path d="M 830.0105 207.885 
L 830.0105 27.177 
" style="fill: none; stroke: #cccccc; stroke-linejoin: miter; stroke-linecap: square"/>
   </g>
   <g id="patch_30">
    <path d="M 71.8025 207.885 
L 830.0105 207.885 
" style="fill: none; stroke: #cccccc; stroke-linejoin: miter; stroke-linecap: square"/>
   </g>
   <g id="patch_31">
    <path d="M 71.8025 27.177 
L 830.0105 27.177 
" style="fill: none; stroke: #cccccc; stroke-linejoin: miter; stroke-linecap: square"/>
   </g>
   <g id="text_11">
    <!-- Cross-Correlation: Price vs Storage Surplus/Deficit at Different Lags -->
    <g style="fill: #262626" transform="translate(162.443 21.177) scale(0.192 -0.192)">
     <defs>
      <path id="ArialMT-43" d="M 3763 1606 
L 4369 1453 
Q 4178 706 3683 314 
Q 3188 -78 2472 -78 
Q 1731 -78 1267 223 
Q 803 525 561 1097 
Q 319 1669 319 2325 
Q 319 3041 592 3573 
Q 866 4106 1370 4382 
Q 1875 4659 2481 4659 
Q 3169 4659 3637 4309 
Q 4106 3959 4291 3325 
L 3694 3184 
Q 3534 3684 3231 3912 
Q 2928 4141 2469 4141 
Q 1941 4141 1586 3887 
Q 1231 3634 1087 3207 
Q 944 2781 944 2328 
Q 944 1744 1114 1308 
Q 1284 872 1643 656 
Q 2003 441 2422 441 
Q 2931 441 3284 734 
Q 3638 1028 3763 1606 
z
" transform="scale(0.015625)"/>
      <path id="ArialMT-2d" d="M 203 1375 
L 203 1941 
L 1931 1941 
L 1931 1375 
L 203 1375 
z
" transform="scale(0.015625)"/>
      <path id="ArialMT-3a" d="M 578 2678 
L 578 3319 
L 1219 3319 
L 1219 2678 
L 578 2678 
z
M 578 0 
L 578 641 
L 1219 641 
L 1219 0 
L 578 0 
z
" transform="scale(0.015625)"/>
      <path id="ArialMT-53" d="M 288 1472 
L 859 1522 
Q 900 1178 1048 958 
Q 1197 738 1509 602 
Q 1822 466 2213 466 
Q 2559 466 2825 569 
Q 3091 672 3220 851 
Q 3350 1031 3350 1244 
Q 3350 1459 3225 1620 
Q 3100 1781 2813 1891 
Q 2628 1963 1997 2114 
Q 1366 2266 1113 2400 
Q 784 2572 623 2826 
Q 463 3081 463 3397 
Q 463 3744 659 4045 
Q 856 4347 1234 4503 
Q 1613 4659 2075 4659 
Q 2584 4659 2973 4495 
Q 3363 4331 3572 4012 
Q 3781 3694 3797 3291 
L 3216 3247 
Q 3169 3681 2898 3903 
Q 2628 4125 2100 4125 
Q 1550 4125 1298 3923 
Q 1047 3722 1047 3438 
Q 1047 3191 1225 3031 
Q 1400 2872 2139 2705 
Q 2878 2538 3153 2413 
Q 3553 2228 3743 1945 
Q 3934 1663 3934 1294 
Q 3934 928 3725 604 
Q 3516 281 3123 101 
Q 2731 -78 2241 -78 
Q 1619 -78 1198 103 
Q 778 284 539 648 
Q 300 1013 288 1472 
z
" transform="scale(0.015625)"/>
      <path id="ArialMT-75" d="M 2597 0 
L 2597 488 
Q 2209 -75 1544 -75 
Q 1250 -75 995 37 
Q 741 150 617 320 
Q 494 491 444 738 
Q 409 903 409 1263 
L 409 3319 
L 972 3319 
L 972 1478 
Q 972 1038 1006 884 
Q 1059 663 1231 536 
Q 1403 409 1656 409 
Q 1909 409 2131 539 
Q 2353 669 2445 892 
Q 2538 1116 2538 1541 
L 2538 3319 
L 3100 3319 
L 3100 0 
L 2597 0 
z
" transform="scale(0.015625)"/>
      <path id="ArialMT-2f" d="M 0 -78 
L 1328 4659 
L 1778 4659 
L 453 -78 
L 0 -78 
z
" transform="scale(0.015625)"/>
      <path id="ArialMT-44" d="M 494 0 
L 494 4581 
L 2072 4581 
Q 2606 4581 2888 4516 
Q 3281 4425 3559 4188 
Q 3922 3881 4101 3404 
Q 4281 2928 4281 2316 
Q 4281 1794 4159 1391 
Q 4038 988 3847 723 
Q 3656 459 3429 307 
Q 3203 156 2883 78 
Q 2563 0 2147 0 
L 494 0 
z
M 1100 541 
L 2078 541 
Q 2531 541 2789 625 
Q 3047 709 3200 863 
Q 3416 1078 3536 1442 
Q 3656 1806 3656 2325 
Q 3656 3044 3420 3430 
Q 3184 3816 2847 3947 
Q 2603 4041 2063 4041 
L 1100 4041 
L 1100 541 
z
" transform="scale(0.015625)"/>
      <path id="ArialMT-66" d="M 556 0 
L 556 2881 
L 59 2881 
L 59 3319 
L 556 3319 
L 556 3672 
Q 556 4006 616 4169 
Q 697 4388 901 4523 
Q 1106 4659 1475 4659 
Q 1713 4659 2000 4603 
L 1916 4113 
Q 1741 4144 1584 4144 
Q 1328 4144 1222 4034 
Q 1116 3925 1116 3625 
L 1116 3319 
L 1763 3319 
L 1763 2881 
L 1116 2881 
L 1116 0 
L 556 0 
z
" transform="scale(0.015625)"/>
     </defs>
     <use xlink:href="#ArialMT-43"/>
     <use xlink:href="#ArialMT-72" transform="translate(72.216797 0)"/>
     <use xlink:href="#ArialMT-6f" transform="translate(105.517578 0)"/>
     <use xlink:href="#ArialMT-73" transform="translate(161.132812 0)"/>
     <use xlink:href="#ArialMT-73" transform="translate(211.132812 0)"/>
     <use xlink:href="#ArialMT-2d" transform="translate(261.132812 0)"/>
     <use xlink:href="#ArialMT-43" transform="translate(294.433594 0)"/>
     <use xlink:href="#ArialMT-6f" transform="translate(366.650391 0)"/>
     <use xlink:href="#ArialMT-72" transform="translate(422.265625 0)"/>
     <use xlink:href="#ArialMT-72" transform="translate(455.566406 0)"/>
     <use xlink:href="#ArialMT-65" transform="translate(488.867188 0)"/>
     <use xlink:href="#ArialMT-6c" transform="translate(544.482422 0)"/>
     <use xlink:href="#ArialMT-61" transform="translate(566.699219 0)"/>
     <use xlink:href="#ArialMT-74" transform="translate(622.314453 0)"/>
     <use xlink:href="#ArialMT-69" transform="translate(650.097656 0)"/>
     <use xlink:href="#ArialMT-6f" transform="translate(672.314453 0)"/>
     <use xlink:href="#ArialMT-6e" transform="translate(727.929688 0)"/>
     <use xlink:href="#ArialMT-3a" transform="translate(783.544922 0)"/>
     <use xlink:href="#ArialMT-20" transform="translate(811.328125 0)"/>
     <use xlink:href="#ArialMT-50" transform="translate(839.111328 0)"/>
     <use xlink:href="#ArialMT-72" transform="translate(905.810547 0)"/>
     <use xlink:href="#ArialMT-69" transform="translate(939.111328 0)"/>
     <use xlink:href="#ArialMT-63" transform="translate(961.328125 0)"/>
     <use xlink:href="#ArialMT-65" transform="translate(1011.328125 0)"/>
     <use xlink:href="#ArialMT-20" transform="translate(1066.943359 0)"/>
     <use xlink:href="#ArialMT-76" transform="translate(1094.726562 0)"/>
     <use xlink:href="#ArialMT-73" transform="translate(1144.726562 0)"/>
     <use xlink:href="#ArialMT-20" transform="translate(1194.726562 0)"/>
     <use xlink:href="#ArialMT-53" transform="translate(1222.509766 0)"/>
     <use xlink:href="#ArialMT-74" transform="translate(1289.208984 0)"/>
     <use xlink:href="#ArialMT-6f" transform="translate(1316.992188 0)"/>
     <use xlink:href="#ArialMT-72" transform="translate(1372.607422 0)"/>
     <use xlink:href="#ArialMT-61" transform="translate(1405.908203 0)"/>
     <use xlink:href="#ArialMT-67" transform="translate(1461.523438 0)"/>
     <use xlink:href="#ArialMT-65" transform="translate(1517.138672 0)"/>
     <use xlink:href="#ArialMT-20" transform="translate(1572.753906 0)"/>
     <use xlink:href="#ArialMT-53" transform="translate(1600.537109 0)"/>
     <use xlink:href="#ArialMT-75" transform="translate(1667.236328 0)"/>
     <use xlink:href="#ArialMT-72" transform="translate(1722.851562 0)"/>
     <use xlink:href="#ArialMT-70" transform="translate(1756.152344 0)"/>
     <use xlink:href="#ArialMT-6c" transform="translate(1811.767578 0)"/>
     <use xlink:href="#ArialMT-75" transform="translate(1833.984375 0)"/>
     <use xlink:href="#ArialMT-73" transform="translate(1889.599609 0)"/>
     <use xlink:href="#ArialMT-2f" transform="translate(1939.599609 0)"/>
     <use xlink:href="#ArialMT-44" transform="translate(1967.382812 0)"/>
     <use xlink:href="#ArialMT-65" transform="translate(2039.599609 0)"/>
     <use xlink:href="#ArialMT-66" transform="translate(2095.214844 0)"/>
     <use xlink:href="#ArialMT-69" transform="translate(2122.998047 0)"/>
     <use xlink:href="#ArialMT-63" transform="translate(2145.214844 0)"/>
     <use xlink:href="#ArialMT-69" transform="translate(2195.214844 0)"/>
     <use xlink:href="#ArialMT-74" transform="translate(2217.431641 0)"/>
     <use xlink:href="#ArialMT-20" transform="translate(2245.214844 0)"/>
     <use xlink:href="#ArialMT-61" transform="translate(2272.998047 0)"/>
     <use xlink:href="#ArialMT-74" transform="translate(2328.613281 0)"/>
     <use xlink:href="#ArialMT-20" transform="translate(2356.396484 0)"/>
     <use xlink:href="#ArialMT-44" transform="translate(2384.179688 0)"/>
     <use xlink:href="#ArialMT-69" transform="translate(2456.396484 0)"/>
     <use xlink:href="#ArialMT-66" transform="translate(2478.613281 0)"/>
     <use xlink:href="#ArialMT-66" transform="translate(2504.646484 0)"/>
     <use xlink:href="#ArialMT-65" transform="translate(2532.429688 0)"/>
     <use xlink:href="#ArialMT-72" transform="translate(2588.044922 0)"/>
     <use xlink:href="#ArialMT-65" transform="translate(2621.345703 0)"/>
     <use xlink:href="#ArialMT-6e" transform="translate(2676.960938 0)"/>
     <use xlink:href="#ArialMT-74" transform="translate(2732.576172 0)"/>
     <use xlink:href="#ArialMT-20" transform="translate(2760.359375 0)"/>
     <use xlink:href="#ArialMT-4c" transform="translate(2788.142578 0)"/>
     <use xlink:href="#ArialMT-61" transform="translate(2843.757812 0)"/>
     <use xlink:href="#ArialMT-67" transform="translate(2899.373047 0)"/>
     <use xlink:href="#ArialMT-73" transform="translate(2954.988281 0)"/>
    </g>
   </g>
  </g>
 </g>
 <defs>
  <clipPath id="p5edf38bee8">
   <rect x="71.8025" y="27.177" width="758.208" height="180.708"/>
  </clipPath>
 </defs>
</svg>
