<?xml version="1.0" encoding="utf-8" standalone="no"?>
<!DOCTYPE svg PUBLIC "-//W3C//DTD SVG 1.1//EN"
  "http://www.w3.org/Graphics/SVG/1.1/DTD/svg11.dtd">
<svg xmlns:xlink="http://www.w3.org/1999/xlink" width="981.5205pt" height="260.76075pt" viewBox="0 0 981.5205 260.76075" xmlns="http://www.w3.org/2000/svg" version="1.1">
 <metadata>
  <rdf:RDF xmlns:dc="http://purl.org/dc/elements/1.1/" xmlns:cc="http://creativecommons.org/ns#" xmlns:rdf="http://www.w3.org/1999/02/22-rdf-syntax-ns#">
   <cc:Work>
    <dc:type rdf:resource="http://purl.org/dc/dcmitype/StillImage"/>
    <dc:date>2026-03-31T22:11:12.354123</dc:date>
    <dc:format>image/svg+xml</dc:format>
    <dc:creator>
     <cc:Agent>
      <dc:title>Matplotlib v3.10.8, https://matplotlib.org/</dc:title>
     </cc:Agent>
    </dc:creator>
   </cc:Work>
  </rdf:RDF>
 </metadata>
 <defs>
  <style type="text/css">*{stroke-linejoin: round; stroke-linecap: butt}</style>
 </defs>
 <g id="figure_1">
  <g id="patch_1">
   <path d="M 0 260.76075 
L 981.5205 260.76075 
L 981.5205 0 
L 0 0 
z
" style="fill: #ffffff"/>
  </g>
  <g id="axes_1">
   <g id="patch_2">
    <path d="M 95.7825 229.165 
L 974.3205 229.165 
L 974.3205 27.177 
L 95.7825 27.177 
z
" style="fill: #ffffff"/>
   </g>
   <g id="matplotlib.axis_1">
    <g id="xtick_1">
     <g id="line2d_1">
      <path d="M 201.559651 229.165 
L 201.559651 27.177 
" clip-path="url(#pf0b3d52fea)" style="fill: none; stroke: #cccccc; stroke-width: 0.8; stroke-linecap: round"/>
     </g>
     <g id="text_1">
      <!-- 2004 -->
      <g style="fill: #262626" transform="translate(181.985151 250.06275) scale(0.176 -0.176)">
       <defs>
        <path id="ArialMT-32" d="M 3222 541 
L 3222 0 
L 194 0 
Q 188 203 259 391 
Q 375 700 629 1000 
Q 884 1300 1366 1694 
Q 2113 2306 2375 2664 
Q 2638 3022 2638 3341 
Q 2638 3675 2398 3904 
Q 2159 4134 1775 4134 
Q 1369 4134 1125 3890 
Q 881 3647 878 3216 
L 300 3275 
Q 359 3922 746 4261 
Q 1134 4600 1788 4600 
Q 2447 4600 2831 4234 
Q 3216 3869 3216 3328 
Q 3216 3053 3103 2787 
Q 2991 2522 2730 2228 
Q 2469 1934 1863 1422 
Q 1356 997 1212 845 
Q 1069 694 975 541 
L 3222 541 
z
" transform="scale(0.015625)"/>
        <path id="ArialMT-30" d="M 266 2259 
Q 266 3072 433 3567 
Q 600 4063 929 4331 
Q 1259 4600 1759 4600 
Q 2128 4600 2406 4451 
Q 2684 4303 2865 4023 
Q 3047 3744 3150 3342 
Q 3253 2941 3253 2259 
Q 3253 1453 3087 958 
Q 2922 463 2592 192 
Q 2263 -78 1759 -78 
Q 1097 -78 719 397 
Q 266 969 266 2259 
z
M 844 2259 
Q 844 1131 1108 757 
Q 1372 384 1759 384 
Q 2147 384 2411 759 
Q 2675 1134 2675 2259 
Q 2675 3391 2411 3762 
Q 2147 4134 1753 4134 
Q 1366 4134 1134 3806 
Q 844 3388 844 2259 
z
" transform="scale(0.015625)"/>
        <path id="ArialMT-34" d="M 2069 0 
L 2069 1097 
L 81 1097 
L 81 1613 
L 2172 4581 
L 2631 4581 
L 2631 1613 
L 3250 1613 
L 3250 1097 
L 2631 1097 
L 2631 0 
L 2069 0 
z
M 2069 1613 
L 2069 3678 
L 634 1613 
L 2069 1613 
z
" transform="scale(0.015625)"/>
       </defs>
       <use xlink:href="#ArialMT-32"/>
       <use xlink:href="#ArialMT-30" transform="translate(55.615234 0)"/>
       <use xlink:href="#ArialMT-30" transform="translate(111.230469 0)"/>
       <use xlink:href="#ArialMT-34" transform="translate(166.845703 0)"/>
      </g>
     </g>
    </g>
    <g id="xtick_2">
     <g id="line2d_2">
      <path d="M 377.854901 229.165 
L 377.854901 27.177 
" clip-path="url(#pf0b3d52fea)" style="fill: none; stroke: #cccccc; stroke-width: 0.8; stroke-linecap: round"/>
     </g>
     <g id="text_2">
      <!-- 2009 -->
      <g style="fill: #262626" transform="translate(358.280401 250.06275) scale(0.176 -0.176)">
       <defs>
        <path id="ArialMT-39" d="M 350 1059 
L 891 1109 
Q 959 728 1153 556 
Q 1347 384 1650 384 
Q 1909 384 2104 503 
Q 2300 622 2425 820 
Q 2550 1019 2634 1356 
Q 2719 1694 2719 2044 
Q 2719 2081 2716 2156 
Q 2547 1888 2255 1720 
Q 1963 1553 1622 1553 
Q 1053 1553 659 1965 
Q 266 2378 266 3053 
Q 266 3750 677 4175 
Q 1088 4600 1706 4600 
Q 2153 4600 2523 4359 
Q 2894 4119 3086 3673 
Q 3278 3228 3278 2384 
Q 3278 1506 3087 986 
Q 2897 466 2520 194 
Q 2144 -78 1638 -78 
Q 1100 -78 759 220 
Q 419 519 350 1059 
z
M 2653 3081 
Q 2653 3566 2395 3850 
Q 2138 4134 1775 4134 
Q 1400 4134 1122 3828 
Q 844 3522 844 3034 
Q 844 2597 1108 2323 
Q 1372 2050 1759 2050 
Q 2150 2050 2401 2323 
Q 2653 2597 2653 3081 
z
" transform="scale(0.015625)"/>
       </defs>
       <use xlink:href="#ArialMT-32"/>
       <use xlink:href="#ArialMT-30" transform="translate(55.615234 0)"/>
       <use xlink:href="#ArialMT-30" transform="translate(111.230469 0)"/>
       <use xlink:href="#ArialMT-39" transform="translate(166.845703 0)"/>
      </g>
     </g>
    </g>
    <g id="xtick_3">
     <g id="line2d_3">
      <path d="M 554.150152 229.165 
L 554.150152 27.177 
" clip-path="url(#pf0b3d52fea)" style="fill: none; stroke: #cccccc; stroke-width: 0.8; stroke-linecap: round"/>
     </g>
     <g id="text_3">
      <!-- 2014 -->
      <g style="fill: #262626" transform="translate(534.575652 250.06275) scale(0.176 -0.176)">
       <defs>
        <path id="ArialMT-31" d="M 2384 0 
L 1822 0 
L 1822 3584 
Q 1619 3391 1289 3197 
Q 959 3003 697 2906 
L 697 3450 
Q 1169 3672 1522 3987 
Q 1875 4303 2022 4600 
L 2384 4600 
L 2384 0 
z
" transform="scale(0.015625)"/>
       </defs>
       <use xlink:href="#ArialMT-32"/>
       <use xlink:href="#ArialMT-30" transform="translate(55.615234 0)"/>
       <use xlink:href="#ArialMT-31" transform="translate(111.230469 0)"/>
       <use xlink:href="#ArialMT-34" transform="translate(166.845703 0)"/>
      </g>
     </g>
    </g>
    <g id="xtick_4">
     <g id="line2d_4">
      <path d="M 730.445403 229.165 
L 730.445403 27.177 
" clip-path="url(#pf0b3d52fea)" style="fill: none; stroke: #cccccc; stroke-width: 0.8; stroke-linecap: round"/>
     </g>
     <g id="text_4">
      <!-- 2019 -->
      <g style="fill: #262626" transform="translate(710.870903 250.06275) scale(0.176 -0.176)">
       <use xlink:href="#ArialMT-32"/>
       <use xlink:href="#ArialMT-30" transform="translate(55.615234 0)"/>
       <use xlink:href="#ArialMT-31" transform="translate(111.230469 0)"/>
       <use xlink:href="#ArialMT-39" transform="translate(166.845703 0)"/>
      </g>
     </g>
    </g>
    <g id="xtick_5">
     <g id="line2d_5">
      <path d="M 906.740654 229.165 
L 906.740654 27.177 
" clip-path="url(#pf0b3d52fea)" style="fill: none; stroke: #cccccc; stroke-width: 0.8; stroke-linecap: round"/>
     </g>
     <g id="text_5">
      <!-- 2024 -->
      <g style="fill: #262626" transform="translate(887.166154 250.06275) scale(0.176 -0.176)">
       <use xlink:href="#ArialMT-32"/>
       <use xlink:href="#ArialMT-30" transform="translate(55.615234 0)"/>
       <use xlink:href="#ArialMT-32" transform="translate(111.230469 0)"/>
       <use xlink:href="#ArialMT-34" transform="translate(166.845703 0)"/>
      </g>
     </g>
    </g>
    <g id="xtick_6"/>
    <g id="xtick_7"/>
    <g id="xtick_8"/>
    <g id="xtick_9"/>
    <g id="xtick_10"/>
    <g id="xtick_11"/>
    <g id="xtick_12"/>
    <g id="xtick_13"/>
    <g id="xtick_14"/>
    <g id="xtick_15"/>
    <g id="xtick_16"/>
    <g id="xtick_17"/>
    <g id="xtick_18"/>
    <g id="xtick_19"/>
    <g id="xtick_20"/>
    <g id="xtick_21"/>
    <g id="xtick_22"/>
    <g id="xtick_23"/>
    <g id="xtick_24"/>
    <g id="xtick_25"/>
   </g>
   <g id="matplotlib.axis_2">
    <g id="ytick_1">
     <g id="line2d_6">
      <path d="M 95.7825 190.039457 
L 974.3205 190.039457 
" clip-path="url(#pf0b3d52fea)" style="fill: none; stroke: #cccccc; stroke-width: 0.8; stroke-linecap: round"/>
     </g>
     <g id="text_6">
      <!-- 200000 -->
      <g style="fill: #262626" transform="translate(28.759 196.338332) scale(0.176 -0.176)">
       <use xlink:href="#ArialMT-32"/>
       <use xlink:href="#ArialMT-30" transform="translate(55.615234 0)"/>
       <use xlink:href="#ArialMT-30" transform="translate(111.230469 0)"/>
       <use xlink:href="#ArialMT-30" transform="translate(166.845703 0)"/>
       <use xlink:href="#ArialMT-30" transform="translate(222.460938 0)"/>
       <use xlink:href="#ArialMT-30" transform="translate(278.076172 0)"/>
      </g>
     </g>
    </g>
    <g id="ytick_2">
     <g id="line2d_7">
      <path d="M 95.7825 115.007143 
L 974.3205 115.007143 
" clip-path="url(#pf0b3d52fea)" style="fill: none; stroke: #cccccc; stroke-width: 0.8; stroke-linecap: round"/>
     </g>
     <g id="text_7">
      <!-- 400000 -->
      <g style="fill: #262626" transform="translate(28.759 121.306018) scale(0.176 -0.176)">
       <use xlink:href="#ArialMT-34"/>
       <use xlink:href="#ArialMT-30" transform="translate(55.615234 0)"/>
       <use xlink:href="#ArialMT-30" transform="translate(111.230469 0)"/>
       <use xlink:href="#ArialMT-30" transform="translate(166.845703 0)"/>
       <use xlink:href="#ArialMT-30" transform="translate(222.460938 0)"/>
       <use xlink:href="#ArialMT-30" transform="translate(278.076172 0)"/>
      </g>
     </g>
    </g>
    <g id="ytick_3">
     <g id="line2d_8">
      <path d="M 95.7825 39.97483 
L 974.3205 39.97483 
" clip-path="url(#pf0b3d52fea)" style="fill: none; stroke: #cccccc; stroke-width: 0.8; stroke-linecap: round"/>
     </g>
     <g id="text_8">
      <!-- 600000 -->
      <g style="fill: #262626" transform="translate(28.759 46.273705) scale(0.176 -0.176)">
       <defs>
        <path id="ArialMT-36" d="M 3184 3459 
L 2625 3416 
Q 2550 3747 2413 3897 
Q 2184 4138 1850 4138 
Q 1581 4138 1378 3988 
Q 1113 3794 959 3422 
Q 806 3050 800 2363 
Q 1003 2672 1297 2822 
Q 1591 2972 1913 2972 
Q 2475 2972 2870 2558 
Q 3266 2144 3266 1488 
Q 3266 1056 3080 686 
Q 2894 316 2569 119 
Q 2244 -78 1831 -78 
Q 1128 -78 684 439 
Q 241 956 241 2144 
Q 241 3472 731 4075 
Q 1159 4600 1884 4600 
Q 2425 4600 2770 4297 
Q 3116 3994 3184 3459 
z
M 888 1484 
Q 888 1194 1011 928 
Q 1134 663 1356 523 
Q 1578 384 1822 384 
Q 2178 384 2434 671 
Q 2691 959 2691 1453 
Q 2691 1928 2437 2201 
Q 2184 2475 1800 2475 
Q 1419 2475 1153 2201 
Q 888 1928 888 1484 
z
" transform="scale(0.015625)"/>
       </defs>
       <use xlink:href="#ArialMT-36"/>
       <use xlink:href="#ArialMT-30" transform="translate(55.615234 0)"/>
       <use xlink:href="#ArialMT-30" transform="translate(111.230469 0)"/>
       <use xlink:href="#ArialMT-30" transform="translate(166.845703 0)"/>
       <use xlink:href="#ArialMT-30" transform="translate(222.460938 0)"/>
       <use xlink:href="#ArialMT-30" transform="translate(278.076172 0)"/>
      </g>
     </g>
    </g>
    <g id="text_9">
     <!-- MMcf / month -->
     <g style="fill: #262626" transform="translate(20.943 186.311) rotate(-90) scale(0.192 -0.192)">
      <defs>
       <path id="ArialMT-4d" d="M 475 0 
L 475 4581 
L 1388 4581 
L 2472 1338 
Q 2622 884 2691 659 
Q 2769 909 2934 1394 
L 4031 4581 
L 4847 4581 
L 4847 0 
L 4263 0 
L 4263 3834 
L 2931 0 
L 2384 0 
L 1059 3900 
L 1059 0 
L 475 0 
z
" transform="scale(0.015625)"/>
       <path id="ArialMT-63" d="M 2588 1216 
L 3141 1144 
Q 3050 572 2676 248 
Q 2303 -75 1759 -75 
Q 1078 -75 664 370 
Q 250 816 250 1647 
Q 250 2184 428 2587 
Q 606 2991 970 3192 
Q 1334 3394 1763 3394 
Q 2303 3394 2647 3120 
Q 2991 2847 3088 2344 
L 2541 2259 
Q 2463 2594 2264 2762 
Q 2066 2931 1784 2931 
Q 1359 2931 1093 2626 
Q 828 2322 828 1663 
Q 828 994 1084 691 
Q 1341 388 1753 388 
Q 2084 388 2306 591 
Q 2528 794 2588 1216 
z
" transform="scale(0.015625)"/>
       <path id="ArialMT-66" d="M 556 0 
L 556 2881 
L 59 2881 
L 59 3319 
L 556 3319 
L 556 3672 
Q 556 4006 616 4169 
Q 697 4388 901 4523 
Q 1106 4659 1475 4659 
Q 1713 4659 2000 4603 
L 1916 4113 
Q 1741 4144 1584 4144 
Q 1328 4144 1222 4034 
Q 1116 3925 1116 3625 
L 1116 3319 
L 1763 3319 
L 1763 2881 
L 1116 2881 
L 1116 0 
L 556 0 
z
" transform="scale(0.015625)"/>
       <path id="ArialMT-20" transform="scale(0.015625)"/>
       <path id="ArialMT-2f" d="M 0 -78 
L 1328 4659 
L 1778 4659 
L 453 -78 
L 0 -78 
z
" transform="scale(0.015625)"/>
       <path id="ArialMT-6d" d="M 422 0 
L 422 3319 
L 925 3319 
L 925 2853 
Q 1081 3097 1340 3245 
Q 1600 3394 1931 3394 
Q 2300 3394 2536 3241 
Q 2772 3088 2869 2813 
Q 3263 3394 3894 3394 
Q 4388 3394 4653 3120 
Q 4919 2847 4919 2278 
L 4919 0 
L 4359 0 
L 4359 2091 
Q 4359 2428 4304 2576 
Q 4250 2725 4106 2815 
Q 3963 2906 3769 2906 
Q 3419 2906 3187 2673 
Q 2956 2441 2956 1928 
L 2956 0 
L 2394 0 
L 2394 2156 
Q 2394 2531 2256 2718 
Q 2119 2906 1806 2906 
Q 1569 2906 1367 2781 
Q 1166 2656 1075 2415 
Q 984 2175 984 1722 
L 984 0 
L 422 0 
z
" transform="scale(0.015625)"/>
       <path id="ArialMT-6f" d="M 213 1659 
Q 213 2581 725 3025 
Q 1153 3394 1769 3394 
Q 2453 3394 2887 2945 
Q 3322 2497 3322 1706 
Q 3322 1066 3130 698 
Q 2938 331 2570 128 
Q 2203 -75 1769 -75 
Q 1072 -75 642 372 
Q 213 819 213 1659 
z
M 791 1659 
Q 791 1022 1069 705 
Q 1347 388 1769 388 
Q 2188 388 2466 706 
Q 2744 1025 2744 1678 
Q 2744 2294 2464 2611 
Q 2184 2928 1769 2928 
Q 1347 2928 1069 2612 
Q 791 2297 791 1659 
z
" transform="scale(0.015625)"/>
       <path id="ArialMT-6e" d="M 422 0 
L 422 3319 
L 928 3319 
L 928 2847 
Q 1294 3394 1984 3394 
Q 2284 3394 2536 3286 
Q 2788 3178 2913 3003 
Q 3038 2828 3088 2588 
Q 3119 2431 3119 2041 
L 3119 0 
L 2556 0 
L 2556 2019 
Q 2556 2363 2490 2533 
Q 2425 2703 2258 2804 
Q 2091 2906 1866 2906 
Q 1506 2906 1245 2678 
Q 984 2450 984 1813 
L 984 0 
L 422 0 
z
" transform="scale(0.015625)"/>
       <path id="ArialMT-74" d="M 1650 503 
L 1731 6 
Q 1494 -44 1306 -44 
Q 1000 -44 831 53 
Q 663 150 594 308 
Q 525 466 525 972 
L 525 2881 
L 113 2881 
L 113 3319 
L 525 3319 
L 525 4141 
L 1084 4478 
L 1084 3319 
L 1650 3319 
L 1650 2881 
L 1084 2881 
L 1084 941 
Q 1084 700 1114 631 
Q 1144 563 1211 522 
Q 1278 481 1403 481 
Q 1497 481 1650 503 
z
" transform="scale(0.015625)"/>
       <path id="ArialMT-68" d="M 422 0 
L 422 4581 
L 984 4581 
L 984 2938 
Q 1378 3394 1978 3394 
Q 2347 3394 2619 3248 
Q 2891 3103 3008 2847 
Q 3125 2591 3125 2103 
L 3125 0 
L 2563 0 
L 2563 2103 
Q 2563 2525 2380 2717 
Q 2197 2909 1863 2909 
Q 1613 2909 1392 2779 
Q 1172 2650 1078 2428 
Q 984 2206 984 1816 
L 984 0 
L 422 0 
z
" transform="scale(0.015625)"/>
      </defs>
      <use xlink:href="#ArialMT-4d"/>
      <use xlink:href="#ArialMT-4d" transform="translate(83.300781 0)"/>
      <use xlink:href="#ArialMT-63" transform="translate(166.601562 0)"/>
      <use xlink:href="#ArialMT-66" transform="translate(216.601562 0)"/>
      <use xlink:href="#ArialMT-20" transform="translate(244.384766 0)"/>
      <use xlink:href="#ArialMT-2f" transform="translate(272.167969 0)"/>
      <use xlink:href="#ArialMT-20" transform="translate(299.951172 0)"/>
      <use xlink:href="#ArialMT-6d" transform="translate(327.734375 0)"/>
      <use xlink:href="#ArialMT-6f" transform="translate(411.035156 0)"/>
      <use xlink:href="#ArialMT-6e" transform="translate(466.650391 0)"/>
      <use xlink:href="#ArialMT-74" transform="translate(522.265625 0)"/>
      <use xlink:href="#ArialMT-68" transform="translate(550.048828 0)"/>
     </g>
    </g>
   </g>
   <g id="line2d_9">
    <path d="M 95.7825 77.390819 
L 98.720754 106.600898 
L 101.659008 124.128071 
L 104.597263 169.270137 
L 107.535517 203.490499 
L 110.473771 214.256511 
L 113.412025 216.145074 
L 116.350279 214.917545 
L 119.288533 211.295361 
L 122.226788 195.533323 
L 125.165042 178.57677 
L 128.103296 135.251612 
L 131.04155 101.788701 
L 133.979804 115.040533 
L 136.918059 125.194656 
L 139.856313 164.826348 
L 142.794567 193.014488 
L 145.732821 210.241532 
L 148.671075 213.734286 
L 151.609329 214.155968 
L 154.547584 212.00254 
L 157.485838 190.306572 
L 160.424092 153.239483 
L 163.362346 107.744766 
L 166.3006 71.884197 
L 169.238855 84.061942 
L 172.177109 119.437801 
L 175.115363 167.128715 
L 178.053617 197.893464 
L 180.991871 214.686821 
L 183.930125 215.593962 
L 186.86838 215.989757 
L 189.806634 214.016783 
L 192.744888 198.770592 
L 195.683142 168.932867 
L 198.621396 119.641514 
L 201.559651 74.970276 
L 204.497905 85.884477 
L 207.436159 131.106077 
L 210.374413 170.102245 
L 213.312667 200.175572 
L 216.250921 213.004597 
L 219.189176 216.800106 
L 222.12743 216.802732 
L 225.065684 215.528684 
L 228.003938 199.365223 
L 230.942192 168.904355 
L 233.880446 114.346859 
L 236.818701 89.974488 
L 239.756955 110.519086 
L 242.695209 123.624229 
L 245.633463 174.036565 
L 248.571717 199.888198 
L 251.509972 214.253134 
L 254.448226 218.308256 
L 257.38648 218.588126 
L 260.324734 217.527169 
L 263.262988 204.266709 
L 266.201242 174.982722 
L 269.139497 109.813407 
L 272.077751 116.135254 
L 275.016005 118.733623 
L 277.954259 132.687007 
L 280.892513 180.402681 
L 283.830768 204.927368 
L 286.769022 214.699952 
L 289.707276 219.334698 
L 292.64553 217.652848 
L 295.583784 215.167778 
L 298.522038 194.684707 
L 301.460293 168.951625 
L 304.398547 135.01526 
L 307.336801 103.110395 
L 310.275055 86.024787 
L 313.213309 132.161781 
L 319.089818 201.913695 
L 322.028072 214.511621 
L 324.966326 219.148993 
L 327.90458 217.395863 
L 330.842834 217.306199 
L 333.781089 205.912167 
L 336.719343 168.562582 
L 339.657597 116.900959 
L 342.595851 86.064179 
L 345.534105 92.935263 
L 348.47236 122.335174 
L 351.410614 169.341418 
L 354.348868 197.638729 
L 357.287122 214.899538 
L 360.225376 217.145255 
L 363.16363 217.543301 
L 366.101885 216.618528 
L 369.040139 195.487928 
L 371.978393 161.676117 
L 374.916647 106.468091 
L 377.854901 70.778971 
L 380.793156 105.019592 
L 383.73141 130.669013 
L 386.669664 171.61152 
L 389.607918 202.707537 
L 392.546172 214.986575 
L 395.484426 217.015449 
L 398.422681 216.73933 
L 401.360935 215.773664 
L 404.299189 190.553053 
L 407.237443 170.777536 
L 410.175697 104.253137 
L 413.113952 77.826006 
L 416.052206 99.678417 
L 418.99046 138.573667 
L 421.928714 184.271347 
L 424.866968 204.612983 
L 427.805222 216.408813 
L 430.743477 219.983727 
L 436.619985 215.196291 
L 439.558239 195.540451 
L 442.496493 157.514449 
L 445.434747 89.732134 
L 448.373002 66.986838 
L 451.311256 103.102517 
L 454.24951 129.661704 
L 457.187764 178.032035 
L 460.126018 202.701159 
L 463.064273 214.854143 
L 466.002527 216.245617 
L 468.940781 213.31373 
L 471.879035 211.936137 
L 474.817289 187.735214 
L 477.755543 157.607114 
L 480.693798 114.930235 
L 483.632052 97.801859 
L 486.570306 119.867361 
L 489.50856 166.94301 
L 492.446814 186.685512 
L 495.385069 209.121299 
L 498.323323 215.898968 
L 501.261577 218.365655 
L 504.199831 214.99708 
L 507.138085 211.927508 
L 510.076339 185.249394 
L 513.014594 149.493495 
L 515.952848 118.445499 
L 518.891102 85.375382 
L 521.829356 104.122206 
L 524.76761 117.461826 
L 527.705865 171.545867 
L 530.644119 201.725739 
L 533.582373 214.032164 
L 536.520627 214.403574 
L 539.458881 213.667507 
L 542.397135 211.826589 
L 545.33539 187.536754 
L 548.273644 135.591508 
L 551.211898 87.302212 
L 554.150152 50.575395 
L 557.088406 81.203211 
L 560.026661 107.153511 
L 562.964915 170.891961 
L 565.903169 198.760837 
L 568.841423 212.004791 
L 571.779677 213.446162 
L 574.717931 213.628866 
L 577.656186 209.205335 
L 580.59444 189.15445 
L 583.532694 129.439609 
L 586.470948 104.971196 
L 589.409202 65.24909 
L 592.347457 70.98531 
L 595.285711 120.344942 
L 598.223965 177.958879 
L 601.162219 204.854212 
L 604.100473 214.257636 
L 607.038727 214.902164 
L 609.976982 214.320288 
L 612.915236 213.252203 
L 615.85349 191.929896 
L 618.791744 158.814384 
L 621.729998 132.825067 
L 624.668253 76.330612 
L 627.606507 109.924455 
L 630.544761 153.105926 
L 633.483015 177.63699 
L 636.421269 200.807719 
L 639.359523 213.171919 
L 642.297778 214.571647 
L 645.236032 212.38558 
L 648.174286 211.787197 
L 651.11254 193.251965 
L 654.050794 159.801434 
L 656.989048 91.48939 
L 659.927303 85.230195 
L 662.865557 130.225197 
L 665.803811 125.636221 
L 668.742065 185.548397 
L 671.680319 198.10468 
L 674.618574 213.284842 
L 677.556828 214.931051 
L 680.495082 213.589098 
L 683.433336 210.73787 
L 686.37159 189.783221 
L 689.309844 144.107676 
L 692.248099 82.440869 
L 695.186353 57.243517 
L 698.124607 105.927108 
L 701.062861 108.275244 
L 704.001115 151.832628 
L 706.93937 203.639814 
L 709.877624 211.648388 
L 712.815878 213.459292 
L 715.754132 211.43267 
L 718.692386 210.072334 
L 721.63064 176.019669 
L 724.568895 120.163364 
L 727.507149 92.847475 
L 730.445403 57.110335 
L 733.383657 87.903221 
L 736.321911 105.916228 
L 739.260166 172.576811 
L 742.19842 195.709273 
L 745.136674 210.803524 
L 748.074928 211.817585 
L 751.013182 212.253523 
L 753.951436 211.36439 
L 756.889691 183.983974 
L 759.827945 119.200324 
L 762.766199 93.691589 
L 765.704453 81.397919 
L 768.642707 97.520488 
L 771.580962 138.136979 
L 774.519216 175.961519 
L 777.45747 204.201431 
L 780.395724 215.757907 
L 783.333978 216.772344 
L 786.272232 215.989757 
L 789.210487 211.309617 
L 792.148741 186.943623 
L 795.086995 155.190324 
L 798.025249 95.16935 
L 800.963503 78.820184 
L 803.901758 78.930857 
L 806.840012 131.058806 
L 809.778266 172.304069 
L 812.71652 196.732714 
L 815.654774 211.288232 
L 818.593028 211.487068 
L 821.531283 212.184869 
L 824.469537 208.964482 
L 827.407791 191.752069 
L 830.346045 138.78751 
L 833.284299 114.615475 
L 836.222554 58.394888 
L 839.160808 90.981797 
L 842.099062 120.45524 
L 845.037316 161.550813 
L 847.97557 196.354176 
L 850.913824 210.252411 
L 853.852079 210.821532 
L 856.790333 211.957146 
L 859.728587 208.832425 
L 862.666841 181.298192 
L 865.605095 132.509931 
L 868.543349 80.404116 
L 871.481604 85.528073 
L 874.419858 104.958816 
L 877.358112 111.16774 
L 880.296366 169.512116 
L 883.23462 196.195108 
L 886.172875 208.665103 
L 889.111129 211.006486 
L 892.049383 210.130109 
L 894.987637 209.8191 
L 897.925891 180.508102 
L 900.864145 134.381987 
L 903.8024 109.336576 
L 906.740654 61.431821 
L 909.678908 109.282553 
L 912.617162 134.727886 
L 915.555416 172.055337 
L 918.493671 199.044835 
L 921.431925 207.745957 
L 924.370179 209.983796 
L 927.308433 209.607884 
L 930.246687 207.20685 
L 933.184941 186.793559 
L 936.123196 147.176122 
L 941.999704 36.358273 
L 944.937958 80.461516 
L 947.876212 128.260101 
L 950.814467 166.633877 
L 953.752721 193.486816 
L 956.690975 206.866953 
L 962.567483 207.719321 
L 965.505737 207.008389 
L 968.443992 179.981375 
L 971.382246 137.445932 
L 974.3205 74.789073 
L 974.3205 74.789073 
" clip-path="url(#pf0b3d52fea)" style="fill: none; stroke: #9467bd; stroke-opacity: 0.4; stroke-width: 0.8; stroke-linecap: round"/>
   </g>
   <g id="line2d_10">
    <path d="M 128.103296 170.571385 
L 131.04155 172.604542 
L 133.979804 173.307845 
L 136.918059 173.396727 
L 139.856313 173.026411 
L 142.794567 172.15341 
L 145.732821 171.818828 
L 148.671075 171.617929 
L 151.609329 171.554465 
L 154.547584 171.613396 
L 157.485838 171.177834 
L 160.424092 169.066393 
L 163.362346 166.774156 
L 169.238855 161.700565 
L 172.177109 161.220827 
L 175.115363 161.412691 
L 180.991871 162.189713 
L 189.806634 162.665355 
L 192.744888 163.37069 
L 195.683142 164.678472 
L 198.621396 165.669868 
L 204.497905 166.078919 
L 207.436159 167.051275 
L 213.312667 167.489245 
L 216.250921 167.34906 
L 228.003938 167.692864 
L 230.942192 167.690488 
L 233.880446 167.249267 
L 236.818701 168.499618 
L 239.756955 170.552502 
L 242.695209 169.929015 
L 245.633463 170.256875 
L 248.571717 170.232927 
L 257.38648 170.611434 
L 260.324734 170.777974 
L 266.201242 171.692962 
L 269.139497 171.315174 
L 272.077751 173.495238 
L 280.892513 175.465524 
L 283.830768 175.885455 
L 292.64553 175.930287 
L 295.583784 175.733671 
L 298.522038 174.935171 
L 301.460293 174.432579 
L 304.398547 176.532734 
L 307.336801 175.447329 
L 310.275055 172.721592 
L 313.213309 172.677823 
L 316.151564 171.609801 
L 319.089818 171.358662 
L 327.90458 171.306076 
L 330.842834 171.484278 
L 333.781089 172.4199 
L 336.719343 172.38748 
L 342.595851 169.457437 
L 345.534105 170.03331 
L 348.47236 169.214426 
L 351.410614 169.360676 
L 354.348868 169.004429 
L 357.287122 169.036755 
L 360.225376 168.869777 
L 366.101885 168.824758 
L 369.040139 167.956071 
L 371.978393 167.382199 
L 374.916647 166.512793 
L 377.854901 165.239026 
L 380.793156 166.246054 
L 383.73141 166.94054 
L 386.669664 167.129715 
L 389.607918 167.552116 
L 398.422681 167.481554 
L 401.360935 167.411149 
L 404.299189 166.999909 
L 407.237443 167.758361 
L 410.175697 167.573782 
L 413.113952 168.161034 
L 416.052206 167.715937 
L 418.99046 168.374658 
L 421.928714 169.429643 
L 433.681731 170.021773 
L 436.619985 169.973659 
L 439.558239 170.389275 
L 448.373002 167.17067 
L 451.311256 167.456012 
L 454.24951 166.713349 
L 457.187764 166.193406 
L 463.064273 165.904531 
L 471.879035 164.96841 
L 474.817289 164.317973 
L 477.755543 164.325695 
L 480.693798 166.425537 
L 483.632052 168.993455 
L 486.570306 170.390526 
L 489.50856 173.497301 
L 492.446814 174.218424 
L 495.385069 174.753436 
L 501.261577 175.017175 
L 504.199831 175.157454 
L 507.138085 175.156735 
L 510.076339 174.949583 
L 513.014594 174.273448 
L 515.952848 174.566387 
L 518.891102 173.530847 
L 521.829356 172.218751 
L 524.76761 168.095319 
L 527.705865 166.833682 
L 530.644119 166.217385 
L 533.582373 166.061818 
L 536.520627 165.731644 
L 542.397135 165.612437 
L 545.33539 165.80305 
L 548.273644 164.644551 
L 551.211898 162.049277 
L 554.150152 159.149279 
L 557.088406 157.239362 
L 560.026661 156.380336 
L 562.964915 156.325844 
L 568.841423 155.909821 
L 577.656186 155.608379 
L 580.59444 155.743187 
L 583.532694 155.230528 
L 586.470948 156.702944 
L 589.409202 157.925752 
L 592.347457 157.07426 
L 595.285711 158.173546 
L 601.162219 159.270237 
L 607.038727 159.579307 
L 609.976982 159.636926 
L 615.85349 160.205452 
L 621.729998 164.974506 
L 624.668253 165.897966 
L 627.606507 169.142895 
L 630.544761 171.872977 
L 633.483015 171.846153 
L 636.421269 171.508945 
L 648.174286 171.107616 
L 654.050794 171.300043 
L 656.989048 167.855403 
L 659.927303 168.597035 
L 662.865557 170.288763 
L 665.803811 167.999621 
L 668.742065 168.658905 
L 671.680319 168.433652 
L 677.556828 168.473013 
L 680.495082 168.573306 
L 683.433336 168.485862 
L 686.37159 168.1968 
L 689.309844 166.888987 
L 692.248099 166.134943 
L 695.186353 163.80272 
L 698.124607 161.777879 
L 701.062861 160.331131 
L 704.001115 157.521484 
L 706.93937 157.982745 
L 718.692386 157.488563 
L 721.63064 156.341601 
L 724.568895 154.346241 
L 727.507149 155.213459 
L 730.445403 155.20236 
L 733.383657 153.700369 
L 736.321911 153.503785 
L 739.260166 155.232467 
L 742.19842 154.571588 
L 751.013182 154.432779 
L 753.951436 154.54045 
L 756.889691 155.204142 
L 759.827945 155.123889 
L 762.766199 155.194231 
L 765.704453 157.218197 
L 768.642707 158.019636 
L 771.580962 160.704698 
L 774.519216 160.986757 
L 777.45747 161.694437 
L 786.272232 162.831552 
L 789.210487 162.826987 
L 792.148741 163.073625 
L 795.086995 166.072791 
L 798.025249 166.195938 
L 800.963503 165.981127 
L 803.901758 164.431991 
L 806.840012 163.842143 
L 809.778266 163.537356 
L 812.71652 162.914963 
L 821.531283 161.784976 
L 824.469537 161.589548 
L 827.407791 161.990252 
L 830.346045 160.623351 
L 833.284299 162.243861 
L 836.222554 160.541753 
L 839.160808 161.545998 
L 845.037316 159.766263 
L 859.728587 159.562957 
L 862.666841 158.6918 
L 865.605095 158.168669 
L 868.543349 155.317722 
L 871.481604 157.578821 
L 874.419858 158.743573 
L 877.358112 157.969614 
L 880.296366 158.633056 
L 883.23462 158.6198 
L 886.172875 158.487525 
L 889.111129 158.502938 
L 892.049383 158.350685 
L 894.987637 158.432907 
L 897.925891 158.367067 
L 900.864145 158.523071 
L 903.8024 160.93411 
L 906.740654 158.926089 
L 909.678908 159.2864 
L 912.617162 161.249746 
L 918.493671 161.699158 
L 927.308433 161.493819 
L 930.246687 161.276132 
L 933.184941 161.79992 
L 936.123196 162.866098 
L 939.06145 161.343286 
L 941.999704 159.253824 
L 944.937958 156.85207 
L 950.814467 155.8613 
L 953.752721 155.398132 
L 956.690975 155.324882 
L 962.567483 154.942185 
L 965.505737 154.925647 
L 968.443992 154.357965 
L 971.382246 153.547116 
L 974.3205 152.190969 
L 974.3205 152.190969 
" clip-path="url(#pf0b3d52fea)" style="fill: none; stroke: #9467bd; stroke-width: 1.5; stroke-linecap: round"/>
   </g>
   <g id="line2d_11">
    <path d="M 260.324734 229.165 
L 260.324734 27.177 
" clip-path="url(#pf0b3d52fea)" style="fill: none; stroke: #ff0000; stroke-opacity: 0.4; stroke-width: 0.8; stroke-linecap: round"/>
   </g>
   <g id="line2d_12">
    <path d="M 377.854901 229.165 
L 377.854901 27.177 
" clip-path="url(#pf0b3d52fea)" style="fill: none; stroke: #ff0000; stroke-opacity: 0.4; stroke-width: 0.8; stroke-linecap: round"/>
   </g>
   <g id="line2d_13">
    <path d="M 483.632052 229.165 
L 483.632052 27.177 
" clip-path="url(#pf0b3d52fea)" style="fill: none; stroke: #ff0000; stroke-opacity: 0.4; stroke-width: 0.8; stroke-linecap: round"/>
   </g>
   <g id="line2d_14">
    <path d="M 557.088406 229.165 
L 557.088406 27.177 
" clip-path="url(#pf0b3d52fea)" style="fill: none; stroke: #ff0000; stroke-opacity: 0.4; stroke-width: 0.8; stroke-linecap: round"/>
   </g>
   <g id="line2d_15">
    <path d="M 774.519216 229.165 
L 774.519216 27.177 
" clip-path="url(#pf0b3d52fea)" style="fill: none; stroke: #ff0000; stroke-opacity: 0.4; stroke-width: 0.8; stroke-linecap: round"/>
   </g>
   <g id="line2d_16">
    <path d="M 803.901758 229.165 
L 803.901758 27.177 
" clip-path="url(#pf0b3d52fea)" style="fill: none; stroke: #ff0000; stroke-opacity: 0.4; stroke-width: 0.8; stroke-linecap: round"/>
   </g>
   <g id="line2d_17">
    <path d="M 850.913824 229.165 
L 850.913824 27.177 
" clip-path="url(#pf0b3d52fea)" style="fill: none; stroke: #ff0000; stroke-opacity: 0.4; stroke-width: 0.8; stroke-linecap: round"/>
   </g>
   <g id="line2d_18">
    <path d="M 977.258754 229.165 
L 977.258754 27.177 
" clip-path="url(#pf0b3d52fea)" style="fill: none; stroke: #ff0000; stroke-opacity: 0.4; stroke-width: 0.8; stroke-linecap: round"/>
   </g>
   <g id="line2d_19">
    <path d="M 980.197008 229.165 
L 980.197008 27.177 
" clip-path="url(#pf0b3d52fea)" style="fill: none; stroke: #ff0000; stroke-opacity: 0.4; stroke-width: 0.8; stroke-linecap: round"/>
   </g>
   <g id="patch_3">
    <path d="M 95.7825 229.165 
L 95.7825 27.177 
" style="fill: none; stroke: #cccccc; stroke-linejoin: miter; stroke-linecap: square"/>
   </g>
   <g id="patch_4">
    <path d="M 974.3205 229.165 
L 974.3205 27.177 
" style="fill: none; stroke: #cccccc; stroke-linejoin: miter; stroke-linecap: square"/>
   </g>
   <g id="patch_5">
    <path d="M 95.7825 229.165 
L 974.3205 229.165 
" style="fill: none; stroke: #cccccc; stroke-linejoin: miter; stroke-linecap: square"/>
   </g>
   <g id="patch_6">
    <path d="M 95.7825 27.177 
L 974.3205 27.177 
" style="fill: none; stroke: #cccccc; stroke-linejoin: miter; stroke-linecap: square"/>
   </g>
   <g id="text_10">
    <!-- Hurricane Katrina -->
    <g style="fill: #ff0000; opacity: 0.7" transform="translate(258.734734 110.040198) rotate(-90) scale(0.08 -0.08)">
     <defs>
      <path id="ArialMT-48" d="M 513 0 
L 513 4581 
L 1119 4581 
L 1119 2700 
L 3500 2700 
L 3500 4581 
L 4106 4581 
L 4106 0 
L 3500 0 
L 3500 2159 
L 1119 2159 
L 1119 0 
L 513 0 
z
" transform="scale(0.015625)"/>
      <path id="ArialMT-75" d="M 2597 0 
L 2597 488 
Q 2209 -75 1544 -75 
Q 1250 -75 995 37 
Q 741 150 617 320 
Q 494 491 444 738 
Q 409 903 409 1263 
L 409 3319 
L 972 3319 
L 972 1478 
Q 972 1038 1006 884 
Q 1059 663 1231 536 
Q 1403 409 1656 409 
Q 1909 409 2131 539 
Q 2353 669 2445 892 
Q 2538 1116 2538 1541 
L 2538 3319 
L 3100 3319 
L 3100 0 
L 2597 0 
z
" transform="scale(0.015625)"/>
      <path id="ArialMT-72" d="M 416 0 
L 416 3319 
L 922 3319 
L 922 2816 
Q 1116 3169 1280 3281 
Q 1444 3394 1641 3394 
Q 1925 3394 2219 3213 
L 2025 2691 
Q 1819 2813 1613 2813 
Q 1428 2813 1281 2702 
Q 1134 2591 1072 2394 
Q 978 2094 978 1738 
L 978 0 
L 416 0 
z
" transform="scale(0.015625)"/>
      <path id="ArialMT-69" d="M 425 3934 
L 425 4581 
L 988 4581 
L 988 3934 
L 425 3934 
z
M 425 0 
L 425 3319 
L 988 3319 
L 988 0 
L 425 0 
z
" transform="scale(0.015625)"/>
      <path id="ArialMT-61" d="M 2588 409 
Q 2275 144 1986 34 
Q 1697 -75 1366 -75 
Q 819 -75 525 192 
Q 231 459 231 875 
Q 231 1119 342 1320 
Q 453 1522 633 1644 
Q 813 1766 1038 1828 
Q 1203 1872 1538 1913 
Q 2219 1994 2541 2106 
Q 2544 2222 2544 2253 
Q 2544 2597 2384 2738 
Q 2169 2928 1744 2928 
Q 1347 2928 1158 2789 
Q 969 2650 878 2297 
L 328 2372 
Q 403 2725 575 2942 
Q 747 3159 1072 3276 
Q 1397 3394 1825 3394 
Q 2250 3394 2515 3294 
Q 2781 3194 2906 3042 
Q 3031 2891 3081 2659 
Q 3109 2516 3109 2141 
L 3109 1391 
Q 3109 606 3145 398 
Q 3181 191 3288 0 
L 2700 0 
Q 2613 175 2588 409 
z
M 2541 1666 
Q 2234 1541 1622 1453 
Q 1275 1403 1131 1340 
Q 988 1278 909 1158 
Q 831 1038 831 891 
Q 831 666 1001 516 
Q 1172 366 1500 366 
Q 1825 366 2078 508 
Q 2331 650 2450 897 
Q 2541 1088 2541 1459 
L 2541 1666 
z
" transform="scale(0.015625)"/>
      <path id="ArialMT-65" d="M 2694 1069 
L 3275 997 
Q 3138 488 2766 206 
Q 2394 -75 1816 -75 
Q 1088 -75 661 373 
Q 234 822 234 1631 
Q 234 2469 665 2931 
Q 1097 3394 1784 3394 
Q 2450 3394 2872 2941 
Q 3294 2488 3294 1666 
Q 3294 1616 3291 1516 
L 816 1516 
Q 847 969 1125 678 
Q 1403 388 1819 388 
Q 2128 388 2347 550 
Q 2566 713 2694 1069 
z
M 847 1978 
L 2700 1978 
Q 2663 2397 2488 2606 
Q 2219 2931 1791 2931 
Q 1403 2931 1139 2672 
Q 875 2413 847 1978 
z
" transform="scale(0.015625)"/>
      <path id="ArialMT-4b" d="M 469 0 
L 469 4581 
L 1075 4581 
L 1075 2309 
L 3350 4581 
L 4172 4581 
L 2250 2725 
L 4256 0 
L 3456 0 
L 1825 2319 
L 1075 1588 
L 1075 0 
L 469 0 
z
" transform="scale(0.015625)"/>
     </defs>
     <use xlink:href="#ArialMT-48"/>
     <use xlink:href="#ArialMT-75" transform="translate(72.216797 0)"/>
     <use xlink:href="#ArialMT-72" transform="translate(127.832031 0)"/>
     <use xlink:href="#ArialMT-72" transform="translate(161.132812 0)"/>
     <use xlink:href="#ArialMT-69" transform="translate(194.433594 0)"/>
     <use xlink:href="#ArialMT-63" transform="translate(216.650391 0)"/>
     <use xlink:href="#ArialMT-61" transform="translate(266.650391 0)"/>
     <use xlink:href="#ArialMT-6e" transform="translate(322.265625 0)"/>
     <use xlink:href="#ArialMT-65" transform="translate(377.880859 0)"/>
     <use xlink:href="#ArialMT-20" transform="translate(433.496094 0)"/>
     <use xlink:href="#ArialMT-4b" transform="translate(461.279297 0)"/>
     <use xlink:href="#ArialMT-61" transform="translate(527.978516 0)"/>
     <use xlink:href="#ArialMT-74" transform="translate(583.59375 0)"/>
     <use xlink:href="#ArialMT-72" transform="translate(611.376953 0)"/>
     <use xlink:href="#ArialMT-69" transform="translate(644.677734 0)"/>
     <use xlink:href="#ArialMT-6e" transform="translate(666.894531 0)"/>
     <use xlink:href="#ArialMT-61" transform="translate(722.509766 0)"/>
    </g>
   </g>
   <g id="text_11">
    <!-- GFC demand drop -->
    <g style="fill: #ff0000; opacity: 0.7" transform="translate(376.264901 114.042698) rotate(-90) scale(0.08 -0.08)">
     <defs>
      <path id="ArialMT-47" d="M 2638 1797 
L 2638 2334 
L 4578 2338 
L 4578 638 
Q 4131 281 3656 101 
Q 3181 -78 2681 -78 
Q 2006 -78 1454 211 
Q 903 500 622 1047 
Q 341 1594 341 2269 
Q 341 2938 620 3517 
Q 900 4097 1425 4378 
Q 1950 4659 2634 4659 
Q 3131 4659 3532 4498 
Q 3934 4338 4162 4050 
Q 4391 3763 4509 3300 
L 3963 3150 
Q 3859 3500 3706 3700 
Q 3553 3900 3268 4020 
Q 2984 4141 2638 4141 
Q 2222 4141 1919 4014 
Q 1616 3888 1430 3681 
Q 1244 3475 1141 3228 
Q 966 2803 966 2306 
Q 966 1694 1177 1281 
Q 1388 869 1791 669 
Q 2194 469 2647 469 
Q 3041 469 3416 620 
Q 3791 772 3984 944 
L 3984 1797 
L 2638 1797 
z
" transform="scale(0.015625)"/>
      <path id="ArialMT-46" d="M 525 0 
L 525 4581 
L 3616 4581 
L 3616 4041 
L 1131 4041 
L 1131 2622 
L 3281 2622 
L 3281 2081 
L 1131 2081 
L 1131 0 
L 525 0 
z
" transform="scale(0.015625)"/>
      <path id="ArialMT-43" d="M 3763 1606 
L 4369 1453 
Q 4178 706 3683 314 
Q 3188 -78 2472 -78 
Q 1731 -78 1267 223 
Q 803 525 561 1097 
Q 319 1669 319 2325 
Q 319 3041 592 3573 
Q 866 4106 1370 4382 
Q 1875 4659 2481 4659 
Q 3169 4659 3637 4309 
Q 4106 3959 4291 3325 
L 3694 3184 
Q 3534 3684 3231 3912 
Q 2928 4141 2469 4141 
Q 1941 4141 1586 3887 
Q 1231 3634 1087 3207 
Q 944 2781 944 2328 
Q 944 1744 1114 1308 
Q 1284 872 1643 656 
Q 2003 441 2422 441 
Q 2931 441 3284 734 
Q 3638 1028 3763 1606 
z
" transform="scale(0.015625)"/>
      <path id="ArialMT-64" d="M 2575 0 
L 2575 419 
Q 2259 -75 1647 -75 
Q 1250 -75 917 144 
Q 584 363 401 755 
Q 219 1147 219 1656 
Q 219 2153 384 2558 
Q 550 2963 881 3178 
Q 1213 3394 1622 3394 
Q 1922 3394 2156 3267 
Q 2391 3141 2538 2938 
L 2538 4581 
L 3097 4581 
L 3097 0 
L 2575 0 
z
M 797 1656 
Q 797 1019 1065 703 
Q 1334 388 1700 388 
Q 2069 388 2326 689 
Q 2584 991 2584 1609 
Q 2584 2291 2321 2609 
Q 2059 2928 1675 2928 
Q 1300 2928 1048 2622 
Q 797 2316 797 1656 
z
" transform="scale(0.015625)"/>
      <path id="ArialMT-70" d="M 422 -1272 
L 422 3319 
L 934 3319 
L 934 2888 
Q 1116 3141 1344 3267 
Q 1572 3394 1897 3394 
Q 2322 3394 2647 3175 
Q 2972 2956 3137 2557 
Q 3303 2159 3303 1684 
Q 3303 1175 3120 767 
Q 2938 359 2589 142 
Q 2241 -75 1856 -75 
Q 1575 -75 1351 44 
Q 1128 163 984 344 
L 984 -1272 
L 422 -1272 
z
M 931 1641 
Q 931 1000 1190 694 
Q 1450 388 1819 388 
Q 2194 388 2461 705 
Q 2728 1022 2728 1688 
Q 2728 2322 2467 2637 
Q 2206 2953 1844 2953 
Q 1484 2953 1207 2617 
Q 931 2281 931 1641 
z
" transform="scale(0.015625)"/>
     </defs>
     <use xlink:href="#ArialMT-47"/>
     <use xlink:href="#ArialMT-46" transform="translate(77.783203 0)"/>
     <use xlink:href="#ArialMT-43" transform="translate(138.867188 0)"/>
     <use xlink:href="#ArialMT-20" transform="translate(211.083984 0)"/>
     <use xlink:href="#ArialMT-64" transform="translate(238.867188 0)"/>
     <use xlink:href="#ArialMT-65" transform="translate(294.482422 0)"/>
     <use xlink:href="#ArialMT-6d" transform="translate(350.097656 0)"/>
     <use xlink:href="#ArialMT-61" transform="translate(433.398438 0)"/>
     <use xlink:href="#ArialMT-6e" transform="translate(489.013672 0)"/>
     <use xlink:href="#ArialMT-64" transform="translate(544.628906 0)"/>
     <use xlink:href="#ArialMT-20" transform="translate(600.244141 0)"/>
     <use xlink:href="#ArialMT-64" transform="translate(628.027344 0)"/>
     <use xlink:href="#ArialMT-72" transform="translate(683.642578 0)"/>
     <use xlink:href="#ArialMT-6f" transform="translate(716.943359 0)"/>
     <use xlink:href="#ArialMT-70" transform="translate(772.558594 0)"/>
    </g>
   </g>
   <g id="text_12">
    <!-- Warm winter 2011-12 -->
    <g style="fill: #ff0000; opacity: 0.7" transform="translate(482.042052 123.371448) rotate(-90) scale(0.08 -0.08)">
     <defs>
      <path id="ArialMT-57" d="M 1294 0 
L 78 4581 
L 700 4581 
L 1397 1578 
Q 1509 1106 1591 641 
Q 1766 1375 1797 1488 
L 2669 4581 
L 3400 4581 
L 4056 2263 
Q 4303 1400 4413 641 
Q 4500 1075 4641 1638 
L 5359 4581 
L 5969 4581 
L 4713 0 
L 4128 0 
L 3163 3491 
Q 3041 3928 3019 4028 
Q 2947 3713 2884 3491 
L 1913 0 
L 1294 0 
z
" transform="scale(0.015625)"/>
      <path id="ArialMT-77" d="M 1034 0 
L 19 3319 
L 600 3319 
L 1128 1403 
L 1325 691 
Q 1338 744 1497 1375 
L 2025 3319 
L 2603 3319 
L 3100 1394 
L 3266 759 
L 3456 1400 
L 4025 3319 
L 4572 3319 
L 3534 0 
L 2950 0 
L 2422 1988 
L 2294 2553 
L 1622 0 
L 1034 0 
z
" transform="scale(0.015625)"/>
      <path id="ArialMT-2d" d="M 203 1375 
L 203 1941 
L 1931 1941 
L 1931 1375 
L 203 1375 
z
" transform="scale(0.015625)"/>
     </defs>
     <use xlink:href="#ArialMT-57"/>
     <use xlink:href="#ArialMT-61" transform="translate(90.634766 0)"/>
     <use xlink:href="#ArialMT-72" transform="translate(146.25 0)"/>
     <use xlink:href="#ArialMT-6d" transform="translate(179.550781 0)"/>
     <use xlink:href="#ArialMT-20" transform="translate(262.851562 0)"/>
     <use xlink:href="#ArialMT-77" transform="translate(290.634766 0)"/>
     <use xlink:href="#ArialMT-69" transform="translate(362.851562 0)"/>
     <use xlink:href="#ArialMT-6e" transform="translate(385.068359 0)"/>
     <use xlink:href="#ArialMT-74" transform="translate(440.683594 0)"/>
     <use xlink:href="#ArialMT-65" transform="translate(468.466797 0)"/>
     <use xlink:href="#ArialMT-72" transform="translate(524.082031 0)"/>
     <use xlink:href="#ArialMT-20" transform="translate(557.382812 0)"/>
     <use xlink:href="#ArialMT-32" transform="translate(585.166016 0)"/>
     <use xlink:href="#ArialMT-30" transform="translate(640.78125 0)"/>
     <use xlink:href="#ArialMT-31" transform="translate(696.396484 0)"/>
     <use xlink:href="#ArialMT-31" transform="translate(744.636719 0)"/>
     <use xlink:href="#ArialMT-2d" transform="translate(800.251953 0)"/>
     <use xlink:href="#ArialMT-31" transform="translate(833.552734 0)"/>
     <use xlink:href="#ArialMT-32" transform="translate(889.167969 0)"/>
    </g>
   </g>
   <g id="text_13">
    <!-- Polar vortex -->
    <g style="fill: #ff0000; opacity: 0.7" transform="translate(555.498406 90.475198) rotate(-90) scale(0.08 -0.08)">
     <defs>
      <path id="ArialMT-50" d="M 494 0 
L 494 4581 
L 2222 4581 
Q 2678 4581 2919 4538 
Q 3256 4481 3484 4323 
Q 3713 4166 3852 3881 
Q 3991 3597 3991 3256 
Q 3991 2672 3619 2267 
Q 3247 1863 2275 1863 
L 1100 1863 
L 1100 0 
L 494 0 
z
M 1100 2403 
L 2284 2403 
Q 2872 2403 3119 2622 
Q 3366 2841 3366 3238 
Q 3366 3525 3220 3729 
Q 3075 3934 2838 4000 
Q 2684 4041 2272 4041 
L 1100 4041 
L 1100 2403 
z
" transform="scale(0.015625)"/>
      <path id="ArialMT-6c" d="M 409 0 
L 409 4581 
L 972 4581 
L 972 0 
L 409 0 
z
" transform="scale(0.015625)"/>
      <path id="ArialMT-76" d="M 1344 0 
L 81 3319 
L 675 3319 
L 1388 1331 
Q 1503 1009 1600 663 
Q 1675 925 1809 1294 
L 2547 3319 
L 3125 3319 
L 1869 0 
L 1344 0 
z
" transform="scale(0.015625)"/>
      <path id="ArialMT-78" d="M 47 0 
L 1259 1725 
L 138 3319 
L 841 3319 
L 1350 2541 
Q 1494 2319 1581 2169 
Q 1719 2375 1834 2534 
L 2394 3319 
L 3066 3319 
L 1919 1756 
L 3153 0 
L 2463 0 
L 1781 1031 
L 1600 1309 
L 728 0 
L 47 0 
z
" transform="scale(0.015625)"/>
     </defs>
     <use xlink:href="#ArialMT-50"/>
     <use xlink:href="#ArialMT-6f" transform="translate(66.699219 0)"/>
     <use xlink:href="#ArialMT-6c" transform="translate(122.314453 0)"/>
     <use xlink:href="#ArialMT-61" transform="translate(144.53125 0)"/>
     <use xlink:href="#ArialMT-72" transform="translate(200.146484 0)"/>
     <use xlink:href="#ArialMT-20" transform="translate(233.447266 0)"/>
     <use xlink:href="#ArialMT-76" transform="translate(261.230469 0)"/>
     <use xlink:href="#ArialMT-6f" transform="translate(311.230469 0)"/>
     <use xlink:href="#ArialMT-72" transform="translate(366.845703 0)"/>
     <use xlink:href="#ArialMT-74" transform="translate(400.146484 0)"/>
     <use xlink:href="#ArialMT-65" transform="translate(427.929688 0)"/>
     <use xlink:href="#ArialMT-78" transform="translate(483.544922 0)"/>
    </g>
   </g>
   <g id="text_14">
    <!-- COVID lockdowns -->
    <g style="fill: #ff0000; opacity: 0.7" transform="translate(772.929216 112.702698) rotate(-90) scale(0.08 -0.08)">
     <defs>
      <path id="ArialMT-4f" d="M 309 2231 
Q 309 3372 921 4017 
Q 1534 4663 2503 4663 
Q 3138 4663 3647 4359 
Q 4156 4056 4423 3514 
Q 4691 2972 4691 2284 
Q 4691 1588 4409 1038 
Q 4128 488 3612 205 
Q 3097 -78 2500 -78 
Q 1853 -78 1343 234 
Q 834 547 571 1087 
Q 309 1628 309 2231 
z
M 934 2222 
Q 934 1394 1379 917 
Q 1825 441 2497 441 
Q 3181 441 3623 922 
Q 4066 1403 4066 2288 
Q 4066 2847 3877 3264 
Q 3688 3681 3323 3911 
Q 2959 4141 2506 4141 
Q 1863 4141 1398 3698 
Q 934 3256 934 2222 
z
" transform="scale(0.015625)"/>
      <path id="ArialMT-56" d="M 1803 0 
L 28 4581 
L 684 4581 
L 1875 1253 
Q 2019 853 2116 503 
Q 2222 878 2363 1253 
L 3600 4581 
L 4219 4581 
L 2425 0 
L 1803 0 
z
" transform="scale(0.015625)"/>
      <path id="ArialMT-49" d="M 597 0 
L 597 4581 
L 1203 4581 
L 1203 0 
L 597 0 
z
" transform="scale(0.015625)"/>
      <path id="ArialMT-44" d="M 494 0 
L 494 4581 
L 2072 4581 
Q 2606 4581 2888 4516 
Q 3281 4425 3559 4188 
Q 3922 3881 4101 3404 
Q 4281 2928 4281 2316 
Q 4281 1794 4159 1391 
Q 4038 988 3847 723 
Q 3656 459 3429 307 
Q 3203 156 2883 78 
Q 2563 0 2147 0 
L 494 0 
z
M 1100 541 
L 2078 541 
Q 2531 541 2789 625 
Q 3047 709 3200 863 
Q 3416 1078 3536 1442 
Q 3656 1806 3656 2325 
Q 3656 3044 3420 3430 
Q 3184 3816 2847 3947 
Q 2603 4041 2063 4041 
L 1100 4041 
L 1100 541 
z
" transform="scale(0.015625)"/>
      <path id="ArialMT-6b" d="M 425 0 
L 425 4581 
L 988 4581 
L 988 1969 
L 2319 3319 
L 3047 3319 
L 1778 2088 
L 3175 0 
L 2481 0 
L 1384 1697 
L 988 1316 
L 988 0 
L 425 0 
z
" transform="scale(0.015625)"/>
      <path id="ArialMT-73" d="M 197 991 
L 753 1078 
Q 800 744 1014 566 
Q 1228 388 1613 388 
Q 2000 388 2187 545 
Q 2375 703 2375 916 
Q 2375 1106 2209 1216 
Q 2094 1291 1634 1406 
Q 1016 1563 777 1677 
Q 538 1791 414 1992 
Q 291 2194 291 2438 
Q 291 2659 392 2848 
Q 494 3038 669 3163 
Q 800 3259 1026 3326 
Q 1253 3394 1513 3394 
Q 1903 3394 2198 3281 
Q 2494 3169 2634 2976 
Q 2775 2784 2828 2463 
L 2278 2388 
Q 2241 2644 2061 2787 
Q 1881 2931 1553 2931 
Q 1166 2931 1000 2803 
Q 834 2675 834 2503 
Q 834 2394 903 2306 
Q 972 2216 1119 2156 
Q 1203 2125 1616 2013 
Q 2213 1853 2448 1751 
Q 2684 1650 2818 1456 
Q 2953 1263 2953 975 
Q 2953 694 2789 445 
Q 2625 197 2315 61 
Q 2006 -75 1616 -75 
Q 969 -75 630 194 
Q 291 463 197 991 
z
" transform="scale(0.015625)"/>
     </defs>
     <use xlink:href="#ArialMT-43"/>
     <use xlink:href="#ArialMT-4f" transform="translate(72.216797 0)"/>
     <use xlink:href="#ArialMT-56" transform="translate(150 0)"/>
     <use xlink:href="#ArialMT-49" transform="translate(216.699219 0)"/>
     <use xlink:href="#ArialMT-44" transform="translate(244.482422 0)"/>
     <use xlink:href="#ArialMT-20" transform="translate(316.699219 0)"/>
     <use xlink:href="#ArialMT-6c" transform="translate(344.482422 0)"/>
     <use xlink:href="#ArialMT-6f" transform="translate(366.699219 0)"/>
     <use xlink:href="#ArialMT-63" transform="translate(422.314453 0)"/>
     <use xlink:href="#ArialMT-6b" transform="translate(472.314453 0)"/>
     <use xlink:href="#ArialMT-64" transform="translate(522.314453 0)"/>
     <use xlink:href="#ArialMT-6f" transform="translate(577.929688 0)"/>
     <use xlink:href="#ArialMT-77" transform="translate(633.544922 0)"/>
     <use xlink:href="#ArialMT-6e" transform="translate(705.761719 0)"/>
     <use xlink:href="#ArialMT-73" transform="translate(761.376953 0)"/>
    </g>
   </g>
   <g id="text_15">
    <!-- Winter Storm Uri -->
    <g style="fill: #ff0000; opacity: 0.7" transform="translate(802.311758 106.905198) rotate(-90) scale(0.08 -0.08)">
     <defs>
      <path id="ArialMT-53" d="M 288 1472 
L 859 1522 
Q 900 1178 1048 958 
Q 1197 738 1509 602 
Q 1822 466 2213 466 
Q 2559 466 2825 569 
Q 3091 672 3220 851 
Q 3350 1031 3350 1244 
Q 3350 1459 3225 1620 
Q 3100 1781 2813 1891 
Q 2628 1963 1997 2114 
Q 1366 2266 1113 2400 
Q 784 2572 623 2826 
Q 463 3081 463 3397 
Q 463 3744 659 4045 
Q 856 4347 1234 4503 
Q 1613 4659 2075 4659 
Q 2584 4659 2973 4495 
Q 3363 4331 3572 4012 
Q 3781 3694 3797 3291 
L 3216 3247 
Q 3169 3681 2898 3903 
Q 2628 4125 2100 4125 
Q 1550 4125 1298 3923 
Q 1047 3722 1047 3438 
Q 1047 3191 1225 3031 
Q 1400 2872 2139 2705 
Q 2878 2538 3153 2413 
Q 3553 2228 3743 1945 
Q 3934 1663 3934 1294 
Q 3934 928 3725 604 
Q 3516 281 3123 101 
Q 2731 -78 2241 -78 
Q 1619 -78 1198 103 
Q 778 284 539 648 
Q 300 1013 288 1472 
z
" transform="scale(0.015625)"/>
      <path id="ArialMT-55" d="M 3500 4581 
L 4106 4581 
L 4106 1934 
Q 4106 1244 3950 837 
Q 3794 431 3386 176 
Q 2978 -78 2316 -78 
Q 1672 -78 1262 144 
Q 853 366 678 786 
Q 503 1206 503 1934 
L 503 4581 
L 1109 4581 
L 1109 1938 
Q 1109 1341 1220 1058 
Q 1331 775 1601 622 
Q 1872 469 2263 469 
Q 2931 469 3215 772 
Q 3500 1075 3500 1938 
L 3500 4581 
z
" transform="scale(0.015625)"/>
     </defs>
     <use xlink:href="#ArialMT-57"/>
     <use xlink:href="#ArialMT-69" transform="translate(94.384766 0)"/>
     <use xlink:href="#ArialMT-6e" transform="translate(116.601562 0)"/>
     <use xlink:href="#ArialMT-74" transform="translate(172.216797 0)"/>
     <use xlink:href="#ArialMT-65" transform="translate(200 0)"/>
     <use xlink:href="#ArialMT-72" transform="translate(255.615234 0)"/>
     <use xlink:href="#ArialMT-20" transform="translate(288.916016 0)"/>
     <use xlink:href="#ArialMT-53" transform="translate(316.699219 0)"/>
     <use xlink:href="#ArialMT-74" transform="translate(383.398438 0)"/>
     <use xlink:href="#ArialMT-6f" transform="translate(411.181641 0)"/>
     <use xlink:href="#ArialMT-72" transform="translate(466.796875 0)"/>
     <use xlink:href="#ArialMT-6d" transform="translate(500.097656 0)"/>
     <use xlink:href="#ArialMT-20" transform="translate(583.398438 0)"/>
     <use xlink:href="#ArialMT-55" transform="translate(611.181641 0)"/>
     <use xlink:href="#ArialMT-72" transform="translate(683.398438 0)"/>
     <use xlink:href="#ArialMT-69" transform="translate(716.699219 0)"/>
    </g>
   </g>
   <g id="text_16">
    <!-- Freeport LNG outage -->
    <g style="fill: #ff0000; opacity: 0.7" transform="translate(849.230074 123.385198) rotate(-90) scale(0.08 -0.08)">
     <defs>
      <path id="ArialMT-4c" d="M 469 0 
L 469 4581 
L 1075 4581 
L 1075 541 
L 3331 541 
L 3331 0 
L 469 0 
z
" transform="scale(0.015625)"/>
      <path id="ArialMT-4e" d="M 488 0 
L 488 4581 
L 1109 4581 
L 3516 984 
L 3516 4581 
L 4097 4581 
L 4097 0 
L 3475 0 
L 1069 3600 
L 1069 0 
L 488 0 
z
" transform="scale(0.015625)"/>
      <path id="ArialMT-67" d="M 319 -275 
L 866 -356 
Q 900 -609 1056 -725 
Q 1266 -881 1628 -881 
Q 2019 -881 2231 -725 
Q 2444 -569 2519 -288 
Q 2563 -116 2559 434 
Q 2191 0 1641 0 
Q 956 0 581 494 
Q 206 988 206 1678 
Q 206 2153 378 2554 
Q 550 2956 876 3175 
Q 1203 3394 1644 3394 
Q 2231 3394 2613 2919 
L 2613 3319 
L 3131 3319 
L 3131 450 
Q 3131 -325 2973 -648 
Q 2816 -972 2473 -1159 
Q 2131 -1347 1631 -1347 
Q 1038 -1347 672 -1080 
Q 306 -813 319 -275 
z
M 784 1719 
Q 784 1066 1043 766 
Q 1303 466 1694 466 
Q 2081 466 2343 764 
Q 2606 1063 2606 1700 
Q 2606 2309 2336 2618 
Q 2066 2928 1684 2928 
Q 1309 2928 1046 2623 
Q 784 2319 784 1719 
z
" transform="scale(0.015625)"/>
     </defs>
     <use xlink:href="#ArialMT-46"/>
     <use xlink:href="#ArialMT-72" transform="translate(61.083984 0)"/>
     <use xlink:href="#ArialMT-65" transform="translate(94.384766 0)"/>
     <use xlink:href="#ArialMT-65" transform="translate(150 0)"/>
     <use xlink:href="#ArialMT-70" transform="translate(205.615234 0)"/>
     <use xlink:href="#ArialMT-6f" transform="translate(261.230469 0)"/>
     <use xlink:href="#ArialMT-72" transform="translate(316.845703 0)"/>
     <use xlink:href="#ArialMT-74" transform="translate(350.146484 0)"/>
     <use xlink:href="#ArialMT-20" transform="translate(377.929688 0)"/>
     <use xlink:href="#ArialMT-4c" transform="translate(405.712891 0)"/>
     <use xlink:href="#ArialMT-4e" transform="translate(461.328125 0)"/>
     <use xlink:href="#ArialMT-47" transform="translate(533.544922 0)"/>
     <use xlink:href="#ArialMT-20" transform="translate(611.328125 0)"/>
     <use xlink:href="#ArialMT-6f" transform="translate(639.111328 0)"/>
     <use xlink:href="#ArialMT-75" transform="translate(694.726562 0)"/>
     <use xlink:href="#ArialMT-74" transform="translate(750.341797 0)"/>
     <use xlink:href="#ArialMT-61" transform="translate(778.125 0)"/>
     <use xlink:href="#ArialMT-67" transform="translate(833.740234 0)"/>
     <use xlink:href="#ArialMT-65" transform="translate(889.355469 0)"/>
    </g>
   </g>
   <g id="text_17">
    <!-- US Natural Gas Consumption — Full History -->
    <g style="fill: #262626" transform="translate(345.666 21.177) scale(0.192 -0.192)">
     <defs>
      <path id="ArialMT-2014" d="M 0 1431 
L 0 1884 
L 6400 1884 
L 6400 1431 
L 0 1431 
z
" transform="scale(0.015625)"/>
      <path id="ArialMT-79" d="M 397 -1278 
L 334 -750 
Q 519 -800 656 -800 
Q 844 -800 956 -737 
Q 1069 -675 1141 -563 
Q 1194 -478 1313 -144 
Q 1328 -97 1363 -6 
L 103 3319 
L 709 3319 
L 1400 1397 
Q 1534 1031 1641 628 
Q 1738 1016 1872 1384 
L 2581 3319 
L 3144 3319 
L 1881 -56 
Q 1678 -603 1566 -809 
Q 1416 -1088 1222 -1217 
Q 1028 -1347 759 -1347 
Q 597 -1347 397 -1278 
z
" transform="scale(0.015625)"/>
     </defs>
     <use xlink:href="#ArialMT-55"/>
     <use xlink:href="#ArialMT-53" transform="translate(72.216797 0)"/>
     <use xlink:href="#ArialMT-20" transform="translate(138.916016 0)"/>
     <use xlink:href="#ArialMT-4e" transform="translate(166.699219 0)"/>
     <use xlink:href="#ArialMT-61" transform="translate(238.916016 0)"/>
     <use xlink:href="#ArialMT-74" transform="translate(294.53125 0)"/>
     <use xlink:href="#ArialMT-75" transform="translate(322.314453 0)"/>
     <use xlink:href="#ArialMT-72" transform="translate(377.929688 0)"/>
     <use xlink:href="#ArialMT-61" transform="translate(411.230469 0)"/>
     <use xlink:href="#ArialMT-6c" transform="translate(466.845703 0)"/>
     <use xlink:href="#ArialMT-20" transform="translate(489.0625 0)"/>
     <use xlink:href="#ArialMT-47" transform="translate(516.845703 0)"/>
     <use xlink:href="#ArialMT-61" transform="translate(594.628906 0)"/>
     <use xlink:href="#ArialMT-73" transform="translate(650.244141 0)"/>
     <use xlink:href="#ArialMT-20" transform="translate(700.244141 0)"/>
     <use xlink:href="#ArialMT-43" transform="translate(728.027344 0)"/>
     <use xlink:href="#ArialMT-6f" transform="translate(800.244141 0)"/>
     <use xlink:href="#ArialMT-6e" transform="translate(855.859375 0)"/>
     <use xlink:href="#ArialMT-73" transform="translate(911.474609 0)"/>
     <use xlink:href="#ArialMT-75" transform="translate(961.474609 0)"/>
     <use xlink:href="#ArialMT-6d" transform="translate(1017.089844 0)"/>
     <use xlink:href="#ArialMT-70" transform="translate(1100.390625 0)"/>
     <use xlink:href="#ArialMT-74" transform="translate(1156.005859 0)"/>
     <use xlink:href="#ArialMT-69" transform="translate(1183.789062 0)"/>
     <use xlink:href="#ArialMT-6f" transform="translate(1206.005859 0)"/>
     <use xlink:href="#ArialMT-6e" transform="translate(1261.621094 0)"/>
     <use xlink:href="#ArialMT-20" transform="translate(1317.236328 0)"/>
     <use xlink:href="#ArialMT-2014" transform="translate(1345.019531 0)"/>
     <use xlink:href="#ArialMT-20" transform="translate(1445.019531 0)"/>
     <use xlink:href="#ArialMT-46" transform="translate(1472.802734 0)"/>
     <use xlink:href="#ArialMT-75" transform="translate(1533.886719 0)"/>
     <use xlink:href="#ArialMT-6c" transform="translate(1589.501953 0)"/>
     <use xlink:href="#ArialMT-6c" transform="translate(1611.71875 0)"/>
     <use xlink:href="#ArialMT-20" transform="translate(1633.935547 0)"/>
     <use xlink:href="#ArialMT-48" transform="translate(1661.71875 0)"/>
     <use xlink:href="#ArialMT-69" transform="translate(1733.935547 0)"/>
     <use xlink:href="#ArialMT-73" transform="translate(1756.152344 0)"/>
     <use xlink:href="#ArialMT-74" transform="translate(1806.152344 0)"/>
     <use xlink:href="#ArialMT-6f" transform="translate(1833.935547 0)"/>
     <use xlink:href="#ArialMT-72" transform="translate(1889.550781 0)"/>
     <use xlink:href="#ArialMT-79" transform="translate(1922.851562 0)"/>
    </g>
   </g>
   <g id="legend_1">
    <g id="patch_7">
     <path d="M 108.1025 91.51325 
L 339.52325 91.51325 
Q 343.04325 91.51325 343.04325 87.99325 
L 343.04325 39.497 
Q 343.04325 35.977 339.52325 35.977 
L 108.1025 35.977 
Q 104.5825 35.977 104.5825 39.497 
L 104.5825 87.99325 
Q 104.5825 91.51325 108.1025 91.51325 
z
" style="fill: #ffffff; opacity: 0.8; stroke: #cccccc; stroke-width: 0.8; stroke-linejoin: miter"/>
    </g>
    <g id="line2d_20">
     <path d="M 111.6225 49.45475 
L 129.2225 49.45475 
L 146.8225 49.45475 
" style="fill: none; stroke: #9467bd; stroke-opacity: 0.4; stroke-width: 0.8; stroke-linecap: round"/>
    </g>
    <g id="text_18">
     <!-- Monthly -->
     <g style="fill: #262626" transform="translate(160.9025 55.61475) scale(0.176 -0.176)">
      <use xlink:href="#ArialMT-4d"/>
      <use xlink:href="#ArialMT-6f" transform="translate(83.300781 0)"/>
      <use xlink:href="#ArialMT-6e" transform="translate(138.916016 0)"/>
      <use xlink:href="#ArialMT-74" transform="translate(194.53125 0)"/>
      <use xlink:href="#ArialMT-68" transform="translate(222.314453 0)"/>
      <use xlink:href="#ArialMT-6c" transform="translate(277.929688 0)"/>
      <use xlink:href="#ArialMT-79" transform="translate(300.146484 0)"/>
     </g>
    </g>
    <g id="line2d_21">
     <path d="M 111.6225 74.609 
L 129.2225 74.609 
L 146.8225 74.609 
" style="fill: none; stroke: #9467bd; stroke-width: 1.5; stroke-linecap: round"/>
    </g>
    <g id="text_19">
     <!-- 12-month rolling mean -->
     <g style="fill: #262626" transform="translate(160.9025 80.769) scale(0.176 -0.176)">
      <use xlink:href="#ArialMT-31"/>
      <use xlink:href="#ArialMT-32" transform="translate(55.615234 0)"/>
      <use xlink:href="#ArialMT-2d" transform="translate(111.230469 0)"/>
      <use xlink:href="#ArialMT-6d" transform="translate(144.53125 0)"/>
      <use xlink:href="#ArialMT-6f" transform="translate(227.832031 0)"/>
      <use xlink:href="#ArialMT-6e" transform="translate(283.447266 0)"/>
      <use xlink:href="#ArialMT-74" transform="translate(339.0625 0)"/>
      <use xlink:href="#ArialMT-68" transform="translate(366.845703 0)"/>
      <use xlink:href="#ArialMT-20" transform="translate(422.460938 0)"/>
      <use xlink:href="#ArialMT-72" transform="translate(450.244141 0)"/>
      <use xlink:href="#ArialMT-6f" transform="translate(483.544922 0)"/>
      <use xlink:href="#ArialMT-6c" transform="translate(539.160156 0)"/>
      <use xlink:href="#ArialMT-6c" transform="translate(561.376953 0)"/>
      <use xlink:href="#ArialMT-69" transform="translate(583.59375 0)"/>
      <use xlink:href="#ArialMT-6e" transform="translate(605.810547 0)"/>
      <use xlink:href="#ArialMT-67" transform="translate(661.425781 0)"/>
      <use xlink:href="#ArialMT-20" transform="translate(717.041016 0)"/>
      <use xlink:href="#ArialMT-6d" transform="translate(744.824219 0)"/>
      <use xlink:href="#ArialMT-65" transform="translate(828.125 0)"/>
      <use xlink:href="#ArialMT-61" transform="translate(883.740234 0)"/>
      <use xlink:href="#ArialMT-6e" transform="translate(939.355469 0)"/>
     </g>
    </g>
   </g>
  </g>
 </g>
 <defs>
  <clipPath id="pf0b3d52fea">
   <rect x="95.7825" y="27.177" width="878.538" height="201.988"/>
  </clipPath>
 </defs>
</svg>
