<?xml version="1.0" encoding="utf-8" standalone="no"?>
<!DOCTYPE svg PUBLIC "-//W3C//DTD SVG 1.1//EN"
  "http://www.w3.org/Graphics/SVG/1.1/DTD/svg11.dtd">
<svg xmlns:xlink="http://www.w3.org/1999/xlink" width="981.31875pt" height="260.52675pt" viewBox="0 0 981.31875 260.52675" xmlns="http://www.w3.org/2000/svg" version="1.1">
 <metadata>
  <rdf:RDF xmlns:dc="http://purl.org/dc/elements/1.1/" xmlns:cc="http://creativecommons.org/ns#" xmlns:rdf="http://www.w3.org/1999/02/22-rdf-syntax-ns#">
   <cc:Work>
    <dc:type rdf:resource="http://purl.org/dc/dcmitype/StillImage"/>
    <dc:date>2026-03-31T21:16:14.327347</dc:date>
    <dc:format>image/svg+xml</dc:format>
    <dc:creator>
     <cc:Agent>
      <dc:title>Matplotlib v3.10.8, https://matplotlib.org/</dc:title>
     </cc:Agent>
    </dc:creator>
   </cc:Work>
  </rdf:RDF>
 </metadata>
 <defs>
  <style type="text/css">*{stroke-linejoin: round; stroke-linecap: butt}</style>
 </defs>
 <g id="figure_1">
  <g id="patch_1">
   <path d="M 0 260.52675 
L 981.31875 260.52675 
L 981.31875 0 
L 0 0 
z
" style="fill: #ffffff"/>
  </g>
  <g id="axes_1">
   <g id="patch_2">
    <path d="M 66.42075 228.931 
L 974.11875 228.931 
L 974.11875 26.943 
L 66.42075 26.943 
z
" style="fill: #ffffff"/>
   </g>
   <g id="matplotlib.axis_1">
    <g id="xtick_1">
     <g id="line2d_1">
      <path d="M 66.42075 228.931 
L 66.42075 26.943 
" clip-path="url(#p8a11c91337)" style="fill: none; stroke: #cccccc; stroke-width: 0.8; stroke-linecap: round"/>
     </g>
     <g id="text_1">
      <!-- 2020 -->
      <g style="fill: #262626" transform="translate(46.84625 249.82875) scale(0.176 -0.176)">
       <defs>
        <path id="ArialMT-32" d="M 3222 541 
L 3222 0 
L 194 0 
Q 188 203 259 391 
Q 375 700 629 1000 
Q 884 1300 1366 1694 
Q 2113 2306 2375 2664 
Q 2638 3022 2638 3341 
Q 2638 3675 2398 3904 
Q 2159 4134 1775 4134 
Q 1369 4134 1125 3890 
Q 881 3647 878 3216 
L 300 3275 
Q 359 3922 746 4261 
Q 1134 4600 1788 4600 
Q 2447 4600 2831 4234 
Q 3216 3869 3216 3328 
Q 3216 3053 3103 2787 
Q 2991 2522 2730 2228 
Q 2469 1934 1863 1422 
Q 1356 997 1212 845 
Q 1069 694 975 541 
L 3222 541 
z
" transform="scale(0.015625)"/>
        <path id="ArialMT-30" d="M 266 2259 
Q 266 3072 433 3567 
Q 600 4063 929 4331 
Q 1259 4600 1759 4600 
Q 2128 4600 2406 4451 
Q 2684 4303 2865 4023 
Q 3047 3744 3150 3342 
Q 3253 2941 3253 2259 
Q 3253 1453 3087 958 
Q 2922 463 2592 192 
Q 2263 -78 1759 -78 
Q 1097 -78 719 397 
Q 266 969 266 2259 
z
M 844 2259 
Q 844 1131 1108 757 
Q 1372 384 1759 384 
Q 2147 384 2411 759 
Q 2675 1134 2675 2259 
Q 2675 3391 2411 3762 
Q 2147 4134 1753 4134 
Q 1366 4134 1134 3806 
Q 844 3388 844 2259 
z
" transform="scale(0.015625)"/>
       </defs>
       <use xlink:href="#ArialMT-32"/>
       <use xlink:href="#ArialMT-30" transform="translate(55.615234 0)"/>
       <use xlink:href="#ArialMT-32" transform="translate(111.230469 0)"/>
       <use xlink:href="#ArialMT-30" transform="translate(166.845703 0)"/>
      </g>
     </g>
    </g>
    <g id="xtick_2">
     <g id="line2d_2">
      <path d="M 212.578897 228.931 
L 212.578897 26.943 
" clip-path="url(#p8a11c91337)" style="fill: none; stroke: #cccccc; stroke-width: 0.8; stroke-linecap: round"/>
     </g>
     <g id="text_2">
      <!-- 2021 -->
      <g style="fill: #262626" transform="translate(193.004397 249.82875) scale(0.176 -0.176)">
       <defs>
        <path id="ArialMT-31" d="M 2384 0 
L 1822 0 
L 1822 3584 
Q 1619 3391 1289 3197 
Q 959 3003 697 2906 
L 697 3450 
Q 1169 3672 1522 3987 
Q 1875 4303 2022 4600 
L 2384 4600 
L 2384 0 
z
" transform="scale(0.015625)"/>
       </defs>
       <use xlink:href="#ArialMT-32"/>
       <use xlink:href="#ArialMT-30" transform="translate(55.615234 0)"/>
       <use xlink:href="#ArialMT-32" transform="translate(111.230469 0)"/>
       <use xlink:href="#ArialMT-31" transform="translate(166.845703 0)"/>
      </g>
     </g>
    </g>
    <g id="xtick_3">
     <g id="line2d_3">
      <path d="M 358.337705 228.931 
L 358.337705 26.943 
" clip-path="url(#p8a11c91337)" style="fill: none; stroke: #cccccc; stroke-width: 0.8; stroke-linecap: round"/>
     </g>
     <g id="text_3">
      <!-- 2022 -->
      <g style="fill: #262626" transform="translate(338.763205 249.82875) scale(0.176 -0.176)">
       <use xlink:href="#ArialMT-32"/>
       <use xlink:href="#ArialMT-30" transform="translate(55.615234 0)"/>
       <use xlink:href="#ArialMT-32" transform="translate(111.230469 0)"/>
       <use xlink:href="#ArialMT-32" transform="translate(166.845703 0)"/>
      </g>
     </g>
    </g>
    <g id="xtick_4">
     <g id="line2d_4">
      <path d="M 504.096512 228.931 
L 504.096512 26.943 
" clip-path="url(#p8a11c91337)" style="fill: none; stroke: #cccccc; stroke-width: 0.8; stroke-linecap: round"/>
     </g>
     <g id="text_4">
      <!-- 2023 -->
      <g style="fill: #262626" transform="translate(484.522012 249.82875) scale(0.176 -0.176)">
       <defs>
        <path id="ArialMT-33" d="M 269 1209 
L 831 1284 
Q 928 806 1161 595 
Q 1394 384 1728 384 
Q 2125 384 2398 659 
Q 2672 934 2672 1341 
Q 2672 1728 2419 1979 
Q 2166 2231 1775 2231 
Q 1616 2231 1378 2169 
L 1441 2663 
Q 1497 2656 1531 2656 
Q 1891 2656 2178 2843 
Q 2466 3031 2466 3422 
Q 2466 3731 2256 3934 
Q 2047 4138 1716 4138 
Q 1388 4138 1169 3931 
Q 950 3725 888 3313 
L 325 3413 
Q 428 3978 793 4289 
Q 1159 4600 1703 4600 
Q 2078 4600 2393 4439 
Q 2709 4278 2876 4000 
Q 3044 3722 3044 3409 
Q 3044 3113 2884 2869 
Q 2725 2625 2413 2481 
Q 2819 2388 3044 2092 
Q 3269 1797 3269 1353 
Q 3269 753 2831 336 
Q 2394 -81 1725 -81 
Q 1122 -81 723 278 
Q 325 638 269 1209 
z
" transform="scale(0.015625)"/>
       </defs>
       <use xlink:href="#ArialMT-32"/>
       <use xlink:href="#ArialMT-30" transform="translate(55.615234 0)"/>
       <use xlink:href="#ArialMT-32" transform="translate(111.230469 0)"/>
       <use xlink:href="#ArialMT-33" transform="translate(166.845703 0)"/>
      </g>
     </g>
    </g>
    <g id="xtick_5">
     <g id="line2d_5">
      <path d="M 649.85532 228.931 
L 649.85532 26.943 
" clip-path="url(#p8a11c91337)" style="fill: none; stroke: #cccccc; stroke-width: 0.8; stroke-linecap: round"/>
     </g>
     <g id="text_5">
      <!-- 2024 -->
      <g style="fill: #262626" transform="translate(630.28082 249.82875) scale(0.176 -0.176)">
       <defs>
        <path id="ArialMT-34" d="M 2069 0 
L 2069 1097 
L 81 1097 
L 81 1613 
L 2172 4581 
L 2631 4581 
L 2631 1613 
L 3250 1613 
L 3250 1097 
L 2631 1097 
L 2631 0 
L 2069 0 
z
M 2069 1613 
L 2069 3678 
L 634 1613 
L 2069 1613 
z
" transform="scale(0.015625)"/>
       </defs>
       <use xlink:href="#ArialMT-32"/>
       <use xlink:href="#ArialMT-30" transform="translate(55.615234 0)"/>
       <use xlink:href="#ArialMT-32" transform="translate(111.230469 0)"/>
       <use xlink:href="#ArialMT-34" transform="translate(166.845703 0)"/>
      </g>
     </g>
    </g>
    <g id="xtick_6">
     <g id="line2d_6">
      <path d="M 796.013467 228.931 
L 796.013467 26.943 
" clip-path="url(#p8a11c91337)" style="fill: none; stroke: #cccccc; stroke-width: 0.8; stroke-linecap: round"/>
     </g>
     <g id="text_6">
      <!-- 2025 -->
      <g style="fill: #262626" transform="translate(776.438967 249.82875) scale(0.176 -0.176)">
       <defs>
        <path id="ArialMT-35" d="M 266 1200 
L 856 1250 
Q 922 819 1161 601 
Q 1400 384 1738 384 
Q 2144 384 2425 690 
Q 2706 997 2706 1503 
Q 2706 1984 2436 2262 
Q 2166 2541 1728 2541 
Q 1456 2541 1237 2417 
Q 1019 2294 894 2097 
L 366 2166 
L 809 4519 
L 3088 4519 
L 3088 3981 
L 1259 3981 
L 1013 2750 
Q 1425 3038 1878 3038 
Q 2478 3038 2890 2622 
Q 3303 2206 3303 1553 
Q 3303 931 2941 478 
Q 2500 -78 1738 -78 
Q 1113 -78 717 272 
Q 322 622 266 1200 
z
" transform="scale(0.015625)"/>
       </defs>
       <use xlink:href="#ArialMT-32"/>
       <use xlink:href="#ArialMT-30" transform="translate(55.615234 0)"/>
       <use xlink:href="#ArialMT-32" transform="translate(111.230469 0)"/>
       <use xlink:href="#ArialMT-35" transform="translate(166.845703 0)"/>
      </g>
     </g>
    </g>
    <g id="xtick_7">
     <g id="line2d_7">
      <path d="M 941.772275 228.931 
L 941.772275 26.943 
" clip-path="url(#p8a11c91337)" style="fill: none; stroke: #cccccc; stroke-width: 0.8; stroke-linecap: round"/>
     </g>
     <g id="text_7">
      <!-- 2026 -->
      <g style="fill: #262626" transform="translate(922.197775 249.82875) scale(0.176 -0.176)">
       <defs>
        <path id="ArialMT-36" d="M 3184 3459 
L 2625 3416 
Q 2550 3747 2413 3897 
Q 2184 4138 1850 4138 
Q 1581 4138 1378 3988 
Q 1113 3794 959 3422 
Q 806 3050 800 2363 
Q 1003 2672 1297 2822 
Q 1591 2972 1913 2972 
Q 2475 2972 2870 2558 
Q 3266 2144 3266 1488 
Q 3266 1056 3080 686 
Q 2894 316 2569 119 
Q 2244 -78 1831 -78 
Q 1128 -78 684 439 
Q 241 956 241 2144 
Q 241 3472 731 4075 
Q 1159 4600 1884 4600 
Q 2425 4600 2770 4297 
Q 3116 3994 3184 3459 
z
M 888 1484 
Q 888 1194 1011 928 
Q 1134 663 1356 523 
Q 1578 384 1822 384 
Q 2178 384 2434 671 
Q 2691 959 2691 1453 
Q 2691 1928 2437 2201 
Q 2184 2475 1800 2475 
Q 1419 2475 1153 2201 
Q 888 1928 888 1484 
z
" transform="scale(0.015625)"/>
       </defs>
       <use xlink:href="#ArialMT-32"/>
       <use xlink:href="#ArialMT-30" transform="translate(55.615234 0)"/>
       <use xlink:href="#ArialMT-32" transform="translate(111.230469 0)"/>
       <use xlink:href="#ArialMT-36" transform="translate(166.845703 0)"/>
      </g>
     </g>
    </g>
    <g id="xtick_8">
     <g id="line2d_8">
      <path d="M 974.11875 228.931 
L 974.11875 26.943 
" clip-path="url(#p8a11c91337)" style="fill: none; stroke: #cccccc; stroke-width: 0.8; stroke-linecap: round"/>
     </g>
    </g>
    <g id="xtick_9"/>
    <g id="xtick_10"/>
    <g id="xtick_11"/>
    <g id="xtick_12"/>
    <g id="xtick_13"/>
    <g id="xtick_14"/>
    <g id="xtick_15"/>
    <g id="xtick_16"/>
    <g id="xtick_17"/>
    <g id="xtick_18"/>
    <g id="xtick_19"/>
    <g id="xtick_20"/>
    <g id="xtick_21"/>
    <g id="xtick_22"/>
    <g id="xtick_23"/>
    <g id="xtick_24"/>
    <g id="xtick_25"/>
    <g id="xtick_26"/>
   </g>
   <g id="matplotlib.axis_2">
    <g id="ytick_1">
     <g id="line2d_9">
      <path d="M 66.42075 177.473116 
L 974.11875 177.473116 
" clip-path="url(#p8a11c91337)" style="fill: none; stroke: #cccccc; stroke-width: 0.8; stroke-linecap: round"/>
     </g>
     <g id="text_8">
      <!-- 0 -->
      <g style="fill: #262626" transform="translate(48.3335 183.771991) scale(0.176 -0.176)">
       <use xlink:href="#ArialMT-30"/>
      </g>
     </g>
    </g>
    <g id="ytick_2">
     <g id="line2d_10">
      <path d="M 66.42075 120.311662 
L 974.11875 120.311662 
" clip-path="url(#p8a11c91337)" style="fill: none; stroke: #cccccc; stroke-width: 0.8; stroke-linecap: round"/>
     </g>
     <g id="text_9">
      <!-- 50 -->
      <g style="fill: #262626" transform="translate(38.54625 126.610537) scale(0.176 -0.176)">
       <use xlink:href="#ArialMT-35"/>
       <use xlink:href="#ArialMT-30" transform="translate(55.615234 0)"/>
      </g>
     </g>
    </g>
    <g id="ytick_3">
     <g id="line2d_11">
      <path d="M 66.42075 63.150208 
L 974.11875 63.150208 
" clip-path="url(#p8a11c91337)" style="fill: none; stroke: #cccccc; stroke-width: 0.8; stroke-linecap: round"/>
     </g>
     <g id="text_10">
      <!-- 100 -->
      <g style="fill: #262626" transform="translate(28.759 69.449083) scale(0.176 -0.176)">
       <use xlink:href="#ArialMT-31"/>
       <use xlink:href="#ArialMT-30" transform="translate(55.615234 0)"/>
       <use xlink:href="#ArialMT-30" transform="translate(111.230469 0)"/>
      </g>
     </g>
    </g>
    <g id="text_11">
     <!-- USD / barrel -->
     <g style="fill: #262626" transform="translate(20.943 180.749) rotate(-90) scale(0.192 -0.192)">
      <defs>
       <path id="ArialMT-55" d="M 3500 4581 
L 4106 4581 
L 4106 1934 
Q 4106 1244 3950 837 
Q 3794 431 3386 176 
Q 2978 -78 2316 -78 
Q 1672 -78 1262 144 
Q 853 366 678 786 
Q 503 1206 503 1934 
L 503 4581 
L 1109 4581 
L 1109 1938 
Q 1109 1341 1220 1058 
Q 1331 775 1601 622 
Q 1872 469 2263 469 
Q 2931 469 3215 772 
Q 3500 1075 3500 1938 
L 3500 4581 
z
" transform="scale(0.015625)"/>
       <path id="ArialMT-53" d="M 288 1472 
L 859 1522 
Q 900 1178 1048 958 
Q 1197 738 1509 602 
Q 1822 466 2213 466 
Q 2559 466 2825 569 
Q 3091 672 3220 851 
Q 3350 1031 3350 1244 
Q 3350 1459 3225 1620 
Q 3100 1781 2813 1891 
Q 2628 1963 1997 2114 
Q 1366 2266 1113 2400 
Q 784 2572 623 2826 
Q 463 3081 463 3397 
Q 463 3744 659 4045 
Q 856 4347 1234 4503 
Q 1613 4659 2075 4659 
Q 2584 4659 2973 4495 
Q 3363 4331 3572 4012 
Q 3781 3694 3797 3291 
L 3216 3247 
Q 3169 3681 2898 3903 
Q 2628 4125 2100 4125 
Q 1550 4125 1298 3923 
Q 1047 3722 1047 3438 
Q 1047 3191 1225 3031 
Q 1400 2872 2139 2705 
Q 2878 2538 3153 2413 
Q 3553 2228 3743 1945 
Q 3934 1663 3934 1294 
Q 3934 928 3725 604 
Q 3516 281 3123 101 
Q 2731 -78 2241 -78 
Q 1619 -78 1198 103 
Q 778 284 539 648 
Q 300 1013 288 1472 
z
" transform="scale(0.015625)"/>
       <path id="ArialMT-44" d="M 494 0 
L 494 4581 
L 2072 4581 
Q 2606 4581 2888 4516 
Q 3281 4425 3559 4188 
Q 3922 3881 4101 3404 
Q 4281 2928 4281 2316 
Q 4281 1794 4159 1391 
Q 4038 988 3847 723 
Q 3656 459 3429 307 
Q 3203 156 2883 78 
Q 2563 0 2147 0 
L 494 0 
z
M 1100 541 
L 2078 541 
Q 2531 541 2789 625 
Q 3047 709 3200 863 
Q 3416 1078 3536 1442 
Q 3656 1806 3656 2325 
Q 3656 3044 3420 3430 
Q 3184 3816 2847 3947 
Q 2603 4041 2063 4041 
L 1100 4041 
L 1100 541 
z
" transform="scale(0.015625)"/>
       <path id="ArialMT-20" transform="scale(0.015625)"/>
       <path id="ArialMT-2f" d="M 0 -78 
L 1328 4659 
L 1778 4659 
L 453 -78 
L 0 -78 
z
" transform="scale(0.015625)"/>
       <path id="ArialMT-62" d="M 941 0 
L 419 0 
L 419 4581 
L 981 4581 
L 981 2947 
Q 1338 3394 1891 3394 
Q 2197 3394 2470 3270 
Q 2744 3147 2920 2923 
Q 3097 2700 3197 2384 
Q 3297 2069 3297 1709 
Q 3297 856 2875 390 
Q 2453 -75 1863 -75 
Q 1275 -75 941 416 
L 941 0 
z
M 934 1684 
Q 934 1088 1097 822 
Q 1363 388 1816 388 
Q 2184 388 2453 708 
Q 2722 1028 2722 1663 
Q 2722 2313 2464 2622 
Q 2206 2931 1841 2931 
Q 1472 2931 1203 2611 
Q 934 2291 934 1684 
z
" transform="scale(0.015625)"/>
       <path id="ArialMT-61" d="M 2588 409 
Q 2275 144 1986 34 
Q 1697 -75 1366 -75 
Q 819 -75 525 192 
Q 231 459 231 875 
Q 231 1119 342 1320 
Q 453 1522 633 1644 
Q 813 1766 1038 1828 
Q 1203 1872 1538 1913 
Q 2219 1994 2541 2106 
Q 2544 2222 2544 2253 
Q 2544 2597 2384 2738 
Q 2169 2928 1744 2928 
Q 1347 2928 1158 2789 
Q 969 2650 878 2297 
L 328 2372 
Q 403 2725 575 2942 
Q 747 3159 1072 3276 
Q 1397 3394 1825 3394 
Q 2250 3394 2515 3294 
Q 2781 3194 2906 3042 
Q 3031 2891 3081 2659 
Q 3109 2516 3109 2141 
L 3109 1391 
Q 3109 606 3145 398 
Q 3181 191 3288 0 
L 2700 0 
Q 2613 175 2588 409 
z
M 2541 1666 
Q 2234 1541 1622 1453 
Q 1275 1403 1131 1340 
Q 988 1278 909 1158 
Q 831 1038 831 891 
Q 831 666 1001 516 
Q 1172 366 1500 366 
Q 1825 366 2078 508 
Q 2331 650 2450 897 
Q 2541 1088 2541 1459 
L 2541 1666 
z
" transform="scale(0.015625)"/>
       <path id="ArialMT-72" d="M 416 0 
L 416 3319 
L 922 3319 
L 922 2816 
Q 1116 3169 1280 3281 
Q 1444 3394 1641 3394 
Q 1925 3394 2219 3213 
L 2025 2691 
Q 1819 2813 1613 2813 
Q 1428 2813 1281 2702 
Q 1134 2591 1072 2394 
Q 978 2094 978 1738 
L 978 0 
L 416 0 
z
" transform="scale(0.015625)"/>
       <path id="ArialMT-65" d="M 2694 1069 
L 3275 997 
Q 3138 488 2766 206 
Q 2394 -75 1816 -75 
Q 1088 -75 661 373 
Q 234 822 234 1631 
Q 234 2469 665 2931 
Q 1097 3394 1784 3394 
Q 2450 3394 2872 2941 
Q 3294 2488 3294 1666 
Q 3294 1616 3291 1516 
L 816 1516 
Q 847 969 1125 678 
Q 1403 388 1819 388 
Q 2128 388 2347 550 
Q 2566 713 2694 1069 
z
M 847 1978 
L 2700 1978 
Q 2663 2397 2488 2606 
Q 2219 2931 1791 2931 
Q 1403 2931 1139 2672 
Q 875 2413 847 1978 
z
" transform="scale(0.015625)"/>
       <path id="ArialMT-6c" d="M 409 0 
L 409 4581 
L 972 4581 
L 972 0 
L 409 0 
z
" transform="scale(0.015625)"/>
      </defs>
      <use xlink:href="#ArialMT-55"/>
      <use xlink:href="#ArialMT-53" transform="translate(72.216797 0)"/>
      <use xlink:href="#ArialMT-44" transform="translate(138.916016 0)"/>
      <use xlink:href="#ArialMT-20" transform="translate(211.132812 0)"/>
      <use xlink:href="#ArialMT-2f" transform="translate(238.916016 0)"/>
      <use xlink:href="#ArialMT-20" transform="translate(266.699219 0)"/>
      <use xlink:href="#ArialMT-62" transform="translate(294.482422 0)"/>
      <use xlink:href="#ArialMT-61" transform="translate(350.097656 0)"/>
      <use xlink:href="#ArialMT-72" transform="translate(405.712891 0)"/>
      <use xlink:href="#ArialMT-72" transform="translate(439.013672 0)"/>
      <use xlink:href="#ArialMT-65" transform="translate(472.314453 0)"/>
      <use xlink:href="#ArialMT-6c" transform="translate(527.929688 0)"/>
     </g>
    </g>
   </g>
   <g id="line2d_12">
    <path d="M 66.42075 107.558942 
L 66.820089 107.541793 
L 67.219428 105.449684 
L 68.417446 105.141012 
L 68.816785 105.792653 
L 69.216124 109.279501 
L 69.615464 109.382392 
L 70.014803 109.999736 
L 71.21282 110.97148 
L 71.61216 110.777132 
L 72.011499 111.325881 
L 72.410838 110.57135 
L 72.810177 110.537053 
L 74.407534 110.880022 
L 75.605552 115.635855 
L 76.803569 116.779084 
L 77.202908 116.504709 
L 77.602248 116.550438 
L 78.001587 117.80799 
L 78.800265 119.084596 
L 79.998283 120.780386 
L 80.397622 119.317053 
L 80.796961 119.237027 
L 81.1963 119.922964 
L 82.394318 120.780386 
L 82.793657 120.311662 
L 83.192996 119.019813 
L 83.592336 118.699709 
L 83.991675 117.990907 
L 85.589032 117.910881 
L 85.988371 116.527574 
L 86.38771 116.001688 
L 86.787049 116.470412 
L 87.985067 118.756871 
L 88.384406 120.563172 
L 88.783745 121.832157 
L 89.183084 123.547 
L 89.582424 126.222156 
L 91.17978 123.432677 
L 91.57912 123.99286 
L 91.978459 124.998901 
L 92.377798 130.440672 
L 93.575816 141.975853 
L 93.975155 138.06601 
L 94.773833 141.392806 
L 95.173172 141.20989 
L 96.37119 144.365202 
L 96.770529 146.65166 
L 97.169868 154.059784 
L 97.569208 148.789498 
L 97.968547 155.203014 
L 99.166564 150.801582 
L 99.565904 153.431008 
L 99.965243 153.751113 
L 100.364582 158.495513 
L 100.763921 159.77593 
L 101.961939 161.353586 
L 102.361278 154.025488 
L 102.760617 154.28843 
L 103.159956 148.686608 
L 103.559296 145.051139 
L 104.757313 147.509082 
L 105.156652 150.561503 
L 105.555992 148.926686 
L 105.955331 151.29317 
L 107.552688 151.910514 
L 107.952027 154.43705 
L 108.750705 154.814316 
L 109.150044 156.540592 
L 110.348062 219.749727 
L 110.747401 167.286945 
L 111.14674 161.879471 
L 111.54608 160.256086 
L 111.945419 159.192883 
L 113.143436 163.560018 
L 113.542776 163.297075 
L 113.942115 160.278951 
L 114.341454 155.488821 
L 114.740793 154.928639 
L 115.938811 154.071217 
L 116.33815 149.39541 
L 116.737489 150.172806 
L 117.136828 150.401451 
L 117.536168 149.201061 
L 118.734185 150.012754 
L 119.133524 148.023535 
L 119.532864 148.469394 
L 120.331542 143.816452 
L 121.52956 141.084134 
L 121.928899 140.546817 
L 122.328238 139.106348 
L 122.727577 138.260359 
L 123.126916 139.186374 
L 124.724273 137.803067 
L 125.123612 139.975202 
L 125.522951 138.980593 
L 125.922291 136.808458 
L 127.120308 136.899916 
L 127.519647 135.310828 
L 127.918987 134.796374 
L 128.318326 134.693484 
L 128.717665 132.327 
L 129.915683 133.836062 
L 130.315022 132.910046 
L 130.714361 132.269838 
L 131.1137 135.825281 
L 131.513039 136.042494 
L 132.711057 135.093614 
L 133.110396 133.733171 
L 133.509735 134.133302 
L 134.308414 132.064057 
L 135.506431 131.058015 
L 135.905771 131.286661 
L 136.30511 134.133302 
L 136.704449 133.27588 
L 137.103788 133.4245 
L 138.301806 132.121218 
L 138.701145 132.57851 
L 139.499823 131.092312 
L 141.496519 131.069448 
L 141.895859 130.703614 
L 142.295198 132.155515 
L 142.694537 131.103745 
L 143.892555 131.675359 
L 144.291894 131.400984 
L 144.691233 130.372078 
L 145.090572 130.897963 
L 145.489911 131.115177 
L 146.687929 130.795073 
L 147.087268 129.73187 
L 147.486607 129.594682 
L 147.885947 130.612156 
L 148.285286 130.337781 
L 149.483303 130.074838 
L 149.882643 130.726479 
L 150.281982 130.452104 
L 150.681321 131.915437 
L 152.278678 130.795073 
L 152.678017 129.83476 
L 153.077356 129.171687 
L 153.476695 129.537521 
L 153.876035 130.417807 
L 155.074052 129.526088 
L 155.473391 129.994812 
L 155.872731 128.771557 
L 156.671409 129.400333 
L 157.869427 128.440021 
L 158.668105 128.417156 
L 159.466783 129.091661 
L 160.664801 128.954474 
L 161.06414 128.119917 
L 161.463479 128.074187 
L 161.862819 128.451453 
L 162.262158 128.359995 
L 163.460175 128.760125 
L 163.859515 128.588641 
L 164.258854 128.588641 
L 165.456871 132.90433 
L 166.654889 135.32226 
L 167.054228 133.97325 
L 167.453567 134.887833 
L 167.852907 134.796374 
L 169.050924 134.910697 
L 169.450263 133.698875 
L 169.849603 131.549604 
L 170.248942 130.612156 
L 170.648281 130.497833 
L 171.846299 132.589942 
L 173.044316 131.618198 
L 173.443655 131.675359 
L 174.641673 131.206635 
L 175.041012 132.852885 
L 175.440351 131.686791 
L 176.23903 135.287963 
L 177.437047 132.749994 
L 177.836387 131.149474 
L 178.235726 131.949734 
L 178.635065 130.554995 
L 179.034404 131.240932 
L 180.232422 132.635672 
L 181.0311 130.760776 
L 181.430439 130.78364 
L 181.829779 130.943692 
L 183.027796 130.955125 
L 183.427135 130.177729 
L 183.826475 131.88114 
L 184.225814 131.218067 
L 184.625153 132.052625 
L 185.823171 133.584552 
L 186.22251 132.498484 
L 186.621849 134.864968 
L 187.021188 136.385463 
L 187.420527 136.728432 
L 188.618545 135.630932 
L 189.017884 134.670619 
L 189.417223 132.921479 
L 189.816563 133.390203 
L 190.215902 135.207937 
L 191.813259 130.394943 
L 192.212598 130.337781 
L 192.611937 130.715047 
L 193.011276 131.823979 
L 194.209294 130.440672 
L 194.608633 130.326349 
L 195.007972 129.869057 
L 195.407311 129.949083 
L 196.20599 129.118337 
L 197.004668 128.417156 
L 197.404007 126.359344 
L 197.803347 125.364735 
L 199.800043 125.799162 
L 200.199382 126.553693 
L 200.598721 125.764865 
L 200.99806 125.284709 
L 201.397399 124.621636 
L 203.394095 125.479057 
L 203.793435 124.015724 
L 204.192774 124.210073 
L 205.390791 123.718485 
L 205.790131 123.078276 
L 206.18947 122.758172 
L 206.588809 122.209422 
L 206.988148 121.409162 
L 208.186166 122.838198 
L 208.585505 123.718485 
L 208.984844 122.666714 
L 209.384183 122.392339 
L 210.98154 123.169735 
L 211.780219 122.323745 
L 212.179558 122.19799 
L 213.776915 123.204032 
L 214.176254 120.563172 
L 214.575593 119.797209 
L 214.974932 119.591428 
L 215.374271 117.865152 
L 216.572289 117.85372 
L 216.971628 116.790516 
L 217.370967 117.099188 
L 217.770307 116.344657 
L 218.169646 117.739397 
L 219.767003 117.030595 
L 220.166342 116.699058 
L 220.565681 116.881975 
L 220.96502 117.7051 
L 222.163038 117.133485 
L 222.562377 117.327834 
L 222.961716 117.099188 
L 223.361055 117.727964 
L 223.760395 117.842287 
L 224.958412 116.253199 
L 225.757091 113.829553 
L 226.955108 112.099467 
L 228.552465 110.377001 
L 228.951804 110.914319 
L 229.351143 109.450986 
L 230.9485 108.799345 
L 231.347839 107.633252 
L 231.747179 108.42208 
L 232.146518 109.885413 
L 233.344535 106.970179 
L 233.743875 106.981611 
L 234.143214 105.209606 
L 234.542553 104.958096 
L 234.941892 107.107366 
L 236.13991 108.262028 
L 236.539249 109.22234 
L 236.938588 107.358877 
L 237.737266 101.928538 
L 238.935284 103.128929 
L 239.334623 104.28359 
L 239.733962 103.792002 
L 240.133302 101.997132 
L 240.532641 102.488721 
L 241.730658 102.751663 
L 242.129998 103.369007 
L 242.529337 103.677679 
L 242.928676 108.936533 
L 243.328015 107.244554 
L 244.526033 107.187392 
L 244.925372 111.451637 
L 245.324711 107.598955 
L 245.72405 110.628512 
L 246.12339 107.816168 
L 247.321407 107.17596 
L 247.720746 108.250595 
L 248.120086 109.805387 
L 248.519425 107.267418 
L 250.116782 110.331272 
L 250.91546 109.142314 
L 251.314799 109.325231 
L 251.714138 109.691064 
L 252.912156 109.22234 
L 253.311495 108.650725 
L 253.710834 105.2782 
L 254.110174 104.969528 
L 254.509513 105.266767 
L 255.70753 105.072418 
L 256.10687 105.895543 
L 256.506209 107.347444 
L 256.905548 107.221689 
L 257.304887 106.387132 
L 258.502905 106.570049 
L 259.700922 103.163226 
L 260.100262 104.878069 
L 261.298279 103.78057 
L 261.697618 102.340101 
L 262.096958 102.442992 
L 262.496297 103.471898 
L 262.895636 103.208955 
L 264.093654 103.254684 
L 264.492993 102.808825 
L 264.892332 102.065726 
L 265.291671 104.512236 
L 265.69101 102.797393 
L 266.889028 101.745622 
L 267.288367 102.603044 
L 267.687706 105.12958 
L 268.087046 106.650075 
L 268.486385 104.752314 
L 269.684402 101.871377 
L 270.483081 101.551273 
L 270.88242 101.025387 
L 271.281759 101.665596 
L 272.879116 99.962184 
L 273.278455 98.830388 
L 273.677794 98.807523 
L 274.077134 97.938669 
L 275.275151 98.350231 
L 275.67449 97.321325 
L 276.07383 97.561403 
L 276.473169 97.058383 
L 276.872508 96.303851 
L 278.070526 96.372445 
L 278.469865 95.092029 
L 278.869204 95.126325 
L 279.268543 96.235258 
L 280.466561 94.047879 
L 280.8659 93.285727 
L 281.265239 93.845909 
L 281.664578 93.891638 
L 282.063918 93.662992 
L 282.463257 92.634086 
L 283.661274 94.040258 
L 284.060614 93.857341 
L 284.459953 93.422914 
L 284.859292 91.353669 
L 285.258631 91.30794 
L 286.855988 93.308591 
L 287.255327 94.909112 
L 287.654666 94.040258 
L 288.054006 92.233956 
L 289.252023 92.634086 
L 289.651362 91.45656 
L 290.050702 93.9488 
L 290.450041 95.537888 
L 290.84938 95.434997 
L 292.047398 101.505544 
L 292.446737 100.510934 
L 292.846076 97.149841 
L 293.245415 94.989138 
L 293.644754 94.886247 
L 294.842772 94.989138 
L 295.242111 95.526456 
L 295.64145 94.737628 
L 296.04079 93.308591 
L 296.440129 92.95419 
L 298.037486 96.715414 
L 298.436825 99.516325 
L 298.836164 98.475987 
L 299.235503 99.436299 
L 300.433521 101.379789 
L 300.83286 99.356273 
L 301.232199 98.247341 
L 301.631538 98.453122 
L 302.030878 99.321976 
L 303.228895 100.373747 
L 304.027574 102.751663 
L 304.826252 106.307106 
L 306.02427 102.420127 
L 306.423609 100.305153 
L 306.822948 99.116195 
L 307.222287 100.396612 
L 307.621626 98.773226 
L 308.819644 98.270205 
L 309.218983 99.24195 
L 309.618322 99.013304 
L 310.017662 97.367054 
L 310.417001 98.201612 
L 312.014358 99.173356 
L 312.413697 98.178747 
L 312.813036 99.436299 
L 313.212375 97.652862 
L 314.410393 96.829737 
L 314.809732 96.841169 
L 315.209071 94.486117 
L 315.60841 94.371794 
L 317.205767 96.978357 
L 317.605106 96.864034 
L 318.004446 94.737628 
L 318.803124 92.668383 
L 320.001142 91.113591 
L 320.400481 91.227914 
L 320.79982 91.662341 
L 321.199159 91.479425 
L 321.997838 89.939876 
L 322.796516 88.667081 
L 323.195855 86.96367 
L 323.595194 88.689946 
L 323.994534 87.775362 
L 324.393873 86.529243 
L 325.59189 85.283123 
L 325.99123 85.157368 
L 326.390569 85.248826 
L 327.189247 83.282472 
L 328.387265 83.01953 
L 328.786604 82.367889 
L 329.185943 80.984582 
L 329.585282 82.996665 
L 329.984622 80.835962 
L 331.182639 80.710207 
L 331.581978 79.566978 
L 331.981318 82.9738 
L 332.380657 82.836613 
L 332.779996 82.013488 
L 333.978014 81.350415 
L 334.377353 81.544764 
L 334.776692 85.077342 
L 335.176031 87.295206 
L 335.57537 84.585753 
L 336.773388 83.774061 
L 337.172727 81.304686 
L 337.572066 84.608618 
L 337.971406 84.334243 
L 338.370745 85.02018 
L 339.968102 85.145936 
L 340.367441 87.935415 
L 340.76678 87.249477 
L 341.166119 90.461951 
L 342.364137 89.741716 
L 342.763476 87.935415 
L 343.162815 87.935415 
L 345.159511 97.584268 
L 345.55885 101.859945 
L 345.95819 102.660205 
L 346.357529 101.334059 
L 346.756868 101.574137 
L 347.954886 97.881508 
L 348.354225 95.229216 
L 348.753564 94.669034 
L 349.152903 96.452471 
L 349.552242 95.492159 
L 350.75026 96.086638 
L 351.149599 96.79544 
L 351.548938 96.429607 
L 351.948277 94.771924 
L 352.347617 96.383877 
L 353.545634 98.944711 
L 353.944973 96.189528 
L 354.344313 94.223174 
L 354.743652 92.999919 
L 356.740348 90.576274 
L 357.139687 89.924633 
L 357.539026 89.638826 
L 357.938365 91.353669 
L 359.136383 90.599138 
L 359.935061 88.495597 
L 360.334401 86.620701 
L 360.73374 87.158019 
L 361.931757 88.175493 
L 362.331097 84.677212 
L 362.730436 83.145285 
L 363.129775 83.762628 
L 363.529114 81.647655 
L 365.126471 79.818488 
L 365.52581 78.195103 
L 365.925149 78.823879 
L 366.324489 80.115728 
L 367.522506 80.893123 
L 368.321185 76.491691 
L 368.720524 77.314816 
L 369.119863 77.246223 
L 370.317881 75.542811 
L 370.71722 76.617447 
L 371.116559 76.68604 
L 371.915237 71.987369 
L 373.113255 73.153463 
L 373.512594 75.359895 
L 374.311273 74.776848 
L 374.710612 71.038489 
L 375.908629 68.271874 
L 376.307969 72.216015 
L 376.707308 70.203932 
L 377.106647 72.547551 
L 377.505986 73.14203 
L 379.103343 72.170286 
L 379.502682 72.135989 
L 379.902021 71.415754 
L 380.301361 72.661874 
L 381.499378 67.574505 
L 382.298057 50.871928 
L 382.697396 54.358777 
L 383.096735 45.121486 
L 384.294753 41.131616 
L 384.694092 36.124273 
L 385.093431 53.07836 
L 385.49277 56.37086 
L 385.892109 52.506745 
L 387.090127 59.469011 
L 387.489466 67.242968 
L 387.888805 69.037838 
L 388.288145 59.754818 
L 388.687484 57.788464 
L 389.885501 49.271407 
L 390.284841 50.540391 
L 390.68418 46.127527 
L 391.083519 46.916355 
L 391.482858 44.629897 
L 393.080215 58.291485 
L 393.479554 54.221589 
L 393.878893 62.544297 
L 394.278233 63.927604 
L 395.47625 59.388984 
L 395.875589 60.886615 
L 396.274929 67.277265 
L 396.674268 67.665963 
L 397.073607 65.036536 
L 398.271625 69.758072 
L 398.670964 62.555729 
L 399.070303 58.280052 
L 399.469642 55.330521 
L 401.066999 53.730001 
L 401.466338 60.246406 
L 401.865677 60.223542 
L 402.265017 58.703047 
L 403.862373 63.6075 
L 404.261713 60.154948 
L 404.661052 60.909479 
L 405.060391 56.896745 
L 405.45973 57.902787 
L 406.657748 57.228282 
L 407.057087 60.257839 
L 407.456426 54.187292 
L 407.855765 53.810027 
L 408.255105 52.038021 
L 409.453122 59.629063 
L 409.852461 63.447448 
L 410.251801 56.862448 
L 410.65114 56.119349 
L 411.050479 51.123438 
L 412.248497 47.064975 
L 412.647836 49.077058 
L 413.047175 52.095183 
L 413.446514 49.191381 
L 413.845853 48.711225 
L 415.043871 51.352084 
L 415.44321 48.802683 
L 415.842549 48.425418 
L 416.241889 44.641329 
L 416.641228 46.047501 
L 418.238585 46.710574 
L 418.637924 45.704532 
L 419.037263 43.852501 
L 419.436602 41.463153 
L 420.63462 42.103361 
L 421.033959 40.80008 
L 421.433298 38.067762 
L 421.832637 38.547918 
L 422.231977 39.451069 
L 423.429994 39.233856 
L 423.829333 41.520314 
L 424.228673 45.635939 
L 424.628012 43.075106 
L 425.027351 52.220938 
L 426.624708 51.157735 
L 427.024047 56.039323 
L 427.423386 56.576641 
L 427.822725 52.78112 
L 429.020743 50.071667 
L 429.420082 47.533699 
L 429.819421 49.831589 
L 430.218761 54.27875 
L 430.6181 51.374949 
L 432.215457 61.378203 
L 432.614796 62.795807 
L 433.014135 57.86849 
L 433.413474 55.399115 
L 434.611492 56.187943 
L 435.010831 65.791067 
L 435.41017 64.933645 
L 435.809509 65.676744 
L 437.406866 58.028542 
L 437.806205 56.153646 
L 438.205545 58.062839 
L 438.604884 64.933645 
L 439.004223 65.768203 
L 440.202241 63.344557 
L 440.60158 65.733906 
L 441.000919 63.115911 
L 441.400258 64.167682 
L 441.799597 61.652578 
L 442.997615 67.048619 
L 443.396954 66.419843 
L 443.796293 70.867004 
L 444.195633 73.107733 
L 444.994311 71.8921 
L 445.792989 70.558333 
L 446.192329 70.94703 
L 446.591668 69.232187 
L 446.991007 66.557031 
L 447.390346 69.026406 
L 448.588364 72.021666 
L 448.987703 75.462785 
L 449.387042 73.610754 
L 449.786381 70.924166 
L 450.185721 70.524036 
L 451.383738 70.672655 
L 451.783077 67.197239 
L 452.182417 68.271874 
L 452.581756 70.775546 
L 452.981095 70.432577 
L 454.179113 66.122604 
L 454.578452 72.204582 
L 454.977791 74.479608 
L 455.37713 77.909296 
L 455.776469 77.68065 
L 457.373826 77.612056 
L 457.773165 83.156717 
L 458.172505 81.396144 
L 458.571844 77.703514 
L 459.769861 76.663176 
L 460.169201 77.051874 
L 460.56854 75.862915 
L 460.967879 79.475519 
L 461.367218 79.647004 
L 462.565236 78.983931 
L 463.363914 82.150675 
L 463.763253 81.419009 
L 464.162592 87.077993 
L 465.36061 89.250128 
L 465.759949 87.260909 
L 466.159288 83.030962 
L 466.558628 83.979842 
L 466.957967 86.11768 
L 468.155984 81.384712 
L 468.555324 78.160806 
L 468.954663 76.617447 
L 469.354002 75.840051 
L 469.753341 71.072786 
L 470.951359 72.753332 
L 471.750037 77.063306 
L 472.149376 75.051223 
L 472.548716 79.041092 
L 473.746733 79.155415 
L 474.146072 82.253566 
L 474.545412 79.155415 
L 474.944751 79.132551 
L 475.34409 79.761327 
L 476.542108 79.018228 
L 476.941447 78.092212 
L 477.340786 75.279869 
L 477.740125 75.657134 
L 478.139464 77.040441 
L 479.337482 78.538072 
L 480.13616 74.513905 
L 480.5355 76.708905 
L 480.934839 71.632968 
L 482.132856 72.524687 
L 482.931535 79.395493 
L 483.330874 78.560936 
L 483.730213 75.565676 
L 484.928231 79.3269 
L 485.32757 78.160806 
L 485.726909 79.589842 
L 486.126248 84.082733 
L 486.525588 85.934764 
L 487.723605 86.312029 
L 488.122944 85.06591 
L 488.522284 88.381274 
L 489.320962 90.073253 
L 490.51898 89.330154 
L 490.918319 88.346977 
L 491.317658 85.46604 
L 491.716997 84.802967 
L 492.515676 87.329503 
L 493.314354 89.638826 
L 494.113032 95.240648 
L 494.512372 95.960883 
L 494.911711 96.24669 
L 496.109728 94.063122 
L 496.509068 91.227914 
L 496.908407 89.284425 
L 497.307746 90.713461 
L 497.707085 92.656951 
L 498.905103 91.673774 
L 499.304442 90.679164 
L 499.703781 88.106899 
L 500.10312 88.667081 
L 500.50246 86.506378 
L 502.099816 86.643566 
L 502.898495 87.809659 
L 503.297834 85.831873 
L 504.895191 89.593097 
L 505.29453 94.223174 
L 505.693869 93.320024 
L 506.093208 93.137107 
L 507.690565 91.60518 
L 508.089904 88.918592 
L 508.489244 87.935415 
L 508.888583 86.129113 
L 510.48594 85.728982 
L 510.885279 86.552107 
L 511.683957 84.562889 
L 512.881975 84.162759 
L 513.281314 86.174842 
L 513.680653 86.2663 
L 514.079992 85.283123 
L 514.479332 86.323462 
L 515.677349 88.335545 
L 516.076688 87.21518 
L 516.476028 90.199008 
L 516.875367 90.736326 
L 517.274706 93.560102 
L 518.472724 92.748409 
L 518.872063 89.250128 
L 519.271402 87.76393 
L 519.670741 88.255519 
L 520.07008 86.312029 
L 521.268098 85.854738 
L 521.667437 87.06656 
L 522.066776 87.649607 
L 522.466116 87.786795 
L 522.865455 90.233305 
L 524.462812 90.267602 
L 524.862151 92.931326 
L 525.26149 91.433696 
L 525.660829 90.370492 
L 526.858847 91.079295 
L 527.258186 89.581664 
L 528.056864 88.244086 
L 528.456204 86.449217 
L 529.654221 85.56893 
L 530.05356 88.930024 
L 530.852239 91.044998 
L 531.251578 89.95893 
L 532.449596 92.096768 
L 533.248274 100.442341 
L 533.647613 99.562054 
L 534.046952 101.322627 
L 535.24497 100.236559 
L 535.644309 98.133018 
L 536.043648 96.635388 
L 536.442988 97.710023 
L 536.842327 98.338799 
L 538.040344 94.166013 
L 538.439684 93.880206 
L 538.839023 94.074555 
L 540.03704 89.154859 
L 540.835719 85.557498 
L 541.235058 85.214529 
L 542.033736 85.214529 
L 543.631093 86.254868 
L 544.429772 82.287863 
L 544.829111 83.545415 
L 545.22845 83.065259 
L 546.426468 84.951587 
L 546.825807 85.043045 
L 547.624485 89.135805 
L 548.023824 88.4613 
L 549.221842 87.569581 
L 549.621181 89.387315 
L 550.02052 92.496899 
L 550.41986 91.993878 
L 550.819199 89.695987 
L 552.017216 90.987836 
L 552.815895 99.024737 
L 553.215234 99.13906 
L 553.614573 95.938018 
L 555.21193 93.239997 
L 555.611269 94.554711 
L 556.010608 96.521065 
L 556.409948 97.424216 
L 557.607965 96.223825 
L 558.007304 96.475336 
L 558.406644 94.268904 
L 558.805983 95.366404 
L 559.205322 95.652211 
L 560.40334 95.377836 
L 560.802679 94.166013 
L 561.202018 92.451169 
L 561.601357 95.526456 
L 562.000696 94.760492 
L 563.598053 98.075856 
L 563.997392 99.607783 
L 564.796071 95.434997 
L 565.994088 95.00057 
L 566.393428 95.492159 
L 566.792767 94.566143 
L 567.990784 98.437879 
L 568.789463 100.785309 
L 569.188802 98.14445 
L 569.588141 99.482028 
L 569.98748 96.749711 
L 570.38682 95.377836 
L 571.984176 96.372445 
L 572.383516 94.531846 
L 572.782855 98.338799 
L 573.182194 98.6932 
L 574.380212 98.487419 
L 574.779551 100.099372 
L 575.17889 97.972966 
L 575.578229 97.618565 
L 575.977568 96.692549 
L 577.175586 97.778617 
L 577.974264 95.412133 
L 578.373603 95.434997 
L 578.772943 92.977055 
L 579.97096 93.960232 
L 580.370299 91.879555 
L 581.168978 89.604529 
L 581.568317 91.227914 
L 582.766335 92.679815 
L 583.165674 90.862081 
L 583.565013 91.273643 
L 583.964352 90.987836 
L 584.363691 89.375883 
L 585.561709 87.375232 
L 585.961048 86.289165 
L 586.360387 87.032264 
L 586.759727 85.820441 
L 588.357083 83.956977 
L 588.756423 84.448566 
L 589.155762 86.586404 
L 589.555101 84.231352 
L 589.95444 82.859477 
L 591.152458 83.796925 
L 591.551797 82.653696 
L 591.951136 81.041743 
L 592.350475 82.802316 
L 592.749815 82.390754 
L 593.947832 83.156717 
L 594.746511 86.700727 
L 595.545189 84.585753 
L 596.743207 85.203097 
L 597.142546 85.728982 
L 597.541885 87.260909 
L 597.941224 86.56354 
L 598.340563 85.477472 
L 599.538581 85.271691 
L 600.337259 84.139894 
L 601.135938 79.704165 
L 602.733295 78.309426 
L 603.132634 77.38341 
L 603.531973 78.160806 
L 603.931312 77.429139 
L 605.12933 77.669217 
L 605.528669 75.874348 
L 605.928008 76.194452 
L 606.327347 74.433879 
L 606.726687 73.633619 
L 607.924704 72.901952 
L 608.324043 73.256353 
L 608.723383 75.497082 
L 609.522061 74.582499 
L 610.720079 74.948332 
L 611.518757 70.386848 
L 611.918096 72.696171 
L 612.716775 74.449122 
L 613.515453 75.942942 
L 613.914792 75.428488 
L 614.314131 81.07604 
L 614.713471 83.385363 
L 615.11281 82.779451 
L 616.710167 79.28117 
L 617.109506 81.784842 
L 617.508845 82.733722 
L 617.908184 77.246223 
L 619.106202 78.412316 
L 619.505541 78.400884 
L 619.90488 76.468827 
L 620.304219 75.325598 
L 620.703559 75.588541 
L 622.300915 80.778801 
L 622.700255 79.075389 
L 623.099594 81.670519 
L 623.498933 79.109686 
L 624.696951 82.550806 
L 625.09629 84.139894 
L 625.495629 84.814399 
L 625.894968 82.539373 
L 626.294307 84.654347 
L 627.492325 84.254217 
L 627.891664 88.346977 
L 628.291003 90.75919 
L 629.089682 89.478774 
L 630.287699 87.318071 
L 630.687039 87.272342 
L 631.086378 89.272993 
L 631.485717 93.445779 
L 631.885056 90.050388 
L 633.083074 88.186925 
L 633.482413 87.901118 
L 633.881752 89.673123 
L 634.680431 91.925284 
L 635.878448 92.348279 
L 636.677127 88.804269 
L 637.475805 93.217133 
L 638.673823 94.326065 
L 639.073162 95.217784 
L 639.472501 98.613174 
L 639.87184 98.59031 
L 640.271179 96.452471 
L 641.469197 96.361013 
L 641.868536 99.424867 
L 642.267875 98.487419 
L 642.667215 96.063773 
L 643.066554 96.24669 
L 644.264571 94.977706 
L 644.663911 93.754451 
L 645.06325 93.022784 
L 645.861928 93.685857 
L 647.459285 90.770623 
L 647.858624 92.519763 
L 648.257963 95.137758 
L 648.657303 95.286378 
L 650.254659 96.738278 
L 650.653999 94.05169 
L 651.053338 94.726195 
L 651.452677 92.874164 
L 652.650695 96.235258 
L 653.050034 94.669034 
L 653.449373 95.652211 
L 653.848712 94.989138 
L 654.248051 94.085987 
L 655.845408 94.440388 
L 656.244747 94.257471 
L 656.644087 92.508331 
L 657.043426 93.228565 
L 658.241443 91.433696 
L 658.640783 92.051039 
L 659.040122 91.182185 
L 659.439461 88.404138 
L 659.8388 87.786795 
L 661.036818 89.15867 
L 661.436157 87.958279 
L 662.634175 94.337497 
L 663.832192 93.777315 
L 664.630871 92.576925 
L 665.03021 89.821743 
L 665.429549 89.147237 
L 666.627567 89.055779 
L 667.026906 87.981144 
L 667.426245 89.341586 
L 668.224923 86.41492 
L 669.82228 87.478123 
L 670.221619 87.283774 
L 670.620959 86.426352 
L 671.020298 88.758539 
L 672.218315 87.695336 
L 672.617655 86.243436 
L 673.016994 86.654998 
L 673.416333 86.906508 
L 673.815672 84.985884 
L 675.01369 86.392055 
L 675.413029 87.032264 
L 675.812368 85.923331 
L 676.211707 86.232003 
L 676.611047 87.203748 
L 677.809064 87.306639 
L 678.208403 87.718201 
L 678.607743 85.248826 
L 679.007082 83.545415 
L 679.406421 83.796925 
L 681.003778 80.996014 
L 681.403117 82.825181 
L 682.201795 84.757238 
L 683.399813 83.259608 
L 683.799152 83.259608 
L 684.198491 83.556847 
L 684.597831 81.487603 
L 686.195187 80.82453 
L 686.594527 79.212577 
L 686.993866 78.903905 
L 687.393205 77.589191 
L 687.792544 77.223358 
L 688.990562 77.737811 
L 689.389901 79.109686 
L 689.78924 78.035051 
L 690.188579 79.395493 
L 690.587918 78.62953 
L 692.185275 78.983931 
L 692.584614 81.92203 
L 692.983954 82.013488 
L 693.383293 81.681951 
L 694.58131 81.647655 
L 694.98065 81.247524 
L 695.379989 81.338983 
L 695.779328 80.390103 
L 696.178667 79.864217 
L 697.376685 81.144634 
L 697.776024 82.02492 
L 698.175363 85.214529 
L 698.574702 85.340285 
L 698.974042 86.41492 
L 700.172059 85.900467 
L 700.571398 86.049087 
L 700.970738 85.363149 
L 701.370077 85.031613 
L 701.769416 86.232003 
L 702.967434 85.203097 
L 703.366773 86.449217 
L 704.165451 85.043045 
L 704.56479 84.117029 
L 705.762808 84.425701 
L 706.162147 85.260259 
L 706.960826 88.907159 
L 707.360165 87.752498 
L 708.957522 84.985884 
L 709.356861 85.740415 
L 710.155539 88.335545 
L 711.752896 92.565492 
L 712.152235 91.639477 
L 712.551574 89.993227 
L 712.950914 89.981795 
L 714.148931 87.443826 
L 714.54827 87.295206 
L 714.94761 86.51781 
L 715.346949 86.460649 
L 715.746288 86.689295 
L 716.944306 84.494295 
L 717.343645 82.962368 
L 718.142323 82.196405 
L 718.541662 84.059868 
L 719.73968 83.008097 
L 720.139019 83.762628 
L 720.538358 83.511118 
L 720.937698 82.539373 
L 721.337037 82.779451 
L 722.535054 80.641613 
L 722.934394 81.338983 
L 723.333733 80.081431 
L 724.53175 81.247524 
L 725.330429 81.864868 
L 725.729768 82.836613 
L 726.528446 81.533332 
L 726.927786 82.02492 
L 728.125803 82.333592 
L 728.525142 83.81979 
L 728.924482 81.258957 
L 729.323821 81.247524 
L 729.72316 84.379972 
L 730.921178 84.585753 
L 731.320517 88.026873 
L 732.119195 86.66643 
L 732.518534 87.638175 
L 733.716552 89.135805 
L 734.115891 90.393357 
L 734.51523 86.746456 
L 734.91457 88.598487 
L 735.313909 91.742367 
L 736.511926 92.348279 
L 736.911266 92.188227 
L 737.310605 89.81031 
L 737.709944 88.71281 
L 738.109283 87.981144 
L 739.307301 84.357108 
L 740.105979 87.76393 
L 740.505318 86.403488 
L 740.904658 88.244086 
L 742.502014 91.422263 
L 742.901354 94.291768 
L 743.300693 93.194268 
L 743.700032 90.793487 
L 744.89805 87.843956 
L 745.297389 90.016091 
L 745.696728 91.170753 
L 746.096067 89.5588 
L 746.495406 92.279685 
L 748.092763 95.983747 
L 748.492102 97.321325 
L 748.891442 97.34419 
L 749.290781 99.070466 
L 750.488798 97.847211 
L 750.888138 101.18544 
L 751.686816 97.572836 
L 752.086155 97.915804 
L 753.284173 96.189528 
L 753.683512 94.977706 
L 754.082851 95.309242 
L 754.48219 94.177445 
L 754.88153 94.337497 
L 756.079547 95.926586 
L 756.478886 94.771924 
L 757.277565 99.413434 
L 757.676904 98.910414 
L 758.874922 98.876117 
L 759.274261 96.978357 
L 759.6736 96.601091 
L 760.072939 92.496899 
L 760.472278 91.810961 
L 761.670296 88.575623 
L 762.069635 92.576925 
L 762.468974 93.045649 
L 762.868314 90.061821 
L 763.267653 90.461951 
L 764.86501 96.052341 
L 765.264349 96.338148 
L 765.663688 96.006612 
L 766.063027 97.698591 
L 767.261045 96.120935 
L 767.660384 94.20031 
L 768.059723 95.880857 
L 768.459062 96.784008 
L 768.858402 95.137758 
L 770.056419 100.133669 
L 770.455758 100.328018 
L 770.855098 98.6932 
L 771.254437 97.927237 
L 771.653776 97.664294 
L 772.851794 95.354971 
L 773.251133 94.863383 
L 773.650472 95.183487 
L 774.049811 94.371794 
L 774.44915 96.658252 
L 776.046507 99.24195 
L 776.845186 98.601742 
L 777.244525 100.499502 
L 778.442542 98.064424 
L 778.841882 97.732888 
L 779.241221 98.304502 
L 780.039899 95.526456 
L 781.237917 98.121586 
L 781.637256 98.533148 
L 782.036595 98.556013 
L 782.835274 99.436299 
L 784.033291 99.333408 
L 784.43263 97.275596 
L 784.83197 98.807523 
L 785.231309 99.070466 
L 786.828666 98.99044 
L 787.228005 98.761794 
L 787.627344 96.79544 
L 788.026683 97.161273 
L 788.426022 95.686508 
L 789.62404 96.269555 
L 790.023379 97.092679 
L 790.422718 96.532497 
L 790.822058 97.332758 
L 791.221397 97.778617 
L 792.419414 98.018695 
L 792.818754 96.452471 
L 793.617432 97.012653 
L 794.016771 95.983747 
L 795.214789 95.469294 
L 796.812146 92.142498 
L 798.010163 92.519763 
L 798.409502 91.742367 
L 798.808842 92.885596 
L 799.60752 89.135805 
L 800.805538 86.506378 
L 801.204877 88.072602 
L 801.604216 85.180232 
L 802.003555 86.757889 
L 802.402894 87.66104 
L 804.000251 89.684555 
L 804.39959 90.450519 
L 804.798929 91.696638 
L 805.198269 91.765232 
L 806.396286 93.434346 
L 806.795625 92.70268 
L 807.194965 94.085987 
L 807.594304 93.90307 
L 807.993643 94.20031 
L 809.191661 93.422914 
L 809.591 93.971664 
L 809.990339 95.857992 
L 810.389678 96.338148 
L 811.188357 95.4007 
L 811.987035 94.326065 
L 812.386374 93.25143 
L 812.785713 95.480726 
L 813.185053 95.54932 
L 813.584392 96.24669 
L 815.980427 94.154581 
L 816.379766 96.623956 
L 817.577784 96.235258 
L 817.977123 98.418825 
L 818.376462 98.738929 
L 818.775801 96.738278 
L 819.57448 97.99202 
L 820.373158 99.013304 
L 820.772497 99.196221 
L 821.171837 101.356924 
L 821.571176 101.311195 
L 821.970515 100.545231 
L 823.168533 101.665596 
L 823.567872 101.425518 
L 823.967211 100.133669 
L 824.36655 101.082549 
L 824.765889 100.385179 
L 825.963907 99.916455 
L 826.363246 100.316585 
L 826.762585 100.419476 
L 827.161925 99.104763 
L 827.561264 99.13906 
L 828.759281 98.064424 
L 829.158621 98.04156 
L 829.55796 97.389919 
L 829.957299 97.104112 
L 830.356638 97.74432 
L 831.554656 95.309242 
L 831.953995 95.606482 
L 832.353334 95.023435 
L 833.152013 106.112757 
L 834.35003 107.678981 
L 834.749369 108.833642 
L 835.148709 105.872679 
L 835.548048 108.227731 
L 835.947387 106.695804 
L 837.145405 106.604345 
L 837.544744 106.890153 
L 837.944083 105.586872 
L 838.343422 103.0832 
L 839.940779 104.900934 
L 840.340118 103.620518 
L 840.739457 105.861246 
L 841.138797 104.820908 
L 841.538136 104.477939 
L 842.736153 105.106715 
L 843.135493 106.77583 
L 843.534832 109.393824 
L 843.934171 108.204866 
L 844.33351 109.256637 
L 845.531528 110.594215 
L 845.930867 108.399215 
L 846.330206 109.542444 
L 846.729545 107.450335 
L 847.128885 106.169918 
L 848.326902 105.083851 
L 848.726241 103.117497 
L 849.125581 103.757705 
L 849.52492 105.415387 
L 849.924259 104.489372 
L 851.521616 104.340752 
L 851.920955 105.52971 
L 852.320294 105.964137 
L 852.719633 105.575439 
L 854.31699 107.038772 
L 854.716329 105.975569 
L 855.115669 106.981611 
L 855.515008 107.210257 
L 856.713025 105.141012 
L 857.112365 104.192132 
L 857.511704 104.798043 
L 857.911043 104.237861 
L 858.310382 102.820257 
L 859.5084 102.031429 
L 859.907739 102.408695 
L 860.307078 98.6932 
L 860.706417 98.898981 
L 861.105757 93.057081 
L 862.303774 94.554711 
L 862.703113 91.022133 
L 863.102453 90.713461 
L 863.901131 90.90781 
L 865.099149 98.178747 
L 865.498488 102.648773 
L 866.297166 101.516976 
L 866.696505 101.265466 
L 867.894523 101.677028 
L 868.293862 101.28833 
L 868.693201 98.979007 
L 869.092541 99.584919 
L 870.689897 98.407393 
L 871.089237 97.961534 
L 871.488576 97.89294 
L 871.887915 99.985049 
L 872.287254 97.870075 
L 874.28395 100.728148 
L 874.683289 98.864685 
L 875.082629 99.127627 
L 876.280646 99.287679 
L 876.679985 100.236559 
L 877.079325 101.962835 
L 877.478664 100.693851 
L 877.878003 101.58557 
L 879.076021 99.950752 
L 879.47536 97.138409 
L 879.874699 96.200961 
L 880.274038 97.035518 
L 880.673377 99.287679 
L 881.871395 100.499502 
L 882.670073 102.728799 
L 883.069413 103.277549 
L 884.666769 103.128929 
L 885.066109 104.054945 
L 885.465448 104.672288 
L 885.864787 103.174658 
L 886.264126 104.557965 
L 887.462144 103.723408 
L 887.861483 105.015257 
L 888.260822 104.089241 
L 888.660161 103.666247 
L 889.059501 104.214997 
L 890.257518 102.957445 
L 890.656857 104.763747 
L 891.056197 103.746273 
L 891.455536 103.208955 
L 891.854875 103.894892 
L 893.452232 102.077158 
L 893.851571 103.894892 
L 894.25091 104.523668 
L 894.650249 106.341403 
L 895.848267 105.906976 
L 896.247606 105.483981 
L 896.646945 104.295023 
L 897.046285 105.78122 
L 897.844963 105.182931 
L 898.643641 104.695153 
L 899.042981 103.288981 
L 899.841659 104.409346 
L 900.240998 105.426819 
L 901.439016 105.461116 
L 901.838355 104.58083 
L 902.237694 102.705934 
L 902.637033 102.580179 
L 903.036373 101.448382 
L 904.23439 103.997783 
L 904.633729 105.255335 
L 905.033069 105.918408 
L 905.432408 107.416038 
L 906.231086 106.672939 
L 907.029765 106.032731 
L 907.429104 105.998434 
L 907.828443 105.026689 
L 908.227782 106.181351 
L 908.627121 109.165179 
L 910.224478 109.428121 
L 910.623817 109.931142 
L 911.023157 110.834293 
L 912.620513 110.777132 
L 913.019853 110.411298 
L 913.419192 109.679632 
L 913.818531 106.089892 
L 914.21787 106.284241 
L 915.415888 106.444293 
L 915.815227 107.770439 
L 916.214566 107.438903 
L 916.613905 107.32458 
L 917.013245 106.87872 
L 918.211262 106.832991 
L 918.610601 107.301715 
L 919.00994 108.42208 
L 919.40928 108.604996 
L 919.808619 108.262028 
L 921.006636 107.804736 
L 921.805315 109.679632 
L 922.204654 109.405257 
L 922.603993 107.884762 
L 923.802011 108.12484 
L 924.20135 107.153095 
L 924.600689 108.570699 
L 925.000028 108.799345 
L 925.399368 110.182652 
L 926.597385 109.896845 
L 926.996724 110.880022 
L 927.396064 110.239814 
L 928.194742 110.502757 
L 929.39276 109.485283 
L 929.792099 110.239814 
L 930.191438 109.91971 
L 930.590777 109.085152 
L 930.990116 108.616429 
L 932.188134 109.976871 
L 932.587473 110.708538 
L 932.986812 110.399866 
L 933.386152 111.440204 
L 934.18483 111.855578 
L 934.983508 112.343355 
L 935.382848 114.092496 
L 935.782187 113.372262 
L 936.181526 113.200777 
L 936.980204 112.011819 
L 938.178222 110.537053 
L 938.577561 110.342704 
L 939.37624 112.76635 
L 940.574257 111.291585 
L 940.973596 111.405908 
L 941.372936 112.011819 
L 942.171614 112.06898 
L 943.369632 111.051507 
L 944.16831 113.440855 
L 944.567649 111.463069 
L 944.966988 110.06833 
L 946.165006 109.576741 
L 946.564345 107.907627 
L 946.963684 106.77583 
L 947.363024 109.873981 
L 948.561041 109.050856 
L 949.35972 108.536403 
L 949.759059 108.444944 
L 950.158398 109.748225 
L 950.557737 108.079111 
L 951.755755 108.353486 
L 952.155094 106.547184 
L 952.554433 105.735491 
L 952.953772 103.426169 
L 953.353112 103.73484 
L 954.551129 107.050205 
L 954.950468 105.884111 
L 955.349808 103.666247 
L 955.749147 105.564007 
L 956.148486 104.569398 
L 957.346504 103.700544 
L 957.745843 104.077809 
L 958.145182 103.391872 
L 958.544521 105.358226 
L 958.94386 105.392523 
L 960.541217 105.987002 
L 960.940556 102.78596 
L 961.339896 101.265466 
L 961.739235 101.231169 
L 962.937252 101.608434 
L 963.336592 102.454424 
L 964.13527 103.048903 
L 964.933948 99.333408 
L 965.732627 96.155232 
L 966.131966 92.325414 
L 966.531305 92.211091 
L 966.930644 85.008748 
L 967.329984 73.702213 
L 968.528001 69.266484 
L 968.92734 81.77341 
L 969.32668 78.240832 
L 969.726019 68.168984 
L 970.125358 64.887916 
L 971.323376 70.706952 
L 971.722715 67.711692 
L 972.122054 67.585937 
L 972.521393 67.597369 
L 972.920732 64.624974 
L 974.11875 75.348462 
L 974.11875 75.348462 
" clip-path="url(#p8a11c91337)" style="fill: none; stroke: #8c564b; stroke-opacity: 0.4; stroke-width: 0.8; stroke-linecap: round"/>
   </g>
   <g id="line2d_13">
    <path d="M 78.001587 111.039503 
L 79.199604 112.262948 
L 80.796961 114.198054 
L 83.192996 116.202516 
L 85.589032 117.66623 
L 86.787049 118.157628 
L 88.783745 118.742199 
L 91.17978 120.051959 
L 91.978459 120.317569 
L 92.777137 121.18998 
L 94.374494 123.735443 
L 95.572512 125.963215 
L 96.770529 128.643801 
L 102.361278 145.164319 
L 103.159956 147.015969 
L 104.357974 148.955267 
L 105.156652 149.810402 
L 105.555992 150.042096 
L 106.754009 151.218289 
L 108.750705 152.877304 
L 109.150044 152.959998 
L 109.549384 153.920692 
L 109.948723 155.369925 
L 110.348062 157.570387 
L 111.14674 158.440257 
L 111.945419 158.849152 
L 114.341454 159.20241 
L 114.740793 159.22375 
L 115.539472 159.732487 
L 115.938811 160.005846 
L 117.136828 160.17949 
L 117.935507 160.127917 
L 119.133524 159.893682 
L 119.532864 159.778978 
L 120.331542 159.141438 
L 121.13022 158.259627 
L 121.52956 157.042088 
L 121.928899 155.104315 
L 122.328238 152.416202 
L 123.126916 150.692213 
L 125.123612 146.942231 
L 126.32163 144.727669 
L 129.516343 140.057324 
L 131.513039 137.562798 
L 132.311718 136.935166 
L 135.905771 134.708441 
L 137.103788 134.205325 
L 138.301806 133.706623 
L 140.298502 133.01389 
L 141.496519 132.843358 
L 142.295198 132.713792 
L 142.694537 132.674922 
L 145.090572 131.851416 
L 146.28859 131.641443 
L 147.885947 131.483678 
L 149.483303 131.050394 
L 151.08066 130.903298 
L 152.678017 130.856045 
L 155.074052 130.559695 
L 157.470087 130.167059 
L 159.067444 129.887349 
L 160.664801 129.730599 
L 163.460175 129.149712 
L 164.658193 129.004014 
L 166.25555 129.47007 
L 169.849603 130.999711 
L 172.245638 131.543126 
L 175.440351 132.407026 
L 177.037708 132.985119 
L 177.836387 132.894613 
L 180.631761 132.186764 
L 181.430439 131.951258 
L 185.024492 131.87263 
L 186.621849 132.147894 
L 188.219206 132.554502 
L 190.215902 132.818969 
L 191.01458 132.988929 
L 191.813259 132.9291 
L 192.611937 132.81935 
L 194.209294 132.855807 
L 196.20599 132.640753 
L 197.004668 132.393053 
L 198.202686 131.660345 
L 199.400703 130.623588 
L 200.99806 129.314972 
L 203.793435 127.446555 
L 204.991452 126.755282 
L 208.585505 124.547707 
L 209.384183 124.223792 
L 214.176254 123.061509 
L 215.773611 122.23216 
L 218.568985 120.8103 
L 219.767003 120.342529 
L 222.961716 118.827751 
L 224.958412 117.943654 
L 227.354447 116.418586 
L 229.750483 115.026038 
L 233.743875 112.045544 
L 235.341231 110.561506 
L 236.539249 109.67563 
L 237.337927 109.03466 
L 238.535945 107.947449 
L 240.133302 106.862144 
L 241.730658 105.877156 
L 242.529337 105.509132 
L 243.727354 105.460862 
L 244.526033 105.314021 
L 245.72405 105.573534 
L 246.922068 105.757975 
L 248.918764 105.768645 
L 249.717442 106.165727 
L 250.91546 106.863096 
L 252.113478 107.479043 
L 253.311495 108.129794 
L 254.509513 108.320332 
L 255.70753 108.053833 
L 257.304887 107.834079 
L 258.103566 107.651162 
L 259.301583 107.462529 
L 260.499601 107.036867 
L 261.298279 106.740009 
L 263.694314 105.414625 
L 265.291671 104.609792 
L 267.687706 104.139544 
L 268.087046 104.164695 
L 269.285063 103.845353 
L 271.281759 103.123975 
L 272.080438 102.924386 
L 274.875812 101.868138 
L 276.473169 101.126944 
L 278.070526 100.244626 
L 279.667882 99.25967 
L 280.8659 98.157978 
L 283.261935 96.493056 
L 286.456649 94.654743 
L 288.453345 93.933239 
L 290.050702 93.439491 
L 291.248719 93.505417 
L 292.047398 93.858929 
L 292.846076 94.203168 
L 297.238807 94.719145 
L 298.436825 95.227692 
L 300.034182 96.035574 
L 300.83286 96.564508 
L 302.829556 97.454702 
L 304.426913 97.79729 
L 306.02427 98.980913 
L 308.420305 99.953039 
L 309.618322 100.342118 
L 310.81634 100.318967 
L 312.014358 100.203596 
L 312.813036 100.099562 
L 314.011054 99.969997 
L 315.209071 99.572915 
L 316.407089 98.7818 
L 317.205767 98.181732 
L 321.199159 95.774346 
L 322.796516 94.623019 
L 328.786604 88.644598 
L 329.984622 87.185837 
L 331.581978 85.580744 
L 333.179335 84.38518 
L 334.377353 83.54008 
L 334.776692 83.420422 
L 335.176031 83.431473 
L 336.374049 83.096507 
L 338.370745 82.81451 
L 339.568762 82.956144 
L 340.367441 83.187965 
L 340.76678 83.350685 
L 342.364137 84.510554 
L 343.562154 85.334111 
L 344.360833 85.991087 
L 345.159511 86.972181 
L 346.756868 89.568327 
L 349.951582 92.921926 
L 352.746956 95.359798 
L 354.344313 96.261171 
L 355.54233 96.657566 
L 356.341009 96.56687 
L 357.139687 96.142275 
L 358.737044 94.659507 
L 360.73374 93.162258 
L 362.730436 91.552972 
L 364.327793 89.651401 
L 366.723828 86.315332 
L 368.720524 84.174953 
L 369.918541 82.812224 
L 372.713916 79.348621 
L 373.911933 78.017902 
L 374.710612 77.28433 
L 375.908629 75.983717 
L 377.505986 74.953286 
L 378.704004 74.241753 
L 379.902021 73.432982 
L 380.7007 73.093697 
L 381.499378 72.524369 
L 381.898717 71.952882 
L 383.096735 69.336411 
L 385.093431 64.400329 
L 386.690788 61.887131 
L 387.090127 61.532221 
L 387.888805 61.492717 
L 388.687484 60.663494 
L 389.486162 59.375837 
L 392.680876 53.170326 
L 393.479554 52.359269 
L 393.878893 52.478546 
L 394.278233 52.913735 
L 394.677572 53.182267 
L 395.875589 54.842362 
L 396.674268 56.765274 
L 397.872285 58.02778 
L 398.271625 58.525465 
L 398.670964 58.705715 
L 399.070303 58.666083 
L 400.268321 57.624601 
L 401.066999 57.462008 
L 402.265017 58.370367 
L 403.463034 59.89353 
L 403.862373 60.416239 
L 404.661052 60.927009 
L 405.060391 60.880517 
L 405.45973 61.003224 
L 407.855765 60.021571 
L 408.654444 59.07701 
L 409.453122 58.579705 
L 409.852461 58.421813 
L 410.251801 57.991959 
L 412.647836 56.719163 
L 413.047175 56.66467 
L 415.842549 54.011235 
L 416.641228 52.998715 
L 418.637924 51.14516 
L 419.436602 50.174177 
L 421.033959 48.472671 
L 422.631316 45.785575 
L 423.429994 45.040443 
L 423.829333 44.810527 
L 424.228673 44.762893 
L 424.628012 44.562828 
L 425.42669 44.659145 
L 426.225369 44.819483 
L 426.624708 44.842347 
L 427.822725 45.40291 
L 428.621404 45.808376 
L 430.6181 46.526324 
L 431.017439 46.860432 
L 431.816117 47.930908 
L 433.812813 50.987394 
L 434.611492 52.096834 
L 435.809509 54.641535 
L 436.608188 55.863647 
L 437.406866 56.321796 
L 438.205545 56.691917 
L 439.004223 57.47541 
L 439.802901 58.133909 
L 440.60158 59.008099 
L 443.796293 62.33318 
L 445.39365 64.044594 
L 446.591668 65.476679 
L 447.390346 65.638637 
L 448.189025 66.030383 
L 448.588364 66.37259 
L 450.185721 68.318747 
L 451.783077 68.960479 
L 454.578452 70.215364 
L 454.977791 70.463063 
L 455.37713 70.846045 
L 456.175809 71.225026 
L 457.373826 71.798736 
L 458.172505 72.566986 
L 460.169201 73.897705 
L 461.367218 74.360712 
L 462.964575 75.548146 
L 463.763253 76.404806 
L 466.159288 80.097817 
L 466.957967 80.878261 
L 467.756645 81.275343 
L 468.555324 81.416532 
L 469.354002 81.32374 
L 470.15268 80.595503 
L 470.951359 80.258377 
L 472.149376 80.133638 
L 472.548716 80.239577 
L 473.746733 80.199691 
L 474.545412 80.307028 
L 475.743429 80.113187 
L 476.941447 79.212196 
L 477.740125 78.359728 
L 479.736821 77.259179 
L 480.13616 77.030152 
L 480.5355 76.981756 
L 481.334178 76.685278 
L 482.532196 76.878865 
L 483.330874 77.223358 
L 484.129552 77.232377 
L 485.726909 77.190967 
L 486.126248 77.251939 
L 488.522284 78.655062 
L 489.320962 79.519343 
L 490.51898 80.802554 
L 491.317658 81.37709 
L 492.116336 82.043974 
L 492.515676 82.397994 
L 493.713693 84.230209 
L 494.512372 85.654291 
L 496.509068 88.435387 
L 497.307746 89.185726 
L 498.106424 89.896179 
L 499.304442 90.435275 
L 500.50246 90.552647 
L 502.898495 90.055342 
L 504.096512 90.184432 
L 506.093208 90.371064 
L 508.888583 89.531172 
L 509.687261 89.150762 
L 511.284618 88.38699 
L 512.881975 87.974665 
L 516.076688 87.941988 
L 517.274706 88.009534 
L 518.872063 87.897116 
L 520.07008 87.554529 
L 521.268098 87.485459 
L 522.466116 87.652656 
L 523.664133 88.117664 
L 526.858847 89.579696 
L 528.056864 89.693129 
L 528.855543 89.415452 
L 530.05356 88.765208 
L 530.4529 88.671845 
L 531.650917 88.885374 
L 532.449596 89.252351 
L 532.848935 89.588714 
L 534.446292 91.386379 
L 535.644309 92.327796 
L 537.641005 93.325359 
L 539.637701 93.814661 
L 541.235058 93.833714 
L 541.634397 93.822282 
L 543.631093 93.092966 
L 544.429772 92.528337 
L 545.22845 91.530679 
L 547.225146 88.940122 
L 549.621181 87.182217 
L 550.819199 86.91775 
L 551.617877 86.825149 
L 552.017216 86.886248 
L 552.416556 87.157447 
L 553.614573 88.427575 
L 554.812591 89.335965 
L 555.611269 89.854134 
L 556.809287 91.216863 
L 558.007304 92.491564 
L 559.604661 93.650417 
L 561.601357 94.701806 
L 562.400036 94.897108 
L 564.396732 95.958215 
L 565.594749 95.68384 
L 566.792767 95.72995 
L 569.588141 96.333194 
L 572.383516 96.416078 
L 574.779551 97.212337 
L 575.578229 97.221293 
L 576.376908 97.114464 
L 577.974264 97.325517 
L 578.772943 97.270642 
L 579.97096 96.911033 
L 582.366995 95.488348 
L 583.165674 95.223024 
L 584.363691 94.71 
L 585.561709 93.658991 
L 591.951136 87.22928 
L 593.947832 85.850038 
L 595.14585 85.226343 
L 596.343867 84.650917 
L 597.142546 84.45695 
L 600.736599 84.339578 
L 601.535277 83.947641 
L 602.733295 83.496256 
L 603.531973 83.132709 
L 604.729991 82.675799 
L 605.528669 82.275668 
L 606.327347 81.697957 
L 607.924704 80.080288 
L 612.317435 75.831286 
L 613.116114 75.430775 
L 613.914792 75.197747 
L 614.713471 75.447542 
L 615.911488 75.872252 
L 617.109506 76.154058 
L 617.508845 76.382704 
L 618.307523 76.524464 
L 620.304219 77.201256 
L 621.102898 77.267182 
L 622.300915 77.759151 
L 622.700255 77.89672 
L 625.894968 80.087909 
L 626.693647 80.24504 
L 627.492325 80.376956 
L 628.291003 80.974293 
L 629.089682 81.594685 
L 629.489021 81.795512 
L 631.885056 84.102549 
L 633.083074 85.387157 
L 634.680431 86.798854 
L 636.677127 88.496168 
L 637.475805 89.004143 
L 639.87184 91.190378 
L 641.469197 92.071427 
L 642.667215 93.116338 
L 643.066554 93.348795 
L 643.865232 93.606402 
L 645.861928 94.432576 
L 646.660607 94.514603 
L 647.858624 94.453535 
L 649.85532 95.166593 
L 650.653999 95.250175 
L 651.053338 95.233789 
L 651.852016 94.889296 
L 653.848712 94.609586 
L 654.647391 94.399899 
L 656.244747 94.2287 
L 659.8388 93.811231 
L 662.234835 92.531005 
L 664.231531 92.482227 
L 665.03021 92.198706 
L 667.026906 91.239442 
L 667.825584 90.849887 
L 669.023602 90.184813 
L 670.620959 89.526599 
L 671.419637 89.445811 
L 672.218315 89.436284 
L 673.815672 89.05978 
L 677.010386 87.301113 
L 678.607743 87.005779 
L 686.195187 84.147897 
L 687.393205 83.359831 
L 690.587918 81.058129 
L 692.185275 80.474702 
L 693.782632 80.405346 
L 696.178667 79.848593 
L 697.376685 79.788193 
L 697.776024 79.82268 
L 698.574702 80.17327 
L 700.172059 81.290586 
L 701.769416 82.298152 
L 704.56479 83.718424 
L 706.162147 84.091878 
L 707.360165 84.738946 
L 708.558182 85.357687 
L 711.752896 86.586404 
L 712.950914 87.063131 
L 713.749592 87.268531 
L 716.544966 87.521566 
L 717.343645 87.485363 
L 718.541662 87.224136 
L 719.73968 86.769321 
L 721.736376 86.258742 
L 722.934394 85.433077 
L 724.53175 84.004612 
L 725.330429 83.481394 
L 727.726464 82.487928 
L 728.924482 82.21241 
L 729.323821 82.155248 
L 731.320517 82.490405 
L 733.716552 83.488952 
L 734.51523 83.993751 
L 734.91457 84.235735 
L 736.911266 86.10358 
L 737.709944 86.564302 
L 738.907962 87.051698 
L 739.70664 87.259385 
L 742.502014 88.648027 
L 742.901354 88.971561 
L 743.700032 89.256606 
L 744.49871 89.401034 
L 745.297389 89.437236 
L 746.894746 89.815264 
L 748.092763 90.126604 
L 748.891442 90.464237 
L 750.488798 91.816169 
L 751.686816 93.217895 
L 753.284173 94.441404 
L 754.48219 94.851569 
L 755.280869 94.908858 
L 756.478886 95.46434 
L 758.475582 96.871274 
L 759.274261 97.155176 
L 759.6736 97.206621 
L 760.472278 96.906714 
L 761.270957 96.372445 
L 761.670296 96.036209 
L 762.468974 95.686889 
L 763.267653 95.016575 
L 764.066331 94.670844 
L 764.86501 94.557569 
L 766.063027 94.676465 
L 767.261045 94.895076 
L 768.059723 94.853665 
L 768.459062 94.920735 
L 769.65708 94.758015 
L 772.053115 95.054747 
L 774.84849 96.168188 
L 776.046507 96.841836 
L 777.643864 97.328566 
L 781.637256 97.691732 
L 782.835274 97.619518 
L 784.83197 97.9602 
L 786.429326 98.464364 
L 787.228005 98.547629 
L 788.825362 98.221618 
L 789.62404 97.9602 
L 791.221397 97.81882 
L 793.218093 97.908945 
L 794.41611 97.66639 
L 796.412806 96.931484 
L 799.60752 95.082883 
L 804.798929 91.335949 
L 805.996947 90.910478 
L 807.594304 90.662016 
L 809.191661 90.789867 
L 809.990339 90.95373 
L 812.386374 91.943766 
L 814.782409 93.666517 
L 816.379766 94.406853 
L 822.369854 96.910398 
L 823.967211 97.710023 
L 824.765889 98.134542 
L 827.960603 99.329852 
L 829.55796 99.536522 
L 831.953995 99.23471 
L 832.353334 99.101714 
L 832.752673 99.141346 
L 833.950691 99.697717 
L 836.746065 101.154572 
L 837.944083 101.783348 
L 839.142101 102.142418 
L 840.739457 102.956492 
L 842.736153 104.182415 
L 843.534832 105.007064 
L 844.732849 106.212027 
L 845.930867 106.519937 
L 846.729545 106.535942 
L 847.528224 106.465189 
L 848.726241 106.253565 
L 849.924259 106.072934 
L 851.521616 106.153913 
L 853.518312 106.341784 
L 855.115669 106.515174 
L 856.713025 106.119997 
L 858.709721 105.202365 
L 860.706417 104.49242 
L 862.703113 102.617906 
L 864.699809 100.477209 
L 865.099149 100.218458 
L 866.297166 99.758118 
L 869.092541 98.554298 
L 870.689897 97.920377 
L 871.887915 97.557212 
L 872.686593 97.513769 
L 874.683289 98.575067 
L 876.280646 99.610642 
L 877.079325 99.88616 
L 878.277342 99.789874 
L 879.076021 99.715819 
L 880.274038 99.244808 
L 881.871395 99.3356 
L 882.670073 99.582632 
L 885.465448 100.719764 
L 886.663465 101.133486 
L 889.059501 101.989511 
L 891.455536 102.687643 
L 892.254214 103.157605 
L 893.851571 103.554782 
L 897.046285 104.221665 
L 902.237694 104.532243 
L 903.835051 104.327605 
L 904.633729 104.421826 
L 906.630425 104.887977 
L 908.227782 104.87464 
L 911.821835 106.44207 
L 913.419192 107.104889 
L 914.21787 107.274468 
L 917.013245 108.072442 
L 918.610601 108.086161 
L 920.607297 108.384544 
L 921.805315 108.329097 
L 922.603993 108.260122 
L 925.000028 107.733856 
L 925.399368 107.750623 
L 928.194742 108.591087 
L 930.990116 109.153175 
L 932.188134 109.27296 
L 934.983508 109.973632 
L 936.580865 110.683958 
L 937.379544 110.834484 
L 940.973596 111.199745 
L 944.567649 111.896924 
L 945.765667 111.772312 
L 946.564345 111.556623 
L 947.762363 111.103523 
L 949.759059 110.568111 
L 950.557737 110.466364 
L 951.755755 110.072712 
L 952.953772 109.446985 
L 954.15179 108.726941 
L 955.349808 108.141226 
L 958.145182 106.575765 
L 960.541217 105.953276 
L 961.739235 105.270197 
L 962.937252 104.551868 
L 964.534609 103.896798 
L 965.333288 103.560689 
L 965.732627 103.271198 
L 966.531305 102.322571 
L 966.930644 101.626726 
L 968.128662 98.389101 
L 968.528001 97.221991 
L 969.32668 95.632776 
L 972.122054 86.944997 
L 973.320072 83.29111 
L 974.11875 81.442254 
L 974.11875 81.442254 
" clip-path="url(#p8a11c91337)" style="fill: none; stroke: #8c564b; stroke-width: 1.5; stroke-linecap: round"/>
   </g>
   <g id="line2d_14">
    <path d="M 110.348062 228.931 
L 110.348062 26.943 
" clip-path="url(#p8a11c91337)" style="fill: none; stroke: #ff0000; stroke-opacity: 0.4; stroke-width: 0.8; stroke-linecap: round"/>
   </g>
   <g id="line2d_15">
    <path d="M 381.898717 228.931 
L 381.898717 26.943 
" clip-path="url(#p8a11c91337)" style="fill: none; stroke: #ff0000; stroke-opacity: 0.4; stroke-width: 0.8; stroke-linecap: round"/>
   </g>
   <g id="line2d_16">
    <path d="M 564.396732 228.931 
L 564.396732 26.943 
" clip-path="url(#p8a11c91337)" style="fill: none; stroke: #ff0000; stroke-opacity: 0.4; stroke-width: 0.8; stroke-linecap: round"/>
   </g>
   <g id="line2d_17">
    <path d="M 942.570953 228.931 
L 942.570953 26.943 
" clip-path="url(#p8a11c91337)" style="fill: none; stroke: #ff0000; stroke-opacity: 0.4; stroke-width: 0.8; stroke-linecap: round"/>
   </g>
   <g id="line2d_18">
    <path d="M 964.933948 228.931 
L 964.933948 26.943 
" clip-path="url(#p8a11c91337)" style="fill: none; stroke: #ff0000; stroke-opacity: 0.4; stroke-width: 0.8; stroke-linecap: round"/>
   </g>
   <g id="patch_3">
    <path d="M 66.42075 228.931 
L 66.42075 26.943 
" style="fill: none; stroke: #cccccc; stroke-linejoin: miter; stroke-linecap: square"/>
   </g>
   <g id="patch_4">
    <path d="M 974.11875 228.931 
L 974.11875 26.943 
" style="fill: none; stroke: #cccccc; stroke-linejoin: miter; stroke-linecap: square"/>
   </g>
   <g id="patch_5">
    <path d="M 66.42075 228.931 
L 974.11875 228.931 
" style="fill: none; stroke: #cccccc; stroke-linejoin: miter; stroke-linecap: square"/>
   </g>
   <g id="patch_6">
    <path d="M 66.42075 26.943 
L 974.11875 26.943 
" style="fill: none; stroke: #cccccc; stroke-linejoin: miter; stroke-linecap: square"/>
   </g>
   <g id="text_12">
    <!-- Negative WTI -->
    <g style="fill: #ff0000; opacity: 0.7" transform="translate(108.453843 97.70359) rotate(-90) scale(0.09 -0.09)">
     <defs>
      <path id="ArialMT-4e" d="M 488 0 
L 488 4581 
L 1109 4581 
L 3516 984 
L 3516 4581 
L 4097 4581 
L 4097 0 
L 3475 0 
L 1069 3600 
L 1069 0 
L 488 0 
z
" transform="scale(0.015625)"/>
      <path id="ArialMT-67" d="M 319 -275 
L 866 -356 
Q 900 -609 1056 -725 
Q 1266 -881 1628 -881 
Q 2019 -881 2231 -725 
Q 2444 -569 2519 -288 
Q 2563 -116 2559 434 
Q 2191 0 1641 0 
Q 956 0 581 494 
Q 206 988 206 1678 
Q 206 2153 378 2554 
Q 550 2956 876 3175 
Q 1203 3394 1644 3394 
Q 2231 3394 2613 2919 
L 2613 3319 
L 3131 3319 
L 3131 450 
Q 3131 -325 2973 -648 
Q 2816 -972 2473 -1159 
Q 2131 -1347 1631 -1347 
Q 1038 -1347 672 -1080 
Q 306 -813 319 -275 
z
M 784 1719 
Q 784 1066 1043 766 
Q 1303 466 1694 466 
Q 2081 466 2343 764 
Q 2606 1063 2606 1700 
Q 2606 2309 2336 2618 
Q 2066 2928 1684 2928 
Q 1309 2928 1046 2623 
Q 784 2319 784 1719 
z
" transform="scale(0.015625)"/>
      <path id="ArialMT-74" d="M 1650 503 
L 1731 6 
Q 1494 -44 1306 -44 
Q 1000 -44 831 53 
Q 663 150 594 308 
Q 525 466 525 972 
L 525 2881 
L 113 2881 
L 113 3319 
L 525 3319 
L 525 4141 
L 1084 4478 
L 1084 3319 
L 1650 3319 
L 1650 2881 
L 1084 2881 
L 1084 941 
Q 1084 700 1114 631 
Q 1144 563 1211 522 
Q 1278 481 1403 481 
Q 1497 481 1650 503 
z
" transform="scale(0.015625)"/>
      <path id="ArialMT-69" d="M 425 3934 
L 425 4581 
L 988 4581 
L 988 3934 
L 425 3934 
z
M 425 0 
L 425 3319 
L 988 3319 
L 988 0 
L 425 0 
z
" transform="scale(0.015625)"/>
      <path id="ArialMT-76" d="M 1344 0 
L 81 3319 
L 675 3319 
L 1388 1331 
Q 1503 1009 1600 663 
Q 1675 925 1809 1294 
L 2547 3319 
L 3125 3319 
L 1869 0 
L 1344 0 
z
" transform="scale(0.015625)"/>
      <path id="ArialMT-57" d="M 1294 0 
L 78 4581 
L 700 4581 
L 1397 1578 
Q 1509 1106 1591 641 
Q 1766 1375 1797 1488 
L 2669 4581 
L 3400 4581 
L 4056 2263 
Q 4303 1400 4413 641 
Q 4500 1075 4641 1638 
L 5359 4581 
L 5969 4581 
L 4713 0 
L 4128 0 
L 3163 3491 
Q 3041 3928 3019 4028 
Q 2947 3713 2884 3491 
L 1913 0 
L 1294 0 
z
" transform="scale(0.015625)"/>
      <path id="ArialMT-54" d="M 1659 0 
L 1659 4041 
L 150 4041 
L 150 4581 
L 3781 4581 
L 3781 4041 
L 2266 4041 
L 2266 0 
L 1659 0 
z
" transform="scale(0.015625)"/>
      <path id="ArialMT-49" d="M 597 0 
L 597 4581 
L 1203 4581 
L 1203 0 
L 597 0 
z
" transform="scale(0.015625)"/>
     </defs>
     <use xlink:href="#ArialMT-4e"/>
     <use xlink:href="#ArialMT-65" transform="translate(72.216797 0)"/>
     <use xlink:href="#ArialMT-67" transform="translate(127.832031 0)"/>
     <use xlink:href="#ArialMT-61" transform="translate(183.447266 0)"/>
     <use xlink:href="#ArialMT-74" transform="translate(239.0625 0)"/>
     <use xlink:href="#ArialMT-69" transform="translate(266.845703 0)"/>
     <use xlink:href="#ArialMT-76" transform="translate(289.0625 0)"/>
     <use xlink:href="#ArialMT-65" transform="translate(339.0625 0)"/>
     <use xlink:href="#ArialMT-20" transform="translate(394.677734 0)"/>
     <use xlink:href="#ArialMT-57" transform="translate(422.460938 0)"/>
     <use xlink:href="#ArialMT-54" transform="translate(516.845703 0)"/>
     <use xlink:href="#ArialMT-49" transform="translate(577.929688 0)"/>
    </g>
   </g>
   <g id="text_13">
    <!-- Ukraine invasion -->
    <g style="fill: #ff0000; opacity: 0.7" transform="translate(380.109967 109.721402) rotate(-90) scale(0.09 -0.09)">
     <defs>
      <path id="ArialMT-6b" d="M 425 0 
L 425 4581 
L 988 4581 
L 988 1969 
L 2319 3319 
L 3047 3319 
L 1778 2088 
L 3175 0 
L 2481 0 
L 1384 1697 
L 988 1316 
L 988 0 
L 425 0 
z
" transform="scale(0.015625)"/>
      <path id="ArialMT-6e" d="M 422 0 
L 422 3319 
L 928 3319 
L 928 2847 
Q 1294 3394 1984 3394 
Q 2284 3394 2536 3286 
Q 2788 3178 2913 3003 
Q 3038 2828 3088 2588 
Q 3119 2431 3119 2041 
L 3119 0 
L 2556 0 
L 2556 2019 
Q 2556 2363 2490 2533 
Q 2425 2703 2258 2804 
Q 2091 2906 1866 2906 
Q 1506 2906 1245 2678 
Q 984 2450 984 1813 
L 984 0 
L 422 0 
z
" transform="scale(0.015625)"/>
      <path id="ArialMT-73" d="M 197 991 
L 753 1078 
Q 800 744 1014 566 
Q 1228 388 1613 388 
Q 2000 388 2187 545 
Q 2375 703 2375 916 
Q 2375 1106 2209 1216 
Q 2094 1291 1634 1406 
Q 1016 1563 777 1677 
Q 538 1791 414 1992 
Q 291 2194 291 2438 
Q 291 2659 392 2848 
Q 494 3038 669 3163 
Q 800 3259 1026 3326 
Q 1253 3394 1513 3394 
Q 1903 3394 2198 3281 
Q 2494 3169 2634 2976 
Q 2775 2784 2828 2463 
L 2278 2388 
Q 2241 2644 2061 2787 
Q 1881 2931 1553 2931 
Q 1166 2931 1000 2803 
Q 834 2675 834 2503 
Q 834 2394 903 2306 
Q 972 2216 1119 2156 
Q 1203 2125 1616 2013 
Q 2213 1853 2448 1751 
Q 2684 1650 2818 1456 
Q 2953 1263 2953 975 
Q 2953 694 2789 445 
Q 2625 197 2315 61 
Q 2006 -75 1616 -75 
Q 969 -75 630 194 
Q 291 463 197 991 
z
" transform="scale(0.015625)"/>
      <path id="ArialMT-6f" d="M 213 1659 
Q 213 2581 725 3025 
Q 1153 3394 1769 3394 
Q 2453 3394 2887 2945 
Q 3322 2497 3322 1706 
Q 3322 1066 3130 698 
Q 2938 331 2570 128 
Q 2203 -75 1769 -75 
Q 1072 -75 642 372 
Q 213 819 213 1659 
z
M 791 1659 
Q 791 1022 1069 705 
Q 1347 388 1769 388 
Q 2188 388 2466 706 
Q 2744 1025 2744 1678 
Q 2744 2294 2464 2611 
Q 2184 2928 1769 2928 
Q 1347 2928 1069 2612 
Q 791 2297 791 1659 
z
" transform="scale(0.015625)"/>
     </defs>
     <use xlink:href="#ArialMT-55"/>
     <use xlink:href="#ArialMT-6b" transform="translate(72.216797 0)"/>
     <use xlink:href="#ArialMT-72" transform="translate(122.216797 0)"/>
     <use xlink:href="#ArialMT-61" transform="translate(155.517578 0)"/>
     <use xlink:href="#ArialMT-69" transform="translate(211.132812 0)"/>
     <use xlink:href="#ArialMT-6e" transform="translate(233.349609 0)"/>
     <use xlink:href="#ArialMT-65" transform="translate(288.964844 0)"/>
     <use xlink:href="#ArialMT-20" transform="translate(344.580078 0)"/>
     <use xlink:href="#ArialMT-69" transform="translate(372.363281 0)"/>
     <use xlink:href="#ArialMT-6e" transform="translate(394.580078 0)"/>
     <use xlink:href="#ArialMT-76" transform="translate(450.195312 0)"/>
     <use xlink:href="#ArialMT-61" transform="translate(500.195312 0)"/>
     <use xlink:href="#ArialMT-73" transform="translate(555.810547 0)"/>
     <use xlink:href="#ArialMT-69" transform="translate(605.810547 0)"/>
     <use xlink:href="#ArialMT-6f" transform="translate(628.027344 0)"/>
     <use xlink:href="#ArialMT-6e" transform="translate(683.642578 0)"/>
    </g>
   </g>
   <g id="text_14">
    <!-- OPEC+ cut -->
    <g style="fill: #ff0000; opacity: 0.7" transform="translate(562.607982 88.460309) rotate(-90) scale(0.09 -0.09)">
     <defs>
      <path id="ArialMT-4f" d="M 309 2231 
Q 309 3372 921 4017 
Q 1534 4663 2503 4663 
Q 3138 4663 3647 4359 
Q 4156 4056 4423 3514 
Q 4691 2972 4691 2284 
Q 4691 1588 4409 1038 
Q 4128 488 3612 205 
Q 3097 -78 2500 -78 
Q 1853 -78 1343 234 
Q 834 547 571 1087 
Q 309 1628 309 2231 
z
M 934 2222 
Q 934 1394 1379 917 
Q 1825 441 2497 441 
Q 3181 441 3623 922 
Q 4066 1403 4066 2288 
Q 4066 2847 3877 3264 
Q 3688 3681 3323 3911 
Q 2959 4141 2506 4141 
Q 1863 4141 1398 3698 
Q 934 3256 934 2222 
z
" transform="scale(0.015625)"/>
      <path id="ArialMT-50" d="M 494 0 
L 494 4581 
L 2222 4581 
Q 2678 4581 2919 4538 
Q 3256 4481 3484 4323 
Q 3713 4166 3852 3881 
Q 3991 3597 3991 3256 
Q 3991 2672 3619 2267 
Q 3247 1863 2275 1863 
L 1100 1863 
L 1100 0 
L 494 0 
z
M 1100 2403 
L 2284 2403 
Q 2872 2403 3119 2622 
Q 3366 2841 3366 3238 
Q 3366 3525 3220 3729 
Q 3075 3934 2838 4000 
Q 2684 4041 2272 4041 
L 1100 4041 
L 1100 2403 
z
" transform="scale(0.015625)"/>
      <path id="ArialMT-45" d="M 506 0 
L 506 4581 
L 3819 4581 
L 3819 4041 
L 1113 4041 
L 1113 2638 
L 3647 2638 
L 3647 2100 
L 1113 2100 
L 1113 541 
L 3925 541 
L 3925 0 
L 506 0 
z
" transform="scale(0.015625)"/>
      <path id="ArialMT-43" d="M 3763 1606 
L 4369 1453 
Q 4178 706 3683 314 
Q 3188 -78 2472 -78 
Q 1731 -78 1267 223 
Q 803 525 561 1097 
Q 319 1669 319 2325 
Q 319 3041 592 3573 
Q 866 4106 1370 4382 
Q 1875 4659 2481 4659 
Q 3169 4659 3637 4309 
Q 4106 3959 4291 3325 
L 3694 3184 
Q 3534 3684 3231 3912 
Q 2928 4141 2469 4141 
Q 1941 4141 1586 3887 
Q 1231 3634 1087 3207 
Q 944 2781 944 2328 
Q 944 1744 1114 1308 
Q 1284 872 1643 656 
Q 2003 441 2422 441 
Q 2931 441 3284 734 
Q 3638 1028 3763 1606 
z
" transform="scale(0.015625)"/>
      <path id="ArialMT-2b" d="M 1603 741 
L 1603 1997 
L 356 1997 
L 356 2522 
L 1603 2522 
L 1603 3769 
L 2134 3769 
L 2134 2522 
L 3381 2522 
L 3381 1997 
L 2134 1997 
L 2134 741 
L 1603 741 
z
" transform="scale(0.015625)"/>
      <path id="ArialMT-63" d="M 2588 1216 
L 3141 1144 
Q 3050 572 2676 248 
Q 2303 -75 1759 -75 
Q 1078 -75 664 370 
Q 250 816 250 1647 
Q 250 2184 428 2587 
Q 606 2991 970 3192 
Q 1334 3394 1763 3394 
Q 2303 3394 2647 3120 
Q 2991 2847 3088 2344 
L 2541 2259 
Q 2463 2594 2264 2762 
Q 2066 2931 1784 2931 
Q 1359 2931 1093 2626 
Q 828 2322 828 1663 
Q 828 994 1084 691 
Q 1341 388 1753 388 
Q 2084 388 2306 591 
Q 2528 794 2588 1216 
z
" transform="scale(0.015625)"/>
      <path id="ArialMT-75" d="M 2597 0 
L 2597 488 
Q 2209 -75 1544 -75 
Q 1250 -75 995 37 
Q 741 150 617 320 
Q 494 491 444 738 
Q 409 903 409 1263 
L 409 3319 
L 972 3319 
L 972 1478 
Q 972 1038 1006 884 
Q 1059 663 1231 536 
Q 1403 409 1656 409 
Q 1909 409 2131 539 
Q 2353 669 2445 892 
Q 2538 1116 2538 1541 
L 2538 3319 
L 3100 3319 
L 3100 0 
L 2597 0 
z
" transform="scale(0.015625)"/>
     </defs>
     <use xlink:href="#ArialMT-4f"/>
     <use xlink:href="#ArialMT-50" transform="translate(77.783203 0)"/>
     <use xlink:href="#ArialMT-45" transform="translate(144.482422 0)"/>
     <use xlink:href="#ArialMT-43" transform="translate(211.181641 0)"/>
     <use xlink:href="#ArialMT-2b" transform="translate(283.398438 0)"/>
     <use xlink:href="#ArialMT-20" transform="translate(341.796875 0)"/>
     <use xlink:href="#ArialMT-63" transform="translate(369.580078 0)"/>
     <use xlink:href="#ArialMT-75" transform="translate(419.580078 0)"/>
     <use xlink:href="#ArialMT-74" transform="translate(475.195312 0)"/>
    </g>
   </g>
   <g id="text_15">
    <!-- US invade Venezuela -->
    <g style="fill: #ff0000; opacity: 0.7" transform="translate(940.782203 129.251402) rotate(-90) scale(0.09 -0.09)">
     <defs>
      <path id="ArialMT-64" d="M 2575 0 
L 2575 419 
Q 2259 -75 1647 -75 
Q 1250 -75 917 144 
Q 584 363 401 755 
Q 219 1147 219 1656 
Q 219 2153 384 2558 
Q 550 2963 881 3178 
Q 1213 3394 1622 3394 
Q 1922 3394 2156 3267 
Q 2391 3141 2538 2938 
L 2538 4581 
L 3097 4581 
L 3097 0 
L 2575 0 
z
M 797 1656 
Q 797 1019 1065 703 
Q 1334 388 1700 388 
Q 2069 388 2326 689 
Q 2584 991 2584 1609 
Q 2584 2291 2321 2609 
Q 2059 2928 1675 2928 
Q 1300 2928 1048 2622 
Q 797 2316 797 1656 
z
" transform="scale(0.015625)"/>
      <path id="ArialMT-56" d="M 1803 0 
L 28 4581 
L 684 4581 
L 1875 1253 
Q 2019 853 2116 503 
Q 2222 878 2363 1253 
L 3600 4581 
L 4219 4581 
L 2425 0 
L 1803 0 
z
" transform="scale(0.015625)"/>
      <path id="ArialMT-7a" d="M 125 0 
L 125 456 
L 2238 2881 
Q 1878 2863 1603 2863 
L 250 2863 
L 250 3319 
L 2963 3319 
L 2963 2947 
L 1166 841 
L 819 456 
Q 1197 484 1528 484 
L 3063 484 
L 3063 0 
L 125 0 
z
" transform="scale(0.015625)"/>
     </defs>
     <use xlink:href="#ArialMT-55"/>
     <use xlink:href="#ArialMT-53" transform="translate(72.216797 0)"/>
     <use xlink:href="#ArialMT-20" transform="translate(138.916016 0)"/>
     <use xlink:href="#ArialMT-69" transform="translate(166.699219 0)"/>
     <use xlink:href="#ArialMT-6e" transform="translate(188.916016 0)"/>
     <use xlink:href="#ArialMT-76" transform="translate(244.53125 0)"/>
     <use xlink:href="#ArialMT-61" transform="translate(294.53125 0)"/>
     <use xlink:href="#ArialMT-64" transform="translate(350.146484 0)"/>
     <use xlink:href="#ArialMT-65" transform="translate(405.761719 0)"/>
     <use xlink:href="#ArialMT-20" transform="translate(461.376953 0)"/>
     <use xlink:href="#ArialMT-56" transform="translate(489.160156 0)"/>
     <use xlink:href="#ArialMT-65" transform="translate(550.359375 0)"/>
     <use xlink:href="#ArialMT-6e" transform="translate(605.974609 0)"/>
     <use xlink:href="#ArialMT-65" transform="translate(661.589844 0)"/>
     <use xlink:href="#ArialMT-7a" transform="translate(717.205078 0)"/>
     <use xlink:href="#ArialMT-75" transform="translate(767.205078 0)"/>
     <use xlink:href="#ArialMT-65" transform="translate(822.820312 0)"/>
     <use xlink:href="#ArialMT-6c" transform="translate(878.435547 0)"/>
     <use xlink:href="#ArialMT-61" transform="translate(900.652344 0)"/>
    </g>
   </g>
   <g id="text_16">
    <!-- US invade Iran -->
    <g style="fill: #ff0000; opacity: 0.7" transform="translate(963.145198 102.72109) rotate(-90) scale(0.09 -0.09)">
     <use xlink:href="#ArialMT-55"/>
     <use xlink:href="#ArialMT-53" transform="translate(72.216797 0)"/>
     <use xlink:href="#ArialMT-20" transform="translate(138.916016 0)"/>
     <use xlink:href="#ArialMT-69" transform="translate(166.699219 0)"/>
     <use xlink:href="#ArialMT-6e" transform="translate(188.916016 0)"/>
     <use xlink:href="#ArialMT-76" transform="translate(244.53125 0)"/>
     <use xlink:href="#ArialMT-61" transform="translate(294.53125 0)"/>
     <use xlink:href="#ArialMT-64" transform="translate(350.146484 0)"/>
     <use xlink:href="#ArialMT-65" transform="translate(405.761719 0)"/>
     <use xlink:href="#ArialMT-20" transform="translate(461.376953 0)"/>
     <use xlink:href="#ArialMT-49" transform="translate(489.160156 0)"/>
     <use xlink:href="#ArialMT-72" transform="translate(516.943359 0)"/>
     <use xlink:href="#ArialMT-61" transform="translate(550.244141 0)"/>
     <use xlink:href="#ArialMT-6e" transform="translate(605.859375 0)"/>
    </g>
   </g>
   <g id="text_17">
    <!-- WTI Crude Oil Price — 2020 to Present -->
    <g style="fill: #262626" transform="translate(352.21725 20.943) scale(0.192 -0.192)">
     <defs>
      <path id="ArialMT-2014" d="M 0 1431 
L 0 1884 
L 6400 1884 
L 6400 1431 
L 0 1431 
z
" transform="scale(0.015625)"/>
     </defs>
     <use xlink:href="#ArialMT-57"/>
     <use xlink:href="#ArialMT-54" transform="translate(94.384766 0)"/>
     <use xlink:href="#ArialMT-49" transform="translate(155.46875 0)"/>
     <use xlink:href="#ArialMT-20" transform="translate(183.251953 0)"/>
     <use xlink:href="#ArialMT-43" transform="translate(211.035156 0)"/>
     <use xlink:href="#ArialMT-72" transform="translate(283.251953 0)"/>
     <use xlink:href="#ArialMT-75" transform="translate(316.552734 0)"/>
     <use xlink:href="#ArialMT-64" transform="translate(372.167969 0)"/>
     <use xlink:href="#ArialMT-65" transform="translate(427.783203 0)"/>
     <use xlink:href="#ArialMT-20" transform="translate(483.398438 0)"/>
     <use xlink:href="#ArialMT-4f" transform="translate(511.181641 0)"/>
     <use xlink:href="#ArialMT-69" transform="translate(588.964844 0)"/>
     <use xlink:href="#ArialMT-6c" transform="translate(611.181641 0)"/>
     <use xlink:href="#ArialMT-20" transform="translate(633.398438 0)"/>
     <use xlink:href="#ArialMT-50" transform="translate(661.181641 0)"/>
     <use xlink:href="#ArialMT-72" transform="translate(727.880859 0)"/>
     <use xlink:href="#ArialMT-69" transform="translate(761.181641 0)"/>
     <use xlink:href="#ArialMT-63" transform="translate(783.398438 0)"/>
     <use xlink:href="#ArialMT-65" transform="translate(833.398438 0)"/>
     <use xlink:href="#ArialMT-20" transform="translate(889.013672 0)"/>
     <use xlink:href="#ArialMT-2014" transform="translate(916.796875 0)"/>
     <use xlink:href="#ArialMT-20" transform="translate(1016.796875 0)"/>
     <use xlink:href="#ArialMT-32" transform="translate(1044.580078 0)"/>
     <use xlink:href="#ArialMT-30" transform="translate(1100.195312 0)"/>
     <use xlink:href="#ArialMT-32" transform="translate(1155.810547 0)"/>
     <use xlink:href="#ArialMT-30" transform="translate(1211.425781 0)"/>
     <use xlink:href="#ArialMT-20" transform="translate(1267.041016 0)"/>
     <use xlink:href="#ArialMT-74" transform="translate(1294.824219 0)"/>
     <use xlink:href="#ArialMT-6f" transform="translate(1322.607422 0)"/>
     <use xlink:href="#ArialMT-20" transform="translate(1378.222656 0)"/>
     <use xlink:href="#ArialMT-50" transform="translate(1406.005859 0)"/>
     <use xlink:href="#ArialMT-72" transform="translate(1472.705078 0)"/>
     <use xlink:href="#ArialMT-65" transform="translate(1506.005859 0)"/>
     <use xlink:href="#ArialMT-73" transform="translate(1561.621094 0)"/>
     <use xlink:href="#ArialMT-65" transform="translate(1611.621094 0)"/>
     <use xlink:href="#ArialMT-6e" transform="translate(1667.236328 0)"/>
     <use xlink:href="#ArialMT-74" transform="translate(1722.851562 0)"/>
    </g>
   </g>
   <g id="legend_1">
    <g id="patch_7">
     <path d="M 78.74075 91.27925 
L 289.6245 91.27925 
Q 293.1445 91.27925 293.1445 87.75925 
L 293.1445 39.263 
Q 293.1445 35.743 289.6245 35.743 
L 78.74075 35.743 
Q 75.22075 35.743 75.22075 39.263 
L 75.22075 87.75925 
Q 75.22075 91.27925 78.74075 91.27925 
z
" style="fill: #ffffff; opacity: 0.8; stroke: #cccccc; stroke-width: 0.8; stroke-linejoin: miter"/>
    </g>
    <g id="line2d_19">
     <path d="M 82.26075 49.22075 
L 99.86075 49.22075 
L 117.46075 49.22075 
" style="fill: none; stroke: #8c564b; stroke-opacity: 0.4; stroke-width: 0.8; stroke-linecap: round"/>
    </g>
    <g id="text_18">
     <!-- Daily -->
     <g style="fill: #262626" transform="translate(131.54075 55.38075) scale(0.176 -0.176)">
      <defs>
       <path id="ArialMT-79" d="M 397 -1278 
L 334 -750 
Q 519 -800 656 -800 
Q 844 -800 956 -737 
Q 1069 -675 1141 -563 
Q 1194 -478 1313 -144 
Q 1328 -97 1363 -6 
L 103 3319 
L 709 3319 
L 1400 1397 
Q 1534 1031 1641 628 
Q 1738 1016 1872 1384 
L 2581 3319 
L 3144 3319 
L 1881 -56 
Q 1678 -603 1566 -809 
Q 1416 -1088 1222 -1217 
Q 1028 -1347 759 -1347 
Q 597 -1347 397 -1278 
z
" transform="scale(0.015625)"/>
      </defs>
      <use xlink:href="#ArialMT-44"/>
      <use xlink:href="#ArialMT-61" transform="translate(72.216797 0)"/>
      <use xlink:href="#ArialMT-69" transform="translate(127.832031 0)"/>
      <use xlink:href="#ArialMT-6c" transform="translate(150.048828 0)"/>
      <use xlink:href="#ArialMT-79" transform="translate(172.265625 0)"/>
     </g>
    </g>
    <g id="line2d_20">
     <path d="M 82.26075 74.375 
L 99.86075 74.375 
L 117.46075 74.375 
" style="fill: none; stroke: #8c564b; stroke-width: 1.5; stroke-linecap: round"/>
    </g>
    <g id="text_19">
     <!-- 30-day rolling mean -->
     <g style="fill: #262626" transform="translate(131.54075 80.535) scale(0.176 -0.176)">
      <defs>
       <path id="ArialMT-2d" d="M 203 1375 
L 203 1941 
L 1931 1941 
L 1931 1375 
L 203 1375 
z
" transform="scale(0.015625)"/>
       <path id="ArialMT-6d" d="M 422 0 
L 422 3319 
L 925 3319 
L 925 2853 
Q 1081 3097 1340 3245 
Q 1600 3394 1931 3394 
Q 2300 3394 2536 3241 
Q 2772 3088 2869 2813 
Q 3263 3394 3894 3394 
Q 4388 3394 4653 3120 
Q 4919 2847 4919 2278 
L 4919 0 
L 4359 0 
L 4359 2091 
Q 4359 2428 4304 2576 
Q 4250 2725 4106 2815 
Q 3963 2906 3769 2906 
Q 3419 2906 3187 2673 
Q 2956 2441 2956 1928 
L 2956 0 
L 2394 0 
L 2394 2156 
Q 2394 2531 2256 2718 
Q 2119 2906 1806 2906 
Q 1569 2906 1367 2781 
Q 1166 2656 1075 2415 
Q 984 2175 984 1722 
L 984 0 
L 422 0 
z
" transform="scale(0.015625)"/>
      </defs>
      <use xlink:href="#ArialMT-33"/>
      <use xlink:href="#ArialMT-30" transform="translate(55.615234 0)"/>
      <use xlink:href="#ArialMT-2d" transform="translate(111.230469 0)"/>
      <use xlink:href="#ArialMT-64" transform="translate(144.53125 0)"/>
      <use xlink:href="#ArialMT-61" transform="translate(200.146484 0)"/>
      <use xlink:href="#ArialMT-79" transform="translate(255.761719 0)"/>
      <use xlink:href="#ArialMT-20" transform="translate(305.761719 0)"/>
      <use xlink:href="#ArialMT-72" transform="translate(333.544922 0)"/>
      <use xlink:href="#ArialMT-6f" transform="translate(366.845703 0)"/>
      <use xlink:href="#ArialMT-6c" transform="translate(422.460938 0)"/>
      <use xlink:href="#ArialMT-6c" transform="translate(444.677734 0)"/>
      <use xlink:href="#ArialMT-69" transform="translate(466.894531 0)"/>
      <use xlink:href="#ArialMT-6e" transform="translate(489.111328 0)"/>
      <use xlink:href="#ArialMT-67" transform="translate(544.726562 0)"/>
      <use xlink:href="#ArialMT-20" transform="translate(600.341797 0)"/>
      <use xlink:href="#ArialMT-6d" transform="translate(628.125 0)"/>
      <use xlink:href="#ArialMT-65" transform="translate(711.425781 0)"/>
      <use xlink:href="#ArialMT-61" transform="translate(767.041016 0)"/>
      <use xlink:href="#ArialMT-6e" transform="translate(822.65625 0)"/>
     </g>
    </g>
   </g>
  </g>
 </g>
 <defs>
  <clipPath id="p8a11c91337">
   <rect x="66.42075" y="26.943" width="907.698" height="201.988"/>
  </clipPath>
 </defs>
</svg>
