<?xml version="1.0" encoding="utf-8" standalone="no"?>
<!DOCTYPE svg PUBLIC "-//W3C//DTD SVG 1.1//EN"
  "http://www.w3.org/Graphics/SVG/1.1/DTD/svg11.dtd">
<svg xmlns:xlink="http://www.w3.org/1999/xlink" width="981.73pt" height="476.76075pt" viewBox="0 0 981.73 476.76075" xmlns="http://www.w3.org/2000/svg" version="1.1">
 <metadata>
  <rdf:RDF xmlns:dc="http://purl.org/dc/elements/1.1/" xmlns:cc="http://creativecommons.org/ns#" xmlns:rdf="http://www.w3.org/1999/02/22-rdf-syntax-ns#">
   <cc:Work>
    <dc:type rdf:resource="http://purl.org/dc/dcmitype/StillImage"/>
    <dc:date>2026-03-31T22:11:13.483675</dc:date>
    <dc:format>image/svg+xml</dc:format>
    <dc:creator>
     <cc:Agent>
      <dc:title>Matplotlib v3.10.8, https://matplotlib.org/</dc:title>
     </cc:Agent>
    </dc:creator>
   </cc:Work>
  </rdf:RDF>
 </metadata>
 <defs>
  <style type="text/css">*{stroke-linejoin: round; stroke-linecap: butt}</style>
 </defs>
 <g id="figure_1">
  <g id="patch_1">
   <path d="M 0 476.76075 
L 981.73 476.76075 
L 981.73 0 
L 0 0 
z
" style="fill: #ffffff"/>
  </g>
  <g id="axes_1">
   <g id="patch_2">
    <path d="M 67.372 221.473683 
L 974.53 221.473683 
L 974.53 27.177 
L 67.372 27.177 
z
" style="fill: #ffffff"/>
   </g>
   <g id="matplotlib.axis_1">
    <g id="xtick_1">
     <g id="line2d_1">
      <path d="M 176.595037 221.473683 
L 176.595037 27.177 
" clip-path="url(#p006ac7b88a)" style="fill: none; stroke: #cccccc; stroke-width: 0.8; stroke-linecap: round"/>
     </g>
    </g>
    <g id="xtick_2">
     <g id="line2d_2">
      <path d="M 358.633431 221.473683 
L 358.633431 27.177 
" clip-path="url(#p006ac7b88a)" style="fill: none; stroke: #cccccc; stroke-width: 0.8; stroke-linecap: round"/>
     </g>
    </g>
    <g id="xtick_3">
     <g id="line2d_3">
      <path d="M 540.671826 221.473683 
L 540.671826 27.177 
" clip-path="url(#p006ac7b88a)" style="fill: none; stroke: #cccccc; stroke-width: 0.8; stroke-linecap: round"/>
     </g>
    </g>
    <g id="xtick_4">
     <g id="line2d_4">
      <path d="M 722.710221 221.473683 
L 722.710221 27.177 
" clip-path="url(#p006ac7b88a)" style="fill: none; stroke: #cccccc; stroke-width: 0.8; stroke-linecap: round"/>
     </g>
    </g>
    <g id="xtick_5">
     <g id="line2d_5">
      <path d="M 904.748615 221.473683 
L 904.748615 27.177 
" clip-path="url(#p006ac7b88a)" style="fill: none; stroke: #cccccc; stroke-width: 0.8; stroke-linecap: round"/>
     </g>
    </g>
    <g id="xtick_6"/>
    <g id="xtick_7"/>
    <g id="xtick_8"/>
    <g id="xtick_9"/>
    <g id="xtick_10"/>
    <g id="xtick_11"/>
    <g id="xtick_12"/>
    <g id="xtick_13"/>
    <g id="xtick_14"/>
    <g id="xtick_15"/>
    <g id="xtick_16"/>
    <g id="xtick_17"/>
    <g id="xtick_18"/>
    <g id="xtick_19"/>
    <g id="xtick_20"/>
    <g id="xtick_21"/>
    <g id="xtick_22"/>
    <g id="xtick_23"/>
    <g id="xtick_24"/>
    <g id="xtick_25"/>
   </g>
   <g id="matplotlib.axis_2">
    <g id="ytick_1">
     <g id="line2d_6">
      <path d="M 67.372 219.908112 
L 974.53 219.908112 
" clip-path="url(#p006ac7b88a)" style="fill: none; stroke: #cccccc; stroke-width: 0.8; stroke-linecap: round"/>
     </g>
     <g id="text_1">
      <!-- 2.8 -->
      <g style="fill: #262626" transform="translate(34.608 226.206987) scale(0.176 -0.176)">
       <defs>
        <path id="ArialMT-32" d="M 3222 541 
L 3222 0 
L 194 0 
Q 188 203 259 391 
Q 375 700 629 1000 
Q 884 1300 1366 1694 
Q 2113 2306 2375 2664 
Q 2638 3022 2638 3341 
Q 2638 3675 2398 3904 
Q 2159 4134 1775 4134 
Q 1369 4134 1125 3890 
Q 881 3647 878 3216 
L 300 3275 
Q 359 3922 746 4261 
Q 1134 4600 1788 4600 
Q 2447 4600 2831 4234 
Q 3216 3869 3216 3328 
Q 3216 3053 3103 2787 
Q 2991 2522 2730 2228 
Q 2469 1934 1863 1422 
Q 1356 997 1212 845 
Q 1069 694 975 541 
L 3222 541 
z
" transform="scale(0.015625)"/>
        <path id="ArialMT-2e" d="M 581 0 
L 581 641 
L 1222 641 
L 1222 0 
L 581 0 
z
" transform="scale(0.015625)"/>
        <path id="ArialMT-38" d="M 1131 2484 
Q 781 2613 612 2850 
Q 444 3088 444 3419 
Q 444 3919 803 4259 
Q 1163 4600 1759 4600 
Q 2359 4600 2725 4251 
Q 3091 3903 3091 3403 
Q 3091 3084 2923 2848 
Q 2756 2613 2416 2484 
Q 2838 2347 3058 2040 
Q 3278 1734 3278 1309 
Q 3278 722 2862 322 
Q 2447 -78 1769 -78 
Q 1091 -78 675 323 
Q 259 725 259 1325 
Q 259 1772 486 2073 
Q 713 2375 1131 2484 
z
M 1019 3438 
Q 1019 3113 1228 2906 
Q 1438 2700 1772 2700 
Q 2097 2700 2305 2904 
Q 2513 3109 2513 3406 
Q 2513 3716 2298 3927 
Q 2084 4138 1766 4138 
Q 1444 4138 1231 3931 
Q 1019 3725 1019 3438 
z
M 838 1322 
Q 838 1081 952 856 
Q 1066 631 1291 507 
Q 1516 384 1775 384 
Q 2178 384 2440 643 
Q 2703 903 2703 1303 
Q 2703 1709 2433 1975 
Q 2163 2241 1756 2241 
Q 1359 2241 1098 1978 
Q 838 1716 838 1322 
z
" transform="scale(0.015625)"/>
       </defs>
       <use xlink:href="#ArialMT-32"/>
       <use xlink:href="#ArialMT-2e" transform="translate(55.615234 0)"/>
       <use xlink:href="#ArialMT-38" transform="translate(83.398438 0)"/>
      </g>
     </g>
    </g>
    <g id="ytick_2">
     <g id="line2d_7">
      <path d="M 67.372 174.536131 
L 974.53 174.536131 
" clip-path="url(#p006ac7b88a)" style="fill: none; stroke: #cccccc; stroke-width: 0.8; stroke-linecap: round"/>
     </g>
     <g id="text_2">
      <!-- 3.0 -->
      <g style="fill: #262626" transform="translate(34.608 180.835006) scale(0.176 -0.176)">
       <defs>
        <path id="ArialMT-33" d="M 269 1209 
L 831 1284 
Q 928 806 1161 595 
Q 1394 384 1728 384 
Q 2125 384 2398 659 
Q 2672 934 2672 1341 
Q 2672 1728 2419 1979 
Q 2166 2231 1775 2231 
Q 1616 2231 1378 2169 
L 1441 2663 
Q 1497 2656 1531 2656 
Q 1891 2656 2178 2843 
Q 2466 3031 2466 3422 
Q 2466 3731 2256 3934 
Q 2047 4138 1716 4138 
Q 1388 4138 1169 3931 
Q 950 3725 888 3313 
L 325 3413 
Q 428 3978 793 4289 
Q 1159 4600 1703 4600 
Q 2078 4600 2393 4439 
Q 2709 4278 2876 4000 
Q 3044 3722 3044 3409 
Q 3044 3113 2884 2869 
Q 2725 2625 2413 2481 
Q 2819 2388 3044 2092 
Q 3269 1797 3269 1353 
Q 3269 753 2831 336 
Q 2394 -81 1725 -81 
Q 1122 -81 723 278 
Q 325 638 269 1209 
z
" transform="scale(0.015625)"/>
        <path id="ArialMT-30" d="M 266 2259 
Q 266 3072 433 3567 
Q 600 4063 929 4331 
Q 1259 4600 1759 4600 
Q 2128 4600 2406 4451 
Q 2684 4303 2865 4023 
Q 3047 3744 3150 3342 
Q 3253 2941 3253 2259 
Q 3253 1453 3087 958 
Q 2922 463 2592 192 
Q 2263 -78 1759 -78 
Q 1097 -78 719 397 
Q 266 969 266 2259 
z
M 844 2259 
Q 844 1131 1108 757 
Q 1372 384 1759 384 
Q 2147 384 2411 759 
Q 2675 1134 2675 2259 
Q 2675 3391 2411 3762 
Q 2147 4134 1753 4134 
Q 1366 4134 1134 3806 
Q 844 3388 844 2259 
z
" transform="scale(0.015625)"/>
       </defs>
       <use xlink:href="#ArialMT-33"/>
       <use xlink:href="#ArialMT-2e" transform="translate(55.615234 0)"/>
       <use xlink:href="#ArialMT-30" transform="translate(83.398438 0)"/>
      </g>
     </g>
    </g>
    <g id="ytick_3">
     <g id="line2d_8">
      <path d="M 67.372 129.16415 
L 974.53 129.16415 
" clip-path="url(#p006ac7b88a)" style="fill: none; stroke: #cccccc; stroke-width: 0.8; stroke-linecap: round"/>
     </g>
     <g id="text_3">
      <!-- 3.2 -->
      <g style="fill: #262626" transform="translate(34.608 135.463025) scale(0.176 -0.176)">
       <use xlink:href="#ArialMT-33"/>
       <use xlink:href="#ArialMT-2e" transform="translate(55.615234 0)"/>
       <use xlink:href="#ArialMT-32" transform="translate(83.398438 0)"/>
      </g>
     </g>
    </g>
    <g id="ytick_4">
     <g id="line2d_9">
      <path d="M 67.372 83.792169 
L 974.53 83.792169 
" clip-path="url(#p006ac7b88a)" style="fill: none; stroke: #cccccc; stroke-width: 0.8; stroke-linecap: round"/>
     </g>
     <g id="text_4">
      <!-- 3.4 -->
      <g style="fill: #262626" transform="translate(34.608 90.091044) scale(0.176 -0.176)">
       <defs>
        <path id="ArialMT-34" d="M 2069 0 
L 2069 1097 
L 81 1097 
L 81 1613 
L 2172 4581 
L 2631 4581 
L 2631 1613 
L 3250 1613 
L 3250 1097 
L 2631 1097 
L 2631 0 
L 2069 0 
z
M 2069 1613 
L 2069 3678 
L 634 1613 
L 2069 1613 
z
" transform="scale(0.015625)"/>
       </defs>
       <use xlink:href="#ArialMT-33"/>
       <use xlink:href="#ArialMT-2e" transform="translate(55.615234 0)"/>
       <use xlink:href="#ArialMT-34" transform="translate(83.398438 0)"/>
      </g>
     </g>
    </g>
    <g id="ytick_5">
     <g id="line2d_10">
      <path d="M 67.372 38.420188 
L 974.53 38.420188 
" clip-path="url(#p006ac7b88a)" style="fill: none; stroke: #cccccc; stroke-width: 0.8; stroke-linecap: round"/>
     </g>
     <g id="text_5">
      <!-- 3.6 -->
      <g style="fill: #262626" transform="translate(34.608 44.719063) scale(0.176 -0.176)">
       <defs>
        <path id="ArialMT-36" d="M 3184 3459 
L 2625 3416 
Q 2550 3747 2413 3897 
Q 2184 4138 1850 4138 
Q 1581 4138 1378 3988 
Q 1113 3794 959 3422 
Q 806 3050 800 2363 
Q 1003 2672 1297 2822 
Q 1591 2972 1913 2972 
Q 2475 2972 2870 2558 
Q 3266 2144 3266 1488 
Q 3266 1056 3080 686 
Q 2894 316 2569 119 
Q 2244 -78 1831 -78 
Q 1128 -78 684 439 
Q 241 956 241 2144 
Q 241 3472 731 4075 
Q 1159 4600 1884 4600 
Q 2425 4600 2770 4297 
Q 3116 3994 3184 3459 
z
M 888 1484 
Q 888 1194 1011 928 
Q 1134 663 1356 523 
Q 1578 384 1822 384 
Q 2178 384 2434 671 
Q 2691 959 2691 1453 
Q 2691 1928 2437 2201 
Q 2184 2475 1800 2475 
Q 1419 2475 1153 2201 
Q 888 1928 888 1484 
z
" transform="scale(0.015625)"/>
       </defs>
       <use xlink:href="#ArialMT-33"/>
       <use xlink:href="#ArialMT-2e" transform="translate(55.615234 0)"/>
       <use xlink:href="#ArialMT-36" transform="translate(83.398438 0)"/>
      </g>
     </g>
    </g>
    <g id="text_6">
     <!-- MMcf (12-mo rolling) -->
     <g style="fill: #262626" transform="translate(26.567 212.331842) rotate(-90) scale(0.192 -0.192)">
      <defs>
       <path id="ArialMT-4d" d="M 475 0 
L 475 4581 
L 1388 4581 
L 2472 1338 
Q 2622 884 2691 659 
Q 2769 909 2934 1394 
L 4031 4581 
L 4847 4581 
L 4847 0 
L 4263 0 
L 4263 3834 
L 2931 0 
L 2384 0 
L 1059 3900 
L 1059 0 
L 475 0 
z
" transform="scale(0.015625)"/>
       <path id="ArialMT-63" d="M 2588 1216 
L 3141 1144 
Q 3050 572 2676 248 
Q 2303 -75 1759 -75 
Q 1078 -75 664 370 
Q 250 816 250 1647 
Q 250 2184 428 2587 
Q 606 2991 970 3192 
Q 1334 3394 1763 3394 
Q 2303 3394 2647 3120 
Q 2991 2847 3088 2344 
L 2541 2259 
Q 2463 2594 2264 2762 
Q 2066 2931 1784 2931 
Q 1359 2931 1093 2626 
Q 828 2322 828 1663 
Q 828 994 1084 691 
Q 1341 388 1753 388 
Q 2084 388 2306 591 
Q 2528 794 2588 1216 
z
" transform="scale(0.015625)"/>
       <path id="ArialMT-66" d="M 556 0 
L 556 2881 
L 59 2881 
L 59 3319 
L 556 3319 
L 556 3672 
Q 556 4006 616 4169 
Q 697 4388 901 4523 
Q 1106 4659 1475 4659 
Q 1713 4659 2000 4603 
L 1916 4113 
Q 1741 4144 1584 4144 
Q 1328 4144 1222 4034 
Q 1116 3925 1116 3625 
L 1116 3319 
L 1763 3319 
L 1763 2881 
L 1116 2881 
L 1116 0 
L 556 0 
z
" transform="scale(0.015625)"/>
       <path id="ArialMT-20" transform="scale(0.015625)"/>
       <path id="ArialMT-28" d="M 1497 -1347 
Q 1031 -759 709 28 
Q 388 816 388 1659 
Q 388 2403 628 3084 
Q 909 3875 1497 4659 
L 1900 4659 
Q 1522 4009 1400 3731 
Q 1209 3300 1100 2831 
Q 966 2247 966 1656 
Q 966 153 1900 -1347 
L 1497 -1347 
z
" transform="scale(0.015625)"/>
       <path id="ArialMT-31" d="M 2384 0 
L 1822 0 
L 1822 3584 
Q 1619 3391 1289 3197 
Q 959 3003 697 2906 
L 697 3450 
Q 1169 3672 1522 3987 
Q 1875 4303 2022 4600 
L 2384 4600 
L 2384 0 
z
" transform="scale(0.015625)"/>
       <path id="ArialMT-2d" d="M 203 1375 
L 203 1941 
L 1931 1941 
L 1931 1375 
L 203 1375 
z
" transform="scale(0.015625)"/>
       <path id="ArialMT-6d" d="M 422 0 
L 422 3319 
L 925 3319 
L 925 2853 
Q 1081 3097 1340 3245 
Q 1600 3394 1931 3394 
Q 2300 3394 2536 3241 
Q 2772 3088 2869 2813 
Q 3263 3394 3894 3394 
Q 4388 3394 4653 3120 
Q 4919 2847 4919 2278 
L 4919 0 
L 4359 0 
L 4359 2091 
Q 4359 2428 4304 2576 
Q 4250 2725 4106 2815 
Q 3963 2906 3769 2906 
Q 3419 2906 3187 2673 
Q 2956 2441 2956 1928 
L 2956 0 
L 2394 0 
L 2394 2156 
Q 2394 2531 2256 2718 
Q 2119 2906 1806 2906 
Q 1569 2906 1367 2781 
Q 1166 2656 1075 2415 
Q 984 2175 984 1722 
L 984 0 
L 422 0 
z
" transform="scale(0.015625)"/>
       <path id="ArialMT-6f" d="M 213 1659 
Q 213 2581 725 3025 
Q 1153 3394 1769 3394 
Q 2453 3394 2887 2945 
Q 3322 2497 3322 1706 
Q 3322 1066 3130 698 
Q 2938 331 2570 128 
Q 2203 -75 1769 -75 
Q 1072 -75 642 372 
Q 213 819 213 1659 
z
M 791 1659 
Q 791 1022 1069 705 
Q 1347 388 1769 388 
Q 2188 388 2466 706 
Q 2744 1025 2744 1678 
Q 2744 2294 2464 2611 
Q 2184 2928 1769 2928 
Q 1347 2928 1069 2612 
Q 791 2297 791 1659 
z
" transform="scale(0.015625)"/>
       <path id="ArialMT-72" d="M 416 0 
L 416 3319 
L 922 3319 
L 922 2816 
Q 1116 3169 1280 3281 
Q 1444 3394 1641 3394 
Q 1925 3394 2219 3213 
L 2025 2691 
Q 1819 2813 1613 2813 
Q 1428 2813 1281 2702 
Q 1134 2591 1072 2394 
Q 978 2094 978 1738 
L 978 0 
L 416 0 
z
" transform="scale(0.015625)"/>
       <path id="ArialMT-6c" d="M 409 0 
L 409 4581 
L 972 4581 
L 972 0 
L 409 0 
z
" transform="scale(0.015625)"/>
       <path id="ArialMT-69" d="M 425 3934 
L 425 4581 
L 988 4581 
L 988 3934 
L 425 3934 
z
M 425 0 
L 425 3319 
L 988 3319 
L 988 0 
L 425 0 
z
" transform="scale(0.015625)"/>
       <path id="ArialMT-6e" d="M 422 0 
L 422 3319 
L 928 3319 
L 928 2847 
Q 1294 3394 1984 3394 
Q 2284 3394 2536 3286 
Q 2788 3178 2913 3003 
Q 3038 2828 3088 2588 
Q 3119 2431 3119 2041 
L 3119 0 
L 2556 0 
L 2556 2019 
Q 2556 2363 2490 2533 
Q 2425 2703 2258 2804 
Q 2091 2906 1866 2906 
Q 1506 2906 1245 2678 
Q 984 2450 984 1813 
L 984 0 
L 422 0 
z
" transform="scale(0.015625)"/>
       <path id="ArialMT-67" d="M 319 -275 
L 866 -356 
Q 900 -609 1056 -725 
Q 1266 -881 1628 -881 
Q 2019 -881 2231 -725 
Q 2444 -569 2519 -288 
Q 2563 -116 2559 434 
Q 2191 0 1641 0 
Q 956 0 581 494 
Q 206 988 206 1678 
Q 206 2153 378 2554 
Q 550 2956 876 3175 
Q 1203 3394 1644 3394 
Q 2231 3394 2613 2919 
L 2613 3319 
L 3131 3319 
L 3131 450 
Q 3131 -325 2973 -648 
Q 2816 -972 2473 -1159 
Q 2131 -1347 1631 -1347 
Q 1038 -1347 672 -1080 
Q 306 -813 319 -275 
z
M 784 1719 
Q 784 1066 1043 766 
Q 1303 466 1694 466 
Q 2081 466 2343 764 
Q 2606 1063 2606 1700 
Q 2606 2309 2336 2618 
Q 2066 2928 1684 2928 
Q 1309 2928 1046 2623 
Q 784 2319 784 1719 
z
" transform="scale(0.015625)"/>
       <path id="ArialMT-29" d="M 791 -1347 
L 388 -1347 
Q 1322 153 1322 1656 
Q 1322 2244 1188 2822 
Q 1081 3291 891 3722 
Q 769 4003 388 4659 
L 791 4659 
Q 1378 3875 1659 3084 
Q 1900 2403 1900 1659 
Q 1900 816 1576 28 
Q 1253 -759 791 -1347 
z
" transform="scale(0.015625)"/>
      </defs>
      <use xlink:href="#ArialMT-4d"/>
      <use xlink:href="#ArialMT-4d" transform="translate(83.300781 0)"/>
      <use xlink:href="#ArialMT-63" transform="translate(166.601562 0)"/>
      <use xlink:href="#ArialMT-66" transform="translate(216.601562 0)"/>
      <use xlink:href="#ArialMT-20" transform="translate(244.384766 0)"/>
      <use xlink:href="#ArialMT-28" transform="translate(272.167969 0)"/>
      <use xlink:href="#ArialMT-31" transform="translate(305.46875 0)"/>
      <use xlink:href="#ArialMT-32" transform="translate(361.083984 0)"/>
      <use xlink:href="#ArialMT-2d" transform="translate(416.699219 0)"/>
      <use xlink:href="#ArialMT-6d" transform="translate(450 0)"/>
      <use xlink:href="#ArialMT-6f" transform="translate(533.300781 0)"/>
      <use xlink:href="#ArialMT-20" transform="translate(588.916016 0)"/>
      <use xlink:href="#ArialMT-72" transform="translate(616.699219 0)"/>
      <use xlink:href="#ArialMT-6f" transform="translate(650 0)"/>
      <use xlink:href="#ArialMT-6c" transform="translate(705.615234 0)"/>
      <use xlink:href="#ArialMT-6c" transform="translate(727.832031 0)"/>
      <use xlink:href="#ArialMT-69" transform="translate(750.048828 0)"/>
      <use xlink:href="#ArialMT-6e" transform="translate(772.265625 0)"/>
      <use xlink:href="#ArialMT-67" transform="translate(827.880859 0)"/>
      <use xlink:href="#ArialMT-29" transform="translate(883.496094 0)"/>
     </g>
    </g>
    <g id="text_7">
     <!-- 1e6 -->
     <g style="fill: #262626" transform="translate(67.372 24.177) scale(0.176 -0.176)">
      <defs>
       <path id="ArialMT-65" d="M 2694 1069 
L 3275 997 
Q 3138 488 2766 206 
Q 2394 -75 1816 -75 
Q 1088 -75 661 373 
Q 234 822 234 1631 
Q 234 2469 665 2931 
Q 1097 3394 1784 3394 
Q 2450 3394 2872 2941 
Q 3294 2488 3294 1666 
Q 3294 1616 3291 1516 
L 816 1516 
Q 847 969 1125 678 
Q 1403 388 1819 388 
Q 2128 388 2347 550 
Q 2566 713 2694 1069 
z
M 847 1978 
L 2700 1978 
Q 2663 2397 2488 2606 
Q 2219 2931 1791 2931 
Q 1403 2931 1139 2672 
Q 875 2413 847 1978 
z
" transform="scale(0.015625)"/>
      </defs>
      <use xlink:href="#ArialMT-31"/>
      <use xlink:href="#ArialMT-65" transform="translate(55.615234 0)"/>
      <use xlink:href="#ArialMT-36" transform="translate(111.230469 0)"/>
     </g>
    </g>
   </g>
   <g id="line2d_11">
    <path d="M 100.745706 169.384142 
L 103.779679 184.137523 
L 106.813652 189.240963 
L 109.847625 189.885926 
L 112.881599 187.19877 
L 115.915572 180.863934 
L 118.949545 178.436079 
L 121.983518 176.978278 
L 125.017492 176.517752 
L 128.051465 176.945383 
L 131.085438 173.784771 
L 134.119411 158.463334 
L 137.153385 141.829965 
L 143.221331 105.014006 
L 146.255304 101.53284 
L 149.289278 102.92508 
L 152.323251 105.875393 
L 155.357224 108.563456 
L 164.459144 112.014902 
L 167.493117 117.133089 
L 170.52709 126.622865 
L 173.561064 133.81682 
L 176.595037 135.682969 
L 179.62901 136.785055 
L 182.662983 143.840852 
L 185.696957 145.638943 
L 188.73093 147.018932 
L 191.764903 146.001692 
L 194.798876 146.731047 
L 197.832849 147.222652 
L 200.866823 148.136898 
L 203.900796 148.49647 
L 206.934769 148.479229 
L 209.968742 145.277555 
L 213.002716 154.35059 
L 216.036689 169.247119 
L 219.070662 164.722852 
L 222.104635 167.101932 
L 225.138609 166.928157 
L 228.172582 167.683147 
L 231.206555 168.595124 
L 234.240528 169.67475 
L 237.274502 170.883233 
L 240.308475 173.847157 
L 243.342448 177.522742 
L 246.376421 174.781366 
L 249.410395 190.600761 
L 252.444368 195.568086 
L 255.478341 201.04834 
L 258.512314 204.897926 
L 261.546288 207.945108 
L 264.580261 208.215299 
L 267.614234 208.835987 
L 270.648207 208.270426 
L 273.682181 206.843704 
L 276.716154 201.049475 
L 279.750127 197.402475 
L 282.7841 212.642016 
L 285.818074 204.765894 
L 288.852047 184.986886 
L 291.88602 184.669282 
L 294.919993 176.919294 
L 297.953967 175.096929 
L 307.055886 174.71535 
L 310.08986 176.008452 
L 313.123833 182.797688 
L 316.157806 182.562434 
L 319.191779 171.608731 
L 322.225753 161.300897 
L 325.259726 165.479657 
L 328.293699 159.537515 
L 331.327672 160.598766 
L 334.361645 158.013697 
L 337.395619 158.24827 
L 340.429592 157.036612 
L 343.463565 157.125768 
L 346.497538 156.709933 
L 349.531512 150.406404 
L 352.565485 146.242164 
L 355.599458 139.933417 
L 358.633431 130.690463 
L 361.667405 137.997848 
L 364.701378 143.037314 
L 367.735351 144.410043 
L 370.769324 147.475147 
L 373.803298 147.527779 
L 376.837271 147.449285 
L 382.905217 146.452236 
L 385.939191 143.468121 
L 388.973164 148.971742 
L 392.007137 147.632361 
L 395.04111 151.893698 
L 398.075084 148.663893 
L 401.109057 153.443831 
L 404.14303 161.099219 
L 407.177003 162.25144 
L 410.210977 163.111466 
L 413.24495 164.906382 
L 416.278923 165.395945 
L 419.312896 165.046808 
L 422.34687 168.062684 
L 425.380843 160.042505 
L 428.414816 151.261666 
L 431.448789 144.707229 
L 434.482763 146.77778 
L 437.516736 141.388723 
L 440.550709 137.615816 
L 443.584682 136.459738 
L 446.618656 135.51963 
L 449.652629 133.259198 
L 452.686602 130.698177 
L 455.720575 128.726764 
L 458.754548 124.006944 
L 461.788522 124.062978 
L 464.822495 139.300251 
L 467.856468 157.934069 
L 470.890441 168.071758 
L 473.924415 190.615734 
L 476.958388 195.848485 
L 479.992361 199.730738 
L 483.026334 200.362543 
L 486.060308 201.644528 
L 489.094281 202.662449 
L 492.128254 202.657231 
L 495.162227 201.154057 
L 498.196201 196.247758 
L 501.230174 198.373435 
L 504.264147 190.859155 
L 507.29812 181.338071 
L 510.332094 151.416838 
L 513.366067 142.261907 
L 516.40004 137.789817 
L 519.434013 136.660962 
L 522.467987 134.265095 
L 525.50196 133.461103 
L 528.535933 133.400078 
L 531.569906 134.783243 
L 534.60388 126.376722 
L 537.637853 107.544401 
L 540.671826 86.500876 
L 543.705799 72.641778 
L 546.739773 66.408348 
L 549.773746 66.012932 
L 552.807719 64.220058 
L 555.841692 62.994107 
L 558.875666 62.41516 
L 561.909639 62.391794 
L 564.943612 60.806724 
L 567.977585 61.784943 
L 571.011559 58.064895 
L 574.045532 68.749316 
L 577.079505 77.622487 
L 580.113478 71.443731 
L 583.147452 79.420579 
L 586.181425 83.693939 
L 589.215398 87.378597 
L 592.249371 88.740891 
L 595.283344 89.621334 
L 598.317318 90.039437 
L 601.351291 92.486575 
L 604.385264 94.164885 
L 607.419237 111.927788 
L 610.453211 128.771002 
L 613.487184 135.47199 
L 616.521157 159.01846 
L 619.55513 178.829001 
L 622.589104 178.634355 
L 625.623077 176.187444 
L 628.65705 175.530912 
L 631.691023 175.331048 
L 634.724997 174.161131 
L 637.75897 173.275244 
L 640.792943 174.074698 
L 643.826916 174.671566 
L 646.86089 149.675915 
L 649.894863 155.057486 
L 652.928836 167.333329 
L 655.962809 150.72242 
L 658.996783 155.506442 
L 662.030756 153.871916 
L 665.064729 153.940201 
L 668.098702 154.157533 
L 671.132676 154.885299 
L 674.166649 154.250772 
L 677.200622 152.153225 
L 680.234595 142.663222 
L 683.268569 137.191588 
L 686.302542 120.268066 
L 689.336515 105.57503 
L 692.370488 95.076861 
L 695.404462 74.688962 
L 698.438435 78.036053 
L 704.506381 76.156518 
L 707.540355 74.852528 
L 710.574328 74.450078 
L 713.608301 66.127269 
L 716.642274 51.648162 
L 719.676247 57.941029 
L 722.710221 57.860494 
L 725.744194 46.961464 
L 728.778167 45.534969 
L 731.81214 58.07896 
L 734.846114 53.283369 
L 737.880087 52.77248 
L 740.91406 51.779741 
L 743.948033 52.276111 
L 746.982007 53.057416 
L 750.01598 57.873425 
L 753.049953 57.291076 
L 756.083926 57.80151 
L 759.1179 72.488194 
L 762.151873 78.303747 
L 765.185846 97.78761 
L 768.219819 99.83434 
L 771.253793 104.969541 
L 777.321739 110.961592 
L 780.355712 113.22089 
L 783.389686 113.187768 
L 786.423659 114.977466 
L 789.457632 136.74059 
L 792.491605 137.634191 
L 795.525579 136.075437 
L 798.559552 124.834302 
L 801.593525 120.554136 
L 804.627498 118.342479 
L 807.661472 113.826152 
L 810.695445 111.123343 
L 813.729418 107.927341 
L 816.763391 105.626527 
L 819.797365 104.208426 
L 822.831338 107.11609 
L 825.865311 97.197321 
L 828.899284 108.956377 
L 831.933258 96.605217 
L 834.967231 103.89241 
L 841.035177 90.977957 
L 844.069151 90.749055 
L 847.103124 90.122695 
L 850.137097 89.720245 
L 856.205043 89.502687 
L 859.239017 83.181235 
L 862.27299 79.385189 
L 865.306963 58.697607 
L 868.340936 75.105023 
L 871.37491 83.556915 
L 874.408883 77.940772 
L 877.442856 82.754966 
L 880.476829 82.658777 
L 883.510803 81.698933 
L 886.544776 81.810775 
L 889.578749 80.705967 
L 892.612722 81.302609 
L 895.646696 80.824842 
L 898.680669 81.956872 
L 901.714642 99.452308 
L 904.748615 84.881323 
L 907.782589 87.495884 
L 910.816562 101.742686 
L 913.850535 103.280569 
L 916.884508 105.003797 
L 922.952455 103.82957 
L 925.986428 103.513781 
L 929.020401 101.934156 
L 932.054375 105.734966 
L 935.088348 113.47157 
L 938.122321 102.421451 
L 941.156294 87.259496 
L 944.190268 69.831437 
L 947.224241 65.920373 
L 953.292187 59.281091 
L 956.326161 58.749558 
L 959.360134 57.114579 
L 962.394107 55.972566 
L 965.42808 55.852557 
L 968.462054 51.733235 
L 971.496027 45.849396 
L 974.53 36.008667 
L 974.53 36.008667 
" clip-path="url(#p006ac7b88a)" style="fill: none; stroke: #9467bd; stroke-width: 1.5; stroke-linecap: round"/>
   </g>
   <g id="patch_3">
    <path d="M 67.372 221.473683 
L 67.372 27.177 
" style="fill: none; stroke: #cccccc; stroke-linejoin: miter; stroke-linecap: square"/>
   </g>
   <g id="patch_4">
    <path d="M 974.53 221.473683 
L 974.53 27.177 
" style="fill: none; stroke: #cccccc; stroke-linejoin: miter; stroke-linecap: square"/>
   </g>
   <g id="patch_5">
    <path d="M 67.372 221.473683 
L 974.53 221.473683 
" style="fill: none; stroke: #cccccc; stroke-linejoin: miter; stroke-linecap: square"/>
   </g>
   <g id="patch_6">
    <path d="M 67.372 27.177 
L 974.53 27.177 
" style="fill: none; stroke: #cccccc; stroke-linejoin: miter; stroke-linecap: square"/>
   </g>
   <g id="text_8">
    <!-- US Gas Consumption — Trailing Annual Demand and YoY Growth -->
    <g style="fill: #262626" transform="translate(239.3635 21.177) scale(0.192 -0.192)">
     <defs>
      <path id="ArialMT-55" d="M 3500 4581 
L 4106 4581 
L 4106 1934 
Q 4106 1244 3950 837 
Q 3794 431 3386 176 
Q 2978 -78 2316 -78 
Q 1672 -78 1262 144 
Q 853 366 678 786 
Q 503 1206 503 1934 
L 503 4581 
L 1109 4581 
L 1109 1938 
Q 1109 1341 1220 1058 
Q 1331 775 1601 622 
Q 1872 469 2263 469 
Q 2931 469 3215 772 
Q 3500 1075 3500 1938 
L 3500 4581 
z
" transform="scale(0.015625)"/>
      <path id="ArialMT-53" d="M 288 1472 
L 859 1522 
Q 900 1178 1048 958 
Q 1197 738 1509 602 
Q 1822 466 2213 466 
Q 2559 466 2825 569 
Q 3091 672 3220 851 
Q 3350 1031 3350 1244 
Q 3350 1459 3225 1620 
Q 3100 1781 2813 1891 
Q 2628 1963 1997 2114 
Q 1366 2266 1113 2400 
Q 784 2572 623 2826 
Q 463 3081 463 3397 
Q 463 3744 659 4045 
Q 856 4347 1234 4503 
Q 1613 4659 2075 4659 
Q 2584 4659 2973 4495 
Q 3363 4331 3572 4012 
Q 3781 3694 3797 3291 
L 3216 3247 
Q 3169 3681 2898 3903 
Q 2628 4125 2100 4125 
Q 1550 4125 1298 3923 
Q 1047 3722 1047 3438 
Q 1047 3191 1225 3031 
Q 1400 2872 2139 2705 
Q 2878 2538 3153 2413 
Q 3553 2228 3743 1945 
Q 3934 1663 3934 1294 
Q 3934 928 3725 604 
Q 3516 281 3123 101 
Q 2731 -78 2241 -78 
Q 1619 -78 1198 103 
Q 778 284 539 648 
Q 300 1013 288 1472 
z
" transform="scale(0.015625)"/>
      <path id="ArialMT-47" d="M 2638 1797 
L 2638 2334 
L 4578 2338 
L 4578 638 
Q 4131 281 3656 101 
Q 3181 -78 2681 -78 
Q 2006 -78 1454 211 
Q 903 500 622 1047 
Q 341 1594 341 2269 
Q 341 2938 620 3517 
Q 900 4097 1425 4378 
Q 1950 4659 2634 4659 
Q 3131 4659 3532 4498 
Q 3934 4338 4162 4050 
Q 4391 3763 4509 3300 
L 3963 3150 
Q 3859 3500 3706 3700 
Q 3553 3900 3268 4020 
Q 2984 4141 2638 4141 
Q 2222 4141 1919 4014 
Q 1616 3888 1430 3681 
Q 1244 3475 1141 3228 
Q 966 2803 966 2306 
Q 966 1694 1177 1281 
Q 1388 869 1791 669 
Q 2194 469 2647 469 
Q 3041 469 3416 620 
Q 3791 772 3984 944 
L 3984 1797 
L 2638 1797 
z
" transform="scale(0.015625)"/>
      <path id="ArialMT-61" d="M 2588 409 
Q 2275 144 1986 34 
Q 1697 -75 1366 -75 
Q 819 -75 525 192 
Q 231 459 231 875 
Q 231 1119 342 1320 
Q 453 1522 633 1644 
Q 813 1766 1038 1828 
Q 1203 1872 1538 1913 
Q 2219 1994 2541 2106 
Q 2544 2222 2544 2253 
Q 2544 2597 2384 2738 
Q 2169 2928 1744 2928 
Q 1347 2928 1158 2789 
Q 969 2650 878 2297 
L 328 2372 
Q 403 2725 575 2942 
Q 747 3159 1072 3276 
Q 1397 3394 1825 3394 
Q 2250 3394 2515 3294 
Q 2781 3194 2906 3042 
Q 3031 2891 3081 2659 
Q 3109 2516 3109 2141 
L 3109 1391 
Q 3109 606 3145 398 
Q 3181 191 3288 0 
L 2700 0 
Q 2613 175 2588 409 
z
M 2541 1666 
Q 2234 1541 1622 1453 
Q 1275 1403 1131 1340 
Q 988 1278 909 1158 
Q 831 1038 831 891 
Q 831 666 1001 516 
Q 1172 366 1500 366 
Q 1825 366 2078 508 
Q 2331 650 2450 897 
Q 2541 1088 2541 1459 
L 2541 1666 
z
" transform="scale(0.015625)"/>
      <path id="ArialMT-73" d="M 197 991 
L 753 1078 
Q 800 744 1014 566 
Q 1228 388 1613 388 
Q 2000 388 2187 545 
Q 2375 703 2375 916 
Q 2375 1106 2209 1216 
Q 2094 1291 1634 1406 
Q 1016 1563 777 1677 
Q 538 1791 414 1992 
Q 291 2194 291 2438 
Q 291 2659 392 2848 
Q 494 3038 669 3163 
Q 800 3259 1026 3326 
Q 1253 3394 1513 3394 
Q 1903 3394 2198 3281 
Q 2494 3169 2634 2976 
Q 2775 2784 2828 2463 
L 2278 2388 
Q 2241 2644 2061 2787 
Q 1881 2931 1553 2931 
Q 1166 2931 1000 2803 
Q 834 2675 834 2503 
Q 834 2394 903 2306 
Q 972 2216 1119 2156 
Q 1203 2125 1616 2013 
Q 2213 1853 2448 1751 
Q 2684 1650 2818 1456 
Q 2953 1263 2953 975 
Q 2953 694 2789 445 
Q 2625 197 2315 61 
Q 2006 -75 1616 -75 
Q 969 -75 630 194 
Q 291 463 197 991 
z
" transform="scale(0.015625)"/>
      <path id="ArialMT-43" d="M 3763 1606 
L 4369 1453 
Q 4178 706 3683 314 
Q 3188 -78 2472 -78 
Q 1731 -78 1267 223 
Q 803 525 561 1097 
Q 319 1669 319 2325 
Q 319 3041 592 3573 
Q 866 4106 1370 4382 
Q 1875 4659 2481 4659 
Q 3169 4659 3637 4309 
Q 4106 3959 4291 3325 
L 3694 3184 
Q 3534 3684 3231 3912 
Q 2928 4141 2469 4141 
Q 1941 4141 1586 3887 
Q 1231 3634 1087 3207 
Q 944 2781 944 2328 
Q 944 1744 1114 1308 
Q 1284 872 1643 656 
Q 2003 441 2422 441 
Q 2931 441 3284 734 
Q 3638 1028 3763 1606 
z
" transform="scale(0.015625)"/>
      <path id="ArialMT-75" d="M 2597 0 
L 2597 488 
Q 2209 -75 1544 -75 
Q 1250 -75 995 37 
Q 741 150 617 320 
Q 494 491 444 738 
Q 409 903 409 1263 
L 409 3319 
L 972 3319 
L 972 1478 
Q 972 1038 1006 884 
Q 1059 663 1231 536 
Q 1403 409 1656 409 
Q 1909 409 2131 539 
Q 2353 669 2445 892 
Q 2538 1116 2538 1541 
L 2538 3319 
L 3100 3319 
L 3100 0 
L 2597 0 
z
" transform="scale(0.015625)"/>
      <path id="ArialMT-70" d="M 422 -1272 
L 422 3319 
L 934 3319 
L 934 2888 
Q 1116 3141 1344 3267 
Q 1572 3394 1897 3394 
Q 2322 3394 2647 3175 
Q 2972 2956 3137 2557 
Q 3303 2159 3303 1684 
Q 3303 1175 3120 767 
Q 2938 359 2589 142 
Q 2241 -75 1856 -75 
Q 1575 -75 1351 44 
Q 1128 163 984 344 
L 984 -1272 
L 422 -1272 
z
M 931 1641 
Q 931 1000 1190 694 
Q 1450 388 1819 388 
Q 2194 388 2461 705 
Q 2728 1022 2728 1688 
Q 2728 2322 2467 2637 
Q 2206 2953 1844 2953 
Q 1484 2953 1207 2617 
Q 931 2281 931 1641 
z
" transform="scale(0.015625)"/>
      <path id="ArialMT-74" d="M 1650 503 
L 1731 6 
Q 1494 -44 1306 -44 
Q 1000 -44 831 53 
Q 663 150 594 308 
Q 525 466 525 972 
L 525 2881 
L 113 2881 
L 113 3319 
L 525 3319 
L 525 4141 
L 1084 4478 
L 1084 3319 
L 1650 3319 
L 1650 2881 
L 1084 2881 
L 1084 941 
Q 1084 700 1114 631 
Q 1144 563 1211 522 
Q 1278 481 1403 481 
Q 1497 481 1650 503 
z
" transform="scale(0.015625)"/>
      <path id="ArialMT-2014" d="M 0 1431 
L 0 1884 
L 6400 1884 
L 6400 1431 
L 0 1431 
z
" transform="scale(0.015625)"/>
      <path id="ArialMT-54" d="M 1659 0 
L 1659 4041 
L 150 4041 
L 150 4581 
L 3781 4581 
L 3781 4041 
L 2266 4041 
L 2266 0 
L 1659 0 
z
" transform="scale(0.015625)"/>
      <path id="ArialMT-41" d="M -9 0 
L 1750 4581 
L 2403 4581 
L 4278 0 
L 3588 0 
L 3053 1388 
L 1138 1388 
L 634 0 
L -9 0 
z
M 1313 1881 
L 2866 1881 
L 2388 3150 
Q 2169 3728 2063 4100 
Q 1975 3659 1816 3225 
L 1313 1881 
z
" transform="scale(0.015625)"/>
      <path id="ArialMT-44" d="M 494 0 
L 494 4581 
L 2072 4581 
Q 2606 4581 2888 4516 
Q 3281 4425 3559 4188 
Q 3922 3881 4101 3404 
Q 4281 2928 4281 2316 
Q 4281 1794 4159 1391 
Q 4038 988 3847 723 
Q 3656 459 3429 307 
Q 3203 156 2883 78 
Q 2563 0 2147 0 
L 494 0 
z
M 1100 541 
L 2078 541 
Q 2531 541 2789 625 
Q 3047 709 3200 863 
Q 3416 1078 3536 1442 
Q 3656 1806 3656 2325 
Q 3656 3044 3420 3430 
Q 3184 3816 2847 3947 
Q 2603 4041 2063 4041 
L 1100 4041 
L 1100 541 
z
" transform="scale(0.015625)"/>
      <path id="ArialMT-64" d="M 2575 0 
L 2575 419 
Q 2259 -75 1647 -75 
Q 1250 -75 917 144 
Q 584 363 401 755 
Q 219 1147 219 1656 
Q 219 2153 384 2558 
Q 550 2963 881 3178 
Q 1213 3394 1622 3394 
Q 1922 3394 2156 3267 
Q 2391 3141 2538 2938 
L 2538 4581 
L 3097 4581 
L 3097 0 
L 2575 0 
z
M 797 1656 
Q 797 1019 1065 703 
Q 1334 388 1700 388 
Q 2069 388 2326 689 
Q 2584 991 2584 1609 
Q 2584 2291 2321 2609 
Q 2059 2928 1675 2928 
Q 1300 2928 1048 2622 
Q 797 2316 797 1656 
z
" transform="scale(0.015625)"/>
      <path id="ArialMT-59" d="M 1784 0 
L 1784 1941 
L 19 4581 
L 756 4581 
L 1659 3200 
Q 1909 2813 2125 2425 
Q 2331 2784 2625 3234 
L 3513 4581 
L 4219 4581 
L 2391 1941 
L 2391 0 
L 1784 0 
z
" transform="scale(0.015625)"/>
      <path id="ArialMT-77" d="M 1034 0 
L 19 3319 
L 600 3319 
L 1128 1403 
L 1325 691 
Q 1338 744 1497 1375 
L 2025 3319 
L 2603 3319 
L 3100 1394 
L 3266 759 
L 3456 1400 
L 4025 3319 
L 4572 3319 
L 3534 0 
L 2950 0 
L 2422 1988 
L 2294 2553 
L 1622 0 
L 1034 0 
z
" transform="scale(0.015625)"/>
      <path id="ArialMT-68" d="M 422 0 
L 422 4581 
L 984 4581 
L 984 2938 
Q 1378 3394 1978 3394 
Q 2347 3394 2619 3248 
Q 2891 3103 3008 2847 
Q 3125 2591 3125 2103 
L 3125 0 
L 2563 0 
L 2563 2103 
Q 2563 2525 2380 2717 
Q 2197 2909 1863 2909 
Q 1613 2909 1392 2779 
Q 1172 2650 1078 2428 
Q 984 2206 984 1816 
L 984 0 
L 422 0 
z
" transform="scale(0.015625)"/>
     </defs>
     <use xlink:href="#ArialMT-55"/>
     <use xlink:href="#ArialMT-53" transform="translate(72.216797 0)"/>
     <use xlink:href="#ArialMT-20" transform="translate(138.916016 0)"/>
     <use xlink:href="#ArialMT-47" transform="translate(166.699219 0)"/>
     <use xlink:href="#ArialMT-61" transform="translate(244.482422 0)"/>
     <use xlink:href="#ArialMT-73" transform="translate(300.097656 0)"/>
     <use xlink:href="#ArialMT-20" transform="translate(350.097656 0)"/>
     <use xlink:href="#ArialMT-43" transform="translate(377.880859 0)"/>
     <use xlink:href="#ArialMT-6f" transform="translate(450.097656 0)"/>
     <use xlink:href="#ArialMT-6e" transform="translate(505.712891 0)"/>
     <use xlink:href="#ArialMT-73" transform="translate(561.328125 0)"/>
     <use xlink:href="#ArialMT-75" transform="translate(611.328125 0)"/>
     <use xlink:href="#ArialMT-6d" transform="translate(666.943359 0)"/>
     <use xlink:href="#ArialMT-70" transform="translate(750.244141 0)"/>
     <use xlink:href="#ArialMT-74" transform="translate(805.859375 0)"/>
     <use xlink:href="#ArialMT-69" transform="translate(833.642578 0)"/>
     <use xlink:href="#ArialMT-6f" transform="translate(855.859375 0)"/>
     <use xlink:href="#ArialMT-6e" transform="translate(911.474609 0)"/>
     <use xlink:href="#ArialMT-20" transform="translate(967.089844 0)"/>
     <use xlink:href="#ArialMT-2014" transform="translate(994.873047 0)"/>
     <use xlink:href="#ArialMT-20" transform="translate(1094.873047 0)"/>
     <use xlink:href="#ArialMT-54" transform="translate(1120.90625 0)"/>
     <use xlink:href="#ArialMT-72" transform="translate(1178.240234 0)"/>
     <use xlink:href="#ArialMT-61" transform="translate(1211.541016 0)"/>
     <use xlink:href="#ArialMT-69" transform="translate(1267.15625 0)"/>
     <use xlink:href="#ArialMT-6c" transform="translate(1289.373047 0)"/>
     <use xlink:href="#ArialMT-69" transform="translate(1311.589844 0)"/>
     <use xlink:href="#ArialMT-6e" transform="translate(1333.806641 0)"/>
     <use xlink:href="#ArialMT-67" transform="translate(1389.421875 0)"/>
     <use xlink:href="#ArialMT-20" transform="translate(1445.037109 0)"/>
     <use xlink:href="#ArialMT-41" transform="translate(1467.320312 0)"/>
     <use xlink:href="#ArialMT-6e" transform="translate(1534.019531 0)"/>
     <use xlink:href="#ArialMT-6e" transform="translate(1589.634766 0)"/>
     <use xlink:href="#ArialMT-75" transform="translate(1645.25 0)"/>
     <use xlink:href="#ArialMT-61" transform="translate(1700.865234 0)"/>
     <use xlink:href="#ArialMT-6c" transform="translate(1756.480469 0)"/>
     <use xlink:href="#ArialMT-20" transform="translate(1778.697266 0)"/>
     <use xlink:href="#ArialMT-44" transform="translate(1806.480469 0)"/>
     <use xlink:href="#ArialMT-65" transform="translate(1878.697266 0)"/>
     <use xlink:href="#ArialMT-6d" transform="translate(1934.3125 0)"/>
     <use xlink:href="#ArialMT-61" transform="translate(2017.613281 0)"/>
     <use xlink:href="#ArialMT-6e" transform="translate(2073.228516 0)"/>
     <use xlink:href="#ArialMT-64" transform="translate(2128.84375 0)"/>
     <use xlink:href="#ArialMT-20" transform="translate(2184.458984 0)"/>
     <use xlink:href="#ArialMT-61" transform="translate(2212.242188 0)"/>
     <use xlink:href="#ArialMT-6e" transform="translate(2267.857422 0)"/>
     <use xlink:href="#ArialMT-64" transform="translate(2323.472656 0)"/>
     <use xlink:href="#ArialMT-20" transform="translate(2379.087891 0)"/>
     <use xlink:href="#ArialMT-59" transform="translate(2405.121094 0)"/>
     <use xlink:href="#ArialMT-6f" transform="translate(2462.695312 0)"/>
     <use xlink:href="#ArialMT-59" transform="translate(2518.310547 0)"/>
     <use xlink:href="#ArialMT-20" transform="translate(2583.259766 0)"/>
     <use xlink:href="#ArialMT-47" transform="translate(2611.042969 0)"/>
     <use xlink:href="#ArialMT-72" transform="translate(2688.826172 0)"/>
     <use xlink:href="#ArialMT-6f" transform="translate(2722.126953 0)"/>
     <use xlink:href="#ArialMT-77" transform="translate(2777.742188 0)"/>
     <use xlink:href="#ArialMT-74" transform="translate(2849.958984 0)"/>
     <use xlink:href="#ArialMT-68" transform="translate(2877.742188 0)"/>
    </g>
   </g>
   <g id="legend_1">
    <g id="patch_7">
     <path d="M 79.692 66.5735 
L 400.397 66.5735 
Q 403.917 66.5735 403.917 63.0535 
L 403.917 39.497 
Q 403.917 35.977 400.397 35.977 
L 79.692 35.977 
Q 76.172 35.977 76.172 39.497 
L 76.172 63.0535 
Q 76.172 66.5735 79.692 66.5735 
z
" style="fill: #ffffff; opacity: 0.8; stroke: #cccccc; stroke-width: 0.8; stroke-linejoin: miter"/>
    </g>
    <g id="line2d_12">
     <path d="M 83.212 49.66925 
L 100.812 49.66925 
L 118.412 49.66925 
" style="fill: none; stroke: #9467bd; stroke-width: 1.5; stroke-linecap: round"/>
    </g>
    <g id="text_9">
     <!-- Trailing 12-month demand (MMcf) -->
     <g style="fill: #262626" transform="translate(132.492 55.82925) scale(0.176 -0.176)">
      <use xlink:href="#ArialMT-54"/>
      <use xlink:href="#ArialMT-72" transform="translate(57.333984 0)"/>
      <use xlink:href="#ArialMT-61" transform="translate(90.634766 0)"/>
      <use xlink:href="#ArialMT-69" transform="translate(146.25 0)"/>
      <use xlink:href="#ArialMT-6c" transform="translate(168.466797 0)"/>
      <use xlink:href="#ArialMT-69" transform="translate(190.683594 0)"/>
      <use xlink:href="#ArialMT-6e" transform="translate(212.900391 0)"/>
      <use xlink:href="#ArialMT-67" transform="translate(268.515625 0)"/>
      <use xlink:href="#ArialMT-20" transform="translate(324.130859 0)"/>
      <use xlink:href="#ArialMT-31" transform="translate(351.914062 0)"/>
      <use xlink:href="#ArialMT-32" transform="translate(407.529297 0)"/>
      <use xlink:href="#ArialMT-2d" transform="translate(463.144531 0)"/>
      <use xlink:href="#ArialMT-6d" transform="translate(496.445312 0)"/>
      <use xlink:href="#ArialMT-6f" transform="translate(579.746094 0)"/>
      <use xlink:href="#ArialMT-6e" transform="translate(635.361328 0)"/>
      <use xlink:href="#ArialMT-74" transform="translate(690.976562 0)"/>
      <use xlink:href="#ArialMT-68" transform="translate(718.759766 0)"/>
      <use xlink:href="#ArialMT-20" transform="translate(774.375 0)"/>
      <use xlink:href="#ArialMT-64" transform="translate(802.158203 0)"/>
      <use xlink:href="#ArialMT-65" transform="translate(857.773438 0)"/>
      <use xlink:href="#ArialMT-6d" transform="translate(913.388672 0)"/>
      <use xlink:href="#ArialMT-61" transform="translate(996.689453 0)"/>
      <use xlink:href="#ArialMT-6e" transform="translate(1052.304688 0)"/>
      <use xlink:href="#ArialMT-64" transform="translate(1107.919922 0)"/>
      <use xlink:href="#ArialMT-20" transform="translate(1163.535156 0)"/>
      <use xlink:href="#ArialMT-28" transform="translate(1191.318359 0)"/>
      <use xlink:href="#ArialMT-4d" transform="translate(1224.619141 0)"/>
      <use xlink:href="#ArialMT-4d" transform="translate(1307.919922 0)"/>
      <use xlink:href="#ArialMT-63" transform="translate(1391.220703 0)"/>
      <use xlink:href="#ArialMT-66" transform="translate(1441.220703 0)"/>
      <use xlink:href="#ArialMT-29" transform="translate(1469.003906 0)"/>
     </g>
    </g>
   </g>
  </g>
  <g id="axes_2">
   <g id="patch_8">
    <path d="M 67.372 445.165 
L 974.53 445.165 
L 974.53 250.868317 
L 67.372 250.868317 
z
" style="fill: #ffffff"/>
   </g>
   <g id="matplotlib.axis_3">
    <g id="xtick_26">
     <g id="line2d_13">
      <path d="M 176.595037 445.165 
L 176.595037 250.868317 
" clip-path="url(#ped787d064b)" style="fill: none; stroke: #cccccc; stroke-width: 0.8; stroke-linecap: round"/>
     </g>
     <g id="text_10">
      <!-- 2004 -->
      <g style="fill: #262626" transform="translate(157.020537 466.06275) scale(0.176 -0.176)">
       <use xlink:href="#ArialMT-32"/>
       <use xlink:href="#ArialMT-30" transform="translate(55.615234 0)"/>
       <use xlink:href="#ArialMT-30" transform="translate(111.230469 0)"/>
       <use xlink:href="#ArialMT-34" transform="translate(166.845703 0)"/>
      </g>
     </g>
    </g>
    <g id="xtick_27">
     <g id="line2d_14">
      <path d="M 358.633431 445.165 
L 358.633431 250.868317 
" clip-path="url(#ped787d064b)" style="fill: none; stroke: #cccccc; stroke-width: 0.8; stroke-linecap: round"/>
     </g>
     <g id="text_11">
      <!-- 2009 -->
      <g style="fill: #262626" transform="translate(339.058931 466.06275) scale(0.176 -0.176)">
       <defs>
        <path id="ArialMT-39" d="M 350 1059 
L 891 1109 
Q 959 728 1153 556 
Q 1347 384 1650 384 
Q 1909 384 2104 503 
Q 2300 622 2425 820 
Q 2550 1019 2634 1356 
Q 2719 1694 2719 2044 
Q 2719 2081 2716 2156 
Q 2547 1888 2255 1720 
Q 1963 1553 1622 1553 
Q 1053 1553 659 1965 
Q 266 2378 266 3053 
Q 266 3750 677 4175 
Q 1088 4600 1706 4600 
Q 2153 4600 2523 4359 
Q 2894 4119 3086 3673 
Q 3278 3228 3278 2384 
Q 3278 1506 3087 986 
Q 2897 466 2520 194 
Q 2144 -78 1638 -78 
Q 1100 -78 759 220 
Q 419 519 350 1059 
z
M 2653 3081 
Q 2653 3566 2395 3850 
Q 2138 4134 1775 4134 
Q 1400 4134 1122 3828 
Q 844 3522 844 3034 
Q 844 2597 1108 2323 
Q 1372 2050 1759 2050 
Q 2150 2050 2401 2323 
Q 2653 2597 2653 3081 
z
" transform="scale(0.015625)"/>
       </defs>
       <use xlink:href="#ArialMT-32"/>
       <use xlink:href="#ArialMT-30" transform="translate(55.615234 0)"/>
       <use xlink:href="#ArialMT-30" transform="translate(111.230469 0)"/>
       <use xlink:href="#ArialMT-39" transform="translate(166.845703 0)"/>
      </g>
     </g>
    </g>
    <g id="xtick_28">
     <g id="line2d_15">
      <path d="M 540.671826 445.165 
L 540.671826 250.868317 
" clip-path="url(#ped787d064b)" style="fill: none; stroke: #cccccc; stroke-width: 0.8; stroke-linecap: round"/>
     </g>
     <g id="text_12">
      <!-- 2014 -->
      <g style="fill: #262626" transform="translate(521.097326 466.06275) scale(0.176 -0.176)">
       <use xlink:href="#ArialMT-32"/>
       <use xlink:href="#ArialMT-30" transform="translate(55.615234 0)"/>
       <use xlink:href="#ArialMT-31" transform="translate(111.230469 0)"/>
       <use xlink:href="#ArialMT-34" transform="translate(166.845703 0)"/>
      </g>
     </g>
    </g>
    <g id="xtick_29">
     <g id="line2d_16">
      <path d="M 722.710221 445.165 
L 722.710221 250.868317 
" clip-path="url(#ped787d064b)" style="fill: none; stroke: #cccccc; stroke-width: 0.8; stroke-linecap: round"/>
     </g>
     <g id="text_13">
      <!-- 2019 -->
      <g style="fill: #262626" transform="translate(703.135721 466.06275) scale(0.176 -0.176)">
       <use xlink:href="#ArialMT-32"/>
       <use xlink:href="#ArialMT-30" transform="translate(55.615234 0)"/>
       <use xlink:href="#ArialMT-31" transform="translate(111.230469 0)"/>
       <use xlink:href="#ArialMT-39" transform="translate(166.845703 0)"/>
      </g>
     </g>
    </g>
    <g id="xtick_30">
     <g id="line2d_17">
      <path d="M 904.748615 445.165 
L 904.748615 250.868317 
" clip-path="url(#ped787d064b)" style="fill: none; stroke: #cccccc; stroke-width: 0.8; stroke-linecap: round"/>
     </g>
     <g id="text_14">
      <!-- 2024 -->
      <g style="fill: #262626" transform="translate(885.174115 466.06275) scale(0.176 -0.176)">
       <use xlink:href="#ArialMT-32"/>
       <use xlink:href="#ArialMT-30" transform="translate(55.615234 0)"/>
       <use xlink:href="#ArialMT-32" transform="translate(111.230469 0)"/>
       <use xlink:href="#ArialMT-34" transform="translate(166.845703 0)"/>
      </g>
     </g>
    </g>
    <g id="xtick_31"/>
    <g id="xtick_32"/>
    <g id="xtick_33"/>
    <g id="xtick_34"/>
    <g id="xtick_35"/>
    <g id="xtick_36"/>
    <g id="xtick_37"/>
    <g id="xtick_38"/>
    <g id="xtick_39"/>
    <g id="xtick_40"/>
    <g id="xtick_41"/>
    <g id="xtick_42"/>
    <g id="xtick_43"/>
    <g id="xtick_44"/>
    <g id="xtick_45"/>
    <g id="xtick_46"/>
    <g id="xtick_47"/>
    <g id="xtick_48"/>
    <g id="xtick_49"/>
    <g id="xtick_50"/>
   </g>
   <g id="matplotlib.axis_4">
    <g id="ytick_6">
     <g id="line2d_18">
      <path d="M 67.372 419.154358 
L 974.53 419.154358 
" clip-path="url(#ped787d064b)" style="fill: none; stroke: #cccccc; stroke-width: 0.8; stroke-linecap: round"/>
     </g>
     <g id="text_15">
      <!-- −10 -->
      <g style="fill: #262626" transform="translate(29.218 425.453233) scale(0.176 -0.176)">
       <defs>
        <path id="ArialMT-2212" d="M 3381 1997 
L 356 1997 
L 356 2522 
L 3381 2522 
L 3381 1997 
z
" transform="scale(0.015625)"/>
       </defs>
       <use xlink:href="#ArialMT-2212"/>
       <use xlink:href="#ArialMT-31" transform="translate(58.398438 0)"/>
       <use xlink:href="#ArialMT-30" transform="translate(114.013672 0)"/>
      </g>
     </g>
    </g>
    <g id="ytick_7">
     <g id="line2d_19">
      <path d="M 67.372 358.136394 
L 974.53 358.136394 
" clip-path="url(#ped787d064b)" style="fill: none; stroke: #cccccc; stroke-width: 0.8; stroke-linecap: round"/>
     </g>
     <g id="text_16">
      <!-- 0 -->
      <g style="fill: #262626" transform="translate(49.28475 364.435269) scale(0.176 -0.176)">
       <use xlink:href="#ArialMT-30"/>
      </g>
     </g>
    </g>
    <g id="ytick_8">
     <g id="line2d_20">
      <path d="M 67.372 297.11843 
L 974.53 297.11843 
" clip-path="url(#ped787d064b)" style="fill: none; stroke: #cccccc; stroke-width: 0.8; stroke-linecap: round"/>
     </g>
     <g id="text_17">
      <!-- 10 -->
      <g style="fill: #262626" transform="translate(39.4975 303.417305) scale(0.176 -0.176)">
       <use xlink:href="#ArialMT-31"/>
       <use xlink:href="#ArialMT-30" transform="translate(55.615234 0)"/>
      </g>
     </g>
    </g>
    <g id="text_18">
     <!-- YoY % change -->
     <g style="fill: #262626" transform="translate(21.177 410.481158) rotate(-90) scale(0.192 -0.192)">
      <defs>
       <path id="ArialMT-25" d="M 372 3481 
Q 372 3972 619 4315 
Q 866 4659 1334 4659 
Q 1766 4659 2048 4351 
Q 2331 4044 2331 3447 
Q 2331 2866 2045 2552 
Q 1759 2238 1341 2238 
Q 925 2238 648 2547 
Q 372 2856 372 3481 
z
M 1350 4272 
Q 1141 4272 1002 4090 
Q 863 3909 863 3425 
Q 863 2984 1003 2804 
Q 1144 2625 1350 2625 
Q 1563 2625 1702 2806 
Q 1841 2988 1841 3469 
Q 1841 3913 1700 4092 
Q 1559 4272 1350 4272 
z
M 1353 -169 
L 3859 4659 
L 4316 4659 
L 1819 -169 
L 1353 -169 
z
M 3334 1075 
Q 3334 1569 3581 1911 
Q 3828 2253 4300 2253 
Q 4731 2253 5014 1945 
Q 5297 1638 5297 1041 
Q 5297 459 5011 145 
Q 4725 -169 4303 -169 
Q 3888 -169 3611 142 
Q 3334 453 3334 1075 
z
M 4316 1866 
Q 4103 1866 3964 1684 
Q 3825 1503 3825 1019 
Q 3825 581 3965 400 
Q 4106 219 4313 219 
Q 4528 219 4667 400 
Q 4806 581 4806 1063 
Q 4806 1506 4665 1686 
Q 4525 1866 4316 1866 
z
" transform="scale(0.015625)"/>
      </defs>
      <use xlink:href="#ArialMT-59"/>
      <use xlink:href="#ArialMT-6f" transform="translate(57.574219 0)"/>
      <use xlink:href="#ArialMT-59" transform="translate(113.189453 0)"/>
      <use xlink:href="#ArialMT-20" transform="translate(178.138672 0)"/>
      <use xlink:href="#ArialMT-25" transform="translate(205.921875 0)"/>
      <use xlink:href="#ArialMT-20" transform="translate(294.837891 0)"/>
      <use xlink:href="#ArialMT-63" transform="translate(322.621094 0)"/>
      <use xlink:href="#ArialMT-68" transform="translate(372.621094 0)"/>
      <use xlink:href="#ArialMT-61" transform="translate(428.236328 0)"/>
      <use xlink:href="#ArialMT-6e" transform="translate(483.851562 0)"/>
      <use xlink:href="#ArialMT-67" transform="translate(539.466797 0)"/>
      <use xlink:href="#ArialMT-65" transform="translate(595.082031 0)"/>
     </g>
    </g>
   </g>
   <g id="line2d_21">
    <path d="M 137.153385 333.618062 
L 140.187358 303.217736 
L 143.221331 280.954365 
L 146.255304 277.094859 
L 149.289278 281.14766 
L 152.323251 290.273804 
L 155.357224 295.130443 
L 158.391197 297.58945 
L 161.425171 299.041723 
L 164.459144 299.715599 
L 167.493117 307.40085 
L 170.52709 330.248164 
L 173.561064 351.281557 
L 176.595037 368.094768 
L 179.62901 383.980948 
L 182.662983 392.393386 
L 185.696957 392.786021 
L 188.73093 391.643594 
L 191.764903 388.735786 
L 194.798876 388.45846 
L 197.832849 387.997594 
L 200.866823 387.79711 
L 203.900796 384.068297 
L 206.934769 376.443102 
L 209.968742 367.831551 
L 213.002716 373.969146 
L 216.036689 385.711003 
L 219.070662 376.050382 
L 222.104635 376.595457 
L 225.138609 375.292526 
L 228.172582 376.792886 
L 231.206555 376.969399 
L 234.240528 377.489332 
L 237.274502 377.768309 
L 240.308475 380.027208 
L 243.342448 383.215423 
L 246.376421 383.49798 
L 249.410395 389.700625 
L 252.444368 381.552709 
L 255.478341 390.241403 
L 258.512314 391.656568 
L 261.546288 394.503956 
L 264.580261 394.113579 
L 267.614234 393.902475 
L 270.648207 392.494263 
L 273.682181 390.204943 
L 276.716154 382.500203 
L 279.750127 376.038301 
L 282.7841 392.092923 
L 285.818074 371.143285 
L 288.852047 348.347213 
L 291.88602 342.856369 
L 294.919993 331.880594 
L 297.953967 327.165756 
L 300.98794 326.790549 
L 304.021913 326.068403 
L 307.055886 326.483354 
L 310.08986 329.113023 
L 313.123833 341.109271 
L 316.157806 344.368861 
L 319.191779 319.165662 
L 322.225753 317.35611 
L 325.259726 340.374269 
L 328.293699 335.26374 
L 331.327672 343.452665 
L 334.361645 342.807644 
L 337.395619 343.122828 
L 340.429592 342.139178 
L 343.463565 342.362147 
L 346.497538 340.796628 
L 349.531512 328.738851 
L 352.565485 325.184528 
L 355.599458 329.859246 
L 358.633431 331.215868 
L 361.667405 333.820906 
L 364.701378 343.661983 
L 367.735351 343.91352 
L 370.769324 348.911909 
L 373.803298 348.749495 
L 376.837271 349.756269 
L 379.871244 349.252259 
L 382.905217 349.174502 
L 385.939191 352.128813 
L 388.973164 360.485943 
L 392.007137 364.704983 
L 395.04111 375.995765 
L 398.075084 367.211893 
L 401.109057 367.053732 
L 404.14303 372.46496 
L 407.177003 370.877596 
L 410.210977 371.57479 
L 413.24495 373.188631 
L 416.278923 374.01903 
L 419.312896 374.146852 
L 422.34687 379.224217 
L 425.380843 367.702649 
L 428.414816 361.266542 
L 431.448789 351.900759 
L 434.482763 356.507312 
L 437.516736 347.653175 
L 440.550709 337.489779 
L 443.584682 335.422611 
L 446.618656 333.807102 
L 449.652629 330.158703 
L 452.686602 327.440061 
L 455.720575 326.021127 
L 458.754548 319.009996 
L 461.788522 326.551274 
L 467.856468 369.497107 
L 470.890441 376.479545 
L 473.924415 400.221554 
L 476.958388 407.658885 
L 479.992361 411.857048 
L 483.026334 413.119764 
L 489.094281 418.752162 
L 492.128254 420.23929 
L 495.162227 422.522969 
L 498.196201 418.386049 
L 501.230174 408.491897 
L 504.264147 386.952719 
L 507.29812 369.918512 
L 510.332094 322.141865 
L 513.366067 308.539765 
L 516.40004 300.467875 
L 519.434013 298.771428 
L 522.467987 295.220766 
L 525.50196 293.418742 
L 528.535933 293.367068 
L 531.569906 296.209046 
L 534.60388 293.428626 
L 537.637853 273.747101 
L 540.671826 262.27391 
L 543.705799 259.699984 
L 546.739773 284.425263 
L 549.773746 292.869767 
L 552.807719 295.555688 
L 555.841692 295.571553 
L 558.875666 297.31747 
L 561.909639 298.045268 
L 564.943612 296.761835 
L 567.977585 296.300964 
L 571.011559 300.938304 
L 577.079505 351.088116 
L 580.113478 357.202147 
L 583.147452 368.203241 
L 586.181425 371.808363 
L 589.215398 376.003311 
L 592.249371 377.969411 
L 595.283344 379.078288 
L 598.317318 379.41748 
L 601.351291 382.472512 
L 604.385264 383.040984 
L 607.419237 399.370948 
L 610.453211 404.710109 
L 613.487184 403.536896 
L 616.521157 426.323478 
L 619.55513 436.333333 
L 622.589104 433.232406 
L 625.623077 428.719592 
L 628.65705 427.237691 
L 631.691023 426.456051 
L 634.724997 425.226876 
L 637.75897 422.775403 
L 640.792943 422.213245 
L 643.826916 409.650914 
L 646.86089 375.697959 
L 649.894863 374.742762 
L 652.928836 365.424977 
L 655.962809 332.777238 
L 658.996783 337.275244 
L 662.030756 338.080552 
L 665.064729 338.75072 
L 668.098702 339.130897 
L 671.132676 340.863997 
L 674.166649 341.111381 
L 677.200622 338.495824 
L 680.234595 329.433324 
L 683.268569 347.337909 
L 686.302542 327.813499 
L 689.336515 303.346318 
L 692.370488 309.933521 
L 695.404462 287.649662 
L 698.438435 292.148658 
L 704.506381 290.23702 
L 707.540355 288.395981 
L 710.574328 288.661169 
L 713.608301 283.464874 
L 716.642274 280.186599 
L 719.676247 290.779599 
L 722.710221 306.31637 
L 725.744194 310.420774 
L 728.778167 318.362836 
L 731.81214 345.149803 
L 734.846114 338.700058 
L 737.880087 339.100165 
L 740.91406 339.041413 
L 743.948033 340.481239 
L 746.982007 341.41558 
L 753.049953 362.421807 
L 756.083926 358.029602 
L 759.1179 369.331709 
L 762.151873 381.800713 
L 765.185846 397.519115 
L 768.219819 390.102647 
L 771.253793 397.468612 
L 774.287766 400.110479 
L 777.321739 403.088389 
L 780.355712 404.456054 
L 783.389686 403.881586 
L 786.423659 401.841699 
L 789.457632 418.899707 
L 792.491605 419.231842 
L 795.525579 407.712512 
L 798.559552 394.685769 
L 801.593525 376.479392 
L 804.627498 373.088818 
L 807.661472 365.340487 
L 810.695445 360.715366 
L 813.729418 355.648417 
L 816.763391 351.890328 
L 819.797365 350.751566 
L 822.831338 351.655374 
L 825.865311 324.548798 
L 828.899284 333.747452 
L 831.933258 324.641858 
L 834.967231 340.6386 
L 838.001204 338.969729 
L 841.035177 335.473693 
L 844.069151 339.140885 
L 847.103124 340.912876 
L 850.137097 343.267858 
L 853.17107 345.074548 
L 856.205043 346.186661 
L 859.239017 338.611574 
L 862.27299 343.79633 
L 865.306963 317.036764 
L 868.340936 340.840683 
L 874.408883 342.399657 
L 877.442856 351.570169 
L 880.476829 351.678077 
L 883.510803 351.417369 
L 886.544776 351.830899 
L 889.578749 351.061189 
L 892.612722 351.601082 
L 895.646696 356.273771 
L 898.680669 360.159247 
L 901.714642 389.360803 
L 904.748615 365.784108 
L 907.782589 361.251488 
L 910.816562 376.823874 
L 913.850535 374.352007 
L 916.884508 375.787182 
L 919.918482 376.084038 
L 922.952455 375.510418 
L 925.986428 376.107322 
L 929.020401 374.405113 
L 932.054375 377.766806 
L 935.088348 383.007898 
L 938.122321 360.533903 
L 941.156294 360.020382 
L 944.190268 344.094959 
L 947.224241 329.122822 
L 950.258214 325.154681 
L 953.292187 320.943198 
L 956.326161 320.990468 
L 959.360134 320.195415 
L 962.394107 319.540596 
L 965.42808 320.80403 
L 968.462054 314.165754 
L 971.496027 302.500997 
L 974.53 304.298172 
L 974.53 304.298172 
" clip-path="url(#ped787d064b)" style="fill: none; stroke: #ff7f0e; stroke-width: 1.2; stroke-linecap: round"/>
   </g>
   <g id="line2d_22">
    <path d="M 67.372 358.136394 
L 974.53 358.136394 
" clip-path="url(#ped787d064b)" style="fill: none; stroke-dasharray: 2.96,1.28; stroke-dashoffset: 0; stroke: #000000; stroke-width: 0.8"/>
   </g>
   <g id="patch_9">
    <path d="M 67.372 445.165 
L 67.372 250.868317 
" style="fill: none; stroke: #cccccc; stroke-linejoin: miter; stroke-linecap: square"/>
   </g>
   <g id="patch_10">
    <path d="M 974.53 445.165 
L 974.53 250.868317 
" style="fill: none; stroke: #cccccc; stroke-linejoin: miter; stroke-linecap: square"/>
   </g>
   <g id="patch_11">
    <path d="M 67.372 445.165 
L 974.53 445.165 
" style="fill: none; stroke: #cccccc; stroke-linejoin: miter; stroke-linecap: square"/>
   </g>
   <g id="patch_12">
    <path d="M 67.372 250.868317 
L 974.53 250.868317 
" style="fill: none; stroke: #cccccc; stroke-linejoin: miter; stroke-linecap: square"/>
   </g>
   <g id="legend_2">
    <g id="patch_13">
     <path d="M 79.692 290.264817 
L 250.53025 290.264817 
Q 254.05025 290.264817 254.05025 286.744817 
L 254.05025 263.188317 
Q 254.05025 259.668317 250.53025 259.668317 
L 79.692 259.668317 
Q 76.172 259.668317 76.172 263.188317 
L 76.172 286.744817 
Q 76.172 290.264817 79.692 290.264817 
z
" style="fill: #ffffff; opacity: 0.8; stroke: #cccccc; stroke-width: 0.8; stroke-linejoin: miter"/>
    </g>
    <g id="line2d_23">
     <path d="M 83.212 273.360567 
L 100.812 273.360567 
L 118.412 273.360567 
" style="fill: none; stroke: #ff7f0e; stroke-width: 1.2; stroke-linecap: round"/>
    </g>
    <g id="text_19">
     <!-- YoY % change -->
     <g style="fill: #262626" transform="translate(132.492 279.520567) scale(0.176 -0.176)">
      <use xlink:href="#ArialMT-59"/>
      <use xlink:href="#ArialMT-6f" transform="translate(57.574219 0)"/>
      <use xlink:href="#ArialMT-59" transform="translate(113.189453 0)"/>
      <use xlink:href="#ArialMT-20" transform="translate(178.138672 0)"/>
      <use xlink:href="#ArialMT-25" transform="translate(205.921875 0)"/>
      <use xlink:href="#ArialMT-20" transform="translate(294.837891 0)"/>
      <use xlink:href="#ArialMT-63" transform="translate(322.621094 0)"/>
      <use xlink:href="#ArialMT-68" transform="translate(372.621094 0)"/>
      <use xlink:href="#ArialMT-61" transform="translate(428.236328 0)"/>
      <use xlink:href="#ArialMT-6e" transform="translate(483.851562 0)"/>
      <use xlink:href="#ArialMT-67" transform="translate(539.466797 0)"/>
      <use xlink:href="#ArialMT-65" transform="translate(595.082031 0)"/>
     </g>
    </g>
   </g>
  </g>
 </g>
 <defs>
  <clipPath id="p006ac7b88a">
   <rect x="67.372" y="27.177" width="907.158" height="194.296683"/>
  </clipPath>
  <clipPath id="ped787d064b">
   <rect x="67.372" y="250.868317" width="907.158" height="194.296683"/>
  </clipPath>
 </defs>
</svg>
