<?xml version="1.0" encoding="utf-8" standalone="no"?>
<!DOCTYPE svg PUBLIC "-//W3C//DTD SVG 1.1//EN"
  "http://www.w3.org/Graphics/SVG/1.1/DTD/svg11.dtd">
<svg xmlns:xlink="http://www.w3.org/1999/xlink" width="980.288205pt" height="261.03975pt" viewBox="0 0 980.288205 261.03975" xmlns="http://www.w3.org/2000/svg" version="1.1">
 <metadata>
  <rdf:RDF xmlns:dc="http://purl.org/dc/elements/1.1/" xmlns:cc="http://creativecommons.org/ns#" xmlns:rdf="http://www.w3.org/1999/02/22-rdf-syntax-ns#">
   <cc:Work>
    <dc:type rdf:resource="http://purl.org/dc/dcmitype/StillImage"/>
    <dc:date>2026-03-31T21:16:15.773721</dc:date>
    <dc:format>image/svg+xml</dc:format>
    <dc:creator>
     <cc:Agent>
      <dc:title>Matplotlib v3.10.8, https://matplotlib.org/</dc:title>
     </cc:Agent>
    </dc:creator>
   </cc:Work>
  </rdf:RDF>
 </metadata>
 <defs>
  <style type="text/css">*{stroke-linejoin: round; stroke-linecap: butt}</style>
 </defs>
 <g id="figure_1">
  <g id="patch_1">
   <path d="M 0 261.03975 
L 980.288205 261.03975 
L 980.288205 0 
L 0 0 
z
" style="fill: #ffffff"/>
  </g>
  <g id="axes_1">
   <g id="patch_2">
    <path d="M 66.64575 207.885 
L 483.209807 207.885 
L 483.209807 27.177 
L 66.64575 27.177 
z
" style="fill: #ffffff"/>
   </g>
   <g id="matplotlib.axis_1">
    <g id="xtick_1">
     <g id="line2d_1">
      <path d="M 130.252005 207.885 
L 130.252005 27.177 
" clip-path="url(#p2068154c5d)" style="fill: none; stroke: #cccccc; stroke-width: 0.8; stroke-linecap: round"/>
     </g>
     <g id="text_1">
      <!-- 25 -->
      <g style="fill: #262626" transform="translate(120.464755 228.78275) scale(0.176 -0.176)">
       <defs>
        <path id="ArialMT-32" d="M 3222 541 
L 3222 0 
L 194 0 
Q 188 203 259 391 
Q 375 700 629 1000 
Q 884 1300 1366 1694 
Q 2113 2306 2375 2664 
Q 2638 3022 2638 3341 
Q 2638 3675 2398 3904 
Q 2159 4134 1775 4134 
Q 1369 4134 1125 3890 
Q 881 3647 878 3216 
L 300 3275 
Q 359 3922 746 4261 
Q 1134 4600 1788 4600 
Q 2447 4600 2831 4234 
Q 3216 3869 3216 3328 
Q 3216 3053 3103 2787 
Q 2991 2522 2730 2228 
Q 2469 1934 1863 1422 
Q 1356 997 1212 845 
Q 1069 694 975 541 
L 3222 541 
z
" transform="scale(0.015625)"/>
        <path id="ArialMT-35" d="M 266 1200 
L 856 1250 
Q 922 819 1161 601 
Q 1400 384 1738 384 
Q 2144 384 2425 690 
Q 2706 997 2706 1503 
Q 2706 1984 2436 2262 
Q 2166 2541 1728 2541 
Q 1456 2541 1237 2417 
Q 1019 2294 894 2097 
L 366 2166 
L 809 4519 
L 3088 4519 
L 3088 3981 
L 1259 3981 
L 1013 2750 
Q 1425 3038 1878 3038 
Q 2478 3038 2890 2622 
Q 3303 2206 3303 1553 
Q 3303 931 2941 478 
Q 2500 -78 1738 -78 
Q 1113 -78 717 272 
Q 322 622 266 1200 
z
" transform="scale(0.015625)"/>
       </defs>
       <use xlink:href="#ArialMT-32"/>
       <use xlink:href="#ArialMT-35" transform="translate(55.615234 0)"/>
      </g>
     </g>
    </g>
    <g id="xtick_2">
     <g id="line2d_2">
      <path d="M 199.660839 207.885 
L 199.660839 27.177 
" clip-path="url(#p2068154c5d)" style="fill: none; stroke: #cccccc; stroke-width: 0.8; stroke-linecap: round"/>
     </g>
     <g id="text_2">
      <!-- 50 -->
      <g style="fill: #262626" transform="translate(189.873589 228.78275) scale(0.176 -0.176)">
       <defs>
        <path id="ArialMT-30" d="M 266 2259 
Q 266 3072 433 3567 
Q 600 4063 929 4331 
Q 1259 4600 1759 4600 
Q 2128 4600 2406 4451 
Q 2684 4303 2865 4023 
Q 3047 3744 3150 3342 
Q 3253 2941 3253 2259 
Q 3253 1453 3087 958 
Q 2922 463 2592 192 
Q 2263 -78 1759 -78 
Q 1097 -78 719 397 
Q 266 969 266 2259 
z
M 844 2259 
Q 844 1131 1108 757 
Q 1372 384 1759 384 
Q 2147 384 2411 759 
Q 2675 1134 2675 2259 
Q 2675 3391 2411 3762 
Q 2147 4134 1753 4134 
Q 1366 4134 1134 3806 
Q 844 3388 844 2259 
z
" transform="scale(0.015625)"/>
       </defs>
       <use xlink:href="#ArialMT-35"/>
       <use xlink:href="#ArialMT-30" transform="translate(55.615234 0)"/>
      </g>
     </g>
    </g>
    <g id="xtick_3">
     <g id="line2d_3">
      <path d="M 269.069673 207.885 
L 269.069673 27.177 
" clip-path="url(#p2068154c5d)" style="fill: none; stroke: #cccccc; stroke-width: 0.8; stroke-linecap: round"/>
     </g>
     <g id="text_3">
      <!-- 75 -->
      <g style="fill: #262626" transform="translate(259.282423 228.78275) scale(0.176 -0.176)">
       <defs>
        <path id="ArialMT-37" d="M 303 3981 
L 303 4522 
L 3269 4522 
L 3269 4084 
Q 2831 3619 2401 2847 
Q 1972 2075 1738 1259 
Q 1569 684 1522 0 
L 944 0 
Q 953 541 1156 1306 
Q 1359 2072 1739 2783 
Q 2119 3494 2547 3981 
L 303 3981 
z
" transform="scale(0.015625)"/>
       </defs>
       <use xlink:href="#ArialMT-37"/>
       <use xlink:href="#ArialMT-35" transform="translate(55.615234 0)"/>
      </g>
     </g>
    </g>
    <g id="xtick_4">
     <g id="line2d_4">
      <path d="M 338.478506 207.885 
L 338.478506 27.177 
" clip-path="url(#p2068154c5d)" style="fill: none; stroke: #cccccc; stroke-width: 0.8; stroke-linecap: round"/>
     </g>
     <g id="text_4">
      <!-- 100 -->
      <g style="fill: #262626" transform="translate(323.797631 228.78275) scale(0.176 -0.176)">
       <defs>
        <path id="ArialMT-31" d="M 2384 0 
L 1822 0 
L 1822 3584 
Q 1619 3391 1289 3197 
Q 959 3003 697 2906 
L 697 3450 
Q 1169 3672 1522 3987 
Q 1875 4303 2022 4600 
L 2384 4600 
L 2384 0 
z
" transform="scale(0.015625)"/>
       </defs>
       <use xlink:href="#ArialMT-31"/>
       <use xlink:href="#ArialMT-30" transform="translate(55.615234 0)"/>
       <use xlink:href="#ArialMT-30" transform="translate(111.230469 0)"/>
      </g>
     </g>
    </g>
    <g id="xtick_5">
     <g id="line2d_5">
      <path d="M 407.88734 207.885 
L 407.88734 27.177 
" clip-path="url(#p2068154c5d)" style="fill: none; stroke: #cccccc; stroke-width: 0.8; stroke-linecap: round"/>
     </g>
     <g id="text_5">
      <!-- 125 -->
      <g style="fill: #262626" transform="translate(393.206465 228.78275) scale(0.176 -0.176)">
       <use xlink:href="#ArialMT-31"/>
       <use xlink:href="#ArialMT-32" transform="translate(55.615234 0)"/>
       <use xlink:href="#ArialMT-35" transform="translate(111.230469 0)"/>
      </g>
     </g>
    </g>
    <g id="xtick_6">
     <g id="line2d_6">
      <path d="M 477.296174 207.885 
L 477.296174 27.177 
" clip-path="url(#p2068154c5d)" style="fill: none; stroke: #cccccc; stroke-width: 0.8; stroke-linecap: round"/>
     </g>
     <g id="text_6">
      <!-- 150 -->
      <g style="fill: #262626" transform="translate(462.615299 228.78275) scale(0.176 -0.176)">
       <use xlink:href="#ArialMT-31"/>
       <use xlink:href="#ArialMT-35" transform="translate(55.615234 0)"/>
       <use xlink:href="#ArialMT-30" transform="translate(111.230469 0)"/>
      </g>
     </g>
    </g>
    <g id="text_7">
     <!-- USD / barrel -->
     <g style="fill: #262626" transform="translate(222.115778 250.02375) scale(0.192 -0.192)">
      <defs>
       <path id="ArialMT-55" d="M 3500 4581 
L 4106 4581 
L 4106 1934 
Q 4106 1244 3950 837 
Q 3794 431 3386 176 
Q 2978 -78 2316 -78 
Q 1672 -78 1262 144 
Q 853 366 678 786 
Q 503 1206 503 1934 
L 503 4581 
L 1109 4581 
L 1109 1938 
Q 1109 1341 1220 1058 
Q 1331 775 1601 622 
Q 1872 469 2263 469 
Q 2931 469 3215 772 
Q 3500 1075 3500 1938 
L 3500 4581 
z
" transform="scale(0.015625)"/>
       <path id="ArialMT-53" d="M 288 1472 
L 859 1522 
Q 900 1178 1048 958 
Q 1197 738 1509 602 
Q 1822 466 2213 466 
Q 2559 466 2825 569 
Q 3091 672 3220 851 
Q 3350 1031 3350 1244 
Q 3350 1459 3225 1620 
Q 3100 1781 2813 1891 
Q 2628 1963 1997 2114 
Q 1366 2266 1113 2400 
Q 784 2572 623 2826 
Q 463 3081 463 3397 
Q 463 3744 659 4045 
Q 856 4347 1234 4503 
Q 1613 4659 2075 4659 
Q 2584 4659 2973 4495 
Q 3363 4331 3572 4012 
Q 3781 3694 3797 3291 
L 3216 3247 
Q 3169 3681 2898 3903 
Q 2628 4125 2100 4125 
Q 1550 4125 1298 3923 
Q 1047 3722 1047 3438 
Q 1047 3191 1225 3031 
Q 1400 2872 2139 2705 
Q 2878 2538 3153 2413 
Q 3553 2228 3743 1945 
Q 3934 1663 3934 1294 
Q 3934 928 3725 604 
Q 3516 281 3123 101 
Q 2731 -78 2241 -78 
Q 1619 -78 1198 103 
Q 778 284 539 648 
Q 300 1013 288 1472 
z
" transform="scale(0.015625)"/>
       <path id="ArialMT-44" d="M 494 0 
L 494 4581 
L 2072 4581 
Q 2606 4581 2888 4516 
Q 3281 4425 3559 4188 
Q 3922 3881 4101 3404 
Q 4281 2928 4281 2316 
Q 4281 1794 4159 1391 
Q 4038 988 3847 723 
Q 3656 459 3429 307 
Q 3203 156 2883 78 
Q 2563 0 2147 0 
L 494 0 
z
M 1100 541 
L 2078 541 
Q 2531 541 2789 625 
Q 3047 709 3200 863 
Q 3416 1078 3536 1442 
Q 3656 1806 3656 2325 
Q 3656 3044 3420 3430 
Q 3184 3816 2847 3947 
Q 2603 4041 2063 4041 
L 1100 4041 
L 1100 541 
z
" transform="scale(0.015625)"/>
       <path id="ArialMT-20" transform="scale(0.015625)"/>
       <path id="ArialMT-2f" d="M 0 -78 
L 1328 4659 
L 1778 4659 
L 453 -78 
L 0 -78 
z
" transform="scale(0.015625)"/>
       <path id="ArialMT-62" d="M 941 0 
L 419 0 
L 419 4581 
L 981 4581 
L 981 2947 
Q 1338 3394 1891 3394 
Q 2197 3394 2470 3270 
Q 2744 3147 2920 2923 
Q 3097 2700 3197 2384 
Q 3297 2069 3297 1709 
Q 3297 856 2875 390 
Q 2453 -75 1863 -75 
Q 1275 -75 941 416 
L 941 0 
z
M 934 1684 
Q 934 1088 1097 822 
Q 1363 388 1816 388 
Q 2184 388 2453 708 
Q 2722 1028 2722 1663 
Q 2722 2313 2464 2622 
Q 2206 2931 1841 2931 
Q 1472 2931 1203 2611 
Q 934 2291 934 1684 
z
" transform="scale(0.015625)"/>
       <path id="ArialMT-61" d="M 2588 409 
Q 2275 144 1986 34 
Q 1697 -75 1366 -75 
Q 819 -75 525 192 
Q 231 459 231 875 
Q 231 1119 342 1320 
Q 453 1522 633 1644 
Q 813 1766 1038 1828 
Q 1203 1872 1538 1913 
Q 2219 1994 2541 2106 
Q 2544 2222 2544 2253 
Q 2544 2597 2384 2738 
Q 2169 2928 1744 2928 
Q 1347 2928 1158 2789 
Q 969 2650 878 2297 
L 328 2372 
Q 403 2725 575 2942 
Q 747 3159 1072 3276 
Q 1397 3394 1825 3394 
Q 2250 3394 2515 3294 
Q 2781 3194 2906 3042 
Q 3031 2891 3081 2659 
Q 3109 2516 3109 2141 
L 3109 1391 
Q 3109 606 3145 398 
Q 3181 191 3288 0 
L 2700 0 
Q 2613 175 2588 409 
z
M 2541 1666 
Q 2234 1541 1622 1453 
Q 1275 1403 1131 1340 
Q 988 1278 909 1158 
Q 831 1038 831 891 
Q 831 666 1001 516 
Q 1172 366 1500 366 
Q 1825 366 2078 508 
Q 2331 650 2450 897 
Q 2541 1088 2541 1459 
L 2541 1666 
z
" transform="scale(0.015625)"/>
       <path id="ArialMT-72" d="M 416 0 
L 416 3319 
L 922 3319 
L 922 2816 
Q 1116 3169 1280 3281 
Q 1444 3394 1641 3394 
Q 1925 3394 2219 3213 
L 2025 2691 
Q 1819 2813 1613 2813 
Q 1428 2813 1281 2702 
Q 1134 2591 1072 2394 
Q 978 2094 978 1738 
L 978 0 
L 416 0 
z
" transform="scale(0.015625)"/>
       <path id="ArialMT-65" d="M 2694 1069 
L 3275 997 
Q 3138 488 2766 206 
Q 2394 -75 1816 -75 
Q 1088 -75 661 373 
Q 234 822 234 1631 
Q 234 2469 665 2931 
Q 1097 3394 1784 3394 
Q 2450 3394 2872 2941 
Q 3294 2488 3294 1666 
Q 3294 1616 3291 1516 
L 816 1516 
Q 847 969 1125 678 
Q 1403 388 1819 388 
Q 2128 388 2347 550 
Q 2566 713 2694 1069 
z
M 847 1978 
L 2700 1978 
Q 2663 2397 2488 2606 
Q 2219 2931 1791 2931 
Q 1403 2931 1139 2672 
Q 875 2413 847 1978 
z
" transform="scale(0.015625)"/>
       <path id="ArialMT-6c" d="M 409 0 
L 409 4581 
L 972 4581 
L 972 0 
L 409 0 
z
" transform="scale(0.015625)"/>
      </defs>
      <use xlink:href="#ArialMT-55"/>
      <use xlink:href="#ArialMT-53" transform="translate(72.216797 0)"/>
      <use xlink:href="#ArialMT-44" transform="translate(138.916016 0)"/>
      <use xlink:href="#ArialMT-20" transform="translate(211.132812 0)"/>
      <use xlink:href="#ArialMT-2f" transform="translate(238.916016 0)"/>
      <use xlink:href="#ArialMT-20" transform="translate(266.699219 0)"/>
      <use xlink:href="#ArialMT-62" transform="translate(294.482422 0)"/>
      <use xlink:href="#ArialMT-61" transform="translate(350.097656 0)"/>
      <use xlink:href="#ArialMT-72" transform="translate(405.712891 0)"/>
      <use xlink:href="#ArialMT-72" transform="translate(439.013672 0)"/>
      <use xlink:href="#ArialMT-65" transform="translate(472.314453 0)"/>
      <use xlink:href="#ArialMT-6c" transform="translate(527.929688 0)"/>
     </g>
    </g>
   </g>
   <g id="matplotlib.axis_2">
    <g id="ytick_1">
     <g id="line2d_7">
      <path d="M 66.64575 207.885 
L 483.209807 207.885 
" clip-path="url(#p2068154c5d)" style="fill: none; stroke: #cccccc; stroke-width: 0.8; stroke-linecap: round"/>
     </g>
     <g id="text_8">
      <!-- 0 -->
      <g style="fill: #262626" transform="translate(48.5585 214.183875) scale(0.176 -0.176)">
       <use xlink:href="#ArialMT-30"/>
      </g>
     </g>
    </g>
    <g id="ytick_2">
     <g id="line2d_8">
      <path d="M 66.64575 163.98121 
L 483.209807 163.98121 
" clip-path="url(#p2068154c5d)" style="fill: none; stroke: #cccccc; stroke-width: 0.8; stroke-linecap: round"/>
     </g>
     <g id="text_9">
      <!-- 100 -->
      <g style="fill: #262626" transform="translate(28.984 170.280085) scale(0.176 -0.176)">
       <use xlink:href="#ArialMT-31"/>
       <use xlink:href="#ArialMT-30" transform="translate(55.615234 0)"/>
       <use xlink:href="#ArialMT-30" transform="translate(111.230469 0)"/>
      </g>
     </g>
    </g>
    <g id="ytick_3">
     <g id="line2d_9">
      <path d="M 66.64575 120.07742 
L 483.209807 120.07742 
" clip-path="url(#p2068154c5d)" style="fill: none; stroke: #cccccc; stroke-width: 0.8; stroke-linecap: round"/>
     </g>
     <g id="text_10">
      <!-- 200 -->
      <g style="fill: #262626" transform="translate(28.984 126.376295) scale(0.176 -0.176)">
       <use xlink:href="#ArialMT-32"/>
       <use xlink:href="#ArialMT-30" transform="translate(55.615234 0)"/>
       <use xlink:href="#ArialMT-30" transform="translate(111.230469 0)"/>
      </g>
     </g>
    </g>
    <g id="ytick_4">
     <g id="line2d_10">
      <path d="M 66.64575 76.17363 
L 483.209807 76.17363 
" clip-path="url(#p2068154c5d)" style="fill: none; stroke: #cccccc; stroke-width: 0.8; stroke-linecap: round"/>
     </g>
     <g id="text_11">
      <!-- 300 -->
      <g style="fill: #262626" transform="translate(28.984 82.472505) scale(0.176 -0.176)">
       <defs>
        <path id="ArialMT-33" d="M 269 1209 
L 831 1284 
Q 928 806 1161 595 
Q 1394 384 1728 384 
Q 2125 384 2398 659 
Q 2672 934 2672 1341 
Q 2672 1728 2419 1979 
Q 2166 2231 1775 2231 
Q 1616 2231 1378 2169 
L 1441 2663 
Q 1497 2656 1531 2656 
Q 1891 2656 2178 2843 
Q 2466 3031 2466 3422 
Q 2466 3731 2256 3934 
Q 2047 4138 1716 4138 
Q 1388 4138 1169 3931 
Q 950 3725 888 3313 
L 325 3413 
Q 428 3978 793 4289 
Q 1159 4600 1703 4600 
Q 2078 4600 2393 4439 
Q 2709 4278 2876 4000 
Q 3044 3722 3044 3409 
Q 3044 3113 2884 2869 
Q 2725 2625 2413 2481 
Q 2819 2388 3044 2092 
Q 3269 1797 3269 1353 
Q 3269 753 2831 336 
Q 2394 -81 1725 -81 
Q 1122 -81 723 278 
Q 325 638 269 1209 
z
" transform="scale(0.015625)"/>
       </defs>
       <use xlink:href="#ArialMT-33"/>
       <use xlink:href="#ArialMT-30" transform="translate(55.615234 0)"/>
       <use xlink:href="#ArialMT-30" transform="translate(111.230469 0)"/>
      </g>
     </g>
    </g>
    <g id="ytick_5">
     <g id="line2d_11">
      <path d="M 66.64575 32.26984 
L 483.209807 32.26984 
" clip-path="url(#p2068154c5d)" style="fill: none; stroke: #cccccc; stroke-width: 0.8; stroke-linecap: round"/>
     </g>
     <g id="text_12">
      <!-- 400 -->
      <g style="fill: #262626" transform="translate(28.984 38.568715) scale(0.176 -0.176)">
       <defs>
        <path id="ArialMT-34" d="M 2069 0 
L 2069 1097 
L 81 1097 
L 81 1613 
L 2172 4581 
L 2631 4581 
L 2631 1613 
L 3250 1613 
L 3250 1097 
L 2631 1097 
L 2631 0 
L 2069 0 
z
M 2069 1613 
L 2069 3678 
L 634 1613 
L 2069 1613 
z
" transform="scale(0.015625)"/>
       </defs>
       <use xlink:href="#ArialMT-34"/>
       <use xlink:href="#ArialMT-30" transform="translate(55.615234 0)"/>
       <use xlink:href="#ArialMT-30" transform="translate(111.230469 0)"/>
      </g>
     </g>
    </g>
    <g id="text_13">
     <!-- Frequency -->
     <g style="fill: #262626" transform="translate(20.943 162.8835) rotate(-90) scale(0.192 -0.192)">
      <defs>
       <path id="ArialMT-46" d="M 525 0 
L 525 4581 
L 3616 4581 
L 3616 4041 
L 1131 4041 
L 1131 2622 
L 3281 2622 
L 3281 2081 
L 1131 2081 
L 1131 0 
L 525 0 
z
" transform="scale(0.015625)"/>
       <path id="ArialMT-71" d="M 2538 -1272 
L 2538 353 
Q 2406 169 2170 47 
Q 1934 -75 1669 -75 
Q 1078 -75 651 397 
Q 225 869 225 1691 
Q 225 2191 398 2587 
Q 572 2984 901 3189 
Q 1231 3394 1625 3394 
Q 2241 3394 2594 2875 
L 2594 3319 
L 3100 3319 
L 3100 -1272 
L 2538 -1272 
z
M 803 1669 
Q 803 1028 1072 708 
Q 1341 388 1716 388 
Q 2075 388 2334 692 
Q 2594 997 2594 1619 
Q 2594 2281 2320 2615 
Q 2047 2950 1678 2950 
Q 1313 2950 1058 2639 
Q 803 2328 803 1669 
z
" transform="scale(0.015625)"/>
       <path id="ArialMT-75" d="M 2597 0 
L 2597 488 
Q 2209 -75 1544 -75 
Q 1250 -75 995 37 
Q 741 150 617 320 
Q 494 491 444 738 
Q 409 903 409 1263 
L 409 3319 
L 972 3319 
L 972 1478 
Q 972 1038 1006 884 
Q 1059 663 1231 536 
Q 1403 409 1656 409 
Q 1909 409 2131 539 
Q 2353 669 2445 892 
Q 2538 1116 2538 1541 
L 2538 3319 
L 3100 3319 
L 3100 0 
L 2597 0 
z
" transform="scale(0.015625)"/>
       <path id="ArialMT-6e" d="M 422 0 
L 422 3319 
L 928 3319 
L 928 2847 
Q 1294 3394 1984 3394 
Q 2284 3394 2536 3286 
Q 2788 3178 2913 3003 
Q 3038 2828 3088 2588 
Q 3119 2431 3119 2041 
L 3119 0 
L 2556 0 
L 2556 2019 
Q 2556 2363 2490 2533 
Q 2425 2703 2258 2804 
Q 2091 2906 1866 2906 
Q 1506 2906 1245 2678 
Q 984 2450 984 1813 
L 984 0 
L 422 0 
z
" transform="scale(0.015625)"/>
       <path id="ArialMT-63" d="M 2588 1216 
L 3141 1144 
Q 3050 572 2676 248 
Q 2303 -75 1759 -75 
Q 1078 -75 664 370 
Q 250 816 250 1647 
Q 250 2184 428 2587 
Q 606 2991 970 3192 
Q 1334 3394 1763 3394 
Q 2303 3394 2647 3120 
Q 2991 2847 3088 2344 
L 2541 2259 
Q 2463 2594 2264 2762 
Q 2066 2931 1784 2931 
Q 1359 2931 1093 2626 
Q 828 2322 828 1663 
Q 828 994 1084 691 
Q 1341 388 1753 388 
Q 2084 388 2306 591 
Q 2528 794 2588 1216 
z
" transform="scale(0.015625)"/>
       <path id="ArialMT-79" d="M 397 -1278 
L 334 -750 
Q 519 -800 656 -800 
Q 844 -800 956 -737 
Q 1069 -675 1141 -563 
Q 1194 -478 1313 -144 
Q 1328 -97 1363 -6 
L 103 3319 
L 709 3319 
L 1400 1397 
Q 1534 1031 1641 628 
Q 1738 1016 1872 1384 
L 2581 3319 
L 3144 3319 
L 1881 -56 
Q 1678 -603 1566 -809 
Q 1416 -1088 1222 -1217 
Q 1028 -1347 759 -1347 
Q 597 -1347 397 -1278 
z
" transform="scale(0.015625)"/>
      </defs>
      <use xlink:href="#ArialMT-46"/>
      <use xlink:href="#ArialMT-72" transform="translate(61.083984 0)"/>
      <use xlink:href="#ArialMT-65" transform="translate(94.384766 0)"/>
      <use xlink:href="#ArialMT-71" transform="translate(150 0)"/>
      <use xlink:href="#ArialMT-75" transform="translate(205.615234 0)"/>
      <use xlink:href="#ArialMT-65" transform="translate(261.230469 0)"/>
      <use xlink:href="#ArialMT-6e" transform="translate(316.845703 0)"/>
      <use xlink:href="#ArialMT-63" transform="translate(372.460938 0)"/>
      <use xlink:href="#ArialMT-79" transform="translate(422.460938 0)"/>
     </g>
    </g>
   </g>
   <g id="patch_3">
    <path d="M 85.58048 207.885 
L 91.892056 207.885 
L 91.892056 207.445962 
L 85.58048 207.445962 
z
" clip-path="url(#p2068154c5d)" style="fill: #8c564b; stroke: #ffffff; stroke-width: 0.3; stroke-linejoin: miter"/>
   </g>
   <g id="patch_4">
    <path d="M 91.892056 207.885 
L 98.203633 207.885 
L 98.203633 206.567886 
L 91.892056 206.567886 
z
" clip-path="url(#p2068154c5d)" style="fill: #8c564b; stroke: #ffffff; stroke-width: 0.3; stroke-linejoin: miter"/>
   </g>
   <g id="patch_5">
    <path d="M 98.203633 207.885 
L 104.51521 207.885 
L 104.51521 204.372697 
L 98.203633 204.372697 
z
" clip-path="url(#p2068154c5d)" style="fill: #8c564b; stroke: #ffffff; stroke-width: 0.3; stroke-linejoin: miter"/>
   </g>
   <g id="patch_6">
    <path d="M 104.51521 207.885 
L 110.826786 207.885 
L 110.826786 205.250773 
L 104.51521 205.250773 
z
" clip-path="url(#p2068154c5d)" style="fill: #8c564b; stroke: #ffffff; stroke-width: 0.3; stroke-linejoin: miter"/>
   </g>
   <g id="patch_7">
    <path d="M 110.826786 207.885 
L 117.138363 207.885 
L 117.138363 171.444854 
L 110.826786 171.444854 
z
" clip-path="url(#p2068154c5d)" style="fill: #8c564b; stroke: #ffffff; stroke-width: 0.3; stroke-linejoin: miter"/>
   </g>
   <g id="patch_8">
    <path d="M 117.138363 207.885 
L 123.44994 207.885 
L 123.44994 171.005816 
L 117.138363 171.005816 
z
" clip-path="url(#p2068154c5d)" style="fill: #8c564b; stroke: #ffffff; stroke-width: 0.3; stroke-linejoin: miter"/>
   </g>
   <g id="patch_9">
    <path d="M 123.44994 207.885 
L 129.761516 207.885 
L 129.761516 181.542726 
L 123.44994 181.542726 
z
" clip-path="url(#p2068154c5d)" style="fill: #8c564b; stroke: #ffffff; stroke-width: 0.3; stroke-linejoin: miter"/>
   </g>
   <g id="patch_10">
    <path d="M 129.761516 207.885 
L 136.073093 207.885 
L 136.073093 84.954388 
L 129.761516 84.954388 
z
" clip-path="url(#p2068154c5d)" style="fill: #8c564b; stroke: #ffffff; stroke-width: 0.3; stroke-linejoin: miter"/>
   </g>
   <g id="patch_11">
    <path d="M 136.073093 207.885 
L 142.384669 207.885 
L 142.384669 35.782143 
L 136.073093 35.782143 
z
" clip-path="url(#p2068154c5d)" style="fill: #8c564b; stroke: #ffffff; stroke-width: 0.3; stroke-linejoin: miter"/>
   </g>
   <g id="patch_12">
    <path d="M 142.384669 207.885 
L 148.696246 207.885 
L 148.696246 45.001939 
L 142.384669 45.001939 
z
" clip-path="url(#p2068154c5d)" style="fill: #8c564b; stroke: #ffffff; stroke-width: 0.3; stroke-linejoin: miter"/>
   </g>
   <g id="patch_13">
    <path d="M 148.696246 207.885 
L 155.007823 207.885 
L 155.007823 106.906283 
L 148.696246 106.906283 
z
" clip-path="url(#p2068154c5d)" style="fill: #8c564b; stroke: #ffffff; stroke-width: 0.3; stroke-linejoin: miter"/>
   </g>
   <g id="patch_14">
    <path d="M 155.007823 207.885 
L 161.319399 207.885 
L 161.319399 139.395087 
L 155.007823 139.395087 
z
" clip-path="url(#p2068154c5d)" style="fill: #8c564b; stroke: #ffffff; stroke-width: 0.3; stroke-linejoin: miter"/>
   </g>
   <g id="patch_15">
    <path d="M 161.319399 207.885 
L 167.630976 207.885 
L 167.630976 121.394534 
L 161.319399 121.394534 
z
" clip-path="url(#p2068154c5d)" style="fill: #8c564b; stroke: #ffffff; stroke-width: 0.3; stroke-linejoin: miter"/>
   </g>
   <g id="patch_16">
    <path d="M 167.630976 207.885 
L 173.942552 207.885 
L 173.942552 133.687595 
L 167.630976 133.687595 
z
" clip-path="url(#p2068154c5d)" style="fill: #8c564b; stroke: #ffffff; stroke-width: 0.3; stroke-linejoin: miter"/>
   </g>
   <g id="patch_17">
    <path d="M 173.942552 207.885 
L 180.254129 207.885 
L 180.254129 125.784913 
L 173.942552 125.784913 
z
" clip-path="url(#p2068154c5d)" style="fill: #8c564b; stroke: #ffffff; stroke-width: 0.3; stroke-linejoin: miter"/>
   </g>
   <g id="patch_18">
    <path d="M 180.254129 207.885 
L 186.565706 207.885 
L 186.565706 126.662988 
L 180.254129 126.662988 
z
" clip-path="url(#p2068154c5d)" style="fill: #8c564b; stroke: #ffffff; stroke-width: 0.3; stroke-linejoin: miter"/>
   </g>
   <g id="patch_19">
    <path d="M 186.565706 207.885 
L 192.877282 207.885 
L 192.877282 76.17363 
L 186.565706 76.17363 
z
" clip-path="url(#p2068154c5d)" style="fill: #8c564b; stroke: #ffffff; stroke-width: 0.3; stroke-linejoin: miter"/>
   </g>
   <g id="patch_20">
    <path d="M 192.877282 207.885 
L 199.188859 207.885 
L 199.188859 68.709985 
L 192.877282 68.709985 
z
" clip-path="url(#p2068154c5d)" style="fill: #8c564b; stroke: #ffffff; stroke-width: 0.3; stroke-linejoin: miter"/>
   </g>
   <g id="patch_21">
    <path d="M 199.188859 207.885 
L 205.500436 207.885 
L 205.500436 94.613222 
L 199.188859 94.613222 
z
" clip-path="url(#p2068154c5d)" style="fill: #8c564b; stroke: #ffffff; stroke-width: 0.3; stroke-linejoin: miter"/>
   </g>
   <g id="patch_22">
    <path d="M 205.500436 207.885 
L 211.812012 207.885 
L 211.812012 71.344213 
L 205.500436 71.344213 
z
" clip-path="url(#p2068154c5d)" style="fill: #8c564b; stroke: #ffffff; stroke-width: 0.3; stroke-linejoin: miter"/>
   </g>
   <g id="patch_23">
    <path d="M 211.812012 207.885 
L 218.123589 207.885 
L 218.123589 118.321268 
L 211.812012 118.321268 
z
" clip-path="url(#p2068154c5d)" style="fill: #8c564b; stroke: #ffffff; stroke-width: 0.3; stroke-linejoin: miter"/>
   </g>
   <g id="patch_24">
    <path d="M 218.123589 207.885 
L 224.435165 207.885 
L 224.435165 61.685379 
L 218.123589 61.685379 
z
" clip-path="url(#p2068154c5d)" style="fill: #8c564b; stroke: #ffffff; stroke-width: 0.3; stroke-linejoin: miter"/>
   </g>
   <g id="patch_25">
    <path d="M 224.435165 207.885 
L 230.746742 207.885 
L 230.746742 46.75809 
L 224.435165 46.75809 
z
" clip-path="url(#p2068154c5d)" style="fill: #8c564b; stroke: #ffffff; stroke-width: 0.3; stroke-linejoin: miter"/>
   </g>
   <g id="patch_26">
    <path d="M 230.746742 207.885 
L 237.058319 207.885 
L 237.058319 54.221735 
L 230.746742 54.221735 
z
" clip-path="url(#p2068154c5d)" style="fill: #8c564b; stroke: #ffffff; stroke-width: 0.3; stroke-linejoin: miter"/>
   </g>
   <g id="patch_27">
    <path d="M 237.058319 207.885 
L 243.369895 207.885 
L 243.369895 76.612668 
L 237.058319 76.612668 
z
" clip-path="url(#p2068154c5d)" style="fill: #8c564b; stroke: #ffffff; stroke-width: 0.3; stroke-linejoin: miter"/>
   </g>
   <g id="patch_28">
    <path d="M 243.369895 207.885 
L 249.681472 207.885 
L 249.681472 94.174184 
L 243.369895 94.174184 
z
" clip-path="url(#p2068154c5d)" style="fill: #8c564b; stroke: #ffffff; stroke-width: 0.3; stroke-linejoin: miter"/>
   </g>
   <g id="patch_29">
    <path d="M 249.681472 207.885 
L 255.993048 207.885 
L 255.993048 52.904621 
L 249.681472 52.904621 
z
" clip-path="url(#p2068154c5d)" style="fill: #8c564b; stroke: #ffffff; stroke-width: 0.3; stroke-linejoin: miter"/>
   </g>
   <g id="patch_30">
    <path d="M 255.993048 207.885 
L 262.304625 207.885 
L 262.304625 41.928673 
L 255.993048 41.928673 
z
" clip-path="url(#p2068154c5d)" style="fill: #8c564b; stroke: #ffffff; stroke-width: 0.3; stroke-linejoin: miter"/>
   </g>
   <g id="patch_31">
    <path d="M 262.304625 207.885 
L 268.616202 207.885 
L 268.616202 69.588061 
L 262.304625 69.588061 
z
" clip-path="url(#p2068154c5d)" style="fill: #8c564b; stroke: #ffffff; stroke-width: 0.3; stroke-linejoin: miter"/>
   </g>
   <g id="patch_32">
    <path d="M 268.616202 207.885 
L 274.927778 207.885 
L 274.927778 101.19879 
L 268.616202 101.19879 
z
" clip-path="url(#p2068154c5d)" style="fill: #8c564b; stroke: #ffffff; stroke-width: 0.3; stroke-linejoin: miter"/>
   </g>
   <g id="patch_33">
    <path d="M 274.927778 207.885 
L 281.239355 207.885 
L 281.239355 104.272055 
L 274.927778 104.272055 
z
" clip-path="url(#p2068154c5d)" style="fill: #8c564b; stroke: #ffffff; stroke-width: 0.3; stroke-linejoin: miter"/>
   </g>
   <g id="patch_34">
    <path d="M 281.239355 207.885 
L 287.550931 207.885 
L 287.550931 89.783805 
L 281.239355 89.783805 
z
" clip-path="url(#p2068154c5d)" style="fill: #8c564b; stroke: #ffffff; stroke-width: 0.3; stroke-linejoin: miter"/>
   </g>
   <g id="patch_35">
    <path d="M 287.550931 207.885 
L 293.862508 207.885 
L 293.862508 122.272609 
L 287.550931 122.272609 
z
" clip-path="url(#p2068154c5d)" style="fill: #8c564b; stroke: #ffffff; stroke-width: 0.3; stroke-linejoin: miter"/>
   </g>
   <g id="patch_36">
    <path d="M 293.862508 207.885 
L 300.174085 207.885 
L 300.174085 124.028761 
L 293.862508 124.028761 
z
" clip-path="url(#p2068154c5d)" style="fill: #8c564b; stroke: #ffffff; stroke-width: 0.3; stroke-linejoin: miter"/>
   </g>
   <g id="patch_37">
    <path d="M 300.174085 207.885 
L 306.485661 207.885 
L 306.485661 124.906837 
L 300.174085 124.906837 
z
" clip-path="url(#p2068154c5d)" style="fill: #8c564b; stroke: #ffffff; stroke-width: 0.3; stroke-linejoin: miter"/>
   </g>
   <g id="patch_38">
    <path d="M 306.485661 207.885 
L 312.797238 207.885 
L 312.797238 140.712201 
L 306.485661 140.712201 
z
" clip-path="url(#p2068154c5d)" style="fill: #8c564b; stroke: #ffffff; stroke-width: 0.3; stroke-linejoin: miter"/>
   </g>
   <g id="patch_39">
    <path d="M 312.797238 207.885 
L 319.108815 207.885 
L 319.108815 121.394534 
L 312.797238 121.394534 
z
" clip-path="url(#p2068154c5d)" style="fill: #8c564b; stroke: #ffffff; stroke-width: 0.3; stroke-linejoin: miter"/>
   </g>
   <g id="patch_40">
    <path d="M 319.108815 207.885 
L 325.420391 207.885 
L 325.420391 111.7357 
L 319.108815 111.7357 
z
" clip-path="url(#p2068154c5d)" style="fill: #8c564b; stroke: #ffffff; stroke-width: 0.3; stroke-linejoin: miter"/>
   </g>
   <g id="patch_41">
    <path d="M 325.420391 207.885 
L 331.731968 207.885 
L 331.731968 102.076866 
L 325.420391 102.076866 
z
" clip-path="url(#p2068154c5d)" style="fill: #8c564b; stroke: #ffffff; stroke-width: 0.3; stroke-linejoin: miter"/>
   </g>
   <g id="patch_42">
    <path d="M 331.731968 207.885 
L 338.043544 207.885 
L 338.043544 127.102026 
L 331.731968 127.102026 
z
" clip-path="url(#p2068154c5d)" style="fill: #8c564b; stroke: #ffffff; stroke-width: 0.3; stroke-linejoin: miter"/>
   </g>
   <g id="patch_43">
    <path d="M 338.043544 207.885 
L 344.355121 207.885 
L 344.355121 143.785466 
L 338.043544 143.785466 
z
" clip-path="url(#p2068154c5d)" style="fill: #8c564b; stroke: #ffffff; stroke-width: 0.3; stroke-linejoin: miter"/>
   </g>
   <g id="patch_44">
    <path d="M 344.355121 207.885 
L 350.666698 207.885 
L 350.666698 135.882784 
L 344.355121 135.882784 
z
" clip-path="url(#p2068154c5d)" style="fill: #8c564b; stroke: #ffffff; stroke-width: 0.3; stroke-linejoin: miter"/>
   </g>
   <g id="patch_45">
    <path d="M 350.666698 207.885 
L 356.978274 207.885 
L 356.978274 148.175845 
L 350.666698 148.175845 
z
" clip-path="url(#p2068154c5d)" style="fill: #8c564b; stroke: #ffffff; stroke-width: 0.3; stroke-linejoin: miter"/>
   </g>
   <g id="patch_46">
    <path d="M 356.978274 207.885 
L 363.289851 207.885 
L 363.289851 160.907945 
L 356.978274 160.907945 
z
" clip-path="url(#p2068154c5d)" style="fill: #8c564b; stroke: #ffffff; stroke-width: 0.3; stroke-linejoin: miter"/>
   </g>
   <g id="patch_47">
    <path d="M 363.289851 207.885 
L 369.601427 207.885 
L 369.601427 187.689257 
L 363.289851 187.689257 
z
" clip-path="url(#p2068154c5d)" style="fill: #8c564b; stroke: #ffffff; stroke-width: 0.3; stroke-linejoin: miter"/>
   </g>
   <g id="patch_48">
    <path d="M 369.601427 207.885 
L 375.913004 207.885 
L 375.913004 192.518673 
L 369.601427 192.518673 
z
" clip-path="url(#p2068154c5d)" style="fill: #8c564b; stroke: #ffffff; stroke-width: 0.3; stroke-linejoin: miter"/>
   </g>
   <g id="patch_49">
    <path d="M 375.913004 207.885 
L 382.224581 207.885 
L 382.224581 194.713863 
L 375.913004 194.713863 
z
" clip-path="url(#p2068154c5d)" style="fill: #8c564b; stroke: #ffffff; stroke-width: 0.3; stroke-linejoin: miter"/>
   </g>
   <g id="patch_50">
    <path d="M 382.224581 207.885 
L 388.536157 207.885 
L 388.536157 200.860394 
L 382.224581 200.860394 
z
" clip-path="url(#p2068154c5d)" style="fill: #8c564b; stroke: #ffffff; stroke-width: 0.3; stroke-linejoin: miter"/>
   </g>
   <g id="patch_51">
    <path d="M 388.536157 207.885 
L 394.847734 207.885 
L 394.847734 199.104242 
L 388.536157 199.104242 
z
" clip-path="url(#p2068154c5d)" style="fill: #8c564b; stroke: #ffffff; stroke-width: 0.3; stroke-linejoin: miter"/>
   </g>
   <g id="patch_52">
    <path d="M 394.847734 207.885 
L 401.159311 207.885 
L 401.159311 203.055583 
L 394.847734 203.055583 
z
" clip-path="url(#p2068154c5d)" style="fill: #8c564b; stroke: #ffffff; stroke-width: 0.3; stroke-linejoin: miter"/>
   </g>
   <g id="patch_53">
    <path d="M 401.159311 207.885 
L 407.470887 207.885 
L 407.470887 199.982318 
L 401.159311 199.982318 
z
" clip-path="url(#p2068154c5d)" style="fill: #8c564b; stroke: #ffffff; stroke-width: 0.3; stroke-linejoin: miter"/>
   </g>
   <g id="patch_54">
    <path d="M 407.470887 207.885 
L 413.782464 207.885 
L 413.782464 203.933659 
L 407.470887 203.933659 
z
" clip-path="url(#p2068154c5d)" style="fill: #8c564b; stroke: #ffffff; stroke-width: 0.3; stroke-linejoin: miter"/>
   </g>
   <g id="patch_55">
    <path d="M 413.782464 207.885 
L 420.09404 207.885 
L 420.09404 203.494621 
L 413.782464 203.494621 
z
" clip-path="url(#p2068154c5d)" style="fill: #8c564b; stroke: #ffffff; stroke-width: 0.3; stroke-linejoin: miter"/>
   </g>
   <g id="patch_56">
    <path d="M 420.09404 207.885 
L 426.405617 207.885 
L 426.405617 203.055583 
L 420.09404 203.055583 
z
" clip-path="url(#p2068154c5d)" style="fill: #8c564b; stroke: #ffffff; stroke-width: 0.3; stroke-linejoin: miter"/>
   </g>
   <g id="patch_57">
    <path d="M 426.405617 207.885 
L 432.717194 207.885 
L 432.717194 206.567886 
L 426.405617 206.567886 
z
" clip-path="url(#p2068154c5d)" style="fill: #8c564b; stroke: #ffffff; stroke-width: 0.3; stroke-linejoin: miter"/>
   </g>
   <g id="patch_58">
    <path d="M 432.717194 207.885 
L 439.02877 207.885 
L 439.02877 201.738469 
L 432.717194 201.738469 
z
" clip-path="url(#p2068154c5d)" style="fill: #8c564b; stroke: #ffffff; stroke-width: 0.3; stroke-linejoin: miter"/>
   </g>
   <g id="patch_59">
    <path d="M 439.02877 207.885 
L 445.340347 207.885 
L 445.340347 205.68981 
L 439.02877 205.68981 
z
" clip-path="url(#p2068154c5d)" style="fill: #8c564b; stroke: #ffffff; stroke-width: 0.3; stroke-linejoin: miter"/>
   </g>
   <g id="patch_60">
    <path d="M 445.340347 207.885 
L 451.651923 207.885 
L 451.651923 204.811735 
L 445.340347 204.811735 
z
" clip-path="url(#p2068154c5d)" style="fill: #8c564b; stroke: #ffffff; stroke-width: 0.3; stroke-linejoin: miter"/>
   </g>
   <g id="patch_61">
    <path d="M 451.651923 207.885 
L 457.9635 207.885 
L 457.9635 206.128848 
L 451.651923 206.128848 
z
" clip-path="url(#p2068154c5d)" style="fill: #8c564b; stroke: #ffffff; stroke-width: 0.3; stroke-linejoin: miter"/>
   </g>
   <g id="patch_62">
    <path d="M 457.9635 207.885 
L 464.275077 207.885 
L 464.275077 204.372697 
L 457.9635 204.372697 
z
" clip-path="url(#p2068154c5d)" style="fill: #8c564b; stroke: #ffffff; stroke-width: 0.3; stroke-linejoin: miter"/>
   </g>
   <g id="patch_63">
    <path d="M 66.64575 207.885 
L 66.64575 27.177 
" style="fill: none; stroke: #cccccc; stroke-linejoin: miter; stroke-linecap: square"/>
   </g>
   <g id="patch_64">
    <path d="M 483.209807 207.885 
L 483.209807 27.177 
" style="fill: none; stroke: #cccccc; stroke-linejoin: miter; stroke-linecap: square"/>
   </g>
   <g id="patch_65">
    <path d="M 66.64575 207.885 
L 483.209807 207.885 
" style="fill: none; stroke: #cccccc; stroke-linejoin: miter; stroke-linecap: square"/>
   </g>
   <g id="patch_66">
    <path d="M 66.64575 27.177 
L 483.209807 27.177 
" style="fill: none; stroke: #cccccc; stroke-linejoin: miter; stroke-linecap: square"/>
   </g>
   <g id="text_14">
    <!-- Price Distribution (2000–present, excl. negative) -->
    <g style="fill: #262626" transform="translate(70.570778 21.177) scale(0.192 -0.192)">
     <defs>
      <path id="ArialMT-50" d="M 494 0 
L 494 4581 
L 2222 4581 
Q 2678 4581 2919 4538 
Q 3256 4481 3484 4323 
Q 3713 4166 3852 3881 
Q 3991 3597 3991 3256 
Q 3991 2672 3619 2267 
Q 3247 1863 2275 1863 
L 1100 1863 
L 1100 0 
L 494 0 
z
M 1100 2403 
L 2284 2403 
Q 2872 2403 3119 2622 
Q 3366 2841 3366 3238 
Q 3366 3525 3220 3729 
Q 3075 3934 2838 4000 
Q 2684 4041 2272 4041 
L 1100 4041 
L 1100 2403 
z
" transform="scale(0.015625)"/>
      <path id="ArialMT-69" d="M 425 3934 
L 425 4581 
L 988 4581 
L 988 3934 
L 425 3934 
z
M 425 0 
L 425 3319 
L 988 3319 
L 988 0 
L 425 0 
z
" transform="scale(0.015625)"/>
      <path id="ArialMT-73" d="M 197 991 
L 753 1078 
Q 800 744 1014 566 
Q 1228 388 1613 388 
Q 2000 388 2187 545 
Q 2375 703 2375 916 
Q 2375 1106 2209 1216 
Q 2094 1291 1634 1406 
Q 1016 1563 777 1677 
Q 538 1791 414 1992 
Q 291 2194 291 2438 
Q 291 2659 392 2848 
Q 494 3038 669 3163 
Q 800 3259 1026 3326 
Q 1253 3394 1513 3394 
Q 1903 3394 2198 3281 
Q 2494 3169 2634 2976 
Q 2775 2784 2828 2463 
L 2278 2388 
Q 2241 2644 2061 2787 
Q 1881 2931 1553 2931 
Q 1166 2931 1000 2803 
Q 834 2675 834 2503 
Q 834 2394 903 2306 
Q 972 2216 1119 2156 
Q 1203 2125 1616 2013 
Q 2213 1853 2448 1751 
Q 2684 1650 2818 1456 
Q 2953 1263 2953 975 
Q 2953 694 2789 445 
Q 2625 197 2315 61 
Q 2006 -75 1616 -75 
Q 969 -75 630 194 
Q 291 463 197 991 
z
" transform="scale(0.015625)"/>
      <path id="ArialMT-74" d="M 1650 503 
L 1731 6 
Q 1494 -44 1306 -44 
Q 1000 -44 831 53 
Q 663 150 594 308 
Q 525 466 525 972 
L 525 2881 
L 113 2881 
L 113 3319 
L 525 3319 
L 525 4141 
L 1084 4478 
L 1084 3319 
L 1650 3319 
L 1650 2881 
L 1084 2881 
L 1084 941 
Q 1084 700 1114 631 
Q 1144 563 1211 522 
Q 1278 481 1403 481 
Q 1497 481 1650 503 
z
" transform="scale(0.015625)"/>
      <path id="ArialMT-6f" d="M 213 1659 
Q 213 2581 725 3025 
Q 1153 3394 1769 3394 
Q 2453 3394 2887 2945 
Q 3322 2497 3322 1706 
Q 3322 1066 3130 698 
Q 2938 331 2570 128 
Q 2203 -75 1769 -75 
Q 1072 -75 642 372 
Q 213 819 213 1659 
z
M 791 1659 
Q 791 1022 1069 705 
Q 1347 388 1769 388 
Q 2188 388 2466 706 
Q 2744 1025 2744 1678 
Q 2744 2294 2464 2611 
Q 2184 2928 1769 2928 
Q 1347 2928 1069 2612 
Q 791 2297 791 1659 
z
" transform="scale(0.015625)"/>
      <path id="ArialMT-28" d="M 1497 -1347 
Q 1031 -759 709 28 
Q 388 816 388 1659 
Q 388 2403 628 3084 
Q 909 3875 1497 4659 
L 1900 4659 
Q 1522 4009 1400 3731 
Q 1209 3300 1100 2831 
Q 966 2247 966 1656 
Q 966 153 1900 -1347 
L 1497 -1347 
z
" transform="scale(0.015625)"/>
      <path id="ArialMT-2013" d="M -13 1431 
L -13 1884 
L 3547 1884 
L 3547 1431 
L -13 1431 
z
" transform="scale(0.015625)"/>
      <path id="ArialMT-70" d="M 422 -1272 
L 422 3319 
L 934 3319 
L 934 2888 
Q 1116 3141 1344 3267 
Q 1572 3394 1897 3394 
Q 2322 3394 2647 3175 
Q 2972 2956 3137 2557 
Q 3303 2159 3303 1684 
Q 3303 1175 3120 767 
Q 2938 359 2589 142 
Q 2241 -75 1856 -75 
Q 1575 -75 1351 44 
Q 1128 163 984 344 
L 984 -1272 
L 422 -1272 
z
M 931 1641 
Q 931 1000 1190 694 
Q 1450 388 1819 388 
Q 2194 388 2461 705 
Q 2728 1022 2728 1688 
Q 2728 2322 2467 2637 
Q 2206 2953 1844 2953 
Q 1484 2953 1207 2617 
Q 931 2281 931 1641 
z
" transform="scale(0.015625)"/>
      <path id="ArialMT-2c" d="M 569 0 
L 569 641 
L 1209 641 
L 1209 0 
Q 1209 -353 1084 -570 
Q 959 -788 688 -906 
L 531 -666 
Q 709 -588 793 -436 
Q 878 -284 888 0 
L 569 0 
z
" transform="scale(0.015625)"/>
      <path id="ArialMT-78" d="M 47 0 
L 1259 1725 
L 138 3319 
L 841 3319 
L 1350 2541 
Q 1494 2319 1581 2169 
Q 1719 2375 1834 2534 
L 2394 3319 
L 3066 3319 
L 1919 1756 
L 3153 0 
L 2463 0 
L 1781 1031 
L 1600 1309 
L 728 0 
L 47 0 
z
" transform="scale(0.015625)"/>
      <path id="ArialMT-2e" d="M 581 0 
L 581 641 
L 1222 641 
L 1222 0 
L 581 0 
z
" transform="scale(0.015625)"/>
      <path id="ArialMT-67" d="M 319 -275 
L 866 -356 
Q 900 -609 1056 -725 
Q 1266 -881 1628 -881 
Q 2019 -881 2231 -725 
Q 2444 -569 2519 -288 
Q 2563 -116 2559 434 
Q 2191 0 1641 0 
Q 956 0 581 494 
Q 206 988 206 1678 
Q 206 2153 378 2554 
Q 550 2956 876 3175 
Q 1203 3394 1644 3394 
Q 2231 3394 2613 2919 
L 2613 3319 
L 3131 3319 
L 3131 450 
Q 3131 -325 2973 -648 
Q 2816 -972 2473 -1159 
Q 2131 -1347 1631 -1347 
Q 1038 -1347 672 -1080 
Q 306 -813 319 -275 
z
M 784 1719 
Q 784 1066 1043 766 
Q 1303 466 1694 466 
Q 2081 466 2343 764 
Q 2606 1063 2606 1700 
Q 2606 2309 2336 2618 
Q 2066 2928 1684 2928 
Q 1309 2928 1046 2623 
Q 784 2319 784 1719 
z
" transform="scale(0.015625)"/>
      <path id="ArialMT-76" d="M 1344 0 
L 81 3319 
L 675 3319 
L 1388 1331 
Q 1503 1009 1600 663 
Q 1675 925 1809 1294 
L 2547 3319 
L 3125 3319 
L 1869 0 
L 1344 0 
z
" transform="scale(0.015625)"/>
      <path id="ArialMT-29" d="M 791 -1347 
L 388 -1347 
Q 1322 153 1322 1656 
Q 1322 2244 1188 2822 
Q 1081 3291 891 3722 
Q 769 4003 388 4659 
L 791 4659 
Q 1378 3875 1659 3084 
Q 1900 2403 1900 1659 
Q 1900 816 1576 28 
Q 1253 -759 791 -1347 
z
" transform="scale(0.015625)"/>
     </defs>
     <use xlink:href="#ArialMT-50"/>
     <use xlink:href="#ArialMT-72" transform="translate(66.699219 0)"/>
     <use xlink:href="#ArialMT-69" transform="translate(100 0)"/>
     <use xlink:href="#ArialMT-63" transform="translate(122.216797 0)"/>
     <use xlink:href="#ArialMT-65" transform="translate(172.216797 0)"/>
     <use xlink:href="#ArialMT-20" transform="translate(227.832031 0)"/>
     <use xlink:href="#ArialMT-44" transform="translate(255.615234 0)"/>
     <use xlink:href="#ArialMT-69" transform="translate(327.832031 0)"/>
     <use xlink:href="#ArialMT-73" transform="translate(350.048828 0)"/>
     <use xlink:href="#ArialMT-74" transform="translate(400.048828 0)"/>
     <use xlink:href="#ArialMT-72" transform="translate(427.832031 0)"/>
     <use xlink:href="#ArialMT-69" transform="translate(461.132812 0)"/>
     <use xlink:href="#ArialMT-62" transform="translate(483.349609 0)"/>
     <use xlink:href="#ArialMT-75" transform="translate(538.964844 0)"/>
     <use xlink:href="#ArialMT-74" transform="translate(594.580078 0)"/>
     <use xlink:href="#ArialMT-69" transform="translate(622.363281 0)"/>
     <use xlink:href="#ArialMT-6f" transform="translate(644.580078 0)"/>
     <use xlink:href="#ArialMT-6e" transform="translate(700.195312 0)"/>
     <use xlink:href="#ArialMT-20" transform="translate(755.810547 0)"/>
     <use xlink:href="#ArialMT-28" transform="translate(783.59375 0)"/>
     <use xlink:href="#ArialMT-32" transform="translate(816.894531 0)"/>
     <use xlink:href="#ArialMT-30" transform="translate(872.509766 0)"/>
     <use xlink:href="#ArialMT-30" transform="translate(928.125 0)"/>
     <use xlink:href="#ArialMT-30" transform="translate(983.740234 0)"/>
     <use xlink:href="#ArialMT-2013" transform="translate(1039.355469 0)"/>
     <use xlink:href="#ArialMT-70" transform="translate(1094.970703 0)"/>
     <use xlink:href="#ArialMT-72" transform="translate(1150.585938 0)"/>
     <use xlink:href="#ArialMT-65" transform="translate(1183.886719 0)"/>
     <use xlink:href="#ArialMT-73" transform="translate(1239.501953 0)"/>
     <use xlink:href="#ArialMT-65" transform="translate(1289.501953 0)"/>
     <use xlink:href="#ArialMT-6e" transform="translate(1345.117188 0)"/>
     <use xlink:href="#ArialMT-74" transform="translate(1400.732422 0)"/>
     <use xlink:href="#ArialMT-2c" transform="translate(1428.515625 0)"/>
     <use xlink:href="#ArialMT-20" transform="translate(1456.298828 0)"/>
     <use xlink:href="#ArialMT-65" transform="translate(1484.082031 0)"/>
     <use xlink:href="#ArialMT-78" transform="translate(1539.697266 0)"/>
     <use xlink:href="#ArialMT-63" transform="translate(1589.697266 0)"/>
     <use xlink:href="#ArialMT-6c" transform="translate(1639.697266 0)"/>
     <use xlink:href="#ArialMT-2e" transform="translate(1661.914062 0)"/>
     <use xlink:href="#ArialMT-20" transform="translate(1689.697266 0)"/>
     <use xlink:href="#ArialMT-6e" transform="translate(1717.480469 0)"/>
     <use xlink:href="#ArialMT-65" transform="translate(1773.095703 0)"/>
     <use xlink:href="#ArialMT-67" transform="translate(1828.710938 0)"/>
     <use xlink:href="#ArialMT-61" transform="translate(1884.326172 0)"/>
     <use xlink:href="#ArialMT-74" transform="translate(1939.941406 0)"/>
     <use xlink:href="#ArialMT-69" transform="translate(1967.724609 0)"/>
     <use xlink:href="#ArialMT-76" transform="translate(1989.941406 0)"/>
     <use xlink:href="#ArialMT-65" transform="translate(2039.941406 0)"/>
     <use xlink:href="#ArialMT-29" transform="translate(2095.556641 0)"/>
    </g>
   </g>
  </g>
  <g id="axes_2">
   <g id="patch_67">
    <path d="M 551.03486 207.885 
L 967.598916 207.885 
L 967.598916 27.177 
L 551.03486 27.177 
z
" style="fill: #ffffff"/>
   </g>
   <g id="matplotlib.axis_3">
    <g id="xtick_7">
     <g id="line2d_12">
      <path d="M 646.792927 207.885 
L 646.792927 27.177 
" clip-path="url(#pd6d25f8bef)" style="fill: none; stroke: #cccccc; stroke-width: 0.8; stroke-linecap: round"/>
     </g>
     <g id="text_15">
      <!-- 0 -->
      <g style="fill: #262626" transform="translate(641.899302 228.78275) scale(0.176 -0.176)">
       <use xlink:href="#ArialMT-30"/>
      </g>
     </g>
    </g>
    <g id="xtick_8">
     <g id="line2d_13">
      <path d="M 750.664395 207.885 
L 750.664395 27.177 
" clip-path="url(#pd6d25f8bef)" style="fill: none; stroke: #cccccc; stroke-width: 0.8; stroke-linecap: round"/>
     </g>
     <g id="text_16">
      <!-- 50 -->
      <g style="fill: #262626" transform="translate(740.877145 228.78275) scale(0.176 -0.176)">
       <use xlink:href="#ArialMT-35"/>
       <use xlink:href="#ArialMT-30" transform="translate(55.615234 0)"/>
      </g>
     </g>
    </g>
    <g id="xtick_9">
     <g id="line2d_14">
      <path d="M 854.535863 207.885 
L 854.535863 27.177 
" clip-path="url(#pd6d25f8bef)" style="fill: none; stroke: #cccccc; stroke-width: 0.8; stroke-linecap: round"/>
     </g>
     <g id="text_17">
      <!-- 100 -->
      <g style="fill: #262626" transform="translate(839.854988 228.78275) scale(0.176 -0.176)">
       <use xlink:href="#ArialMT-31"/>
       <use xlink:href="#ArialMT-30" transform="translate(55.615234 0)"/>
       <use xlink:href="#ArialMT-30" transform="translate(111.230469 0)"/>
      </g>
     </g>
    </g>
    <g id="xtick_10">
     <g id="line2d_15">
      <path d="M 958.40733 207.885 
L 958.40733 27.177 
" clip-path="url(#pd6d25f8bef)" style="fill: none; stroke: #cccccc; stroke-width: 0.8; stroke-linecap: round"/>
     </g>
     <g id="text_18">
      <!-- 150 -->
      <g style="fill: #262626" transform="translate(943.726455 228.78275) scale(0.176 -0.176)">
       <use xlink:href="#ArialMT-31"/>
       <use xlink:href="#ArialMT-35" transform="translate(55.615234 0)"/>
       <use xlink:href="#ArialMT-30" transform="translate(111.230469 0)"/>
      </g>
     </g>
    </g>
    <g id="text_19">
     <!-- USD / barrel -->
     <g style="fill: #262626" transform="translate(706.504888 250.02375) scale(0.192 -0.192)">
      <use xlink:href="#ArialMT-55"/>
      <use xlink:href="#ArialMT-53" transform="translate(72.216797 0)"/>
      <use xlink:href="#ArialMT-44" transform="translate(138.916016 0)"/>
      <use xlink:href="#ArialMT-20" transform="translate(211.132812 0)"/>
      <use xlink:href="#ArialMT-2f" transform="translate(238.916016 0)"/>
      <use xlink:href="#ArialMT-20" transform="translate(266.699219 0)"/>
      <use xlink:href="#ArialMT-62" transform="translate(294.482422 0)"/>
      <use xlink:href="#ArialMT-61" transform="translate(350.097656 0)"/>
      <use xlink:href="#ArialMT-72" transform="translate(405.712891 0)"/>
      <use xlink:href="#ArialMT-72" transform="translate(439.013672 0)"/>
      <use xlink:href="#ArialMT-65" transform="translate(472.314453 0)"/>
      <use xlink:href="#ArialMT-6c" transform="translate(527.929688 0)"/>
     </g>
    </g>
   </g>
   <g id="matplotlib.axis_4">
    <g id="ytick_6">
     <g id="line2d_16">
      <path d="M 551.03486 207.885 
L 967.598916 207.885 
" clip-path="url(#pd6d25f8bef)" style="fill: none; stroke: #cccccc; stroke-width: 0.8; stroke-linecap: round"/>
     </g>
     <g id="text_20">
      <!-- 0 -->
      <g style="fill: #262626" transform="translate(532.94761 214.183875) scale(0.176 -0.176)">
       <use xlink:href="#ArialMT-30"/>
      </g>
     </g>
    </g>
    <g id="ytick_7">
     <g id="line2d_17">
      <path d="M 551.03486 144.727988 
L 967.598916 144.727988 
" clip-path="url(#pd6d25f8bef)" style="fill: none; stroke: #cccccc; stroke-width: 0.8; stroke-linecap: round"/>
     </g>
     <g id="text_21">
      <!-- 200 -->
      <g style="fill: #262626" transform="translate(513.37311 151.026863) scale(0.176 -0.176)">
       <use xlink:href="#ArialMT-32"/>
       <use xlink:href="#ArialMT-30" transform="translate(55.615234 0)"/>
       <use xlink:href="#ArialMT-30" transform="translate(111.230469 0)"/>
      </g>
     </g>
    </g>
    <g id="ytick_8">
     <g id="line2d_18">
      <path d="M 551.03486 81.570976 
L 967.598916 81.570976 
" clip-path="url(#pd6d25f8bef)" style="fill: none; stroke: #cccccc; stroke-width: 0.8; stroke-linecap: round"/>
     </g>
     <g id="text_22">
      <!-- 400 -->
      <g style="fill: #262626" transform="translate(513.37311 87.869851) scale(0.176 -0.176)">
       <use xlink:href="#ArialMT-34"/>
       <use xlink:href="#ArialMT-30" transform="translate(55.615234 0)"/>
       <use xlink:href="#ArialMT-30" transform="translate(111.230469 0)"/>
      </g>
     </g>
    </g>
   </g>
   <g id="patch_68">
    <path d="M 683.147941 207.885 
L 689.785847 207.885 
L 689.785847 179.464345 
L 683.147941 179.464345 
z
" clip-path="url(#pd6d25f8bef)" style="fill: #1f77b4; opacity: 0.5; stroke: #ffffff; stroke-width: 0.8; stroke-linejoin: miter"/>
   </g>
   <g id="patch_69">
    <path d="M 689.785847 207.885 
L 696.423753 207.885 
L 696.423753 182.93798 
L 689.785847 182.93798 
z
" clip-path="url(#pd6d25f8bef)" style="fill: #1f77b4; opacity: 0.5; stroke: #ffffff; stroke-width: 0.8; stroke-linejoin: miter"/>
   </g>
   <g id="patch_70">
    <path d="M 696.423753 207.885 
L 703.061659 207.885 
L 703.061659 113.149482 
L 696.423753 113.149482 
z
" clip-path="url(#pd6d25f8bef)" style="fill: #1f77b4; opacity: 0.5; stroke: #ffffff; stroke-width: 0.8; stroke-linejoin: miter"/>
   </g>
   <g id="patch_71">
    <path d="M 703.061659 207.885 
L 709.699565 207.885 
L 709.699565 35.782143 
L 703.061659 35.782143 
z
" clip-path="url(#pd6d25f8bef)" style="fill: #1f77b4; opacity: 0.5; stroke: #ffffff; stroke-width: 0.8; stroke-linejoin: miter"/>
   </g>
   <g id="patch_72">
    <path d="M 709.699565 207.885 
L 716.337472 207.885 
L 716.337472 98.62337 
L 709.699565 98.62337 
z
" clip-path="url(#pd6d25f8bef)" style="fill: #1f77b4; opacity: 0.5; stroke: #ffffff; stroke-width: 0.8; stroke-linejoin: miter"/>
   </g>
   <g id="patch_73">
    <path d="M 716.337472 207.885 
L 722.975378 207.885 
L 722.975378 152.622615 
L 716.337472 152.622615 
z
" clip-path="url(#pd6d25f8bef)" style="fill: #1f77b4; opacity: 0.5; stroke: #ffffff; stroke-width: 0.8; stroke-linejoin: miter"/>
   </g>
   <g id="patch_74">
    <path d="M 722.975378 207.885 
L 729.613284 207.885 
L 729.613284 165.569802 
L 722.975378 165.569802 
z
" clip-path="url(#pd6d25f8bef)" style="fill: #1f77b4; opacity: 0.5; stroke: #ffffff; stroke-width: 0.8; stroke-linejoin: miter"/>
   </g>
   <g id="patch_75">
    <path d="M 729.613284 207.885 
L 736.25119 207.885 
L 736.25119 176.622279 
L 729.613284 176.622279 
z
" clip-path="url(#pd6d25f8bef)" style="fill: #1f77b4; opacity: 0.5; stroke: #ffffff; stroke-width: 0.8; stroke-linejoin: miter"/>
   </g>
   <g id="patch_76">
    <path d="M 736.25119 207.885 
L 742.889096 207.885 
L 742.889096 181.67484 
L 736.25119 181.67484 
z
" clip-path="url(#pd6d25f8bef)" style="fill: #1f77b4; opacity: 0.5; stroke: #ffffff; stroke-width: 0.8; stroke-linejoin: miter"/>
   </g>
   <g id="patch_77">
    <path d="M 742.889096 207.885 
L 749.527002 207.885 
L 749.527002 170.622363 
L 742.889096 170.622363 
z
" clip-path="url(#pd6d25f8bef)" style="fill: #1f77b4; opacity: 0.5; stroke: #ffffff; stroke-width: 0.8; stroke-linejoin: miter"/>
   </g>
   <g id="patch_78">
    <path d="M 749.527002 207.885 
L 756.164908 207.885 
L 756.164908 172.517073 
L 749.527002 172.517073 
z
" clip-path="url(#pd6d25f8bef)" style="fill: #1f77b4; opacity: 0.5; stroke: #ffffff; stroke-width: 0.8; stroke-linejoin: miter"/>
   </g>
   <g id="patch_79">
    <path d="M 756.164908 207.885 
L 762.802815 207.885 
L 762.802815 179.78013 
L 756.164908 179.78013 
z
" clip-path="url(#pd6d25f8bef)" style="fill: #1f77b4; opacity: 0.5; stroke: #ffffff; stroke-width: 0.8; stroke-linejoin: miter"/>
   </g>
   <g id="patch_80">
    <path d="M 762.802815 207.885 
L 769.440721 207.885 
L 769.440721 159.885671 
L 762.802815 159.885671 
z
" clip-path="url(#pd6d25f8bef)" style="fill: #1f77b4; opacity: 0.5; stroke: #ffffff; stroke-width: 0.8; stroke-linejoin: miter"/>
   </g>
   <g id="patch_81">
    <path d="M 769.440721 207.885 
L 776.078627 207.885 
L 776.078627 137.149147 
L 769.440721 137.149147 
z
" clip-path="url(#pd6d25f8bef)" style="fill: #1f77b4; opacity: 0.5; stroke: #ffffff; stroke-width: 0.8; stroke-linejoin: miter"/>
   </g>
   <g id="patch_82">
    <path d="M 776.078627 207.885 
L 782.716533 207.885 
L 782.716533 156.412035 
L 776.078627 156.412035 
z
" clip-path="url(#pd6d25f8bef)" style="fill: #1f77b4; opacity: 0.5; stroke: #ffffff; stroke-width: 0.8; stroke-linejoin: miter"/>
   </g>
   <g id="patch_83">
    <path d="M 782.716533 207.885 
L 789.354439 207.885 
L 789.354439 163.043522 
L 782.716533 163.043522 
z
" clip-path="url(#pd6d25f8bef)" style="fill: #1f77b4; opacity: 0.5; stroke: #ffffff; stroke-width: 0.8; stroke-linejoin: miter"/>
   </g>
   <g id="patch_84">
    <path d="M 789.354439 207.885 
L 795.992345 207.885 
L 795.992345 151.67526 
L 789.354439 151.67526 
z
" clip-path="url(#pd6d25f8bef)" style="fill: #1f77b4; opacity: 0.5; stroke: #ffffff; stroke-width: 0.8; stroke-linejoin: miter"/>
   </g>
   <g id="patch_85">
    <path d="M 795.992345 207.885 
L 802.630251 207.885 
L 802.630251 167.464512 
L 795.992345 167.464512 
z
" clip-path="url(#pd6d25f8bef)" style="fill: #1f77b4; opacity: 0.5; stroke: #ffffff; stroke-width: 0.8; stroke-linejoin: miter"/>
   </g>
   <g id="patch_86">
    <path d="M 802.630251 207.885 
L 809.268158 207.885 
L 809.268158 187.043186 
L 802.630251 187.043186 
z
" clip-path="url(#pd6d25f8bef)" style="fill: #1f77b4; opacity: 0.5; stroke: #ffffff; stroke-width: 0.8; stroke-linejoin: miter"/>
   </g>
   <g id="patch_87">
    <path d="M 809.268158 207.885 
L 815.906064 207.885 
L 815.906064 191.464177 
L 809.268158 191.464177 
z
" clip-path="url(#pd6d25f8bef)" style="fill: #1f77b4; opacity: 0.5; stroke: #ffffff; stroke-width: 0.8; stroke-linejoin: miter"/>
   </g>
   <g id="patch_88">
    <path d="M 815.906064 207.885 
L 822.54397 207.885 
L 822.54397 203.779794 
L 815.906064 203.779794 
z
" clip-path="url(#pd6d25f8bef)" style="fill: #1f77b4; opacity: 0.5; stroke: #ffffff; stroke-width: 0.8; stroke-linejoin: miter"/>
   </g>
   <g id="patch_89">
    <path d="M 822.54397 207.885 
L 829.181876 207.885 
L 829.181876 204.411364 
L 822.54397 204.411364 
z
" clip-path="url(#pd6d25f8bef)" style="fill: #1f77b4; opacity: 0.5; stroke: #ffffff; stroke-width: 0.8; stroke-linejoin: miter"/>
   </g>
   <g id="patch_90">
    <path d="M 829.181876 207.885 
L 835.819782 207.885 
L 835.819782 193.990457 
L 829.181876 193.990457 
z
" clip-path="url(#pd6d25f8bef)" style="fill: #1f77b4; opacity: 0.5; stroke: #ffffff; stroke-width: 0.8; stroke-linejoin: miter"/>
   </g>
   <g id="patch_91">
    <path d="M 835.819782 207.885 
L 842.457688 207.885 
L 842.457688 196.200953 
L 835.819782 196.200953 
z
" clip-path="url(#pd6d25f8bef)" style="fill: #1f77b4; opacity: 0.5; stroke: #ffffff; stroke-width: 0.8; stroke-linejoin: miter"/>
   </g>
   <g id="patch_92">
    <path d="M 842.457688 207.885 
L 849.095594 207.885 
L 849.095594 197.148308 
L 842.457688 197.148308 
z
" clip-path="url(#pd6d25f8bef)" style="fill: #1f77b4; opacity: 0.5; stroke: #ffffff; stroke-width: 0.8; stroke-linejoin: miter"/>
   </g>
   <g id="patch_93">
    <path d="M 849.095594 207.885 
L 855.733501 207.885 
L 855.733501 199.358803 
L 849.095594 199.358803 
z
" clip-path="url(#pd6d25f8bef)" style="fill: #1f77b4; opacity: 0.5; stroke: #ffffff; stroke-width: 0.8; stroke-linejoin: miter"/>
   </g>
   <g id="patch_94">
    <path d="M 855.733501 207.885 
L 862.371407 207.885 
L 862.371407 200.621944 
L 855.733501 200.621944 
z
" clip-path="url(#pd6d25f8bef)" style="fill: #1f77b4; opacity: 0.5; stroke: #ffffff; stroke-width: 0.8; stroke-linejoin: miter"/>
   </g>
   <g id="patch_95">
    <path d="M 862.371407 207.885 
L 869.009313 207.885 
L 869.009313 202.200869 
L 862.371407 202.200869 
z
" clip-path="url(#pd6d25f8bef)" style="fill: #1f77b4; opacity: 0.5; stroke: #ffffff; stroke-width: 0.8; stroke-linejoin: miter"/>
   </g>
   <g id="patch_96">
    <path d="M 869.009313 207.885 
L 875.647219 207.885 
L 875.647219 201.885084 
L 869.009313 201.885084 
z
" clip-path="url(#pd6d25f8bef)" style="fill: #1f77b4; opacity: 0.5; stroke: #ffffff; stroke-width: 0.8; stroke-linejoin: miter"/>
   </g>
   <g id="patch_97">
    <path d="M 875.647219 207.885 
L 882.285125 207.885 
L 882.285125 203.464009 
L 875.647219 203.464009 
z
" clip-path="url(#pd6d25f8bef)" style="fill: #1f77b4; opacity: 0.5; stroke: #ffffff; stroke-width: 0.8; stroke-linejoin: miter"/>
   </g>
   <g id="patch_98">
    <path d="M 882.285125 207.885 
L 888.923031 207.885 
L 888.923031 200.306159 
L 882.285125 200.306159 
z
" clip-path="url(#pd6d25f8bef)" style="fill: #1f77b4; opacity: 0.5; stroke: #ffffff; stroke-width: 0.8; stroke-linejoin: miter"/>
   </g>
   <g id="patch_99">
    <path d="M 888.923031 207.885 
L 895.560937 207.885 
L 895.560937 202.832439 
L 888.923031 202.832439 
z
" clip-path="url(#pd6d25f8bef)" style="fill: #1f77b4; opacity: 0.5; stroke: #ffffff; stroke-width: 0.8; stroke-linejoin: miter"/>
   </g>
   <g id="patch_100">
    <path d="M 895.560937 207.885 
L 902.198844 207.885 
L 902.198844 204.727149 
L 895.560937 204.727149 
z
" clip-path="url(#pd6d25f8bef)" style="fill: #1f77b4; opacity: 0.5; stroke: #ffffff; stroke-width: 0.8; stroke-linejoin: miter"/>
   </g>
   <g id="patch_101">
    <path d="M 902.198844 207.885 
L 908.83675 207.885 
L 908.83675 202.200869 
L 902.198844 202.200869 
z
" clip-path="url(#pd6d25f8bef)" style="fill: #1f77b4; opacity: 0.5; stroke: #ffffff; stroke-width: 0.8; stroke-linejoin: miter"/>
   </g>
   <g id="patch_102">
    <path d="M 908.83675 207.885 
L 915.474656 207.885 
L 915.474656 203.148224 
L 908.83675 203.148224 
z
" clip-path="url(#pd6d25f8bef)" style="fill: #1f77b4; opacity: 0.5; stroke: #ffffff; stroke-width: 0.8; stroke-linejoin: miter"/>
   </g>
   <g id="patch_103">
    <path d="M 915.474656 207.885 
L 922.112562 207.885 
L 922.112562 204.095579 
L 915.474656 204.095579 
z
" clip-path="url(#pd6d25f8bef)" style="fill: #1f77b4; opacity: 0.5; stroke: #ffffff; stroke-width: 0.8; stroke-linejoin: miter"/>
   </g>
   <g id="patch_104">
    <path d="M 922.112562 207.885 
L 928.750468 207.885 
L 928.750468 204.095579 
L 922.112562 204.095579 
z
" clip-path="url(#pd6d25f8bef)" style="fill: #1f77b4; opacity: 0.5; stroke: #ffffff; stroke-width: 0.8; stroke-linejoin: miter"/>
   </g>
   <g id="patch_105">
    <path d="M 928.750468 207.885 
L 935.388374 207.885 
L 935.388374 204.095579 
L 928.750468 204.095579 
z
" clip-path="url(#pd6d25f8bef)" style="fill: #1f77b4; opacity: 0.5; stroke: #ffffff; stroke-width: 0.8; stroke-linejoin: miter"/>
   </g>
   <g id="patch_106">
    <path d="M 935.388374 207.885 
L 942.02628 207.885 
L 942.02628 205.674505 
L 935.388374 205.674505 
z
" clip-path="url(#pd6d25f8bef)" style="fill: #1f77b4; opacity: 0.5; stroke: #ffffff; stroke-width: 0.8; stroke-linejoin: miter"/>
   </g>
   <g id="patch_107">
    <path d="M 942.02628 207.885 
L 948.664187 207.885 
L 948.664187 205.042934 
L 942.02628 205.042934 
z
" clip-path="url(#pd6d25f8bef)" style="fill: #1f77b4; opacity: 0.5; stroke: #ffffff; stroke-width: 0.8; stroke-linejoin: miter"/>
   </g>
   <g id="patch_108">
    <path d="M 701.200802 207.885 
L 705.729598 207.885 
L 705.729598 206.62186 
L 701.200802 206.62186 
z
" clip-path="url(#pd6d25f8bef)" style="fill: #ff7f0e; opacity: 0.5; stroke: #ffffff; stroke-width: 0.8; stroke-linejoin: miter"/>
   </g>
   <g id="patch_109">
    <path d="M 705.729598 207.885 
L 710.258394 207.885 
L 710.258394 200.937729 
L 705.729598 200.937729 
z
" clip-path="url(#pd6d25f8bef)" style="fill: #ff7f0e; opacity: 0.5; stroke: #ffffff; stroke-width: 0.8; stroke-linejoin: miter"/>
   </g>
   <g id="patch_110">
    <path d="M 710.258394 207.885 
L 714.78719 207.885 
L 714.78719 200.937729 
L 710.258394 200.937729 
z
" clip-path="url(#pd6d25f8bef)" style="fill: #ff7f0e; opacity: 0.5; stroke: #ffffff; stroke-width: 0.8; stroke-linejoin: miter"/>
   </g>
   <g id="patch_111">
    <path d="M 714.78719 207.885 
L 719.315986 207.885 
L 719.315986 202.516654 
L 714.78719 202.516654 
z
" clip-path="url(#pd6d25f8bef)" style="fill: #ff7f0e; opacity: 0.5; stroke: #ffffff; stroke-width: 0.8; stroke-linejoin: miter"/>
   </g>
   <g id="patch_112">
    <path d="M 719.315986 207.885 
L 723.844782 207.885 
L 723.844782 199.358803 
L 719.315986 199.358803 
z
" clip-path="url(#pd6d25f8bef)" style="fill: #ff7f0e; opacity: 0.5; stroke: #ffffff; stroke-width: 0.8; stroke-linejoin: miter"/>
   </g>
   <g id="patch_113">
    <path d="M 723.844782 207.885 
L 728.373578 207.885 
L 728.373578 198.095663 
L 723.844782 198.095663 
z
" clip-path="url(#pd6d25f8bef)" style="fill: #ff7f0e; opacity: 0.5; stroke: #ffffff; stroke-width: 0.8; stroke-linejoin: miter"/>
   </g>
   <g id="patch_114">
    <path d="M 728.373578 207.885 
L 732.902374 207.885 
L 732.902374 193.674672 
L 728.373578 193.674672 
z
" clip-path="url(#pd6d25f8bef)" style="fill: #ff7f0e; opacity: 0.5; stroke: #ffffff; stroke-width: 0.8; stroke-linejoin: miter"/>
   </g>
   <g id="patch_115">
    <path d="M 732.902374 207.885 
L 737.43117 207.885 
L 737.43117 188.937896 
L 732.902374 188.937896 
z
" clip-path="url(#pd6d25f8bef)" style="fill: #ff7f0e; opacity: 0.5; stroke: #ffffff; stroke-width: 0.8; stroke-linejoin: miter"/>
   </g>
   <g id="patch_116">
    <path d="M 737.43117 207.885 
L 741.959966 207.885 
L 741.959966 162.727737 
L 737.43117 162.727737 
z
" clip-path="url(#pd6d25f8bef)" style="fill: #ff7f0e; opacity: 0.5; stroke: #ffffff; stroke-width: 0.8; stroke-linejoin: miter"/>
   </g>
   <g id="patch_117">
    <path d="M 741.959966 207.885 
L 746.488762 207.885 
L 746.488762 145.359558 
L 741.959966 145.359558 
z
" clip-path="url(#pd6d25f8bef)" style="fill: #ff7f0e; opacity: 0.5; stroke: #ffffff; stroke-width: 0.8; stroke-linejoin: miter"/>
   </g>
   <g id="patch_118">
    <path d="M 746.488762 207.885 
L 751.017558 207.885 
L 751.017558 150.412119 
L 746.488762 150.412119 
z
" clip-path="url(#pd6d25f8bef)" style="fill: #ff7f0e; opacity: 0.5; stroke: #ffffff; stroke-width: 0.8; stroke-linejoin: miter"/>
   </g>
   <g id="patch_119">
    <path d="M 751.017558 207.885 
L 755.546354 207.885 
L 755.546354 158.938316 
L 751.017558 158.938316 
z
" clip-path="url(#pd6d25f8bef)" style="fill: #ff7f0e; opacity: 0.5; stroke: #ffffff; stroke-width: 0.8; stroke-linejoin: miter"/>
   </g>
   <g id="patch_120">
    <path d="M 755.546354 207.885 
L 760.07515 207.885 
L 760.07515 146.622699 
L 755.546354 146.622699 
z
" clip-path="url(#pd6d25f8bef)" style="fill: #ff7f0e; opacity: 0.5; stroke: #ffffff; stroke-width: 0.8; stroke-linejoin: miter"/>
   </g>
   <g id="patch_121">
    <path d="M 760.07515 207.885 
L 764.603946 207.885 
L 764.603946 166.517157 
L 760.07515 166.517157 
z
" clip-path="url(#pd6d25f8bef)" style="fill: #ff7f0e; opacity: 0.5; stroke: #ffffff; stroke-width: 0.8; stroke-linejoin: miter"/>
   </g>
   <g id="patch_122">
    <path d="M 764.603946 207.885 
L 769.132742 207.885 
L 769.132742 163.359307 
L 764.603946 163.359307 
z
" clip-path="url(#pd6d25f8bef)" style="fill: #ff7f0e; opacity: 0.5; stroke: #ffffff; stroke-width: 0.8; stroke-linejoin: miter"/>
   </g>
   <g id="patch_123">
    <path d="M 769.132742 207.885 
L 773.661538 207.885 
L 773.661538 172.201288 
L 769.132742 172.201288 
z
" clip-path="url(#pd6d25f8bef)" style="fill: #ff7f0e; opacity: 0.5; stroke: #ffffff; stroke-width: 0.8; stroke-linejoin: miter"/>
   </g>
   <g id="patch_124">
    <path d="M 773.661538 207.885 
L 778.190334 207.885 
L 778.190334 181.67484 
L 773.661538 181.67484 
z
" clip-path="url(#pd6d25f8bef)" style="fill: #ff7f0e; opacity: 0.5; stroke: #ffffff; stroke-width: 0.8; stroke-linejoin: miter"/>
   </g>
   <g id="patch_125">
    <path d="M 778.190334 207.885 
L 782.71913 207.885 
L 782.71913 184.832691 
L 778.190334 184.832691 
z
" clip-path="url(#pd6d25f8bef)" style="fill: #ff7f0e; opacity: 0.5; stroke: #ffffff; stroke-width: 0.8; stroke-linejoin: miter"/>
   </g>
   <g id="patch_126">
    <path d="M 782.71913 207.885 
L 787.247926 207.885 
L 787.247926 185.780046 
L 782.71913 185.780046 
z
" clip-path="url(#pd6d25f8bef)" style="fill: #ff7f0e; opacity: 0.5; stroke: #ffffff; stroke-width: 0.8; stroke-linejoin: miter"/>
   </g>
   <g id="patch_127">
    <path d="M 787.247926 207.885 
L 791.776722 207.885 
L 791.776722 185.464261 
L 787.247926 185.464261 
z
" clip-path="url(#pd6d25f8bef)" style="fill: #ff7f0e; opacity: 0.5; stroke: #ffffff; stroke-width: 0.8; stroke-linejoin: miter"/>
   </g>
   <g id="patch_128">
    <path d="M 791.776722 207.885 
L 796.305518 207.885 
L 796.305518 186.095831 
L 791.776722 186.095831 
z
" clip-path="url(#pd6d25f8bef)" style="fill: #ff7f0e; opacity: 0.5; stroke: #ffffff; stroke-width: 0.8; stroke-linejoin: miter"/>
   </g>
   <g id="patch_129">
    <path d="M 796.305518 207.885 
L 800.834314 207.885 
L 800.834314 188.937896 
L 796.305518 188.937896 
z
" clip-path="url(#pd6d25f8bef)" style="fill: #ff7f0e; opacity: 0.5; stroke: #ffffff; stroke-width: 0.8; stroke-linejoin: miter"/>
   </g>
   <g id="patch_130">
    <path d="M 800.834314 207.885 
L 805.36311 207.885 
L 805.36311 181.359055 
L 800.834314 181.359055 
z
" clip-path="url(#pd6d25f8bef)" style="fill: #ff7f0e; opacity: 0.5; stroke: #ffffff; stroke-width: 0.8; stroke-linejoin: miter"/>
   </g>
   <g id="patch_131">
    <path d="M 805.36311 207.885 
L 809.891906 207.885 
L 809.891906 190.201037 
L 805.36311 190.201037 
z
" clip-path="url(#pd6d25f8bef)" style="fill: #ff7f0e; opacity: 0.5; stroke: #ffffff; stroke-width: 0.8; stroke-linejoin: miter"/>
   </g>
   <g id="patch_132">
    <path d="M 809.891906 207.885 
L 814.420702 207.885 
L 814.420702 188.306326 
L 809.891906 188.306326 
z
" clip-path="url(#pd6d25f8bef)" style="fill: #ff7f0e; opacity: 0.5; stroke: #ffffff; stroke-width: 0.8; stroke-linejoin: miter"/>
   </g>
   <g id="patch_133">
    <path d="M 814.420702 207.885 
L 818.949498 207.885 
L 818.949498 176.622279 
L 814.420702 176.622279 
z
" clip-path="url(#pd6d25f8bef)" style="fill: #ff7f0e; opacity: 0.5; stroke: #ffffff; stroke-width: 0.8; stroke-linejoin: miter"/>
   </g>
   <g id="patch_134">
    <path d="M 818.949498 207.885 
L 823.478294 207.885 
L 823.478294 182.622195 
L 818.949498 182.622195 
z
" clip-path="url(#pd6d25f8bef)" style="fill: #ff7f0e; opacity: 0.5; stroke: #ffffff; stroke-width: 0.8; stroke-linejoin: miter"/>
   </g>
   <g id="patch_135">
    <path d="M 823.478294 207.885 
L 828.00709 207.885 
L 828.00709 170.306578 
L 823.478294 170.306578 
z
" clip-path="url(#pd6d25f8bef)" style="fill: #ff7f0e; opacity: 0.5; stroke: #ffffff; stroke-width: 0.8; stroke-linejoin: miter"/>
   </g>
   <g id="patch_136">
    <path d="M 828.00709 207.885 
L 832.535886 207.885 
L 832.535886 176.306494 
L 828.00709 176.306494 
z
" clip-path="url(#pd6d25f8bef)" style="fill: #ff7f0e; opacity: 0.5; stroke: #ffffff; stroke-width: 0.8; stroke-linejoin: miter"/>
   </g>
   <g id="patch_137">
    <path d="M 832.535886 207.885 
L 837.064682 207.885 
L 837.064682 179.14856 
L 832.535886 179.14856 
z
" clip-path="url(#pd6d25f8bef)" style="fill: #ff7f0e; opacity: 0.5; stroke: #ffffff; stroke-width: 0.8; stroke-linejoin: miter"/>
   </g>
   <g id="patch_138">
    <path d="M 837.064682 207.885 
L 841.593478 207.885 
L 841.593478 157.675176 
L 837.064682 157.675176 
z
" clip-path="url(#pd6d25f8bef)" style="fill: #ff7f0e; opacity: 0.5; stroke: #ffffff; stroke-width: 0.8; stroke-linejoin: miter"/>
   </g>
   <g id="patch_139">
    <path d="M 841.593478 207.885 
L 846.122274 207.885 
L 846.122274 160.833026 
L 841.593478 160.833026 
z
" clip-path="url(#pd6d25f8bef)" style="fill: #ff7f0e; opacity: 0.5; stroke: #ffffff; stroke-width: 0.8; stroke-linejoin: miter"/>
   </g>
   <g id="patch_140">
    <path d="M 846.122274 207.885 
L 850.65107 207.885 
L 850.65107 151.359474 
L 846.122274 151.359474 
z
" clip-path="url(#pd6d25f8bef)" style="fill: #ff7f0e; opacity: 0.5; stroke: #ffffff; stroke-width: 0.8; stroke-linejoin: miter"/>
   </g>
   <g id="patch_141">
    <path d="M 850.65107 207.885 
L 855.179866 207.885 
L 855.179866 166.517157 
L 850.65107 166.517157 
z
" clip-path="url(#pd6d25f8bef)" style="fill: #ff7f0e; opacity: 0.5; stroke: #ffffff; stroke-width: 0.8; stroke-linejoin: miter"/>
   </g>
   <g id="patch_142">
    <path d="M 855.179866 207.885 
L 859.708662 207.885 
L 859.708662 173.780214 
L 855.179866 173.780214 
z
" clip-path="url(#pd6d25f8bef)" style="fill: #ff7f0e; opacity: 0.5; stroke: #ffffff; stroke-width: 0.8; stroke-linejoin: miter"/>
   </g>
   <g id="patch_143">
    <path d="M 859.708662 207.885 
L 864.237458 207.885 
L 864.237458 166.201372 
L 859.708662 166.201372 
z
" clip-path="url(#pd6d25f8bef)" style="fill: #ff7f0e; opacity: 0.5; stroke: #ffffff; stroke-width: 0.8; stroke-linejoin: miter"/>
   </g>
   <g id="patch_144">
    <path d="M 864.237458 207.885 
L 868.766254 207.885 
L 868.766254 176.622279 
L 864.237458 176.622279 
z
" clip-path="url(#pd6d25f8bef)" style="fill: #ff7f0e; opacity: 0.5; stroke: #ffffff; stroke-width: 0.8; stroke-linejoin: miter"/>
   </g>
   <g id="patch_145">
    <path d="M 868.766254 207.885 
L 873.29505 207.885 
L 873.29505 187.358971 
L 868.766254 187.358971 
z
" clip-path="url(#pd6d25f8bef)" style="fill: #ff7f0e; opacity: 0.5; stroke: #ffffff; stroke-width: 0.8; stroke-linejoin: miter"/>
   </g>
   <g id="patch_146">
    <path d="M 873.29505 207.885 
L 877.823846 207.885 
L 877.823846 203.464009 
L 873.29505 203.464009 
z
" clip-path="url(#pd6d25f8bef)" style="fill: #ff7f0e; opacity: 0.5; stroke: #ffffff; stroke-width: 0.8; stroke-linejoin: miter"/>
   </g>
   <g id="patch_147">
    <path d="M 877.823846 207.885 
L 882.352642 207.885 
L 882.352642 203.464009 
L 877.823846 203.464009 
z
" clip-path="url(#pd6d25f8bef)" style="fill: #ff7f0e; opacity: 0.5; stroke: #ffffff; stroke-width: 0.8; stroke-linejoin: miter"/>
   </g>
   <g id="patch_148">
    <path d="M 569.96959 207.885 
L 578.311507 207.885 
L 578.311507 207.569215 
L 569.96959 207.569215 
z
" clip-path="url(#pd6d25f8bef)" style="fill: #2ca02c; opacity: 0.5; stroke: #ffffff; stroke-width: 0.8; stroke-linejoin: miter"/>
   </g>
   <g id="patch_149">
    <path d="M 578.311507 207.885 
L 586.653425 207.885 
L 586.653425 207.885 
L 578.311507 207.885 
z
" clip-path="url(#pd6d25f8bef)" style="fill: #2ca02c; opacity: 0.5; stroke: #ffffff; stroke-width: 0.8; stroke-linejoin: miter"/>
   </g>
   <g id="patch_150">
    <path d="M 586.653425 207.885 
L 594.995342 207.885 
L 594.995342 207.885 
L 586.653425 207.885 
z
" clip-path="url(#pd6d25f8bef)" style="fill: #2ca02c; opacity: 0.5; stroke: #ffffff; stroke-width: 0.8; stroke-linejoin: miter"/>
   </g>
   <g id="patch_151">
    <path d="M 594.995342 207.885 
L 603.33726 207.885 
L 603.33726 207.885 
L 594.995342 207.885 
z
" clip-path="url(#pd6d25f8bef)" style="fill: #2ca02c; opacity: 0.5; stroke: #ffffff; stroke-width: 0.8; stroke-linejoin: miter"/>
   </g>
   <g id="patch_152">
    <path d="M 603.33726 207.885 
L 611.679178 207.885 
L 611.679178 207.569215 
L 603.33726 207.569215 
z
" clip-path="url(#pd6d25f8bef)" style="fill: #2ca02c; opacity: 0.5; stroke: #ffffff; stroke-width: 0.8; stroke-linejoin: miter"/>
   </g>
   <g id="patch_153">
    <path d="M 611.679178 207.885 
L 620.021095 207.885 
L 620.021095 207.885 
L 611.679178 207.885 
z
" clip-path="url(#pd6d25f8bef)" style="fill: #2ca02c; opacity: 0.5; stroke: #ffffff; stroke-width: 0.8; stroke-linejoin: miter"/>
   </g>
   <g id="patch_154">
    <path d="M 620.021095 207.885 
L 628.363013 207.885 
L 628.363013 207.885 
L 620.021095 207.885 
z
" clip-path="url(#pd6d25f8bef)" style="fill: #2ca02c; opacity: 0.5; stroke: #ffffff; stroke-width: 0.8; stroke-linejoin: miter"/>
   </g>
   <g id="patch_155">
    <path d="M 628.363013 207.885 
L 636.70493 207.885 
L 636.70493 207.885 
L 628.363013 207.885 
z
" clip-path="url(#pd6d25f8bef)" style="fill: #2ca02c; opacity: 0.5; stroke: #ffffff; stroke-width: 0.8; stroke-linejoin: miter"/>
   </g>
   <g id="patch_156">
    <path d="M 636.70493 207.885 
L 645.046848 207.885 
L 645.046848 207.885 
L 636.70493 207.885 
z
" clip-path="url(#pd6d25f8bef)" style="fill: #2ca02c; opacity: 0.5; stroke: #ffffff; stroke-width: 0.8; stroke-linejoin: miter"/>
   </g>
   <g id="patch_157">
    <path d="M 645.046848 207.885 
L 653.388765 207.885 
L 653.388765 207.569215 
L 645.046848 207.569215 
z
" clip-path="url(#pd6d25f8bef)" style="fill: #2ca02c; opacity: 0.5; stroke: #ffffff; stroke-width: 0.8; stroke-linejoin: miter"/>
   </g>
   <g id="patch_158">
    <path d="M 653.388765 207.885 
L 661.730683 207.885 
L 661.730683 207.885 
L 653.388765 207.885 
z
" clip-path="url(#pd6d25f8bef)" style="fill: #2ca02c; opacity: 0.5; stroke: #ffffff; stroke-width: 0.8; stroke-linejoin: miter"/>
   </g>
   <g id="patch_159">
    <path d="M 661.730683 207.885 
L 670.072601 207.885 
L 670.072601 207.569215 
L 661.730683 207.569215 
z
" clip-path="url(#pd6d25f8bef)" style="fill: #2ca02c; opacity: 0.5; stroke: #ffffff; stroke-width: 0.8; stroke-linejoin: miter"/>
   </g>
   <g id="patch_160">
    <path d="M 670.072601 207.885 
L 678.414518 207.885 
L 678.414518 204.727149 
L 670.072601 204.727149 
z
" clip-path="url(#pd6d25f8bef)" style="fill: #2ca02c; opacity: 0.5; stroke: #ffffff; stroke-width: 0.8; stroke-linejoin: miter"/>
   </g>
   <g id="patch_161">
    <path d="M 678.414518 207.885 
L 686.756436 207.885 
L 686.756436 206.306075 
L 678.414518 206.306075 
z
" clip-path="url(#pd6d25f8bef)" style="fill: #2ca02c; opacity: 0.5; stroke: #ffffff; stroke-width: 0.8; stroke-linejoin: miter"/>
   </g>
   <g id="patch_162">
    <path d="M 686.756436 207.885 
L 695.098353 207.885 
L 695.098353 201.569299 
L 686.756436 201.569299 
z
" clip-path="url(#pd6d25f8bef)" style="fill: #2ca02c; opacity: 0.5; stroke: #ffffff; stroke-width: 0.8; stroke-linejoin: miter"/>
   </g>
   <g id="patch_163">
    <path d="M 695.098353 207.885 
L 703.440271 207.885 
L 703.440271 202.516654 
L 695.098353 202.516654 
z
" clip-path="url(#pd6d25f8bef)" style="fill: #2ca02c; opacity: 0.5; stroke: #ffffff; stroke-width: 0.8; stroke-linejoin: miter"/>
   </g>
   <g id="patch_164">
    <path d="M 703.440271 207.885 
L 711.782188 207.885 
L 711.782188 204.727149 
L 703.440271 204.727149 
z
" clip-path="url(#pd6d25f8bef)" style="fill: #2ca02c; opacity: 0.5; stroke: #ffffff; stroke-width: 0.8; stroke-linejoin: miter"/>
   </g>
   <g id="patch_165">
    <path d="M 711.782188 207.885 
L 720.124106 207.885 
L 720.124106 202.832439 
L 711.782188 202.832439 
z
" clip-path="url(#pd6d25f8bef)" style="fill: #2ca02c; opacity: 0.5; stroke: #ffffff; stroke-width: 0.8; stroke-linejoin: miter"/>
   </g>
   <g id="patch_166">
    <path d="M 720.124106 207.885 
L 728.466024 207.885 
L 728.466024 188.937896 
L 720.124106 188.937896 
z
" clip-path="url(#pd6d25f8bef)" style="fill: #2ca02c; opacity: 0.5; stroke: #ffffff; stroke-width: 0.8; stroke-linejoin: miter"/>
   </g>
   <g id="patch_167">
    <path d="M 728.466024 207.885 
L 736.807941 207.885 
L 736.807941 169.675008 
L 728.466024 169.675008 
z
" clip-path="url(#pd6d25f8bef)" style="fill: #2ca02c; opacity: 0.5; stroke: #ffffff; stroke-width: 0.8; stroke-linejoin: miter"/>
   </g>
   <g id="patch_168">
    <path d="M 736.807941 207.885 
L 745.149859 207.885 
L 745.149859 198.411448 
L 736.807941 198.411448 
z
" clip-path="url(#pd6d25f8bef)" style="fill: #2ca02c; opacity: 0.5; stroke: #ffffff; stroke-width: 0.8; stroke-linejoin: miter"/>
   </g>
   <g id="patch_169">
    <path d="M 745.149859 207.885 
L 753.491776 207.885 
L 753.491776 195.885168 
L 745.149859 195.885168 
z
" clip-path="url(#pd6d25f8bef)" style="fill: #2ca02c; opacity: 0.5; stroke: #ffffff; stroke-width: 0.8; stroke-linejoin: miter"/>
   </g>
   <g id="patch_170">
    <path d="M 753.491776 207.885 
L 761.833694 207.885 
L 761.833694 193.674672 
L 753.491776 193.674672 
z
" clip-path="url(#pd6d25f8bef)" style="fill: #2ca02c; opacity: 0.5; stroke: #ffffff; stroke-width: 0.8; stroke-linejoin: miter"/>
   </g>
   <g id="patch_171">
    <path d="M 761.833694 207.885 
L 770.175611 207.885 
L 770.175611 178.832775 
L 761.833694 178.832775 
z
" clip-path="url(#pd6d25f8bef)" style="fill: #2ca02c; opacity: 0.5; stroke: #ffffff; stroke-width: 0.8; stroke-linejoin: miter"/>
   </g>
   <g id="patch_172">
    <path d="M 770.175611 207.885 
L 778.517529 207.885 
L 778.517529 147.885839 
L 770.175611 147.885839 
z
" clip-path="url(#pd6d25f8bef)" style="fill: #2ca02c; opacity: 0.5; stroke: #ffffff; stroke-width: 0.8; stroke-linejoin: miter"/>
   </g>
   <g id="patch_173">
    <path d="M 778.517529 207.885 
L 786.859446 207.885 
L 786.859446 151.043689 
L 778.517529 151.043689 
z
" clip-path="url(#pd6d25f8bef)" style="fill: #2ca02c; opacity: 0.5; stroke: #ffffff; stroke-width: 0.8; stroke-linejoin: miter"/>
   </g>
   <g id="patch_174">
    <path d="M 786.859446 207.885 
L 795.201364 207.885 
L 795.201364 116.938903 
L 786.859446 116.938903 
z
" clip-path="url(#pd6d25f8bef)" style="fill: #2ca02c; opacity: 0.5; stroke: #ffffff; stroke-width: 0.8; stroke-linejoin: miter"/>
   </g>
   <g id="patch_175">
    <path d="M 795.201364 207.885 
L 803.543282 207.885 
L 803.543282 122.307249 
L 795.201364 122.307249 
z
" clip-path="url(#pd6d25f8bef)" style="fill: #2ca02c; opacity: 0.5; stroke: #ffffff; stroke-width: 0.8; stroke-linejoin: miter"/>
   </g>
   <g id="patch_176">
    <path d="M 803.543282 207.885 
L 811.885199 207.885 
L 811.885199 135.570221 
L 803.543282 135.570221 
z
" clip-path="url(#pd6d25f8bef)" style="fill: #2ca02c; opacity: 0.5; stroke: #ffffff; stroke-width: 0.8; stroke-linejoin: miter"/>
   </g>
   <g id="patch_177">
    <path d="M 811.885199 207.885 
L 820.227117 207.885 
L 820.227117 139.359642 
L 811.885199 139.359642 
z
" clip-path="url(#pd6d25f8bef)" style="fill: #2ca02c; opacity: 0.5; stroke: #ffffff; stroke-width: 0.8; stroke-linejoin: miter"/>
   </g>
   <g id="patch_178">
    <path d="M 820.227117 207.885 
L 828.569034 207.885 
L 828.569034 163.990877 
L 820.227117 163.990877 
z
" clip-path="url(#pd6d25f8bef)" style="fill: #2ca02c; opacity: 0.5; stroke: #ffffff; stroke-width: 0.8; stroke-linejoin: miter"/>
   </g>
   <g id="patch_179">
    <path d="M 828.569034 207.885 
L 836.910952 207.885 
L 836.910952 186.095831 
L 828.569034 186.095831 
z
" clip-path="url(#pd6d25f8bef)" style="fill: #2ca02c; opacity: 0.5; stroke: #ffffff; stroke-width: 0.8; stroke-linejoin: miter"/>
   </g>
   <g id="patch_180">
    <path d="M 836.910952 207.885 
L 845.252869 207.885 
L 845.252869 189.885252 
L 836.910952 189.885252 
z
" clip-path="url(#pd6d25f8bef)" style="fill: #2ca02c; opacity: 0.5; stroke: #ffffff; stroke-width: 0.8; stroke-linejoin: miter"/>
   </g>
   <g id="patch_181">
    <path d="M 845.252869 207.885 
L 853.594787 207.885 
L 853.594787 197.779878 
L 845.252869 197.779878 
z
" clip-path="url(#pd6d25f8bef)" style="fill: #2ca02c; opacity: 0.5; stroke: #ffffff; stroke-width: 0.8; stroke-linejoin: miter"/>
   </g>
   <g id="patch_182">
    <path d="M 853.594787 207.885 
L 861.936705 207.885 
L 861.936705 199.043018 
L 853.594787 199.043018 
z
" clip-path="url(#pd6d25f8bef)" style="fill: #2ca02c; opacity: 0.5; stroke: #ffffff; stroke-width: 0.8; stroke-linejoin: miter"/>
   </g>
   <g id="patch_183">
    <path d="M 861.936705 207.885 
L 870.278622 207.885 
L 870.278622 197.148308 
L 861.936705 197.148308 
z
" clip-path="url(#pd6d25f8bef)" style="fill: #2ca02c; opacity: 0.5; stroke: #ffffff; stroke-width: 0.8; stroke-linejoin: miter"/>
   </g>
   <g id="patch_184">
    <path d="M 870.278622 207.885 
L 878.62054 207.885 
L 878.62054 198.727233 
L 870.278622 198.727233 
z
" clip-path="url(#pd6d25f8bef)" style="fill: #2ca02c; opacity: 0.5; stroke: #ffffff; stroke-width: 0.8; stroke-linejoin: miter"/>
   </g>
   <g id="patch_185">
    <path d="M 878.62054 207.885 
L 886.962457 207.885 
L 886.962457 200.937729 
L 878.62054 200.937729 
z
" clip-path="url(#pd6d25f8bef)" style="fill: #2ca02c; opacity: 0.5; stroke: #ffffff; stroke-width: 0.8; stroke-linejoin: miter"/>
   </g>
   <g id="patch_186">
    <path d="M 886.962457 207.885 
L 895.304375 207.885 
L 895.304375 203.464009 
L 886.962457 203.464009 
z
" clip-path="url(#pd6d25f8bef)" style="fill: #2ca02c; opacity: 0.5; stroke: #ffffff; stroke-width: 0.8; stroke-linejoin: miter"/>
   </g>
   <g id="patch_187">
    <path d="M 895.304375 207.885 
L 903.646292 207.885 
L 903.646292 205.674505 
L 895.304375 205.674505 
z
" clip-path="url(#pd6d25f8bef)" style="fill: #2ca02c; opacity: 0.5; stroke: #ffffff; stroke-width: 0.8; stroke-linejoin: miter"/>
   </g>
   <g id="patch_188">
    <path d="M 551.03486 207.885 
L 551.03486 27.177 
" style="fill: none; stroke: #cccccc; stroke-linejoin: miter; stroke-linecap: square"/>
   </g>
   <g id="patch_189">
    <path d="M 967.598916 207.885 
L 967.598916 27.177 
" style="fill: none; stroke: #cccccc; stroke-linejoin: miter; stroke-linecap: square"/>
   </g>
   <g id="patch_190">
    <path d="M 551.03486 207.885 
L 967.598916 207.885 
" style="fill: none; stroke: #cccccc; stroke-linejoin: miter; stroke-linecap: square"/>
   </g>
   <g id="patch_191">
    <path d="M 551.03486 27.177 
L 967.598916 27.177 
" style="fill: none; stroke: #cccccc; stroke-linejoin: miter; stroke-linecap: square"/>
   </g>
   <g id="text_23">
    <!-- Distribution by Decade -->
    <g style="fill: #262626" transform="translate(662.740888 21.177) scale(0.192 -0.192)">
     <defs>
      <path id="ArialMT-64" d="M 2575 0 
L 2575 419 
Q 2259 -75 1647 -75 
Q 1250 -75 917 144 
Q 584 363 401 755 
Q 219 1147 219 1656 
Q 219 2153 384 2558 
Q 550 2963 881 3178 
Q 1213 3394 1622 3394 
Q 1922 3394 2156 3267 
Q 2391 3141 2538 2938 
L 2538 4581 
L 3097 4581 
L 3097 0 
L 2575 0 
z
M 797 1656 
Q 797 1019 1065 703 
Q 1334 388 1700 388 
Q 2069 388 2326 689 
Q 2584 991 2584 1609 
Q 2584 2291 2321 2609 
Q 2059 2928 1675 2928 
Q 1300 2928 1048 2622 
Q 797 2316 797 1656 
z
" transform="scale(0.015625)"/>
     </defs>
     <use xlink:href="#ArialMT-44"/>
     <use xlink:href="#ArialMT-69" transform="translate(72.216797 0)"/>
     <use xlink:href="#ArialMT-73" transform="translate(94.433594 0)"/>
     <use xlink:href="#ArialMT-74" transform="translate(144.433594 0)"/>
     <use xlink:href="#ArialMT-72" transform="translate(172.216797 0)"/>
     <use xlink:href="#ArialMT-69" transform="translate(205.517578 0)"/>
     <use xlink:href="#ArialMT-62" transform="translate(227.734375 0)"/>
     <use xlink:href="#ArialMT-75" transform="translate(283.349609 0)"/>
     <use xlink:href="#ArialMT-74" transform="translate(338.964844 0)"/>
     <use xlink:href="#ArialMT-69" transform="translate(366.748047 0)"/>
     <use xlink:href="#ArialMT-6f" transform="translate(388.964844 0)"/>
     <use xlink:href="#ArialMT-6e" transform="translate(444.580078 0)"/>
     <use xlink:href="#ArialMT-20" transform="translate(500.195312 0)"/>
     <use xlink:href="#ArialMT-62" transform="translate(527.978516 0)"/>
     <use xlink:href="#ArialMT-79" transform="translate(583.59375 0)"/>
     <use xlink:href="#ArialMT-20" transform="translate(633.59375 0)"/>
     <use xlink:href="#ArialMT-44" transform="translate(661.376953 0)"/>
     <use xlink:href="#ArialMT-65" transform="translate(733.59375 0)"/>
     <use xlink:href="#ArialMT-63" transform="translate(789.208984 0)"/>
     <use xlink:href="#ArialMT-61" transform="translate(839.208984 0)"/>
     <use xlink:href="#ArialMT-64" transform="translate(894.824219 0)"/>
     <use xlink:href="#ArialMT-65" transform="translate(950.439453 0)"/>
    </g>
   </g>
   <g id="legend_1">
    <g id="patch_192">
     <path d="M 851.009916 115.94425 
L 955.278916 115.94425 
Q 958.798916 115.94425 958.798916 112.42425 
L 958.798916 39.497 
Q 958.798916 35.977 955.278916 35.977 
L 851.009916 35.977 
Q 847.489916 35.977 847.489916 39.497 
L 847.489916 112.42425 
Q 847.489916 115.94425 851.009916 115.94425 
z
" style="fill: #ffffff; opacity: 0.8; stroke: #cccccc; stroke-width: 0.8; stroke-linejoin: miter"/>
    </g>
    <g id="patch_193">
     <path d="M 854.529916 55.61475 
L 889.729916 55.61475 
L 889.729916 43.29475 
L 854.529916 43.29475 
z
" style="fill: #1f77b4; opacity: 0.5; stroke: #ffffff; stroke-width: 0.8; stroke-linejoin: miter"/>
    </g>
    <g id="text_24">
     <!-- 2000s -->
     <g style="fill: #262626" transform="translate(903.809916 55.61475) scale(0.176 -0.176)">
      <use xlink:href="#ArialMT-32"/>
      <use xlink:href="#ArialMT-30" transform="translate(55.615234 0)"/>
      <use xlink:href="#ArialMT-30" transform="translate(111.230469 0)"/>
      <use xlink:href="#ArialMT-30" transform="translate(166.845703 0)"/>
      <use xlink:href="#ArialMT-73" transform="translate(222.460938 0)"/>
     </g>
    </g>
    <g id="patch_194">
     <path d="M 854.529916 80.5105 
L 889.729916 80.5105 
L 889.729916 68.1905 
L 854.529916 68.1905 
z
" style="fill: #ff7f0e; opacity: 0.5; stroke: #ffffff; stroke-width: 0.8; stroke-linejoin: miter"/>
    </g>
    <g id="text_25">
     <!-- 2010s -->
     <g style="fill: #262626" transform="translate(903.809916 80.5105) scale(0.176 -0.176)">
      <use xlink:href="#ArialMT-32"/>
      <use xlink:href="#ArialMT-30" transform="translate(55.615234 0)"/>
      <use xlink:href="#ArialMT-31" transform="translate(111.230469 0)"/>
      <use xlink:href="#ArialMT-30" transform="translate(166.845703 0)"/>
      <use xlink:href="#ArialMT-73" transform="translate(222.460938 0)"/>
     </g>
    </g>
    <g id="patch_195">
     <path d="M 854.529916 105.40625 
L 889.729916 105.40625 
L 889.729916 93.08625 
L 854.529916 93.08625 
z
" style="fill: #2ca02c; opacity: 0.5; stroke: #ffffff; stroke-width: 0.8; stroke-linejoin: miter"/>
    </g>
    <g id="text_26">
     <!-- 2020s -->
     <g style="fill: #262626" transform="translate(903.809916 105.40625) scale(0.176 -0.176)">
      <use xlink:href="#ArialMT-32"/>
      <use xlink:href="#ArialMT-30" transform="translate(55.615234 0)"/>
      <use xlink:href="#ArialMT-32" transform="translate(111.230469 0)"/>
      <use xlink:href="#ArialMT-30" transform="translate(166.845703 0)"/>
      <use xlink:href="#ArialMT-73" transform="translate(222.460938 0)"/>
     </g>
    </g>
   </g>
  </g>
 </g>
 <defs>
  <clipPath id="p2068154c5d">
   <rect x="66.64575" y="27.177" width="416.564057" height="180.708"/>
  </clipPath>
  <clipPath id="pd6d25f8bef">
   <rect x="551.03486" y="27.177" width="416.564057" height="180.708"/>
  </clipPath>
 </defs>
</svg>
