<?xml version="1.0" encoding="utf-8" standalone="no"?>
<!DOCTYPE svg PUBLIC "-//W3C//DTD SVG 1.1//EN"
  "http://www.w3.org/Graphics/SVG/1.1/DTD/svg11.dtd">
<svg xmlns:xlink="http://www.w3.org/1999/xlink" width="981.611pt" height="261.03975pt" viewBox="0 0 981.611 261.03975" xmlns="http://www.w3.org/2000/svg" version="1.1">
 <metadata>
  <rdf:RDF xmlns:dc="http://purl.org/dc/elements/1.1/" xmlns:cc="http://creativecommons.org/ns#" xmlns:rdf="http://www.w3.org/1999/02/22-rdf-syntax-ns#">
   <cc:Work>
    <dc:type rdf:resource="http://purl.org/dc/dcmitype/StillImage"/>
    <dc:date>2026-03-30T22:13:06.692038</dc:date>
    <dc:format>image/svg+xml</dc:format>
    <dc:creator>
     <cc:Agent>
      <dc:title>Matplotlib v3.10.8, https://matplotlib.org/</dc:title>
     </cc:Agent>
    </dc:creator>
   </cc:Work>
  </rdf:RDF>
 </metadata>
 <defs>
  <style type="text/css">*{stroke-linejoin: round; stroke-linecap: butt}</style>
 </defs>
 <g id="figure_1">
  <g id="patch_1">
   <path d="M 0 261.03975 
L 981.611 261.03975 
L 981.611 0 
L 0 0 
z
" style="fill: #ffffff"/>
  </g>
  <g id="axes_1">
   <g id="patch_2">
    <path d="M 76.433 207.885 
L 496.324 207.885 
L 496.324 27.177 
L 76.433 27.177 
z
" style="fill: #ffffff"/>
   </g>
   <g id="matplotlib.axis_1">
    <g id="xtick_1">
     <g id="line2d_1">
      <path d="M 79.867308 207.885 
L 79.867308 27.177 
" clip-path="url(#pc9184dc6a4)" style="fill: none; stroke: #cccccc; stroke-width: 0.8; stroke-linecap: round"/>
     </g>
     <g id="text_1">
      <!-- 0 -->
      <g style="fill: #262626" transform="translate(74.973683 228.78275) scale(0.176 -0.176)">
       <defs>
        <path id="ArialMT-30" d="M 266 2259 
Q 266 3072 433 3567 
Q 600 4063 929 4331 
Q 1259 4600 1759 4600 
Q 2128 4600 2406 4451 
Q 2684 4303 2865 4023 
Q 3047 3744 3150 3342 
Q 3253 2941 3253 2259 
Q 3253 1453 3087 958 
Q 2922 463 2592 192 
Q 2263 -78 1759 -78 
Q 1097 -78 719 397 
Q 266 969 266 2259 
z
M 844 2259 
Q 844 1131 1108 757 
Q 1372 384 1759 384 
Q 2147 384 2411 759 
Q 2675 1134 2675 2259 
Q 2675 3391 2411 3762 
Q 2147 4134 1753 4134 
Q 1366 4134 1134 3806 
Q 844 3388 844 2259 
z
" transform="scale(0.015625)"/>
       </defs>
       <use xlink:href="#ArialMT-30"/>
      </g>
     </g>
    </g>
    <g id="xtick_2">
     <g id="line2d_2">
      <path d="M 144.543535 207.885 
L 144.543535 27.177 
" clip-path="url(#pc9184dc6a4)" style="fill: none; stroke: #cccccc; stroke-width: 0.8; stroke-linecap: round"/>
     </g>
     <g id="text_2">
      <!-- 5 -->
      <g style="fill: #262626" transform="translate(139.64991 228.78275) scale(0.176 -0.176)">
       <defs>
        <path id="ArialMT-35" d="M 266 1200 
L 856 1250 
Q 922 819 1161 601 
Q 1400 384 1738 384 
Q 2144 384 2425 690 
Q 2706 997 2706 1503 
Q 2706 1984 2436 2262 
Q 2166 2541 1728 2541 
Q 1456 2541 1237 2417 
Q 1019 2294 894 2097 
L 366 2166 
L 809 4519 
L 3088 4519 
L 3088 3981 
L 1259 3981 
L 1013 2750 
Q 1425 3038 1878 3038 
Q 2478 3038 2890 2622 
Q 3303 2206 3303 1553 
Q 3303 931 2941 478 
Q 2500 -78 1738 -78 
Q 1113 -78 717 272 
Q 322 622 266 1200 
z
" transform="scale(0.015625)"/>
       </defs>
       <use xlink:href="#ArialMT-35"/>
      </g>
     </g>
    </g>
    <g id="xtick_3">
     <g id="line2d_3">
      <path d="M 209.219761 207.885 
L 209.219761 27.177 
" clip-path="url(#pc9184dc6a4)" style="fill: none; stroke: #cccccc; stroke-width: 0.8; stroke-linecap: round"/>
     </g>
     <g id="text_3">
      <!-- 10 -->
      <g style="fill: #262626" transform="translate(199.432511 228.78275) scale(0.176 -0.176)">
       <defs>
        <path id="ArialMT-31" d="M 2384 0 
L 1822 0 
L 1822 3584 
Q 1619 3391 1289 3197 
Q 959 3003 697 2906 
L 697 3450 
Q 1169 3672 1522 3987 
Q 1875 4303 2022 4600 
L 2384 4600 
L 2384 0 
z
" transform="scale(0.015625)"/>
       </defs>
       <use xlink:href="#ArialMT-31"/>
       <use xlink:href="#ArialMT-30" transform="translate(55.615234 0)"/>
      </g>
     </g>
    </g>
    <g id="xtick_4">
     <g id="line2d_4">
      <path d="M 273.895988 207.885 
L 273.895988 27.177 
" clip-path="url(#pc9184dc6a4)" style="fill: none; stroke: #cccccc; stroke-width: 0.8; stroke-linecap: round"/>
     </g>
     <g id="text_4">
      <!-- 15 -->
      <g style="fill: #262626" transform="translate(264.108738 228.78275) scale(0.176 -0.176)">
       <use xlink:href="#ArialMT-31"/>
       <use xlink:href="#ArialMT-35" transform="translate(55.615234 0)"/>
      </g>
     </g>
    </g>
    <g id="xtick_5">
     <g id="line2d_5">
      <path d="M 338.572215 207.885 
L 338.572215 27.177 
" clip-path="url(#pc9184dc6a4)" style="fill: none; stroke: #cccccc; stroke-width: 0.8; stroke-linecap: round"/>
     </g>
     <g id="text_5">
      <!-- 20 -->
      <g style="fill: #262626" transform="translate(328.784965 228.78275) scale(0.176 -0.176)">
       <defs>
        <path id="ArialMT-32" d="M 3222 541 
L 3222 0 
L 194 0 
Q 188 203 259 391 
Q 375 700 629 1000 
Q 884 1300 1366 1694 
Q 2113 2306 2375 2664 
Q 2638 3022 2638 3341 
Q 2638 3675 2398 3904 
Q 2159 4134 1775 4134 
Q 1369 4134 1125 3890 
Q 881 3647 878 3216 
L 300 3275 
Q 359 3922 746 4261 
Q 1134 4600 1788 4600 
Q 2447 4600 2831 4234 
Q 3216 3869 3216 3328 
Q 3216 3053 3103 2787 
Q 2991 2522 2730 2228 
Q 2469 1934 1863 1422 
Q 1356 997 1212 845 
Q 1069 694 975 541 
L 3222 541 
z
" transform="scale(0.015625)"/>
       </defs>
       <use xlink:href="#ArialMT-32"/>
       <use xlink:href="#ArialMT-30" transform="translate(55.615234 0)"/>
      </g>
     </g>
    </g>
    <g id="xtick_6">
     <g id="line2d_6">
      <path d="M 403.248442 207.885 
L 403.248442 27.177 
" clip-path="url(#pc9184dc6a4)" style="fill: none; stroke: #cccccc; stroke-width: 0.8; stroke-linecap: round"/>
     </g>
     <g id="text_6">
      <!-- 25 -->
      <g style="fill: #262626" transform="translate(393.461192 228.78275) scale(0.176 -0.176)">
       <use xlink:href="#ArialMT-32"/>
       <use xlink:href="#ArialMT-35" transform="translate(55.615234 0)"/>
      </g>
     </g>
    </g>
    <g id="xtick_7">
     <g id="line2d_7">
      <path d="M 467.924669 207.885 
L 467.924669 27.177 
" clip-path="url(#pc9184dc6a4)" style="fill: none; stroke: #cccccc; stroke-width: 0.8; stroke-linecap: round"/>
     </g>
     <g id="text_7">
      <!-- 30 -->
      <g style="fill: #262626" transform="translate(458.137419 228.78275) scale(0.176 -0.176)">
       <defs>
        <path id="ArialMT-33" d="M 269 1209 
L 831 1284 
Q 928 806 1161 595 
Q 1394 384 1728 384 
Q 2125 384 2398 659 
Q 2672 934 2672 1341 
Q 2672 1728 2419 1979 
Q 2166 2231 1775 2231 
Q 1616 2231 1378 2169 
L 1441 2663 
Q 1497 2656 1531 2656 
Q 1891 2656 2178 2843 
Q 2466 3031 2466 3422 
Q 2466 3731 2256 3934 
Q 2047 4138 1716 4138 
Q 1388 4138 1169 3931 
Q 950 3725 888 3313 
L 325 3413 
Q 428 3978 793 4289 
Q 1159 4600 1703 4600 
Q 2078 4600 2393 4439 
Q 2709 4278 2876 4000 
Q 3044 3722 3044 3409 
Q 3044 3113 2884 2869 
Q 2725 2625 2413 2481 
Q 2819 2388 3044 2092 
Q 3269 1797 3269 1353 
Q 3269 753 2831 336 
Q 2394 -81 1725 -81 
Q 1122 -81 723 278 
Q 325 638 269 1209 
z
" transform="scale(0.015625)"/>
       </defs>
       <use xlink:href="#ArialMT-33"/>
       <use xlink:href="#ArialMT-30" transform="translate(55.615234 0)"/>
      </g>
     </g>
    </g>
    <g id="text_8">
     <!-- USD / MMBtu -->
     <g style="fill: #262626" transform="translate(227.706 250.02375) scale(0.192 -0.192)">
      <defs>
       <path id="ArialMT-55" d="M 3500 4581 
L 4106 4581 
L 4106 1934 
Q 4106 1244 3950 837 
Q 3794 431 3386 176 
Q 2978 -78 2316 -78 
Q 1672 -78 1262 144 
Q 853 366 678 786 
Q 503 1206 503 1934 
L 503 4581 
L 1109 4581 
L 1109 1938 
Q 1109 1341 1220 1058 
Q 1331 775 1601 622 
Q 1872 469 2263 469 
Q 2931 469 3215 772 
Q 3500 1075 3500 1938 
L 3500 4581 
z
" transform="scale(0.015625)"/>
       <path id="ArialMT-53" d="M 288 1472 
L 859 1522 
Q 900 1178 1048 958 
Q 1197 738 1509 602 
Q 1822 466 2213 466 
Q 2559 466 2825 569 
Q 3091 672 3220 851 
Q 3350 1031 3350 1244 
Q 3350 1459 3225 1620 
Q 3100 1781 2813 1891 
Q 2628 1963 1997 2114 
Q 1366 2266 1113 2400 
Q 784 2572 623 2826 
Q 463 3081 463 3397 
Q 463 3744 659 4045 
Q 856 4347 1234 4503 
Q 1613 4659 2075 4659 
Q 2584 4659 2973 4495 
Q 3363 4331 3572 4012 
Q 3781 3694 3797 3291 
L 3216 3247 
Q 3169 3681 2898 3903 
Q 2628 4125 2100 4125 
Q 1550 4125 1298 3923 
Q 1047 3722 1047 3438 
Q 1047 3191 1225 3031 
Q 1400 2872 2139 2705 
Q 2878 2538 3153 2413 
Q 3553 2228 3743 1945 
Q 3934 1663 3934 1294 
Q 3934 928 3725 604 
Q 3516 281 3123 101 
Q 2731 -78 2241 -78 
Q 1619 -78 1198 103 
Q 778 284 539 648 
Q 300 1013 288 1472 
z
" transform="scale(0.015625)"/>
       <path id="ArialMT-44" d="M 494 0 
L 494 4581 
L 2072 4581 
Q 2606 4581 2888 4516 
Q 3281 4425 3559 4188 
Q 3922 3881 4101 3404 
Q 4281 2928 4281 2316 
Q 4281 1794 4159 1391 
Q 4038 988 3847 723 
Q 3656 459 3429 307 
Q 3203 156 2883 78 
Q 2563 0 2147 0 
L 494 0 
z
M 1100 541 
L 2078 541 
Q 2531 541 2789 625 
Q 3047 709 3200 863 
Q 3416 1078 3536 1442 
Q 3656 1806 3656 2325 
Q 3656 3044 3420 3430 
Q 3184 3816 2847 3947 
Q 2603 4041 2063 4041 
L 1100 4041 
L 1100 541 
z
" transform="scale(0.015625)"/>
       <path id="ArialMT-20" transform="scale(0.015625)"/>
       <path id="ArialMT-2f" d="M 0 -78 
L 1328 4659 
L 1778 4659 
L 453 -78 
L 0 -78 
z
" transform="scale(0.015625)"/>
       <path id="ArialMT-4d" d="M 475 0 
L 475 4581 
L 1388 4581 
L 2472 1338 
Q 2622 884 2691 659 
Q 2769 909 2934 1394 
L 4031 4581 
L 4847 4581 
L 4847 0 
L 4263 0 
L 4263 3834 
L 2931 0 
L 2384 0 
L 1059 3900 
L 1059 0 
L 475 0 
z
" transform="scale(0.015625)"/>
       <path id="ArialMT-42" d="M 469 0 
L 469 4581 
L 2188 4581 
Q 2713 4581 3030 4442 
Q 3347 4303 3526 4014 
Q 3706 3725 3706 3409 
Q 3706 3116 3547 2856 
Q 3388 2597 3066 2438 
Q 3481 2316 3704 2022 
Q 3928 1728 3928 1328 
Q 3928 1006 3792 729 
Q 3656 453 3456 303 
Q 3256 153 2954 76 
Q 2653 0 2216 0 
L 469 0 
z
M 1075 2656 
L 2066 2656 
Q 2469 2656 2644 2709 
Q 2875 2778 2992 2937 
Q 3109 3097 3109 3338 
Q 3109 3566 3000 3739 
Q 2891 3913 2687 3977 
Q 2484 4041 1991 4041 
L 1075 4041 
L 1075 2656 
z
M 1075 541 
L 2216 541 
Q 2509 541 2628 563 
Q 2838 600 2978 687 
Q 3119 775 3209 942 
Q 3300 1109 3300 1328 
Q 3300 1584 3169 1773 
Q 3038 1963 2805 2039 
Q 2572 2116 2134 2116 
L 1075 2116 
L 1075 541 
z
" transform="scale(0.015625)"/>
       <path id="ArialMT-74" d="M 1650 503 
L 1731 6 
Q 1494 -44 1306 -44 
Q 1000 -44 831 53 
Q 663 150 594 308 
Q 525 466 525 972 
L 525 2881 
L 113 2881 
L 113 3319 
L 525 3319 
L 525 4141 
L 1084 4478 
L 1084 3319 
L 1650 3319 
L 1650 2881 
L 1084 2881 
L 1084 941 
Q 1084 700 1114 631 
Q 1144 563 1211 522 
Q 1278 481 1403 481 
Q 1497 481 1650 503 
z
" transform="scale(0.015625)"/>
       <path id="ArialMT-75" d="M 2597 0 
L 2597 488 
Q 2209 -75 1544 -75 
Q 1250 -75 995 37 
Q 741 150 617 320 
Q 494 491 444 738 
Q 409 903 409 1263 
L 409 3319 
L 972 3319 
L 972 1478 
Q 972 1038 1006 884 
Q 1059 663 1231 536 
Q 1403 409 1656 409 
Q 1909 409 2131 539 
Q 2353 669 2445 892 
Q 2538 1116 2538 1541 
L 2538 3319 
L 3100 3319 
L 3100 0 
L 2597 0 
z
" transform="scale(0.015625)"/>
      </defs>
      <use xlink:href="#ArialMT-55"/>
      <use xlink:href="#ArialMT-53" transform="translate(72.216797 0)"/>
      <use xlink:href="#ArialMT-44" transform="translate(138.916016 0)"/>
      <use xlink:href="#ArialMT-20" transform="translate(211.132812 0)"/>
      <use xlink:href="#ArialMT-2f" transform="translate(238.916016 0)"/>
      <use xlink:href="#ArialMT-20" transform="translate(266.699219 0)"/>
      <use xlink:href="#ArialMT-4d" transform="translate(294.482422 0)"/>
      <use xlink:href="#ArialMT-4d" transform="translate(377.783203 0)"/>
      <use xlink:href="#ArialMT-42" transform="translate(461.083984 0)"/>
      <use xlink:href="#ArialMT-74" transform="translate(527.783203 0)"/>
      <use xlink:href="#ArialMT-75" transform="translate(555.566406 0)"/>
     </g>
    </g>
   </g>
   <g id="matplotlib.axis_2">
    <g id="ytick_1">
     <g id="line2d_8">
      <path d="M 76.433 207.885 
L 496.324 207.885 
" clip-path="url(#pc9184dc6a4)" style="fill: none; stroke: #cccccc; stroke-width: 0.8; stroke-linecap: round"/>
     </g>
     <g id="text_9">
      <!-- 0 -->
      <g style="fill: #262626" transform="translate(58.34575 214.183875) scale(0.176 -0.176)">
       <use xlink:href="#ArialMT-30"/>
      </g>
     </g>
    </g>
    <g id="ytick_2">
     <g id="line2d_9">
      <path d="M 76.433 158.543585 
L 496.324 158.543585 
" clip-path="url(#pc9184dc6a4)" style="fill: none; stroke: #cccccc; stroke-width: 0.8; stroke-linecap: round"/>
     </g>
     <g id="text_10">
      <!-- 500 -->
      <g style="fill: #262626" transform="translate(38.77125 164.84246) scale(0.176 -0.176)">
       <use xlink:href="#ArialMT-35"/>
       <use xlink:href="#ArialMT-30" transform="translate(55.615234 0)"/>
       <use xlink:href="#ArialMT-30" transform="translate(111.230469 0)"/>
      </g>
     </g>
    </g>
    <g id="ytick_3">
     <g id="line2d_10">
      <path d="M 76.433 109.202169 
L 496.324 109.202169 
" clip-path="url(#pc9184dc6a4)" style="fill: none; stroke: #cccccc; stroke-width: 0.8; stroke-linecap: round"/>
     </g>
     <g id="text_11">
      <!-- 1000 -->
      <g style="fill: #262626" transform="translate(28.984 115.501044) scale(0.176 -0.176)">
       <use xlink:href="#ArialMT-31"/>
       <use xlink:href="#ArialMT-30" transform="translate(55.615234 0)"/>
       <use xlink:href="#ArialMT-30" transform="translate(111.230469 0)"/>
       <use xlink:href="#ArialMT-30" transform="translate(166.845703 0)"/>
      </g>
     </g>
    </g>
    <g id="ytick_4">
     <g id="line2d_11">
      <path d="M 76.433 59.860754 
L 496.324 59.860754 
" clip-path="url(#pc9184dc6a4)" style="fill: none; stroke: #cccccc; stroke-width: 0.8; stroke-linecap: round"/>
     </g>
     <g id="text_12">
      <!-- 1500 -->
      <g style="fill: #262626" transform="translate(28.984 66.159629) scale(0.176 -0.176)">
       <use xlink:href="#ArialMT-31"/>
       <use xlink:href="#ArialMT-35" transform="translate(55.615234 0)"/>
       <use xlink:href="#ArialMT-30" transform="translate(111.230469 0)"/>
       <use xlink:href="#ArialMT-30" transform="translate(166.845703 0)"/>
      </g>
     </g>
    </g>
    <g id="text_13">
     <!-- Frequency -->
     <g style="fill: #262626" transform="translate(20.943 162.8835) rotate(-90) scale(0.192 -0.192)">
      <defs>
       <path id="ArialMT-46" d="M 525 0 
L 525 4581 
L 3616 4581 
L 3616 4041 
L 1131 4041 
L 1131 2622 
L 3281 2622 
L 3281 2081 
L 1131 2081 
L 1131 0 
L 525 0 
z
" transform="scale(0.015625)"/>
       <path id="ArialMT-72" d="M 416 0 
L 416 3319 
L 922 3319 
L 922 2816 
Q 1116 3169 1280 3281 
Q 1444 3394 1641 3394 
Q 1925 3394 2219 3213 
L 2025 2691 
Q 1819 2813 1613 2813 
Q 1428 2813 1281 2702 
Q 1134 2591 1072 2394 
Q 978 2094 978 1738 
L 978 0 
L 416 0 
z
" transform="scale(0.015625)"/>
       <path id="ArialMT-65" d="M 2694 1069 
L 3275 997 
Q 3138 488 2766 206 
Q 2394 -75 1816 -75 
Q 1088 -75 661 373 
Q 234 822 234 1631 
Q 234 2469 665 2931 
Q 1097 3394 1784 3394 
Q 2450 3394 2872 2941 
Q 3294 2488 3294 1666 
Q 3294 1616 3291 1516 
L 816 1516 
Q 847 969 1125 678 
Q 1403 388 1819 388 
Q 2128 388 2347 550 
Q 2566 713 2694 1069 
z
M 847 1978 
L 2700 1978 
Q 2663 2397 2488 2606 
Q 2219 2931 1791 2931 
Q 1403 2931 1139 2672 
Q 875 2413 847 1978 
z
" transform="scale(0.015625)"/>
       <path id="ArialMT-71" d="M 2538 -1272 
L 2538 353 
Q 2406 169 2170 47 
Q 1934 -75 1669 -75 
Q 1078 -75 651 397 
Q 225 869 225 1691 
Q 225 2191 398 2587 
Q 572 2984 901 3189 
Q 1231 3394 1625 3394 
Q 2241 3394 2594 2875 
L 2594 3319 
L 3100 3319 
L 3100 -1272 
L 2538 -1272 
z
M 803 1669 
Q 803 1028 1072 708 
Q 1341 388 1716 388 
Q 2075 388 2334 692 
Q 2594 997 2594 1619 
Q 2594 2281 2320 2615 
Q 2047 2950 1678 2950 
Q 1313 2950 1058 2639 
Q 803 2328 803 1669 
z
" transform="scale(0.015625)"/>
       <path id="ArialMT-6e" d="M 422 0 
L 422 3319 
L 928 3319 
L 928 2847 
Q 1294 3394 1984 3394 
Q 2284 3394 2536 3286 
Q 2788 3178 2913 3003 
Q 3038 2828 3088 2588 
Q 3119 2431 3119 2041 
L 3119 0 
L 2556 0 
L 2556 2019 
Q 2556 2363 2490 2533 
Q 2425 2703 2258 2804 
Q 2091 2906 1866 2906 
Q 1506 2906 1245 2678 
Q 984 2450 984 1813 
L 984 0 
L 422 0 
z
" transform="scale(0.015625)"/>
       <path id="ArialMT-63" d="M 2588 1216 
L 3141 1144 
Q 3050 572 2676 248 
Q 2303 -75 1759 -75 
Q 1078 -75 664 370 
Q 250 816 250 1647 
Q 250 2184 428 2587 
Q 606 2991 970 3192 
Q 1334 3394 1763 3394 
Q 2303 3394 2647 3120 
Q 2991 2847 3088 2344 
L 2541 2259 
Q 2463 2594 2264 2762 
Q 2066 2931 1784 2931 
Q 1359 2931 1093 2626 
Q 828 2322 828 1663 
Q 828 994 1084 691 
Q 1341 388 1753 388 
Q 2084 388 2306 591 
Q 2528 794 2588 1216 
z
" transform="scale(0.015625)"/>
       <path id="ArialMT-79" d="M 397 -1278 
L 334 -750 
Q 519 -800 656 -800 
Q 844 -800 956 -737 
Q 1069 -675 1141 -563 
Q 1194 -478 1313 -144 
Q 1328 -97 1363 -6 
L 103 3319 
L 709 3319 
L 1400 1397 
Q 1534 1031 1641 628 
Q 1738 1016 1872 1384 
L 2581 3319 
L 3144 3319 
L 1881 -56 
Q 1678 -603 1566 -809 
Q 1416 -1088 1222 -1217 
Q 1028 -1347 759 -1347 
Q 597 -1347 397 -1278 
z
" transform="scale(0.015625)"/>
      </defs>
      <use xlink:href="#ArialMT-46"/>
      <use xlink:href="#ArialMT-72" transform="translate(61.083984 0)"/>
      <use xlink:href="#ArialMT-65" transform="translate(94.384766 0)"/>
      <use xlink:href="#ArialMT-71" transform="translate(150 0)"/>
      <use xlink:href="#ArialMT-75" transform="translate(205.615234 0)"/>
      <use xlink:href="#ArialMT-65" transform="translate(261.230469 0)"/>
      <use xlink:href="#ArialMT-6e" transform="translate(316.845703 0)"/>
      <use xlink:href="#ArialMT-63" transform="translate(372.460938 0)"/>
      <use xlink:href="#ArialMT-79" transform="translate(422.460938 0)"/>
     </g>
    </g>
   </g>
   <g id="patch_3">
    <path d="M 95.518955 207.885 
L 101.880939 207.885 
L 101.880939 190.615505 
L 95.518955 190.615505 
z
" clip-path="url(#pc9184dc6a4)" style="fill: #1f77b4; stroke: #ffffff; stroke-width: 0.3; stroke-linejoin: miter"/>
   </g>
   <g id="patch_4">
    <path d="M 101.880939 207.885 
L 108.242924 207.885 
L 108.242924 137.12941 
L 101.880939 137.12941 
z
" clip-path="url(#pc9184dc6a4)" style="fill: #1f77b4; stroke: #ffffff; stroke-width: 0.3; stroke-linejoin: miter"/>
   </g>
   <g id="patch_5">
    <path d="M 108.242924 207.885 
L 114.604909 207.885 
L 114.604909 95.386573 
L 108.242924 95.386573 
z
" clip-path="url(#pc9184dc6a4)" style="fill: #1f77b4; stroke: #ffffff; stroke-width: 0.3; stroke-linejoin: miter"/>
   </g>
   <g id="patch_6">
    <path d="M 114.604909 207.885 
L 120.966894 207.885 
L 120.966894 35.782143 
L 114.604909 35.782143 
z
" clip-path="url(#pc9184dc6a4)" style="fill: #1f77b4; stroke: #ffffff; stroke-width: 0.3; stroke-linejoin: miter"/>
   </g>
   <g id="patch_7">
    <path d="M 120.966894 207.885 
L 127.328879 207.885 
L 127.328879 109.004803 
L 120.966894 109.004803 
z
" clip-path="url(#pc9184dc6a4)" style="fill: #1f77b4; stroke: #ffffff; stroke-width: 0.3; stroke-linejoin: miter"/>
   </g>
   <g id="patch_8">
    <path d="M 127.328879 207.885 
L 133.690864 207.885 
L 133.690864 115.024456 
L 127.328879 115.024456 
z
" clip-path="url(#pc9184dc6a4)" style="fill: #1f77b4; stroke: #ffffff; stroke-width: 0.3; stroke-linejoin: miter"/>
   </g>
   <g id="patch_9">
    <path d="M 133.690864 207.885 
L 140.052848 207.885 
L 140.052848 131.603172 
L 133.690864 131.603172 
z
" clip-path="url(#pc9184dc6a4)" style="fill: #1f77b4; stroke: #ffffff; stroke-width: 0.3; stroke-linejoin: miter"/>
   </g>
   <g id="patch_10">
    <path d="M 140.052848 207.885 
L 146.414833 207.885 
L 146.414833 161.306704 
L 140.052848 161.306704 
z
" clip-path="url(#pc9184dc6a4)" style="fill: #1f77b4; stroke: #ffffff; stroke-width: 0.3; stroke-linejoin: miter"/>
   </g>
   <g id="patch_11">
    <path d="M 146.414833 207.885 
L 152.776818 207.885 
L 152.776818 161.800118 
L 146.414833 161.800118 
z
" clip-path="url(#pc9184dc6a4)" style="fill: #1f77b4; stroke: #ffffff; stroke-width: 0.3; stroke-linejoin: miter"/>
   </g>
   <g id="patch_12">
    <path d="M 152.776818 207.885 
L 159.138803 207.885 
L 159.138803 168.017136 
L 152.776818 168.017136 
z
" clip-path="url(#pc9184dc6a4)" style="fill: #1f77b4; stroke: #ffffff; stroke-width: 0.3; stroke-linejoin: miter"/>
   </g>
   <g id="patch_13">
    <path d="M 159.138803 207.885 
L 165.500788 207.885 
L 165.500788 170.286841 
L 159.138803 170.286841 
z
" clip-path="url(#pc9184dc6a4)" style="fill: #1f77b4; stroke: #ffffff; stroke-width: 0.3; stroke-linejoin: miter"/>
   </g>
   <g id="patch_14">
    <path d="M 165.500788 207.885 
L 171.862773 207.885 
L 171.862773 175.615714 
L 165.500788 175.615714 
z
" clip-path="url(#pc9184dc6a4)" style="fill: #1f77b4; stroke: #ffffff; stroke-width: 0.3; stroke-linejoin: miter"/>
   </g>
   <g id="patch_15">
    <path d="M 171.862773 207.885 
L 178.224758 207.885 
L 178.224758 179.957759 
L 171.862773 179.957759 
z
" clip-path="url(#pc9184dc6a4)" style="fill: #1f77b4; stroke: #ffffff; stroke-width: 0.3; stroke-linejoin: miter"/>
   </g>
   <g id="patch_16">
    <path d="M 178.224758 207.885 
L 184.586742 207.885 
L 184.586742 189.332628 
L 178.224758 189.332628 
z
" clip-path="url(#pc9184dc6a4)" style="fill: #1f77b4; stroke: #ffffff; stroke-width: 0.3; stroke-linejoin: miter"/>
   </g>
   <g id="patch_17">
    <path d="M 184.586742 207.885 
L 190.948727 207.885 
L 190.948727 196.240426 
L 184.586742 196.240426 
z
" clip-path="url(#pc9184dc6a4)" style="fill: #1f77b4; stroke: #ffffff; stroke-width: 0.3; stroke-linejoin: miter"/>
   </g>
   <g id="patch_18">
    <path d="M 190.948727 207.885 
L 197.310712 207.885 
L 197.310712 200.878519 
L 190.948727 200.878519 
z
" clip-path="url(#pc9184dc6a4)" style="fill: #1f77b4; stroke: #ffffff; stroke-width: 0.3; stroke-linejoin: miter"/>
   </g>
   <g id="patch_19">
    <path d="M 197.310712 207.885 
L 203.672697 207.885 
L 203.672697 199.990374 
L 197.310712 199.990374 
z
" clip-path="url(#pc9184dc6a4)" style="fill: #1f77b4; stroke: #ffffff; stroke-width: 0.3; stroke-linejoin: miter"/>
   </g>
   <g id="patch_20">
    <path d="M 203.672697 207.885 
L 210.034682 207.885 
L 210.034682 202.358761 
L 203.672697 202.358761 
z
" clip-path="url(#pc9184dc6a4)" style="fill: #1f77b4; stroke: #ffffff; stroke-width: 0.3; stroke-linejoin: miter"/>
   </g>
   <g id="patch_21">
    <path d="M 210.034682 207.885 
L 216.396667 207.885 
L 216.396667 204.233735 
L 210.034682 204.233735 
z
" clip-path="url(#pc9184dc6a4)" style="fill: #1f77b4; stroke: #ffffff; stroke-width: 0.3; stroke-linejoin: miter"/>
   </g>
   <g id="patch_22">
    <path d="M 216.396667 207.885 
L 222.758652 207.885 
L 222.758652 204.332418 
L 216.396667 204.332418 
z
" clip-path="url(#pc9184dc6a4)" style="fill: #1f77b4; stroke: #ffffff; stroke-width: 0.3; stroke-linejoin: miter"/>
   </g>
   <g id="patch_23">
    <path d="M 222.758652 207.885 
L 229.120636 207.885 
L 229.120636 205.319246 
L 222.758652 205.319246 
z
" clip-path="url(#pc9184dc6a4)" style="fill: #1f77b4; stroke: #ffffff; stroke-width: 0.3; stroke-linejoin: miter"/>
   </g>
   <g id="patch_24">
    <path d="M 229.120636 207.885 
L 235.482621 207.885 
L 235.482621 205.319246 
L 229.120636 205.319246 
z
" clip-path="url(#pc9184dc6a4)" style="fill: #1f77b4; stroke: #ffffff; stroke-width: 0.3; stroke-linejoin: miter"/>
   </g>
   <g id="patch_25">
    <path d="M 235.482621 207.885 
L 241.844606 207.885 
L 241.844606 206.700806 
L 235.482621 206.700806 
z
" clip-path="url(#pc9184dc6a4)" style="fill: #1f77b4; stroke: #ffffff; stroke-width: 0.3; stroke-linejoin: miter"/>
   </g>
   <g id="patch_26">
    <path d="M 241.844606 207.885 
L 248.206591 207.885 
L 248.206591 204.727149 
L 241.844606 204.727149 
z
" clip-path="url(#pc9184dc6a4)" style="fill: #1f77b4; stroke: #ffffff; stroke-width: 0.3; stroke-linejoin: miter"/>
   </g>
   <g id="patch_27">
    <path d="M 248.206591 207.885 
L 254.568576 207.885 
L 254.568576 206.010026 
L 248.206591 206.010026 
z
" clip-path="url(#pc9184dc6a4)" style="fill: #1f77b4; stroke: #ffffff; stroke-width: 0.3; stroke-linejoin: miter"/>
   </g>
   <g id="patch_28">
    <path d="M 254.568576 207.885 
L 260.930561 207.885 
L 260.930561 205.911343 
L 254.568576 205.911343 
z
" clip-path="url(#pc9184dc6a4)" style="fill: #1f77b4; stroke: #ffffff; stroke-width: 0.3; stroke-linejoin: miter"/>
   </g>
   <g id="patch_29">
    <path d="M 260.930561 207.885 
L 267.292545 207.885 
L 267.292545 206.898172 
L 260.930561 206.898172 
z
" clip-path="url(#pc9184dc6a4)" style="fill: #1f77b4; stroke: #ffffff; stroke-width: 0.3; stroke-linejoin: miter"/>
   </g>
   <g id="patch_30">
    <path d="M 267.292545 207.885 
L 273.65453 207.885 
L 273.65453 206.898172 
L 267.292545 206.898172 
z
" clip-path="url(#pc9184dc6a4)" style="fill: #1f77b4; stroke: #ffffff; stroke-width: 0.3; stroke-linejoin: miter"/>
   </g>
   <g id="patch_31">
    <path d="M 273.65453 207.885 
L 280.016515 207.885 
L 280.016515 207.687634 
L 273.65453 207.687634 
z
" clip-path="url(#pc9184dc6a4)" style="fill: #1f77b4; stroke: #ffffff; stroke-width: 0.3; stroke-linejoin: miter"/>
   </g>
   <g id="patch_32">
    <path d="M 280.016515 207.885 
L 286.3785 207.885 
L 286.3785 207.885 
L 280.016515 207.885 
z
" clip-path="url(#pc9184dc6a4)" style="fill: #1f77b4; stroke: #ffffff; stroke-width: 0.3; stroke-linejoin: miter"/>
   </g>
   <g id="patch_33">
    <path d="M 286.3785 207.885 
L 292.740485 207.885 
L 292.740485 207.885 
L 286.3785 207.885 
z
" clip-path="url(#pc9184dc6a4)" style="fill: #1f77b4; stroke: #ffffff; stroke-width: 0.3; stroke-linejoin: miter"/>
   </g>
   <g id="patch_34">
    <path d="M 292.740485 207.885 
L 299.10247 207.885 
L 299.10247 207.885 
L 292.740485 207.885 
z
" clip-path="url(#pc9184dc6a4)" style="fill: #1f77b4; stroke: #ffffff; stroke-width: 0.3; stroke-linejoin: miter"/>
   </g>
   <g id="patch_35">
    <path d="M 299.10247 207.885 
L 305.464455 207.885 
L 305.464455 207.786317 
L 299.10247 207.786317 
z
" clip-path="url(#pc9184dc6a4)" style="fill: #1f77b4; stroke: #ffffff; stroke-width: 0.3; stroke-linejoin: miter"/>
   </g>
   <g id="patch_36">
    <path d="M 305.464455 207.885 
L 311.826439 207.885 
L 311.826439 207.885 
L 305.464455 207.885 
z
" clip-path="url(#pc9184dc6a4)" style="fill: #1f77b4; stroke: #ffffff; stroke-width: 0.3; stroke-linejoin: miter"/>
   </g>
   <g id="patch_37">
    <path d="M 311.826439 207.885 
L 318.188424 207.885 
L 318.188424 207.885 
L 311.826439 207.885 
z
" clip-path="url(#pc9184dc6a4)" style="fill: #1f77b4; stroke: #ffffff; stroke-width: 0.3; stroke-linejoin: miter"/>
   </g>
   <g id="patch_38">
    <path d="M 318.188424 207.885 
L 324.550409 207.885 
L 324.550409 207.786317 
L 318.188424 207.786317 
z
" clip-path="url(#pc9184dc6a4)" style="fill: #1f77b4; stroke: #ffffff; stroke-width: 0.3; stroke-linejoin: miter"/>
   </g>
   <g id="patch_39">
    <path d="M 324.550409 207.885 
L 330.912394 207.885 
L 330.912394 207.885 
L 324.550409 207.885 
z
" clip-path="url(#pc9184dc6a4)" style="fill: #1f77b4; stroke: #ffffff; stroke-width: 0.3; stroke-linejoin: miter"/>
   </g>
   <g id="patch_40">
    <path d="M 330.912394 207.885 
L 337.274379 207.885 
L 337.274379 207.885 
L 330.912394 207.885 
z
" clip-path="url(#pc9184dc6a4)" style="fill: #1f77b4; stroke: #ffffff; stroke-width: 0.3; stroke-linejoin: miter"/>
   </g>
   <g id="patch_41">
    <path d="M 337.274379 207.885 
L 343.636364 207.885 
L 343.636364 207.885 
L 337.274379 207.885 
z
" clip-path="url(#pc9184dc6a4)" style="fill: #1f77b4; stroke: #ffffff; stroke-width: 0.3; stroke-linejoin: miter"/>
   </g>
   <g id="patch_42">
    <path d="M 343.636364 207.885 
L 349.998348 207.885 
L 349.998348 207.885 
L 343.636364 207.885 
z
" clip-path="url(#pc9184dc6a4)" style="fill: #1f77b4; stroke: #ffffff; stroke-width: 0.3; stroke-linejoin: miter"/>
   </g>
   <g id="patch_43">
    <path d="M 349.998348 207.885 
L 356.360333 207.885 
L 356.360333 207.885 
L 349.998348 207.885 
z
" clip-path="url(#pc9184dc6a4)" style="fill: #1f77b4; stroke: #ffffff; stroke-width: 0.3; stroke-linejoin: miter"/>
   </g>
   <g id="patch_44">
    <path d="M 356.360333 207.885 
L 362.722318 207.885 
L 362.722318 207.885 
L 356.360333 207.885 
z
" clip-path="url(#pc9184dc6a4)" style="fill: #1f77b4; stroke: #ffffff; stroke-width: 0.3; stroke-linejoin: miter"/>
   </g>
   <g id="patch_45">
    <path d="M 362.722318 207.885 
L 369.084303 207.885 
L 369.084303 207.885 
L 362.722318 207.885 
z
" clip-path="url(#pc9184dc6a4)" style="fill: #1f77b4; stroke: #ffffff; stroke-width: 0.3; stroke-linejoin: miter"/>
   </g>
   <g id="patch_46">
    <path d="M 369.084303 207.885 
L 375.446288 207.885 
L 375.446288 207.885 
L 369.084303 207.885 
z
" clip-path="url(#pc9184dc6a4)" style="fill: #1f77b4; stroke: #ffffff; stroke-width: 0.3; stroke-linejoin: miter"/>
   </g>
   <g id="patch_47">
    <path d="M 375.446288 207.885 
L 381.808273 207.885 
L 381.808273 207.885 
L 375.446288 207.885 
z
" clip-path="url(#pc9184dc6a4)" style="fill: #1f77b4; stroke: #ffffff; stroke-width: 0.3; stroke-linejoin: miter"/>
   </g>
   <g id="patch_48">
    <path d="M 381.808273 207.885 
L 388.170258 207.885 
L 388.170258 207.885 
L 381.808273 207.885 
z
" clip-path="url(#pc9184dc6a4)" style="fill: #1f77b4; stroke: #ffffff; stroke-width: 0.3; stroke-linejoin: miter"/>
   </g>
   <g id="patch_49">
    <path d="M 388.170258 207.885 
L 394.532242 207.885 
L 394.532242 207.786317 
L 388.170258 207.786317 
z
" clip-path="url(#pc9184dc6a4)" style="fill: #1f77b4; stroke: #ffffff; stroke-width: 0.3; stroke-linejoin: miter"/>
   </g>
   <g id="patch_50">
    <path d="M 394.532242 207.885 
L 400.894227 207.885 
L 400.894227 207.885 
L 394.532242 207.885 
z
" clip-path="url(#pc9184dc6a4)" style="fill: #1f77b4; stroke: #ffffff; stroke-width: 0.3; stroke-linejoin: miter"/>
   </g>
   <g id="patch_51">
    <path d="M 400.894227 207.885 
L 407.256212 207.885 
L 407.256212 207.786317 
L 400.894227 207.786317 
z
" clip-path="url(#pc9184dc6a4)" style="fill: #1f77b4; stroke: #ffffff; stroke-width: 0.3; stroke-linejoin: miter"/>
   </g>
   <g id="patch_52">
    <path d="M 407.256212 207.885 
L 413.618197 207.885 
L 413.618197 207.885 
L 407.256212 207.885 
z
" clip-path="url(#pc9184dc6a4)" style="fill: #1f77b4; stroke: #ffffff; stroke-width: 0.3; stroke-linejoin: miter"/>
   </g>
   <g id="patch_53">
    <path d="M 413.618197 207.885 
L 419.980182 207.885 
L 419.980182 207.885 
L 413.618197 207.885 
z
" clip-path="url(#pc9184dc6a4)" style="fill: #1f77b4; stroke: #ffffff; stroke-width: 0.3; stroke-linejoin: miter"/>
   </g>
   <g id="patch_54">
    <path d="M 419.980182 207.885 
L 426.342167 207.885 
L 426.342167 207.885 
L 419.980182 207.885 
z
" clip-path="url(#pc9184dc6a4)" style="fill: #1f77b4; stroke: #ffffff; stroke-width: 0.3; stroke-linejoin: miter"/>
   </g>
   <g id="patch_55">
    <path d="M 426.342167 207.885 
L 432.704152 207.885 
L 432.704152 207.786317 
L 426.342167 207.786317 
z
" clip-path="url(#pc9184dc6a4)" style="fill: #1f77b4; stroke: #ffffff; stroke-width: 0.3; stroke-linejoin: miter"/>
   </g>
   <g id="patch_56">
    <path d="M 432.704152 207.885 
L 439.066136 207.885 
L 439.066136 207.885 
L 432.704152 207.885 
z
" clip-path="url(#pc9184dc6a4)" style="fill: #1f77b4; stroke: #ffffff; stroke-width: 0.3; stroke-linejoin: miter"/>
   </g>
   <g id="patch_57">
    <path d="M 439.066136 207.885 
L 445.428121 207.885 
L 445.428121 207.885 
L 439.066136 207.885 
z
" clip-path="url(#pc9184dc6a4)" style="fill: #1f77b4; stroke: #ffffff; stroke-width: 0.3; stroke-linejoin: miter"/>
   </g>
   <g id="patch_58">
    <path d="M 445.428121 207.885 
L 451.790106 207.885 
L 451.790106 207.885 
L 445.428121 207.885 
z
" clip-path="url(#pc9184dc6a4)" style="fill: #1f77b4; stroke: #ffffff; stroke-width: 0.3; stroke-linejoin: miter"/>
   </g>
   <g id="patch_59">
    <path d="M 451.790106 207.885 
L 458.152091 207.885 
L 458.152091 207.786317 
L 451.790106 207.786317 
z
" clip-path="url(#pc9184dc6a4)" style="fill: #1f77b4; stroke: #ffffff; stroke-width: 0.3; stroke-linejoin: miter"/>
   </g>
   <g id="patch_60">
    <path d="M 458.152091 207.885 
L 464.514076 207.885 
L 464.514076 207.885 
L 458.152091 207.885 
z
" clip-path="url(#pc9184dc6a4)" style="fill: #1f77b4; stroke: #ffffff; stroke-width: 0.3; stroke-linejoin: miter"/>
   </g>
   <g id="patch_61">
    <path d="M 464.514076 207.885 
L 470.876061 207.885 
L 470.876061 207.885 
L 464.514076 207.885 
z
" clip-path="url(#pc9184dc6a4)" style="fill: #1f77b4; stroke: #ffffff; stroke-width: 0.3; stroke-linejoin: miter"/>
   </g>
   <g id="patch_62">
    <path d="M 470.876061 207.885 
L 477.238045 207.885 
L 477.238045 207.786317 
L 470.876061 207.786317 
z
" clip-path="url(#pc9184dc6a4)" style="fill: #1f77b4; stroke: #ffffff; stroke-width: 0.3; stroke-linejoin: miter"/>
   </g>
   <g id="patch_63">
    <path d="M 76.433 207.885 
L 76.433 27.177 
" style="fill: none; stroke: #cccccc; stroke-linejoin: miter; stroke-linecap: square"/>
   </g>
   <g id="patch_64">
    <path d="M 496.324 207.885 
L 496.324 27.177 
" style="fill: none; stroke: #cccccc; stroke-linejoin: miter; stroke-linecap: square"/>
   </g>
   <g id="patch_65">
    <path d="M 76.433 207.885 
L 496.324 207.885 
" style="fill: none; stroke: #cccccc; stroke-linejoin: miter; stroke-linecap: square"/>
   </g>
   <g id="patch_66">
    <path d="M 76.433 27.177 
L 496.324 27.177 
" style="fill: none; stroke: #cccccc; stroke-linejoin: miter; stroke-linecap: square"/>
   </g>
   <g id="text_14">
    <!-- Price Distribution (2000–present) -->
    <g style="fill: #262626" transform="translate(146.0535 21.177) scale(0.192 -0.192)">
     <defs>
      <path id="ArialMT-50" d="M 494 0 
L 494 4581 
L 2222 4581 
Q 2678 4581 2919 4538 
Q 3256 4481 3484 4323 
Q 3713 4166 3852 3881 
Q 3991 3597 3991 3256 
Q 3991 2672 3619 2267 
Q 3247 1863 2275 1863 
L 1100 1863 
L 1100 0 
L 494 0 
z
M 1100 2403 
L 2284 2403 
Q 2872 2403 3119 2622 
Q 3366 2841 3366 3238 
Q 3366 3525 3220 3729 
Q 3075 3934 2838 4000 
Q 2684 4041 2272 4041 
L 1100 4041 
L 1100 2403 
z
" transform="scale(0.015625)"/>
      <path id="ArialMT-69" d="M 425 3934 
L 425 4581 
L 988 4581 
L 988 3934 
L 425 3934 
z
M 425 0 
L 425 3319 
L 988 3319 
L 988 0 
L 425 0 
z
" transform="scale(0.015625)"/>
      <path id="ArialMT-73" d="M 197 991 
L 753 1078 
Q 800 744 1014 566 
Q 1228 388 1613 388 
Q 2000 388 2187 545 
Q 2375 703 2375 916 
Q 2375 1106 2209 1216 
Q 2094 1291 1634 1406 
Q 1016 1563 777 1677 
Q 538 1791 414 1992 
Q 291 2194 291 2438 
Q 291 2659 392 2848 
Q 494 3038 669 3163 
Q 800 3259 1026 3326 
Q 1253 3394 1513 3394 
Q 1903 3394 2198 3281 
Q 2494 3169 2634 2976 
Q 2775 2784 2828 2463 
L 2278 2388 
Q 2241 2644 2061 2787 
Q 1881 2931 1553 2931 
Q 1166 2931 1000 2803 
Q 834 2675 834 2503 
Q 834 2394 903 2306 
Q 972 2216 1119 2156 
Q 1203 2125 1616 2013 
Q 2213 1853 2448 1751 
Q 2684 1650 2818 1456 
Q 2953 1263 2953 975 
Q 2953 694 2789 445 
Q 2625 197 2315 61 
Q 2006 -75 1616 -75 
Q 969 -75 630 194 
Q 291 463 197 991 
z
" transform="scale(0.015625)"/>
      <path id="ArialMT-62" d="M 941 0 
L 419 0 
L 419 4581 
L 981 4581 
L 981 2947 
Q 1338 3394 1891 3394 
Q 2197 3394 2470 3270 
Q 2744 3147 2920 2923 
Q 3097 2700 3197 2384 
Q 3297 2069 3297 1709 
Q 3297 856 2875 390 
Q 2453 -75 1863 -75 
Q 1275 -75 941 416 
L 941 0 
z
M 934 1684 
Q 934 1088 1097 822 
Q 1363 388 1816 388 
Q 2184 388 2453 708 
Q 2722 1028 2722 1663 
Q 2722 2313 2464 2622 
Q 2206 2931 1841 2931 
Q 1472 2931 1203 2611 
Q 934 2291 934 1684 
z
" transform="scale(0.015625)"/>
      <path id="ArialMT-6f" d="M 213 1659 
Q 213 2581 725 3025 
Q 1153 3394 1769 3394 
Q 2453 3394 2887 2945 
Q 3322 2497 3322 1706 
Q 3322 1066 3130 698 
Q 2938 331 2570 128 
Q 2203 -75 1769 -75 
Q 1072 -75 642 372 
Q 213 819 213 1659 
z
M 791 1659 
Q 791 1022 1069 705 
Q 1347 388 1769 388 
Q 2188 388 2466 706 
Q 2744 1025 2744 1678 
Q 2744 2294 2464 2611 
Q 2184 2928 1769 2928 
Q 1347 2928 1069 2612 
Q 791 2297 791 1659 
z
" transform="scale(0.015625)"/>
      <path id="ArialMT-28" d="M 1497 -1347 
Q 1031 -759 709 28 
Q 388 816 388 1659 
Q 388 2403 628 3084 
Q 909 3875 1497 4659 
L 1900 4659 
Q 1522 4009 1400 3731 
Q 1209 3300 1100 2831 
Q 966 2247 966 1656 
Q 966 153 1900 -1347 
L 1497 -1347 
z
" transform="scale(0.015625)"/>
      <path id="ArialMT-2013" d="M -13 1431 
L -13 1884 
L 3547 1884 
L 3547 1431 
L -13 1431 
z
" transform="scale(0.015625)"/>
      <path id="ArialMT-70" d="M 422 -1272 
L 422 3319 
L 934 3319 
L 934 2888 
Q 1116 3141 1344 3267 
Q 1572 3394 1897 3394 
Q 2322 3394 2647 3175 
Q 2972 2956 3137 2557 
Q 3303 2159 3303 1684 
Q 3303 1175 3120 767 
Q 2938 359 2589 142 
Q 2241 -75 1856 -75 
Q 1575 -75 1351 44 
Q 1128 163 984 344 
L 984 -1272 
L 422 -1272 
z
M 931 1641 
Q 931 1000 1190 694 
Q 1450 388 1819 388 
Q 2194 388 2461 705 
Q 2728 1022 2728 1688 
Q 2728 2322 2467 2637 
Q 2206 2953 1844 2953 
Q 1484 2953 1207 2617 
Q 931 2281 931 1641 
z
" transform="scale(0.015625)"/>
      <path id="ArialMT-29" d="M 791 -1347 
L 388 -1347 
Q 1322 153 1322 1656 
Q 1322 2244 1188 2822 
Q 1081 3291 891 3722 
Q 769 4003 388 4659 
L 791 4659 
Q 1378 3875 1659 3084 
Q 1900 2403 1900 1659 
Q 1900 816 1576 28 
Q 1253 -759 791 -1347 
z
" transform="scale(0.015625)"/>
     </defs>
     <use xlink:href="#ArialMT-50"/>
     <use xlink:href="#ArialMT-72" transform="translate(66.699219 0)"/>
     <use xlink:href="#ArialMT-69" transform="translate(100 0)"/>
     <use xlink:href="#ArialMT-63" transform="translate(122.216797 0)"/>
     <use xlink:href="#ArialMT-65" transform="translate(172.216797 0)"/>
     <use xlink:href="#ArialMT-20" transform="translate(227.832031 0)"/>
     <use xlink:href="#ArialMT-44" transform="translate(255.615234 0)"/>
     <use xlink:href="#ArialMT-69" transform="translate(327.832031 0)"/>
     <use xlink:href="#ArialMT-73" transform="translate(350.048828 0)"/>
     <use xlink:href="#ArialMT-74" transform="translate(400.048828 0)"/>
     <use xlink:href="#ArialMT-72" transform="translate(427.832031 0)"/>
     <use xlink:href="#ArialMT-69" transform="translate(461.132812 0)"/>
     <use xlink:href="#ArialMT-62" transform="translate(483.349609 0)"/>
     <use xlink:href="#ArialMT-75" transform="translate(538.964844 0)"/>
     <use xlink:href="#ArialMT-74" transform="translate(594.580078 0)"/>
     <use xlink:href="#ArialMT-69" transform="translate(622.363281 0)"/>
     <use xlink:href="#ArialMT-6f" transform="translate(644.580078 0)"/>
     <use xlink:href="#ArialMT-6e" transform="translate(700.195312 0)"/>
     <use xlink:href="#ArialMT-20" transform="translate(755.810547 0)"/>
     <use xlink:href="#ArialMT-28" transform="translate(783.59375 0)"/>
     <use xlink:href="#ArialMT-32" transform="translate(816.894531 0)"/>
     <use xlink:href="#ArialMT-30" transform="translate(872.509766 0)"/>
     <use xlink:href="#ArialMT-30" transform="translate(928.125 0)"/>
     <use xlink:href="#ArialMT-30" transform="translate(983.740234 0)"/>
     <use xlink:href="#ArialMT-2013" transform="translate(1039.355469 0)"/>
     <use xlink:href="#ArialMT-70" transform="translate(1094.970703 0)"/>
     <use xlink:href="#ArialMT-72" transform="translate(1150.585938 0)"/>
     <use xlink:href="#ArialMT-65" transform="translate(1183.886719 0)"/>
     <use xlink:href="#ArialMT-73" transform="translate(1239.501953 0)"/>
     <use xlink:href="#ArialMT-65" transform="translate(1289.501953 0)"/>
     <use xlink:href="#ArialMT-6e" transform="translate(1345.117188 0)"/>
     <use xlink:href="#ArialMT-74" transform="translate(1400.732422 0)"/>
     <use xlink:href="#ArialMT-29" transform="translate(1428.515625 0)"/>
    </g>
   </g>
  </g>
  <g id="axes_2">
   <g id="patch_67">
    <path d="M 554.52 207.885 
L 974.411 207.885 
L 974.411 27.177 
L 554.52 27.177 
z
" style="fill: #ffffff"/>
   </g>
   <g id="matplotlib.axis_3">
    <g id="xtick_8">
     <g id="line2d_12">
      <path d="M 557.954308 207.885 
L 557.954308 27.177 
" clip-path="url(#pbc2398d41e)" style="fill: none; stroke: #cccccc; stroke-width: 0.8; stroke-linecap: round"/>
     </g>
     <g id="text_15">
      <!-- 0 -->
      <g style="fill: #262626" transform="translate(553.060683 228.78275) scale(0.176 -0.176)">
       <use xlink:href="#ArialMT-30"/>
      </g>
     </g>
    </g>
    <g id="xtick_9">
     <g id="line2d_13">
      <path d="M 622.630535 207.885 
L 622.630535 27.177 
" clip-path="url(#pbc2398d41e)" style="fill: none; stroke: #cccccc; stroke-width: 0.8; stroke-linecap: round"/>
     </g>
     <g id="text_16">
      <!-- 5 -->
      <g style="fill: #262626" transform="translate(617.73691 228.78275) scale(0.176 -0.176)">
       <use xlink:href="#ArialMT-35"/>
      </g>
     </g>
    </g>
    <g id="xtick_10">
     <g id="line2d_14">
      <path d="M 687.306761 207.885 
L 687.306761 27.177 
" clip-path="url(#pbc2398d41e)" style="fill: none; stroke: #cccccc; stroke-width: 0.8; stroke-linecap: round"/>
     </g>
     <g id="text_17">
      <!-- 10 -->
      <g style="fill: #262626" transform="translate(677.519511 228.78275) scale(0.176 -0.176)">
       <use xlink:href="#ArialMT-31"/>
       <use xlink:href="#ArialMT-30" transform="translate(55.615234 0)"/>
      </g>
     </g>
    </g>
    <g id="xtick_11">
     <g id="line2d_15">
      <path d="M 751.982988 207.885 
L 751.982988 27.177 
" clip-path="url(#pbc2398d41e)" style="fill: none; stroke: #cccccc; stroke-width: 0.8; stroke-linecap: round"/>
     </g>
     <g id="text_18">
      <!-- 15 -->
      <g style="fill: #262626" transform="translate(742.195738 228.78275) scale(0.176 -0.176)">
       <use xlink:href="#ArialMT-31"/>
       <use xlink:href="#ArialMT-35" transform="translate(55.615234 0)"/>
      </g>
     </g>
    </g>
    <g id="xtick_12">
     <g id="line2d_16">
      <path d="M 816.659215 207.885 
L 816.659215 27.177 
" clip-path="url(#pbc2398d41e)" style="fill: none; stroke: #cccccc; stroke-width: 0.8; stroke-linecap: round"/>
     </g>
     <g id="text_19">
      <!-- 20 -->
      <g style="fill: #262626" transform="translate(806.871965 228.78275) scale(0.176 -0.176)">
       <use xlink:href="#ArialMT-32"/>
       <use xlink:href="#ArialMT-30" transform="translate(55.615234 0)"/>
      </g>
     </g>
    </g>
    <g id="xtick_13">
     <g id="line2d_17">
      <path d="M 881.335442 207.885 
L 881.335442 27.177 
" clip-path="url(#pbc2398d41e)" style="fill: none; stroke: #cccccc; stroke-width: 0.8; stroke-linecap: round"/>
     </g>
     <g id="text_20">
      <!-- 25 -->
      <g style="fill: #262626" transform="translate(871.548192 228.78275) scale(0.176 -0.176)">
       <use xlink:href="#ArialMT-32"/>
       <use xlink:href="#ArialMT-35" transform="translate(55.615234 0)"/>
      </g>
     </g>
    </g>
    <g id="xtick_14">
     <g id="line2d_18">
      <path d="M 946.011669 207.885 
L 946.011669 27.177 
" clip-path="url(#pbc2398d41e)" style="fill: none; stroke: #cccccc; stroke-width: 0.8; stroke-linecap: round"/>
     </g>
     <g id="text_21">
      <!-- 30 -->
      <g style="fill: #262626" transform="translate(936.224419 228.78275) scale(0.176 -0.176)">
       <use xlink:href="#ArialMT-33"/>
       <use xlink:href="#ArialMT-30" transform="translate(55.615234 0)"/>
      </g>
     </g>
    </g>
    <g id="text_22">
     <!-- USD / MMBtu -->
     <g style="fill: #262626" transform="translate(705.793 250.02375) scale(0.192 -0.192)">
      <use xlink:href="#ArialMT-55"/>
      <use xlink:href="#ArialMT-53" transform="translate(72.216797 0)"/>
      <use xlink:href="#ArialMT-44" transform="translate(138.916016 0)"/>
      <use xlink:href="#ArialMT-20" transform="translate(211.132812 0)"/>
      <use xlink:href="#ArialMT-2f" transform="translate(238.916016 0)"/>
      <use xlink:href="#ArialMT-20" transform="translate(266.699219 0)"/>
      <use xlink:href="#ArialMT-4d" transform="translate(294.482422 0)"/>
      <use xlink:href="#ArialMT-4d" transform="translate(377.783203 0)"/>
      <use xlink:href="#ArialMT-42" transform="translate(461.083984 0)"/>
      <use xlink:href="#ArialMT-74" transform="translate(527.783203 0)"/>
      <use xlink:href="#ArialMT-75" transform="translate(555.566406 0)"/>
     </g>
    </g>
   </g>
   <g id="matplotlib.axis_4">
    <g id="ytick_5">
     <g id="line2d_19">
      <path d="M 554.52 207.885 
L 974.411 207.885 
" clip-path="url(#pbc2398d41e)" style="fill: none; stroke: #cccccc; stroke-width: 0.8; stroke-linecap: round"/>
     </g>
     <g id="text_23">
      <!-- 0 -->
      <g style="fill: #262626" transform="translate(536.43275 214.183875) scale(0.176 -0.176)">
       <use xlink:href="#ArialMT-30"/>
      </g>
     </g>
    </g>
    <g id="ytick_6">
     <g id="line2d_20">
      <path d="M 554.52 151.272218 
L 974.411 151.272218 
" clip-path="url(#pbc2398d41e)" style="fill: none; stroke: #cccccc; stroke-width: 0.8; stroke-linecap: round"/>
     </g>
     <g id="text_24">
      <!-- 200 -->
      <g style="fill: #262626" transform="translate(516.85825 157.571093) scale(0.176 -0.176)">
       <use xlink:href="#ArialMT-32"/>
       <use xlink:href="#ArialMT-30" transform="translate(55.615234 0)"/>
       <use xlink:href="#ArialMT-30" transform="translate(111.230469 0)"/>
      </g>
     </g>
    </g>
    <g id="ytick_7">
     <g id="line2d_21">
      <path d="M 554.52 94.659436 
L 974.411 94.659436 
" clip-path="url(#pbc2398d41e)" style="fill: none; stroke: #cccccc; stroke-width: 0.8; stroke-linecap: round"/>
     </g>
     <g id="text_25">
      <!-- 400 -->
      <g style="fill: #262626" transform="translate(516.85825 100.958311) scale(0.176 -0.176)">
       <defs>
        <path id="ArialMT-34" d="M 2069 0 
L 2069 1097 
L 81 1097 
L 81 1613 
L 2172 4581 
L 2631 4581 
L 2631 1613 
L 3250 1613 
L 3250 1097 
L 2631 1097 
L 2631 0 
L 2069 0 
z
M 2069 1613 
L 2069 3678 
L 634 1613 
L 2069 1613 
z
" transform="scale(0.015625)"/>
       </defs>
       <use xlink:href="#ArialMT-34"/>
       <use xlink:href="#ArialMT-30" transform="translate(55.615234 0)"/>
       <use xlink:href="#ArialMT-30" transform="translate(111.230469 0)"/>
      </g>
     </g>
    </g>
    <g id="ytick_8">
     <g id="line2d_22">
      <path d="M 554.52 38.046654 
L 974.411 38.046654 
" clip-path="url(#pbc2398d41e)" style="fill: none; stroke: #cccccc; stroke-width: 0.8; stroke-linecap: round"/>
     </g>
     <g id="text_26">
      <!-- 600 -->
      <g style="fill: #262626" transform="translate(516.85825 44.345529) scale(0.176 -0.176)">
       <defs>
        <path id="ArialMT-36" d="M 3184 3459 
L 2625 3416 
Q 2550 3747 2413 3897 
Q 2184 4138 1850 4138 
Q 1581 4138 1378 3988 
Q 1113 3794 959 3422 
Q 806 3050 800 2363 
Q 1003 2672 1297 2822 
Q 1591 2972 1913 2972 
Q 2475 2972 2870 2558 
Q 3266 2144 3266 1488 
Q 3266 1056 3080 686 
Q 2894 316 2569 119 
Q 2244 -78 1831 -78 
Q 1128 -78 684 439 
Q 241 956 241 2144 
Q 241 3472 731 4075 
Q 1159 4600 1884 4600 
Q 2425 4600 2770 4297 
Q 3116 3994 3184 3459 
z
M 888 1484 
Q 888 1194 1011 928 
Q 1134 663 1356 523 
Q 1578 384 1822 384 
Q 2178 384 2434 671 
Q 2691 959 2691 1453 
Q 2691 1928 2437 2201 
Q 2184 2475 1800 2475 
Q 1419 2475 1153 2201 
Q 888 1928 888 1484 
z
" transform="scale(0.015625)"/>
       </defs>
       <use xlink:href="#ArialMT-36"/>
       <use xlink:href="#ArialMT-30" transform="translate(55.615234 0)"/>
       <use xlink:href="#ArialMT-30" transform="translate(111.230469 0)"/>
      </g>
     </g>
    </g>
   </g>
   <g id="patch_68">
    <path d="M 579.814872 207.885 
L 585.244442 207.885 
L 585.244442 195.430188 
L 579.814872 195.430188 
z
" clip-path="url(#pbc2398d41e)" style="fill: #1f77b4; opacity: 0.5; stroke: #ffffff; stroke-width: 0.8; stroke-linejoin: miter"/>
   </g>
   <g id="patch_69">
    <path d="M 585.244442 207.885 
L 590.674011 207.885 
L 590.674011 166.557669 
L 585.244442 166.557669 
z
" clip-path="url(#pbc2398d41e)" style="fill: #1f77b4; opacity: 0.5; stroke: #ffffff; stroke-width: 0.8; stroke-linejoin: miter"/>
   </g>
   <g id="patch_70">
    <path d="M 590.674011 207.885 
L 596.10358 207.885 
L 596.10358 163.443966 
L 590.674011 163.443966 
z
" clip-path="url(#pbc2398d41e)" style="fill: #1f77b4; opacity: 0.5; stroke: #ffffff; stroke-width: 0.8; stroke-linejoin: miter"/>
   </g>
   <g id="patch_71">
    <path d="M 596.10358 207.885 
L 601.533149 207.885 
L 601.533149 135.703703 
L 596.10358 135.703703 
z
" clip-path="url(#pbc2398d41e)" style="fill: #1f77b4; opacity: 0.5; stroke: #ffffff; stroke-width: 0.8; stroke-linejoin: miter"/>
   </g>
   <g id="patch_72">
    <path d="M 601.533149 207.885 
L 606.962719 207.885 
L 606.962719 153.536729 
L 601.533149 153.536729 
z
" clip-path="url(#pbc2398d41e)" style="fill: #1f77b4; opacity: 0.5; stroke: #ffffff; stroke-width: 0.8; stroke-linejoin: miter"/>
   </g>
   <g id="patch_73">
    <path d="M 606.962719 207.885 
L 612.392288 207.885 
L 612.392288 151.555282 
L 606.962719 151.555282 
z
" clip-path="url(#pbc2398d41e)" style="fill: #1f77b4; opacity: 0.5; stroke: #ffffff; stroke-width: 0.8; stroke-linejoin: miter"/>
   </g>
   <g id="patch_74">
    <path d="M 612.392288 207.885 
L 617.821857 207.885 
L 617.821857 146.460132 
L 612.392288 146.460132 
z
" clip-path="url(#pbc2398d41e)" style="fill: #1f77b4; opacity: 0.5; stroke: #ffffff; stroke-width: 0.8; stroke-linejoin: miter"/>
   </g>
   <g id="patch_75">
    <path d="M 617.821857 207.885 
L 623.251426 207.885 
L 623.251426 152.687538 
L 617.821857 152.687538 
z
" clip-path="url(#pbc2398d41e)" style="fill: #1f77b4; opacity: 0.5; stroke: #ffffff; stroke-width: 0.8; stroke-linejoin: miter"/>
   </g>
   <g id="patch_76">
    <path d="M 623.251426 207.885 
L 628.680996 207.885 
L 628.680996 122.399699 
L 623.251426 122.399699 
z
" clip-path="url(#pbc2398d41e)" style="fill: #1f77b4; opacity: 0.5; stroke: #ffffff; stroke-width: 0.8; stroke-linejoin: miter"/>
   </g>
   <g id="patch_77">
    <path d="M 628.680996 207.885 
L 634.110565 207.885 
L 634.110565 128.344041 
L 628.680996 128.344041 
z
" clip-path="url(#pbc2398d41e)" style="fill: #1f77b4; opacity: 0.5; stroke: #ffffff; stroke-width: 0.8; stroke-linejoin: miter"/>
   </g>
   <g id="patch_78">
    <path d="M 634.110565 207.885 
L 639.540134 207.885 
L 639.540134 122.965827 
L 634.110565 122.965827 
z
" clip-path="url(#pbc2398d41e)" style="fill: #1f77b4; opacity: 0.5; stroke: #ffffff; stroke-width: 0.8; stroke-linejoin: miter"/>
   </g>
   <g id="patch_79">
    <path d="M 639.540134 207.885 
L 644.969703 207.885 
L 644.969703 135.137575 
L 639.540134 135.137575 
z
" clip-path="url(#pbc2398d41e)" style="fill: #1f77b4; opacity: 0.5; stroke: #ffffff; stroke-width: 0.8; stroke-linejoin: miter"/>
   </g>
   <g id="patch_80">
    <path d="M 644.969703 207.885 
L 650.399273 207.885 
L 650.399273 139.666598 
L 644.969703 139.666598 
z
" clip-path="url(#pbc2398d41e)" style="fill: #1f77b4; opacity: 0.5; stroke: #ffffff; stroke-width: 0.8; stroke-linejoin: miter"/>
   </g>
   <g id="patch_81">
    <path d="M 650.399273 207.885 
L 655.828842 207.885 
L 655.828842 145.894004 
L 650.399273 145.894004 
z
" clip-path="url(#pbc2398d41e)" style="fill: #1f77b4; opacity: 0.5; stroke: #ffffff; stroke-width: 0.8; stroke-linejoin: miter"/>
   </g>
   <g id="patch_82">
    <path d="M 655.828842 207.885 
L 661.258411 207.885 
L 661.258411 162.028647 
L 655.828842 162.028647 
z
" clip-path="url(#pbc2398d41e)" style="fill: #1f77b4; opacity: 0.5; stroke: #ffffff; stroke-width: 0.8; stroke-linejoin: miter"/>
   </g>
   <g id="patch_83">
    <path d="M 661.258411 207.885 
L 666.68798 207.885 
L 666.68798 187.221335 
L 661.258411 187.221335 
z
" clip-path="url(#pbc2398d41e)" style="fill: #1f77b4; opacity: 0.5; stroke: #ffffff; stroke-width: 0.8; stroke-linejoin: miter"/>
   </g>
   <g id="patch_84">
    <path d="M 666.68798 207.885 
L 672.117549 207.885 
L 672.117549 192.033421 
L 666.68798 192.033421 
z
" clip-path="url(#pbc2398d41e)" style="fill: #1f77b4; opacity: 0.5; stroke: #ffffff; stroke-width: 0.8; stroke-linejoin: miter"/>
   </g>
   <g id="patch_85">
    <path d="M 672.117549 207.885 
L 677.547119 207.885 
L 677.547119 195.147124 
L 672.117549 195.147124 
z
" clip-path="url(#pbc2398d41e)" style="fill: #1f77b4; opacity: 0.5; stroke: #ffffff; stroke-width: 0.8; stroke-linejoin: miter"/>
   </g>
   <g id="patch_86">
    <path d="M 677.547119 207.885 
L 682.976688 207.885 
L 682.976688 196.845508 
L 677.547119 196.845508 
z
" clip-path="url(#pbc2398d41e)" style="fill: #1f77b4; opacity: 0.5; stroke: #ffffff; stroke-width: 0.8; stroke-linejoin: miter"/>
   </g>
   <g id="patch_87">
    <path d="M 682.976688 207.885 
L 688.406257 207.885 
L 688.406257 194.86406 
L 682.976688 194.86406 
z
" clip-path="url(#pbc2398d41e)" style="fill: #1f77b4; opacity: 0.5; stroke: #ffffff; stroke-width: 0.8; stroke-linejoin: miter"/>
   </g>
   <g id="patch_88">
    <path d="M 688.406257 207.885 
L 693.835826 207.885 
L 693.835826 199.110019 
L 688.406257 199.110019 
z
" clip-path="url(#pbc2398d41e)" style="fill: #1f77b4; opacity: 0.5; stroke: #ffffff; stroke-width: 0.8; stroke-linejoin: miter"/>
   </g>
   <g id="patch_89">
    <path d="M 693.835826 207.885 
L 699.265396 207.885 
L 699.265396 201.091466 
L 693.835826 201.091466 
z
" clip-path="url(#pbc2398d41e)" style="fill: #1f77b4; opacity: 0.5; stroke: #ffffff; stroke-width: 0.8; stroke-linejoin: miter"/>
   </g>
   <g id="patch_90">
    <path d="M 699.265396 207.885 
L 704.694965 207.885 
L 704.694965 199.676147 
L 699.265396 199.676147 
z
" clip-path="url(#pbc2398d41e)" style="fill: #1f77b4; opacity: 0.5; stroke: #ffffff; stroke-width: 0.8; stroke-linejoin: miter"/>
   </g>
   <g id="patch_91">
    <path d="M 704.694965 207.885 
L 710.124534 207.885 
L 710.124534 201.091466 
L 704.694965 201.091466 
z
" clip-path="url(#pbc2398d41e)" style="fill: #1f77b4; opacity: 0.5; stroke: #ffffff; stroke-width: 0.8; stroke-linejoin: miter"/>
   </g>
   <g id="patch_92">
    <path d="M 710.124534 207.885 
L 715.554103 207.885 
L 715.554103 203.639041 
L 710.124534 203.639041 
z
" clip-path="url(#pbc2398d41e)" style="fill: #1f77b4; opacity: 0.5; stroke: #ffffff; stroke-width: 0.8; stroke-linejoin: miter"/>
   </g>
   <g id="patch_93">
    <path d="M 715.554103 207.885 
L 720.983673 207.885 
L 720.983673 205.054361 
L 715.554103 205.054361 
z
" clip-path="url(#pbc2398d41e)" style="fill: #1f77b4; opacity: 0.5; stroke: #ffffff; stroke-width: 0.8; stroke-linejoin: miter"/>
   </g>
   <g id="patch_94">
    <path d="M 720.983673 207.885 
L 726.413242 207.885 
L 726.413242 199.393083 
L 720.983673 199.393083 
z
" clip-path="url(#pbc2398d41e)" style="fill: #1f77b4; opacity: 0.5; stroke: #ffffff; stroke-width: 0.8; stroke-linejoin: miter"/>
   </g>
   <g id="patch_95">
    <path d="M 726.413242 207.885 
L 731.842811 207.885 
L 731.842811 203.355977 
L 726.413242 203.355977 
z
" clip-path="url(#pbc2398d41e)" style="fill: #1f77b4; opacity: 0.5; stroke: #ffffff; stroke-width: 0.8; stroke-linejoin: miter"/>
   </g>
   <g id="patch_96">
    <path d="M 731.842811 207.885 
L 737.27238 207.885 
L 737.27238 203.355977 
L 731.842811 203.355977 
z
" clip-path="url(#pbc2398d41e)" style="fill: #1f77b4; opacity: 0.5; stroke: #ffffff; stroke-width: 0.8; stroke-linejoin: miter"/>
   </g>
   <g id="patch_97">
    <path d="M 737.27238 207.885 
L 742.70195 207.885 
L 742.70195 204.205169 
L 737.27238 204.205169 
z
" clip-path="url(#pbc2398d41e)" style="fill: #1f77b4; opacity: 0.5; stroke: #ffffff; stroke-width: 0.8; stroke-linejoin: miter"/>
   </g>
   <g id="patch_98">
    <path d="M 742.70195 207.885 
L 748.131519 207.885 
L 748.131519 205.903553 
L 742.70195 205.903553 
z
" clip-path="url(#pbc2398d41e)" style="fill: #1f77b4; opacity: 0.5; stroke: #ffffff; stroke-width: 0.8; stroke-linejoin: miter"/>
   </g>
   <g id="patch_99">
    <path d="M 748.131519 207.885 
L 753.561088 207.885 
L 753.561088 205.903553 
L 748.131519 205.903553 
z
" clip-path="url(#pbc2398d41e)" style="fill: #1f77b4; opacity: 0.5; stroke: #ffffff; stroke-width: 0.8; stroke-linejoin: miter"/>
   </g>
   <g id="patch_100">
    <path d="M 753.561088 207.885 
L 758.990657 207.885 
L 758.990657 207.601936 
L 753.561088 207.601936 
z
" clip-path="url(#pbc2398d41e)" style="fill: #1f77b4; opacity: 0.5; stroke: #ffffff; stroke-width: 0.8; stroke-linejoin: miter"/>
   </g>
   <g id="patch_101">
    <path d="M 758.990657 207.885 
L 764.420227 207.885 
L 764.420227 207.885 
L 758.990657 207.885 
z
" clip-path="url(#pbc2398d41e)" style="fill: #1f77b4; opacity: 0.5; stroke: #ffffff; stroke-width: 0.8; stroke-linejoin: miter"/>
   </g>
   <g id="patch_102">
    <path d="M 764.420227 207.885 
L 769.849796 207.885 
L 769.849796 207.885 
L 764.420227 207.885 
z
" clip-path="url(#pbc2398d41e)" style="fill: #1f77b4; opacity: 0.5; stroke: #ffffff; stroke-width: 0.8; stroke-linejoin: miter"/>
   </g>
   <g id="patch_103">
    <path d="M 769.849796 207.885 
L 775.279365 207.885 
L 775.279365 207.885 
L 769.849796 207.885 
z
" clip-path="url(#pbc2398d41e)" style="fill: #1f77b4; opacity: 0.5; stroke: #ffffff; stroke-width: 0.8; stroke-linejoin: miter"/>
   </g>
   <g id="patch_104">
    <path d="M 775.279365 207.885 
L 780.708934 207.885 
L 780.708934 207.885 
L 775.279365 207.885 
z
" clip-path="url(#pbc2398d41e)" style="fill: #1f77b4; opacity: 0.5; stroke: #ffffff; stroke-width: 0.8; stroke-linejoin: miter"/>
   </g>
   <g id="patch_105">
    <path d="M 780.708934 207.885 
L 786.138504 207.885 
L 786.138504 207.885 
L 780.708934 207.885 
z
" clip-path="url(#pbc2398d41e)" style="fill: #1f77b4; opacity: 0.5; stroke: #ffffff; stroke-width: 0.8; stroke-linejoin: miter"/>
   </g>
   <g id="patch_106">
    <path d="M 786.138504 207.885 
L 791.568073 207.885 
L 791.568073 207.885 
L 786.138504 207.885 
z
" clip-path="url(#pbc2398d41e)" style="fill: #1f77b4; opacity: 0.5; stroke: #ffffff; stroke-width: 0.8; stroke-linejoin: miter"/>
   </g>
   <g id="patch_107">
    <path d="M 791.568073 207.885 
L 796.997642 207.885 
L 796.997642 207.601936 
L 791.568073 207.601936 
z
" clip-path="url(#pbc2398d41e)" style="fill: #1f77b4; opacity: 0.5; stroke: #ffffff; stroke-width: 0.8; stroke-linejoin: miter"/>
   </g>
   <g id="patch_108">
    <path d="M 577.227823 207.885 
L 579.381542 207.885 
L 579.381542 204.205169 
L 577.227823 204.205169 
z
" clip-path="url(#pbc2398d41e)" style="fill: #ff7f0e; opacity: 0.5; stroke: #ffffff; stroke-width: 0.8; stroke-linejoin: miter"/>
   </g>
   <g id="patch_109">
    <path d="M 579.381542 207.885 
L 581.53526 207.885 
L 581.53526 194.580996 
L 579.381542 194.580996 
z
" clip-path="url(#pbc2398d41e)" style="fill: #ff7f0e; opacity: 0.5; stroke: #ffffff; stroke-width: 0.8; stroke-linejoin: miter"/>
   </g>
   <g id="patch_110">
    <path d="M 581.53526 207.885 
L 583.688978 207.885 
L 583.688978 183.824568 
L 581.53526 183.824568 
z
" clip-path="url(#pbc2398d41e)" style="fill: #ff7f0e; opacity: 0.5; stroke: #ffffff; stroke-width: 0.8; stroke-linejoin: miter"/>
   </g>
   <g id="patch_111">
    <path d="M 583.688978 207.885 
L 585.842697 207.885 
L 585.842697 179.861673 
L 583.688978 179.861673 
z
" clip-path="url(#pbc2398d41e)" style="fill: #ff7f0e; opacity: 0.5; stroke: #ffffff; stroke-width: 0.8; stroke-linejoin: miter"/>
   </g>
   <g id="patch_112">
    <path d="M 585.842697 207.885 
L 587.996415 207.885 
L 587.996415 164.859286 
L 585.842697 164.859286 
z
" clip-path="url(#pbc2398d41e)" style="fill: #ff7f0e; opacity: 0.5; stroke: #ffffff; stroke-width: 0.8; stroke-linejoin: miter"/>
   </g>
   <g id="patch_113">
    <path d="M 587.996415 207.885 
L 590.150133 207.885 
L 590.150133 168.539117 
L 587.996415 168.539117 
z
" clip-path="url(#pbc2398d41e)" style="fill: #ff7f0e; opacity: 0.5; stroke: #ffffff; stroke-width: 0.8; stroke-linejoin: miter"/>
   </g>
   <g id="patch_114">
    <path d="M 590.150133 207.885 
L 592.303852 207.885 
L 592.303852 140.798853 
L 590.150133 140.798853 
z
" clip-path="url(#pbc2398d41e)" style="fill: #ff7f0e; opacity: 0.5; stroke: #ffffff; stroke-width: 0.8; stroke-linejoin: miter"/>
   </g>
   <g id="patch_115">
    <path d="M 592.303852 207.885 
L 594.45757 207.885 
L 594.45757 84.752199 
L 592.303852 84.752199 
z
" clip-path="url(#pbc2398d41e)" style="fill: #ff7f0e; opacity: 0.5; stroke: #ffffff; stroke-width: 0.8; stroke-linejoin: miter"/>
   </g>
   <g id="patch_116">
    <path d="M 594.45757 207.885 
L 596.611288 207.885 
L 596.611288 83.33688 
L 594.45757 83.33688 
z
" clip-path="url(#pbc2398d41e)" style="fill: #ff7f0e; opacity: 0.5; stroke: #ffffff; stroke-width: 0.8; stroke-linejoin: miter"/>
   </g>
   <g id="patch_117">
    <path d="M 596.611288 207.885 
L 598.765007 207.885 
L 598.765007 136.552895 
L 596.611288 136.552895 
z
" clip-path="url(#pbc2398d41e)" style="fill: #ff7f0e; opacity: 0.5; stroke: #ffffff; stroke-width: 0.8; stroke-linejoin: miter"/>
   </g>
   <g id="patch_118">
    <path d="M 598.765007 207.885 
L 600.918725 207.885 
L 600.918725 157.499624 
L 598.765007 157.499624 
z
" clip-path="url(#pbc2398d41e)" style="fill: #ff7f0e; opacity: 0.5; stroke: #ffffff; stroke-width: 0.8; stroke-linejoin: miter"/>
   </g>
   <g id="patch_119">
    <path d="M 600.918725 207.885 
L 603.072444 207.885 
L 603.072444 158.348816 
L 600.918725 158.348816 
z
" clip-path="url(#pbc2398d41e)" style="fill: #ff7f0e; opacity: 0.5; stroke: #ffffff; stroke-width: 0.8; stroke-linejoin: miter"/>
   </g>
   <g id="patch_120">
    <path d="M 603.072444 207.885 
L 605.226162 207.885 
L 605.226162 152.404474 
L 603.072444 152.404474 
z
" clip-path="url(#pbc2398d41e)" style="fill: #ff7f0e; opacity: 0.5; stroke: #ffffff; stroke-width: 0.8; stroke-linejoin: miter"/>
   </g>
   <g id="patch_121">
    <path d="M 605.226162 207.885 
L 607.37988 207.885 
L 607.37988 158.914944 
L 605.226162 158.914944 
z
" clip-path="url(#pbc2398d41e)" style="fill: #ff7f0e; opacity: 0.5; stroke: #ffffff; stroke-width: 0.8; stroke-linejoin: miter"/>
   </g>
   <g id="patch_122">
    <path d="M 607.37988 207.885 
L 609.533599 207.885 
L 609.533599 148.724643 
L 607.37988 148.724643 
z
" clip-path="url(#pbc2398d41e)" style="fill: #ff7f0e; opacity: 0.5; stroke: #ffffff; stroke-width: 0.8; stroke-linejoin: miter"/>
   </g>
   <g id="patch_123">
    <path d="M 609.533599 207.885 
L 611.687317 207.885 
L 611.687317 161.745583 
L 609.533599 161.745583 
z
" clip-path="url(#pbc2398d41e)" style="fill: #ff7f0e; opacity: 0.5; stroke: #ffffff; stroke-width: 0.8; stroke-linejoin: miter"/>
   </g>
   <g id="patch_124">
    <path d="M 611.687317 207.885 
L 613.841035 207.885 
L 613.841035 164.010094 
L 611.687317 164.010094 
z
" clip-path="url(#pbc2398d41e)" style="fill: #ff7f0e; opacity: 0.5; stroke: #ffffff; stroke-width: 0.8; stroke-linejoin: miter"/>
   </g>
   <g id="patch_125">
    <path d="M 613.841035 207.885 
L 615.994754 207.885 
L 615.994754 161.745583 
L 613.841035 161.745583 
z
" clip-path="url(#pbc2398d41e)" style="fill: #ff7f0e; opacity: 0.5; stroke: #ffffff; stroke-width: 0.8; stroke-linejoin: miter"/>
   </g>
   <g id="patch_126">
    <path d="M 615.994754 207.885 
L 618.148472 207.885 
L 618.148472 174.483459 
L 615.994754 174.483459 
z
" clip-path="url(#pbc2398d41e)" style="fill: #ff7f0e; opacity: 0.5; stroke: #ffffff; stroke-width: 0.8; stroke-linejoin: miter"/>
   </g>
   <g id="patch_127">
    <path d="M 618.148472 207.885 
L 620.30219 207.885 
L 620.30219 182.126184 
L 618.148472 182.126184 
z
" clip-path="url(#pbc2398d41e)" style="fill: #ff7f0e; opacity: 0.5; stroke: #ffffff; stroke-width: 0.8; stroke-linejoin: miter"/>
   </g>
   <g id="patch_128">
    <path d="M 620.30219 207.885 
L 622.455909 207.885 
L 622.455909 199.393083 
L 620.30219 199.393083 
z
" clip-path="url(#pbc2398d41e)" style="fill: #ff7f0e; opacity: 0.5; stroke: #ffffff; stroke-width: 0.8; stroke-linejoin: miter"/>
   </g>
   <g id="patch_129">
    <path d="M 622.455909 207.885 
L 624.609627 207.885 
L 624.609627 204.771297 
L 622.455909 204.771297 
z
" clip-path="url(#pbc2398d41e)" style="fill: #ff7f0e; opacity: 0.5; stroke: #ffffff; stroke-width: 0.8; stroke-linejoin: miter"/>
   </g>
   <g id="patch_130">
    <path d="M 624.609627 207.885 
L 626.763345 207.885 
L 626.763345 204.488233 
L 624.609627 204.488233 
z
" clip-path="url(#pbc2398d41e)" style="fill: #ff7f0e; opacity: 0.5; stroke: #ffffff; stroke-width: 0.8; stroke-linejoin: miter"/>
   </g>
   <g id="patch_131">
    <path d="M 626.763345 207.885 
L 628.917064 207.885 
L 628.917064 204.771297 
L 626.763345 204.771297 
z
" clip-path="url(#pbc2398d41e)" style="fill: #ff7f0e; opacity: 0.5; stroke: #ffffff; stroke-width: 0.8; stroke-linejoin: miter"/>
   </g>
   <g id="patch_132">
    <path d="M 628.917064 207.885 
L 631.070782 207.885 
L 631.070782 201.091466 
L 628.917064 201.091466 
z
" clip-path="url(#pbc2398d41e)" style="fill: #ff7f0e; opacity: 0.5; stroke: #ffffff; stroke-width: 0.8; stroke-linejoin: miter"/>
   </g>
   <g id="patch_133">
    <path d="M 631.070782 207.885 
L 633.2245 207.885 
L 633.2245 203.922105 
L 631.070782 203.922105 
z
" clip-path="url(#pbc2398d41e)" style="fill: #ff7f0e; opacity: 0.5; stroke: #ffffff; stroke-width: 0.8; stroke-linejoin: miter"/>
   </g>
   <g id="patch_134">
    <path d="M 633.2245 207.885 
L 635.378219 207.885 
L 635.378219 206.46968 
L 633.2245 206.46968 
z
" clip-path="url(#pbc2398d41e)" style="fill: #ff7f0e; opacity: 0.5; stroke: #ffffff; stroke-width: 0.8; stroke-linejoin: miter"/>
   </g>
   <g id="patch_135">
    <path d="M 635.378219 207.885 
L 637.531937 207.885 
L 637.531937 206.186617 
L 635.378219 206.186617 
z
" clip-path="url(#pbc2398d41e)" style="fill: #ff7f0e; opacity: 0.5; stroke: #ffffff; stroke-width: 0.8; stroke-linejoin: miter"/>
   </g>
   <g id="patch_136">
    <path d="M 637.531937 207.885 
L 639.685656 207.885 
L 639.685656 206.186617 
L 637.531937 206.186617 
z
" clip-path="url(#pbc2398d41e)" style="fill: #ff7f0e; opacity: 0.5; stroke: #ffffff; stroke-width: 0.8; stroke-linejoin: miter"/>
   </g>
   <g id="patch_137">
    <path d="M 639.685656 207.885 
L 641.839374 207.885 
L 641.839374 207.035808 
L 639.685656 207.035808 
z
" clip-path="url(#pbc2398d41e)" style="fill: #ff7f0e; opacity: 0.5; stroke: #ffffff; stroke-width: 0.8; stroke-linejoin: miter"/>
   </g>
   <g id="patch_138">
    <path d="M 641.839374 207.885 
L 643.993092 207.885 
L 643.993092 207.601936 
L 641.839374 207.601936 
z
" clip-path="url(#pbc2398d41e)" style="fill: #ff7f0e; opacity: 0.5; stroke: #ffffff; stroke-width: 0.8; stroke-linejoin: miter"/>
   </g>
   <g id="patch_139">
    <path d="M 643.993092 207.885 
L 646.146811 207.885 
L 646.146811 207.601936 
L 643.993092 207.601936 
z
" clip-path="url(#pbc2398d41e)" style="fill: #ff7f0e; opacity: 0.5; stroke: #ffffff; stroke-width: 0.8; stroke-linejoin: miter"/>
   </g>
   <g id="patch_140">
    <path d="M 646.146811 207.885 
L 648.300529 207.885 
L 648.300529 207.601936 
L 646.146811 207.601936 
z
" clip-path="url(#pbc2398d41e)" style="fill: #ff7f0e; opacity: 0.5; stroke: #ffffff; stroke-width: 0.8; stroke-linejoin: miter"/>
   </g>
   <g id="patch_141">
    <path d="M 648.300529 207.885 
L 650.454247 207.885 
L 650.454247 207.601936 
L 648.300529 207.601936 
z
" clip-path="url(#pbc2398d41e)" style="fill: #ff7f0e; opacity: 0.5; stroke: #ffffff; stroke-width: 0.8; stroke-linejoin: miter"/>
   </g>
   <g id="patch_142">
    <path d="M 650.454247 207.885 
L 652.607966 207.885 
L 652.607966 207.885 
L 650.454247 207.885 
z
" clip-path="url(#pbc2398d41e)" style="fill: #ff7f0e; opacity: 0.5; stroke: #ffffff; stroke-width: 0.8; stroke-linejoin: miter"/>
   </g>
   <g id="patch_143">
    <path d="M 652.607966 207.885 
L 654.761684 207.885 
L 654.761684 207.601936 
L 652.607966 207.601936 
z
" clip-path="url(#pbc2398d41e)" style="fill: #ff7f0e; opacity: 0.5; stroke: #ffffff; stroke-width: 0.8; stroke-linejoin: miter"/>
   </g>
   <g id="patch_144">
    <path d="M 654.761684 207.885 
L 656.915402 207.885 
L 656.915402 207.601936 
L 654.761684 207.601936 
z
" clip-path="url(#pbc2398d41e)" style="fill: #ff7f0e; opacity: 0.5; stroke: #ffffff; stroke-width: 0.8; stroke-linejoin: miter"/>
   </g>
   <g id="patch_145">
    <path d="M 656.915402 207.885 
L 659.069121 207.885 
L 659.069121 207.601936 
L 656.915402 207.601936 
z
" clip-path="url(#pbc2398d41e)" style="fill: #ff7f0e; opacity: 0.5; stroke: #ffffff; stroke-width: 0.8; stroke-linejoin: miter"/>
   </g>
   <g id="patch_146">
    <path d="M 659.069121 207.885 
L 661.222839 207.885 
L 661.222839 207.601936 
L 659.069121 207.601936 
z
" clip-path="url(#pbc2398d41e)" style="fill: #ff7f0e; opacity: 0.5; stroke: #ffffff; stroke-width: 0.8; stroke-linejoin: miter"/>
   </g>
   <g id="patch_147">
    <path d="M 661.222839 207.885 
L 663.376557 207.885 
L 663.376557 207.318872 
L 661.222839 207.318872 
z
" clip-path="url(#pbc2398d41e)" style="fill: #ff7f0e; opacity: 0.5; stroke: #ffffff; stroke-width: 0.8; stroke-linejoin: miter"/>
   </g>
   <g id="patch_148">
    <path d="M 573.605955 207.885 
L 583.148932 207.885 
L 583.148932 106.831184 
L 573.605955 106.831184 
z
" clip-path="url(#pbc2398d41e)" style="fill: #2ca02c; opacity: 0.5; stroke: #ffffff; stroke-width: 0.8; stroke-linejoin: miter"/>
   </g>
   <g id="patch_149">
    <path d="M 583.148932 207.885 
L 592.691909 207.885 
L 592.691909 35.782143 
L 583.148932 35.782143 
z
" clip-path="url(#pbc2398d41e)" style="fill: #2ca02c; opacity: 0.5; stroke: #ffffff; stroke-width: 0.8; stroke-linejoin: miter"/>
   </g>
   <g id="patch_150">
    <path d="M 592.691909 207.885 
L 602.234886 207.885 
L 602.234886 55.313553 
L 592.691909 55.313553 
z
" clip-path="url(#pbc2398d41e)" style="fill: #2ca02c; opacity: 0.5; stroke: #ffffff; stroke-width: 0.8; stroke-linejoin: miter"/>
   </g>
   <g id="patch_151">
    <path d="M 602.234886 207.885 
L 611.777864 207.885 
L 611.777864 137.968214 
L 602.234886 137.968214 
z
" clip-path="url(#pbc2398d41e)" style="fill: #2ca02c; opacity: 0.5; stroke: #ffffff; stroke-width: 0.8; stroke-linejoin: miter"/>
   </g>
   <g id="patch_152">
    <path d="M 611.777864 207.885 
L 621.320841 207.885 
L 621.320841 168.539117 
L 611.777864 168.539117 
z
" clip-path="url(#pbc2398d41e)" style="fill: #2ca02c; opacity: 0.5; stroke: #ffffff; stroke-width: 0.8; stroke-linejoin: miter"/>
   </g>
   <g id="patch_153">
    <path d="M 621.320841 207.885 
L 630.863818 207.885 
L 630.863818 177.880226 
L 621.320841 177.880226 
z
" clip-path="url(#pbc2398d41e)" style="fill: #2ca02c; opacity: 0.5; stroke: #ffffff; stroke-width: 0.8; stroke-linejoin: miter"/>
   </g>
   <g id="patch_154">
    <path d="M 630.863818 207.885 
L 640.406795 207.885 
L 640.406795 186.938271 
L 630.863818 186.938271 
z
" clip-path="url(#pbc2398d41e)" style="fill: #2ca02c; opacity: 0.5; stroke: #ffffff; stroke-width: 0.8; stroke-linejoin: miter"/>
   </g>
   <g id="patch_155">
    <path d="M 640.406795 207.885 
L 649.949773 207.885 
L 649.949773 191.184229 
L 640.406795 191.184229 
z
" clip-path="url(#pbc2398d41e)" style="fill: #2ca02c; opacity: 0.5; stroke: #ffffff; stroke-width: 0.8; stroke-linejoin: miter"/>
   </g>
   <g id="patch_156">
    <path d="M 649.949773 207.885 
L 659.49275 207.885 
L 659.49275 199.959211 
L 649.949773 199.959211 
z
" clip-path="url(#pbc2398d41e)" style="fill: #2ca02c; opacity: 0.5; stroke: #ffffff; stroke-width: 0.8; stroke-linejoin: miter"/>
   </g>
   <g id="patch_157">
    <path d="M 659.49275 207.885 
L 669.035727 207.885 
L 669.035727 190.618102 
L 659.49275 190.618102 
z
" clip-path="url(#pbc2398d41e)" style="fill: #2ca02c; opacity: 0.5; stroke: #ffffff; stroke-width: 0.8; stroke-linejoin: miter"/>
   </g>
   <g id="patch_158">
    <path d="M 669.035727 207.885 
L 678.578705 207.885 
L 678.578705 199.393083 
L 669.035727 199.393083 
z
" clip-path="url(#pbc2398d41e)" style="fill: #2ca02c; opacity: 0.5; stroke: #ffffff; stroke-width: 0.8; stroke-linejoin: miter"/>
   </g>
   <g id="patch_159">
    <path d="M 678.578705 207.885 
L 688.121682 207.885 
L 688.121682 203.355977 
L 678.578705 203.355977 
z
" clip-path="url(#pbc2398d41e)" style="fill: #2ca02c; opacity: 0.5; stroke: #ffffff; stroke-width: 0.8; stroke-linejoin: miter"/>
   </g>
   <g id="patch_160">
    <path d="M 688.121682 207.885 
L 697.664659 207.885 
L 697.664659 207.318872 
L 688.121682 207.318872 
z
" clip-path="url(#pbc2398d41e)" style="fill: #2ca02c; opacity: 0.5; stroke: #ffffff; stroke-width: 0.8; stroke-linejoin: miter"/>
   </g>
   <g id="patch_161">
    <path d="M 697.664659 207.885 
L 707.207636 207.885 
L 707.207636 207.601936 
L 697.664659 207.601936 
z
" clip-path="url(#pbc2398d41e)" style="fill: #2ca02c; opacity: 0.5; stroke: #ffffff; stroke-width: 0.8; stroke-linejoin: miter"/>
   </g>
   <g id="patch_162">
    <path d="M 707.207636 207.885 
L 716.750614 207.885 
L 716.750614 207.885 
L 707.207636 207.885 
z
" clip-path="url(#pbc2398d41e)" style="fill: #2ca02c; opacity: 0.5; stroke: #ffffff; stroke-width: 0.8; stroke-linejoin: miter"/>
   </g>
   <g id="patch_163">
    <path d="M 716.750614 207.885 
L 726.293591 207.885 
L 726.293591 207.885 
L 716.750614 207.885 
z
" clip-path="url(#pbc2398d41e)" style="fill: #2ca02c; opacity: 0.5; stroke: #ffffff; stroke-width: 0.8; stroke-linejoin: miter"/>
   </g>
   <g id="patch_164">
    <path d="M 726.293591 207.885 
L 735.836568 207.885 
L 735.836568 207.601936 
L 726.293591 207.601936 
z
" clip-path="url(#pbc2398d41e)" style="fill: #2ca02c; opacity: 0.5; stroke: #ffffff; stroke-width: 0.8; stroke-linejoin: miter"/>
   </g>
   <g id="patch_165">
    <path d="M 735.836568 207.885 
L 745.379545 207.885 
L 745.379545 207.885 
L 735.836568 207.885 
z
" clip-path="url(#pbc2398d41e)" style="fill: #2ca02c; opacity: 0.5; stroke: #ffffff; stroke-width: 0.8; stroke-linejoin: miter"/>
   </g>
   <g id="patch_166">
    <path d="M 745.379545 207.885 
L 754.922523 207.885 
L 754.922523 207.885 
L 745.379545 207.885 
z
" clip-path="url(#pbc2398d41e)" style="fill: #2ca02c; opacity: 0.5; stroke: #ffffff; stroke-width: 0.8; stroke-linejoin: miter"/>
   </g>
   <g id="patch_167">
    <path d="M 754.922523 207.885 
L 764.4655 207.885 
L 764.4655 207.885 
L 754.922523 207.885 
z
" clip-path="url(#pbc2398d41e)" style="fill: #2ca02c; opacity: 0.5; stroke: #ffffff; stroke-width: 0.8; stroke-linejoin: miter"/>
   </g>
   <g id="patch_168">
    <path d="M 764.4655 207.885 
L 774.008477 207.885 
L 774.008477 207.885 
L 764.4655 207.885 
z
" clip-path="url(#pbc2398d41e)" style="fill: #2ca02c; opacity: 0.5; stroke: #ffffff; stroke-width: 0.8; stroke-linejoin: miter"/>
   </g>
   <g id="patch_169">
    <path d="M 774.008477 207.885 
L 783.551455 207.885 
L 783.551455 207.601936 
L 774.008477 207.601936 
z
" clip-path="url(#pbc2398d41e)" style="fill: #2ca02c; opacity: 0.5; stroke: #ffffff; stroke-width: 0.8; stroke-linejoin: miter"/>
   </g>
   <g id="patch_170">
    <path d="M 783.551455 207.885 
L 793.094432 207.885 
L 793.094432 207.885 
L 783.551455 207.885 
z
" clip-path="url(#pbc2398d41e)" style="fill: #2ca02c; opacity: 0.5; stroke: #ffffff; stroke-width: 0.8; stroke-linejoin: miter"/>
   </g>
   <g id="patch_171">
    <path d="M 793.094432 207.885 
L 802.637409 207.885 
L 802.637409 207.885 
L 793.094432 207.885 
z
" clip-path="url(#pbc2398d41e)" style="fill: #2ca02c; opacity: 0.5; stroke: #ffffff; stroke-width: 0.8; stroke-linejoin: miter"/>
   </g>
   <g id="patch_172">
    <path d="M 802.637409 207.885 
L 812.180386 207.885 
L 812.180386 207.885 
L 802.637409 207.885 
z
" clip-path="url(#pbc2398d41e)" style="fill: #2ca02c; opacity: 0.5; stroke: #ffffff; stroke-width: 0.8; stroke-linejoin: miter"/>
   </g>
   <g id="patch_173">
    <path d="M 812.180386 207.885 
L 821.723364 207.885 
L 821.723364 207.885 
L 812.180386 207.885 
z
" clip-path="url(#pbc2398d41e)" style="fill: #2ca02c; opacity: 0.5; stroke: #ffffff; stroke-width: 0.8; stroke-linejoin: miter"/>
   </g>
   <g id="patch_174">
    <path d="M 821.723364 207.885 
L 831.266341 207.885 
L 831.266341 207.885 
L 821.723364 207.885 
z
" clip-path="url(#pbc2398d41e)" style="fill: #2ca02c; opacity: 0.5; stroke: #ffffff; stroke-width: 0.8; stroke-linejoin: miter"/>
   </g>
   <g id="patch_175">
    <path d="M 831.266341 207.885 
L 840.809318 207.885 
L 840.809318 207.885 
L 831.266341 207.885 
z
" clip-path="url(#pbc2398d41e)" style="fill: #2ca02c; opacity: 0.5; stroke: #ffffff; stroke-width: 0.8; stroke-linejoin: miter"/>
   </g>
   <g id="patch_176">
    <path d="M 840.809318 207.885 
L 850.352295 207.885 
L 850.352295 207.885 
L 840.809318 207.885 
z
" clip-path="url(#pbc2398d41e)" style="fill: #2ca02c; opacity: 0.5; stroke: #ffffff; stroke-width: 0.8; stroke-linejoin: miter"/>
   </g>
   <g id="patch_177">
    <path d="M 850.352295 207.885 
L 859.895273 207.885 
L 859.895273 207.885 
L 850.352295 207.885 
z
" clip-path="url(#pbc2398d41e)" style="fill: #2ca02c; opacity: 0.5; stroke: #ffffff; stroke-width: 0.8; stroke-linejoin: miter"/>
   </g>
   <g id="patch_178">
    <path d="M 859.895273 207.885 
L 869.43825 207.885 
L 869.43825 207.601936 
L 859.895273 207.601936 
z
" clip-path="url(#pbc2398d41e)" style="fill: #2ca02c; opacity: 0.5; stroke: #ffffff; stroke-width: 0.8; stroke-linejoin: miter"/>
   </g>
   <g id="patch_179">
    <path d="M 869.43825 207.885 
L 878.981227 207.885 
L 878.981227 207.885 
L 869.43825 207.885 
z
" clip-path="url(#pbc2398d41e)" style="fill: #2ca02c; opacity: 0.5; stroke: #ffffff; stroke-width: 0.8; stroke-linejoin: miter"/>
   </g>
   <g id="patch_180">
    <path d="M 878.981227 207.885 
L 888.524205 207.885 
L 888.524205 207.601936 
L 878.981227 207.601936 
z
" clip-path="url(#pbc2398d41e)" style="fill: #2ca02c; opacity: 0.5; stroke: #ffffff; stroke-width: 0.8; stroke-linejoin: miter"/>
   </g>
   <g id="patch_181">
    <path d="M 888.524205 207.885 
L 898.067182 207.885 
L 898.067182 207.885 
L 888.524205 207.885 
z
" clip-path="url(#pbc2398d41e)" style="fill: #2ca02c; opacity: 0.5; stroke: #ffffff; stroke-width: 0.8; stroke-linejoin: miter"/>
   </g>
   <g id="patch_182">
    <path d="M 898.067182 207.885 
L 907.610159 207.885 
L 907.610159 207.601936 
L 898.067182 207.601936 
z
" clip-path="url(#pbc2398d41e)" style="fill: #2ca02c; opacity: 0.5; stroke: #ffffff; stroke-width: 0.8; stroke-linejoin: miter"/>
   </g>
   <g id="patch_183">
    <path d="M 907.610159 207.885 
L 917.153136 207.885 
L 917.153136 207.885 
L 907.610159 207.885 
z
" clip-path="url(#pbc2398d41e)" style="fill: #2ca02c; opacity: 0.5; stroke: #ffffff; stroke-width: 0.8; stroke-linejoin: miter"/>
   </g>
   <g id="patch_184">
    <path d="M 917.153136 207.885 
L 926.696114 207.885 
L 926.696114 207.885 
L 917.153136 207.885 
z
" clip-path="url(#pbc2398d41e)" style="fill: #2ca02c; opacity: 0.5; stroke: #ffffff; stroke-width: 0.8; stroke-linejoin: miter"/>
   </g>
   <g id="patch_185">
    <path d="M 926.696114 207.885 
L 936.239091 207.885 
L 936.239091 207.601936 
L 926.696114 207.601936 
z
" clip-path="url(#pbc2398d41e)" style="fill: #2ca02c; opacity: 0.5; stroke: #ffffff; stroke-width: 0.8; stroke-linejoin: miter"/>
   </g>
   <g id="patch_186">
    <path d="M 936.239091 207.885 
L 945.782068 207.885 
L 945.782068 207.885 
L 936.239091 207.885 
z
" clip-path="url(#pbc2398d41e)" style="fill: #2ca02c; opacity: 0.5; stroke: #ffffff; stroke-width: 0.8; stroke-linejoin: miter"/>
   </g>
   <g id="patch_187">
    <path d="M 945.782068 207.885 
L 955.325045 207.885 
L 955.325045 207.601936 
L 945.782068 207.601936 
z
" clip-path="url(#pbc2398d41e)" style="fill: #2ca02c; opacity: 0.5; stroke: #ffffff; stroke-width: 0.8; stroke-linejoin: miter"/>
   </g>
   <g id="patch_188">
    <path d="M 554.52 207.885 
L 554.52 27.177 
" style="fill: none; stroke: #cccccc; stroke-linejoin: miter; stroke-linecap: square"/>
   </g>
   <g id="patch_189">
    <path d="M 974.411 207.885 
L 974.411 27.177 
" style="fill: none; stroke: #cccccc; stroke-linejoin: miter; stroke-linecap: square"/>
   </g>
   <g id="patch_190">
    <path d="M 554.52 207.885 
L 974.411 207.885 
" style="fill: none; stroke: #cccccc; stroke-linejoin: miter; stroke-linecap: square"/>
   </g>
   <g id="patch_191">
    <path d="M 554.52 27.177 
L 974.411 27.177 
" style="fill: none; stroke: #cccccc; stroke-linejoin: miter; stroke-linecap: square"/>
   </g>
   <g id="text_27">
    <!-- Distribution by Decade -->
    <g style="fill: #262626" transform="translate(667.8895 21.177) scale(0.192 -0.192)">
     <defs>
      <path id="ArialMT-61" d="M 2588 409 
Q 2275 144 1986 34 
Q 1697 -75 1366 -75 
Q 819 -75 525 192 
Q 231 459 231 875 
Q 231 1119 342 1320 
Q 453 1522 633 1644 
Q 813 1766 1038 1828 
Q 1203 1872 1538 1913 
Q 2219 1994 2541 2106 
Q 2544 2222 2544 2253 
Q 2544 2597 2384 2738 
Q 2169 2928 1744 2928 
Q 1347 2928 1158 2789 
Q 969 2650 878 2297 
L 328 2372 
Q 403 2725 575 2942 
Q 747 3159 1072 3276 
Q 1397 3394 1825 3394 
Q 2250 3394 2515 3294 
Q 2781 3194 2906 3042 
Q 3031 2891 3081 2659 
Q 3109 2516 3109 2141 
L 3109 1391 
Q 3109 606 3145 398 
Q 3181 191 3288 0 
L 2700 0 
Q 2613 175 2588 409 
z
M 2541 1666 
Q 2234 1541 1622 1453 
Q 1275 1403 1131 1340 
Q 988 1278 909 1158 
Q 831 1038 831 891 
Q 831 666 1001 516 
Q 1172 366 1500 366 
Q 1825 366 2078 508 
Q 2331 650 2450 897 
Q 2541 1088 2541 1459 
L 2541 1666 
z
" transform="scale(0.015625)"/>
      <path id="ArialMT-64" d="M 2575 0 
L 2575 419 
Q 2259 -75 1647 -75 
Q 1250 -75 917 144 
Q 584 363 401 755 
Q 219 1147 219 1656 
Q 219 2153 384 2558 
Q 550 2963 881 3178 
Q 1213 3394 1622 3394 
Q 1922 3394 2156 3267 
Q 2391 3141 2538 2938 
L 2538 4581 
L 3097 4581 
L 3097 0 
L 2575 0 
z
M 797 1656 
Q 797 1019 1065 703 
Q 1334 388 1700 388 
Q 2069 388 2326 689 
Q 2584 991 2584 1609 
Q 2584 2291 2321 2609 
Q 2059 2928 1675 2928 
Q 1300 2928 1048 2622 
Q 797 2316 797 1656 
z
" transform="scale(0.015625)"/>
     </defs>
     <use xlink:href="#ArialMT-44"/>
     <use xlink:href="#ArialMT-69" transform="translate(72.216797 0)"/>
     <use xlink:href="#ArialMT-73" transform="translate(94.433594 0)"/>
     <use xlink:href="#ArialMT-74" transform="translate(144.433594 0)"/>
     <use xlink:href="#ArialMT-72" transform="translate(172.216797 0)"/>
     <use xlink:href="#ArialMT-69" transform="translate(205.517578 0)"/>
     <use xlink:href="#ArialMT-62" transform="translate(227.734375 0)"/>
     <use xlink:href="#ArialMT-75" transform="translate(283.349609 0)"/>
     <use xlink:href="#ArialMT-74" transform="translate(338.964844 0)"/>
     <use xlink:href="#ArialMT-69" transform="translate(366.748047 0)"/>
     <use xlink:href="#ArialMT-6f" transform="translate(388.964844 0)"/>
     <use xlink:href="#ArialMT-6e" transform="translate(444.580078 0)"/>
     <use xlink:href="#ArialMT-20" transform="translate(500.195312 0)"/>
     <use xlink:href="#ArialMT-62" transform="translate(527.978516 0)"/>
     <use xlink:href="#ArialMT-79" transform="translate(583.59375 0)"/>
     <use xlink:href="#ArialMT-20" transform="translate(633.59375 0)"/>
     <use xlink:href="#ArialMT-44" transform="translate(661.376953 0)"/>
     <use xlink:href="#ArialMT-65" transform="translate(733.59375 0)"/>
     <use xlink:href="#ArialMT-63" transform="translate(789.208984 0)"/>
     <use xlink:href="#ArialMT-61" transform="translate(839.208984 0)"/>
     <use xlink:href="#ArialMT-64" transform="translate(894.824219 0)"/>
     <use xlink:href="#ArialMT-65" transform="translate(950.439453 0)"/>
    </g>
   </g>
   <g id="legend_1">
    <g id="patch_192">
     <path d="M 857.822 115.94425 
L 962.091 115.94425 
Q 965.611 115.94425 965.611 112.42425 
L 965.611 39.497 
Q 965.611 35.977 962.091 35.977 
L 857.822 35.977 
Q 854.302 35.977 854.302 39.497 
L 854.302 112.42425 
Q 854.302 115.94425 857.822 115.94425 
z
" style="fill: #ffffff; opacity: 0.8; stroke: #cccccc; stroke-width: 0.8; stroke-linejoin: miter"/>
    </g>
    <g id="patch_193">
     <path d="M 861.342 55.61475 
L 896.542 55.61475 
L 896.542 43.29475 
L 861.342 43.29475 
z
" style="fill: #1f77b4; opacity: 0.5; stroke: #ffffff; stroke-width: 0.8; stroke-linejoin: miter"/>
    </g>
    <g id="text_28">
     <!-- 2000s -->
     <g style="fill: #262626" transform="translate(910.622 55.61475) scale(0.176 -0.176)">
      <use xlink:href="#ArialMT-32"/>
      <use xlink:href="#ArialMT-30" transform="translate(55.615234 0)"/>
      <use xlink:href="#ArialMT-30" transform="translate(111.230469 0)"/>
      <use xlink:href="#ArialMT-30" transform="translate(166.845703 0)"/>
      <use xlink:href="#ArialMT-73" transform="translate(222.460938 0)"/>
     </g>
    </g>
    <g id="patch_194">
     <path d="M 861.342 80.5105 
L 896.542 80.5105 
L 896.542 68.1905 
L 861.342 68.1905 
z
" style="fill: #ff7f0e; opacity: 0.5; stroke: #ffffff; stroke-width: 0.8; stroke-linejoin: miter"/>
    </g>
    <g id="text_29">
     <!-- 2010s -->
     <g style="fill: #262626" transform="translate(910.622 80.5105) scale(0.176 -0.176)">
      <use xlink:href="#ArialMT-32"/>
      <use xlink:href="#ArialMT-30" transform="translate(55.615234 0)"/>
      <use xlink:href="#ArialMT-31" transform="translate(111.230469 0)"/>
      <use xlink:href="#ArialMT-30" transform="translate(166.845703 0)"/>
      <use xlink:href="#ArialMT-73" transform="translate(222.460938 0)"/>
     </g>
    </g>
    <g id="patch_195">
     <path d="M 861.342 105.40625 
L 896.542 105.40625 
L 896.542 93.08625 
L 861.342 93.08625 
z
" style="fill: #2ca02c; opacity: 0.5; stroke: #ffffff; stroke-width: 0.8; stroke-linejoin: miter"/>
    </g>
    <g id="text_30">
     <!-- 2020s -->
     <g style="fill: #262626" transform="translate(910.622 105.40625) scale(0.176 -0.176)">
      <use xlink:href="#ArialMT-32"/>
      <use xlink:href="#ArialMT-30" transform="translate(55.615234 0)"/>
      <use xlink:href="#ArialMT-32" transform="translate(111.230469 0)"/>
      <use xlink:href="#ArialMT-30" transform="translate(166.845703 0)"/>
      <use xlink:href="#ArialMT-73" transform="translate(222.460938 0)"/>
     </g>
    </g>
   </g>
  </g>
 </g>
 <defs>
  <clipPath id="pc9184dc6a4">
   <rect x="76.433" y="27.177" width="419.891" height="180.708"/>
  </clipPath>
  <clipPath id="pbc2398d41e">
   <rect x="554.52" y="27.177" width="419.891" height="180.708"/>
  </clipPath>
 </defs>
</svg>
