<?xml version="1.0" encoding="utf-8" standalone="no"?>
<!DOCTYPE svg PUBLIC "-//W3C//DTD SVG 1.1//EN"
  "http://www.w3.org/Graphics/SVG/1.1/DTD/svg11.dtd">
<svg xmlns:xlink="http://www.w3.org/1999/xlink" width="981.2515pt" height="260.76075pt" viewBox="0 0 981.2515 260.76075" xmlns="http://www.w3.org/2000/svg" version="1.1">
 <metadata>
  <rdf:RDF xmlns:dc="http://purl.org/dc/elements/1.1/" xmlns:cc="http://creativecommons.org/ns#" xmlns:rdf="http://www.w3.org/1999/02/22-rdf-syntax-ns#">
   <cc:Work>
    <dc:type rdf:resource="http://purl.org/dc/dcmitype/StillImage"/>
    <dc:date>2026-03-30T22:12:48.407728</dc:date>
    <dc:format>image/svg+xml</dc:format>
    <dc:creator>
     <cc:Agent>
      <dc:title>Matplotlib v3.10.8, https://matplotlib.org/</dc:title>
     </cc:Agent>
    </dc:creator>
   </cc:Work>
  </rdf:RDF>
 </metadata>
 <defs>
  <style type="text/css">*{stroke-linejoin: round; stroke-linecap: butt}</style>
 </defs>
 <g id="figure_1">
  <g id="patch_1">
   <path d="M 0 260.76075 
L 981.2515 260.76075 
L 981.2515 0 
L 0 0 
z
" style="fill: #ffffff"/>
  </g>
  <g id="axes_1">
   <g id="patch_2">
    <path d="M 56.6335 229.165 
L 974.0515 229.165 
L 974.0515 27.177 
L 56.6335 27.177 
z
" style="fill: #ffffff"/>
   </g>
   <g id="matplotlib.axis_1">
    <g id="xtick_1">
     <g id="line2d_1">
      <path d="M 56.6335 229.165 
L 56.6335 27.177 
" clip-path="url(#p1c512a5361)" style="fill: none; stroke: #cccccc; stroke-width: 0.8; stroke-linecap: round"/>
     </g>
     <g id="text_1">
      <!-- 2020 -->
      <g style="fill: #262626" transform="translate(37.059 250.06275) scale(0.176 -0.176)">
       <defs>
        <path id="ArialMT-32" d="M 3222 541 
L 3222 0 
L 194 0 
Q 188 203 259 391 
Q 375 700 629 1000 
Q 884 1300 1366 1694 
Q 2113 2306 2375 2664 
Q 2638 3022 2638 3341 
Q 2638 3675 2398 3904 
Q 2159 4134 1775 4134 
Q 1369 4134 1125 3890 
Q 881 3647 878 3216 
L 300 3275 
Q 359 3922 746 4261 
Q 1134 4600 1788 4600 
Q 2447 4600 2831 4234 
Q 3216 3869 3216 3328 
Q 3216 3053 3103 2787 
Q 2991 2522 2730 2228 
Q 2469 1934 1863 1422 
Q 1356 997 1212 845 
Q 1069 694 975 541 
L 3222 541 
z
" transform="scale(0.015625)"/>
        <path id="ArialMT-30" d="M 266 2259 
Q 266 3072 433 3567 
Q 600 4063 929 4331 
Q 1259 4600 1759 4600 
Q 2128 4600 2406 4451 
Q 2684 4303 2865 4023 
Q 3047 3744 3150 3342 
Q 3253 2941 3253 2259 
Q 3253 1453 3087 958 
Q 2922 463 2592 192 
Q 2263 -78 1759 -78 
Q 1097 -78 719 397 
Q 266 969 266 2259 
z
M 844 2259 
Q 844 1131 1108 757 
Q 1372 384 1759 384 
Q 2147 384 2411 759 
Q 2675 1134 2675 2259 
Q 2675 3391 2411 3762 
Q 2147 4134 1753 4134 
Q 1366 4134 1134 3806 
Q 844 3388 844 2259 
z
" transform="scale(0.015625)"/>
       </defs>
       <use xlink:href="#ArialMT-32"/>
       <use xlink:href="#ArialMT-30" transform="translate(55.615234 0)"/>
       <use xlink:href="#ArialMT-32" transform="translate(111.230469 0)"/>
       <use xlink:href="#ArialMT-30" transform="translate(166.845703 0)"/>
      </g>
     </g>
    </g>
    <g id="xtick_2">
     <g id="line2d_2">
      <path d="M 204.356768 229.165 
L 204.356768 27.177 
" clip-path="url(#p1c512a5361)" style="fill: none; stroke: #cccccc; stroke-width: 0.8; stroke-linecap: round"/>
     </g>
     <g id="text_2">
      <!-- 2021 -->
      <g style="fill: #262626" transform="translate(184.782268 250.06275) scale(0.176 -0.176)">
       <defs>
        <path id="ArialMT-31" d="M 2384 0 
L 1822 0 
L 1822 3584 
Q 1619 3391 1289 3197 
Q 959 3003 697 2906 
L 697 3450 
Q 1169 3672 1522 3987 
Q 1875 4303 2022 4600 
L 2384 4600 
L 2384 0 
z
" transform="scale(0.015625)"/>
       </defs>
       <use xlink:href="#ArialMT-32"/>
       <use xlink:href="#ArialMT-30" transform="translate(55.615234 0)"/>
       <use xlink:href="#ArialMT-32" transform="translate(111.230469 0)"/>
       <use xlink:href="#ArialMT-31" transform="translate(166.845703 0)"/>
      </g>
     </g>
    </g>
    <g id="xtick_3">
     <g id="line2d_3">
      <path d="M 351.67642 229.165 
L 351.67642 27.177 
" clip-path="url(#p1c512a5361)" style="fill: none; stroke: #cccccc; stroke-width: 0.8; stroke-linecap: round"/>
     </g>
     <g id="text_3">
      <!-- 2022 -->
      <g style="fill: #262626" transform="translate(332.10192 250.06275) scale(0.176 -0.176)">
       <use xlink:href="#ArialMT-32"/>
       <use xlink:href="#ArialMT-30" transform="translate(55.615234 0)"/>
       <use xlink:href="#ArialMT-32" transform="translate(111.230469 0)"/>
       <use xlink:href="#ArialMT-32" transform="translate(166.845703 0)"/>
      </g>
     </g>
    </g>
    <g id="xtick_4">
     <g id="line2d_4">
      <path d="M 498.996073 229.165 
L 498.996073 27.177 
" clip-path="url(#p1c512a5361)" style="fill: none; stroke: #cccccc; stroke-width: 0.8; stroke-linecap: round"/>
     </g>
     <g id="text_4">
      <!-- 2023 -->
      <g style="fill: #262626" transform="translate(479.421573 250.06275) scale(0.176 -0.176)">
       <defs>
        <path id="ArialMT-33" d="M 269 1209 
L 831 1284 
Q 928 806 1161 595 
Q 1394 384 1728 384 
Q 2125 384 2398 659 
Q 2672 934 2672 1341 
Q 2672 1728 2419 1979 
Q 2166 2231 1775 2231 
Q 1616 2231 1378 2169 
L 1441 2663 
Q 1497 2656 1531 2656 
Q 1891 2656 2178 2843 
Q 2466 3031 2466 3422 
Q 2466 3731 2256 3934 
Q 2047 4138 1716 4138 
Q 1388 4138 1169 3931 
Q 950 3725 888 3313 
L 325 3413 
Q 428 3978 793 4289 
Q 1159 4600 1703 4600 
Q 2078 4600 2393 4439 
Q 2709 4278 2876 4000 
Q 3044 3722 3044 3409 
Q 3044 3113 2884 2869 
Q 2725 2625 2413 2481 
Q 2819 2388 3044 2092 
Q 3269 1797 3269 1353 
Q 3269 753 2831 336 
Q 2394 -81 1725 -81 
Q 1122 -81 723 278 
Q 325 638 269 1209 
z
" transform="scale(0.015625)"/>
       </defs>
       <use xlink:href="#ArialMT-32"/>
       <use xlink:href="#ArialMT-30" transform="translate(55.615234 0)"/>
       <use xlink:href="#ArialMT-32" transform="translate(111.230469 0)"/>
       <use xlink:href="#ArialMT-33" transform="translate(166.845703 0)"/>
      </g>
     </g>
    </g>
    <g id="xtick_5">
     <g id="line2d_5">
      <path d="M 646.315725 229.165 
L 646.315725 27.177 
" clip-path="url(#p1c512a5361)" style="fill: none; stroke: #cccccc; stroke-width: 0.8; stroke-linecap: round"/>
     </g>
     <g id="text_5">
      <!-- 2024 -->
      <g style="fill: #262626" transform="translate(626.741225 250.06275) scale(0.176 -0.176)">
       <defs>
        <path id="ArialMT-34" d="M 2069 0 
L 2069 1097 
L 81 1097 
L 81 1613 
L 2172 4581 
L 2631 4581 
L 2631 1613 
L 3250 1613 
L 3250 1097 
L 2631 1097 
L 2631 0 
L 2069 0 
z
M 2069 1613 
L 2069 3678 
L 634 1613 
L 2069 1613 
z
" transform="scale(0.015625)"/>
       </defs>
       <use xlink:href="#ArialMT-32"/>
       <use xlink:href="#ArialMT-30" transform="translate(55.615234 0)"/>
       <use xlink:href="#ArialMT-32" transform="translate(111.230469 0)"/>
       <use xlink:href="#ArialMT-34" transform="translate(166.845703 0)"/>
      </g>
     </g>
    </g>
    <g id="xtick_6">
     <g id="line2d_6">
      <path d="M 794.038993 229.165 
L 794.038993 27.177 
" clip-path="url(#p1c512a5361)" style="fill: none; stroke: #cccccc; stroke-width: 0.8; stroke-linecap: round"/>
     </g>
     <g id="text_6">
      <!-- 2025 -->
      <g style="fill: #262626" transform="translate(774.464493 250.06275) scale(0.176 -0.176)">
       <defs>
        <path id="ArialMT-35" d="M 266 1200 
L 856 1250 
Q 922 819 1161 601 
Q 1400 384 1738 384 
Q 2144 384 2425 690 
Q 2706 997 2706 1503 
Q 2706 1984 2436 2262 
Q 2166 2541 1728 2541 
Q 1456 2541 1237 2417 
Q 1019 2294 894 2097 
L 366 2166 
L 809 4519 
L 3088 4519 
L 3088 3981 
L 1259 3981 
L 1013 2750 
Q 1425 3038 1878 3038 
Q 2478 3038 2890 2622 
Q 3303 2206 3303 1553 
Q 3303 931 2941 478 
Q 2500 -78 1738 -78 
Q 1113 -78 717 272 
Q 322 622 266 1200 
z
" transform="scale(0.015625)"/>
       </defs>
       <use xlink:href="#ArialMT-32"/>
       <use xlink:href="#ArialMT-30" transform="translate(55.615234 0)"/>
       <use xlink:href="#ArialMT-32" transform="translate(111.230469 0)"/>
       <use xlink:href="#ArialMT-35" transform="translate(166.845703 0)"/>
      </g>
     </g>
    </g>
    <g id="xtick_7">
     <g id="line2d_7">
      <path d="M 941.358646 229.165 
L 941.358646 27.177 
" clip-path="url(#p1c512a5361)" style="fill: none; stroke: #cccccc; stroke-width: 0.8; stroke-linecap: round"/>
     </g>
     <g id="text_7">
      <!-- 2026 -->
      <g style="fill: #262626" transform="translate(921.784146 250.06275) scale(0.176 -0.176)">
       <defs>
        <path id="ArialMT-36" d="M 3184 3459 
L 2625 3416 
Q 2550 3747 2413 3897 
Q 2184 4138 1850 4138 
Q 1581 4138 1378 3988 
Q 1113 3794 959 3422 
Q 806 3050 800 2363 
Q 1003 2672 1297 2822 
Q 1591 2972 1913 2972 
Q 2475 2972 2870 2558 
Q 3266 2144 3266 1488 
Q 3266 1056 3080 686 
Q 2894 316 2569 119 
Q 2244 -78 1831 -78 
Q 1128 -78 684 439 
Q 241 956 241 2144 
Q 241 3472 731 4075 
Q 1159 4600 1884 4600 
Q 2425 4600 2770 4297 
Q 3116 3994 3184 3459 
z
M 888 1484 
Q 888 1194 1011 928 
Q 1134 663 1356 523 
Q 1578 384 1822 384 
Q 2178 384 2434 671 
Q 2691 959 2691 1453 
Q 2691 1928 2437 2201 
Q 2184 2475 1800 2475 
Q 1419 2475 1153 2201 
Q 888 1928 888 1484 
z
" transform="scale(0.015625)"/>
       </defs>
       <use xlink:href="#ArialMT-32"/>
       <use xlink:href="#ArialMT-30" transform="translate(55.615234 0)"/>
       <use xlink:href="#ArialMT-32" transform="translate(111.230469 0)"/>
       <use xlink:href="#ArialMT-36" transform="translate(166.845703 0)"/>
      </g>
     </g>
    </g>
    <g id="xtick_8">
     <g id="line2d_8">
      <path d="M 974.0515 229.165 
L 974.0515 27.177 
" clip-path="url(#p1c512a5361)" style="fill: none; stroke: #cccccc; stroke-width: 0.8; stroke-linecap: round"/>
     </g>
    </g>
    <g id="xtick_9"/>
    <g id="xtick_10"/>
    <g id="xtick_11"/>
    <g id="xtick_12"/>
    <g id="xtick_13"/>
    <g id="xtick_14"/>
    <g id="xtick_15"/>
    <g id="xtick_16"/>
    <g id="xtick_17"/>
    <g id="xtick_18"/>
    <g id="xtick_19"/>
    <g id="xtick_20"/>
    <g id="xtick_21"/>
    <g id="xtick_22"/>
    <g id="xtick_23"/>
    <g id="xtick_24"/>
    <g id="xtick_25"/>
    <g id="xtick_26"/>
   </g>
   <g id="matplotlib.axis_2">
    <g id="ytick_1">
     <g id="line2d_9">
      <path d="M 56.6335 227.512931 
L 974.0515 227.512931 
" clip-path="url(#p1c512a5361)" style="fill: none; stroke: #cccccc; stroke-width: 0.8; stroke-linecap: round"/>
     </g>
     <g id="text_8">
      <!-- 0 -->
      <g style="fill: #262626" transform="translate(38.54625 233.811806) scale(0.176 -0.176)">
       <use xlink:href="#ArialMT-30"/>
      </g>
     </g>
    </g>
    <g id="ytick_2">
     <g id="line2d_10">
      <path d="M 56.6335 165.288107 
L 974.0515 165.288107 
" clip-path="url(#p1c512a5361)" style="fill: none; stroke: #cccccc; stroke-width: 0.8; stroke-linecap: round"/>
     </g>
     <g id="text_9">
      <!-- 10 -->
      <g style="fill: #262626" transform="translate(28.759 171.586982) scale(0.176 -0.176)">
       <use xlink:href="#ArialMT-31"/>
       <use xlink:href="#ArialMT-30" transform="translate(55.615234 0)"/>
      </g>
     </g>
    </g>
    <g id="ytick_3">
     <g id="line2d_11">
      <path d="M 56.6335 103.063284 
L 974.0515 103.063284 
" clip-path="url(#p1c512a5361)" style="fill: none; stroke: #cccccc; stroke-width: 0.8; stroke-linecap: round"/>
     </g>
     <g id="text_10">
      <!-- 20 -->
      <g style="fill: #262626" transform="translate(28.759 109.362159) scale(0.176 -0.176)">
       <use xlink:href="#ArialMT-32"/>
       <use xlink:href="#ArialMT-30" transform="translate(55.615234 0)"/>
      </g>
     </g>
    </g>
    <g id="ytick_4">
     <g id="line2d_12">
      <path d="M 56.6335 40.83846 
L 974.0515 40.83846 
" clip-path="url(#p1c512a5361)" style="fill: none; stroke: #cccccc; stroke-width: 0.8; stroke-linecap: round"/>
     </g>
     <g id="text_11">
      <!-- 30 -->
      <g style="fill: #262626" transform="translate(28.759 47.137335) scale(0.176 -0.176)">
       <use xlink:href="#ArialMT-33"/>
       <use xlink:href="#ArialMT-30" transform="translate(55.615234 0)"/>
      </g>
     </g>
    </g>
    <g id="text_12">
     <!-- USD / MMBtu -->
     <g style="fill: #262626" transform="translate(20.943 186.8435) rotate(-90) scale(0.192 -0.192)">
      <defs>
       <path id="ArialMT-55" d="M 3500 4581 
L 4106 4581 
L 4106 1934 
Q 4106 1244 3950 837 
Q 3794 431 3386 176 
Q 2978 -78 2316 -78 
Q 1672 -78 1262 144 
Q 853 366 678 786 
Q 503 1206 503 1934 
L 503 4581 
L 1109 4581 
L 1109 1938 
Q 1109 1341 1220 1058 
Q 1331 775 1601 622 
Q 1872 469 2263 469 
Q 2931 469 3215 772 
Q 3500 1075 3500 1938 
L 3500 4581 
z
" transform="scale(0.015625)"/>
       <path id="ArialMT-53" d="M 288 1472 
L 859 1522 
Q 900 1178 1048 958 
Q 1197 738 1509 602 
Q 1822 466 2213 466 
Q 2559 466 2825 569 
Q 3091 672 3220 851 
Q 3350 1031 3350 1244 
Q 3350 1459 3225 1620 
Q 3100 1781 2813 1891 
Q 2628 1963 1997 2114 
Q 1366 2266 1113 2400 
Q 784 2572 623 2826 
Q 463 3081 463 3397 
Q 463 3744 659 4045 
Q 856 4347 1234 4503 
Q 1613 4659 2075 4659 
Q 2584 4659 2973 4495 
Q 3363 4331 3572 4012 
Q 3781 3694 3797 3291 
L 3216 3247 
Q 3169 3681 2898 3903 
Q 2628 4125 2100 4125 
Q 1550 4125 1298 3923 
Q 1047 3722 1047 3438 
Q 1047 3191 1225 3031 
Q 1400 2872 2139 2705 
Q 2878 2538 3153 2413 
Q 3553 2228 3743 1945 
Q 3934 1663 3934 1294 
Q 3934 928 3725 604 
Q 3516 281 3123 101 
Q 2731 -78 2241 -78 
Q 1619 -78 1198 103 
Q 778 284 539 648 
Q 300 1013 288 1472 
z
" transform="scale(0.015625)"/>
       <path id="ArialMT-44" d="M 494 0 
L 494 4581 
L 2072 4581 
Q 2606 4581 2888 4516 
Q 3281 4425 3559 4188 
Q 3922 3881 4101 3404 
Q 4281 2928 4281 2316 
Q 4281 1794 4159 1391 
Q 4038 988 3847 723 
Q 3656 459 3429 307 
Q 3203 156 2883 78 
Q 2563 0 2147 0 
L 494 0 
z
M 1100 541 
L 2078 541 
Q 2531 541 2789 625 
Q 3047 709 3200 863 
Q 3416 1078 3536 1442 
Q 3656 1806 3656 2325 
Q 3656 3044 3420 3430 
Q 3184 3816 2847 3947 
Q 2603 4041 2063 4041 
L 1100 4041 
L 1100 541 
z
" transform="scale(0.015625)"/>
       <path id="ArialMT-20" transform="scale(0.015625)"/>
       <path id="ArialMT-2f" d="M 0 -78 
L 1328 4659 
L 1778 4659 
L 453 -78 
L 0 -78 
z
" transform="scale(0.015625)"/>
       <path id="ArialMT-4d" d="M 475 0 
L 475 4581 
L 1388 4581 
L 2472 1338 
Q 2622 884 2691 659 
Q 2769 909 2934 1394 
L 4031 4581 
L 4847 4581 
L 4847 0 
L 4263 0 
L 4263 3834 
L 2931 0 
L 2384 0 
L 1059 3900 
L 1059 0 
L 475 0 
z
" transform="scale(0.015625)"/>
       <path id="ArialMT-42" d="M 469 0 
L 469 4581 
L 2188 4581 
Q 2713 4581 3030 4442 
Q 3347 4303 3526 4014 
Q 3706 3725 3706 3409 
Q 3706 3116 3547 2856 
Q 3388 2597 3066 2438 
Q 3481 2316 3704 2022 
Q 3928 1728 3928 1328 
Q 3928 1006 3792 729 
Q 3656 453 3456 303 
Q 3256 153 2954 76 
Q 2653 0 2216 0 
L 469 0 
z
M 1075 2656 
L 2066 2656 
Q 2469 2656 2644 2709 
Q 2875 2778 2992 2937 
Q 3109 3097 3109 3338 
Q 3109 3566 3000 3739 
Q 2891 3913 2687 3977 
Q 2484 4041 1991 4041 
L 1075 4041 
L 1075 2656 
z
M 1075 541 
L 2216 541 
Q 2509 541 2628 563 
Q 2838 600 2978 687 
Q 3119 775 3209 942 
Q 3300 1109 3300 1328 
Q 3300 1584 3169 1773 
Q 3038 1963 2805 2039 
Q 2572 2116 2134 2116 
L 1075 2116 
L 1075 541 
z
" transform="scale(0.015625)"/>
       <path id="ArialMT-74" d="M 1650 503 
L 1731 6 
Q 1494 -44 1306 -44 
Q 1000 -44 831 53 
Q 663 150 594 308 
Q 525 466 525 972 
L 525 2881 
L 113 2881 
L 113 3319 
L 525 3319 
L 525 4141 
L 1084 4478 
L 1084 3319 
L 1650 3319 
L 1650 2881 
L 1084 2881 
L 1084 941 
Q 1084 700 1114 631 
Q 1144 563 1211 522 
Q 1278 481 1403 481 
Q 1497 481 1650 503 
z
" transform="scale(0.015625)"/>
       <path id="ArialMT-75" d="M 2597 0 
L 2597 488 
Q 2209 -75 1544 -75 
Q 1250 -75 995 37 
Q 741 150 617 320 
Q 494 491 444 738 
Q 409 903 409 1263 
L 409 3319 
L 972 3319 
L 972 1478 
Q 972 1038 1006 884 
Q 1059 663 1231 536 
Q 1403 409 1656 409 
Q 1909 409 2131 539 
Q 2353 669 2445 892 
Q 2538 1116 2538 1541 
L 2538 3319 
L 3100 3319 
L 3100 0 
L 2597 0 
z
" transform="scale(0.015625)"/>
      </defs>
      <use xlink:href="#ArialMT-55"/>
      <use xlink:href="#ArialMT-53" transform="translate(72.216797 0)"/>
      <use xlink:href="#ArialMT-44" transform="translate(138.916016 0)"/>
      <use xlink:href="#ArialMT-20" transform="translate(211.132812 0)"/>
      <use xlink:href="#ArialMT-2f" transform="translate(238.916016 0)"/>
      <use xlink:href="#ArialMT-20" transform="translate(266.699219 0)"/>
      <use xlink:href="#ArialMT-4d" transform="translate(294.482422 0)"/>
      <use xlink:href="#ArialMT-4d" transform="translate(377.783203 0)"/>
      <use xlink:href="#ArialMT-42" transform="translate(461.083984 0)"/>
      <use xlink:href="#ArialMT-74" transform="translate(527.783203 0)"/>
      <use xlink:href="#ArialMT-75" transform="translate(555.566406 0)"/>
     </g>
    </g>
   </g>
   <g id="line2d_13">
    <path d="M 56.6335 214.632392 
L 57.037115 214.756842 
L 58.651577 214.445718 
L 59.055193 214.010144 
L 59.458808 214.507943 
L 59.862424 214.756842 
L 61.07327 214.839809 
L 61.476886 214.881292 
L 61.880501 214.134594 
L 62.284117 215.005741 
L 62.687732 214.694617 
L 63.091348 214.632392 
L 64.70581 215.192416 
L 65.109425 215.752439 
L 65.513041 215.37909 
L 65.916656 215.62799 
L 67.127503 214.881292 
L 67.531118 215.316866 
L 67.934734 215.50354 
L 68.338349 215.441315 
L 68.741965 215.62799 
L 70.760042 215.752439 
L 71.163658 215.939114 
L 71.567273 215.50354 
L 72.778119 216.001339 
L 73.181735 216.001339 
L 73.988966 215.37909 
L 74.392581 215.50354 
L 76.007043 214.819067 
L 77.21789 215.316866 
L 78.832352 215.50354 
L 79.235967 215.316866 
L 79.639583 216.436912 
L 80.043198 216.374688 
L 81.254045 216.623587 
L 81.65766 216.436912 
L 82.464891 215.752439 
L 82.868507 216.561362 
L 84.079353 216.685812 
L 84.482969 215.62799 
L 84.886584 215.316866 
L 85.2902 216.188013 
L 85.693815 215.441315 
L 87.308277 215.752439 
L 87.711892 216.748036 
L 88.115508 217.059161 
L 88.519123 216.561362 
L 89.72997 216.934711 
L 90.133585 216.748036 
L 90.537201 216.312463 
L 90.940816 216.748036 
L 91.748047 217.038419 
L 92.555278 217.245835 
L 92.958894 216.872486 
L 93.362509 216.996936 
L 93.766125 217.868083 
L 94.16974 218.179207 
L 95.380587 217.30806 
L 95.784202 216.125788 
L 96.187818 215.939114 
L 96.591433 216.685812 
L 98.205895 215.939114 
L 99.416742 217.619184 
L 99.820357 216.872486 
L 101.031203 216.436912 
L 101.434819 215.565765 
L 101.838434 215.690214 
L 103.856512 217.059161 
L 104.260127 216.312463 
L 104.663743 216.748036 
L 105.067358 217.370285 
L 105.470974 216.996936 
L 106.68182 216.436912 
L 107.085436 215.50354 
L 107.489051 215.690214 
L 107.892667 216.063563 
L 108.296282 216.685812 
L 109.507129 216.934711 
L 109.910744 217.494734 
L 110.31436 217.805858 
L 112.332437 216.499137 
L 112.736053 216.001339 
L 113.139668 216.125788 
L 113.543284 216.623587 
L 113.946899 216.934711 
L 115.561361 216.374688 
L 115.964976 216.436912 
L 116.368592 216.374688 
L 116.772207 216.934711 
L 117.983054 217.619184 
L 118.386669 217.681409 
L 118.790285 216.063563 
L 119.1939 217.059161 
L 119.597516 216.312463 
L 120.808362 217.059161 
L 121.211978 217.059161 
L 122.019209 216.499137 
L 122.422824 217.121385 
L 123.633671 217.30806 
L 124.037286 218.614781 
L 124.440902 217.868083 
L 125.248133 218.241432 
L 126.458979 217.30806 
L 126.862595 217.494734 
L 127.26621 217.30806 
L 128.073441 218.677006 
L 129.687903 216.561362 
L 130.091518 216.996936 
L 130.495134 217.681409 
L 132.916827 216.436912 
L 133.320442 215.814664 
L 133.724058 216.374688 
L 135.33852 216.685812 
L 136.549366 216.374688 
L 137.760213 216.872486 
L 138.163828 217.18361 
L 138.567444 216.996936 
L 138.971059 216.623587 
L 140.181906 216.167271 
L 140.585521 216.001339 
L 140.989137 216.125788 
L 141.392752 216.499137 
L 143.41083 215.37909 
L 143.814445 214.632392 
L 144.21806 213.636795 
L 144.621676 213.450121 
L 145.025291 214.134594 
L 146.639753 213.885695 
L 147.043369 214.756842 
L 147.446984 213.885695 
L 148.657831 213.263446 
L 149.061446 213.076772 
L 149.465062 212.267849 
L 149.868677 212.392299 
L 150.272293 212.890097 
L 151.079524 212.267849 
L 151.886755 211.521151 
L 152.693986 211.832275 
L 153.097601 211.832275 
L 155.519294 214.134594 
L 155.92291 213.076772 
L 156.326525 216.312463 
L 157.940987 212.890097 
L 158.344603 213.761245 
L 158.748218 214.259043 
L 159.151833 215.50354 
L 160.36268 213.947919 
L 160.766295 213.885695 
L 161.169911 214.694617 
L 161.573526 217.245835 
L 162.784373 218.759972 
L 163.187988 219.237029 
L 163.591604 218.241432 
L 164.398835 215.50354 
L 165.609681 215.980597 
L 166.013297 216.125788 
L 166.820528 217.18361 
L 167.224143 217.556959 
L 167.627759 218.739231 
L 168.838605 215.565765 
L 169.242221 215.939114 
L 169.645836 215.005741 
L 170.049452 218.241432 
L 170.453067 213.512346 
L 171.663914 213.138997 
L 172.471145 214.943517 
L 172.87476 213.636795 
L 173.278375 214.072369 
L 174.489222 213.201221 
L 174.892837 211.521151 
L 175.296453 209.156608 
L 175.700068 208.907709 
L 176.103684 209.405507 
L 177.31453 207.974336 
L 177.718146 208.40991 
L 178.121761 207.974336 
L 178.525377 208.472135 
L 178.928992 208.658809 
L 180.139839 208.658809 
L 180.543454 209.592182 
L 180.94707 211.147802 
L 181.350685 210.774453 
L 182.561532 211.064836 
L 182.965147 211.147802 
L 183.368763 210.463329 
L 183.772378 210.401104 
L 184.175994 210.027755 
L 184.579609 209.965531 
L 186.194071 211.645601 
L 187.001302 213.885695 
L 187.404918 213.69902 
L 188.615764 213.636795 
L 189.019379 212.143399 
L 189.422995 212.143399 
L 191.441072 209.529957 
L 191.844688 209.529957 
L 192.248303 210.401104 
L 192.651919 212.205624 
L 193.055534 212.081175 
L 194.669996 212.827873 
L 195.073612 212.267849 
L 195.477227 212.267849 
L 195.880843 211.707826 
L 197.091689 210.774453 
L 197.495305 211.147802 
L 197.89892 210.525554 
L 198.302536 210.712229 
L 198.706151 210.525554 
L 199.916998 210.836678 
L 200.320613 210.33888 
L 200.724229 210.33888 
L 202.33869 212.190068 
L 202.742306 212.641198 
L 203.145921 212.578973 
L 203.549537 212.827873 
L 203.953152 212.641198 
L 205.567614 211.334477 
L 205.97123 210.276655 
L 206.374845 210.33888 
L 206.778461 210.027755 
L 207.585692 210.401104 
L 208.392923 210.650004 
L 208.796538 209.529957 
L 209.200154 209.965531 
L 209.603769 209.965531 
L 210.007385 209.716631 
L 211.621847 211.023353 
L 212.429078 212.01895 
L 212.832693 212.267849 
L 214.04354 211.147802 
L 214.447155 210.525554 
L 214.850771 210.276655 
L 215.254386 210.33888 
L 215.658002 210.836678 
L 216.868848 209.592182 
L 217.272463 207.352088 
L 217.676079 208.783259 
L 218.079694 208.907709 
L 218.48331 205.796467 
L 219.694156 206.356491 
L 220.097772 206.667615 
L 220.501387 204.116397 
L 220.905003 187.066796 
L 221.308618 189.431339 
L 222.92308 157.074431 
L 223.326696 79.044502 
L 223.730311 174.248482 
L 224.133927 196.649418 
L 225.344773 207.849887 
L 225.748389 209.218833 
L 226.152004 210.08998 
L 226.959235 210.961128 
L 228.170082 210.712229 
L 228.573697 209.654407 
L 228.977313 209.716631 
L 229.784544 210.587779 
L 230.99539 210.898903 
L 231.399005 211.210027 
L 231.802621 211.210027 
L 232.206236 210.712229 
L 232.609852 211.023353 
L 233.820698 211.458926 
L 234.224314 211.956725 
L 234.627929 211.334477 
L 235.031545 212.267849 
L 235.43516 211.770051 
L 237.453238 211.583376 
L 237.856853 211.832275 
L 238.260469 211.832275 
L 239.471315 211.458926 
L 240.278546 211.832275 
L 240.682162 211.832275 
L 242.296624 212.392299 
L 242.700239 212.330074 
L 243.103855 212.392299 
L 243.50747 212.143399 
L 245.121932 211.956725 
L 245.929163 211.023353 
L 246.332778 211.210027 
L 246.736394 211.147802 
L 247.94724 210.401104 
L 248.350856 210.33888 
L 248.754471 210.587779 
L 249.158087 210.276655 
L 249.561702 210.152205 
L 250.772549 210.525554 
L 251.176164 209.405507 
L 251.57978 208.969933 
L 252.387011 209.716631 
L 254.001473 208.845484 
L 254.405088 208.907709 
L 254.808704 209.467732 
L 255.615935 209.405507 
L 256.423166 209.281058 
L 256.826781 209.405507 
L 257.230397 209.405507 
L 257.634012 209.156608 
L 258.441243 209.073642 
L 259.248474 208.907709 
L 259.65209 209.094383 
L 260.055705 209.592182 
L 262.073782 210.21443 
L 262.477398 209.654407 
L 262.881013 209.405507 
L 263.284629 209.778856 
L 263.688244 209.405507 
L 265.302706 208.721034 
L 265.706322 208.28546 
L 266.109937 208.783259 
L 266.917168 208.845484 
L 267.724399 208.969933 
L 268.128015 208.161011 
L 268.53163 208.036561 
L 268.935246 208.036561 
L 269.338861 207.414313 
L 270.549708 206.60539 
L 271.356939 207.289863 
L 272.567785 207.580246 
L 273.375016 207.912111 
L 273.778632 207.538763 
L 274.182247 206.60539 
L 274.585863 206.978739 
L 275.393093 205.900176 
L 276.200324 204.987545 
L 276.60394 204.178622 
L 277.007555 203.929723 
L 277.411171 204.116397 
L 277.814786 204.676421 
L 279.429248 204.614196 
L 279.832864 204.738645 
L 280.236479 205.360894 
L 280.640095 204.427521 
L 281.850941 204.489746 
L 282.254557 203.991948 
L 282.658172 203.867498 
L 283.061788 204.614196 
L 284.67625 204.178622 
L 285.079865 203.743048 
L 285.483481 202.99635 
L 286.290712 201.938528 
L 287.501558 202.062978 
L 287.905174 201.689629 
L 288.712405 202.436327 
L 289.11602 202.99635 
L 290.730482 202.249653 
L 291.134097 201.378505 
L 291.537713 200.942931 
L 291.941328 201.31628 
L 293.152175 201.129606 
L 293.55579 201.876304 
L 293.959406 202.187428 
L 294.363021 202.000753 
L 294.766637 202.934126 
L 296.381099 203.1208 
L 296.784714 203.494149 
L 297.18833 203.680823 
L 297.591945 202.99635 
L 298.802792 203.058575 
L 299.206407 202.934126 
L 299.610023 202.436327 
L 300.013638 202.187428 
L 300.417254 200.445133 
L 301.6281 201.067381 
L 302.031716 200.569582 
L 302.435331 199.822884 
L 302.838947 198.578388 
L 303.242562 197.83169 
L 304.857024 198.205039 
L 305.260639 198.516163 
L 305.664255 196.587194 
L 306.06787 195.591596 
L 307.278717 195.093798 
L 307.682332 193.973751 
L 308.085948 192.293681 
L 308.489563 193.164828 
L 308.893179 194.409325 
L 310.104025 194.844899 
L 310.507641 196.649418 
L 310.911256 196.898318 
L 311.314872 196.773868 
L 312.525718 193.994493 
L 312.929334 193.102603 
L 313.332949 190.551386 
L 314.14018 192.791479 
L 314.543796 192.604805 
L 315.754642 191.422533 
L 316.158258 187.875718 
L 316.965489 191.982557 
L 317.369104 193.538177 
L 318.579951 193.538177 
L 318.983566 194.284875 
L 319.387181 192.915929 
L 319.790797 190.675835 
L 320.194412 193.662627 
L 321.405259 196.338294 
L 321.808874 197.582791 
L 322.616105 196.773868 
L 323.423336 194.492291 
L 324.230567 191.920332 
L 324.634183 192.729255 
L 325.037798 190.73806 
L 325.845029 193.351503 
L 327.055876 195.031573 
L 327.459491 194.3471 
L 327.863107 192.729255 
L 328.266722 191.858107 
L 328.670338 193.227053 
L 329.881184 193.102603 
L 330.688415 199.138411 
L 331.092031 197.582791 
L 331.495646 196.587194 
L 332.706493 197.83169 
L 333.110108 195.716046 
L 333.513723 197.520566 
L 333.917339 196.711643 
L 334.320954 197.022767 
L 335.531801 197.458341 
L 335.935416 196.711643 
L 336.742647 196.873428 
L 338.357109 197.022767 
L 338.760725 199.387311 
L 339.567956 202.125203 
L 339.971571 203.929723 
L 341.586033 205.111994 
L 341.989649 203.929723 
L 342.393264 204.676421 
L 342.79688 204.80087 
L 344.007726 202.311877 
L 344.411342 204.427521 
L 344.814957 203.929723 
L 345.218573 204.676421 
L 345.622188 204.427521 
L 347.23665 202.871901 
L 347.640266 202.934126 
L 348.043881 205.360894 
L 349.658343 206.045367 
L 350.061958 206.854289 
L 350.465574 206.356491 
L 350.869189 203.743048 
L 351.272805 203.743048 
L 352.887267 204.303072 
L 353.290882 203.991948 
L 353.694498 202.99635 
L 354.098113 203.680823 
L 355.30896 201.627404 
L 355.712575 201.627404 
L 356.116191 198.765062 
L 356.519806 197.769465 
L 356.923422 200.320683 
L 358.537884 199.200636 
L 358.941499 197.084992 
L 359.74873 201.938528 
L 361.363192 201.129606 
L 361.766808 199.947334 
L 362.170423 199.947334 
L 362.574038 192.107006 
L 363.784885 192.915929 
L 364.1885 193.600402 
L 364.592116 185.822299 
L 364.995731 191.173634 
L 365.399347 194.284875 
L 366.610193 199.885109 
L 367.82104 202.436327 
L 369.031886 202.332619 
L 369.435502 202.311877 
L 369.839117 200.694032 
L 370.242733 200.196233 
L 370.646348 199.076187 
L 371.049964 198.827287 
L 372.664426 199.63621 
L 373.068041 198.951737 
L 373.471657 197.769465 
L 373.875272 198.702838 
L 375.086119 199.76066 
L 375.489734 200.382908 
L 375.89335 198.578388 
L 376.296965 198.702838 
L 376.700581 198.018365 
L 377.911427 196.836093 
L 378.315042 198.827287 
L 378.718658 199.200636 
L 379.122273 198.578388 
L 379.525889 197.70724 
L 380.736735 198.951737 
L 381.140351 199.76066 
L 381.543966 198.391713 
L 381.947582 197.645016 
L 382.351197 197.209442 
L 383.562044 197.83169 
L 384.369275 194.782674 
L 384.77289 195.218247 
L 385.176506 193.227053 
L 386.387352 193.164828 
L 386.790968 194.409325 
L 387.194583 194.409325 
L 387.598199 193.538177 
L 388.001814 193.724852 
L 389.212661 191.920332 
L 389.616276 190.489161 
L 390.019892 188.373517 
L 390.423507 189.866913 
L 390.827123 187.813493 
L 392.037969 188.000168 
L 392.441584 186.506772 
L 392.8452 185.946749 
L 393.248815 184.328903 
L 394.863277 180.968763 
L 395.266893 181.217662 
L 396.074124 184.702252 
L 396.477739 186.506772 
L 397.688586 187.564594 
L 398.092201 184.640027 
L 398.495817 184.515578 
L 398.899432 184.142229 
L 399.303048 184.951152 
L 400.513894 182.08881 
L 401.321125 175.866327 
L 401.724741 175.119629 
L 402.128356 175.555203 
L 403.339203 177.359723 
L 403.742818 185.324501 
L 404.146434 180.657639 
L 404.550049 182.399934 
L 404.953665 179.288693 
L 406.164511 177.297498 
L 406.568126 176.115227 
L 406.971742 174.435156 
L 407.778973 177.919746 
L 408.989819 176.737475 
L 409.79705 168.772697 
L 410.200666 170.328318 
L 410.604281 175.866327 
L 412.218743 174.87073 
L 412.622359 174.808505 
L 413.025974 172.132838 
L 413.42959 175.617428 
L 415.044052 169.768295 
L 415.447667 168.834922 
L 415.851283 176.737475 
L 416.254898 172.879536 
L 417.465745 171.51059 
L 417.86936 179.724266 
L 418.272976 179.475367 
L 418.676591 178.47977 
L 419.080207 181.653236 
L 420.694668 186.444547 
L 421.098284 185.44895 
L 421.501899 186.817896 
L 421.905515 191.422533 
L 423.116361 189.618013 
L 423.519977 186.071198 
L 423.923592 185.884524 
L 424.327208 186.817896 
L 424.730823 191.733657 
L 426.345285 191.920332 
L 426.748901 192.355906 
L 427.152516 191.235859 
L 427.556132 187.689044 
L 428.766978 185.075601 
L 429.170594 185.137826 
L 429.574209 185.946749 
L 429.977825 184.577803 
L 430.38144 186.444547 
L 431.592287 179.910941 
L 431.995902 181.777686 
L 432.399518 180.346515 
L 432.803133 177.795297 
L 433.206749 176.177451 
L 434.417595 174.497381 
L 434.821211 168.648248 
L 435.224826 173.688458 
L 435.628441 173.06621 
L 436.032057 175.679653 
L 437.242903 176.488576 
L 438.050134 178.915344 
L 438.45375 175.244079 
L 438.857365 175.866327 
L 440.068212 179.226468 
L 440.471827 178.541995 
L 440.875443 178.60422 
L 441.279058 174.435156 
L 441.682674 173.19066 
L 442.89352 173.875133 
L 443.297136 169.768295 
L 443.700751 168.337124 
L 444.104367 168.897147 
L 444.507982 170.639442 
L 445.718829 166.22148 
L 446.122444 166.843728 
L 446.52606 169.830519 
L 446.929675 168.586023 
L 447.333291 168.523798 
L 448.544137 170.017194 
L 449.351368 171.946163 
L 449.754984 169.146046 
L 450.562214 171.417252 
L 451.773061 174.497381 
L 452.176676 176.986374 
L 452.580292 176.053002 
L 452.983907 175.804102 
L 454.194754 176.488576 
L 455.001985 173.377334 
L 455.4056 173.999583 
L 455.809216 177.048599 
L 457.020062 177.981971 
L 457.423678 177.670847 
L 457.827293 177.795297 
L 458.230909 179.226468 
L 458.634524 185.511175 
L 459.845371 185.511175 
L 460.248986 185.013376 
L 460.652602 186.506772 
L 461.056217 186.631222 
L 461.459833 187.689044 
L 463.074295 193.911526 
L 463.47791 191.173634 
L 463.881526 184.515578 
L 464.285141 188.622416 
L 465.899603 188.93354 
L 466.303218 186.444547 
L 466.706834 188.622416 
L 467.110449 189.555789 
L 468.321296 189.680238 
L 468.724911 189.18244 
L 469.935758 199.822884 
L 471.146604 197.582791 
L 471.55022 195.342697 
L 471.953835 194.658224 
L 472.357451 194.533774 
L 472.761066 196.276069 
L 473.971913 196.276069 
L 474.375528 199.076187 
L 474.779144 199.013962 
L 475.182759 198.578388 
L 475.586375 202.623001 
L 476.797221 198.765062 
L 477.604452 205.983142 
L 478.008068 197.645016 
L 478.411683 197.645016 
L 479.622529 188.684641 
L 480.026145 190.800285 
L 480.42976 190.924735 
L 480.833376 188.93354 
L 481.236991 189.555789 
L 482.851453 188.497967 
L 483.255069 186.631222 
L 484.0623 186.631222 
L 485.273146 190.178037 
L 485.676762 189.991362 
L 486.080377 183.955554 
L 486.483993 188.124618 
L 486.887608 196.898318 
L 488.098455 201.689629 
L 488.50207 199.013962 
L 488.905686 199.573985 
L 489.309301 197.70724 
L 489.712917 196.524969 
L 491.327379 182.711058 
L 491.730994 186.817896 
L 492.13461 185.200051 
L 493.749071 189.680238 
L 494.152687 194.658224 
L 494.959918 183.333306 
L 495.363533 183.022182 
L 496.977995 197.147217 
L 497.381611 202.249653 
L 498.188842 205.609793 
L 499.803304 204.863095 
L 500.206919 204.178622 
L 500.610535 203.991948 
L 501.01415 206.169816 
L 502.224997 204.80087 
L 502.628612 206.854289 
L 503.435843 205.920917 
L 503.839459 206.169816 
L 505.453921 206.169816 
L 506.261152 209.405507 
L 506.664767 207.912111 
L 507.875614 206.169816 
L 508.279229 206.667615 
L 508.682844 208.28546 
L 509.08646 210.587779 
L 509.490075 209.903306 
L 510.700922 209.965531 
L 511.104537 211.023353 
L 511.508153 211.023353 
L 511.911768 210.898903 
L 512.315384 212.578973 
L 513.52623 214.010144 
L 513.929846 212.890097 
L 514.333461 212.578973 
L 514.737077 212.578973 
L 515.140692 212.765648 
L 517.562385 212.081175 
L 517.966001 213.325671 
L 519.984078 214.632392 
L 520.387694 214.010144 
L 520.791309 212.827873 
L 522.002156 211.645601 
L 522.405771 211.956725 
L 523.213002 210.898903 
L 523.616617 210.961128 
L 524.827464 212.205624 
L 525.231079 211.832275 
L 525.634695 211.956725 
L 526.03831 211.956725 
L 526.441926 212.578973 
L 527.652772 212.578973 
L 528.056388 211.023353 
L 528.460003 212.267849 
L 528.863619 212.267849 
L 529.267234 212.454524 
L 530.478081 213.636795 
L 530.881696 215.50354 
L 531.285312 214.881292 
L 531.688927 214.570168 
L 532.092543 214.819067 
L 533.303389 214.819067 
L 533.707005 214.943517 
L 534.11062 215.441315 
L 534.514236 215.37909 
L 534.917851 214.445718 
L 536.128698 214.507943 
L 536.935929 214.010144 
L 537.743159 213.994588 
L 538.954006 214.134594 
L 539.761237 213.69902 
L 540.568468 215.876889 
L 541.779314 213.761245 
L 542.18293 213.636795 
L 542.586545 213.82347 
L 542.990161 213.885695 
L 543.797392 213.844211 
L 544.604623 213.885695 
L 545.008238 213.761245 
L 545.815469 214.010144 
L 546.219085 213.387896 
L 547.429931 213.57457 
L 548.237162 215.005741 
L 548.640778 215.316866 
L 549.044393 216.001339 
L 550.658855 213.69902 
L 551.062471 214.321268 
L 551.466086 214.632392 
L 551.869701 215.192416 
L 553.080548 213.512346 
L 553.484163 213.325671 
L 553.887779 213.512346 
L 554.69501 212.765648 
L 555.905856 213.201221 
L 556.309472 213.69902 
L 556.713087 213.512346 
L 557.116703 213.636795 
L 557.520318 215.814664 
L 559.13478 214.383493 
L 559.538396 214.445718 
L 559.942011 216.499137 
L 560.345627 216.685812 
L 561.556473 215.565765 
L 561.960089 215.37909 
L 562.363704 214.259043 
L 562.76732 214.445718 
L 563.170935 216.001339 
L 564.381782 215.690214 
L 564.785397 215.067966 
L 565.189013 214.756842 
L 565.592628 213.947919 
L 565.996244 214.259043 
L 567.610705 212.703423 
L 568.014321 213.57457 
L 568.417936 213.387896 
L 568.821552 213.69902 
L 570.032398 211.210027 
L 570.436014 210.836678 
L 570.839629 210.650004 
L 571.243245 212.578973 
L 571.64686 212.081175 
L 572.857707 212.081175 
L 573.664938 211.023353 
L 574.068553 211.956725 
L 574.472169 212.01895 
L 576.086631 211.521151 
L 576.490246 211.645601 
L 576.893862 211.956725 
L 577.701093 212.039691 
L 578.508324 212.205624 
L 578.911939 211.832275 
L 579.315555 211.8945 
L 579.71917 211.272252 
L 580.122786 211.272252 
L 581.333632 210.836678 
L 581.737247 210.961128 
L 582.140863 211.334477 
L 582.544478 212.143399 
L 582.948094 211.770051 
L 584.15894 211.458926 
L 584.966171 212.392299 
L 585.369787 212.330074 
L 585.773402 211.770051 
L 586.984249 211.023353 
L 587.79148 209.343282 
L 588.195095 209.903306 
L 588.598711 211.272252 
L 589.809557 210.463329 
L 590.616788 211.645601 
L 591.020404 211.583376 
L 591.424019 212.330074 
L 592.634866 211.334477 
L 593.038481 211.458926 
L 593.442097 211.334477 
L 593.845712 212.454524 
L 595.460174 211.334477 
L 595.863789 211.956725 
L 596.267405 212.081175 
L 596.67102 211.583376 
L 597.074636 210.712229 
L 598.689098 211.334477 
L 599.092713 212.01895 
L 599.496329 212.267849 
L 599.899944 211.770051 
L 601.110791 211.956725 
L 601.514406 210.587779 
L 602.321637 210.027755 
L 604.339715 212.205624 
L 604.74333 210.21443 
L 605.550561 211.147802 
L 606.761408 211.147802 
L 607.165023 211.645601 
L 607.568639 210.587779 
L 607.972254 210.463329 
L 608.37587 210.836678 
L 609.990332 210.650004 
L 610.393947 209.343282 
L 610.797562 209.343282 
L 611.201178 206.978739 
L 612.81564 206.72984 
L 613.219255 207.663212 
L 613.622871 207.849887 
L 615.237333 208.969933 
L 616.448179 209.841081 
L 616.851795 211.334477 
L 618.062641 211.023353 
L 618.466257 209.778856 
L 619.273488 209.654407 
L 619.677103 207.352088 
L 620.88795 207.787662 
L 621.291565 206.72984 
L 621.695181 207.663212 
L 622.098796 208.098786 
L 622.906027 209.44699 
L 623.713258 210.650004 
L 624.116874 215.067966 
L 624.520489 213.947919 
L 624.924104 210.650004 
L 625.32772 210.650004 
L 626.538566 211.272252 
L 626.942182 210.774453 
L 627.345797 209.592182 
L 627.749413 209.405507 
L 628.153028 211.210027 
L 629.363875 212.01895 
L 629.76749 211.147802 
L 630.171106 210.587779 
L 631.785568 210.504812 
L 632.189183 210.463329 
L 632.592799 210.21443 
L 632.996414 210.712229 
L 633.40003 210.401104 
L 633.803645 211.147802 
L 635.014492 211.645601 
L 635.418107 210.587779 
L 635.821723 210.33888 
L 636.225338 211.832275 
L 636.628954 211.521151 
L 637.8398 212.641198 
L 638.243416 212.765648 
L 638.647031 213.014547 
L 639.857877 212.01895 
L 640.665108 211.396702 
L 641.068724 212.330074 
L 641.472339 212.081175 
L 641.875955 212.081175 
L 642.27957 211.707826 
L 643.894032 211.956725 
L 644.297648 211.147802 
L 644.701263 211.645601 
L 645.104879 211.458926 
L 647.122956 211.521151 
L 647.526572 209.903306 
L 647.930187 210.401104 
L 649.141034 210.587779 
L 649.544649 207.289863 
L 649.948265 207.289863 
L 650.35188 207.912111 
L 650.755496 145.376164 
L 652.369958 207.289863 
L 652.773573 209.716631 
L 653.177189 209.592182 
L 653.580804 210.712229 
L 654.79165 212.890097 
L 655.195266 214.134594 
L 655.598881 212.267849 
L 656.002497 211.583376 
L 656.406112 212.827873 
L 657.616959 212.516748 
L 658.020574 213.450121 
L 658.42419 213.885695 
L 658.827805 214.134594 
L 659.231421 215.005741 
L 660.442267 214.321268 
L 660.845883 214.445718 
L 661.653114 216.685812 
L 662.86396 216.602845 
L 663.267576 216.561362 
L 663.671191 217.494734 
L 664.074807 218.116983 
L 664.882038 217.868083 
L 666.4965 218.179207 
L 666.900115 217.681409 
L 667.303731 217.43251 
L 667.707346 218.054758 
L 668.918192 217.245835 
L 669.321808 218.054758 
L 670.129039 217.121385 
L 670.532654 218.365882 
L 671.743501 218.303657 
L 672.147116 218.116983 
L 672.550732 217.121385 
L 672.954347 217.805858 
L 673.357963 217.930308 
L 674.568809 217.930308 
L 674.972425 217.743634 
L 675.37604 219.734828 
L 675.779656 219.672603 
L 676.183271 218.925905 
L 677.394118 217.930308 
L 677.797733 217.868083 
L 678.201349 217.681409 
L 678.604964 217.868083 
L 679.00858 218.179207 
L 680.219426 218.428107 
L 680.623042 218.303657 
L 681.026657 218.614781 
L 681.430273 217.930308 
L 683.44835 217.245835 
L 683.851965 215.939114 
L 684.255581 216.436912 
L 684.659196 217.681409 
L 685.870043 216.748036 
L 686.677274 215.690214 
L 687.484505 219.050355 
L 688.695351 218.739231 
L 689.098967 218.925905 
L 689.906198 217.619184 
L 690.309813 218.614781 
L 691.52066 217.30806 
L 691.924275 217.619184 
L 692.327891 217.556959 
L 692.731506 218.428107 
L 693.135122 218.801456 
L 694.345968 217.868083 
L 694.749584 217.059161 
L 695.153199 217.370285 
L 695.556815 217.18361 
L 695.96043 217.121385 
L 697.978507 215.005741 
L 698.382123 214.881292 
L 698.785738 214.196819 
L 699.996585 214.383493 
L 700.4002 214.196819 
L 700.803816 214.321268 
L 701.207431 213.076772 
L 701.611047 212.330074 
L 702.821893 211.832275 
L 703.629124 211.8945 
L 704.03274 211.085577 
L 704.436355 213.69902 
L 706.050817 213.263446 
L 706.454433 213.82347 
L 706.858048 215.876889 
L 707.261664 216.436912 
L 708.47251 211.645601 
L 708.876126 211.458926 
L 709.279741 213.387896 
L 709.683357 213.201221 
L 710.086972 212.205624 
L 711.297819 211.272252 
L 712.105049 210.08998 
L 712.508665 210.152205 
L 712.91228 210.463329 
L 714.526742 212.392299 
L 715.333973 212.641198 
L 716.948435 211.458926 
L 717.352051 211.272252 
L 717.755666 212.267849 
L 718.159282 211.645601 
L 718.562897 212.454524 
L 719.773744 213.761245 
L 720.177359 214.694617 
L 720.580975 214.943517 
L 721.388206 214.943517 
L 722.599052 214.445718 
L 723.002668 212.454524 
L 723.406283 212.578973 
L 723.809899 213.636795 
L 724.213514 214.010144 
L 725.827976 214.445718 
L 726.231592 215.192416 
L 726.635207 215.067966 
L 727.038822 215.814664 
L 728.249669 213.885695 
L 728.653284 214.259043 
L 729.0569 215.067966 
L 729.460515 215.067966 
L 730.671362 215.524282 
L 731.074977 215.690214 
L 731.478593 216.250238 
L 731.882208 215.441315 
L 732.285824 215.37909 
L 732.689439 215.752439 
L 733.900286 216.125788 
L 734.303901 216.125788 
L 734.707517 215.316866 
L 735.111132 216.001339 
L 735.514748 215.441315 
L 737.12921 214.072369 
L 737.936441 213.885695 
L 738.340056 215.005741 
L 739.550903 214.321268 
L 739.954518 213.947919 
L 740.358134 214.196819 
L 740.761749 215.50354 
L 741.165364 216.188013 
L 742.376211 214.259043 
L 742.779826 215.62799 
L 743.183442 215.752439 
L 743.587057 216.001339 
L 743.990673 215.50354 
L 745.605135 215.50354 
L 746.00875 214.756842 
L 746.412366 214.943517 
L 746.815981 214.507943 
L 748.026828 214.881292 
L 748.430443 214.259043 
L 749.237674 214.259043 
L 749.64129 213.512346 
L 750.852136 213.636795 
L 751.255752 213.014547 
L 751.659367 213.138997 
L 752.062983 213.57457 
L 752.466598 213.82347 
L 753.677445 212.578973 
L 754.08106 211.272252 
L 754.888291 211.085577 
L 755.291907 211.770051 
L 756.906368 210.898903 
L 757.309984 210.276655 
L 757.713599 210.401104 
L 758.117215 212.01895 
L 759.731677 211.8945 
L 760.135292 212.392299 
L 760.538908 213.450121 
L 760.942523 213.138997 
L 762.556985 212.765648 
L 762.960601 213.761245 
L 763.364216 213.885695 
L 763.767832 216.188013 
L 764.978678 216.561362 
L 765.382294 216.561362 
L 766.189525 214.819067 
L 766.59314 215.50354 
L 767.803987 214.881292 
L 768.207602 216.188013 
L 768.611218 214.881292 
L 769.014833 216.188013 
L 769.418449 218.677006 
L 770.629295 219.11258 
L 771.03291 217.43251 
L 771.436526 216.312463 
L 772.243757 219.983727 
L 773.454603 219.983727 
L 773.858219 215.565765 
L 774.261834 214.694617 
L 774.66545 214.383493 
L 775.069065 217.245835 
L 776.279912 214.570168 
L 776.683527 214.445718 
L 777.087143 213.076772 
L 777.490758 209.841081 
L 777.894374 212.516748 
L 779.10522 210.21443 
L 779.508836 207.663212 
L 779.912451 206.418716 
L 780.719682 206.418716 
L 782.334144 209.218833 
L 782.73776 210.401104 
L 783.141375 209.156608 
L 783.544991 209.903306 
L 784.755837 208.53436 
L 785.159452 209.467732 
L 785.563068 209.467732 
L 785.966683 208.098786 
L 786.370299 207.912111 
L 787.581145 209.654407 
L 787.984761 209.778856 
L 788.791992 207.912111 
L 789.599223 208.658809 
L 790.406454 209.529957 
L 790.810069 209.156608 
L 791.6173 209.094383 
L 792.020916 209.405507 
L 793.231762 206.418716 
L 793.635378 206.356491 
L 794.442609 204.80087 
L 794.846224 206.356491 
L 796.057071 202.311877 
L 796.460686 203.867498 
L 796.864302 204.178622 
L 797.671533 201.814079 
L 798.882379 200.134009 
L 799.285995 200.631807 
L 799.68961 199.822884 
L 800.093225 200.756257 
L 800.496841 166.159255 
L 802.111303 200.134009 
L 802.514918 203.183025 
L 802.918534 203.183025 
L 803.322149 203.618599 
L 804.532996 204.427521 
L 804.936611 206.356491 
L 805.340227 206.480941 
L 806.147458 209.281058 
L 807.358304 206.978739 
L 808.165535 207.476538 
L 808.569151 206.916514 
L 808.972766 206.854289 
L 810.183613 205.858692 
L 810.587228 204.80087 
L 810.990844 202.809676 
L 811.394459 199.947334 
L 811.798075 198.889512 
L 813.412537 187.689044 
L 813.816152 183.022182 
L 814.623383 199.947334 
L 815.834229 203.494149 
L 817.045076 203.183025 
L 817.448691 203.183025 
L 818.659538 203.867498 
L 819.063153 200.196233 
L 819.466769 200.134009 
L 820.274 200.196233 
L 821.484846 201.191831 
L 821.888462 199.076187 
L 822.695693 203.307475 
L 823.099308 203.307475 
L 824.310155 201.689629 
L 824.71377 201.565179 
L 825.521001 201.191831 
L 825.924617 203.058575 
L 827.135463 202.436327 
L 827.942694 203.556374 
L 828.34631 203.369699 
L 828.749925 203.307475 
L 829.960771 201.938528 
L 830.364387 202.871901 
L 830.768002 202.374102 
L 831.171618 201.31628 
L 831.575233 202.374102 
L 832.78608 202.809676 
L 833.189695 203.556374 
L 833.593311 206.232041 
L 833.996926 204.489746 
L 834.400542 206.107592 
L 835.611388 205.298669 
L 836.015004 207.165414 
L 836.418619 207.289863 
L 836.822235 209.218833 
L 838.436697 207.849887 
L 838.840312 208.098786 
L 839.243928 208.098786 
L 839.647543 209.654407 
L 840.051159 210.650004 
L 841.262005 209.094383 
L 841.665621 207.787662 
L 842.472852 208.347685 
L 842.876467 208.223236 
L 844.087313 207.227638 
L 844.490929 208.347685 
L 844.894544 207.725437 
L 845.29816 207.414313 
L 846.912622 207.663212 
L 847.316237 207.165414 
L 847.719853 206.916514 
L 848.123468 207.600987 
L 848.527084 208.783259 
L 849.73793 209.094383 
L 850.141546 207.912111 
L 850.545161 207.600987 
L 850.948777 208.845484 
L 851.352392 209.281058 
L 852.966854 207.600987 
L 854.177701 209.716631 
L 855.388547 208.845484 
L 855.792163 209.841081 
L 856.195778 210.08998 
L 856.599394 209.716631 
L 857.003009 210.836678 
L 858.213855 208.036561 
L 858.617471 210.152205 
L 859.021086 210.525554 
L 859.424702 209.467732 
L 859.828317 211.023353 
L 861.039164 209.467732 
L 861.442779 209.467732 
L 861.846395 206.169816 
L 862.653626 208.28546 
L 863.864472 205.734243 
L 864.268088 206.978739 
L 865.075319 207.414313 
L 865.88255 207.352088 
L 866.689781 207.227638 
L 867.093396 207.974336 
L 867.497012 208.223236 
L 867.900627 207.352088 
L 869.515089 207.352088 
L 869.918705 207.600987 
L 870.32232 208.347685 
L 870.725936 208.161011 
L 871.129551 207.476538 
L 872.340397 207.538763 
L 873.551244 205.609793 
L 873.954859 205.734243 
L 875.165706 205.734243 
L 875.569321 207.849887 
L 875.972937 208.347685 
L 876.376552 208.036561 
L 876.780168 208.223236 
L 877.991014 208.098786 
L 878.39463 208.347685 
L 878.798245 208.969933 
L 879.605476 208.845484 
L 880.816323 209.529957 
L 881.219938 208.969933 
L 882.027169 208.53436 
L 882.430785 208.658809 
L 883.641631 208.53436 
L 884.045247 209.281058 
L 884.448862 209.156608 
L 884.852478 210.21443 
L 885.256093 208.969933 
L 886.46694 209.094383 
L 887.27417 210.08998 
L 887.677786 209.592182 
L 888.081401 210.33888 
L 889.292248 210.33888 
L 890.099479 209.592182 
L 890.503094 209.467732 
L 890.90671 209.592182 
L 892.521172 210.712229 
L 892.924787 208.845484 
L 893.328403 208.161011 
L 893.732018 208.53436 
L 895.34648 208.098786 
L 895.750096 209.529957 
L 896.153711 210.027755 
L 898.171789 208.40991 
L 898.575404 207.663212 
L 898.97902 208.223236 
L 899.382635 209.529957 
L 900.593482 209.467732 
L 900.997097 209.716631 
L 901.400712 209.592182 
L 901.804328 208.969933 
L 902.207943 209.467732 
L 903.41879 209.281058 
L 903.822405 208.098786 
L 904.226021 207.352088 
L 904.629636 206.854289 
L 905.033252 207.663212 
L 906.244098 206.854289 
L 906.647714 206.854289 
L 907.051329 206.667615 
L 907.454945 207.289863 
L 907.85856 209.467732 
L 909.069407 209.467732 
L 909.473022 209.903306 
L 909.876638 210.152205 
L 910.280253 209.965531 
L 910.683869 211.023353 
L 911.894715 208.907709 
L 912.298331 207.103189 
L 912.701946 206.045367 
L 913.509177 207.538763 
L 914.720024 206.978739 
L 915.123639 206.107592 
L 915.527255 206.60539 
L 916.334485 205.298669 
L 917.545332 206.543165 
L 917.948947 206.667615 
L 918.756178 204.427521 
L 919.159794 204.116397 
L 920.37064 203.867498 
L 921.177871 205.111994 
L 921.581487 205.111994 
L 921.985102 205.796467 
L 923.195949 204.427521 
L 923.599564 204.489746 
L 924.00318 202.99635 
L 924.406795 202.809676 
L 924.810411 201.814079 
L 926.021257 201.689629 
L 926.424873 201.876304 
L 926.828488 198.951737 
L 928.846566 195.902721 
L 929.250181 197.458341 
L 930.057412 197.084992 
L 930.461027 195.218247 
L 931.671874 195.218247 
L 932.075489 197.893915 
L 932.479105 198.765062 
L 933.286336 202.187428 
L 934.497182 203.24525 
L 934.900798 205.236444 
L 935.304413 204.738645 
L 935.708029 203.431924 
L 936.111644 205.236444 
L 937.322491 204.676421 
L 937.726106 206.480941 
L 938.129722 206.916514 
L 940.147799 200.445133 
L 940.551415 200.134009 
L 940.95503 202.623001 
L 942.973108 209.965531 
L 943.376723 209.778856 
L 943.780339 208.223236 
L 944.183954 209.343282 
L 944.58757 209.654407 
L 945.798416 209.467732 
L 946.605647 208.036561 
L 947.009262 209.343282 
L 947.412878 208.472135 
L 949.02734 202.623001 
L 949.430955 196.649418 
L 949.834571 175.119629 
L 950.238186 36.358273 
L 951.449033 71.888647 
L 952.256264 169.394946 
L 952.659879 163.732487 
L 953.063495 182.835508 
L 954.274341 200.134009 
L 954.677957 201.938528 
L 955.081572 184.702252 
L 955.485188 194.658224 
L 955.888803 200.320683 
L 957.09965 207.289863 
L 957.503265 207.725437 
L 957.906881 207.289863 
L 958.310496 206.169816 
L 958.714112 207.352088 
L 960.328573 208.036561 
L 960.732189 208.969933 
L 961.135804 208.28546 
L 961.53942 207.912111 
L 962.750266 208.036561 
L 963.153882 208.907709 
L 963.557497 208.721034 
L 963.961113 209.218833 
L 964.364728 208.907709 
L 965.575575 208.907709 
L 965.97919 208.223236 
L 966.382806 209.654407 
L 966.786421 209.467732 
L 967.190037 208.223236 
L 968.400883 207.289863 
L 968.804499 208.347685 
L 969.208114 207.912111 
L 969.61173 207.165414 
L 970.418961 207.953595 
L 971.226192 208.658809 
L 971.629807 207.974336 
L 972.033423 208.098786 
L 972.437038 207.538763 
L 972.840654 208.596585 
L 974.0515 209.218833 
L 974.0515 209.218833 
" clip-path="url(#p1c512a5361)" style="fill: none; stroke: #1f77b4; stroke-opacity: 0.4; stroke-width: 0.8; stroke-linecap: round"/>
   </g>
   <g id="line2d_14">
    <path d="M 68.338349 214.900996 
L 76.410659 215.483835 
L 80.446814 215.590309 
L 84.482969 215.807405 
L 86.501046 215.79496 
L 88.115508 215.96193 
L 92.151663 216.38091 
L 101.031203 216.870412 
L 103.049281 216.750802 
L 106.278205 216.631883 
L 108.296282 216.482544 
L 109.910744 216.563436 
L 111.121591 216.662996 
L 113.543284 216.633958 
L 115.157745 216.71727 
L 117.983054 216.724184 
L 120.404747 216.840337 
L 122.422824 216.796779 
L 123.633671 216.798162 
L 126.458979 217.131238 
L 132.109596 217.437695 
L 135.742135 217.269688 
L 137.760213 217.006269 
L 139.77829 216.870066 
L 141.392752 216.643291 
L 142.603599 216.543732 
L 144.621676 216.125788 
L 149.061446 215.170291 
L 154.308448 213.319449 
L 155.92291 213.072624 
L 157.133756 213.24426 
L 159.555449 213.263792 
L 161.169911 213.382711 
L 162.784373 214.112815 
L 163.995219 214.728841 
L 168.43499 216.068749 
L 169.645836 216.158975 
L 170.049452 216.337353 
L 171.260298 216.225348 
L 172.067529 216.154826 
L 173.278375 216.158975 
L 174.489222 215.730315 
L 175.296453 215.153007 
L 176.103684 214.599206 
L 177.718146 213.62435 
L 181.350685 211.307513 
L 184.983225 210.17433 
L 186.194071 209.917825 
L 187.001302 209.982124 
L 189.82661 210.960298 
L 191.037457 211.180989 
L 193.45915 211.465149 
L 197.495305 211.879981 
L 198.706151 211.751383 
L 201.127844 211.185137 
L 202.33869 211.19696 
L 205.163999 211.606192 
L 206.374845 211.42574 
L 207.989307 211.164396 
L 212.025462 211.001574 
L 213.639924 211.164914 
L 214.850771 211.010908 
L 218.079694 210.364807 
L 220.501387 209.460473 
L 221.712234 207.073113 
L 222.519465 204.361667 
L 222.92308 202.585148 
L 223.326696 198.196742 
L 223.730311 196.970913 
L 224.537542 196.087321 
L 224.941158 195.815606 
L 225.748389 195.604041 
L 226.959235 195.593671 
L 230.188159 195.825285 
L 232.609852 196.850612 
L 233.820698 199.387311 
L 234.627929 202.216466 
L 235.031545 204.056247 
L 235.43516 208.480432 
L 235.838776 209.729768 
L 236.646007 210.606446 
L 237.453238 210.979795 
L 238.664084 211.162321 
L 240.682162 211.340699 
L 243.103855 211.694344 
L 245.929163 211.849906 
L 249.561702 211.520114 
L 252.790626 211.002957 
L 259.65209 209.542402 
L 263.284629 209.405507 
L 264.899091 209.371975 
L 269.338861 209.072604 
L 274.585863 208.089452 
L 276.200324 207.584913 
L 278.622017 206.707543 
L 281.04371 205.94961 
L 285.483481 204.791537 
L 287.905174 203.903796 
L 289.11602 203.715047 
L 290.730482 203.453184 
L 294.363021 202.523442 
L 297.995561 202.29805 
L 300.013638 202.430105 
L 302.435331 202.029791 
L 306.06787 200.891077 
L 307.278717 200.153367 
L 310.507641 197.792281 
L 312.929334 196.449608 
L 314.14018 195.539742 
L 317.369104 193.693739 
L 318.579951 193.460742 
L 319.387181 193.355651 
L 319.790797 193.245721 
L 323.019721 193.573438 
L 325.037798 193.191792 
L 327.863107 193.616995 
L 328.670338 193.851376 
L 330.688415 194.129313 
L 331.899262 194.572492 
L 332.706493 194.806872 
L 335.128185 194.884308 
L 336.339032 195.263879 
L 339.16434 196.344517 
L 339.971571 196.977136 
L 341.989649 198.90818 
L 342.79688 199.389385 
L 348.043881 202.282839 
L 350.869189 204.254329 
L 351.67642 204.415422 
L 353.290882 204.391224 
L 356.116191 203.926612 
L 356.923422 203.584375 
L 359.345115 202.671744 
L 360.152346 202.518256 
L 361.766808 201.880452 
L 362.170423 201.65022 
L 362.977654 200.796357 
L 364.1885 199.71088 
L 364.995731 198.65928 
L 365.802962 198.107553 
L 366.610193 197.815097 
L 367.417424 197.769465 
L 368.224655 197.916731 
L 369.031886 198.136592 
L 370.242733 198.267264 
L 371.857195 198.20452 
L 374.278888 197.798849 
L 377.507811 199.624802 
L 378.718658 199.651766 
L 379.525889 199.442276 
L 381.543966 198.840769 
L 383.158428 198.544164 
L 383.965659 198.409862 
L 386.790968 197.217738 
L 389.616276 195.865386 
L 390.827123 194.905049 
L 392.8452 193.050749 
L 396.074124 189.053842 
L 397.28497 188.298847 
L 398.092201 187.825938 
L 399.706663 186.562083 
L 400.91751 185.378429 
L 402.128356 183.9037 
L 402.935587 183.078184 
L 403.339203 182.727651 
L 403.742818 182.640536 
L 404.550049 182.258891 
L 406.164511 181.484192 
L 408.182588 180.501385 
L 408.989819 179.851482 
L 410.604281 177.963304 
L 413.025974 176.328865 
L 413.833205 176.285999 
L 414.640436 176.014284 
L 415.851283 175.210893 
L 417.465745 174.13786 
L 418.676591 174.348042 
L 421.098284 175.86529 
L 421.501899 176.34857 
L 422.30913 177.786655 
L 423.519977 179.088536 
L 424.327208 179.845605 
L 426.345285 182.843804 
L 427.556132 184.899298 
L 428.363363 185.670885 
L 429.574209 187.012867 
L 431.188671 187.614374 
L 432.399518 187.277323 
L 433.610364 186.306616 
L 436.032057 183.1933 
L 436.435672 182.831014 
L 439.260981 179.319805 
L 440.471827 178.500512 
L 440.875443 178.284799 
L 442.086289 177.130874 
L 444.104367 175.132074 
L 446.122444 173.651124 
L 446.52606 173.495562 
L 446.929675 173.493487 
L 449.754984 172.170173 
L 450.158599 171.886013 
L 452.176676 171.332212 
L 452.983907 171.155908 
L 455.4056 171.572814 
L 457.827293 173.391853 
L 458.634524 174.3273 
L 462.267064 179.475367 
L 463.47791 181.481081 
L 464.688756 182.624462 
L 469.128527 187.459849 
L 471.146604 190.289004 
L 473.568297 192.172342 
L 475.586375 193.43758 
L 476.393606 194.379249 
L 477.200837 195.176246 
L 477.604452 195.747158 
L 478.815299 196.612084 
L 479.622529 196.652184 
L 480.833376 196.724088 
L 481.236991 196.626603 
L 481.640607 196.410199 
L 483.658684 194.722523 
L 485.273146 193.785002 
L 485.676762 193.575512 
L 486.483993 192.799776 
L 487.694839 192.64214 
L 488.905686 192.646288 
L 489.309301 192.482429 
L 489.712917 192.167157 
L 490.116532 192.008829 
L 491.327379 191.130077 
L 491.730994 191.067852 
L 492.538225 190.725615 
L 493.749071 190.653711 
L 494.152687 190.841768 
L 494.556302 190.86251 
L 495.363533 190.570053 
L 495.767149 190.56746 
L 496.57438 190.875992 
L 497.381611 191.550094 
L 497.785226 192.01678 
L 498.592457 193.315205 
L 499.399688 193.811621 
L 501.417766 194.706275 
L 502.224997 195.394205 
L 503.032228 196.669123 
L 504.243074 198.786841 
L 505.857536 201.261315 
L 506.664767 202.370991 
L 507.875614 204.615751 
L 509.08646 206.105517 
L 509.893691 206.558376 
L 511.508153 207.246306 
L 512.315384 207.727511 
L 513.929846 208.806075 
L 515.140692 209.47188 
L 517.966001 210.919645 
L 518.773232 211.255659 
L 520.791309 212.410966 
L 523.213002 212.71172 
L 525.231079 212.614234 
L 526.441926 212.514674 
L 532.496158 212.597641 
L 534.11062 212.966841 
L 536.935929 213.665834 
L 542.18293 214.511054 
L 543.393776 214.428088 
L 546.219085 214.17504 
L 547.429931 214.049899 
L 548.640778 214.096222 
L 550.25524 214.251265 
L 551.466086 214.269414 
L 552.273317 214.312972 
L 553.887779 214.151187 
L 557.923934 214.112297 
L 560.749242 214.432236 
L 563.170935 214.529721 
L 566.399859 214.769806 
L 568.417936 214.790029 
L 569.225167 214.77067 
L 577.297477 212.315555 
L 582.140863 211.640416 
L 583.351709 211.690887 
L 585.369787 211.687084 
L 586.580633 211.672565 
L 589.405942 211.378034 
L 591.020404 211.261881 
L 597.074636 211.371812 
L 598.285482 211.286771 
L 599.496329 211.388405 
L 600.707175 211.554338 
L 601.918022 211.577154 
L 606.761408 211.281931 
L 607.972254 211.207953 
L 609.586716 211.136394 
L 610.797562 210.996389 
L 613.622871 209.911602 
L 616.448179 209.43662 
L 618.062641 209.4864 
L 619.677103 209.218833 
L 622.502412 208.575843 
L 623.309643 208.681625 
L 623.713258 208.806075 
L 624.520489 209.318393 
L 626.134951 209.74567 
L 627.345797 209.93027 
L 628.556644 210.053337 
L 631.785568 210.270432 
L 635.418107 211.077281 
L 636.225338 210.959054 
L 636.628954 210.878161 
L 639.050647 211.210027 
L 640.261493 211.404998 
L 642.27957 211.492113 
L 646.719341 211.821905 
L 648.737418 211.718197 
L 649.141034 211.674639 
L 650.35188 211.168544 
L 651.159111 207.187711 
L 651.562727 205.987809 
L 651.966342 205.314225 
L 652.773573 205.110957 
L 653.580804 204.974063 
L 654.79165 205.005175 
L 655.598881 205.094364 
L 656.406112 205.137921 
L 658.42419 205.388895 
L 659.635036 205.752564 
L 661.249498 206.311896 
L 662.460345 207.229367 
L 663.267576 211.460482 
L 663.671191 212.832539 
L 664.074807 213.709391 
L 664.882038 214.337862 
L 666.092884 215.08214 
L 666.900115 215.442352 
L 667.707346 215.74518 
L 668.918192 216.25888 
L 670.532654 216.877671 
L 672.147116 217.365099 
L 674.165194 217.736374 
L 677.797733 218.050091 
L 679.815811 218.079648 
L 682.641119 218.164688 
L 688.695351 217.704916 
L 691.117044 217.754004 
L 693.135122 217.679335 
L 696.364046 217.754004 
L 699.189354 217.343321 
L 702.014662 216.159666 
L 704.03274 215.132265 
L 705.243586 214.66506 
L 706.454433 214.195782 
L 707.665279 214.047133 
L 710.490588 213.243742 
L 712.105049 212.791575 
L 713.315896 212.457635 
L 714.526742 212.434819 
L 716.54482 212.465931 
L 719.773744 211.945663 
L 720.580975 212.10399 
L 721.388206 212.271997 
L 723.809899 212.66194 
L 726.231592 213.369229 
L 732.689439 214.738175 
L 734.707517 214.928997 
L 735.918363 215.191724 
L 737.532825 215.211083 
L 740.761749 215.138488 
L 741.972595 215.182045 
L 743.587057 215.142636 
L 746.00875 215.065892 
L 748.834059 214.899959 
L 750.448521 214.833586 
L 753.273829 214.503794 
L 755.291907 213.89814 
L 758.52083 212.770487 
L 760.942523 212.350816 
L 762.960601 212.245033 
L 763.767832 212.375706 
L 766.189525 213.000028 
L 769.418449 214.254895 
L 770.629295 215.00505 
L 772.647372 216.017932 
L 773.454603 216.477358 
L 775.472681 216.878017 
L 776.683527 216.729369 
L 778.297989 216.181099 
L 779.508836 215.61347 
L 781.123298 214.421519 
L 782.73776 213.101662 
L 784.352222 211.952577 
L 785.563068 210.869865 
L 787.581145 209.702804 
L 789.195607 208.940895 
L 790.406454 208.713429 
L 791.213685 208.616289 
L 793.231762 208.839607 
L 794.038993 208.691996 
L 795.653455 208.063525 
L 796.460686 207.654916 
L 797.267917 207.294012 
L 800.093225 205.381635 
L 800.900456 202.852196 
L 801.304072 202.016309 
L 801.707687 201.449026 
L 802.514918 200.938783 
L 804.12938 200.207641 
L 804.936611 200.039634 
L 805.743842 200.099785 
L 806.954689 200.393279 
L 807.76192 200.579953 
L 808.569151 200.853742 
L 809.779997 201.20635 
L 810.990844 201.585921 
L 811.798075 201.531993 
L 812.20169 201.376431 
L 812.605306 202.280765 
L 813.008921 202.808639 
L 813.412537 202.960053 
L 814.219767 202.419734 
L 815.430614 202.199873 
L 816.64146 202.121055 
L 817.852307 201.749088 
L 819.870384 200.689884 
L 821.081231 200.034449 
L 822.695693 199.424646 
L 823.502924 199.535267 
L 824.310155 199.833255 
L 825.117386 200.470023 
L 825.521001 200.920115 
L 825.924617 201.587995 
L 826.328232 201.931615 
L 827.539079 202.087868 
L 829.960771 202.005593 
L 831.171618 201.967567 
L 833.189695 202.36788 
L 834.804157 202.954176 
L 836.015004 203.278436 
L 836.822235 203.720233 
L 838.033081 204.388112 
L 839.647543 205.147255 
L 841.665621 206.207151 
L 844.490929 207.528392 
L 845.29816 207.820848 
L 847.316237 208.127824 
L 848.930699 208.234989 
L 852.159623 208.20405 
L 853.37047 208.039672 
L 856.599394 208.450356 
L 857.81024 208.686811 
L 858.617471 208.788444 
L 861.039164 209.253748 
L 861.442779 209.26965 
L 862.25001 209.149348 
L 863.057241 209.12515 
L 864.671703 208.855855 
L 865.88255 208.764592 
L 869.918705 208.05108 
L 870.725936 207.995078 
L 873.954859 207.258751 
L 875.569321 207.109411 
L 876.780168 207.264973 
L 880.009092 207.542219 
L 882.430785 207.820848 
L 884.045247 207.96604 
L 885.256093 208.221161 
L 888.485017 209.034232 
L 890.90671 209.345357 
L 893.328403 209.463584 
L 900.997097 209.247871 
L 904.226021 208.984453 
L 905.033252 208.816446 
L 909.876638 208.604881 
L 911.894715 208.821285 
L 917.545332 207.794576 
L 918.756178 207.659064 
L 919.563409 207.465476 
L 921.985102 206.478866 
L 923.599564 205.75291 
L 924.810411 205.271705 
L 926.424873 204.547823 
L 928.846566 202.810367 
L 931.268258 200.940857 
L 932.075489 200.445133 
L 933.286336 200.042745 
L 934.900798 199.802143 
L 936.51526 199.926592 
L 937.726106 200.283348 
L 939.744184 201.051617 
L 940.551415 201.283094 
L 941.762261 202.004487 
L 942.569492 202.778564 
L 944.183954 204.570638 
L 944.991185 205.238518 
L 946.202031 205.91262 
L 947.816493 206.452939 
L 948.623724 206.431161 
L 949.02734 206.356491 
L 949.430955 206.088924 
L 949.834571 205.043547 
L 951.045417 189.301496 
L 951.449033 184.929995 
L 951.852648 182.22363 
L 953.063495 179.315657 
L 953.870726 178.426257 
L 954.677957 177.977823 
L 955.081572 177.135714 
L 955.485188 176.631693 
L 956.292419 176.144956 
L 957.09965 175.911959 
L 959.521342 175.580612 
L 960.328573 175.692098 
L 961.135804 176.043668 
L 961.53942 176.419091 
L 961.943035 177.513557 
L 963.153882 193.524695 
L 963.557497 198.085775 
L 963.961113 201.041454 
L 965.171959 204.73346 
L 965.97919 205.872174 
L 966.786421 206.440494 
L 967.190037 207.224527 
L 967.593652 207.666323 
L 968.400883 208.063871 
L 969.208114 208.197309 
L 970.418961 208.248471 
L 972.437038 208.318647 
L 973.647885 208.36013 
L 974.0515 208.402305 
L 974.0515 208.402305 
" clip-path="url(#p1c512a5361)" style="fill: none; stroke: #1f77b4; stroke-width: 1.5; stroke-linecap: round"/>
   </g>
   <g id="line2d_15">
    <path d="M 80.850429 229.165 
L 80.850429 27.177 
" clip-path="url(#p1c512a5361)" style="fill: none; stroke: #ff0000; stroke-opacity: 0.4; stroke-width: 0.8; stroke-linecap: round"/>
   </g>
   <g id="line2d_16">
    <path d="M 222.519465 229.165 
L 222.519465 27.177 
" clip-path="url(#p1c512a5361)" style="fill: none; stroke: #ff0000; stroke-opacity: 0.4; stroke-width: 0.8; stroke-linecap: round"/>
   </g>
   <g id="line2d_17">
    <path d="M 412.622359 229.165 
L 412.622359 27.177 
" clip-path="url(#p1c512a5361)" style="fill: none; stroke: #ff0000; stroke-opacity: 0.4; stroke-width: 0.8; stroke-linecap: round"/>
   </g>
   <g id="line2d_18">
    <path d="M 437.242903 229.165 
L 437.242903 27.177 
" clip-path="url(#p1c512a5361)" style="fill: none; stroke: #ff0000; stroke-opacity: 0.4; stroke-width: 0.8; stroke-linecap: round"/>
   </g>
   <g id="line2d_19">
    <path d="M 942.165877 229.165 
L 942.165877 27.177 
" clip-path="url(#p1c512a5361)" style="fill: none; stroke: #ff0000; stroke-opacity: 0.4; stroke-width: 0.8; stroke-linecap: round"/>
   </g>
   <g id="line2d_20">
    <path d="M 964.768344 229.165 
L 964.768344 27.177 
" clip-path="url(#p1c512a5361)" style="fill: none; stroke: #ff0000; stroke-opacity: 0.4; stroke-width: 0.8; stroke-linecap: round"/>
   </g>
   <g id="patch_3">
    <path d="M 56.6335 229.165 
L 56.6335 27.177 
" style="fill: none; stroke: #cccccc; stroke-linejoin: miter; stroke-linecap: square"/>
   </g>
   <g id="patch_4">
    <path d="M 974.0515 229.165 
L 974.0515 27.177 
" style="fill: none; stroke: #cccccc; stroke-linejoin: miter; stroke-linecap: square"/>
   </g>
   <g id="patch_5">
    <path d="M 56.6335 229.165 
L 974.0515 229.165 
" style="fill: none; stroke: #cccccc; stroke-linejoin: miter; stroke-linecap: square"/>
   </g>
   <g id="patch_6">
    <path d="M 56.6335 27.177 
L 974.0515 27.177 
" style="fill: none; stroke: #cccccc; stroke-linejoin: miter; stroke-linecap: square"/>
   </g>
   <g id="text_13">
    <!-- COVID -->
    <g style="fill: #ff0000; opacity: 0.7" transform="translate(79.061679 74.419287) rotate(-90) scale(0.09 -0.09)">
     <defs>
      <path id="ArialMT-43" d="M 3763 1606 
L 4369 1453 
Q 4178 706 3683 314 
Q 3188 -78 2472 -78 
Q 1731 -78 1267 223 
Q 803 525 561 1097 
Q 319 1669 319 2325 
Q 319 3041 592 3573 
Q 866 4106 1370 4382 
Q 1875 4659 2481 4659 
Q 3169 4659 3637 4309 
Q 4106 3959 4291 3325 
L 3694 3184 
Q 3534 3684 3231 3912 
Q 2928 4141 2469 4141 
Q 1941 4141 1586 3887 
Q 1231 3634 1087 3207 
Q 944 2781 944 2328 
Q 944 1744 1114 1308 
Q 1284 872 1643 656 
Q 2003 441 2422 441 
Q 2931 441 3284 734 
Q 3638 1028 3763 1606 
z
" transform="scale(0.015625)"/>
      <path id="ArialMT-4f" d="M 309 2231 
Q 309 3372 921 4017 
Q 1534 4663 2503 4663 
Q 3138 4663 3647 4359 
Q 4156 4056 4423 3514 
Q 4691 2972 4691 2284 
Q 4691 1588 4409 1038 
Q 4128 488 3612 205 
Q 3097 -78 2500 -78 
Q 1853 -78 1343 234 
Q 834 547 571 1087 
Q 309 1628 309 2231 
z
M 934 2222 
Q 934 1394 1379 917 
Q 1825 441 2497 441 
Q 3181 441 3623 922 
Q 4066 1403 4066 2288 
Q 4066 2847 3877 3264 
Q 3688 3681 3323 3911 
Q 2959 4141 2506 4141 
Q 1863 4141 1398 3698 
Q 934 3256 934 2222 
z
" transform="scale(0.015625)"/>
      <path id="ArialMT-56" d="M 1803 0 
L 28 4581 
L 684 4581 
L 1875 1253 
Q 2019 853 2116 503 
Q 2222 878 2363 1253 
L 3600 4581 
L 4219 4581 
L 2425 0 
L 1803 0 
z
" transform="scale(0.015625)"/>
      <path id="ArialMT-49" d="M 597 0 
L 597 4581 
L 1203 4581 
L 1203 0 
L 597 0 
z
" transform="scale(0.015625)"/>
     </defs>
     <use xlink:href="#ArialMT-43"/>
     <use xlink:href="#ArialMT-4f" transform="translate(72.216797 0)"/>
     <use xlink:href="#ArialMT-56" transform="translate(150 0)"/>
     <use xlink:href="#ArialMT-49" transform="translate(216.699219 0)"/>
     <use xlink:href="#ArialMT-44" transform="translate(244.482422 0)"/>
    </g>
   </g>
   <g id="text_14">
    <!-- Uri -->
    <g style="fill: #ff0000; opacity: 0.7" transform="translate(220.730715 57.412099) rotate(-90) scale(0.09 -0.09)">
     <defs>
      <path id="ArialMT-72" d="M 416 0 
L 416 3319 
L 922 3319 
L 922 2816 
Q 1116 3169 1280 3281 
Q 1444 3394 1641 3394 
Q 1925 3394 2219 3213 
L 2025 2691 
Q 1819 2813 1613 2813 
Q 1428 2813 1281 2702 
Q 1134 2591 1072 2394 
Q 978 2094 978 1738 
L 978 0 
L 416 0 
z
" transform="scale(0.015625)"/>
      <path id="ArialMT-69" d="M 425 3934 
L 425 4581 
L 988 4581 
L 988 3934 
L 425 3934 
z
M 425 0 
L 425 3319 
L 988 3319 
L 988 0 
L 425 0 
z
" transform="scale(0.015625)"/>
     </defs>
     <use xlink:href="#ArialMT-55"/>
     <use xlink:href="#ArialMT-72" transform="translate(72.216797 0)"/>
     <use xlink:href="#ArialMT-69" transform="translate(105.517578 0)"/>
    </g>
   </g>
   <g id="text_15">
    <!-- Freeport outage -->
    <g style="fill: #ff0000; opacity: 0.7" transform="translate(410.72814 109.951006) rotate(-90) scale(0.09 -0.09)">
     <defs>
      <path id="ArialMT-46" d="M 525 0 
L 525 4581 
L 3616 4581 
L 3616 4041 
L 1131 4041 
L 1131 2622 
L 3281 2622 
L 3281 2081 
L 1131 2081 
L 1131 0 
L 525 0 
z
" transform="scale(0.015625)"/>
      <path id="ArialMT-65" d="M 2694 1069 
L 3275 997 
Q 3138 488 2766 206 
Q 2394 -75 1816 -75 
Q 1088 -75 661 373 
Q 234 822 234 1631 
Q 234 2469 665 2931 
Q 1097 3394 1784 3394 
Q 2450 3394 2872 2941 
Q 3294 2488 3294 1666 
Q 3294 1616 3291 1516 
L 816 1516 
Q 847 969 1125 678 
Q 1403 388 1819 388 
Q 2128 388 2347 550 
Q 2566 713 2694 1069 
z
M 847 1978 
L 2700 1978 
Q 2663 2397 2488 2606 
Q 2219 2931 1791 2931 
Q 1403 2931 1139 2672 
Q 875 2413 847 1978 
z
" transform="scale(0.015625)"/>
      <path id="ArialMT-70" d="M 422 -1272 
L 422 3319 
L 934 3319 
L 934 2888 
Q 1116 3141 1344 3267 
Q 1572 3394 1897 3394 
Q 2322 3394 2647 3175 
Q 2972 2956 3137 2557 
Q 3303 2159 3303 1684 
Q 3303 1175 3120 767 
Q 2938 359 2589 142 
Q 2241 -75 1856 -75 
Q 1575 -75 1351 44 
Q 1128 163 984 344 
L 984 -1272 
L 422 -1272 
z
M 931 1641 
Q 931 1000 1190 694 
Q 1450 388 1819 388 
Q 2194 388 2461 705 
Q 2728 1022 2728 1688 
Q 2728 2322 2467 2637 
Q 2206 2953 1844 2953 
Q 1484 2953 1207 2617 
Q 931 2281 931 1641 
z
" transform="scale(0.015625)"/>
      <path id="ArialMT-6f" d="M 213 1659 
Q 213 2581 725 3025 
Q 1153 3394 1769 3394 
Q 2453 3394 2887 2945 
Q 3322 2497 3322 1706 
Q 3322 1066 3130 698 
Q 2938 331 2570 128 
Q 2203 -75 1769 -75 
Q 1072 -75 642 372 
Q 213 819 213 1659 
z
M 791 1659 
Q 791 1022 1069 705 
Q 1347 388 1769 388 
Q 2188 388 2466 706 
Q 2744 1025 2744 1678 
Q 2744 2294 2464 2611 
Q 2184 2928 1769 2928 
Q 1347 2928 1069 2612 
Q 791 2297 791 1659 
z
" transform="scale(0.015625)"/>
      <path id="ArialMT-61" d="M 2588 409 
Q 2275 144 1986 34 
Q 1697 -75 1366 -75 
Q 819 -75 525 192 
Q 231 459 231 875 
Q 231 1119 342 1320 
Q 453 1522 633 1644 
Q 813 1766 1038 1828 
Q 1203 1872 1538 1913 
Q 2219 1994 2541 2106 
Q 2544 2222 2544 2253 
Q 2544 2597 2384 2738 
Q 2169 2928 1744 2928 
Q 1347 2928 1158 2789 
Q 969 2650 878 2297 
L 328 2372 
Q 403 2725 575 2942 
Q 747 3159 1072 3276 
Q 1397 3394 1825 3394 
Q 2250 3394 2515 3294 
Q 2781 3194 2906 3042 
Q 3031 2891 3081 2659 
Q 3109 2516 3109 2141 
L 3109 1391 
Q 3109 606 3145 398 
Q 3181 191 3288 0 
L 2700 0 
Q 2613 175 2588 409 
z
M 2541 1666 
Q 2234 1541 1622 1453 
Q 1275 1403 1131 1340 
Q 988 1278 909 1158 
Q 831 1038 831 891 
Q 831 666 1001 516 
Q 1172 366 1500 366 
Q 1825 366 2078 508 
Q 2331 650 2450 897 
Q 2541 1088 2541 1459 
L 2541 1666 
z
" transform="scale(0.015625)"/>
      <path id="ArialMT-67" d="M 319 -275 
L 866 -356 
Q 900 -609 1056 -725 
Q 1266 -881 1628 -881 
Q 2019 -881 2231 -725 
Q 2444 -569 2519 -288 
Q 2563 -116 2559 434 
Q 2191 0 1641 0 
Q 956 0 581 494 
Q 206 988 206 1678 
Q 206 2153 378 2554 
Q 550 2956 876 3175 
Q 1203 3394 1644 3394 
Q 2231 3394 2613 2919 
L 2613 3319 
L 3131 3319 
L 3131 450 
Q 3131 -325 2973 -648 
Q 2816 -972 2473 -1159 
Q 2131 -1347 1631 -1347 
Q 1038 -1347 672 -1080 
Q 306 -813 319 -275 
z
M 784 1719 
Q 784 1066 1043 766 
Q 1303 466 1694 466 
Q 2081 466 2343 764 
Q 2606 1063 2606 1700 
Q 2606 2309 2336 2618 
Q 2066 2928 1684 2928 
Q 1309 2928 1046 2623 
Q 784 2319 784 1719 
z
" transform="scale(0.015625)"/>
     </defs>
     <use xlink:href="#ArialMT-46"/>
     <use xlink:href="#ArialMT-72" transform="translate(61.083984 0)"/>
     <use xlink:href="#ArialMT-65" transform="translate(94.384766 0)"/>
     <use xlink:href="#ArialMT-65" transform="translate(150 0)"/>
     <use xlink:href="#ArialMT-70" transform="translate(205.615234 0)"/>
     <use xlink:href="#ArialMT-6f" transform="translate(261.230469 0)"/>
     <use xlink:href="#ArialMT-72" transform="translate(316.845703 0)"/>
     <use xlink:href="#ArialMT-74" transform="translate(350.146484 0)"/>
     <use xlink:href="#ArialMT-20" transform="translate(377.929688 0)"/>
     <use xlink:href="#ArialMT-6f" transform="translate(405.712891 0)"/>
     <use xlink:href="#ArialMT-75" transform="translate(461.328125 0)"/>
     <use xlink:href="#ArialMT-74" transform="translate(516.943359 0)"/>
     <use xlink:href="#ArialMT-61" transform="translate(544.726562 0)"/>
     <use xlink:href="#ArialMT-67" transform="translate(600.341797 0)"/>
     <use xlink:href="#ArialMT-65" transform="translate(655.957031 0)"/>
    </g>
   </g>
   <g id="text_16">
    <!-- Post-Ukraine peak -->
    <g style="fill: #ff0000; opacity: 0.7" transform="translate(435.454153 119.946631) rotate(-90) scale(0.09 -0.09)">
     <defs>
      <path id="ArialMT-50" d="M 494 0 
L 494 4581 
L 2222 4581 
Q 2678 4581 2919 4538 
Q 3256 4481 3484 4323 
Q 3713 4166 3852 3881 
Q 3991 3597 3991 3256 
Q 3991 2672 3619 2267 
Q 3247 1863 2275 1863 
L 1100 1863 
L 1100 0 
L 494 0 
z
M 1100 2403 
L 2284 2403 
Q 2872 2403 3119 2622 
Q 3366 2841 3366 3238 
Q 3366 3525 3220 3729 
Q 3075 3934 2838 4000 
Q 2684 4041 2272 4041 
L 1100 4041 
L 1100 2403 
z
" transform="scale(0.015625)"/>
      <path id="ArialMT-73" d="M 197 991 
L 753 1078 
Q 800 744 1014 566 
Q 1228 388 1613 388 
Q 2000 388 2187 545 
Q 2375 703 2375 916 
Q 2375 1106 2209 1216 
Q 2094 1291 1634 1406 
Q 1016 1563 777 1677 
Q 538 1791 414 1992 
Q 291 2194 291 2438 
Q 291 2659 392 2848 
Q 494 3038 669 3163 
Q 800 3259 1026 3326 
Q 1253 3394 1513 3394 
Q 1903 3394 2198 3281 
Q 2494 3169 2634 2976 
Q 2775 2784 2828 2463 
L 2278 2388 
Q 2241 2644 2061 2787 
Q 1881 2931 1553 2931 
Q 1166 2931 1000 2803 
Q 834 2675 834 2503 
Q 834 2394 903 2306 
Q 972 2216 1119 2156 
Q 1203 2125 1616 2013 
Q 2213 1853 2448 1751 
Q 2684 1650 2818 1456 
Q 2953 1263 2953 975 
Q 2953 694 2789 445 
Q 2625 197 2315 61 
Q 2006 -75 1616 -75 
Q 969 -75 630 194 
Q 291 463 197 991 
z
" transform="scale(0.015625)"/>
      <path id="ArialMT-2d" d="M 203 1375 
L 203 1941 
L 1931 1941 
L 1931 1375 
L 203 1375 
z
" transform="scale(0.015625)"/>
      <path id="ArialMT-6b" d="M 425 0 
L 425 4581 
L 988 4581 
L 988 1969 
L 2319 3319 
L 3047 3319 
L 1778 2088 
L 3175 0 
L 2481 0 
L 1384 1697 
L 988 1316 
L 988 0 
L 425 0 
z
" transform="scale(0.015625)"/>
      <path id="ArialMT-6e" d="M 422 0 
L 422 3319 
L 928 3319 
L 928 2847 
Q 1294 3394 1984 3394 
Q 2284 3394 2536 3286 
Q 2788 3178 2913 3003 
Q 3038 2828 3088 2588 
Q 3119 2431 3119 2041 
L 3119 0 
L 2556 0 
L 2556 2019 
Q 2556 2363 2490 2533 
Q 2425 2703 2258 2804 
Q 2091 2906 1866 2906 
Q 1506 2906 1245 2678 
Q 984 2450 984 1813 
L 984 0 
L 422 0 
z
" transform="scale(0.015625)"/>
     </defs>
     <use xlink:href="#ArialMT-50"/>
     <use xlink:href="#ArialMT-6f" transform="translate(66.699219 0)"/>
     <use xlink:href="#ArialMT-73" transform="translate(122.314453 0)"/>
     <use xlink:href="#ArialMT-74" transform="translate(172.314453 0)"/>
     <use xlink:href="#ArialMT-2d" transform="translate(200.097656 0)"/>
     <use xlink:href="#ArialMT-55" transform="translate(233.398438 0)"/>
     <use xlink:href="#ArialMT-6b" transform="translate(305.615234 0)"/>
     <use xlink:href="#ArialMT-72" transform="translate(355.615234 0)"/>
     <use xlink:href="#ArialMT-61" transform="translate(388.916016 0)"/>
     <use xlink:href="#ArialMT-69" transform="translate(444.53125 0)"/>
     <use xlink:href="#ArialMT-6e" transform="translate(466.748047 0)"/>
     <use xlink:href="#ArialMT-65" transform="translate(522.363281 0)"/>
     <use xlink:href="#ArialMT-20" transform="translate(577.978516 0)"/>
     <use xlink:href="#ArialMT-70" transform="translate(605.761719 0)"/>
     <use xlink:href="#ArialMT-65" transform="translate(661.376953 0)"/>
     <use xlink:href="#ArialMT-61" transform="translate(716.992188 0)"/>
     <use xlink:href="#ArialMT-6b" transform="translate(772.607422 0)"/>
    </g>
   </g>
   <g id="text_17">
    <!-- US invade Venezuela -->
    <g style="fill: #ff0000; opacity: 0.7" transform="translate(940.377127 131.975693) rotate(-90) scale(0.09 -0.09)">
     <defs>
      <path id="ArialMT-76" d="M 1344 0 
L 81 3319 
L 675 3319 
L 1388 1331 
Q 1503 1009 1600 663 
Q 1675 925 1809 1294 
L 2547 3319 
L 3125 3319 
L 1869 0 
L 1344 0 
z
" transform="scale(0.015625)"/>
      <path id="ArialMT-64" d="M 2575 0 
L 2575 419 
Q 2259 -75 1647 -75 
Q 1250 -75 917 144 
Q 584 363 401 755 
Q 219 1147 219 1656 
Q 219 2153 384 2558 
Q 550 2963 881 3178 
Q 1213 3394 1622 3394 
Q 1922 3394 2156 3267 
Q 2391 3141 2538 2938 
L 2538 4581 
L 3097 4581 
L 3097 0 
L 2575 0 
z
M 797 1656 
Q 797 1019 1065 703 
Q 1334 388 1700 388 
Q 2069 388 2326 689 
Q 2584 991 2584 1609 
Q 2584 2291 2321 2609 
Q 2059 2928 1675 2928 
Q 1300 2928 1048 2622 
Q 797 2316 797 1656 
z
" transform="scale(0.015625)"/>
      <path id="ArialMT-7a" d="M 125 0 
L 125 456 
L 2238 2881 
Q 1878 2863 1603 2863 
L 250 2863 
L 250 3319 
L 2963 3319 
L 2963 2947 
L 1166 841 
L 819 456 
Q 1197 484 1528 484 
L 3063 484 
L 3063 0 
L 125 0 
z
" transform="scale(0.015625)"/>
      <path id="ArialMT-6c" d="M 409 0 
L 409 4581 
L 972 4581 
L 972 0 
L 409 0 
z
" transform="scale(0.015625)"/>
     </defs>
     <use xlink:href="#ArialMT-55"/>
     <use xlink:href="#ArialMT-53" transform="translate(72.216797 0)"/>
     <use xlink:href="#ArialMT-20" transform="translate(138.916016 0)"/>
     <use xlink:href="#ArialMT-69" transform="translate(166.699219 0)"/>
     <use xlink:href="#ArialMT-6e" transform="translate(188.916016 0)"/>
     <use xlink:href="#ArialMT-76" transform="translate(244.53125 0)"/>
     <use xlink:href="#ArialMT-61" transform="translate(294.53125 0)"/>
     <use xlink:href="#ArialMT-64" transform="translate(350.146484 0)"/>
     <use xlink:href="#ArialMT-65" transform="translate(405.761719 0)"/>
     <use xlink:href="#ArialMT-20" transform="translate(461.376953 0)"/>
     <use xlink:href="#ArialMT-56" transform="translate(489.160156 0)"/>
     <use xlink:href="#ArialMT-65" transform="translate(550.359375 0)"/>
     <use xlink:href="#ArialMT-6e" transform="translate(605.974609 0)"/>
     <use xlink:href="#ArialMT-65" transform="translate(661.589844 0)"/>
     <use xlink:href="#ArialMT-7a" transform="translate(717.205078 0)"/>
     <use xlink:href="#ArialMT-75" transform="translate(767.205078 0)"/>
     <use xlink:href="#ArialMT-65" transform="translate(822.820312 0)"/>
     <use xlink:href="#ArialMT-6c" transform="translate(878.435547 0)"/>
     <use xlink:href="#ArialMT-61" transform="translate(900.652344 0)"/>
    </g>
   </g>
   <g id="text_18">
    <!-- US invade Iran -->
    <g style="fill: #ff0000; opacity: 0.7" transform="translate(962.979594 105.445381) rotate(-90) scale(0.09 -0.09)">
     <use xlink:href="#ArialMT-55"/>
     <use xlink:href="#ArialMT-53" transform="translate(72.216797 0)"/>
     <use xlink:href="#ArialMT-20" transform="translate(138.916016 0)"/>
     <use xlink:href="#ArialMT-69" transform="translate(166.699219 0)"/>
     <use xlink:href="#ArialMT-6e" transform="translate(188.916016 0)"/>
     <use xlink:href="#ArialMT-76" transform="translate(244.53125 0)"/>
     <use xlink:href="#ArialMT-61" transform="translate(294.53125 0)"/>
     <use xlink:href="#ArialMT-64" transform="translate(350.146484 0)"/>
     <use xlink:href="#ArialMT-65" transform="translate(405.761719 0)"/>
     <use xlink:href="#ArialMT-20" transform="translate(461.376953 0)"/>
     <use xlink:href="#ArialMT-49" transform="translate(489.160156 0)"/>
     <use xlink:href="#ArialMT-72" transform="translate(516.943359 0)"/>
     <use xlink:href="#ArialMT-61" transform="translate(550.244141 0)"/>
     <use xlink:href="#ArialMT-6e" transform="translate(605.859375 0)"/>
    </g>
   </g>
   <g id="text_19">
    <!-- Henry Hub Spot Price — 2020 to Present -->
    <g style="fill: #262626" transform="translate(339.796 21.177) scale(0.192 -0.192)">
     <defs>
      <path id="ArialMT-48" d="M 513 0 
L 513 4581 
L 1119 4581 
L 1119 2700 
L 3500 2700 
L 3500 4581 
L 4106 4581 
L 4106 0 
L 3500 0 
L 3500 2159 
L 1119 2159 
L 1119 0 
L 513 0 
z
" transform="scale(0.015625)"/>
      <path id="ArialMT-79" d="M 397 -1278 
L 334 -750 
Q 519 -800 656 -800 
Q 844 -800 956 -737 
Q 1069 -675 1141 -563 
Q 1194 -478 1313 -144 
Q 1328 -97 1363 -6 
L 103 3319 
L 709 3319 
L 1400 1397 
Q 1534 1031 1641 628 
Q 1738 1016 1872 1384 
L 2581 3319 
L 3144 3319 
L 1881 -56 
Q 1678 -603 1566 -809 
Q 1416 -1088 1222 -1217 
Q 1028 -1347 759 -1347 
Q 597 -1347 397 -1278 
z
" transform="scale(0.015625)"/>
      <path id="ArialMT-62" d="M 941 0 
L 419 0 
L 419 4581 
L 981 4581 
L 981 2947 
Q 1338 3394 1891 3394 
Q 2197 3394 2470 3270 
Q 2744 3147 2920 2923 
Q 3097 2700 3197 2384 
Q 3297 2069 3297 1709 
Q 3297 856 2875 390 
Q 2453 -75 1863 -75 
Q 1275 -75 941 416 
L 941 0 
z
M 934 1684 
Q 934 1088 1097 822 
Q 1363 388 1816 388 
Q 2184 388 2453 708 
Q 2722 1028 2722 1663 
Q 2722 2313 2464 2622 
Q 2206 2931 1841 2931 
Q 1472 2931 1203 2611 
Q 934 2291 934 1684 
z
" transform="scale(0.015625)"/>
      <path id="ArialMT-63" d="M 2588 1216 
L 3141 1144 
Q 3050 572 2676 248 
Q 2303 -75 1759 -75 
Q 1078 -75 664 370 
Q 250 816 250 1647 
Q 250 2184 428 2587 
Q 606 2991 970 3192 
Q 1334 3394 1763 3394 
Q 2303 3394 2647 3120 
Q 2991 2847 3088 2344 
L 2541 2259 
Q 2463 2594 2264 2762 
Q 2066 2931 1784 2931 
Q 1359 2931 1093 2626 
Q 828 2322 828 1663 
Q 828 994 1084 691 
Q 1341 388 1753 388 
Q 2084 388 2306 591 
Q 2528 794 2588 1216 
z
" transform="scale(0.015625)"/>
      <path id="ArialMT-2014" d="M 0 1431 
L 0 1884 
L 6400 1884 
L 6400 1431 
L 0 1431 
z
" transform="scale(0.015625)"/>
     </defs>
     <use xlink:href="#ArialMT-48"/>
     <use xlink:href="#ArialMT-65" transform="translate(72.216797 0)"/>
     <use xlink:href="#ArialMT-6e" transform="translate(127.832031 0)"/>
     <use xlink:href="#ArialMT-72" transform="translate(183.447266 0)"/>
     <use xlink:href="#ArialMT-79" transform="translate(216.748047 0)"/>
     <use xlink:href="#ArialMT-20" transform="translate(266.748047 0)"/>
     <use xlink:href="#ArialMT-48" transform="translate(294.53125 0)"/>
     <use xlink:href="#ArialMT-75" transform="translate(366.748047 0)"/>
     <use xlink:href="#ArialMT-62" transform="translate(422.363281 0)"/>
     <use xlink:href="#ArialMT-20" transform="translate(477.978516 0)"/>
     <use xlink:href="#ArialMT-53" transform="translate(505.761719 0)"/>
     <use xlink:href="#ArialMT-70" transform="translate(572.460938 0)"/>
     <use xlink:href="#ArialMT-6f" transform="translate(628.076172 0)"/>
     <use xlink:href="#ArialMT-74" transform="translate(683.691406 0)"/>
     <use xlink:href="#ArialMT-20" transform="translate(711.474609 0)"/>
     <use xlink:href="#ArialMT-50" transform="translate(739.257812 0)"/>
     <use xlink:href="#ArialMT-72" transform="translate(805.957031 0)"/>
     <use xlink:href="#ArialMT-69" transform="translate(839.257812 0)"/>
     <use xlink:href="#ArialMT-63" transform="translate(861.474609 0)"/>
     <use xlink:href="#ArialMT-65" transform="translate(911.474609 0)"/>
     <use xlink:href="#ArialMT-20" transform="translate(967.089844 0)"/>
     <use xlink:href="#ArialMT-2014" transform="translate(994.873047 0)"/>
     <use xlink:href="#ArialMT-20" transform="translate(1094.873047 0)"/>
     <use xlink:href="#ArialMT-32" transform="translate(1122.65625 0)"/>
     <use xlink:href="#ArialMT-30" transform="translate(1178.271484 0)"/>
     <use xlink:href="#ArialMT-32" transform="translate(1233.886719 0)"/>
     <use xlink:href="#ArialMT-30" transform="translate(1289.501953 0)"/>
     <use xlink:href="#ArialMT-20" transform="translate(1345.117188 0)"/>
     <use xlink:href="#ArialMT-74" transform="translate(1372.900391 0)"/>
     <use xlink:href="#ArialMT-6f" transform="translate(1400.683594 0)"/>
     <use xlink:href="#ArialMT-20" transform="translate(1456.298828 0)"/>
     <use xlink:href="#ArialMT-50" transform="translate(1484.082031 0)"/>
     <use xlink:href="#ArialMT-72" transform="translate(1550.78125 0)"/>
     <use xlink:href="#ArialMT-65" transform="translate(1584.082031 0)"/>
     <use xlink:href="#ArialMT-73" transform="translate(1639.697266 0)"/>
     <use xlink:href="#ArialMT-65" transform="translate(1689.697266 0)"/>
     <use xlink:href="#ArialMT-6e" transform="translate(1745.3125 0)"/>
     <use xlink:href="#ArialMT-74" transform="translate(1800.927734 0)"/>
    </g>
   </g>
   <g id="legend_1">
    <g id="patch_7">
     <path d="M 68.9535 91.51325 
L 279.83725 91.51325 
Q 283.35725 91.51325 283.35725 87.99325 
L 283.35725 39.497 
Q 283.35725 35.977 279.83725 35.977 
L 68.9535 35.977 
Q 65.4335 35.977 65.4335 39.497 
L 65.4335 87.99325 
Q 65.4335 91.51325 68.9535 91.51325 
z
" style="fill: #ffffff; opacity: 0.8; stroke: #cccccc; stroke-width: 0.8; stroke-linejoin: miter"/>
    </g>
    <g id="line2d_21">
     <path d="M 72.4735 49.45475 
L 90.0735 49.45475 
L 107.6735 49.45475 
" style="fill: none; stroke: #1f77b4; stroke-opacity: 0.4; stroke-width: 0.8; stroke-linecap: round"/>
    </g>
    <g id="text_20">
     <!-- Daily -->
     <g style="fill: #262626" transform="translate(121.7535 55.61475) scale(0.176 -0.176)">
      <use xlink:href="#ArialMT-44"/>
      <use xlink:href="#ArialMT-61" transform="translate(72.216797 0)"/>
      <use xlink:href="#ArialMT-69" transform="translate(127.832031 0)"/>
      <use xlink:href="#ArialMT-6c" transform="translate(150.048828 0)"/>
      <use xlink:href="#ArialMT-79" transform="translate(172.265625 0)"/>
     </g>
    </g>
    <g id="line2d_22">
     <path d="M 72.4735 74.609 
L 90.0735 74.609 
L 107.6735 74.609 
" style="fill: none; stroke: #1f77b4; stroke-width: 1.5; stroke-linecap: round"/>
    </g>
    <g id="text_21">
     <!-- 30-day rolling mean -->
     <g style="fill: #262626" transform="translate(121.7535 80.769) scale(0.176 -0.176)">
      <defs>
       <path id="ArialMT-6d" d="M 422 0 
L 422 3319 
L 925 3319 
L 925 2853 
Q 1081 3097 1340 3245 
Q 1600 3394 1931 3394 
Q 2300 3394 2536 3241 
Q 2772 3088 2869 2813 
Q 3263 3394 3894 3394 
Q 4388 3394 4653 3120 
Q 4919 2847 4919 2278 
L 4919 0 
L 4359 0 
L 4359 2091 
Q 4359 2428 4304 2576 
Q 4250 2725 4106 2815 
Q 3963 2906 3769 2906 
Q 3419 2906 3187 2673 
Q 2956 2441 2956 1928 
L 2956 0 
L 2394 0 
L 2394 2156 
Q 2394 2531 2256 2718 
Q 2119 2906 1806 2906 
Q 1569 2906 1367 2781 
Q 1166 2656 1075 2415 
Q 984 2175 984 1722 
L 984 0 
L 422 0 
z
" transform="scale(0.015625)"/>
      </defs>
      <use xlink:href="#ArialMT-33"/>
      <use xlink:href="#ArialMT-30" transform="translate(55.615234 0)"/>
      <use xlink:href="#ArialMT-2d" transform="translate(111.230469 0)"/>
      <use xlink:href="#ArialMT-64" transform="translate(144.53125 0)"/>
      <use xlink:href="#ArialMT-61" transform="translate(200.146484 0)"/>
      <use xlink:href="#ArialMT-79" transform="translate(255.761719 0)"/>
      <use xlink:href="#ArialMT-20" transform="translate(305.761719 0)"/>
      <use xlink:href="#ArialMT-72" transform="translate(333.544922 0)"/>
      <use xlink:href="#ArialMT-6f" transform="translate(366.845703 0)"/>
      <use xlink:href="#ArialMT-6c" transform="translate(422.460938 0)"/>
      <use xlink:href="#ArialMT-6c" transform="translate(444.677734 0)"/>
      <use xlink:href="#ArialMT-69" transform="translate(466.894531 0)"/>
      <use xlink:href="#ArialMT-6e" transform="translate(489.111328 0)"/>
      <use xlink:href="#ArialMT-67" transform="translate(544.726562 0)"/>
      <use xlink:href="#ArialMT-20" transform="translate(600.341797 0)"/>
      <use xlink:href="#ArialMT-6d" transform="translate(628.125 0)"/>
      <use xlink:href="#ArialMT-65" transform="translate(711.425781 0)"/>
      <use xlink:href="#ArialMT-61" transform="translate(767.041016 0)"/>
      <use xlink:href="#ArialMT-6e" transform="translate(822.65625 0)"/>
     </g>
    </g>
   </g>
  </g>
 </g>
 <defs>
  <clipPath id="p1c512a5361">
   <rect x="56.6335" y="27.177" width="917.418" height="201.988"/>
  </clipPath>
 </defs>
</svg>
